G04*
G04 #@! TF.GenerationSoftware,Altium Limited,Altium Designer,22.6.1 (34)*
G04*
G04 Layer_Color=65535*
%FSLAX44Y44*%
%MOMM*%
G71*
G04*
G04 #@! TF.SameCoordinates,3FC15ED1-56EA-4B36-BDB6-6E6CE890E9D8*
G04*
G04*
G04 #@! TF.FilePolarity,Positive*
G04*
G01*
G75*
%ADD10C,0.2500*%
%ADD11C,0.2032*%
%ADD12C,0.2000*%
%ADD13C,0.1524*%
%ADD14C,0.2540*%
%ADD15C,1.2000*%
D10*
X630154Y1050798D02*
G03*
X630154Y1050798I-1250J0D01*
G01*
X737500Y925750D02*
G03*
X737500Y925750I-1250J0D01*
G01*
D11*
X586232Y1016508D02*
X590042Y1020318D01*
X582422D02*
X586232Y1016508D01*
X582422Y1020318D02*
X590042D01*
X582930Y752348D02*
Y759968D01*
X579120Y756158D02*
X582930Y759968D01*
X579120Y756158D02*
X582930Y752348D01*
Y941070D02*
Y948690D01*
X579120Y944880D02*
X582930Y948690D01*
X579120Y944880D02*
X582930Y941070D01*
X582676Y811276D02*
Y818896D01*
X578866Y815086D02*
X582676Y818896D01*
X578866Y815086D02*
X582676Y811276D01*
X582930Y875030D02*
Y882650D01*
X579120Y878840D02*
X582930Y882650D01*
X579120Y878840D02*
X582930Y875030D01*
X847850Y807257D02*
X846581Y808527D01*
X844042D01*
X842772Y807257D01*
Y805987D01*
X844042Y804718D01*
X846581D01*
X847850Y803448D01*
Y802179D01*
X846581Y800909D01*
X844042D01*
X842772Y802179D01*
X851659Y807257D02*
Y805987D01*
X850389D01*
X852929D01*
X851659D01*
Y802179D01*
X852929Y800909D01*
X860546D02*
X858007D01*
X856738Y802179D01*
Y804718D01*
X858007Y805987D01*
X860546D01*
X861816Y804718D01*
Y803448D01*
X856738D01*
X864355Y798370D02*
Y805987D01*
X868164D01*
X869433Y804718D01*
Y802179D01*
X868164Y800909D01*
X864355D01*
X871973Y798370D02*
Y805987D01*
X875781D01*
X877051Y804718D01*
Y802179D01*
X875781Y800909D01*
X871973D01*
X883399D02*
X880860D01*
X879590Y802179D01*
Y804718D01*
X880860Y805987D01*
X883399D01*
X884668Y804718D01*
Y803448D01*
X879590D01*
X887208Y805987D02*
Y800909D01*
Y803448D01*
X888477Y804718D01*
X889747Y805987D01*
X891016D01*
X902443Y800909D02*
Y808527D01*
X904982Y805987D01*
X907521Y808527D01*
Y800909D01*
X911330D02*
X913869D01*
X915139Y802179D01*
Y804718D01*
X913869Y805987D01*
X911330D01*
X910060Y804718D01*
Y802179D01*
X911330Y800909D01*
X918947Y807257D02*
Y805987D01*
X917678D01*
X920217D01*
X918947D01*
Y802179D01*
X920217Y800909D01*
X925295D02*
X927834D01*
X929104Y802179D01*
Y804718D01*
X927834Y805987D01*
X925295D01*
X924026Y804718D01*
Y802179D01*
X925295Y800909D01*
X931643Y805987D02*
Y800909D01*
Y803448D01*
X932913Y804718D01*
X934182Y805987D01*
X935452D01*
X847850Y790700D02*
X846581Y791970D01*
X844042D01*
X842772Y790700D01*
Y785622D01*
X844042Y784352D01*
X846581D01*
X847850Y785622D01*
X851659Y784352D02*
X854198D01*
X855468Y785622D01*
Y788161D01*
X854198Y789430D01*
X851659D01*
X850389Y788161D01*
Y785622D01*
X851659Y784352D01*
X858007D02*
Y789430D01*
X861816D01*
X863085Y788161D01*
Y784352D01*
X866894Y790700D02*
Y789430D01*
X865625D01*
X868164D01*
X866894D01*
Y785622D01*
X868164Y784352D01*
X871973Y789430D02*
Y784352D01*
Y786891D01*
X873242Y788161D01*
X874512Y789430D01*
X875781D01*
X880860Y784352D02*
X883399D01*
X884668Y785622D01*
Y788161D01*
X883399Y789430D01*
X880860D01*
X879590Y788161D01*
Y785622D01*
X880860Y784352D01*
X887208D02*
X889747D01*
X888477D01*
Y791970D01*
X887208D01*
X893556Y784352D02*
X896095D01*
X894825D01*
Y791970D01*
X893556D01*
X903712Y784352D02*
X901173D01*
X899903Y785622D01*
Y788161D01*
X901173Y789430D01*
X903712D01*
X904982Y788161D01*
Y786891D01*
X899903D01*
X907521Y789430D02*
Y784352D01*
Y786891D01*
X908791Y788161D01*
X910060Y789430D01*
X911330D01*
X915139Y788161D02*
X920217D01*
X930374Y784352D02*
Y789430D01*
X932913Y791970D01*
X935452Y789430D01*
Y784352D01*
Y788161D01*
X930374D01*
X941800Y784352D02*
Y791970D01*
X937991Y788161D01*
X943070D01*
X945609Y785622D02*
X946878Y784352D01*
X949417D01*
X950687Y785622D01*
Y790700D01*
X949417Y791970D01*
X946878D01*
X945609Y790700D01*
Y789430D01*
X946878Y788161D01*
X950687D01*
X953226Y790700D02*
X954496Y791970D01*
X957035D01*
X958305Y790700D01*
Y789430D01*
X957035Y788161D01*
X958305Y786891D01*
Y785622D01*
X957035Y784352D01*
X954496D01*
X953226Y785622D01*
Y786891D01*
X954496Y788161D01*
X953226Y789430D01*
Y790700D01*
X954496Y788161D02*
X957035D01*
X960844Y790700D02*
X962113Y791970D01*
X964653D01*
X965922Y790700D01*
Y789430D01*
X964653Y788161D01*
X965922Y786891D01*
Y785622D01*
X964653Y784352D01*
X962113D01*
X960844Y785622D01*
Y786891D01*
X962113Y788161D01*
X960844Y789430D01*
Y790700D01*
X962113Y788161D02*
X964653D01*
X842772Y774190D02*
Y769111D01*
X845311Y766572D01*
X847850Y769111D01*
Y774190D01*
X854198Y766572D02*
X851659D01*
X850389Y767842D01*
Y770381D01*
X851659Y771650D01*
X854198D01*
X855468Y770381D01*
Y769111D01*
X850389D01*
X858007Y771650D02*
Y766572D01*
Y769111D01*
X859277Y770381D01*
X860546Y771650D01*
X861816D01*
X865625Y766572D02*
X869433D01*
X870703Y767842D01*
X869433Y769111D01*
X866894D01*
X865625Y770381D01*
X866894Y771650D01*
X870703D01*
X873242Y766572D02*
X875781D01*
X874512D01*
Y771650D01*
X873242D01*
X880860Y766572D02*
X883399D01*
X884668Y767842D01*
Y770381D01*
X883399Y771650D01*
X880860D01*
X879590Y770381D01*
Y767842D01*
X880860Y766572D01*
X887208D02*
Y771650D01*
X891016D01*
X892286Y770381D01*
Y766572D01*
X902443Y772920D02*
X903712Y774190D01*
X906252D01*
X907521Y772920D01*
Y767842D01*
X906252Y766572D01*
X903712D01*
X902443Y767842D01*
Y772920D01*
X910060Y766572D02*
Y767842D01*
X911330D01*
Y766572D01*
X910060D01*
X921487D02*
X916408D01*
X921487Y771650D01*
Y772920D01*
X920217Y774190D01*
X917678D01*
X916408Y772920D01*
X924026Y766572D02*
Y767842D01*
X925295D01*
Y766572D01*
X924026D01*
X935452Y774190D02*
X932913Y772920D01*
X930374Y770381D01*
Y767842D01*
X931643Y766572D01*
X934182D01*
X935452Y767842D01*
Y769111D01*
X934182Y770381D01*
X930374D01*
X560830Y794512D02*
X555752D01*
X560830Y799590D01*
Y800860D01*
X559561Y802130D01*
X557022D01*
X555752Y800860D01*
X563369Y802130D02*
Y794512D01*
X567178D01*
X568448Y795782D01*
Y797051D01*
X567178Y798321D01*
X563369D01*
X567178D01*
X568448Y799590D01*
Y800860D01*
X567178Y802130D01*
X563369D01*
X560830Y858012D02*
X555752D01*
X560830Y863090D01*
Y864360D01*
X559561Y865630D01*
X557022D01*
X555752Y864360D01*
X563369Y858012D02*
Y863090D01*
X565909Y865630D01*
X568448Y863090D01*
Y858012D01*
Y861821D01*
X563369D01*
X555752Y924052D02*
X558291D01*
X557022D01*
Y931669D01*
X555752Y930400D01*
X562100Y931669D02*
Y924052D01*
X565909D01*
X567178Y925322D01*
Y926591D01*
X565909Y927861D01*
X562100D01*
X565909D01*
X567178Y929130D01*
Y930400D01*
X565909Y931669D01*
X562100D01*
X555752Y990092D02*
X558291D01*
X557022D01*
Y997710D01*
X555752Y996440D01*
X562100Y990092D02*
Y995170D01*
X564639Y997710D01*
X567178Y995170D01*
Y990092D01*
Y993901D01*
X562100D01*
X936752Y896110D02*
Y891032D01*
X939291D01*
X940138Y891878D01*
Y895264D01*
X939291Y896110D01*
X936752D01*
X941830D02*
X943523D01*
X942677D01*
Y891032D01*
X941830D01*
X943523D01*
X946062D02*
Y896110D01*
X948602D01*
X949448Y895264D01*
Y893571D01*
X948602Y892725D01*
X946062D01*
X947755D02*
X949448Y891032D01*
X739140Y1041654D02*
Y1049271D01*
X742949D01*
X744218Y1048002D01*
Y1045463D01*
X742949Y1044193D01*
X739140D01*
X748027Y1041654D02*
X750566D01*
X751836Y1042924D01*
Y1045463D01*
X750566Y1046732D01*
X748027D01*
X746758Y1045463D01*
Y1042924D01*
X748027Y1041654D01*
X754375Y1046732D02*
Y1042924D01*
X755645Y1041654D01*
X756914Y1042924D01*
X758184Y1041654D01*
X759453Y1042924D01*
Y1046732D01*
X765801Y1041654D02*
X763262D01*
X761993Y1042924D01*
Y1045463D01*
X763262Y1046732D01*
X765801D01*
X767071Y1045463D01*
Y1044193D01*
X761993D01*
X769610Y1046732D02*
Y1041654D01*
Y1044193D01*
X770880Y1045463D01*
X772149Y1046732D01*
X773419D01*
D12*
X760322Y796560D02*
Y798560D01*
X772822Y796560D02*
Y798560D01*
X773253Y964909D02*
Y1005971D01*
X747191Y964909D02*
Y1005971D01*
X833031Y959469D02*
Y1000531D01*
X806969Y959469D02*
Y1000531D01*
X756416Y829314D02*
Y844038D01*
X742692Y829314D02*
Y844038D01*
X628764Y1059618D02*
Y1085618D01*
X638264D01*
X674764Y1059618D02*
Y1085618D01*
X665264D02*
X674764D01*
X742750Y872750D02*
X749500D01*
X742750D02*
Y879500D01*
X790500Y872750D02*
X797250D01*
Y879500D01*
Y920500D02*
Y927250D01*
X790500D02*
X797250D01*
X742750D02*
X749500D01*
X742750Y920500D02*
Y927250D01*
X706500Y1018000D02*
X713500D01*
X706500Y1002000D02*
X713500D01*
D13*
X848360Y760728D02*
Y755650D01*
X851746D01*
X853438Y759036D02*
Y756496D01*
X854285Y755650D01*
X856824D01*
Y759036D01*
X861902D02*
X859363D01*
X858517Y758189D01*
Y756496D01*
X859363Y755650D01*
X861902D01*
X864442Y759036D02*
X866134D01*
X866981Y758189D01*
Y755650D01*
X864442D01*
X863595Y756496D01*
X864442Y757343D01*
X866981D01*
X868673Y755650D02*
X871213D01*
X872059Y756496D01*
X871213Y757343D01*
X869520D01*
X868673Y758189D01*
X869520Y759036D01*
X872059D01*
X878830Y760728D02*
Y755650D01*
X882216D01*
X886448D02*
X884755D01*
X883908Y756496D01*
Y758189D01*
X884755Y759036D01*
X886448D01*
X887294Y758189D01*
Y757343D01*
X883908D01*
X888987Y755650D02*
Y759036D01*
X891526D01*
X892372Y758189D01*
Y755650D01*
X894911Y759036D02*
X896604D01*
X897451Y758189D01*
Y755650D01*
X894911D01*
X894065Y756496D01*
X894911Y757343D01*
X897451D01*
X899144Y759036D02*
Y755650D01*
Y757343D01*
X899990Y758189D01*
X900836Y759036D01*
X901683D01*
X907607D02*
X905068D01*
X904222Y758189D01*
Y756496D01*
X905068Y755650D01*
X907607D01*
X909300D02*
X910993D01*
X910147D01*
Y759036D01*
X909300D01*
X916918D02*
X914379D01*
X913532Y758189D01*
Y756496D01*
X914379Y755650D01*
X916918D01*
X937090Y843956D02*
X936243Y844802D01*
X934550D01*
X933704Y843956D01*
Y843110D01*
X934550Y842263D01*
X936243D01*
X937090Y841417D01*
Y840570D01*
X936243Y839724D01*
X934550D01*
X933704Y840570D01*
X938782Y844802D02*
X942168D01*
X940475D01*
Y839724D01*
X947246Y844802D02*
X943861D01*
Y839724D01*
X947246D01*
X943861Y842263D02*
X945554D01*
X948939Y839724D02*
Y844802D01*
X951478D01*
X952325Y843956D01*
Y842263D01*
X951478Y841417D01*
X948939D01*
D14*
X820420Y1069340D02*
X830577D01*
X683260Y1069338D02*
X693417D01*
X688338Y1074417D02*
Y1064260D01*
X699268Y828550D02*
Y843785D01*
X706886D01*
X709425Y841246D01*
Y836168D01*
X706886Y833629D01*
X699268D01*
X704346D02*
X709425Y828550D01*
X714503D02*
X719582D01*
X717042D01*
Y843785D01*
X714503Y841246D01*
X727199D02*
X729738Y843785D01*
X734817D01*
X737356Y841246D01*
Y838707D01*
X734817Y836168D01*
X732278D01*
X734817D01*
X737356Y833629D01*
Y831090D01*
X734817Y828550D01*
X729738D01*
X727199Y831090D01*
X777500Y794260D02*
Y809495D01*
X785118D01*
X787657Y806956D01*
Y801878D01*
X785118Y799339D01*
X777500D01*
X782579D02*
X787657Y794260D01*
X792735D02*
X797814D01*
X795274D01*
Y809495D01*
X792735Y806956D01*
X813049Y794260D02*
Y809495D01*
X805431Y801878D01*
X815588D01*
X639322Y1082038D02*
Y1069342D01*
X641861Y1066803D01*
X646940D01*
X649479Y1069342D01*
Y1082038D01*
X664714Y1066803D02*
X654557D01*
X664714Y1076959D01*
Y1079498D01*
X662175Y1082038D01*
X657096D01*
X654557Y1079498D01*
X630812Y771907D02*
Y779525D01*
X634621D01*
X635890Y778255D01*
Y775716D01*
X634621Y774446D01*
X630812D01*
X633351D02*
X635890Y771907D01*
X638430D02*
X640969D01*
X639699D01*
Y779525D01*
X638430Y778255D01*
X649856Y771907D02*
X644778D01*
X649856Y776986D01*
Y778255D01*
X648586Y779525D01*
X646047D01*
X644778Y778255D01*
X614048Y826771D02*
Y834389D01*
X617856D01*
X619126Y833119D01*
Y830580D01*
X617856Y829310D01*
X614048D01*
X616587D02*
X619126Y826771D01*
X621665D02*
X624204D01*
X622935D01*
Y834389D01*
X621665Y833119D01*
X628013Y826771D02*
X630552D01*
X629283D01*
Y834389D01*
X628013Y833119D01*
X590478Y921191D02*
Y928809D01*
X594287D01*
X595556Y927539D01*
Y925000D01*
X594287Y923730D01*
X590478D01*
X593017D02*
X595556Y921191D01*
X598096D02*
X600635D01*
X599365D01*
Y928809D01*
X598096Y927539D01*
X604444D02*
X605713Y928809D01*
X608252D01*
X609522Y927539D01*
Y922461D01*
X608252Y921191D01*
X605713D01*
X604444Y922461D01*
Y927539D01*
X623652Y976191D02*
Y983809D01*
X627461D01*
X628730Y982539D01*
Y980000D01*
X627461Y978730D01*
X623652D01*
X626191D02*
X628730Y976191D01*
X631270Y977461D02*
X632539Y976191D01*
X635078D01*
X636348Y977461D01*
Y982539D01*
X635078Y983809D01*
X632539D01*
X631270Y982539D01*
Y981270D01*
X632539Y980000D01*
X636348D01*
X611380Y1078485D02*
Y1086103D01*
X615189D01*
X616458Y1084833D01*
Y1082294D01*
X615189Y1081024D01*
X611380D01*
X613919D02*
X616458Y1078485D01*
X618998Y1086103D02*
X624076D01*
Y1084833D01*
X618998Y1079755D01*
Y1078485D01*
X608332Y750061D02*
Y742443D01*
X612141D01*
X613410Y743713D01*
Y748791D01*
X612141Y750061D01*
X608332D01*
X621028D02*
X615950D01*
Y746252D01*
X618489Y747522D01*
X619758D01*
X621028Y746252D01*
Y743713D01*
X619758Y742443D01*
X617219D01*
X615950Y743713D01*
X623572Y814069D02*
Y806451D01*
X627381D01*
X628650Y807721D01*
Y812799D01*
X627381Y814069D01*
X623572D01*
X634998Y806451D02*
Y814069D01*
X631190Y810260D01*
X636268D01*
X610312Y882649D02*
Y875031D01*
X614121D01*
X615390Y876301D01*
Y881379D01*
X614121Y882649D01*
X610312D01*
X617930Y881379D02*
X619199Y882649D01*
X621738D01*
X623008Y881379D01*
Y880110D01*
X621738Y878840D01*
X620469D01*
X621738D01*
X623008Y877570D01*
Y876301D01*
X621738Y875031D01*
X619199D01*
X617930Y876301D01*
X615312Y948689D02*
Y941071D01*
X619121D01*
X620390Y942341D01*
Y947419D01*
X619121Y948689D01*
X615312D01*
X628008Y941071D02*
X622930D01*
X628008Y946150D01*
Y947419D01*
X626738Y948689D01*
X624199D01*
X622930Y947419D01*
X559922Y1018809D02*
Y1011191D01*
X563730D01*
X565000Y1012461D01*
Y1017539D01*
X563730Y1018809D01*
X559922D01*
X567539Y1011191D02*
X570078D01*
X568809D01*
Y1018809D01*
X567539Y1017539D01*
X739922Y953809D02*
Y947461D01*
X741191Y946191D01*
X743730D01*
X745000Y947461D01*
Y953809D01*
X747539Y946191D02*
X750078D01*
X748809D01*
Y953809D01*
X747539Y952539D01*
X708652Y796191D02*
Y803809D01*
X712461D01*
X713730Y802539D01*
Y800000D01*
X712461Y798730D01*
X708652D01*
X711191D02*
X713730Y796191D01*
X716270Y802539D02*
X717539Y803809D01*
X720078D01*
X721348Y802539D01*
Y801270D01*
X720078Y800000D01*
X721348Y798730D01*
Y797461D01*
X720078Y796191D01*
X717539D01*
X716270Y797461D01*
Y798730D01*
X717539Y800000D01*
X716270Y801270D01*
Y802539D01*
X717539Y800000D02*
X720078D01*
X713652Y926191D02*
Y933809D01*
X717461D01*
X718730Y932539D01*
Y930000D01*
X717461Y928730D01*
X713652D01*
X716191D02*
X718730Y926191D01*
X726348Y933809D02*
X723809Y932539D01*
X721270Y930000D01*
Y927461D01*
X722539Y926191D01*
X725078D01*
X726348Y927461D01*
Y928730D01*
X725078Y930000D01*
X721270D01*
X703652Y756191D02*
Y763809D01*
X707461D01*
X708730Y762539D01*
Y760000D01*
X707461Y758730D01*
X703652D01*
X706191D02*
X708730Y756191D01*
X716348Y763809D02*
X711270D01*
Y760000D01*
X713809Y761270D01*
X715078D01*
X716348Y760000D01*
Y757461D01*
X715078Y756191D01*
X712539D01*
X711270Y757461D01*
X798578Y776479D02*
Y784097D01*
X802387D01*
X803656Y782827D01*
Y780288D01*
X802387Y779018D01*
X798578D01*
X801117D02*
X803656Y776479D01*
X810004D02*
Y784097D01*
X806196Y780288D01*
X811274D01*
X776734Y976123D02*
Y983741D01*
X780543D01*
X781812Y982471D01*
Y979932D01*
X780543Y978662D01*
X776734D01*
X779273D02*
X781812Y976123D01*
X789430D02*
X784352D01*
X789430Y981202D01*
Y982471D01*
X788160Y983741D01*
X785621D01*
X784352Y982471D01*
X837440Y976123D02*
Y983741D01*
X841248D01*
X842518Y982471D01*
Y979932D01*
X841248Y978662D01*
X837440D01*
X839979D02*
X842518Y976123D01*
X845057D02*
X847596D01*
X846327D01*
Y983741D01*
X845057Y982471D01*
X668780Y817624D02*
X667511Y818894D01*
X664972D01*
X663702Y817624D01*
Y812546D01*
X664972Y811276D01*
X667511D01*
X668780Y812546D01*
X671320Y817624D02*
X672589Y818894D01*
X675128D01*
X676398Y817624D01*
Y816354D01*
X675128Y815085D01*
X676398Y813815D01*
Y812546D01*
X675128Y811276D01*
X672589D01*
X671320Y812546D01*
Y813815D01*
X672589Y815085D01*
X671320Y816354D01*
Y817624D01*
X672589Y815085D02*
X675128D01*
X663730Y912539D02*
X662461Y913809D01*
X659922D01*
X658652Y912539D01*
Y907461D01*
X659922Y906191D01*
X662461D01*
X663730Y907461D01*
X671348Y913809D02*
X668809Y912539D01*
X666270Y910000D01*
Y907461D01*
X667539Y906191D01*
X670078D01*
X671348Y907461D01*
Y908730D01*
X670078Y910000D01*
X666270D01*
X918730Y967539D02*
X917461Y968809D01*
X914922D01*
X913652Y967539D01*
Y962461D01*
X914922Y961191D01*
X917461D01*
X918730Y962461D01*
X926348Y968809D02*
X921270D01*
Y965000D01*
X923809Y966270D01*
X925078D01*
X926348Y965000D01*
Y962461D01*
X925078Y961191D01*
X922539D01*
X921270Y962461D01*
X646430Y835659D02*
X645161Y836929D01*
X642622D01*
X641352Y835659D01*
Y830581D01*
X642622Y829311D01*
X645161D01*
X646430Y830581D01*
X652778Y829311D02*
Y836929D01*
X648970Y833120D01*
X654048D01*
X883730Y837539D02*
X882461Y838809D01*
X879922D01*
X878652Y837539D01*
Y832461D01*
X879922Y831191D01*
X882461D01*
X883730Y832461D01*
X886270Y837539D02*
X887539Y838809D01*
X890078D01*
X891348Y837539D01*
Y836270D01*
X890078Y835000D01*
X888809D01*
X890078D01*
X891348Y833730D01*
Y832461D01*
X890078Y831191D01*
X887539D01*
X886270Y832461D01*
X668730Y1007539D02*
X667461Y1008809D01*
X664922D01*
X663652Y1007539D01*
Y1002461D01*
X664922Y1001191D01*
X667461D01*
X668730Y1002461D01*
X676348Y1001191D02*
X671270D01*
X676348Y1006270D01*
Y1007539D01*
X675078Y1008809D01*
X672539D01*
X671270Y1007539D01*
D15*
X976000Y1040000D02*
G03*
X974243Y1044243I-6000J0D01*
G01*
X976000Y1040000D02*
G03*
X974243Y1044243I-6000J0D01*
G01*
X914243Y1104243D02*
G03*
X910000Y1106000I-4243J-4243D01*
G01*
X914243Y1104243D02*
G03*
X910000Y1106000I-4243J-4243D01*
G01*
X974243Y735757D02*
G03*
X976000Y740000I-4243J4243D01*
G01*
X974243Y735757D02*
G03*
X976000Y740000I-4243J4243D01*
G01*
X910000Y674000D02*
G03*
X914243Y675757I0J6000D01*
G01*
X910000Y674000D02*
G03*
X914243Y675757I0J6000D01*
G01*
X610000Y1106000D02*
G03*
X605757Y1104243I0J-6000D01*
G01*
X610000Y1106000D02*
G03*
X605757Y1104243I0J-6000D01*
G01*
X545757Y1044243D02*
G03*
X544000Y1040000I4243J-4243D01*
G01*
X545757Y1044243D02*
G03*
X544000Y1040000I4243J-4243D01*
G01*
X605757Y675757D02*
G03*
X610000Y674000I4243J4243D01*
G01*
X544000Y740000D02*
G03*
X545757Y735757I6000J0D01*
G01*
X544000Y740000D02*
G03*
X545757Y735757I6000J0D01*
G01*
X605757Y675757D02*
G03*
X610000Y674000I4243J4243D01*
G01*
X910000D01*
X545757Y735757D02*
X605757Y675757D01*
X544000Y740000D02*
Y1040000D01*
X914243Y1104243D02*
X974243Y1044243D01*
X976000Y740000D02*
Y1040000D01*
X914243Y675757D02*
X974243Y735757D01*
X610000Y1106000D02*
X910000D01*
X545757Y1044243D02*
X605757Y1104243D01*
M02*
