G04*
G04 #@! TF.GenerationSoftware,Altium Limited,Altium Designer,22.6.1 (34)*
G04*
G04 Layer_Color=16711935*
%FSLAX44Y44*%
%MOMM*%
G71*
G04*
G04 #@! TF.SameCoordinates,3FC15ED1-56EA-4B36-BDB6-6E6CE890E9D8*
G04*
G04*
G04 #@! TF.FilePolarity,Positive*
G04*
G01*
G75*
%ADD12C,0.2000*%
%ADD15C,1.2000*%
G36*
X766620Y982472D02*
X766611Y982398D01*
Y982315D01*
X766601Y982120D01*
X766574Y981917D01*
X766546Y981695D01*
X766500Y981492D01*
X766472Y981390D01*
X766444Y981307D01*
Y981298D01*
X766435Y981288D01*
X766407Y981233D01*
X766370Y981150D01*
X766305Y981048D01*
X766222Y980937D01*
X766111Y980817D01*
X765982Y980706D01*
X765834Y980595D01*
X765825D01*
X765816Y980586D01*
X765760Y980549D01*
X765668Y980512D01*
X765547Y980456D01*
X765409Y980410D01*
X765242Y980364D01*
X765067Y980336D01*
X764872Y980327D01*
X764863D01*
X764845D01*
X764808D01*
X764762Y980336D01*
X764697D01*
X764632Y980345D01*
X764475Y980382D01*
X764290Y980438D01*
X764096Y980512D01*
X763902Y980623D01*
X763809Y980697D01*
X763717Y980771D01*
X763708Y980780D01*
X763698Y980789D01*
X763671Y980817D01*
X763643Y980854D01*
X763606Y980900D01*
X763569Y980956D01*
X763523Y981030D01*
X763467Y981103D01*
X763421Y981196D01*
X763375Y981298D01*
X763319Y981408D01*
X763273Y981529D01*
X763236Y981667D01*
X763190Y981806D01*
X763162Y981963D01*
X763134Y982130D01*
X763125Y982111D01*
X763107Y982074D01*
X763070Y982019D01*
X763033Y981945D01*
X762931Y981778D01*
X762866Y981695D01*
X762811Y981621D01*
X762792Y981603D01*
X762746Y981556D01*
X762672Y981482D01*
X762579Y981390D01*
X762450Y981288D01*
X762311Y981168D01*
X762145Y981048D01*
X761960Y980919D01*
X760222Y979818D01*
Y980872D01*
X761553Y981714D01*
X761562D01*
X761581Y981732D01*
X761609Y981751D01*
X761646Y981778D01*
X761747Y981843D01*
X761877Y981926D01*
X762016Y982028D01*
X762163Y982130D01*
X762302Y982231D01*
X762432Y982324D01*
X762441Y982333D01*
X762478Y982361D01*
X762533Y982407D01*
X762598Y982472D01*
X762737Y982610D01*
X762801Y982684D01*
X762857Y982758D01*
X762866Y982768D01*
X762875Y982786D01*
X762894Y982823D01*
X762922Y982879D01*
X762949Y982934D01*
X762977Y982999D01*
X763023Y983147D01*
Y983156D01*
X763033Y983174D01*
Y983211D01*
X763042Y983258D01*
X763051Y983322D01*
Y983396D01*
X763060Y983498D01*
Y984589D01*
X760222D01*
Y985440D01*
X766620D01*
Y982472D01*
D02*
G37*
G36*
X760398Y979421D02*
X760481Y979411D01*
X760573Y979393D01*
X760666Y979374D01*
X760767Y979337D01*
X760777D01*
X760786Y979328D01*
X760841Y979310D01*
X760925Y979273D01*
X761036Y979217D01*
X761165Y979143D01*
X761313Y979051D01*
X761461Y978949D01*
X761618Y978820D01*
X761627D01*
X761637Y978801D01*
X761692Y978755D01*
X761775Y978672D01*
X761895Y978552D01*
X762034Y978413D01*
X762200Y978237D01*
X762385Y978025D01*
X762579Y977794D01*
X762589Y977784D01*
X762617Y977747D01*
X762663Y977692D01*
X762718Y977627D01*
X762792Y977544D01*
X762875Y977442D01*
X762968Y977340D01*
X763070Y977220D01*
X763291Y976989D01*
X763513Y976758D01*
X763624Y976647D01*
X763735Y976545D01*
X763837Y976453D01*
X763939Y976379D01*
X763948D01*
X763957Y976360D01*
X763985Y976342D01*
X764022Y976323D01*
X764124Y976259D01*
X764244Y976185D01*
X764392Y976120D01*
X764549Y976055D01*
X764725Y976018D01*
X764891Y976000D01*
X764900D01*
X764909D01*
X764965Y976009D01*
X765057Y976018D01*
X765159Y976046D01*
X765288Y976083D01*
X765418Y976148D01*
X765547Y976231D01*
X765677Y976342D01*
X765695Y976360D01*
X765732Y976407D01*
X765779Y976471D01*
X765843Y976573D01*
X765899Y976702D01*
X765954Y976850D01*
X765991Y977026D01*
X766000Y977220D01*
Y977276D01*
X765991Y977313D01*
X765982Y977424D01*
X765954Y977553D01*
X765917Y977692D01*
X765853Y977849D01*
X765769Y977997D01*
X765658Y978136D01*
X765640Y978154D01*
X765594Y978191D01*
X765520Y978247D01*
X765409Y978302D01*
X765279Y978367D01*
X765113Y978422D01*
X764928Y978459D01*
X764715Y978478D01*
X764799Y979282D01*
X764808D01*
X764836Y979273D01*
X764882D01*
X764946Y979264D01*
X765020Y979245D01*
X765104Y979227D01*
X765205Y979199D01*
X765307Y979171D01*
X765529Y979097D01*
X765751Y978986D01*
X765862Y978922D01*
X765973Y978838D01*
X766074Y978755D01*
X766167Y978663D01*
X766176Y978653D01*
X766185Y978635D01*
X766213Y978607D01*
X766241Y978561D01*
X766278Y978505D01*
X766315Y978441D01*
X766361Y978367D01*
X766407Y978274D01*
X766453Y978173D01*
X766500Y978062D01*
X766537Y977941D01*
X766574Y977812D01*
X766601Y977673D01*
X766629Y977525D01*
X766638Y977368D01*
X766648Y977202D01*
Y977109D01*
X766638Y977045D01*
X766629Y976971D01*
X766620Y976878D01*
X766601Y976777D01*
X766583Y976675D01*
X766518Y976434D01*
X766426Y976194D01*
X766370Y976074D01*
X766305Y975954D01*
X766222Y975843D01*
X766130Y975741D01*
X766121Y975732D01*
X766111Y975713D01*
X766074Y975695D01*
X766037Y975658D01*
X765991Y975611D01*
X765926Y975565D01*
X765862Y975519D01*
X765779Y975464D01*
X765603Y975371D01*
X765381Y975279D01*
X765270Y975242D01*
X765141Y975223D01*
X765011Y975205D01*
X764872Y975195D01*
X764854D01*
X764808D01*
X764734Y975205D01*
X764632Y975214D01*
X764521Y975232D01*
X764392Y975269D01*
X764253Y975306D01*
X764114Y975362D01*
X764096Y975371D01*
X764050Y975390D01*
X763976Y975427D01*
X763874Y975482D01*
X763763Y975556D01*
X763624Y975648D01*
X763486Y975760D01*
X763328Y975889D01*
X763310Y975907D01*
X763254Y975954D01*
X763208Y976000D01*
X763162Y976046D01*
X763107Y976102D01*
X763033Y976176D01*
X762959Y976249D01*
X762875Y976342D01*
X762783Y976434D01*
X762681Y976545D01*
X762579Y976665D01*
X762459Y976795D01*
X762339Y976943D01*
X762210Y977091D01*
X762200Y977100D01*
X762182Y977119D01*
X762154Y977156D01*
X762117Y977202D01*
X762062Y977257D01*
X762006Y977322D01*
X761886Y977470D01*
X761747Y977627D01*
X761609Y977775D01*
X761488Y977904D01*
X761442Y977960D01*
X761396Y978006D01*
X761387Y978015D01*
X761359Y978043D01*
X761322Y978080D01*
X761267Y978126D01*
X761202Y978173D01*
X761137Y978228D01*
X760980Y978339D01*
Y975186D01*
X760222D01*
Y979430D01*
X760231D01*
X760268D01*
X760324D01*
X760398Y979421D01*
D02*
G37*
G36*
X826398Y977032D02*
X826389Y976958D01*
Y976875D01*
X826379Y976681D01*
X826352Y976478D01*
X826324Y976256D01*
X826278Y976052D01*
X826250Y975950D01*
X826222Y975867D01*
Y975858D01*
X826213Y975849D01*
X826185Y975793D01*
X826148Y975710D01*
X826084Y975609D01*
X826000Y975498D01*
X825889Y975377D01*
X825760Y975266D01*
X825612Y975155D01*
X825603D01*
X825593Y975146D01*
X825538Y975109D01*
X825445Y975072D01*
X825325Y975017D01*
X825187Y974970D01*
X825020Y974924D01*
X824845Y974897D01*
X824650Y974887D01*
X824641D01*
X824623D01*
X824586D01*
X824539Y974897D01*
X824475D01*
X824410Y974906D01*
X824253Y974943D01*
X824068Y974998D01*
X823874Y975072D01*
X823680Y975183D01*
X823587Y975257D01*
X823495Y975331D01*
X823485Y975340D01*
X823476Y975350D01*
X823448Y975377D01*
X823421Y975414D01*
X823384Y975461D01*
X823347Y975516D01*
X823301Y975590D01*
X823245Y975664D01*
X823199Y975756D01*
X823153Y975858D01*
X823097Y975969D01*
X823051Y976089D01*
X823014Y976228D01*
X822968Y976367D01*
X822940Y976524D01*
X822912Y976690D01*
X822903Y976672D01*
X822885Y976635D01*
X822848Y976579D01*
X822811Y976505D01*
X822709Y976339D01*
X822644Y976256D01*
X822589Y976182D01*
X822570Y976163D01*
X822524Y976117D01*
X822450Y976043D01*
X822357Y975950D01*
X822228Y975849D01*
X822089Y975729D01*
X821923Y975609D01*
X821738Y975479D01*
X820000Y974379D01*
Y975433D01*
X821331Y976274D01*
X821340D01*
X821359Y976293D01*
X821387Y976311D01*
X821424Y976339D01*
X821525Y976404D01*
X821655Y976487D01*
X821794Y976589D01*
X821942Y976690D01*
X822080Y976792D01*
X822210Y976884D01*
X822219Y976894D01*
X822256Y976921D01*
X822311Y976968D01*
X822376Y977032D01*
X822515Y977171D01*
X822579Y977245D01*
X822635Y977319D01*
X822644Y977328D01*
X822653Y977347D01*
X822672Y977384D01*
X822700Y977439D01*
X822727Y977495D01*
X822755Y977559D01*
X822801Y977707D01*
Y977717D01*
X822811Y977735D01*
Y977772D01*
X822820Y977818D01*
X822829Y977883D01*
Y977957D01*
X822838Y978058D01*
Y979149D01*
X820000D01*
Y980000D01*
X826398D01*
Y977032D01*
D02*
G37*
G36*
X824817Y973269D02*
X824835Y973251D01*
X824845Y973214D01*
X824872Y973168D01*
X824900Y973112D01*
X824937Y973047D01*
X825030Y972890D01*
X825131Y972705D01*
X825261Y972520D01*
X825409Y972326D01*
X825566Y972132D01*
X825575Y972123D01*
X825584Y972114D01*
X825612Y972086D01*
X825640Y972049D01*
X825732Y971966D01*
X825843Y971855D01*
X825973Y971744D01*
X826121Y971624D01*
X826268Y971522D01*
X826426Y971430D01*
Y970921D01*
X820000D01*
Y971707D01*
X825002D01*
X824993Y971716D01*
X824956Y971762D01*
X824900Y971818D01*
X824835Y971910D01*
X824752Y972012D01*
X824660Y972141D01*
X824558Y972289D01*
X824456Y972456D01*
Y972465D01*
X824447Y972474D01*
X824410Y972530D01*
X824364Y972622D01*
X824308Y972733D01*
X824244Y972862D01*
X824179Y973001D01*
X824114Y973140D01*
X824059Y973279D01*
X824817D01*
Y973269D01*
D02*
G37*
G36*
X749578Y851959D02*
X749652Y851950D01*
X749735Y851931D01*
X749828Y851913D01*
X749929Y851894D01*
X750151Y851820D01*
X750272Y851765D01*
X750382Y851709D01*
X750503Y851635D01*
X750623Y851552D01*
X750743Y851460D01*
X750854Y851349D01*
X750863Y851339D01*
X750882Y851321D01*
X750909Y851284D01*
X750946Y851238D01*
X750993Y851182D01*
X751039Y851108D01*
X751094Y851025D01*
X751141Y850923D01*
X751196Y850822D01*
X751252Y850702D01*
X751298Y850581D01*
X751344Y850443D01*
X751381Y850295D01*
X751409Y850138D01*
X751427Y849980D01*
X751436Y849805D01*
Y849722D01*
X751427Y849666D01*
X751418Y849592D01*
X751409Y849509D01*
X751390Y849416D01*
X751372Y849315D01*
X751316Y849093D01*
X751224Y848862D01*
X751168Y848742D01*
X751104Y848631D01*
X751020Y848520D01*
X750937Y848409D01*
X750928Y848399D01*
X750909Y848381D01*
X750882Y848353D01*
X750845Y848326D01*
X750798Y848279D01*
X750734Y848233D01*
X750669Y848177D01*
X750586Y848122D01*
X750493Y848067D01*
X750401Y848011D01*
X750179Y847909D01*
X749920Y847826D01*
X749781Y847798D01*
X749634Y847780D01*
X749532Y848566D01*
X749541D01*
X749560Y848575D01*
X749597Y848584D01*
X749643Y848594D01*
X749698Y848603D01*
X749763Y848621D01*
X749902Y848668D01*
X750068Y848732D01*
X750225Y848816D01*
X750373Y848908D01*
X750503Y849019D01*
X750512Y849037D01*
X750549Y849074D01*
X750595Y849148D01*
X750641Y849241D01*
X750697Y849352D01*
X750743Y849490D01*
X750780Y849648D01*
X750789Y849814D01*
Y849870D01*
X750780Y849906D01*
X750771Y850008D01*
X750743Y850138D01*
X750697Y850285D01*
X750632Y850443D01*
X750540Y850600D01*
X750410Y850748D01*
X750392Y850766D01*
X750336Y850813D01*
X750253Y850868D01*
X750142Y850942D01*
X750003Y851016D01*
X749846Y851071D01*
X749661Y851118D01*
X749458Y851136D01*
X749449D01*
X749430D01*
X749402D01*
X749365Y851127D01*
X749264Y851118D01*
X749144Y851090D01*
X748996Y851053D01*
X748848Y850988D01*
X748700Y850896D01*
X748561Y850776D01*
X748543Y850757D01*
X748506Y850711D01*
X748450Y850637D01*
X748385Y850535D01*
X748321Y850406D01*
X748265Y850248D01*
X748228Y850073D01*
X748210Y849879D01*
Y849796D01*
X748219Y849731D01*
X748228Y849648D01*
X748247Y849555D01*
X748265Y849444D01*
X748293Y849324D01*
X747599Y849416D01*
Y849463D01*
X747609Y849500D01*
Y849620D01*
X747590Y849722D01*
X747572Y849842D01*
X747544Y849980D01*
X747498Y850138D01*
X747433Y850285D01*
X747350Y850443D01*
Y850452D01*
X747341Y850461D01*
X747304Y850507D01*
X747239Y850572D01*
X747156Y850646D01*
X747036Y850720D01*
X746897Y850785D01*
X746740Y850831D01*
X746647Y850850D01*
X746545D01*
X746536D01*
X746527D01*
X746472D01*
X746398Y850831D01*
X746296Y850813D01*
X746185Y850776D01*
X746065Y850729D01*
X745945Y850655D01*
X745834Y850554D01*
X745824Y850544D01*
X745787Y850498D01*
X745741Y850434D01*
X745686Y850350D01*
X745639Y850239D01*
X745593Y850110D01*
X745556Y849962D01*
X745547Y849796D01*
Y849722D01*
X745565Y849638D01*
X745584Y849527D01*
X745621Y849407D01*
X745667Y849287D01*
X745741Y849158D01*
X745834Y849037D01*
X745843Y849028D01*
X745889Y848991D01*
X745954Y848936D01*
X746046Y848871D01*
X746167Y848806D01*
X746314Y848742D01*
X746490Y848686D01*
X746693Y848649D01*
X746555Y847863D01*
X746545D01*
X746518Y847872D01*
X746481Y847882D01*
X746425Y847891D01*
X746361Y847909D01*
X746287Y847937D01*
X746111Y847993D01*
X745908Y848085D01*
X745704Y848196D01*
X745510Y848335D01*
X745334Y848510D01*
X745325Y848520D01*
X745316Y848538D01*
X745297Y848566D01*
X745270Y848603D01*
X745233Y848649D01*
X745196Y848714D01*
X745159Y848779D01*
X745113Y848862D01*
X745039Y849047D01*
X744965Y849259D01*
X744918Y849509D01*
X744900Y849638D01*
Y849870D01*
X744909Y849971D01*
X744928Y850091D01*
X744955Y850239D01*
X745002Y850406D01*
X745057Y850572D01*
X745131Y850739D01*
Y850748D01*
X745140Y850757D01*
X745168Y850813D01*
X745223Y850896D01*
X745288Y850988D01*
X745381Y851099D01*
X745482Y851210D01*
X745602Y851321D01*
X745741Y851413D01*
X745760Y851423D01*
X745806Y851451D01*
X745889Y851488D01*
X745991Y851534D01*
X746111Y851580D01*
X746250Y851617D01*
X746407Y851645D01*
X746564Y851654D01*
X746582D01*
X746638D01*
X746712Y851645D01*
X746814Y851626D01*
X746934Y851598D01*
X747063Y851552D01*
X747193Y851497D01*
X747322Y851423D01*
X747341Y851413D01*
X747378Y851386D01*
X747442Y851330D01*
X747516Y851256D01*
X747599Y851164D01*
X747692Y851053D01*
X747775Y850923D01*
X747858Y850766D01*
Y850776D01*
X747868Y850794D01*
X747877Y850822D01*
X747886Y850859D01*
X747923Y850960D01*
X747979Y851090D01*
X748053Y851238D01*
X748145Y851386D01*
X748265Y851524D01*
X748404Y851654D01*
X748422Y851663D01*
X748478Y851700D01*
X748570Y851756D01*
X748690Y851811D01*
X748838Y851867D01*
X749014Y851922D01*
X749218Y851959D01*
X749439Y851968D01*
X749449D01*
X749476D01*
X749523D01*
X749578Y851959D01*
D02*
G37*
G36*
X751326Y844969D02*
X746324D01*
X746333Y844960D01*
X746370Y844914D01*
X746425Y844858D01*
X746490Y844766D01*
X746573Y844664D01*
X746666Y844535D01*
X746767Y844387D01*
X746869Y844220D01*
Y844211D01*
X746878Y844202D01*
X746915Y844146D01*
X746962Y844054D01*
X747017Y843943D01*
X747082Y843814D01*
X747147Y843675D01*
X747211Y843536D01*
X747267Y843398D01*
X746508D01*
Y843407D01*
X746490Y843425D01*
X746481Y843462D01*
X746453Y843509D01*
X746425Y843564D01*
X746388Y843629D01*
X746296Y843786D01*
X746194Y843971D01*
X746065Y844156D01*
X745917Y844350D01*
X745760Y844544D01*
X745750Y844553D01*
X745741Y844563D01*
X745713Y844590D01*
X745686Y844627D01*
X745593Y844710D01*
X745482Y844821D01*
X745353Y844932D01*
X745205Y845052D01*
X745057Y845154D01*
X744900Y845247D01*
Y845755D01*
X751326D01*
Y844969D01*
D02*
G37*
G36*
Y841243D02*
X749994Y840402D01*
X749985D01*
X749966Y840384D01*
X749939Y840365D01*
X749902Y840337D01*
X749800Y840273D01*
X749670Y840189D01*
X749532Y840088D01*
X749384Y839986D01*
X749245Y839884D01*
X749116Y839792D01*
X749107Y839782D01*
X749070Y839755D01*
X749014Y839709D01*
X748949Y839644D01*
X748811Y839505D01*
X748746Y839431D01*
X748690Y839357D01*
X748681Y839348D01*
X748672Y839330D01*
X748653Y839293D01*
X748626Y839237D01*
X748598Y839182D01*
X748570Y839117D01*
X748524Y838969D01*
Y838960D01*
X748515Y838941D01*
Y838904D01*
X748506Y838858D01*
X748496Y838793D01*
Y838719D01*
X748487Y838618D01*
Y837527D01*
X751326D01*
Y836676D01*
X744928D01*
Y839644D01*
X744937Y839718D01*
Y839801D01*
X744946Y839995D01*
X744974Y840199D01*
X745002Y840421D01*
X745048Y840624D01*
X745076Y840726D01*
X745103Y840809D01*
Y840818D01*
X745113Y840827D01*
X745140Y840883D01*
X745177Y840966D01*
X745242Y841068D01*
X745325Y841179D01*
X745436Y841299D01*
X745565Y841410D01*
X745713Y841521D01*
X745723D01*
X745732Y841530D01*
X745787Y841567D01*
X745880Y841604D01*
X746000Y841659D01*
X746139Y841706D01*
X746305Y841752D01*
X746481Y841780D01*
X746675Y841789D01*
X746684D01*
X746703D01*
X746740D01*
X746786Y841780D01*
X746851D01*
X746915Y841770D01*
X747073Y841733D01*
X747257Y841678D01*
X747452Y841604D01*
X747646Y841493D01*
X747738Y841419D01*
X747831Y841345D01*
X747840Y841336D01*
X747849Y841327D01*
X747877Y841299D01*
X747905Y841262D01*
X747942Y841216D01*
X747979Y841160D01*
X748025Y841086D01*
X748080Y841012D01*
X748127Y840920D01*
X748173Y840818D01*
X748228Y840707D01*
X748274Y840587D01*
X748311Y840448D01*
X748358Y840310D01*
X748385Y840152D01*
X748413Y839986D01*
X748422Y840004D01*
X748441Y840041D01*
X748478Y840097D01*
X748515Y840171D01*
X748616Y840337D01*
X748681Y840421D01*
X748737Y840494D01*
X748755Y840513D01*
X748801Y840559D01*
X748875Y840633D01*
X748968Y840726D01*
X749097Y840827D01*
X749236Y840947D01*
X749402Y841068D01*
X749587Y841197D01*
X751326Y842297D01*
Y841243D01*
D02*
G37*
%LPC*%
G36*
X765908Y984589D02*
X763791D01*
Y982684D01*
X763800Y982573D01*
X763809Y982444D01*
X763818Y982296D01*
X763837Y982148D01*
X763865Y982000D01*
X763902Y981871D01*
X763911Y981852D01*
X763929Y981815D01*
X763957Y981760D01*
X763994Y981686D01*
X764050Y981603D01*
X764114Y981519D01*
X764197Y981436D01*
X764290Y981372D01*
X764299Y981362D01*
X764336Y981344D01*
X764392Y981316D01*
X764466Y981279D01*
X764549Y981251D01*
X764641Y981224D01*
X764752Y981205D01*
X764863Y981196D01*
X764872D01*
X764882D01*
X764937Y981205D01*
X765020Y981214D01*
X765131Y981233D01*
X765242Y981279D01*
X765372Y981335D01*
X765492Y981418D01*
X765612Y981529D01*
X765621Y981547D01*
X765658Y981593D01*
X765704Y981667D01*
X765760Y981788D01*
X765816Y981926D01*
X765862Y982111D01*
X765899Y982324D01*
X765908Y982573D01*
Y984589D01*
D02*
G37*
G36*
X825686Y979149D02*
X823569D01*
Y977245D01*
X823578Y977134D01*
X823587Y977004D01*
X823596Y976857D01*
X823615Y976709D01*
X823643Y976561D01*
X823680Y976431D01*
X823689Y976413D01*
X823707Y976376D01*
X823735Y976320D01*
X823772Y976246D01*
X823828Y976163D01*
X823892Y976080D01*
X823976Y975997D01*
X824068Y975932D01*
X824077Y975923D01*
X824114Y975904D01*
X824170Y975877D01*
X824244Y975840D01*
X824327Y975812D01*
X824419Y975784D01*
X824530Y975766D01*
X824641Y975756D01*
X824650D01*
X824660D01*
X824715Y975766D01*
X824798Y975775D01*
X824909Y975793D01*
X825020Y975840D01*
X825150Y975895D01*
X825270Y975978D01*
X825390Y976089D01*
X825399Y976108D01*
X825436Y976154D01*
X825482Y976228D01*
X825538Y976348D01*
X825593Y976487D01*
X825640Y976672D01*
X825677Y976884D01*
X825686Y977134D01*
Y979149D01*
D02*
G37*
G36*
X746684Y840920D02*
X746675D01*
X746666D01*
X746610Y840910D01*
X746527Y840901D01*
X746416Y840883D01*
X746305Y840836D01*
X746176Y840781D01*
X746056Y840698D01*
X745935Y840587D01*
X745926Y840568D01*
X745889Y840522D01*
X745843Y840448D01*
X745787Y840328D01*
X745732Y840189D01*
X745686Y840004D01*
X745649Y839792D01*
X745639Y839542D01*
Y837527D01*
X747757D01*
Y839431D01*
X747747Y839542D01*
X747738Y839672D01*
X747729Y839819D01*
X747710Y839967D01*
X747683Y840115D01*
X747646Y840245D01*
X747636Y840263D01*
X747618Y840300D01*
X747590Y840356D01*
X747553Y840430D01*
X747498Y840513D01*
X747433Y840596D01*
X747350Y840679D01*
X747257Y840744D01*
X747248Y840753D01*
X747211Y840772D01*
X747156Y840799D01*
X747082Y840836D01*
X746999Y840864D01*
X746906Y840892D01*
X746795Y840910D01*
X746684Y840920D01*
D02*
G37*
%LPD*%
D12*
X748691Y1008471D02*
X771753D01*
X748691Y962409D02*
Y1008471D01*
Y962409D02*
X771753D01*
Y1008471D01*
X808469Y1003031D02*
X831531D01*
X808469Y956969D02*
Y1003031D01*
Y956969D02*
X831531D01*
Y1003031D01*
X745192Y827814D02*
Y845538D01*
X753916D01*
Y827814D02*
Y845538D01*
X745192Y827814D02*
X753916D01*
D15*
X976000Y1040000D02*
G03*
X974243Y1044243I-6000J0D01*
G01*
X976000Y1040000D02*
G03*
X974243Y1044243I-6000J0D01*
G01*
X914243Y1104243D02*
G03*
X910000Y1106000I-4243J-4243D01*
G01*
X914243Y1104243D02*
G03*
X910000Y1106000I-4243J-4243D01*
G01*
X974243Y735757D02*
G03*
X976000Y740000I-4243J4243D01*
G01*
X974243Y735757D02*
G03*
X976000Y740000I-4243J4243D01*
G01*
X910000Y674000D02*
G03*
X914243Y675757I0J6000D01*
G01*
X910000Y674000D02*
G03*
X914243Y675757I0J6000D01*
G01*
X610000Y1106000D02*
G03*
X605757Y1104243I0J-6000D01*
G01*
X610000Y1106000D02*
G03*
X605757Y1104243I0J-6000D01*
G01*
X545757Y1044243D02*
G03*
X544000Y1040000I4243J-4243D01*
G01*
X545757Y1044243D02*
G03*
X544000Y1040000I4243J-4243D01*
G01*
X605757Y675757D02*
G03*
X610000Y674000I4243J4243D01*
G01*
X544000Y740000D02*
G03*
X545757Y735757I6000J0D01*
G01*
X544000Y740000D02*
G03*
X545757Y735757I6000J0D01*
G01*
X605757Y675757D02*
G03*
X610000Y674000I4243J4243D01*
G01*
X910000D01*
X545757Y735757D02*
X605757Y675757D01*
X544000Y740000D02*
Y1040000D01*
X914243Y1104243D02*
X974243Y1044243D01*
X976000Y740000D02*
Y1040000D01*
X914243Y675757D02*
X974243Y735757D01*
X610000Y1106000D02*
X910000D01*
X545757Y1044243D02*
X605757Y1104243D01*
M02*
