G04*
G04 #@! TF.GenerationSoftware,Altium Limited,Altium Designer,22.6.1 (34)*
G04*
G04 Layer_Color=16711935*
%FSLAX44Y44*%
%MOMM*%
G71*
G04*
G04 #@! TF.SameCoordinates,3FC15ED1-56EA-4B36-BDB6-6E6CE890E9D8*
G04*
G04*
G04 #@! TF.FilePolarity,Negative*
G04*
G01*
G75*
%ADD15C,1.2000*%
G04:AMPARAMS|DCode=56|XSize=3.3782mm|YSize=1.9812mm|CornerRadius=0.5461mm|HoleSize=0mm|Usage=FLASHONLY|Rotation=0.000|XOffset=0mm|YOffset=0mm|HoleType=Round|Shape=RoundedRectangle|*
%AMROUNDEDRECTD56*
21,1,3.3782,0.8890,0,0,0.0*
21,1,2.2860,1.9812,0,0,0.0*
1,1,1.0922,1.1430,-0.4445*
1,1,1.0922,-1.1430,-0.4445*
1,1,1.0922,-1.1430,0.4445*
1,1,1.0922,1.1430,0.4445*
%
%ADD56ROUNDEDRECTD56*%
%ADD57C,3.5052*%
%ADD58C,1.4732*%
%ADD59C,4.0132*%
%ADD60C,0.8382*%
%ADD61C,0.7532*%
D15*
X976000Y1040000D02*
G03*
X974243Y1044243I-6000J0D01*
G01*
X976000Y1040000D02*
G03*
X974243Y1044243I-6000J0D01*
G01*
X914243Y1104243D02*
G03*
X910000Y1106000I-4243J-4243D01*
G01*
X914243Y1104243D02*
G03*
X910000Y1106000I-4243J-4243D01*
G01*
X974243Y735757D02*
G03*
X976000Y740000I-4243J4243D01*
G01*
X974243Y735757D02*
G03*
X976000Y740000I-4243J4243D01*
G01*
X910000Y674000D02*
G03*
X914243Y675757I0J6000D01*
G01*
X910000Y674000D02*
G03*
X914243Y675757I0J6000D01*
G01*
X610000Y1106000D02*
G03*
X605757Y1104243I0J-6000D01*
G01*
X610000Y1106000D02*
G03*
X605757Y1104243I0J-6000D01*
G01*
X545757Y1044243D02*
G03*
X544000Y1040000I4243J-4243D01*
G01*
X545757Y1044243D02*
G03*
X544000Y1040000I4243J-4243D01*
G01*
X605757Y675757D02*
G03*
X610000Y674000I4243J4243D01*
G01*
X544000Y740000D02*
G03*
X545757Y735757I6000J0D01*
G01*
X544000Y740000D02*
G03*
X545757Y735757I6000J0D01*
G01*
X605757Y675757D02*
G03*
X610000Y674000I4243J4243D01*
G01*
X910000D01*
X545757Y735757D02*
X605757Y675757D01*
X544000Y740000D02*
Y1040000D01*
X914243Y1104243D02*
X974243Y1044243D01*
X976000Y740000D02*
Y1040000D01*
X914243Y675757D02*
X974243Y735757D01*
X610000Y1106000D02*
X910000D01*
X545757Y1044243D02*
X605757Y1104243D01*
D56*
X943528Y860000D02*
D03*
Y910000D02*
D03*
X575056Y782066D02*
D03*
X575000Y845000D02*
D03*
Y910000D02*
D03*
Y975000D02*
D03*
D57*
X600000Y1060000D02*
D03*
X920000D02*
D03*
X600000Y720000D02*
D03*
X920000D02*
D03*
D58*
X809752Y1010920D02*
D03*
X805942Y858266D02*
D03*
X824230Y829564D02*
D03*
X766572Y860044D02*
D03*
X842010Y920242D02*
D03*
X776224Y996950D02*
D03*
X862584Y1017778D02*
D03*
X741934Y970534D02*
D03*
X790194Y819658D02*
D03*
X832866Y891540D02*
D03*
X924814Y932942D02*
D03*
X634492Y1005840D02*
D03*
X736346Y819658D02*
D03*
X808736Y742188D02*
D03*
X844296Y715518D02*
D03*
X875792Y894588D02*
D03*
X823468Y926846D02*
D03*
X653542Y941832D02*
D03*
D59*
X722122Y1069848D02*
D03*
X790000Y1070000D02*
D03*
D60*
X697738Y899160D02*
D03*
D61*
X781000Y889000D02*
D03*
X770000D02*
D03*
X759000D02*
D03*
X781000Y900000D02*
D03*
X770000D02*
D03*
X759000D02*
D03*
X781000Y911000D02*
D03*
X770000D02*
D03*
X759000D02*
D03*
M02*
