G04*
G04 #@! TF.GenerationSoftware,Altium Limited,Altium Designer,22.2.1 (43)*
G04*
G04 Layer_Color=16711935*
%FSLAX25Y25*%
%MOIN*%
G70*
G04*
G04 #@! TF.SameCoordinates,E3E267CE-3B28-4E7D-86E6-9DA55300F0EE*
G04*
G04*
G04 #@! TF.FilePolarity,Negative*
G04*
G01*
G75*
%ADD15C,0.04724*%
G04:AMPARAMS|DCode=54|XSize=133mil|YSize=78mil|CornerRadius=21.5mil|HoleSize=0mil|Usage=FLASHONLY|Rotation=0.000|XOffset=0mil|YOffset=0mil|HoleType=Round|Shape=RoundedRectangle|*
%AMROUNDEDRECTD54*
21,1,0.13300,0.03500,0,0,0.0*
21,1,0.09000,0.07800,0,0,0.0*
1,1,0.04300,0.04500,-0.01750*
1,1,0.04300,-0.04500,-0.01750*
1,1,0.04300,-0.04500,0.01750*
1,1,0.04300,0.04500,0.01750*
%
%ADD54ROUNDEDRECTD54*%
%ADD55C,0.15800*%
%ADD56C,0.05800*%
%ADD57C,0.10642*%
%ADD58C,0.03300*%
%ADD59C,0.02965*%
D15*
X384252Y409449D02*
G03*
X383560Y411119I-2362J0D01*
G01*
X384252Y409449D02*
G03*
X383560Y411119I-2362J0D01*
G01*
X359938Y434741D02*
G03*
X358268Y435433I-1670J-1670D01*
G01*
X359938Y434741D02*
G03*
X358268Y435433I-1670J-1670D01*
G01*
X383560Y289668D02*
G03*
X384252Y291339I-1670J1670D01*
G01*
X383560Y289668D02*
G03*
X384252Y291339I-1670J1670D01*
G01*
X358268Y265354D02*
G03*
X359938Y266046I0J2362D01*
G01*
X358268Y265354D02*
G03*
X359938Y266046I0J2362D01*
G01*
X240158Y435433D02*
G03*
X238487Y434741I0J-2362D01*
G01*
X240158Y435433D02*
G03*
X238487Y434741I0J-2362D01*
G01*
X214865Y411119D02*
G03*
X214173Y409449I1670J-1670D01*
G01*
X214865Y411119D02*
G03*
X214173Y409449I1670J-1670D01*
G01*
X238487Y266046D02*
G03*
X240158Y265354I1670J1670D01*
G01*
X214173Y291339D02*
G03*
X214865Y289668I2362J0D01*
G01*
X214173Y291339D02*
G03*
X214865Y289668I2362J0D01*
G01*
X238487Y266046D02*
G03*
X240158Y265354I1670J1670D01*
G01*
X358268D01*
X214865Y289668D02*
X238487Y266046D01*
X214173Y291339D02*
Y409449D01*
X359938Y434741D02*
X383560Y411119D01*
X384252Y291339D02*
Y409449D01*
X359938Y266046D02*
X383560Y289668D01*
X240158Y435433D02*
X358268D01*
X214865Y411119D02*
X238487Y434741D01*
D54*
X371468Y338583D02*
D03*
Y358268D02*
D03*
X226400Y307900D02*
D03*
X226378Y332677D02*
D03*
Y358268D02*
D03*
Y383858D02*
D03*
D55*
X284300Y421200D02*
D03*
X311024Y421260D02*
D03*
D56*
X317300Y337900D02*
D03*
X364100Y367300D02*
D03*
X249800Y396000D02*
D03*
X311100Y322700D02*
D03*
X327900Y351000D02*
D03*
X289900Y322700D02*
D03*
X318400Y292200D02*
D03*
X332400Y281700D02*
D03*
X344800Y352200D02*
D03*
X324200Y364900D02*
D03*
X257300Y370800D02*
D03*
D57*
X362205Y417323D02*
D03*
X236221Y283465D02*
D03*
Y417323D02*
D03*
X362205Y283465D02*
D03*
D58*
X274700Y354000D02*
D03*
D59*
X307480Y350000D02*
D03*
X303150D02*
D03*
X298819D02*
D03*
X307480Y354331D02*
D03*
X303150D02*
D03*
X298819D02*
D03*
X307480Y358661D02*
D03*
X303150D02*
D03*
X298819D02*
D03*
M02*
