G04*
G04 #@! TF.GenerationSoftware,Altium Limited,Altium Designer,22.2.1 (43)*
G04*
G04 Layer_Physical_Order=1*
G04 Layer_Color=255*
%FSLAX25Y25*%
%MOIN*%
G70*
G04*
G04 #@! TF.SameCoordinates,E3E267CE-3B28-4E7D-86E6-9DA55300F0EE*
G04*
G04*
G04 #@! TF.FilePolarity,Positive*
G04*
G01*
G75*
%ADD14C,0.01000*%
%ADD15C,0.04724*%
%ADD16R,0.02165X0.02165*%
%ADD17R,0.02254X0.02237*%
%ADD18R,0.05709X0.04724*%
%ADD19R,0.02559X0.02559*%
%ADD20R,0.02362X0.06299*%
%ADD21R,0.02756X0.05906*%
%ADD22R,0.03937X0.03543*%
%ADD23R,0.03543X0.03937*%
%ADD24R,0.12402X0.12402*%
%ADD25O,0.01181X0.04528*%
%ADD26O,0.04528X0.01181*%
%ADD27R,0.05512X0.05906*%
%ADD28R,0.01968X0.01772*%
%ADD29R,0.04724X0.06299*%
%ADD30R,0.05906X0.05512*%
G04:AMPARAMS|DCode=31|XSize=70.87mil|YSize=51.18mil|CornerRadius=5.12mil|HoleSize=0mil|Usage=FLASHONLY|Rotation=270.000|XOffset=0mil|YOffset=0mil|HoleType=Round|Shape=RoundedRectangle|*
%AMROUNDEDRECTD31*
21,1,0.07087,0.04095,0,0,270.0*
21,1,0.06063,0.05118,0,0,270.0*
1,1,0.01024,-0.02047,-0.03032*
1,1,0.01024,-0.02047,0.03032*
1,1,0.01024,0.02047,0.03032*
1,1,0.01024,0.02047,-0.03032*
%
%ADD31ROUNDEDRECTD31*%
%ADD32R,0.03937X0.02362*%
%ADD33R,0.06299X0.04724*%
%ADD34R,0.05118X0.03543*%
%ADD35R,0.05315X0.04331*%
G04:AMPARAMS|DCode=60|XSize=125mil|YSize=70mil|CornerRadius=17.5mil|HoleSize=0mil|Usage=FLASHONLY|Rotation=0.000|XOffset=0mil|YOffset=0mil|HoleType=Round|Shape=RoundedRectangle|*
%AMROUNDEDRECTD60*
21,1,0.12500,0.03500,0,0,0.0*
21,1,0.09000,0.07000,0,0,0.0*
1,1,0.03500,0.04500,-0.01750*
1,1,0.03500,-0.04500,-0.01750*
1,1,0.03500,-0.04500,0.01750*
1,1,0.03500,0.04500,0.01750*
%
%ADD60ROUNDEDRECTD60*%
%ADD61C,0.15000*%
%ADD62C,0.05000*%
%ADD63C,0.09843*%
%ADD64C,0.02500*%
%ADD65C,0.02165*%
G36*
X381900Y409400D02*
Y291300D01*
X358300Y267700D01*
X240000D01*
X216400Y291300D01*
Y409200D01*
X240300Y433100D01*
X358200D01*
X381900Y409400D01*
D02*
G37*
%LPC*%
G36*
X311861Y429760D02*
X311524D01*
Y421760D01*
X319524D01*
Y422097D01*
X319197Y423739D01*
X318556Y425286D01*
X317626Y426678D01*
X316442Y427862D01*
X315050Y428792D01*
X313503Y429433D01*
X311861Y429760D01*
D02*
G37*
G36*
X310524D02*
X310186D01*
X308544Y429433D01*
X306997Y428792D01*
X305605Y427862D01*
X304421Y426678D01*
X303491Y425286D01*
X302850Y423739D01*
X302524Y422097D01*
Y421760D01*
X310524D01*
Y429760D01*
D02*
G37*
G36*
X362788Y423244D02*
X362705D01*
Y417823D01*
X368126D01*
Y417906D01*
X367898Y419050D01*
X367452Y420128D01*
X366804Y421097D01*
X365979Y421922D01*
X365009Y422570D01*
X363932Y423017D01*
X362788Y423244D01*
D02*
G37*
G36*
X361705D02*
X361621D01*
X360478Y423017D01*
X359400Y422570D01*
X358430Y421922D01*
X357605Y421097D01*
X356957Y420128D01*
X356511Y419050D01*
X356283Y417906D01*
Y417823D01*
X361705D01*
Y423244D01*
D02*
G37*
G36*
X236804D02*
X236720D01*
Y417823D01*
X242142D01*
Y417906D01*
X241914Y419050D01*
X241468Y420128D01*
X240820Y421097D01*
X239995Y421922D01*
X239025Y422570D01*
X237948Y423017D01*
X236804Y423244D01*
D02*
G37*
G36*
X235720D02*
X235637D01*
X234493Y423017D01*
X233416Y422570D01*
X232446Y421922D01*
X231621Y421097D01*
X230973Y420128D01*
X230527Y419050D01*
X230299Y417906D01*
Y417823D01*
X235720D01*
Y423244D01*
D02*
G37*
G36*
X319524Y420760D02*
X311524D01*
Y412760D01*
X311861D01*
X313503Y413087D01*
X315050Y413727D01*
X316442Y414657D01*
X317626Y415841D01*
X318556Y417234D01*
X319197Y418781D01*
X319524Y420423D01*
Y420760D01*
D02*
G37*
G36*
X310524D02*
X302524D01*
Y420423D01*
X302850Y418781D01*
X303491Y417234D01*
X304421Y415841D01*
X305605Y414657D01*
X306997Y413727D01*
X308544Y413087D01*
X310186Y412760D01*
X310524D01*
Y420760D01*
D02*
G37*
G36*
X368126Y416823D02*
X362705D01*
Y411402D01*
X362788D01*
X363932Y411629D01*
X365009Y412076D01*
X365979Y412723D01*
X366804Y413548D01*
X367452Y414518D01*
X367898Y415596D01*
X368126Y416740D01*
Y416823D01*
D02*
G37*
G36*
X361705D02*
X356283D01*
Y416740D01*
X356511Y415596D01*
X356957Y414518D01*
X357605Y413548D01*
X358430Y412723D01*
X359400Y412076D01*
X360478Y411629D01*
X361621Y411402D01*
X361705D01*
Y416823D01*
D02*
G37*
G36*
X242142D02*
X236720D01*
Y411402D01*
X236804D01*
X237948Y411629D01*
X239025Y412076D01*
X239995Y412723D01*
X240820Y413548D01*
X241468Y414518D01*
X241914Y415596D01*
X242142Y416740D01*
Y416823D01*
D02*
G37*
G36*
X235720D02*
X230299D01*
Y416740D01*
X230527Y415596D01*
X230973Y414518D01*
X231621Y413548D01*
X232446Y412723D01*
X233416Y412076D01*
X234493Y411629D01*
X235637Y411402D01*
X235720D01*
Y416823D01*
D02*
G37*
G36*
X258978Y414507D02*
X257100D01*
Y411054D01*
X258978D01*
Y414507D01*
D02*
G37*
G36*
X256100D02*
X254222D01*
Y411054D01*
X256100D01*
Y414507D01*
D02*
G37*
G36*
X287087Y402211D02*
X285539D01*
Y398138D01*
X288628D01*
Y400669D01*
X288511Y401259D01*
X288177Y401759D01*
X287677Y402093D01*
X287087Y402211D01*
D02*
G37*
G36*
X284539D02*
X282992D01*
X282402Y402093D01*
X281902Y401759D01*
X281568Y401259D01*
X281451Y400669D01*
Y398138D01*
X284539D01*
Y402211D01*
D02*
G37*
G36*
X234753Y399050D02*
X231300D01*
Y395795D01*
X234753D01*
Y399050D01*
D02*
G37*
G36*
X230300D02*
X226847D01*
Y395795D01*
X230300D01*
Y399050D01*
D02*
G37*
G36*
X302181Y395882D02*
X299713D01*
Y394201D01*
X302181D01*
Y395882D01*
D02*
G37*
G36*
X298713D02*
X296244D01*
Y394201D01*
X298713D01*
Y395882D01*
D02*
G37*
G36*
X288628Y397138D02*
X285539D01*
Y393065D01*
X287087D01*
X287677Y393182D01*
X288177Y393516D01*
X288511Y394016D01*
X288628Y394606D01*
Y397138D01*
D02*
G37*
G36*
X284539D02*
X281451D01*
Y394606D01*
X281568Y394016D01*
X281902Y393516D01*
X282402Y393182D01*
X282992Y393065D01*
X284539D01*
Y397138D01*
D02*
G37*
G36*
X234753Y394795D02*
X231300D01*
Y391539D01*
X234753D01*
Y394795D01*
D02*
G37*
G36*
X230300D02*
X226847D01*
Y391539D01*
X230300D01*
Y394795D01*
D02*
G37*
G36*
X325803Y388008D02*
X323335D01*
Y386327D01*
X325803D01*
Y388008D01*
D02*
G37*
G36*
X322335D02*
X319866D01*
Y386327D01*
X322335D01*
Y388008D01*
D02*
G37*
G36*
X325803Y385327D02*
X323335D01*
Y383646D01*
X325803D01*
Y385327D01*
D02*
G37*
G36*
X322335D02*
X319866D01*
Y383646D01*
X322335D01*
Y385327D01*
D02*
G37*
G36*
X358480Y385252D02*
X354831D01*
Y382390D01*
X358480D01*
Y385252D01*
D02*
G37*
G36*
X353831D02*
X350181D01*
Y382390D01*
X353831D01*
Y385252D01*
D02*
G37*
G36*
X358480Y381390D02*
X354831D01*
Y378528D01*
X358480D01*
Y381390D01*
D02*
G37*
G36*
X353831D02*
X350181D01*
Y378528D01*
X353831D01*
Y381390D01*
D02*
G37*
G36*
X257978Y432365D02*
X255222D01*
X254832Y432288D01*
X254501Y432067D01*
X252139Y429704D01*
X251918Y429374D01*
X251840Y428983D01*
Y420322D01*
X251918Y419932D01*
X251970Y419853D01*
X251703Y419353D01*
X248513D01*
Y411054D01*
X249165D01*
Y408218D01*
X248939Y407992D01*
X248908Y407971D01*
X245466Y404529D01*
X243568D01*
Y410931D01*
X237632D01*
Y409229D01*
X234753D01*
Y410861D01*
X226847D01*
Y403350D01*
X234753D01*
Y406171D01*
X237632D01*
Y400269D01*
X243568D01*
Y401471D01*
X246100D01*
X246685Y401587D01*
X247181Y401919D01*
X248009Y402746D01*
X248471Y402554D01*
Y399267D01*
X248449Y399261D01*
X247651Y398801D01*
X246999Y398149D01*
X246538Y397351D01*
X246300Y396461D01*
Y395539D01*
X246538Y394649D01*
X246999Y393851D01*
X247651Y393199D01*
X248449Y392739D01*
X249339Y392500D01*
X250261D01*
X251151Y392739D01*
X251949Y393199D01*
X252601Y393851D01*
X253062Y394649D01*
X253300Y395539D01*
Y396461D01*
X253062Y397351D01*
X252601Y398149D01*
X251949Y398801D01*
X251529Y399043D01*
Y406256D01*
X251776Y406503D01*
X252108Y406999D01*
X252224Y407584D01*
Y411054D01*
X252876D01*
Y418211D01*
X253338Y418402D01*
X254222Y417518D01*
Y415507D01*
X256600D01*
X258978D01*
Y417518D01*
X259862Y418402D01*
X260324Y418211D01*
Y411054D01*
X260976D01*
Y408994D01*
X261092Y408409D01*
X261424Y407913D01*
X263619Y405719D01*
X270427Y398910D01*
Y394606D01*
X270544Y394016D01*
X270879Y393516D01*
X271379Y393182D01*
X271969Y393065D01*
X276063D01*
X276653Y393182D01*
X277153Y393516D01*
X277487Y394016D01*
X277604Y394606D01*
Y400669D01*
X277487Y401259D01*
X277153Y401759D01*
X276653Y402093D01*
X276063Y402211D01*
X271969D01*
X271538Y402125D01*
X268854Y404809D01*
X269046Y405271D01*
X284100D01*
X284685Y405387D01*
X285181Y405719D01*
X285513Y406215D01*
X285629Y406800D01*
Y412798D01*
X286779Y413027D01*
X288326Y413667D01*
X289132Y414206D01*
X298907Y404430D01*
X299403Y404099D01*
X299988Y403982D01*
X324655D01*
X337821Y390816D01*
Y383184D01*
X327501Y372864D01*
X325803D01*
Y376197D01*
X319866D01*
Y375545D01*
X311486D01*
X311279Y376045D01*
X312105Y376871D01*
X312437Y377367D01*
X312553Y377953D01*
Y385827D01*
X312437Y386412D01*
X312105Y386908D01*
X308168Y390845D01*
X307672Y391177D01*
X307087Y391293D01*
X302587D01*
X302181Y391520D01*
X302181Y391793D01*
Y393201D01*
X299213D01*
X296244D01*
Y391793D01*
X296244Y391520D01*
X295838Y391293D01*
X275590D01*
X275005Y391177D01*
X274509Y390845D01*
X269052Y385388D01*
X233652D01*
Y385608D01*
X233557Y386326D01*
X233280Y386995D01*
X232839Y387570D01*
X232265Y388010D01*
X231596Y388287D01*
X230878Y388382D01*
X221878D01*
X221160Y388287D01*
X220491Y388010D01*
X219917Y387570D01*
X219476Y386995D01*
X219199Y386326D01*
X219104Y385608D01*
Y382108D01*
X219199Y381390D01*
X219476Y380721D01*
X219917Y380147D01*
X220491Y379706D01*
X221160Y379429D01*
X221878Y379334D01*
X230878D01*
X231596Y379429D01*
X232265Y379706D01*
X232839Y380147D01*
X233280Y380721D01*
X233557Y381390D01*
X233652Y382108D01*
Y382329D01*
X242109D01*
X242501Y382068D01*
Y376553D01*
X239524Y373577D01*
X238661D01*
Y375953D01*
X231150D01*
Y368047D01*
X238661D01*
Y370518D01*
X240158D01*
X240743Y370634D01*
X241239Y370966D01*
X246405Y376132D01*
X253162D01*
Y377471D01*
X264827D01*
X265412Y377587D01*
X265908Y377919D01*
X270766Y382777D01*
X276224Y388234D01*
X306453D01*
X309494Y385193D01*
Y378586D01*
X309116Y378208D01*
X308616Y378415D01*
Y381890D01*
X308500Y382475D01*
X308168Y382971D01*
X304231Y386908D01*
X303735Y387240D01*
X303150Y387356D01*
X283465D01*
X282879Y387240D01*
X282383Y386908D01*
X257272Y361797D01*
X244783D01*
X244592Y362259D01*
X251603Y369271D01*
X254141D01*
X254499Y368651D01*
X255151Y367999D01*
X255949Y367538D01*
X256839Y367300D01*
X257761D01*
X258651Y367538D01*
X259449Y367999D01*
X260101Y368651D01*
X260561Y369449D01*
X260800Y370339D01*
Y371261D01*
X260561Y372151D01*
X260101Y372949D01*
X259449Y373601D01*
X258651Y374061D01*
X257761Y374300D01*
X256839D01*
X255949Y374061D01*
X255151Y373601D01*
X254499Y372949D01*
X254141Y372329D01*
X250970D01*
X250385Y372213D01*
X249888Y371881D01*
X239238Y361231D01*
X234132D01*
Y360204D01*
X233631Y360171D01*
X233557Y360736D01*
X233280Y361405D01*
X232839Y361979D01*
X232265Y362420D01*
X231596Y362697D01*
X230878Y362791D01*
X221878D01*
X221160Y362697D01*
X220491Y362420D01*
X219917Y361979D01*
X219476Y361405D01*
X219199Y360736D01*
X219104Y360018D01*
Y356518D01*
X219199Y355800D01*
X219476Y355131D01*
X219917Y354556D01*
X220491Y354116D01*
X221160Y353838D01*
X221878Y353744D01*
X230878D01*
X231596Y353838D01*
X232265Y354116D01*
X232839Y354556D01*
X233280Y355131D01*
X233557Y355800D01*
X233631Y356364D01*
X234132Y356332D01*
Y353126D01*
X232919Y351913D01*
X232587Y351417D01*
X232471Y350832D01*
Y349953D01*
X231150D01*
Y342047D01*
X238661D01*
Y349953D01*
X236467D01*
X236199Y350453D01*
X236277Y350569D01*
X239371D01*
Y340034D01*
X238166Y338829D01*
X236300D01*
X235715Y338713D01*
X235219Y338381D01*
X233202Y336365D01*
X232839Y336388D01*
X232265Y336829D01*
X231596Y337106D01*
X230878Y337201D01*
X221878D01*
X221160Y337106D01*
X220491Y336829D01*
X219917Y336388D01*
X219476Y335814D01*
X219199Y335145D01*
X219104Y334427D01*
Y330927D01*
X219199Y330209D01*
X219476Y329540D01*
X219917Y328966D01*
X220491Y328525D01*
X221160Y328248D01*
X221878Y328153D01*
X230878D01*
X231596Y328248D01*
X232265Y328525D01*
X232839Y328966D01*
X233280Y329540D01*
X233557Y330209D01*
X233652Y330927D01*
Y332489D01*
X235370Y334207D01*
X235831Y334015D01*
Y330287D01*
Y325169D01*
X235463Y324853D01*
X231050D01*
Y316947D01*
X238561D01*
Y322493D01*
X239881Y323813D01*
X240213Y324309D01*
X240329Y324894D01*
Y325169D01*
X241769D01*
Y327336D01*
X242268Y327543D01*
X242771Y327041D01*
Y315800D01*
X236400Y309429D01*
X233674D01*
Y309650D01*
X233579Y310368D01*
X233302Y311037D01*
X232861Y311611D01*
X232287Y312052D01*
X231618Y312329D01*
X230900Y312424D01*
X221900D01*
X221182Y312329D01*
X220513Y312052D01*
X219939Y311611D01*
X219498Y311037D01*
X219221Y310368D01*
X219126Y309650D01*
Y306150D01*
X219221Y305432D01*
X219498Y304763D01*
X219939Y304189D01*
X220513Y303748D01*
X221182Y303471D01*
X221900Y303376D01*
X230900D01*
X231618Y303471D01*
X232287Y303748D01*
X232861Y304189D01*
X233302Y304763D01*
X233579Y305432D01*
X233674Y306150D01*
Y306371D01*
X237034D01*
X237619Y306487D01*
X238115Y306819D01*
X240970Y309673D01*
X241431Y309482D01*
Y305487D01*
Y300369D01*
X242199D01*
X242406Y299869D01*
X241767Y299229D01*
X238661D01*
Y301653D01*
X231150D01*
Y293747D01*
X238661D01*
Y296171D01*
X242400D01*
X242985Y296287D01*
X243481Y296619D01*
X245481Y298619D01*
X245813Y299115D01*
X245929Y299700D01*
Y300369D01*
X247369D01*
Y305487D01*
Y311031D01*
X245829D01*
Y326158D01*
X246291Y326349D01*
X246950Y325690D01*
X247446Y325359D01*
X248031Y325242D01*
X263779D01*
X264365Y325359D01*
X264861Y325690D01*
X288035Y348864D01*
X290099D01*
X290416Y348478D01*
X290406Y348425D01*
X290529Y347805D01*
X290881Y347278D01*
X291407Y346927D01*
X292028Y346803D01*
X295162D01*
X295461Y346642D01*
X295622Y346343D01*
Y345031D01*
X295593Y344882D01*
Y341063D01*
X291959Y337429D01*
X282800D01*
X282215Y337313D01*
X281719Y336981D01*
X262698Y317961D01*
X262367Y317465D01*
X262263Y316945D01*
X260122D01*
Y310614D01*
Y308768D01*
X263779D01*
X267437D01*
Y310614D01*
Y316945D01*
X266661D01*
X266470Y317407D01*
X283434Y334371D01*
X292593D01*
X293071Y334466D01*
X293500Y334232D01*
X293571Y334148D01*
Y333299D01*
X292973D01*
Y332710D01*
X286880D01*
X286295Y332593D01*
X285799Y332261D01*
X283019Y329481D01*
X282687Y328985D01*
X282571Y328400D01*
Y319600D01*
X282687Y319015D01*
X283019Y318519D01*
X285689Y315848D01*
X286186Y315516D01*
X286771Y315400D01*
X289059D01*
Y310713D01*
X289809D01*
Y308949D01*
X287419D01*
X286834Y308832D01*
X286338Y308501D01*
X284719Y306881D01*
X284387Y306385D01*
X284271Y305800D01*
Y289200D01*
X284387Y288615D01*
X284719Y288119D01*
X294069Y278769D01*
X294565Y278437D01*
X295150Y278321D01*
X318898D01*
X319483Y278437D01*
X319979Y278769D01*
X329660Y288450D01*
X329992Y288946D01*
X330108Y289531D01*
Y320071D01*
X335727Y325690D01*
X336059Y326186D01*
X336175Y326772D01*
Y334433D01*
X338795D01*
Y342732D01*
X332071D01*
Y340112D01*
X329509D01*
X324613Y345009D01*
X324804Y345471D01*
X329557D01*
X330142Y345587D01*
X330286Y345683D01*
X356879D01*
X364194Y338368D01*
Y336833D01*
X364288Y336115D01*
X364566Y335446D01*
X365006Y334871D01*
X365581Y334431D01*
X366250Y334154D01*
X366968Y334059D01*
X375968D01*
X376686Y334154D01*
X377355Y334431D01*
X377929Y334871D01*
X378370Y335446D01*
X378647Y336115D01*
X378741Y336833D01*
Y340333D01*
X378647Y341051D01*
X378370Y341720D01*
X377929Y342294D01*
X377355Y342735D01*
X376686Y343012D01*
X375968Y343106D01*
X366968D01*
X366250Y343012D01*
X365581Y342735D01*
X365006Y342294D01*
X364619Y342269D01*
X358594Y348294D01*
X358098Y348625D01*
X357512Y348742D01*
X346810D01*
X346676Y349242D01*
X346949Y349399D01*
X347601Y350051D01*
X348061Y350849D01*
X348289Y351700D01*
X344800D01*
Y352200D01*
X344300D01*
Y355690D01*
X343449Y355462D01*
X343215Y355326D01*
X343200Y355329D01*
X340833D01*
X340192Y355971D01*
X340329Y356408D01*
X340377Y356471D01*
X364200D01*
X364288Y355800D01*
X364566Y355131D01*
X365006Y354556D01*
X365581Y354116D01*
X366250Y353838D01*
X366968Y353744D01*
X375968D01*
X376686Y353838D01*
X377355Y354116D01*
X377929Y354556D01*
X378370Y355131D01*
X378647Y355800D01*
X378741Y356518D01*
Y360018D01*
X378647Y360736D01*
X378370Y361405D01*
X377929Y361979D01*
X377355Y362420D01*
X376686Y362697D01*
X375968Y362791D01*
X366968D01*
X366250Y362697D01*
X365581Y362420D01*
X365006Y361979D01*
X364566Y361405D01*
X364288Y360736D01*
X364194Y360018D01*
Y359529D01*
X321646D01*
X321454Y359991D01*
X323048Y361585D01*
X323739Y361400D01*
X324661D01*
X325551Y361638D01*
X326349Y362099D01*
X327001Y362751D01*
X327462Y363549D01*
X327700Y364439D01*
Y365361D01*
X327462Y366251D01*
X327001Y367049D01*
X326349Y367701D01*
X325551Y368162D01*
X324661Y368400D01*
X323739D01*
X322849Y368162D01*
X322051Y367701D01*
X321399Y367049D01*
X320938Y366251D01*
X320700Y365361D01*
Y364439D01*
X320885Y363748D01*
X318903Y361766D01*
X314736D01*
X314272Y361858D01*
X311137D01*
X310838Y362019D01*
X310677Y362318D01*
Y365453D01*
X310627Y365702D01*
X310707Y366100D01*
Y367044D01*
X313468Y369805D01*
X328135D01*
X328720Y369922D01*
X329216Y370253D01*
X340431Y381469D01*
X340763Y381965D01*
X340879Y382550D01*
Y391450D01*
X340763Y392035D01*
X340431Y392531D01*
X326370Y406593D01*
X325873Y406925D01*
X325288Y407041D01*
X300622D01*
X291295Y416368D01*
X291833Y417174D01*
X292473Y418721D01*
X292800Y420363D01*
Y422037D01*
X292473Y423679D01*
X291833Y425226D01*
X290902Y426618D01*
X289718Y427802D01*
X288326Y428733D01*
X286779Y429373D01*
X285137Y429700D01*
X283463D01*
X281821Y429373D01*
X280274Y428733D01*
X278882Y427802D01*
X277698Y426618D01*
X276767Y425226D01*
X276127Y423679D01*
X275800Y422037D01*
Y420363D01*
X276127Y418721D01*
X276767Y417174D01*
X277698Y415782D01*
X278882Y414598D01*
X280274Y413667D01*
X281821Y413027D01*
X282571Y412878D01*
Y408329D01*
X265334D01*
X264035Y409628D01*
Y411054D01*
X264687D01*
Y419353D01*
X261497D01*
X261230Y419853D01*
X261282Y419932D01*
X261360Y420322D01*
Y428983D01*
X261282Y429374D01*
X261061Y429704D01*
X258699Y432067D01*
X258368Y432288D01*
X257978Y432365D01*
D02*
G37*
G36*
X226850Y375953D02*
X223594D01*
Y372500D01*
X226850D01*
Y375953D01*
D02*
G37*
G36*
X222594D02*
X219339D01*
Y372500D01*
X222594D01*
Y375953D01*
D02*
G37*
G36*
X226850Y371500D02*
X223594D01*
Y368047D01*
X226850D01*
Y371500D01*
D02*
G37*
G36*
X222594D02*
X219339D01*
Y368047D01*
X222594D01*
Y371500D01*
D02*
G37*
G36*
X358480Y371079D02*
X350181D01*
Y368729D01*
X334900D01*
X334315Y368613D01*
X333819Y368281D01*
X331968Y366431D01*
X331915Y366420D01*
X331419Y366089D01*
X331087Y365593D01*
X330971Y365007D01*
Y363448D01*
X330808Y363286D01*
X330477Y362790D01*
X330360Y362205D01*
X330477Y361619D01*
X330808Y361123D01*
X331305Y360792D01*
X331890Y360675D01*
X332475Y360792D01*
X332971Y361123D01*
X333581Y361734D01*
X333913Y362230D01*
X334029Y362815D01*
Y364166D01*
X335533Y365671D01*
X350181D01*
Y364354D01*
X358480D01*
Y366187D01*
X360775D01*
X360839Y365949D01*
X361299Y365151D01*
X361951Y364499D01*
X362749Y364038D01*
X363639Y363800D01*
X364561D01*
X365451Y364038D01*
X366249Y364499D01*
X366901Y365151D01*
X367361Y365949D01*
X367600Y366839D01*
Y367761D01*
X367361Y368651D01*
X366901Y369449D01*
X366249Y370101D01*
X365451Y370562D01*
X364561Y370800D01*
X363639D01*
X362749Y370562D01*
X361951Y370101D01*
X361299Y369449D01*
X361182Y369246D01*
X358480D01*
Y371079D01*
D02*
G37*
G36*
X345300Y355690D02*
Y352700D01*
X348289D01*
X348061Y353551D01*
X347601Y354349D01*
X346949Y355001D01*
X346151Y355462D01*
X345300Y355690D01*
D02*
G37*
G36*
X226850Y349953D02*
X223594D01*
Y346500D01*
X226850D01*
Y349953D01*
D02*
G37*
G36*
X222594D02*
X219339D01*
Y346500D01*
X222594D01*
Y349953D01*
D02*
G37*
G36*
X226850Y345500D02*
X223594D01*
Y342047D01*
X226850D01*
Y345500D01*
D02*
G37*
G36*
X222594D02*
X219339D01*
Y342047D01*
X222594D01*
Y345500D01*
D02*
G37*
G36*
X352969Y342732D02*
X350106D01*
Y339083D01*
X352969D01*
Y342732D01*
D02*
G37*
G36*
X349106D02*
X346244D01*
Y339083D01*
X349106D01*
Y342732D01*
D02*
G37*
G36*
X352969Y338083D02*
X350106D01*
Y334433D01*
X352969D01*
Y338083D01*
D02*
G37*
G36*
X349106D02*
X346244D01*
Y334433D01*
X349106D01*
Y338083D01*
D02*
G37*
G36*
X226750Y324853D02*
X223495D01*
Y321400D01*
X226750D01*
Y324853D01*
D02*
G37*
G36*
X222495D02*
X219239D01*
Y321400D01*
X222495D01*
Y324853D01*
D02*
G37*
G36*
X226750Y320400D02*
X223495D01*
Y316947D01*
X226750D01*
Y320400D01*
D02*
G37*
G36*
X222495D02*
X219239D01*
Y316947D01*
X222495D01*
Y320400D01*
D02*
G37*
G36*
X267437Y307768D02*
X264280D01*
Y305102D01*
X267437D01*
Y307768D01*
D02*
G37*
G36*
X263280D02*
X260122D01*
Y305102D01*
X263280D01*
Y307768D01*
D02*
G37*
G36*
X226850Y301653D02*
X223594D01*
Y298200D01*
X226850D01*
Y301653D01*
D02*
G37*
G36*
X222594D02*
X219339D01*
Y298200D01*
X222594D01*
Y301653D01*
D02*
G37*
G36*
X226850Y297200D02*
X223594D01*
Y293747D01*
X226850D01*
Y297200D01*
D02*
G37*
G36*
X222594D02*
X219339D01*
Y293747D01*
X222594D01*
Y297200D01*
D02*
G37*
G36*
X362788Y289386D02*
X362705D01*
Y283965D01*
X368126D01*
Y284048D01*
X367898Y285192D01*
X367452Y286269D01*
X366804Y287239D01*
X365979Y288064D01*
X365009Y288712D01*
X363932Y289158D01*
X362788Y289386D01*
D02*
G37*
G36*
X361705D02*
X361621D01*
X360478Y289158D01*
X359400Y288712D01*
X358430Y288064D01*
X357605Y287239D01*
X356957Y286269D01*
X356511Y285192D01*
X356283Y284048D01*
Y283965D01*
X361705D01*
Y289386D01*
D02*
G37*
G36*
X236804D02*
X236720D01*
Y283965D01*
X242142D01*
Y284048D01*
X241914Y285192D01*
X241468Y286269D01*
X240820Y287239D01*
X239995Y288064D01*
X239025Y288712D01*
X237948Y289158D01*
X236804Y289386D01*
D02*
G37*
G36*
X235720D02*
X235637D01*
X234493Y289158D01*
X233416Y288712D01*
X232446Y288064D01*
X231621Y287239D01*
X230973Y286269D01*
X230527Y285192D01*
X230299Y284048D01*
Y283965D01*
X235720D01*
Y289386D01*
D02*
G37*
G36*
X332900Y285190D02*
Y282200D01*
X335890D01*
X335662Y283051D01*
X335201Y283849D01*
X334549Y284501D01*
X333751Y284962D01*
X332900Y285190D01*
D02*
G37*
G36*
X331900D02*
X331049Y284962D01*
X330251Y284501D01*
X329599Y283849D01*
X329138Y283051D01*
X328910Y282200D01*
X331900D01*
Y285190D01*
D02*
G37*
G36*
X335890Y281200D02*
X332900D01*
Y278210D01*
X333751Y278438D01*
X334549Y278899D01*
X335201Y279551D01*
X335662Y280349D01*
X335890Y281200D01*
D02*
G37*
G36*
X331900D02*
X328910D01*
X329138Y280349D01*
X329599Y279551D01*
X330251Y278899D01*
X331049Y278438D01*
X331900Y278210D01*
Y281200D01*
D02*
G37*
G36*
X368126Y282965D02*
X362705D01*
Y277543D01*
X362788D01*
X363932Y277771D01*
X365009Y278217D01*
X365979Y278865D01*
X366804Y279690D01*
X367452Y280660D01*
X367898Y281737D01*
X368126Y282881D01*
Y282965D01*
D02*
G37*
G36*
X361705D02*
X356283D01*
Y282881D01*
X356511Y281737D01*
X356957Y280660D01*
X357605Y279690D01*
X358430Y278865D01*
X359400Y278217D01*
X360478Y277771D01*
X361621Y277543D01*
X361705D01*
Y282965D01*
D02*
G37*
G36*
X242142D02*
X236720D01*
Y277543D01*
X236804D01*
X237948Y277771D01*
X239025Y278217D01*
X239995Y278865D01*
X240820Y279690D01*
X241468Y280660D01*
X241914Y281737D01*
X242142Y282881D01*
Y282965D01*
D02*
G37*
G36*
X235720D02*
X230299D01*
Y282881D01*
X230527Y281737D01*
X230973Y280660D01*
X231621Y279690D01*
X232446Y278865D01*
X233416Y278217D01*
X234493Y277771D01*
X235637Y277543D01*
X235720D01*
Y282965D01*
D02*
G37*
%LPD*%
G36*
X260340Y428983D02*
Y420322D01*
X257978Y417960D01*
X255222D01*
X252860Y420322D01*
Y428983D01*
X255222Y431346D01*
X257978D01*
X260340Y428983D01*
D02*
G37*
G36*
X305557Y381256D02*
Y378586D01*
X301204Y374233D01*
X300742Y374424D01*
Y379709D01*
X302181D01*
Y383925D01*
X302638Y384176D01*
X305557Y381256D01*
D02*
G37*
G36*
X296244Y384071D02*
Y379709D01*
X297683D01*
Y370487D01*
X297221Y370296D01*
X296357Y371160D01*
X295861Y371492D01*
X295276Y371608D01*
X275590D01*
X275005Y371492D01*
X274509Y371160D01*
X270572Y367223D01*
X270572Y367223D01*
X266624Y363276D01*
X266293Y362779D01*
X266177Y362194D01*
Y355741D01*
X264979Y354543D01*
X259630D01*
Y346244D01*
X264828D01*
X265019Y345782D01*
X263286Y344049D01*
X260476D01*
X257435Y347090D01*
Y354331D01*
X257318Y354916D01*
X256987Y355412D01*
X254123Y358276D01*
X254314Y358738D01*
X257906D01*
X258491Y358855D01*
X258987Y359186D01*
X284098Y384297D01*
X295838D01*
X296244Y384071D01*
D02*
G37*
G36*
X295715Y367477D02*
Y365917D01*
X295622Y365453D01*
Y362318D01*
X295461Y362019D01*
X295162Y361858D01*
X292605D01*
X289081Y365381D01*
X288585Y365713D01*
X288000Y365829D01*
X279000D01*
X278415Y365713D01*
X277919Y365381D01*
X272572Y360035D01*
X272241Y359539D01*
X272124Y358953D01*
Y357476D01*
X270572Y355924D01*
X270241Y355428D01*
X270124Y354843D01*
Y350887D01*
X266816Y347579D01*
X266354Y347771D01*
Y351593D01*
X268787Y354026D01*
X269119Y354522D01*
X269235Y355107D01*
Y361561D01*
X272735Y365060D01*
X272735Y365060D01*
X276224Y368549D01*
X294642D01*
X295715Y367477D01*
D02*
G37*
G36*
X339119Y352719D02*
X339615Y352387D01*
X340200Y352271D01*
X341300D01*
Y351739D01*
X341539Y350849D01*
X341999Y350051D01*
X342651Y349399D01*
X342924Y349242D01*
X342790Y348742D01*
X331215D01*
X330926Y349242D01*
X331161Y349649D01*
X331400Y350539D01*
Y351461D01*
X331161Y352351D01*
X330804Y352971D01*
X331041Y353471D01*
X338367D01*
X339119Y352719D01*
D02*
G37*
G36*
X254376Y353697D02*
Y346457D01*
X254492Y345871D01*
X254824Y345375D01*
X258761Y341438D01*
X258931Y341325D01*
X258779Y340825D01*
X253468D01*
X252883Y340708D01*
X252387Y340377D01*
X250806Y338795D01*
X246486D01*
Y345898D01*
X246832Y346244D01*
X252181D01*
Y354543D01*
X245457D01*
Y349194D01*
X244891Y348629D01*
X244429Y348820D01*
Y356440D01*
X244728Y356738D01*
X251335D01*
X254376Y353697D01*
D02*
G37*
G36*
X282854Y352339D02*
X266854Y336340D01*
X266354Y336547D01*
Y338795D01*
X266354Y338795D01*
X266354D01*
X266567Y339207D01*
X280161Y352801D01*
X282662D01*
X282854Y352339D01*
D02*
G37*
G36*
X259630Y330496D02*
X264688D01*
X264879Y330034D01*
X263146Y328301D01*
X248665D01*
X246970Y329996D01*
X247177Y330496D01*
X252181D01*
Y335845D01*
X254102Y337766D01*
X259630D01*
Y330496D01*
D02*
G37*
G36*
X307648Y339845D02*
Y333511D01*
X303073Y328936D01*
X302741Y328440D01*
X302625Y327854D01*
Y321299D01*
X297946D01*
Y314575D01*
X305571D01*
Y313425D01*
X297946D01*
Y306701D01*
X299271D01*
Y303793D01*
X294898D01*
Y305035D01*
X292868D01*
Y307400D01*
X292864Y307419D01*
X292868Y307439D01*
Y310713D01*
X293618D01*
Y314650D01*
Y319209D01*
X291853D01*
X291719Y319709D01*
X292049Y319899D01*
X292701Y320551D01*
X293162Y321349D01*
X293390Y322200D01*
X286410D01*
X286638Y321349D01*
X287099Y320551D01*
X287751Y319899D01*
X288549Y319439D01*
X288627Y319418D01*
X289059Y319209D01*
X289059D01*
X289059Y319209D01*
Y318459D01*
X287404D01*
X285629Y320233D01*
Y327766D01*
X287514Y329651D01*
X292973D01*
Y327664D01*
X291263Y325954D01*
X291251Y325961D01*
X290400Y326189D01*
Y323200D01*
X293390D01*
X293272Y323638D01*
X295136Y325501D01*
X297227D01*
Y327120D01*
X295100D01*
Y328120D01*
X297227D01*
Y329062D01*
Y333299D01*
X296629D01*
Y334067D01*
X301534Y338971D01*
X305487D01*
X306072Y339087D01*
X306568Y339419D01*
X307186Y340036D01*
X307648Y339845D01*
D02*
G37*
G36*
X312598Y346774D02*
X318522D01*
X327795Y337501D01*
X328291Y337170D01*
X328876Y337053D01*
X332071D01*
Y334433D01*
X333116D01*
Y327405D01*
X327498Y321786D01*
X327166Y321290D01*
X327049Y320705D01*
Y290165D01*
X318264Y281379D01*
X295783D01*
X287329Y289833D01*
Y293269D01*
X287779Y293390D01*
X287829Y293390D01*
X290839D01*
Y296161D01*
Y298933D01*
X287829D01*
X287779Y298933D01*
X287702Y298954D01*
Y299024D01*
X288193Y299492D01*
X294898D01*
Y300734D01*
X300214D01*
X300799Y300851D01*
X301296Y301182D01*
X301881Y301768D01*
X302213Y302264D01*
X302329Y302850D01*
Y306701D01*
X305654D01*
Y308271D01*
X306000D01*
X306585Y308387D01*
X307081Y308719D01*
X308181Y309819D01*
X308417Y310172D01*
X308917Y310020D01*
Y306889D01*
Y305928D01*
X313083D01*
Y306889D01*
Y311054D01*
X312529D01*
Y319297D01*
X312571Y319508D01*
X313249Y319899D01*
X313901Y320551D01*
X314362Y321349D01*
X314600Y322239D01*
Y323161D01*
X314362Y324051D01*
X313901Y324849D01*
X313249Y325501D01*
X312451Y325961D01*
X311760Y326147D01*
X311574Y326668D01*
X317725Y332819D01*
X318056Y333315D01*
X318173Y333900D01*
Y334510D01*
X318651Y334639D01*
X319449Y335099D01*
X320101Y335751D01*
X320562Y336549D01*
X320800Y337439D01*
Y338361D01*
X320562Y339251D01*
X320101Y340049D01*
X319449Y340701D01*
X318651Y341161D01*
X317761Y341400D01*
X316839D01*
X315949Y341161D01*
X315151Y340701D01*
X314499Y340049D01*
X314038Y339251D01*
X313800Y338361D01*
Y337439D01*
X314038Y336549D01*
X314499Y335751D01*
X315114Y335137D01*
Y334534D01*
X306184Y325604D01*
X305684Y325811D01*
Y327221D01*
X310259Y331796D01*
X310590Y332292D01*
X310707Y332877D01*
Y343000D01*
X310671Y343179D01*
X310677Y343209D01*
Y346343D01*
X310838Y346642D01*
X311137Y346803D01*
X312449D01*
X312598Y346774D01*
D02*
G37*
%LPC*%
G36*
X289400Y326189D02*
X288549Y325961D01*
X287751Y325501D01*
X287099Y324849D01*
X286638Y324051D01*
X286410Y323200D01*
X289400D01*
Y326189D01*
D02*
G37*
G36*
X313083Y304928D02*
X311500D01*
Y303346D01*
X313083D01*
Y304928D01*
D02*
G37*
G36*
X310500D02*
X308917D01*
Y303346D01*
X310500D01*
Y304928D01*
D02*
G37*
G36*
X291839Y298933D02*
Y296661D01*
X294898D01*
Y298933D01*
X291839D01*
D02*
G37*
G36*
X294898Y295661D02*
X291839D01*
Y293390D01*
X294898D01*
Y295661D01*
D02*
G37*
G36*
X318900Y295690D02*
Y292700D01*
X321889D01*
X321661Y293551D01*
X321201Y294349D01*
X320549Y295001D01*
X319751Y295462D01*
X318900Y295690D01*
D02*
G37*
G36*
X317900D02*
X317049Y295462D01*
X316251Y295001D01*
X315599Y294349D01*
X315139Y293551D01*
X314911Y292700D01*
X317900D01*
Y295690D01*
D02*
G37*
G36*
X321889Y291700D02*
X318900D01*
Y288710D01*
X319751Y288938D01*
X320549Y289399D01*
X321201Y290051D01*
X321661Y290849D01*
X321889Y291700D01*
D02*
G37*
G36*
X317900D02*
X314911D01*
X315139Y290849D01*
X315599Y290051D01*
X316251Y289399D01*
X317049Y288938D01*
X317900Y288710D01*
Y291700D01*
D02*
G37*
%LPD*%
D14*
X305487Y340500D02*
X307087Y342100D01*
Y344882D01*
X305366Y340500D02*
X307087Y342221D01*
X305366Y340500D02*
X305487D01*
X300900D02*
X305366D01*
X307087Y342221D02*
Y342221D01*
X295100Y334700D02*
X300900Y340500D01*
X295100Y331180D02*
Y334700D01*
X284100Y328400D02*
X286880Y331180D01*
X295100D01*
X284100Y319600D02*
Y328400D01*
Y319600D02*
X286771Y316929D01*
X291339D01*
X304154Y327854D02*
X309177Y332877D01*
Y343000D01*
X304154Y319799D02*
Y327854D01*
X301800Y317937D02*
X302292D01*
X304154Y319799D01*
X244400Y299700D02*
Y303141D01*
X242400Y297700D02*
X244400Y299700D01*
X236221Y297700D02*
X242400D01*
X244400Y303141D02*
Y303731D01*
X238800Y324894D02*
Y328532D01*
X234805Y320900D02*
X238800Y324894D01*
X234000Y350832D02*
X237100Y353931D01*
X234000Y346189D02*
Y350832D01*
X233811Y346000D02*
X234000Y346189D01*
X234252Y372047D02*
X240158D01*
X246063Y377953D01*
X245863Y378153D02*
X246063Y377953D01*
X245863Y378153D02*
Y379100D01*
X230800Y407105D02*
X231395Y407700D01*
X240469D01*
X240600Y407569D01*
X309177Y364200D02*
Y367677D01*
X312835Y371335D01*
X328135D01*
X339350Y382550D01*
Y391450D01*
X299988Y405512D02*
X325288D01*
X339350Y391450D01*
X264700Y406800D02*
X284100D01*
X264700D02*
X273862Y397638D01*
X284100Y406800D02*
Y419500D01*
X262506Y408994D02*
X264700Y406800D01*
X262506Y408994D02*
Y415204D01*
X284300Y421200D02*
X299988Y405512D01*
X262992Y350394D02*
X267706Y355107D01*
Y362194D01*
X271654Y366142D01*
X271654D01*
X273862Y397638D02*
X274016D01*
X297244Y363779D02*
Y368110D01*
X295276Y370079D02*
X297244Y368110D01*
X275590Y370079D02*
X295276D01*
X271654Y366142D02*
X275590Y370079D01*
X300800Y302850D02*
Y309063D01*
X300214Y302264D02*
X300800Y302850D01*
X291339Y302264D02*
X300214D01*
X300800Y309063D02*
X301800Y310063D01*
X302063Y309800D01*
X306000D01*
X316643Y337243D02*
X317300Y337900D01*
X316643Y333900D02*
Y337243D01*
X307100Y324357D02*
X316643Y333900D01*
X307100Y310900D02*
Y324357D01*
X306000Y309800D02*
X307100Y310900D01*
X318898Y279850D02*
X328579Y289531D01*
Y320705D01*
X295150Y279850D02*
X318898D01*
X285800Y289200D02*
X295150Y279850D01*
X328579Y320705D02*
X334646Y326772D01*
X353666Y367200D02*
X353740Y367126D01*
X334646Y326772D02*
Y338583D01*
X312598Y348303D02*
X319156D01*
X240600Y403631D02*
X241231Y403000D01*
X246100D02*
X249990Y406890D01*
X241231Y403000D02*
X246100D01*
X249990Y406890D02*
X250000D01*
X250694Y407584D01*
Y415204D01*
X250000Y396200D02*
Y406890D01*
X328876Y338583D02*
X334646D01*
X285800Y305800D02*
X287419Y307419D01*
X285800Y289200D02*
Y305800D01*
X291339Y307439D02*
Y312402D01*
X291319Y307419D02*
X291339Y307439D01*
Y302264D02*
Y307400D01*
X291319Y307419D02*
X291339Y307400D01*
X287419Y307419D02*
X291319D01*
X319156Y348303D02*
X328876Y338583D01*
X363684Y367717D02*
X364100Y367300D01*
X354331Y367717D02*
X363684D01*
X249800Y396000D02*
X250000Y396200D01*
X331890Y362205D02*
X332500Y362815D01*
Y365007D01*
X334900Y367200D02*
X353666D01*
X332708Y365007D02*
X334900Y367200D01*
X332500Y365007D02*
X332708D01*
X319893Y350394D02*
X323287Y347000D01*
X329557D01*
X329769Y347212D02*
X357512D01*
X329557Y347000D02*
X329769Y347212D01*
X312598Y350394D02*
X319893D01*
X357512Y347212D02*
X366142Y338583D01*
X374016D01*
X311000Y319700D02*
X311100Y319800D01*
X311000Y308873D02*
Y319700D01*
X320690Y352362D02*
X320722Y352394D01*
X312598Y352362D02*
X320690D01*
X320722Y352394D02*
X322115Y351000D01*
X327900D01*
X299213Y368800D02*
Y381890D01*
Y368800D02*
X299500Y368513D01*
Y366000D02*
Y368513D01*
X299213Y365713D02*
X299500Y366000D01*
X299213Y363779D02*
Y365713D01*
X307087Y370079D02*
X311024Y374016D01*
X322835D01*
X307087Y363779D02*
Y370079D01*
X307087Y370079D02*
X307087Y370079D01*
X292593Y335900D02*
X297122Y340429D01*
X282800Y335900D02*
X292593D01*
X297122Y340429D02*
Y344882D01*
X263779Y316880D02*
X282800Y335900D01*
X263779Y313779D02*
Y316880D01*
X244957Y329847D02*
X248031Y326772D01*
X244957Y329847D02*
Y346532D01*
X248819Y350394D01*
X248031Y326772D02*
X263779D01*
X287402Y350394D01*
X293701D01*
X264492Y339295D02*
X279528Y354331D01*
X253468Y339295D02*
X264492D01*
X279528Y354331D02*
X293701D01*
X248819Y334646D02*
X253468Y339295D01*
X287598Y352362D02*
X293701D01*
X285008Y352331D02*
X287598D01*
X267323Y334646D02*
X285008Y352331D01*
X262992Y334646D02*
X267323D01*
X311300Y363600D02*
X311400Y363700D01*
X289900Y322700D02*
X290172D01*
X295092Y327620D02*
X295100D01*
X290172Y322700D02*
X295092Y327620D01*
X230600Y394800D02*
X230800Y395000D01*
Y395294D01*
X278300Y360300D02*
X281024D01*
X277500Y356362D02*
X277563Y356299D01*
X277500Y356362D02*
Y359500D01*
X278300Y360300D01*
X274700Y354000D02*
X275264D01*
X277563Y356299D01*
X293701D01*
X343200Y353800D02*
X344800Y352200D01*
X340200Y353800D02*
X343200D01*
X339000Y355000D02*
X340200Y353800D01*
X322500Y355000D02*
X339000D01*
X321831Y354331D02*
X322500Y355000D01*
X312598Y354331D02*
X321831D01*
X289532Y358268D02*
X293701D01*
X283976Y360300D02*
X287500D01*
X289532Y358268D01*
X373748Y358000D02*
X374016Y358268D01*
X319001Y358000D02*
X373748D01*
X312598Y356299D02*
X317300D01*
X319001Y358000D01*
X226400Y307900D02*
X237034D01*
X225267D02*
X226400D01*
X244300Y307769D02*
Y327675D01*
X225267Y307900D02*
X226400Y309033D01*
X237034Y307900D02*
X244094Y314961D01*
X242900Y329075D02*
X244300Y327675D01*
Y307769D02*
X244400Y307668D01*
X242900Y329075D02*
Y357073D01*
X244094Y358268D01*
X226400Y307900D02*
Y309033D01*
X273654Y356843D02*
Y358953D01*
X279000Y364300D01*
X288000D01*
X271654Y350254D02*
Y354843D01*
X263920Y342520D02*
X271654Y350254D01*
X259842Y342520D02*
X263920D01*
X271654Y354843D02*
X273654Y356843D01*
X288000Y364300D02*
X292064Y360236D01*
X293701D01*
X255906Y346457D02*
Y354331D01*
X244094Y358268D02*
X251969D01*
Y358268D02*
X255906Y354331D01*
X251969Y358268D02*
Y358268D01*
X255906Y346457D02*
X259842Y342520D01*
X236300Y337300D02*
X238800D01*
X231677Y332677D02*
X236300Y337300D01*
X226378Y332677D02*
X231677D01*
X238800Y333059D02*
Y337300D01*
X240900Y339400D01*
Y357902D01*
X243266Y360268D01*
X257906D01*
X283465Y385827D02*
X303150D01*
X307087Y377953D02*
Y381890D01*
X303150Y385827D02*
X307087Y381890D01*
X257906Y360268D02*
X283465Y385827D01*
X301181Y372047D02*
X307087Y377953D01*
X301181Y363779D02*
Y372047D01*
X237100Y357869D02*
X238094D01*
X236701Y358268D02*
X237100Y357869D01*
X250970Y370800D02*
X257300D01*
X238094Y357925D02*
X250970Y370800D01*
X238094Y357869D02*
Y357925D01*
X226378Y358268D02*
X236701D01*
X226378D02*
X231200Y360300D01*
X319536Y360236D02*
X324200Y364900D01*
X312598Y360236D02*
X319536D01*
X305087Y372016D02*
X311024Y377953D01*
X305087Y372016D02*
X305118Y371984D01*
X311024Y377953D02*
Y385827D01*
X249800Y379100D02*
X249900Y379000D01*
X305118Y363779D02*
Y371984D01*
X249900Y379000D02*
X264827D01*
X269685Y383858D01*
X275590Y389764D01*
X226378Y383858D02*
X269685D01*
X275590Y389764D02*
X307087D01*
X311024Y385827D01*
D15*
X384252Y409449D02*
G03*
X383560Y411119I-2362J0D01*
G01*
X384252Y409449D02*
G03*
X383560Y411119I-2362J0D01*
G01*
X359938Y434741D02*
G03*
X358268Y435433I-1670J-1670D01*
G01*
X359938Y434741D02*
G03*
X358268Y435433I-1670J-1670D01*
G01*
X383560Y289668D02*
G03*
X384252Y291339I-1670J1670D01*
G01*
X383560Y289668D02*
G03*
X384252Y291339I-1670J1670D01*
G01*
X358268Y265354D02*
G03*
X359938Y266046I0J2362D01*
G01*
X358268Y265354D02*
G03*
X359938Y266046I0J2362D01*
G01*
X240158Y435433D02*
G03*
X238487Y434741I0J-2362D01*
G01*
X240158Y435433D02*
G03*
X238487Y434741I0J-2362D01*
G01*
X214865Y411119D02*
G03*
X214173Y409449I1670J-1670D01*
G01*
X214865Y411119D02*
G03*
X214173Y409449I1670J-1670D01*
G01*
X238487Y266046D02*
G03*
X240158Y265354I1670J1670D01*
G01*
X214173Y291339D02*
G03*
X214865Y289668I2362J0D01*
G01*
X214173Y291339D02*
G03*
X214865Y289668I2362J0D01*
G01*
X238487Y266046D02*
G03*
X240158Y265354I1670J1670D01*
G01*
X358268D01*
X214865Y289668D02*
X238487Y266046D01*
X214173Y291339D02*
Y409449D01*
X359938Y434741D02*
X383560Y411119D01*
X384252Y291339D02*
Y409449D01*
X359938Y266046D02*
X383560Y289668D01*
X240158Y435433D02*
X358268D01*
X214865Y411119D02*
X238487Y434741D01*
D16*
X311000Y308972D02*
D03*
Y305428D02*
D03*
D17*
X295100Y327620D02*
D03*
Y331180D02*
D03*
D18*
X301800Y317937D02*
D03*
Y310063D02*
D03*
D19*
X291339Y316929D02*
D03*
Y312992D02*
D03*
D20*
X250694Y415204D02*
D03*
X262506D02*
D03*
D21*
X256600Y415007D02*
D03*
D22*
X244400Y303141D02*
D03*
Y308259D02*
D03*
X238800Y327941D02*
D03*
Y333059D02*
D03*
X237100Y353341D02*
D03*
Y358459D02*
D03*
X240600Y408159D02*
D03*
Y403041D02*
D03*
D23*
X245272Y379100D02*
D03*
X250391D02*
D03*
D24*
X303150Y354331D02*
D03*
D25*
X297244Y363779D02*
D03*
X299213D02*
D03*
X301181D02*
D03*
X303150D02*
D03*
X305118D02*
D03*
X307087D02*
D03*
X309055D02*
D03*
Y344882D02*
D03*
X307087D02*
D03*
X305118D02*
D03*
X303150D02*
D03*
X301181D02*
D03*
X299213D02*
D03*
X297244D02*
D03*
D26*
X312598Y360236D02*
D03*
Y358268D02*
D03*
Y356299D02*
D03*
Y354331D02*
D03*
Y352362D02*
D03*
Y350394D02*
D03*
Y348425D02*
D03*
X293701D02*
D03*
Y350394D02*
D03*
Y352362D02*
D03*
Y354331D02*
D03*
Y356299D02*
D03*
Y358268D02*
D03*
Y360236D02*
D03*
D27*
X234906Y297700D02*
D03*
X223095D02*
D03*
X234906Y372000D02*
D03*
X223095D02*
D03*
X234805Y320900D02*
D03*
X222994D02*
D03*
X234906Y346000D02*
D03*
X223095D02*
D03*
D28*
X281024Y360300D02*
D03*
X283976D02*
D03*
D29*
X248819Y334646D02*
D03*
X262992D02*
D03*
Y350394D02*
D03*
X248819D02*
D03*
X349606Y338583D02*
D03*
X335433D02*
D03*
D30*
X230800Y407105D02*
D03*
Y395294D02*
D03*
D31*
X274016Y397638D02*
D03*
X285039D02*
D03*
D32*
X299213Y393701D02*
D03*
Y381890D02*
D03*
X322835Y385827D02*
D03*
Y374016D02*
D03*
D33*
X354331Y367717D02*
D03*
Y381890D02*
D03*
D34*
X291339Y302264D02*
D03*
Y296161D02*
D03*
D35*
X263779Y313779D02*
D03*
Y308268D02*
D03*
D60*
X371468Y338583D02*
D03*
Y358268D02*
D03*
X226400Y307900D02*
D03*
X226378Y332677D02*
D03*
Y358268D02*
D03*
Y383858D02*
D03*
D61*
X284300Y421200D02*
D03*
X311024Y421260D02*
D03*
D62*
X317300Y337900D02*
D03*
X364100Y367300D02*
D03*
X249800Y396000D02*
D03*
X311100Y322700D02*
D03*
X327900Y351000D02*
D03*
X289900Y322700D02*
D03*
X318400Y292200D02*
D03*
X332400Y281700D02*
D03*
X344800Y352200D02*
D03*
X324200Y364900D02*
D03*
X257300Y370800D02*
D03*
D63*
X362205Y417323D02*
D03*
X236221Y283465D02*
D03*
Y417323D02*
D03*
X362205Y283465D02*
D03*
D64*
X274700Y354000D02*
D03*
D65*
X307480Y350000D02*
D03*
X303150D02*
D03*
X298819D02*
D03*
X307480Y354331D02*
D03*
X303150D02*
D03*
X298819D02*
D03*
X307480Y358661D02*
D03*
X303150D02*
D03*
X298819D02*
D03*
M02*
