G04*
G04 #@! TF.GenerationSoftware,Altium Limited,Altium Designer,22.2.1 (43)*
G04*
G04 Layer_Color=8421504*
%FSLAX25Y25*%
%MOIN*%
G70*
G04*
G04 #@! TF.SameCoordinates,E3E267CE-3B28-4E7D-86E6-9DA55300F0EE*
G04*
G04*
G04 #@! TF.FilePolarity,Positive*
G04*
G01*
G75*
%ADD15C,0.04724*%
%ADD16R,0.02165X0.02165*%
%ADD17R,0.02254X0.02237*%
%ADD18R,0.05709X0.04724*%
%ADD19R,0.02559X0.02559*%
%ADD20R,0.02362X0.06299*%
%ADD21R,0.02756X0.05906*%
%ADD22R,0.03937X0.03543*%
%ADD23R,0.03543X0.03937*%
%ADD24R,0.12402X0.12402*%
%ADD25O,0.01181X0.04528*%
%ADD26O,0.04528X0.01181*%
%ADD27R,0.05512X0.05906*%
%ADD28R,0.01968X0.01772*%
%ADD29R,0.04724X0.06299*%
%ADD30R,0.05906X0.05512*%
G04:AMPARAMS|DCode=31|XSize=70.87mil|YSize=51.18mil|CornerRadius=5.12mil|HoleSize=0mil|Usage=FLASHONLY|Rotation=270.000|XOffset=0mil|YOffset=0mil|HoleType=Round|Shape=RoundedRectangle|*
%AMROUNDEDRECTD31*
21,1,0.07087,0.04095,0,0,270.0*
21,1,0.06063,0.05118,0,0,270.0*
1,1,0.01024,-0.02047,-0.03032*
1,1,0.01024,-0.02047,0.03032*
1,1,0.01024,0.02047,0.03032*
1,1,0.01024,0.02047,-0.03032*
%
%ADD31ROUNDEDRECTD31*%
%ADD32R,0.03937X0.02362*%
%ADD33R,0.06299X0.04724*%
%ADD34R,0.05118X0.03543*%
%ADD35R,0.05315X0.04331*%
D15*
X384252Y409449D02*
G03*
X383560Y411119I-2362J0D01*
G01*
X384252Y409449D02*
G03*
X383560Y411119I-2362J0D01*
G01*
X359938Y434741D02*
G03*
X358268Y435433I-1670J-1670D01*
G01*
X359938Y434741D02*
G03*
X358268Y435433I-1670J-1670D01*
G01*
X383560Y289668D02*
G03*
X384252Y291339I-1670J1670D01*
G01*
X383560Y289668D02*
G03*
X384252Y291339I-1670J1670D01*
G01*
X358268Y265354D02*
G03*
X359938Y266046I0J2362D01*
G01*
X358268Y265354D02*
G03*
X359938Y266046I0J2362D01*
G01*
X240158Y435433D02*
G03*
X238487Y434741I0J-2362D01*
G01*
X240158Y435433D02*
G03*
X238487Y434741I0J-2362D01*
G01*
X214865Y411119D02*
G03*
X214173Y409449I1670J-1670D01*
G01*
X214865Y411119D02*
G03*
X214173Y409449I1670J-1670D01*
G01*
X238487Y266046D02*
G03*
X240158Y265354I1670J1670D01*
G01*
X214173Y291339D02*
G03*
X214865Y289668I2362J0D01*
G01*
X214173Y291339D02*
G03*
X214865Y289668I2362J0D01*
G01*
X238487Y266046D02*
G03*
X240158Y265354I1670J1670D01*
G01*
X358268D01*
X214865Y289668D02*
X238487Y266046D01*
X214173Y291339D02*
Y409449D01*
X359938Y434741D02*
X383560Y411119D01*
X384252Y291339D02*
Y409449D01*
X359938Y266046D02*
X383560Y289668D01*
X240158Y435433D02*
X358268D01*
X214865Y411119D02*
X238487Y434741D01*
D16*
X311000Y308972D02*
D03*
Y305428D02*
D03*
D17*
X295100Y327620D02*
D03*
Y331180D02*
D03*
D18*
X301800Y317937D02*
D03*
Y310063D02*
D03*
D19*
X291339Y316929D02*
D03*
Y312992D02*
D03*
D20*
X250694Y415204D02*
D03*
X262506D02*
D03*
D21*
X256600Y415007D02*
D03*
D22*
X244400Y303141D02*
D03*
Y308259D02*
D03*
X238800Y327941D02*
D03*
Y333059D02*
D03*
X237100Y353341D02*
D03*
Y358459D02*
D03*
X240600Y408159D02*
D03*
Y403041D02*
D03*
D23*
X245272Y379100D02*
D03*
X250391D02*
D03*
D24*
X303150Y354331D02*
D03*
D25*
X297244Y363779D02*
D03*
X299213D02*
D03*
X301181D02*
D03*
X303150D02*
D03*
X305118D02*
D03*
X307087D02*
D03*
X309055D02*
D03*
Y344882D02*
D03*
X307087D02*
D03*
X305118D02*
D03*
X303150D02*
D03*
X301181D02*
D03*
X299213D02*
D03*
X297244D02*
D03*
D26*
X312598Y360236D02*
D03*
Y358268D02*
D03*
Y356299D02*
D03*
Y354331D02*
D03*
Y352362D02*
D03*
Y350394D02*
D03*
Y348425D02*
D03*
X293701D02*
D03*
Y350394D02*
D03*
Y352362D02*
D03*
Y354331D02*
D03*
Y356299D02*
D03*
Y358268D02*
D03*
Y360236D02*
D03*
D27*
X234906Y297700D02*
D03*
X223095D02*
D03*
X234906Y372000D02*
D03*
X223095D02*
D03*
X234805Y320900D02*
D03*
X222994D02*
D03*
X234906Y346000D02*
D03*
X223095D02*
D03*
D28*
X281024Y360300D02*
D03*
X283976D02*
D03*
D29*
X248819Y334646D02*
D03*
X262992D02*
D03*
Y350394D02*
D03*
X248819D02*
D03*
X349606Y338583D02*
D03*
X335433D02*
D03*
D30*
X230800Y407105D02*
D03*
Y395294D02*
D03*
D31*
X274016Y397638D02*
D03*
X285039D02*
D03*
D32*
X299213Y393701D02*
D03*
Y381890D02*
D03*
X322835Y385827D02*
D03*
Y374016D02*
D03*
D33*
X354331Y367717D02*
D03*
Y381890D02*
D03*
D34*
X291339Y302264D02*
D03*
Y296161D02*
D03*
D35*
X263779Y313779D02*
D03*
Y308268D02*
D03*
M02*
