G04*
G04 #@! TF.GenerationSoftware,Altium Limited,Altium Designer,22.6.1 (34)*
G04*
G04 Layer_Color=8421504*
%FSLAX44Y44*%
%MOMM*%
G71*
G04*
G04 #@! TF.SameCoordinates,3FC15ED1-56EA-4B36-BDB6-6E6CE890E9D8*
G04*
G04*
G04 #@! TF.FilePolarity,Positive*
G04*
G01*
G75*
%ADD15C,1.2000*%
%ADD16R,1.3000X0.9000*%
%ADD17R,1.5000X1.4000*%
%ADD18R,1.5240X1.5240*%
%ADD19R,1.4500X1.2000*%
%ADD20R,1.8062X1.8549*%
%ADD21R,0.5500X0.5500*%
%ADD22O,1.1500X0.3000*%
%ADD23R,0.5725X0.5682*%
%ADD24R,0.6500X0.6500*%
%ADD25R,0.6000X1.6000*%
%ADD26R,0.7000X1.5000*%
%ADD27R,1.0000X0.9000*%
%ADD28R,0.9000X1.0000*%
%ADD29R,3.1500X3.1500*%
%ADD30O,0.3000X1.1500*%
%ADD31R,1.4000X1.5000*%
%ADD32R,0.5000X0.4500*%
%ADD33R,1.2000X1.6000*%
G04:AMPARAMS|DCode=34|XSize=1.8mm|YSize=1.3mm|CornerRadius=0.13mm|HoleSize=0mm|Usage=FLASHONLY|Rotation=270.000|XOffset=0mm|YOffset=0mm|HoleType=Round|Shape=RoundedRectangle|*
%AMROUNDEDRECTD34*
21,1,1.8000,1.0400,0,0,270.0*
21,1,1.5400,1.3000,0,0,270.0*
1,1,0.2600,-0.5200,-0.7700*
1,1,0.2600,-0.5200,0.7700*
1,1,0.2600,0.5200,0.7700*
1,1,0.2600,0.5200,-0.7700*
%
%ADD34ROUNDEDRECTD34*%
%ADD35R,1.6000X1.2000*%
%ADD36R,1.3500X1.1000*%
D15*
X976000Y1040000D02*
G03*
X974243Y1044243I-6000J0D01*
G01*
X976000Y1040000D02*
G03*
X974243Y1044243I-6000J0D01*
G01*
X914243Y1104243D02*
G03*
X910000Y1106000I-4243J-4243D01*
G01*
X914243Y1104243D02*
G03*
X910000Y1106000I-4243J-4243D01*
G01*
X974243Y735757D02*
G03*
X976000Y740000I-4243J4243D01*
G01*
X974243Y735757D02*
G03*
X976000Y740000I-4243J4243D01*
G01*
X910000Y674000D02*
G03*
X914243Y675757I0J6000D01*
G01*
X910000Y674000D02*
G03*
X914243Y675757I0J6000D01*
G01*
X610000Y1106000D02*
G03*
X605757Y1104243I0J-6000D01*
G01*
X610000Y1106000D02*
G03*
X605757Y1104243I0J-6000D01*
G01*
X545757Y1044243D02*
G03*
X544000Y1040000I4243J-4243D01*
G01*
X545757Y1044243D02*
G03*
X544000Y1040000I4243J-4243D01*
G01*
X605757Y675757D02*
G03*
X610000Y674000I4243J4243D01*
G01*
X544000Y740000D02*
G03*
X545757Y735757I6000J0D01*
G01*
X544000Y740000D02*
G03*
X545757Y735757I6000J0D01*
G01*
X605757Y675757D02*
G03*
X610000Y674000I4243J4243D01*
G01*
X910000D01*
X545757Y735757D02*
X605757Y675757D01*
X544000Y740000D02*
Y1040000D01*
X914243Y1104243D02*
X974243Y1044243D01*
X976000Y740000D02*
Y1040000D01*
X914243Y675757D02*
X974243Y735757D01*
X610000Y1106000D02*
X910000D01*
X545757Y1044243D02*
X605757Y1104243D01*
D16*
X740000Y767750D02*
D03*
Y752250D02*
D03*
D17*
X586232Y1004048D02*
D03*
Y1034048D02*
D03*
D18*
X760476Y995680D02*
D03*
X760222Y975360D02*
D03*
X819912Y969264D02*
D03*
X820166Y989584D02*
D03*
D19*
X766572Y787560D02*
D03*
Y807560D02*
D03*
D20*
X760222Y974183D02*
D03*
Y996696D02*
D03*
X820000Y968744D02*
D03*
Y991256D02*
D03*
D21*
X789940Y784788D02*
D03*
Y775788D02*
D03*
D22*
X794000Y895000D02*
D03*
Y915000D02*
D03*
Y910000D02*
D03*
Y905000D02*
D03*
Y900000D02*
D03*
Y890000D02*
D03*
Y885000D02*
D03*
X746000D02*
D03*
Y890000D02*
D03*
Y895000D02*
D03*
Y900000D02*
D03*
Y905000D02*
D03*
Y910000D02*
D03*
Y915000D02*
D03*
D23*
X749554Y832154D02*
D03*
Y841198D02*
D03*
D24*
X740000Y805000D02*
D03*
Y795000D02*
D03*
D25*
X636764Y1054618D02*
D03*
X666764D02*
D03*
D26*
X651764Y1054118D02*
D03*
D27*
X620776Y769978D02*
D03*
Y782978D02*
D03*
X606552Y832970D02*
D03*
Y845970D02*
D03*
X602234Y897486D02*
D03*
Y910486D02*
D03*
X611124Y1036724D02*
D03*
Y1023724D02*
D03*
D28*
X622992Y962914D02*
D03*
X635992D02*
D03*
D29*
X770000Y900000D02*
D03*
D30*
X755000Y924000D02*
D03*
X760000D02*
D03*
X765000D02*
D03*
X770000D02*
D03*
X775000D02*
D03*
X780000D02*
D03*
X785000D02*
D03*
Y876000D02*
D03*
X780000D02*
D03*
X775000D02*
D03*
X770000D02*
D03*
X765000D02*
D03*
X760000D02*
D03*
X755000D02*
D03*
D31*
X596660Y756158D02*
D03*
X566660D02*
D03*
X596660Y944880D02*
D03*
X566660D02*
D03*
X596406Y815086D02*
D03*
X566406D02*
D03*
X596660Y878840D02*
D03*
X566660D02*
D03*
D32*
X713800Y915162D02*
D03*
X721300D02*
D03*
D33*
X632000Y850000D02*
D03*
X668000D02*
D03*
Y890000D02*
D03*
X632000D02*
D03*
X888000Y860000D02*
D03*
X852000D02*
D03*
D34*
X696000Y1010000D02*
D03*
X724000D02*
D03*
D35*
X900000Y934000D02*
D03*
Y970000D02*
D03*
D36*
X670000Y797000D02*
D03*
Y783000D02*
D03*
M02*
