G04*
G04 #@! TF.GenerationSoftware,Altium Limited,Altium Designer,22.6.1 (34)*
G04*
G04 Layer_Color=32896*
%FSLAX44Y44*%
%MOMM*%
G71*
G04*
G04 #@! TF.SameCoordinates,3FC15ED1-56EA-4B36-BDB6-6E6CE890E9D8*
G04*
G04*
G04 #@! TF.FilePolarity,Positive*
G04*
G01*
G75*
%ADD11C,0.2032*%
%ADD14C,0.2540*%
%ADD15C,1.2000*%
D11*
X900938Y774443D02*
Y764286D01*
X894167D01*
X890781Y771057D02*
Y765979D01*
X889089Y764286D01*
X884010D01*
Y771057D01*
X873853D02*
X878932D01*
X880625Y769364D01*
Y765979D01*
X878932Y764286D01*
X873853D01*
X868775Y771057D02*
X865389D01*
X863697Y769364D01*
Y764286D01*
X868775D01*
X870468Y765979D01*
X868775Y767672D01*
X863697D01*
X860311Y764286D02*
X855233D01*
X853540Y765979D01*
X855233Y767672D01*
X858618D01*
X860311Y769364D01*
X858618Y771057D01*
X853540D01*
X839998Y774443D02*
Y764286D01*
X833226D01*
X824763D02*
X828148D01*
X829841Y765979D01*
Y769364D01*
X828148Y771057D01*
X824763D01*
X823070Y769364D01*
Y767672D01*
X829841D01*
X819684Y764286D02*
Y771057D01*
X814606D01*
X812913Y769364D01*
Y764286D01*
X807835Y771057D02*
X804449D01*
X802756Y769364D01*
Y764286D01*
X807835D01*
X809528Y765979D01*
X807835Y767672D01*
X802756D01*
X799371Y771057D02*
Y764286D01*
Y767672D01*
X797678Y769364D01*
X795985Y771057D01*
X794292D01*
X782443D02*
X787521D01*
X789214Y769364D01*
Y765979D01*
X787521Y764286D01*
X782443D01*
X779057D02*
X775672D01*
X777365D01*
Y771057D01*
X779057D01*
X763822D02*
X768901D01*
X770593Y769364D01*
Y765979D01*
X768901Y764286D01*
X763822D01*
D14*
X901192Y800855D02*
Y785620D01*
X893575D01*
X891035Y788159D01*
Y798316D01*
X893575Y800855D01*
X901192D01*
X878339Y785620D02*
X883418D01*
X885957Y788159D01*
Y793238D01*
X883418Y795777D01*
X878339D01*
X875800Y793238D01*
Y790699D01*
X885957D01*
X870722Y785620D02*
X863104D01*
X860565Y788159D01*
X863104Y790699D01*
X868183D01*
X870722Y793238D01*
X868183Y795777D01*
X860565D01*
X855487Y785620D02*
X850408D01*
X852948D01*
Y795777D01*
X855487D01*
X837712Y780542D02*
X835173D01*
X832634Y783081D01*
Y795777D01*
X840252D01*
X842791Y793238D01*
Y788159D01*
X840252Y785620D01*
X832634D01*
X827556D02*
Y795777D01*
X819938D01*
X817399Y793238D01*
Y785620D01*
X804703D02*
X809782D01*
X812321Y788159D01*
Y793238D01*
X809782Y795777D01*
X804703D01*
X802164Y793238D01*
Y790699D01*
X812321D01*
X786929Y800855D02*
Y785620D01*
X794547D01*
X797086Y788159D01*
Y793238D01*
X794547Y795777D01*
X786929D01*
X766616Y785620D02*
X761537D01*
X764076D01*
Y795777D01*
X766616D01*
X753920Y785620D02*
Y795777D01*
X746302D01*
X743763Y793238D01*
Y785620D01*
X723449D02*
Y795777D01*
X718371Y800855D01*
X713293Y795777D01*
Y785620D01*
Y793238D01*
X723449D01*
X708214Y795777D02*
Y788159D01*
X705675Y785620D01*
X698058D01*
Y795777D01*
X692979Y785620D02*
X685362D01*
X682823Y788159D01*
X685362Y790699D01*
X690440D01*
X692979Y793238D01*
X690440Y795777D01*
X682823D01*
X675205Y798316D02*
Y795777D01*
X677744D01*
X672666D01*
X675205D01*
Y788159D01*
X672666Y785620D01*
X665048Y795777D02*
Y785620D01*
Y790699D01*
X662509Y793238D01*
X659970Y795777D01*
X657431D01*
X649813Y785620D02*
X644735D01*
X647274D01*
Y795777D01*
X649813D01*
X634578D02*
X629500D01*
X626961Y793238D01*
Y785620D01*
X634578D01*
X637117Y788159D01*
X634578Y790699D01*
X626961D01*
D15*
X976000Y1040000D02*
G03*
X974243Y1044243I-6000J0D01*
G01*
X976000Y1040000D02*
G03*
X974243Y1044243I-6000J0D01*
G01*
X914243Y1104243D02*
G03*
X910000Y1106000I-4243J-4243D01*
G01*
X914243Y1104243D02*
G03*
X910000Y1106000I-4243J-4243D01*
G01*
X974243Y735757D02*
G03*
X976000Y740000I-4243J4243D01*
G01*
X974243Y735757D02*
G03*
X976000Y740000I-4243J4243D01*
G01*
X910000Y674000D02*
G03*
X914243Y675757I0J6000D01*
G01*
X910000Y674000D02*
G03*
X914243Y675757I0J6000D01*
G01*
X610000Y1106000D02*
G03*
X605757Y1104243I0J-6000D01*
G01*
X610000Y1106000D02*
G03*
X605757Y1104243I0J-6000D01*
G01*
X545757Y1044243D02*
G03*
X544000Y1040000I4243J-4243D01*
G01*
X545757Y1044243D02*
G03*
X544000Y1040000I4243J-4243D01*
G01*
X605757Y675757D02*
G03*
X610000Y674000I4243J4243D01*
G01*
X544000Y740000D02*
G03*
X545757Y735757I6000J0D01*
G01*
X544000Y740000D02*
G03*
X545757Y735757I6000J0D01*
G01*
X605757Y675757D02*
G03*
X610000Y674000I4243J4243D01*
G01*
X910000D01*
X545757Y735757D02*
X605757Y675757D01*
X544000Y740000D02*
Y1040000D01*
X914243Y1104243D02*
X974243Y1044243D01*
X976000Y740000D02*
Y1040000D01*
X914243Y675757D02*
X974243Y735757D01*
X610000Y1106000D02*
X910000D01*
X545757Y1044243D02*
X605757Y1104243D01*
M02*
