M48
;Layer_Color=9474304
;FILE_FORMAT=4:4
METRIC,LZ
;TYPE=PLATED
T1F00S00C0.2540
T2F00S00C0.3000
T3F00S00C0.7112
T4F00S00C1.7780
T5F00S00C2.5000
%
T01
X00697738Y0089916
T02
X00759Y00889
Y009
Y00911
X0077
X00781
Y009
X0077
Y00889
X00781
T03
X00808736Y00742188
X00844296Y00715518
X00790194Y00819658
X00736346
X00741934Y00970534
X00653542Y00941832
X00634492Y0100584
X00862584Y01017778
X00823468Y00926846
X00832866Y0089154
X00875792Y00894588
X00924814Y00932942
X00805942Y00858266
T04
X00722122Y01069848
X0079Y0107
T05
X0092Y0072
X006
Y0106
X0092
M30
