M48
;Layer_Color=9474304
;FILE_FORMAT=4:4
METRIC,LZ
;TYPE=PLATED
T1F00S00C0.3000
T2F00S00C0.4110
T3F00S00C0.7112
T4F00S00C0.7620
T5F00S00C1.7620
T6F00S00C4.0000
%
T01
X00139Y00139
X0015
X00161
Y0015
Y00161
X0015
Y0015
X00139
Y00161
T02
X00205Y00045
T03
X00035Y00085
Y001175
Y0015
Y001775
X0006Y0016
X000825
X001025Y001625
X00104902Y00121412
X00115Y0011
X001275Y001
X0017Y001075
X0018161Y00079756
X00245Y001
X00230316Y00122184
X00230234Y0016122
X0025Y00175
X0026Y0019
X00185Y002
X0018Y0018055
X00175Y00235
X0007Y002
T04
X0026Y0011
X002625Y001625
T05
X00105Y00265
X001475
T06
X0003Y000375
X002525
X002525Y002525
M30
