G04*
G04 #@! TF.GenerationSoftware,Altium Limited,Altium Designer,22.2.1 (43)*
G04*
G04 Layer_Color=8388736*
%FSLAX25Y25*%
%MOIN*%
G70*
G04*
G04 #@! TF.SameCoordinates,A0B6180B-CB23-4C68-ABD7-9AFF8C43F20D*
G04*
G04*
G04 #@! TF.FilePolarity,Negative*
G04*
G01*
G75*
%ADD13C,0.04724*%
%ADD18R,0.02254X0.02237*%
%ADD31R,0.05524X0.07099*%
%ADD32O,0.04929X0.01583*%
%ADD33R,0.02572X0.02769*%
%ADD34R,0.06509X0.05524*%
%ADD35R,0.04540X0.03950*%
%ADD36R,0.03359X0.03359*%
%ADD37R,0.07099X0.05524*%
%ADD38R,0.03162X0.07099*%
%ADD39R,0.03556X0.06706*%
G04:AMPARAMS|DCode=40|XSize=78.87mil|YSize=59.18mil|CornerRadius=9.12mil|HoleSize=0mil|Usage=FLASHONLY|Rotation=180.000|XOffset=0mil|YOffset=0mil|HoleType=Round|Shape=RoundedRectangle|*
%AMROUNDEDRECTD40*
21,1,0.07887,0.04095,0,0,180.0*
21,1,0.06063,0.05918,0,0,180.0*
1,1,0.01824,-0.03032,0.02047*
1,1,0.01824,0.03032,0.02047*
1,1,0.01824,0.03032,-0.02047*
1,1,0.01824,-0.03032,-0.02047*
%
%ADD40ROUNDEDRECTD40*%
%ADD41R,0.05131X0.06115*%
%ADD42O,0.01583X0.04929*%
%ADD43R,0.12803X0.12803*%
%ADD44R,0.05918X0.04343*%
%ADD45C,0.10737*%
%ADD46O,0.05619X0.06800*%
%ADD47O,0.05682X0.06800*%
G04:AMPARAMS|DCode=48|XSize=107.37mil|YSize=68mil|CornerRadius=19mil|HoleSize=0mil|Usage=FLASHONLY|Rotation=0.000|XOffset=0mil|YOffset=0mil|HoleType=Round|Shape=RoundedRectangle|*
%AMROUNDEDRECTD48*
21,1,0.10737,0.03000,0,0,0.0*
21,1,0.06937,0.06800,0,0,0.0*
1,1,0.03800,0.03469,-0.01500*
1,1,0.03800,-0.03469,-0.01500*
1,1,0.03800,-0.03469,0.01500*
1,1,0.03800,0.03469,0.01500*
%
%ADD48ROUNDEDRECTD48*%
%ADD49C,0.05800*%
%ADD50C,0.12611*%
%ADD51C,0.02965*%
D13*
X112599Y110236D02*
G03*
X110236Y112599I-2362J0D01*
G01*
X112599Y110236D02*
G03*
X110236Y112599I-2362J0D01*
G01*
Y-2362D02*
G03*
X112599Y0I0J2362D01*
G01*
X110236Y-2362D02*
G03*
X112599Y0I0J2362D01*
G01*
X0Y112599D02*
G03*
X-2362Y110236I0J-2362D01*
G01*
X0Y112599D02*
G03*
X-2362Y110236I0J-2362D01*
G01*
Y0D02*
G03*
X0Y-2362I2362J0D01*
G01*
X-2362Y0D02*
G03*
X0Y-2362I2362J0D01*
G01*
X112599Y0D02*
Y110236D01*
X0Y112599D02*
X110236D01*
X0Y-2362D02*
X110236D01*
X-2362Y0D02*
Y110236D01*
D18*
X32480Y16921D02*
D03*
Y20481D02*
D03*
D31*
X18013Y52100D02*
D03*
X32187D02*
D03*
X56113Y84300D02*
D03*
X70287D02*
D03*
X32613Y84700D02*
D03*
X46787D02*
D03*
D32*
X68504Y53150D02*
D03*
X49606Y64961D02*
D03*
Y62992D02*
D03*
Y61024D02*
D03*
Y59055D02*
D03*
Y57087D02*
D03*
Y55118D02*
D03*
Y53150D02*
D03*
X68504Y55118D02*
D03*
Y57087D02*
D03*
Y59055D02*
D03*
Y61024D02*
D03*
Y62992D02*
D03*
Y64961D02*
D03*
D33*
X66929Y75295D02*
D03*
Y78248D02*
D03*
D34*
X44291Y23622D02*
D03*
Y15748D02*
D03*
D35*
X57087Y19980D02*
D03*
Y25295D02*
D03*
D36*
X24109Y70900D02*
D03*
X20172D02*
D03*
D37*
X21700Y25314D02*
D03*
Y39487D02*
D03*
D38*
X10195Y89004D02*
D03*
X22006D02*
D03*
D39*
X16100Y88807D02*
D03*
D40*
X83600Y63588D02*
D03*
Y74612D02*
D03*
D41*
X40456Y70500D02*
D03*
X34944D02*
D03*
D42*
X64961Y68504D02*
D03*
X62992D02*
D03*
X61024D02*
D03*
X59055D02*
D03*
X57087D02*
D03*
X55118D02*
D03*
X53150D02*
D03*
Y49606D02*
D03*
X55118D02*
D03*
X57087D02*
D03*
X59055D02*
D03*
X61024D02*
D03*
X62992D02*
D03*
X64961D02*
D03*
D43*
X59055Y59055D02*
D03*
D44*
X71600Y19249D02*
D03*
Y25351D02*
D03*
D45*
X41339Y104331D02*
D03*
X58071D02*
D03*
D46*
X103346Y63976D02*
D03*
D47*
X102362Y43307D02*
D03*
D48*
X5906Y33465D02*
D03*
Y46260D02*
D03*
Y59055D02*
D03*
Y69882D02*
D03*
D49*
X98425Y68898D02*
D03*
X32480Y62992D02*
D03*
X90643D02*
D03*
X40354Y63976D02*
D03*
X41300Y47800D02*
D03*
X71500Y31400D02*
D03*
X50197Y39370D02*
D03*
X70866Y71083D02*
D03*
X68898Y92520D02*
D03*
X45276Y43307D02*
D03*
X102362Y74803D02*
D03*
X23622Y62992D02*
D03*
X27559Y78740D02*
D03*
X72835D02*
D03*
X13780Y33465D02*
D03*
X96457Y39370D02*
D03*
X13780Y46260D02*
D03*
X66929Y42323D02*
D03*
X13780Y59055D02*
D03*
X92293Y46487D02*
D03*
X13780Y69882D02*
D03*
D50*
X99409Y14764D02*
D03*
X11811D02*
D03*
D51*
X63386Y63386D02*
D03*
Y59055D02*
D03*
Y54724D02*
D03*
X59055Y63386D02*
D03*
Y59055D02*
D03*
Y54724D02*
D03*
X54724Y63386D02*
D03*
Y59055D02*
D03*
Y54724D02*
D03*
M02*
