G04*
G04 #@! TF.GenerationSoftware,Altium Limited,Altium Designer,22.2.1 (43)*
G04*
G04 Layer_Color=16711935*
%FSLAX25Y25*%
%MOIN*%
G70*
G04*
G04 #@! TF.SameCoordinates,A0B6180B-CB23-4C68-ABD7-9AFF8C43F20D*
G04*
G04*
G04 #@! TF.FilePolarity,Positive*
G04*
G01*
G75*
%ADD11C,0.00787*%
%ADD13C,0.04724*%
G36*
X34302Y17532D02*
X34298Y17503D01*
Y17470D01*
X34295Y17394D01*
X34284Y17314D01*
X34273Y17227D01*
X34254Y17146D01*
X34244Y17107D01*
X34233Y17074D01*
Y17070D01*
X34229Y17066D01*
X34218Y17045D01*
X34203Y17012D01*
X34178Y16972D01*
X34145Y16928D01*
X34102Y16881D01*
X34051Y16837D01*
X33992Y16793D01*
X33989D01*
X33985Y16790D01*
X33963Y16775D01*
X33927Y16761D01*
X33880Y16739D01*
X33825Y16721D01*
X33759Y16702D01*
X33690Y16691D01*
X33614Y16688D01*
X33610D01*
X33603D01*
X33588D01*
X33570Y16691D01*
X33545D01*
X33519Y16695D01*
X33457Y16710D01*
X33384Y16732D01*
X33308Y16761D01*
X33232Y16804D01*
X33195Y16833D01*
X33159Y16863D01*
X33155Y16866D01*
X33152Y16870D01*
X33141Y16881D01*
X33130Y16895D01*
X33115Y16914D01*
X33101Y16935D01*
X33082Y16964D01*
X33061Y16994D01*
X33042Y17030D01*
X33024Y17070D01*
X33002Y17114D01*
X32984Y17161D01*
X32969Y17216D01*
X32951Y17270D01*
X32940Y17332D01*
X32930Y17398D01*
X32926Y17390D01*
X32919Y17376D01*
X32904Y17354D01*
X32889Y17325D01*
X32849Y17259D01*
X32824Y17227D01*
X32802Y17198D01*
X32795Y17190D01*
X32777Y17172D01*
X32748Y17143D01*
X32711Y17107D01*
X32660Y17066D01*
X32605Y17019D01*
X32540Y16972D01*
X32467Y16921D01*
X31783Y16488D01*
Y16903D01*
X32307Y17234D01*
X32311D01*
X32318Y17241D01*
X32329Y17248D01*
X32343Y17259D01*
X32383Y17285D01*
X32434Y17318D01*
X32489Y17358D01*
X32547Y17398D01*
X32602Y17438D01*
X32653Y17474D01*
X32656Y17478D01*
X32671Y17489D01*
X32693Y17507D01*
X32718Y17532D01*
X32773Y17587D01*
X32798Y17616D01*
X32820Y17645D01*
X32824Y17649D01*
X32828Y17656D01*
X32835Y17671D01*
X32846Y17693D01*
X32857Y17714D01*
X32868Y17740D01*
X32886Y17798D01*
Y17802D01*
X32889Y17809D01*
Y17823D01*
X32893Y17842D01*
X32897Y17867D01*
Y17896D01*
X32900Y17936D01*
Y18366D01*
X31783D01*
Y18701D01*
X34302D01*
Y17532D01*
D02*
G37*
G36*
X33679Y16051D02*
X33687Y16044D01*
X33690Y16029D01*
X33701Y16011D01*
X33712Y15989D01*
X33727Y15964D01*
X33763Y15902D01*
X33803Y15829D01*
X33854Y15756D01*
X33912Y15680D01*
X33974Y15603D01*
X33978Y15599D01*
X33981Y15596D01*
X33992Y15585D01*
X34003Y15570D01*
X34040Y15538D01*
X34083Y15494D01*
X34134Y15450D01*
X34192Y15403D01*
X34251Y15363D01*
X34313Y15326D01*
Y15126D01*
X31783D01*
Y15436D01*
X33752D01*
X33748Y15439D01*
X33734Y15458D01*
X33712Y15479D01*
X33687Y15516D01*
X33654Y15556D01*
X33617Y15607D01*
X33577Y15665D01*
X33537Y15731D01*
Y15734D01*
X33534Y15738D01*
X33519Y15760D01*
X33501Y15796D01*
X33479Y15840D01*
X33454Y15891D01*
X33428Y15945D01*
X33403Y16000D01*
X33381Y16055D01*
X33679D01*
Y16051D01*
D02*
G37*
G36*
X32489Y14020D02*
X32485D01*
X32478Y14016D01*
X32463Y14013D01*
X32445Y14009D01*
X32423Y14005D01*
X32398Y13998D01*
X32343Y13980D01*
X32278Y13954D01*
X32216Y13921D01*
X32158Y13885D01*
X32107Y13841D01*
X32103Y13834D01*
X32089Y13819D01*
X32070Y13790D01*
X32052Y13754D01*
X32030Y13710D01*
X32012Y13656D01*
X31998Y13594D01*
X31994Y13528D01*
Y13507D01*
X31998Y13492D01*
X32001Y13452D01*
X32012Y13401D01*
X32030Y13343D01*
X32056Y13281D01*
X32092Y13219D01*
X32143Y13161D01*
X32151Y13153D01*
X32172Y13135D01*
X32205Y13113D01*
X32249Y13084D01*
X32303Y13055D01*
X32365Y13033D01*
X32438Y13015D01*
X32518Y13008D01*
X32522D01*
X32529D01*
X32540D01*
X32555Y13011D01*
X32595Y13015D01*
X32642Y13026D01*
X32700Y13041D01*
X32758Y13066D01*
X32817Y13102D01*
X32871Y13150D01*
X32879Y13157D01*
X32893Y13175D01*
X32915Y13204D01*
X32940Y13244D01*
X32966Y13295D01*
X32988Y13357D01*
X33002Y13426D01*
X33010Y13503D01*
Y13536D01*
X33006Y13561D01*
X33002Y13594D01*
X32995Y13630D01*
X32988Y13674D01*
X32977Y13721D01*
X33250Y13685D01*
Y13667D01*
X33246Y13652D01*
Y13605D01*
X33253Y13565D01*
X33261Y13517D01*
X33272Y13463D01*
X33290Y13401D01*
X33315Y13343D01*
X33348Y13281D01*
Y13277D01*
X33352Y13273D01*
X33366Y13255D01*
X33392Y13230D01*
X33424Y13201D01*
X33472Y13172D01*
X33526Y13146D01*
X33588Y13128D01*
X33625Y13121D01*
X33665D01*
X33668D01*
X33672D01*
X33694D01*
X33723Y13128D01*
X33763Y13135D01*
X33807Y13150D01*
X33854Y13168D01*
X33901Y13197D01*
X33945Y13237D01*
X33949Y13241D01*
X33963Y13259D01*
X33981Y13284D01*
X34003Y13317D01*
X34021Y13361D01*
X34040Y13412D01*
X34054Y13470D01*
X34058Y13536D01*
Y13565D01*
X34051Y13598D01*
X34043Y13641D01*
X34029Y13689D01*
X34011Y13736D01*
X33981Y13787D01*
X33945Y13834D01*
X33941Y13838D01*
X33923Y13852D01*
X33898Y13874D01*
X33861Y13900D01*
X33814Y13925D01*
X33756Y13951D01*
X33687Y13972D01*
X33606Y13987D01*
X33661Y14296D01*
X33665D01*
X33676Y14293D01*
X33690Y14289D01*
X33712Y14286D01*
X33737Y14278D01*
X33767Y14267D01*
X33836Y14245D01*
X33916Y14209D01*
X33996Y14165D01*
X34072Y14111D01*
X34142Y14042D01*
X34145Y14038D01*
X34149Y14031D01*
X34156Y14020D01*
X34167Y14005D01*
X34182Y13987D01*
X34196Y13961D01*
X34211Y13936D01*
X34229Y13903D01*
X34258Y13830D01*
X34287Y13747D01*
X34305Y13648D01*
X34313Y13598D01*
Y13507D01*
X34309Y13466D01*
X34302Y13419D01*
X34291Y13361D01*
X34273Y13295D01*
X34251Y13230D01*
X34222Y13164D01*
Y13161D01*
X34218Y13157D01*
X34207Y13135D01*
X34185Y13102D01*
X34160Y13066D01*
X34123Y13022D01*
X34083Y12979D01*
X34036Y12935D01*
X33981Y12899D01*
X33974Y12895D01*
X33956Y12884D01*
X33923Y12869D01*
X33883Y12851D01*
X33836Y12833D01*
X33781Y12819D01*
X33719Y12808D01*
X33658Y12804D01*
X33650D01*
X33628D01*
X33599Y12808D01*
X33559Y12815D01*
X33512Y12826D01*
X33461Y12844D01*
X33410Y12866D01*
X33359Y12895D01*
X33352Y12899D01*
X33337Y12910D01*
X33312Y12931D01*
X33283Y12960D01*
X33250Y12997D01*
X33213Y13041D01*
X33181Y13092D01*
X33148Y13153D01*
Y13150D01*
X33144Y13142D01*
X33141Y13132D01*
X33137Y13117D01*
X33122Y13077D01*
X33101Y13026D01*
X33071Y12968D01*
X33035Y12910D01*
X32988Y12855D01*
X32933Y12804D01*
X32926Y12800D01*
X32904Y12786D01*
X32868Y12764D01*
X32820Y12742D01*
X32762Y12720D01*
X32693Y12698D01*
X32613Y12684D01*
X32525Y12680D01*
X32522D01*
X32511D01*
X32493D01*
X32471Y12684D01*
X32442Y12687D01*
X32409Y12695D01*
X32373Y12702D01*
X32333Y12709D01*
X32245Y12739D01*
X32198Y12760D01*
X32154Y12782D01*
X32107Y12811D01*
X32059Y12844D01*
X32012Y12880D01*
X31969Y12924D01*
X31965Y12928D01*
X31958Y12935D01*
X31947Y12950D01*
X31932Y12968D01*
X31914Y12990D01*
X31896Y13019D01*
X31874Y13051D01*
X31856Y13092D01*
X31834Y13132D01*
X31812Y13179D01*
X31794Y13226D01*
X31776Y13281D01*
X31761Y13339D01*
X31750Y13401D01*
X31743Y13463D01*
X31739Y13532D01*
Y13565D01*
X31743Y13587D01*
X31747Y13616D01*
X31750Y13648D01*
X31757Y13685D01*
X31765Y13725D01*
X31787Y13812D01*
X31823Y13903D01*
X31845Y13951D01*
X31870Y13994D01*
X31903Y14038D01*
X31936Y14082D01*
X31939Y14085D01*
X31947Y14093D01*
X31958Y14104D01*
X31972Y14114D01*
X31990Y14133D01*
X32016Y14151D01*
X32041Y14173D01*
X32074Y14195D01*
X32111Y14216D01*
X32147Y14238D01*
X32234Y14278D01*
X32336Y14311D01*
X32391Y14322D01*
X32449Y14329D01*
X32489Y14020D01*
D02*
G37*
%LPC*%
G36*
X34021Y18366D02*
X33188D01*
Y17616D01*
X33192Y17572D01*
X33195Y17521D01*
X33199Y17463D01*
X33206Y17405D01*
X33217Y17347D01*
X33232Y17296D01*
X33235Y17289D01*
X33242Y17274D01*
X33253Y17252D01*
X33268Y17223D01*
X33290Y17190D01*
X33315Y17157D01*
X33348Y17125D01*
X33384Y17099D01*
X33388Y17096D01*
X33403Y17088D01*
X33424Y17077D01*
X33454Y17063D01*
X33486Y17052D01*
X33523Y17041D01*
X33566Y17034D01*
X33610Y17030D01*
X33614D01*
X33617D01*
X33639Y17034D01*
X33672Y17037D01*
X33716Y17045D01*
X33759Y17063D01*
X33810Y17085D01*
X33858Y17117D01*
X33905Y17161D01*
X33909Y17168D01*
X33923Y17187D01*
X33941Y17216D01*
X33963Y17263D01*
X33985Y17318D01*
X34003Y17390D01*
X34018Y17474D01*
X34021Y17572D01*
Y18366D01*
D02*
G37*
%LPD*%
D11*
X30763Y22190D02*
X34198D01*
X30763Y15212D02*
Y22190D01*
Y15212D02*
X34198D01*
Y22190D01*
D13*
X112599Y110236D02*
G03*
X110236Y112599I-2362J0D01*
G01*
X112599Y110236D02*
G03*
X110236Y112599I-2362J0D01*
G01*
Y-2362D02*
G03*
X112599Y0I0J2362D01*
G01*
X110236Y-2362D02*
G03*
X112599Y0I0J2362D01*
G01*
X0Y112599D02*
G03*
X-2362Y110236I0J-2362D01*
G01*
X0Y112599D02*
G03*
X-2362Y110236I0J-2362D01*
G01*
Y0D02*
G03*
X0Y-2362I2362J0D01*
G01*
X-2362Y0D02*
G03*
X0Y-2362I2362J0D01*
G01*
X112599Y0D02*
Y110236D01*
X0Y112599D02*
X110236D01*
X0Y-2362D02*
X110236D01*
X-2362Y0D02*
Y110236D01*
M02*
