G04*
G04 #@! TF.GenerationSoftware,Altium Limited,Altium Designer,22.2.1 (43)*
G04*
G04 Layer_Color=65535*
%FSLAX25Y25*%
%MOIN*%
G70*
G04*
G04 #@! TF.SameCoordinates,A0B6180B-CB23-4C68-ABD7-9AFF8C43F20D*
G04*
G04*
G04 #@! TF.FilePolarity,Positive*
G04*
G01*
G75*
%ADD10C,0.00984*%
%ADD11C,0.00787*%
%ADD12C,0.01000*%
%ADD13C,0.04724*%
D10*
X7592Y87500D02*
G03*
X7592Y87500I-492J0D01*
G01*
X69685Y72342D02*
G03*
X69685Y72342I-492J0D01*
G01*
D11*
X46752Y19291D02*
Y20079D01*
X41831Y19291D02*
Y20079D01*
X35182Y15802D02*
Y21599D01*
X29779Y15802D02*
Y21599D01*
X7045Y90972D02*
Y101209D01*
X10785D01*
X25155Y90972D02*
Y101209D01*
X21415D02*
X25155D01*
X80450Y67722D02*
Y70478D01*
X86750Y67722D02*
Y70478D01*
X67126Y69783D02*
X69783D01*
Y67126D02*
Y69783D01*
Y48327D02*
Y50984D01*
X67126Y48327D02*
X69783D01*
X48327D02*
X50984D01*
X48327D02*
Y50984D01*
Y69783D02*
X50984D01*
X48327Y67126D02*
Y69783D01*
D12*
X48605Y10780D02*
Y16779D01*
X51604D01*
X52604Y15779D01*
Y13780D01*
X51604Y12780D01*
X48605D01*
X50604D02*
X52604Y10780D01*
X54603D02*
X56602D01*
X55603D01*
Y16779D01*
X54603Y15779D01*
X62600Y10780D02*
Y16779D01*
X59601Y13780D01*
X63600D01*
X24983Y7828D02*
Y13826D01*
X27982D01*
X28982Y12826D01*
Y10827D01*
X27982Y9827D01*
X24983D01*
X26982D02*
X28982Y7828D01*
X30981D02*
X32980D01*
X31980D01*
Y13826D01*
X30981Y12826D01*
X35979D02*
X36979Y13826D01*
X38978D01*
X39978Y12826D01*
Y11826D01*
X38978Y10827D01*
X37979D01*
X38978D01*
X39978Y9827D01*
Y8827D01*
X38978Y7828D01*
X36979D01*
X35979Y8827D01*
X20592Y108314D02*
Y103316D01*
X21592Y102316D01*
X23591D01*
X24591Y103316D01*
Y108314D01*
X30589Y102316D02*
X26590D01*
X30589Y106315D01*
Y107314D01*
X29589Y108314D01*
X27590D01*
X26590Y107314D01*
X55056Y78786D02*
Y73788D01*
X56056Y72788D01*
X58055D01*
X59055Y73788D01*
Y78786D01*
X61054Y72788D02*
X63054D01*
X62054D01*
Y78786D01*
X61054Y77787D01*
X16655Y72788D02*
Y78786D01*
X19654D01*
X20654Y77787D01*
Y75787D01*
X19654Y74788D01*
X16655D01*
X18654D02*
X20654Y72788D01*
X22653Y77787D02*
X23653Y78786D01*
X25652D01*
X26652Y77787D01*
Y76787D01*
X25652Y75787D01*
X26652Y74788D01*
Y73788D01*
X25652Y72788D01*
X23653D01*
X22653Y73788D01*
Y74788D01*
X23653Y75787D01*
X22653Y76787D01*
Y77787D01*
X23653Y75787D02*
X25652D01*
X68821Y73773D02*
Y79771D01*
X71820D01*
X72819Y78771D01*
Y76772D01*
X71820Y75772D01*
X68821D01*
X70820D02*
X72819Y73773D01*
X78817Y79771D02*
X76818Y78771D01*
X74819Y76772D01*
Y74772D01*
X75818Y73773D01*
X77818D01*
X78817Y74772D01*
Y75772D01*
X77818Y76772D01*
X74819D01*
X75710Y19639D02*
Y25637D01*
X78709D01*
X79709Y24637D01*
Y22638D01*
X78709Y21638D01*
X75710D01*
X77710D02*
X79709Y19639D01*
X85707Y25637D02*
X81708D01*
Y22638D01*
X83708Y23638D01*
X84707D01*
X85707Y22638D01*
Y20639D01*
X84707Y19639D01*
X82708D01*
X81708Y20639D01*
X59962Y19639D02*
Y25637D01*
X62961D01*
X63961Y24637D01*
Y22638D01*
X62961Y21638D01*
X59962D01*
X61962D02*
X63961Y19639D01*
X68959D02*
Y25637D01*
X65960Y22638D01*
X69959D01*
X88506Y53103D02*
Y59101D01*
X91505D01*
X92504Y58102D01*
Y56102D01*
X91505Y55103D01*
X88506D01*
X90505D02*
X92504Y53103D01*
X98502D02*
X94504D01*
X98502Y57102D01*
Y58102D01*
X97503Y59101D01*
X95503D01*
X94504Y58102D01*
X86553Y30465D02*
Y36464D01*
X89552D01*
X90551Y35464D01*
Y33465D01*
X89552Y32465D01*
X86553D01*
X88552D02*
X90551Y30465D01*
X92550D02*
X94550D01*
X93550D01*
Y36464D01*
X92550Y35464D01*
X36402Y79755D02*
X35402Y80755D01*
X33403D01*
X32403Y79755D01*
Y75757D01*
X33403Y74757D01*
X35402D01*
X36402Y75757D01*
X38401Y79755D02*
X39401Y80755D01*
X41400D01*
X42400Y79755D01*
Y78756D01*
X41400Y77756D01*
X42400Y76756D01*
Y75757D01*
X41400Y74757D01*
X39401D01*
X38401Y75757D01*
Y76756D01*
X39401Y77756D01*
X38401Y78756D01*
Y79755D01*
X39401Y77756D02*
X41400D01*
X60700Y92899D02*
X59701Y93899D01*
X57701D01*
X56702Y92899D01*
Y88901D01*
X57701Y87901D01*
X59701D01*
X60700Y88901D01*
X66698Y93899D02*
X64699Y92899D01*
X62700Y90900D01*
Y88901D01*
X63699Y87901D01*
X65699D01*
X66698Y88901D01*
Y89900D01*
X65699Y90900D01*
X62700D01*
X30496Y35464D02*
X29497Y36464D01*
X27497D01*
X26498Y35464D01*
Y31465D01*
X27497Y30465D01*
X29497D01*
X30496Y31465D01*
X36494Y36464D02*
X32496D01*
Y33465D01*
X34495Y34464D01*
X35495D01*
X36494Y33465D01*
Y31465D01*
X35495Y30465D01*
X33495D01*
X32496Y31465D01*
X38370Y87629D02*
X37371Y88629D01*
X35371D01*
X34372Y87629D01*
Y83631D01*
X35371Y82631D01*
X37371D01*
X38370Y83631D01*
X43369Y82631D02*
Y88629D01*
X40370Y85630D01*
X44368D01*
X23658Y53919D02*
X22658Y54919D01*
X20659D01*
X19659Y53919D01*
Y49921D01*
X20659Y48921D01*
X22658D01*
X23658Y49921D01*
X25657Y53919D02*
X26657Y54919D01*
X28656D01*
X29656Y53919D01*
Y52920D01*
X28656Y51920D01*
X27656D01*
X28656D01*
X29656Y50920D01*
Y49921D01*
X28656Y48921D01*
X26657D01*
X25657Y49921D01*
X92504Y75818D02*
X91505Y76818D01*
X89505D01*
X88506Y75818D01*
Y71820D01*
X89505Y70820D01*
X91505D01*
X92504Y71820D01*
X98502Y70820D02*
X94504D01*
X98502Y74819D01*
Y75818D01*
X97503Y76818D01*
X95503D01*
X94504Y75818D01*
D13*
X112599Y110236D02*
G03*
X110236Y112599I-2362J0D01*
G01*
X112599Y110236D02*
G03*
X110236Y112599I-2362J0D01*
G01*
Y-2362D02*
G03*
X112599Y0I0J2362D01*
G01*
X110236Y-2362D02*
G03*
X112599Y0I0J2362D01*
G01*
X0Y112599D02*
G03*
X-2362Y110236I0J-2362D01*
G01*
X0Y112599D02*
G03*
X-2362Y110236I0J-2362D01*
G01*
Y0D02*
G03*
X0Y-2362I2362J0D01*
G01*
X-2362Y0D02*
G03*
X0Y-2362I2362J0D01*
G01*
X112599Y0D02*
Y110236D01*
X0Y112599D02*
X110236D01*
X0Y-2362D02*
X110236D01*
X-2362Y0D02*
Y110236D01*
M02*
