G04*
G04 #@! TF.GenerationSoftware,Altium Limited,Altium Designer,22.2.1 (43)*
G04*
G04 Layer_Physical_Order=1*
G04 Layer_Color=255*
%FSLAX25Y25*%
%MOIN*%
G70*
G04*
G04 #@! TF.SameCoordinates,A0B6180B-CB23-4C68-ABD7-9AFF8C43F20D*
G04*
G04*
G04 #@! TF.FilePolarity,Positive*
G04*
G01*
G75*
%ADD12C,0.01000*%
%ADD13C,0.04724*%
%ADD14R,0.04724X0.06299*%
%ADD15O,0.04528X0.01181*%
%ADD16R,0.01772X0.01968*%
%ADD17R,0.05709X0.04724*%
%ADD18R,0.02254X0.02237*%
%ADD19R,0.03740X0.03150*%
%ADD20R,0.02559X0.02559*%
%ADD21R,0.06299X0.04724*%
%ADD22R,0.02362X0.06299*%
%ADD23R,0.02756X0.05906*%
G04:AMPARAMS|DCode=24|XSize=70.87mil|YSize=51.18mil|CornerRadius=5.12mil|HoleSize=0mil|Usage=FLASHONLY|Rotation=180.000|XOffset=0mil|YOffset=0mil|HoleType=Round|Shape=RoundedRectangle|*
%AMROUNDEDRECTD24*
21,1,0.07087,0.04095,0,0,180.0*
21,1,0.06063,0.05118,0,0,180.0*
1,1,0.01024,-0.03032,0.02047*
1,1,0.01024,0.03032,0.02047*
1,1,0.01024,0.03032,-0.02047*
1,1,0.01024,-0.03032,-0.02047*
%
%ADD24ROUNDEDRECTD24*%
%ADD25R,0.04331X0.05315*%
%ADD26R,0.03937X0.02362*%
%ADD27R,0.02362X0.03937*%
%ADD28O,0.01181X0.04528*%
%ADD29R,0.12402X0.12402*%
%ADD30R,0.05118X0.03543*%
%ADD52C,0.09937*%
%ADD53O,0.04819X0.06000*%
%ADD54O,0.04882X0.06000*%
G04:AMPARAMS|DCode=55|XSize=99.37mil|YSize=60mil|CornerRadius=15mil|HoleSize=0mil|Usage=FLASHONLY|Rotation=0.000|XOffset=0mil|YOffset=0mil|HoleType=Round|Shape=RoundedRectangle|*
%AMROUNDEDRECTD55*
21,1,0.09937,0.03000,0,0,0.0*
21,1,0.06937,0.06000,0,0,0.0*
1,1,0.03000,0.03469,-0.01500*
1,1,0.03000,-0.03469,-0.01500*
1,1,0.03000,-0.03469,0.01500*
1,1,0.03000,0.03469,0.01500*
%
%ADD55ROUNDEDRECTD55*%
%ADD56C,0.05000*%
%ADD57C,0.11811*%
%ADD58C,0.02165*%
G36*
X110236Y52083D02*
X109736Y51876D01*
X103620Y57992D01*
Y58692D01*
X103504Y59277D01*
X103382Y59459D01*
X103632Y59985D01*
X104236Y60064D01*
X105066Y60408D01*
X105778Y60954D01*
X106325Y61666D01*
X106668Y62496D01*
X106785Y63386D01*
Y64567D01*
X106668Y65457D01*
X106325Y66286D01*
X105778Y66999D01*
X105066Y67545D01*
X104236Y67889D01*
X103346Y68006D01*
X102456Y67889D01*
X102216Y67789D01*
X101840Y68119D01*
X101925Y68437D01*
Y69358D01*
X101687Y70249D01*
X101281Y70952D01*
X101430Y71241D01*
X101584Y71388D01*
X101862Y71314D01*
Y74303D01*
X98873D01*
X99101Y73452D01*
X99507Y72749D01*
X99357Y72460D01*
X99203Y72313D01*
X98886Y72398D01*
X97964D01*
X97074Y72159D01*
X96276Y71698D01*
X95625Y71047D01*
X95164Y70249D01*
X94925Y69358D01*
Y68437D01*
X95164Y67547D01*
X95625Y66749D01*
X96276Y66097D01*
X96896Y65739D01*
Y62358D01*
X97012Y61772D01*
X97344Y61276D01*
X99087Y59533D01*
X98896Y59071D01*
X97228D01*
Y56602D01*
X99409D01*
Y55602D01*
X97228D01*
Y55194D01*
X96766Y55003D01*
X92375Y59394D01*
X92438Y59987D01*
X92792Y60192D01*
X93444Y60843D01*
X93905Y61641D01*
X94143Y62531D01*
Y63453D01*
X93905Y64343D01*
X93444Y65141D01*
X92792Y65793D01*
X91994Y66254D01*
X91104Y66492D01*
X90183D01*
X89292Y66254D01*
X88635Y65874D01*
X88210Y65997D01*
X88083Y66088D01*
X88056Y66225D01*
X87722Y66725D01*
X87221Y67059D01*
X86632Y67177D01*
X84100D01*
Y63588D01*
X83100D01*
Y67177D01*
X80749D01*
X80524Y67658D01*
X82150Y69285D01*
X82481Y69781D01*
X82598Y70366D01*
Y71023D01*
X86632D01*
X87221Y71140D01*
X87722Y71475D01*
X88056Y71975D01*
X88173Y72565D01*
Y76659D01*
X88056Y77249D01*
X87722Y77749D01*
X87221Y78083D01*
X86632Y78201D01*
X85129D01*
Y93565D01*
X85013Y94151D01*
X84681Y94647D01*
X79822Y99507D01*
X79325Y99838D01*
X78740Y99955D01*
X67913D01*
X67328Y99838D01*
X66832Y99507D01*
X64538Y97213D01*
X42868D01*
Y98550D01*
X43080Y98592D01*
X44166Y99042D01*
X45143Y99695D01*
X45975Y100526D01*
X46628Y101504D01*
X47078Y102590D01*
X47307Y103743D01*
Y104919D01*
X47078Y106072D01*
X46628Y107158D01*
X45975Y108135D01*
X45143Y108967D01*
X44166Y109620D01*
X43885Y109736D01*
X43985Y110236D01*
X55425D01*
X55524Y109736D01*
X55244Y109620D01*
X54266Y108967D01*
X53435Y108135D01*
X52782Y107158D01*
X52332Y106072D01*
X52102Y104919D01*
Y104831D01*
X64039D01*
Y104919D01*
X63810Y106072D01*
X63360Y107158D01*
X62707Y108135D01*
X61875Y108967D01*
X60898Y109620D01*
X60617Y109736D01*
X60717Y110236D01*
X110236D01*
Y52083D01*
D02*
G37*
G36*
X38792Y109736D02*
X38511Y109620D01*
X37534Y108967D01*
X36703Y108135D01*
X36049Y107158D01*
X35599Y106072D01*
X35370Y104919D01*
Y103743D01*
X35599Y102590D01*
X36049Y101504D01*
X36703Y100526D01*
X37534Y99695D01*
X38511Y99042D01*
X39598Y98592D01*
X39809Y98550D01*
Y97213D01*
X28685D01*
X28099Y97096D01*
X27603Y96765D01*
X23992Y93154D01*
X20997D01*
X20730Y93654D01*
X20782Y93732D01*
X20860Y94122D01*
Y102784D01*
X20782Y103174D01*
X20561Y103504D01*
X18199Y105867D01*
X17868Y106088D01*
X17478Y106165D01*
X14722D01*
X14332Y106088D01*
X14001Y105867D01*
X11639Y103504D01*
X11418Y103174D01*
X11340Y102784D01*
Y94122D01*
X11418Y93732D01*
X11470Y93654D01*
X11203Y93154D01*
X8014D01*
Y84854D01*
X8771D01*
Y80182D01*
X8887Y79597D01*
X9219Y79100D01*
X14485Y73834D01*
X14254Y73407D01*
X14230Y73382D01*
X13319D01*
X12429Y73143D01*
X11631Y72682D01*
X11503Y72695D01*
X11176Y73184D01*
X10350Y73737D01*
X9374Y73931D01*
X2437D01*
X1462Y73737D01*
X635Y73184D01*
X500Y72983D01*
X0Y73134D01*
Y110236D01*
X38693D01*
X38792Y109736D01*
D02*
G37*
G36*
X81345Y93657D02*
X74111Y86422D01*
X73649Y86614D01*
Y88450D01*
X68399D01*
X68367Y88544D01*
X68368Y88553D01*
X68398Y88591D01*
Y92020D01*
X65408D01*
X65583Y91368D01*
X65343Y91128D01*
X65011Y90632D01*
X64966Y90406D01*
X64436Y90300D01*
X64381Y90381D01*
X61581Y93181D01*
X61085Y93513D01*
X60500Y93629D01*
X49300D01*
X48715Y93513D01*
X48219Y93181D01*
X45705Y90668D01*
X45374Y90172D01*
X45257Y89587D01*
Y88850D01*
X43424D01*
Y81329D01*
X38147D01*
X35976Y83501D01*
Y88850D01*
X29251D01*
Y82322D01*
X28751Y82044D01*
X28059Y82230D01*
Y79240D01*
X31049D01*
X30831Y80050D01*
X30842Y80181D01*
X31055Y80550D01*
X34600D01*
X36432Y78719D01*
X36928Y78387D01*
X37513Y78271D01*
X50400D01*
X50985Y78387D01*
X51481Y78719D01*
X51813Y79215D01*
X51929Y79800D01*
Y86466D01*
X52289Y86826D01*
X52751Y86635D01*
Y80150D01*
X53589D01*
Y72106D01*
X53202Y71789D01*
X53150Y71799D01*
X52529Y71675D01*
X52003Y71324D01*
X51651Y70798D01*
X51528Y70177D01*
Y67043D01*
X51367Y66744D01*
X51068Y66582D01*
X48881D01*
X43881Y71581D01*
X43621Y71755D01*
Y74158D01*
X35444D01*
Y70500D01*
X34944D01*
Y70000D01*
X31779D01*
Y66843D01*
X31779Y66843D01*
X31779D01*
X31632Y66388D01*
X31130Y66254D01*
X30331Y65793D01*
X29680Y65141D01*
X29594Y64993D01*
X29067Y65080D01*
X29035Y65240D01*
X28703Y65736D01*
X26222Y68217D01*
X26389Y68621D01*
X26389D01*
Y73180D01*
X19465D01*
X11829Y80815D01*
Y84854D01*
X12376D01*
Y92011D01*
X12838Y92202D01*
X13722Y91318D01*
Y89307D01*
X16100D01*
X18478D01*
Y91318D01*
X19363Y92203D01*
X19825Y92011D01*
Y84854D01*
X24187D01*
Y89022D01*
X29318Y94154D01*
X64234D01*
X64375Y94060D01*
X64375Y94060D01*
X64375Y94059D01*
X64677Y93999D01*
X64960Y93943D01*
X64960Y93943D01*
X64961Y93943D01*
X65148Y93980D01*
X65407Y93784D01*
X65550Y93550D01*
X65408Y93020D01*
X68398D01*
Y96009D01*
X68356Y95998D01*
X68097Y96446D01*
X68547Y96896D01*
X78107D01*
X81345Y93657D01*
D02*
G37*
G36*
X19840Y102784D02*
Y94122D01*
X17478Y91760D01*
X14722D01*
X12360Y94122D01*
Y102784D01*
X14722Y105146D01*
X17478D01*
X19840Y102784D01*
D02*
G37*
G36*
X82071Y89403D02*
Y78201D01*
X80568D01*
X79979Y78083D01*
X79479Y77749D01*
X79144Y77249D01*
X79027Y76659D01*
Y72565D01*
X79144Y71975D01*
X79479Y71475D01*
X79479Y71474D01*
X79509Y70969D01*
X77779Y69239D01*
X77317Y69431D01*
Y73819D01*
X77200Y74404D01*
X77200Y74404D01*
X77200Y74404D01*
X76869Y74901D01*
X75635Y76134D01*
X75635Y76591D01*
X76096Y77389D01*
X76335Y78279D01*
Y79201D01*
X76096Y80091D01*
X75635Y80889D01*
X74984Y81541D01*
X74186Y82002D01*
X73649Y82146D01*
Y82771D01*
X74151D01*
X74736Y82887D01*
X75233Y83219D01*
X81609Y89595D01*
X82071Y89403D01*
D02*
G37*
G36*
X17893Y70106D02*
Y68621D01*
X18052D01*
Y59158D01*
X18169Y58573D01*
X18500Y58077D01*
X19866Y56712D01*
X19674Y56250D01*
X18513D01*
Y52600D01*
X21376D01*
Y54548D01*
X21837Y54740D01*
X24657Y51920D01*
X24119Y51381D01*
X23787Y50885D01*
X23671Y50300D01*
Y48434D01*
X20619Y45381D01*
X20287Y44885D01*
X20171Y44300D01*
Y42849D01*
X17550D01*
Y36125D01*
X25850D01*
Y42849D01*
X23229D01*
Y43666D01*
X26281Y46719D01*
X26613Y47215D01*
X26729Y47800D01*
Y49667D01*
X27134Y50071D01*
X28824D01*
Y47950D01*
X31171D01*
Y40700D01*
X31287Y40115D01*
X31619Y39619D01*
X42762Y28475D01*
Y26984D01*
X40437D01*
Y20260D01*
X48146D01*
Y26984D01*
X45821D01*
Y29109D01*
X45704Y29694D01*
X45373Y30190D01*
X34229Y41333D01*
Y47950D01*
X35549D01*
Y51620D01*
X39271D01*
Y50670D01*
X39151Y50601D01*
X38499Y49949D01*
X38039Y49151D01*
X37800Y48261D01*
Y47339D01*
X38039Y46449D01*
X38499Y45651D01*
X39151Y44999D01*
X39949Y44539D01*
X40839Y44300D01*
X41401D01*
X41787Y43811D01*
X41786Y43807D01*
X48765D01*
X48537Y44658D01*
X48076Y45456D01*
X47425Y46108D01*
X46626Y46569D01*
X45736Y46807D01*
X45175D01*
X44788Y47296D01*
X44800Y47339D01*
Y48261D01*
X44561Y49151D01*
X44101Y49949D01*
X43449Y50601D01*
X42651Y51061D01*
X42432Y51120D01*
X42498Y51620D01*
X47469D01*
X47933Y51528D01*
X49065D01*
X51528Y49065D01*
Y47933D01*
X51651Y47313D01*
X52003Y46786D01*
X52529Y46435D01*
X53150Y46312D01*
X53202Y46322D01*
X53589Y46005D01*
Y44925D01*
X51349Y42685D01*
X50658Y42870D01*
X49736D01*
X49255Y42741D01*
X49210Y42751D01*
X49146Y42807D01*
X45776D01*
Y39818D01*
X46217Y39936D01*
X46263Y39926D01*
X46697Y39547D01*
Y38909D01*
X46935Y38019D01*
X47396Y37221D01*
X48048Y36569D01*
X48846Y36108D01*
X49736Y35870D01*
X50658D01*
X51548Y36108D01*
X52346Y36569D01*
X52997Y37221D01*
X53458Y38019D01*
X53697Y38909D01*
Y39831D01*
X53512Y40522D01*
X55095Y42106D01*
X55557Y41914D01*
Y27870D01*
X54216D01*
Y23055D01*
X54216Y22720D01*
X54216Y22220D01*
Y20480D01*
X59957D01*
Y22220D01*
X59957Y22555D01*
X59957Y23055D01*
Y27870D01*
X58616D01*
Y36550D01*
X59003Y36867D01*
X59055Y36856D01*
X59641Y36973D01*
X60137Y37304D01*
X60468Y37800D01*
X60585Y38386D01*
Y38961D01*
X61046Y39153D01*
X64863Y35336D01*
X65359Y35004D01*
X65945Y34888D01*
X69541D01*
X69675Y34388D01*
X69351Y34201D01*
X68699Y33549D01*
X68239Y32751D01*
X68000Y31861D01*
Y30939D01*
X68239Y30049D01*
X68699Y29251D01*
X69327Y28623D01*
X69320Y28515D01*
X69176Y28123D01*
X68041D01*
Y22580D01*
X75159D01*
Y28123D01*
X73824D01*
X73680Y28515D01*
X73673Y28623D01*
X74301Y29251D01*
X74761Y30049D01*
X75000Y30939D01*
Y31861D01*
X74761Y32751D01*
X74301Y33549D01*
X73649Y34201D01*
X73325Y34388D01*
X73459Y34888D01*
X89918D01*
X93407Y31399D01*
X93903Y31067D01*
X94488Y30951D01*
X96827D01*
X97016Y30989D01*
X97263Y30528D01*
X84012Y17277D01*
X75159D01*
Y18749D01*
X71600D01*
X68041D01*
Y17277D01*
X60404D01*
X59957Y17406D01*
X59957Y17777D01*
Y19480D01*
X54216D01*
X54216Y17406D01*
X53770Y17277D01*
X48146D01*
Y19110D01*
X40437D01*
Y13415D01*
X37960D01*
X34607Y16768D01*
Y18362D01*
Y19981D01*
X32480D01*
X30353D01*
Y18362D01*
Y14802D01*
X32247D01*
X36320Y10730D01*
X36816Y10398D01*
X37402Y10282D01*
X37778Y10356D01*
X83736D01*
X84321Y10473D01*
X84818Y10804D01*
X109736Y35723D01*
X110236Y35516D01*
Y0D01*
X0D01*
Y30212D01*
X500Y30364D01*
X635Y30162D01*
X1462Y29610D01*
X2437Y29416D01*
X9374D01*
X10350Y29610D01*
X11176Y30162D01*
X11503Y30651D01*
X11631Y30664D01*
X12429Y30203D01*
X13319Y29965D01*
X14240D01*
X15131Y30203D01*
X15929Y30664D01*
X16580Y31316D01*
X17041Y32114D01*
X17280Y33004D01*
Y33925D01*
X17041Y34816D01*
X16580Y35614D01*
X15929Y36265D01*
X15131Y36726D01*
X14240Y36965D01*
X13319D01*
X12429Y36726D01*
X11631Y36265D01*
X11503Y36278D01*
X11176Y36767D01*
X10350Y37319D01*
X9374Y37514D01*
X2437D01*
X1462Y37319D01*
X635Y36767D01*
X500Y36565D01*
X0Y36717D01*
Y43007D01*
X500Y43159D01*
X635Y42957D01*
X1462Y42405D01*
X2437Y42211D01*
X9374D01*
X10350Y42405D01*
X11176Y42957D01*
X11503Y43447D01*
X11631Y43459D01*
X12429Y42998D01*
X13319Y42760D01*
X14240D01*
X15131Y42998D01*
X15929Y43459D01*
X16580Y44111D01*
X17041Y44909D01*
X17280Y45799D01*
Y46721D01*
X17084Y47450D01*
X17363Y47950D01*
X17513D01*
Y51600D01*
X14651D01*
Y50060D01*
X14254Y49756D01*
X14240Y49760D01*
X13319D01*
X12429Y49521D01*
X11631Y49060D01*
X11503Y49073D01*
X11176Y49562D01*
X10350Y50115D01*
X9374Y50309D01*
X2437D01*
X1462Y50115D01*
X635Y49562D01*
X500Y49361D01*
X0Y49512D01*
Y55803D01*
X500Y55954D01*
X635Y55753D01*
X1462Y55200D01*
X2437Y55006D01*
X9374D01*
X10350Y55200D01*
X11176Y55753D01*
X11503Y56242D01*
X11631Y56255D01*
X12429Y55794D01*
X13319Y55555D01*
X14240D01*
X14254Y55559D01*
X14651Y55255D01*
Y52600D01*
X17513D01*
Y56250D01*
X16631D01*
X16424Y56750D01*
X16580Y56906D01*
X17041Y57704D01*
X17280Y58594D01*
Y59516D01*
X17041Y60406D01*
X16580Y61204D01*
X15929Y61856D01*
X15131Y62317D01*
X14240Y62555D01*
X13319D01*
X12429Y62317D01*
X11631Y61856D01*
X11503Y61868D01*
X11176Y62358D01*
X10350Y62910D01*
X9374Y63104D01*
X2437D01*
X1462Y62910D01*
X635Y62358D01*
X500Y62156D01*
X0Y62308D01*
Y66629D01*
X500Y66781D01*
X635Y66579D01*
X1462Y66027D01*
X2437Y65833D01*
X9374D01*
X10350Y66027D01*
X11176Y66579D01*
X11503Y67069D01*
X11631Y67081D01*
X12429Y66620D01*
X13319Y66382D01*
X14240D01*
X15131Y66620D01*
X15929Y67081D01*
X16580Y67733D01*
X17041Y68531D01*
X17280Y69421D01*
Y69889D01*
X17780Y70173D01*
X17893Y70106D01*
D02*
G37*
G36*
X24122Y59503D02*
X24973Y59731D01*
X25771Y60192D01*
X26324Y60037D01*
X29612Y56750D01*
X29405Y56250D01*
X28824D01*
Y53129D01*
X27710D01*
X27581Y53322D01*
X21414Y59489D01*
X21443Y59632D01*
X22003Y59886D01*
X22271Y59731D01*
X23122Y59503D01*
Y62992D01*
X24122D01*
Y59503D01*
D02*
G37*
G36*
X81756Y43181D02*
X81549Y42681D01*
X80532D01*
Y38319D01*
X80223Y37947D01*
X66578D01*
X66129Y38396D01*
X66388Y38844D01*
X66468Y38823D01*
X67390D01*
X68280Y39061D01*
X69078Y39522D01*
X69730Y40174D01*
X70191Y40972D01*
X70429Y41862D01*
Y42784D01*
X70191Y43674D01*
X69730Y44472D01*
X69078Y45123D01*
X68280Y45584D01*
X67390Y45823D01*
X66490D01*
Y47469D01*
X66582Y47933D01*
Y51068D01*
X66744Y51367D01*
X67043Y51528D01*
X70177D01*
X70798Y51651D01*
X71324Y52003D01*
X71675Y52529D01*
X71694Y52620D01*
X72172Y52765D01*
X81756Y43181D01*
D02*
G37*
G36*
X83661Y46699D02*
X87159D01*
X87687Y46171D01*
X88183Y45839D01*
X88769Y45723D01*
X88874D01*
X89031Y45136D01*
X89492Y44338D01*
X90144Y43686D01*
X90942Y43225D01*
X91832Y42987D01*
X92753D01*
X93644Y43225D01*
X94442Y43686D01*
X94507Y43752D01*
X94968Y43505D01*
X94941Y43370D01*
Y42537D01*
X94308Y42171D01*
X93656Y41519D01*
X93195Y40721D01*
X92957Y39831D01*
Y38909D01*
X93195Y38019D01*
X93656Y37221D01*
X94308Y36569D01*
X95106Y36108D01*
X95996Y35870D01*
X96917D01*
X97503Y36027D01*
X97762Y35579D01*
X96193Y34010D01*
X95122D01*
X91633Y37499D01*
X91136Y37830D01*
X90551Y37947D01*
X86777D01*
X86468Y38319D01*
Y42681D01*
X85029D01*
Y43600D01*
X84913Y44185D01*
X84581Y44682D01*
X82879Y46384D01*
X82933Y46501D01*
X83174Y46796D01*
X83661Y46699D01*
D02*
G37*
G36*
X83444Y13757D02*
X83103Y13415D01*
X48146D01*
Y14219D01*
X83253D01*
X83444Y13757D01*
D02*
G37*
%LPC*%
G36*
X64039Y103831D02*
X58571D01*
Y98362D01*
X58659D01*
X59812Y98592D01*
X60898Y99042D01*
X61875Y99695D01*
X62707Y100526D01*
X63360Y101504D01*
X63810Y102590D01*
X64039Y103743D01*
Y103831D01*
D02*
G37*
G36*
X57571D02*
X52102D01*
Y103743D01*
X52332Y102590D01*
X52782Y101504D01*
X53435Y100526D01*
X54266Y99695D01*
X55244Y99042D01*
X56330Y98592D01*
X57483Y98362D01*
X57571D01*
Y103831D01*
D02*
G37*
G36*
X102862Y78293D02*
Y75303D01*
X105852D01*
X105624Y76154D01*
X105163Y76952D01*
X104511Y77604D01*
X103713Y78065D01*
X102862Y78293D01*
D02*
G37*
G36*
X101862D02*
X101011Y78065D01*
X100213Y77604D01*
X99562Y76952D01*
X99101Y76154D01*
X98873Y75303D01*
X101862D01*
Y78293D01*
D02*
G37*
G36*
X105852Y74303D02*
X102862D01*
Y71314D01*
X103713Y71542D01*
X104511Y72003D01*
X105163Y72654D01*
X105624Y73452D01*
X105852Y74303D01*
D02*
G37*
G36*
X69398Y96009D02*
Y93020D01*
X72387D01*
X72159Y93871D01*
X71698Y94669D01*
X71047Y95320D01*
X70249Y95781D01*
X69398Y96009D01*
D02*
G37*
G36*
X72387Y92020D02*
X69398D01*
Y89030D01*
X70249Y89258D01*
X71047Y89719D01*
X71698Y90371D01*
X72159Y91169D01*
X72387Y92020D01*
D02*
G37*
G36*
X18478Y88307D02*
X16600D01*
Y84854D01*
X18478D01*
Y88307D01*
D02*
G37*
G36*
X15600D02*
X13722D01*
Y84854D01*
X15600D01*
Y88307D01*
D02*
G37*
G36*
X27059Y82230D02*
X26208Y82002D01*
X25410Y81541D01*
X24758Y80889D01*
X24297Y80091D01*
X24069Y79240D01*
X27059D01*
Y82230D01*
D02*
G37*
G36*
Y78240D02*
X24069D01*
X24297Y77389D01*
X24758Y76591D01*
X25410Y75940D01*
X26208Y75479D01*
X27059Y75251D01*
Y78240D01*
D02*
G37*
G36*
X31049D02*
X28059D01*
Y75222D01*
X31779Y71502D01*
Y71000D01*
X34444D01*
Y74158D01*
X33450D01*
X30600Y77007D01*
X30821Y77389D01*
X31049Y78240D01*
D02*
G37*
G36*
X21376Y51600D02*
X18513D01*
Y47950D01*
X21376D01*
Y51600D01*
D02*
G37*
G36*
X44776Y42807D02*
X41786D01*
X42014Y41956D01*
X42475Y41158D01*
X43126Y40506D01*
X43925Y40045D01*
X44776Y39818D01*
Y42807D01*
D02*
G37*
G36*
X86468Y30870D02*
X84000D01*
Y29189D01*
X86468D01*
Y30870D01*
D02*
G37*
G36*
X83000D02*
X80532D01*
Y29189D01*
X83000D01*
Y30870D01*
D02*
G37*
G36*
X86468Y28189D02*
X84000D01*
Y26508D01*
X86468D01*
Y28189D01*
D02*
G37*
G36*
X83000D02*
X80532D01*
Y26508D01*
X83000D01*
Y28189D01*
D02*
G37*
G36*
X25850Y28676D02*
X22200D01*
Y25814D01*
X25850D01*
Y28676D01*
D02*
G37*
G36*
X21200D02*
X17550D01*
Y25814D01*
X21200D01*
Y28676D01*
D02*
G37*
G36*
X25850Y24814D02*
X22200D01*
Y21951D01*
X25850D01*
Y24814D01*
D02*
G37*
G36*
X21200D02*
X17550D01*
Y21951D01*
X21200D01*
Y24814D01*
D02*
G37*
G36*
X34607Y22599D02*
X32980D01*
Y20981D01*
X34607D01*
Y22599D01*
D02*
G37*
G36*
X31980D02*
X30353D01*
Y20981D01*
X31980D01*
Y22599D01*
D02*
G37*
G36*
X75159Y22021D02*
X72100D01*
Y19749D01*
X75159D01*
Y22021D01*
D02*
G37*
G36*
X71100D02*
X68041D01*
Y19749D01*
X71100D01*
Y22021D01*
D02*
G37*
G36*
X100090Y21669D02*
X99909D01*
Y15264D01*
X106315D01*
Y15444D01*
X106050Y16778D01*
X105529Y18035D01*
X104773Y19166D01*
X103811Y20128D01*
X102680Y20883D01*
X101424Y21404D01*
X100090Y21669D01*
D02*
G37*
G36*
X98909D02*
X98729D01*
X97395Y21404D01*
X96138Y20883D01*
X95007Y20128D01*
X94046Y19166D01*
X93290Y18035D01*
X92769Y16778D01*
X92504Y15444D01*
Y15264D01*
X98909D01*
Y21669D01*
D02*
G37*
G36*
X12491D02*
X12311D01*
Y15264D01*
X18717D01*
Y15444D01*
X18451Y16778D01*
X17931Y18035D01*
X17175Y19166D01*
X16213Y20128D01*
X15082Y20883D01*
X13825Y21404D01*
X12491Y21669D01*
D02*
G37*
G36*
X11311D02*
X11131D01*
X9797Y21404D01*
X8540Y20883D01*
X7409Y20128D01*
X6447Y19166D01*
X5691Y18035D01*
X5171Y16778D01*
X4905Y15444D01*
Y15264D01*
X11311D01*
Y21669D01*
D02*
G37*
G36*
X106315Y14264D02*
X99909D01*
Y7858D01*
X100090D01*
X101424Y8124D01*
X102680Y8644D01*
X103811Y9400D01*
X104773Y10362D01*
X105529Y11493D01*
X106050Y12750D01*
X106315Y14084D01*
Y14264D01*
D02*
G37*
G36*
X98909D02*
X92504D01*
Y14084D01*
X92769Y12750D01*
X93290Y11493D01*
X94046Y10362D01*
X95007Y9400D01*
X96138Y8644D01*
X97395Y8124D01*
X98729Y7858D01*
X98909D01*
Y14264D01*
D02*
G37*
G36*
X18717D02*
X12311D01*
Y7858D01*
X12491D01*
X13825Y8124D01*
X15082Y8644D01*
X16213Y9400D01*
X17175Y10362D01*
X17931Y11493D01*
X18451Y12750D01*
X18717Y14084D01*
Y14264D01*
D02*
G37*
G36*
X11311D02*
X4905D01*
Y14084D01*
X5171Y12750D01*
X5691Y11493D01*
X6447Y10362D01*
X7409Y9400D01*
X8540Y8644D01*
X9797Y8124D01*
X11131Y7858D01*
X11311D01*
Y14264D01*
D02*
G37*
%LPD*%
D12*
X40323Y55150D02*
X42323D01*
X38013Y57459D02*
X40323Y55150D01*
X98425Y62358D02*
Y68898D01*
Y62358D02*
X102091Y58692D01*
X32480Y16732D02*
Y16921D01*
Y16732D02*
X37402Y11811D01*
X37476Y11886D01*
X83736D01*
X108862Y37012D01*
Y50587D01*
X102091Y57358D02*
X108862Y50587D01*
X102091Y57358D02*
Y58692D01*
X42323Y55118D02*
X49606D01*
X31066Y57459D02*
X38013D01*
X32480Y62992D02*
X38013Y57459D01*
X24109Y68167D02*
X27622Y64654D01*
Y61335D02*
Y64654D01*
X27406Y61119D02*
X27622Y61335D01*
X27406Y61119D02*
X31066Y57459D01*
X24109Y68167D02*
Y70900D01*
X40354Y61302D02*
Y63976D01*
X90643Y58963D02*
Y62992D01*
Y58963D02*
X100394Y49213D01*
X44291Y15748D02*
X84646D01*
X106862Y37965D01*
Y46681D01*
X104331Y49213D02*
X106862Y46681D01*
X100394Y49213D02*
X104331D01*
X40354Y61302D02*
X44570Y57087D01*
X49606D01*
X40354Y62992D02*
Y63976D01*
X81068Y70366D02*
Y72554D01*
X70866Y65083D02*
X70957Y64992D01*
X77170D01*
X77756Y65578D01*
Y67054D01*
X81068Y70366D01*
X81349Y72835D02*
X82677D01*
X81068Y72554D02*
X81349Y72835D01*
X82677D02*
X83600Y73757D01*
Y74612D01*
Y93565D01*
X83151Y94014D02*
X83600Y93565D01*
X74151Y84300D02*
X83151Y93300D01*
X70287Y84300D02*
X74151D01*
X67913Y98425D02*
X78740D01*
X64961Y95472D02*
X67913Y98425D01*
X78740D02*
X83151Y94014D01*
X41339Y95683D02*
X64750D01*
X28685D02*
X41339D01*
Y104331D01*
X22006Y89004D02*
X28685Y95683D01*
X64750D02*
X64961Y95472D01*
X83151Y93300D02*
Y94014D01*
X26500Y51600D02*
X32187D01*
X19582Y59158D02*
Y70900D01*
X10300Y80700D02*
Y88899D01*
Y80182D02*
Y80700D01*
X49606Y53150D02*
X53149Y49606D01*
X40800Y53150D02*
X49606D01*
X40800Y48300D02*
Y53150D01*
X33236D02*
X40800D01*
X32187Y52100D02*
X33236Y53150D01*
X32700Y40700D02*
X44291Y29109D01*
X32700Y40700D02*
Y51587D01*
X44291Y23622D02*
Y29109D01*
X19582Y59158D02*
X26500Y52240D01*
Y51600D02*
Y52240D01*
X40800Y48300D02*
X41300Y47800D01*
X71500Y31400D02*
X71600Y31300D01*
X10300Y80182D02*
X19582Y70900D01*
X10195Y89004D02*
X10300Y88899D01*
X25200Y47800D02*
Y50300D01*
X26500Y51600D01*
X21700Y44300D02*
X25200Y47800D01*
X21700Y39487D02*
Y44300D01*
X71600Y25351D02*
Y31300D01*
X53149Y49606D02*
X53150D01*
X50197Y39370D02*
X55118Y44291D01*
Y49606D01*
X57087Y25295D02*
Y49606D01*
X68504Y62992D02*
X75787D01*
X82677Y56102D01*
X87598D01*
X83500Y40500D02*
Y43600D01*
X71982Y55118D02*
X83500Y43600D01*
X68504Y55118D02*
X71982D01*
X40456Y70500D02*
X42800D01*
X48339Y64961D01*
X49606D01*
X55118Y68504D02*
Y83305D01*
X56113Y84300D01*
X59055Y73327D02*
X63976Y78248D01*
X59055Y68504D02*
Y73327D01*
X63976Y78248D02*
Y84646D01*
X63300Y85322D02*
X63976Y84646D01*
X63300Y85322D02*
Y89300D01*
X60500Y92100D02*
X63300Y89300D01*
X49300Y92100D02*
X60500D01*
X46787Y89587D02*
X49300Y92100D01*
X46787Y84700D02*
Y89587D01*
X57087Y68504D02*
Y74187D01*
X61300Y78400D02*
Y87200D01*
X57087Y74187D02*
X61300Y78400D01*
X59000Y89500D02*
X61300Y87200D01*
X37513Y79800D02*
X50400D01*
Y87100D01*
X52800Y89500D01*
X59000D01*
X32613Y84700D02*
X37513Y79800D01*
X59087Y38354D02*
Y38386D01*
Y38354D02*
X62008Y35433D01*
X59055Y38386D02*
Y49606D01*
X61024Y68504D02*
Y72342D01*
X66424Y78248D02*
Y90046D01*
X61024Y72342D02*
X66929Y78248D01*
X66424D02*
X66929D01*
X66424Y90046D02*
X68898Y92520D01*
X27559Y77885D02*
X34944Y70500D01*
X27559Y77885D02*
Y78740D01*
X71555Y19204D02*
X71600Y19249D01*
X62992Y70866D02*
X66929Y74803D01*
Y75295D01*
X62992Y68504D02*
Y70866D01*
X66319Y75295D02*
X66929D01*
X61024Y41339D02*
Y49606D01*
Y41339D02*
X65945Y36417D01*
X102362Y38016D02*
Y43307D01*
X96827Y32480D02*
X102362Y38016D01*
X94488Y32480D02*
X96827D01*
X90551Y36417D02*
X94488Y32480D01*
X65945Y36417D02*
X90551D01*
X64961Y68504D02*
X65044Y68420D01*
X69209Y67083D02*
X74957D01*
X75787Y67913D01*
X65044Y68420D02*
X67872D01*
X69209Y67083D01*
X75787Y67913D02*
Y73819D01*
X72835Y76772D02*
X75787Y73819D01*
X72835Y76772D02*
Y78740D01*
X5906Y33465D02*
X13780D01*
X96471Y43370D02*
X98425Y45325D01*
Y48228D01*
X94488Y52165D02*
X98425Y48228D01*
X82677Y52165D02*
X94488D01*
X96471Y39384D02*
Y43370D01*
X96457Y39370D02*
X96471Y39384D01*
X73819Y61024D02*
X82677Y52165D01*
X68504Y61024D02*
X73819D01*
X5906Y46260D02*
X13780D01*
X64961Y44291D02*
X66929Y42323D01*
X64961Y44291D02*
Y49606D01*
X5906Y59055D02*
X13780D01*
X74803Y57087D02*
X83661Y48228D01*
X87793D01*
X88769Y47252D02*
X91527D01*
X92293Y46487D01*
X87793Y48228D02*
X88769Y47252D01*
X68504Y57087D02*
X74803D01*
X5906Y69882D02*
X13780D01*
D13*
X112599Y110236D02*
G03*
X110236Y112599I-2362J0D01*
G01*
X112599Y110236D02*
G03*
X110236Y112599I-2362J0D01*
G01*
Y-2362D02*
G03*
X112599Y0I0J2362D01*
G01*
X110236Y-2362D02*
G03*
X112599Y0I0J2362D01*
G01*
X0Y112599D02*
G03*
X-2362Y110236I0J-2362D01*
G01*
X0Y112599D02*
G03*
X-2362Y110236I0J-2362D01*
G01*
Y0D02*
G03*
X0Y-2362I2362J0D01*
G01*
X-2362Y0D02*
G03*
X0Y-2362I2362J0D01*
G01*
X112599Y0D02*
Y110236D01*
X0Y112599D02*
X110236D01*
X0Y-2362D02*
X110236D01*
X-2362Y0D02*
Y110236D01*
D14*
X18013Y52100D02*
D03*
X32187D02*
D03*
X56113Y84300D02*
D03*
X70287D02*
D03*
X32613Y84700D02*
D03*
X46787D02*
D03*
D15*
X68504Y53150D02*
D03*
X49606Y64961D02*
D03*
Y62992D02*
D03*
Y61024D02*
D03*
Y59055D02*
D03*
Y57087D02*
D03*
Y55118D02*
D03*
Y53150D02*
D03*
X68504Y55118D02*
D03*
Y57087D02*
D03*
Y59055D02*
D03*
Y61024D02*
D03*
Y62992D02*
D03*
Y64961D02*
D03*
D16*
X66929Y75295D02*
D03*
Y78248D02*
D03*
D17*
X44291Y23622D02*
D03*
Y15748D02*
D03*
D18*
X32480Y16921D02*
D03*
Y20481D02*
D03*
D19*
X57087Y19980D02*
D03*
Y25295D02*
D03*
D20*
X24109Y70900D02*
D03*
X20172D02*
D03*
D21*
X21700Y25314D02*
D03*
Y39487D02*
D03*
D22*
X10195Y89004D02*
D03*
X22006D02*
D03*
D23*
X16100Y88807D02*
D03*
D24*
X83600Y63588D02*
D03*
Y74612D02*
D03*
D25*
X40456Y70500D02*
D03*
X34944D02*
D03*
D26*
X83500Y40500D02*
D03*
Y28689D02*
D03*
D27*
X87598Y56102D02*
D03*
X99409D02*
D03*
D28*
X64961Y68504D02*
D03*
X62992D02*
D03*
X61024D02*
D03*
X59055D02*
D03*
X57087D02*
D03*
X55118D02*
D03*
X53150D02*
D03*
Y49606D02*
D03*
X55118D02*
D03*
X57087D02*
D03*
X59055D02*
D03*
X61024D02*
D03*
X62992D02*
D03*
X64961D02*
D03*
D29*
X59055Y59055D02*
D03*
D30*
X71600Y19249D02*
D03*
Y25351D02*
D03*
D52*
X41339Y104331D02*
D03*
X58071D02*
D03*
D53*
X103346Y63976D02*
D03*
D54*
X102362Y43307D02*
D03*
D55*
X5906Y33465D02*
D03*
Y46260D02*
D03*
Y59055D02*
D03*
Y69882D02*
D03*
D56*
X98425Y68898D02*
D03*
X32480Y62992D02*
D03*
X90643D02*
D03*
X40354Y63976D02*
D03*
X41300Y47800D02*
D03*
X71500Y31400D02*
D03*
X50197Y39370D02*
D03*
X70866Y71083D02*
D03*
X68898Y92520D02*
D03*
X45276Y43307D02*
D03*
X102362Y74803D02*
D03*
X23622Y62992D02*
D03*
X27559Y78740D02*
D03*
X72835D02*
D03*
X13780Y33465D02*
D03*
X96457Y39370D02*
D03*
X13780Y46260D02*
D03*
X66929Y42323D02*
D03*
X13780Y59055D02*
D03*
X92293Y46487D02*
D03*
X13780Y69882D02*
D03*
D57*
X99409Y14764D02*
D03*
X11811D02*
D03*
D58*
X63386Y63386D02*
D03*
Y59055D02*
D03*
Y54724D02*
D03*
X59055Y63386D02*
D03*
Y59055D02*
D03*
Y54724D02*
D03*
X54724Y63386D02*
D03*
Y59055D02*
D03*
Y54724D02*
D03*
M02*
