G04*
G04 #@! TF.GenerationSoftware,Altium Limited,Altium Designer,22.6.1 (34)*
G04*
G04 Layer_Color=16711935*
%FSLAX44Y44*%
%MOMM*%
G71*
G04*
G04 #@! TF.SameCoordinates,4B676402-AEF7-43F9-94C9-A96E2D6DE339*
G04*
G04*
G04 #@! TF.FilePolarity,Negative*
G04*
G01*
G75*
%ADD13C,1.2000*%
%ADD49C,2.7272*%
%ADD50O,1.4272X1.7272*%
%ADD51O,1.4432X1.7272*%
G04:AMPARAMS|DCode=52|XSize=2.7272mm|YSize=1.7272mm|CornerRadius=0.4826mm|HoleSize=0mm|Usage=FLASHONLY|Rotation=0.000|XOffset=0mm|YOffset=0mm|HoleType=Round|Shape=RoundedRectangle|*
%AMROUNDEDRECTD52*
21,1,2.7272,0.7620,0,0,0.0*
21,1,1.7620,1.7272,0,0,0.0*
1,1,0.9652,0.8810,-0.3810*
1,1,0.9652,-0.8810,-0.3810*
1,1,0.9652,-0.8810,0.3810*
1,1,0.9652,0.8810,0.3810*
%
%ADD52ROUNDEDRECTD52*%
%ADD53C,4.2032*%
%ADD54C,1.4732*%
%ADD55C,1.0032*%
%ADD56C,0.7532*%
D13*
X286000Y280000D02*
G03*
X280000Y286000I-6000J0D01*
G01*
X286000Y280000D02*
G03*
X280000Y286000I-6000J0D01*
G01*
Y-6000D02*
G03*
X286000Y0I0J6000D01*
G01*
X280000Y-6000D02*
G03*
X286000Y0I0J6000D01*
G01*
X0Y286000D02*
G03*
X-6000Y280000I0J-6000D01*
G01*
X0Y286000D02*
G03*
X-6000Y280000I0J-6000D01*
G01*
Y0D02*
G03*
X0Y-6000I6000J0D01*
G01*
X-6000Y0D02*
G03*
X0Y-6000I6000J0D01*
G01*
X286000Y0D02*
Y280000D01*
X0Y286000D02*
X280000D01*
X0Y-6000D02*
X280000D01*
X-6000Y0D02*
Y280000D01*
D49*
X105000Y265000D02*
D03*
X147500D02*
D03*
D50*
X262500Y162500D02*
D03*
D51*
X260000Y110000D02*
D03*
D52*
X15000Y85000D02*
D03*
Y117500D02*
D03*
Y150000D02*
D03*
Y177500D02*
D03*
D53*
X252500Y252500D02*
D03*
X30000Y37500D02*
D03*
X252500D02*
D03*
D54*
X104902Y121412D02*
D03*
X230316Y122184D02*
D03*
X170000Y107500D02*
D03*
X245000Y100000D02*
D03*
X181610Y79756D02*
D03*
X230234Y161220D02*
D03*
X115000Y110000D02*
D03*
X250000Y175000D02*
D03*
X82500Y160000D02*
D03*
X102500Y162500D02*
D03*
X127500Y100000D02*
D03*
X180000Y180550D02*
D03*
X175000Y235000D02*
D03*
X260000Y190000D02*
D03*
X60000Y160000D02*
D03*
X70000Y200000D02*
D03*
X185000D02*
D03*
X35000Y85000D02*
D03*
Y117500D02*
D03*
Y150000D02*
D03*
Y177500D02*
D03*
D55*
X205000Y45000D02*
D03*
D56*
X161000Y161000D02*
D03*
Y150000D02*
D03*
Y139000D02*
D03*
X150000Y161000D02*
D03*
Y150000D02*
D03*
Y139000D02*
D03*
X139000Y161000D02*
D03*
Y150000D02*
D03*
Y139000D02*
D03*
M02*
