G04*
G04 #@! TF.GenerationSoftware,Altium Limited,Altium Designer,22.6.1 (34)*
G04*
G04 Layer_Color=8421504*
%FSLAX44Y44*%
%MOMM*%
G71*
G04*
G04 #@! TF.SameCoordinates,4B676402-AEF7-43F9-94C9-A96E2D6DE339*
G04*
G04*
G04 #@! TF.FilePolarity,Positive*
G04*
G01*
G75*
%ADD13C,1.2000*%
%ADD14R,0.8000X0.8000*%
%ADD15R,0.8000X0.8000*%
%ADD16R,0.6000X1.6000*%
%ADD17R,0.7000X1.5000*%
%ADD18R,1.2000X1.6000*%
%ADD19R,0.8000X0.9500*%
%ADD20R,0.9500X0.8000*%
%ADD21O,1.1500X0.3000*%
%ADD22R,0.4500X0.5000*%
%ADD23R,1.4500X1.2000*%
%ADD24R,0.5725X0.5682*%
%ADD25R,0.6500X0.6500*%
%ADD26R,1.6000X1.2000*%
G04:AMPARAMS|DCode=27|XSize=1.8mm|YSize=1.3mm|CornerRadius=0.13mm|HoleSize=0mm|Usage=FLASHONLY|Rotation=180.000|XOffset=0mm|YOffset=0mm|HoleType=Round|Shape=RoundedRectangle|*
%AMROUNDEDRECTD27*
21,1,1.8000,1.0400,0,0,180.0*
21,1,1.5400,1.3000,0,0,180.0*
1,1,0.2600,-0.7700,0.5200*
1,1,0.2600,0.7700,0.5200*
1,1,0.2600,0.7700,-0.5200*
1,1,0.2600,-0.7700,-0.5200*
%
%ADD27ROUNDEDRECTD27*%
%ADD28R,1.1000X1.3500*%
%ADD29O,0.3000X1.1500*%
%ADD30R,3.1500X3.1500*%
%ADD31R,1.3000X0.9000*%
D13*
X286000Y280000D02*
G03*
X280000Y286000I-6000J0D01*
G01*
X286000Y280000D02*
G03*
X280000Y286000I-6000J0D01*
G01*
Y-6000D02*
G03*
X286000Y0I0J6000D01*
G01*
X280000Y-6000D02*
G03*
X286000Y0I0J6000D01*
G01*
X0Y286000D02*
G03*
X-6000Y280000I0J-6000D01*
G01*
X0Y286000D02*
G03*
X-6000Y280000I0J-6000D01*
G01*
Y0D02*
G03*
X0Y-6000I6000J0D01*
G01*
X-6000Y0D02*
G03*
X0Y-6000I6000J0D01*
G01*
X286000Y0D02*
Y280000D01*
X0Y286000D02*
X280000D01*
X0Y-6000D02*
X280000D01*
X-6000Y0D02*
Y280000D01*
D14*
X210000Y85000D02*
D03*
Y100000D02*
D03*
D15*
X239250Y142500D02*
D03*
X224250D02*
D03*
D16*
X55894Y226070D02*
D03*
X25894D02*
D03*
D17*
X40894Y225570D02*
D03*
D18*
X81754Y132334D02*
D03*
X45754D02*
D03*
X118838Y215138D02*
D03*
X82838D02*
D03*
X142528Y214122D02*
D03*
X178528D02*
D03*
D19*
X239250Y142500D02*
D03*
X225750D02*
D03*
D20*
X210000Y86500D02*
D03*
Y100000D02*
D03*
X145000Y50750D02*
D03*
Y64250D02*
D03*
D21*
X174000Y140000D02*
D03*
Y160000D02*
D03*
Y135000D02*
D03*
X126000Y165000D02*
D03*
Y160000D02*
D03*
Y155000D02*
D03*
Y150000D02*
D03*
Y145000D02*
D03*
Y140000D02*
D03*
Y135000D02*
D03*
X174000Y145000D02*
D03*
Y150000D02*
D03*
Y155000D02*
D03*
Y165000D02*
D03*
D22*
X170000Y191250D02*
D03*
Y198750D02*
D03*
D23*
X112500Y60000D02*
D03*
Y40000D02*
D03*
D24*
X82500Y42979D02*
D03*
Y52022D02*
D03*
D25*
X61238Y180086D02*
D03*
X51238D02*
D03*
D26*
X55118Y64296D02*
D03*
Y100296D02*
D03*
D27*
X212344Y161514D02*
D03*
Y189514D02*
D03*
D28*
X102758Y179070D02*
D03*
X88758D02*
D03*
D29*
X165000Y174000D02*
D03*
X160000D02*
D03*
X155000D02*
D03*
X150000D02*
D03*
X145000D02*
D03*
X140000D02*
D03*
X135000D02*
D03*
Y126000D02*
D03*
X140000D02*
D03*
X145000D02*
D03*
X150000D02*
D03*
X155000D02*
D03*
X160000D02*
D03*
X165000D02*
D03*
D30*
X150000Y150000D02*
D03*
D31*
X181864Y48892D02*
D03*
Y64393D02*
D03*
M02*
