G04*
G04 #@! TF.GenerationSoftware,Altium Limited,Altium Designer,22.6.1 (34)*
G04*
G04 Layer_Color=8388736*
%FSLAX44Y44*%
%MOMM*%
G71*
G04*
G04 #@! TF.SameCoordinates,4B676402-AEF7-43F9-94C9-A96E2D6DE339*
G04*
G04*
G04 #@! TF.FilePolarity,Negative*
G04*
G01*
G75*
%ADD13C,1.2000*%
%ADD24R,0.5725X0.5682*%
%ADD32R,1.0032X1.0032*%
%ADD33R,1.0032X1.0032*%
%ADD34R,0.8032X1.8032*%
%ADD35R,0.9032X1.7032*%
%ADD36R,1.4032X1.8032*%
%ADD37R,1.0032X1.1532*%
%ADD38R,1.1532X1.0032*%
%ADD39O,1.2520X0.4020*%
%ADD40R,0.6532X0.7032*%
%ADD41R,1.6532X1.4032*%
%ADD42R,0.8532X0.8532*%
%ADD43R,1.8032X1.4032*%
G04:AMPARAMS|DCode=44|XSize=2.0032mm|YSize=1.5032mm|CornerRadius=0.2316mm|HoleSize=0mm|Usage=FLASHONLY|Rotation=180.000|XOffset=0mm|YOffset=0mm|HoleType=Round|Shape=RoundedRectangle|*
%AMROUNDEDRECTD44*
21,1,2.0032,1.0400,0,0,180.0*
21,1,1.5400,1.5032,0,0,180.0*
1,1,0.4632,-0.7700,0.5200*
1,1,0.4632,0.7700,0.5200*
1,1,0.4632,0.7700,-0.5200*
1,1,0.4632,-0.7700,-0.5200*
%
%ADD44ROUNDEDRECTD44*%
%ADD45R,1.3032X1.5532*%
%ADD46O,0.4020X1.2520*%
%ADD47R,3.2520X3.2520*%
%ADD48R,1.5032X1.1032*%
%ADD49C,2.7272*%
%ADD50O,1.4272X1.7272*%
%ADD51O,1.4432X1.7272*%
G04:AMPARAMS|DCode=52|XSize=2.7272mm|YSize=1.7272mm|CornerRadius=0.4826mm|HoleSize=0mm|Usage=FLASHONLY|Rotation=0.000|XOffset=0mm|YOffset=0mm|HoleType=Round|Shape=RoundedRectangle|*
%AMROUNDEDRECTD52*
21,1,2.7272,0.7620,0,0,0.0*
21,1,1.7620,1.7272,0,0,0.0*
1,1,0.9652,0.8810,-0.3810*
1,1,0.9652,-0.8810,-0.3810*
1,1,0.9652,-0.8810,0.3810*
1,1,0.9652,0.8810,0.3810*
%
%ADD52ROUNDEDRECTD52*%
%ADD53C,4.2032*%
%ADD54C,1.4732*%
%ADD55C,1.0032*%
%ADD56C,0.7532*%
D13*
X286000Y280000D02*
G03*
X280000Y286000I-6000J0D01*
G01*
X286000Y280000D02*
G03*
X280000Y286000I-6000J0D01*
G01*
Y-6000D02*
G03*
X286000Y0I0J6000D01*
G01*
X280000Y-6000D02*
G03*
X286000Y0I0J6000D01*
G01*
X0Y286000D02*
G03*
X-6000Y280000I0J-6000D01*
G01*
X0Y286000D02*
G03*
X-6000Y280000I0J-6000D01*
G01*
Y0D02*
G03*
X0Y-6000I6000J0D01*
G01*
X-6000Y0D02*
G03*
X0Y-6000I6000J0D01*
G01*
X286000Y0D02*
Y280000D01*
X0Y286000D02*
X280000D01*
X0Y-6000D02*
X280000D01*
X-6000Y0D02*
Y280000D01*
D24*
X82500Y42979D02*
D03*
Y52022D02*
D03*
D32*
X210000Y85000D02*
D03*
Y100000D02*
D03*
D33*
X239250Y142500D02*
D03*
X224250D02*
D03*
D34*
X55894Y226070D02*
D03*
X25894D02*
D03*
D35*
X40894Y225570D02*
D03*
D36*
X81754Y132334D02*
D03*
X45754D02*
D03*
X118838Y215138D02*
D03*
X82838D02*
D03*
X142528Y214122D02*
D03*
X178528D02*
D03*
D37*
X239250Y142500D02*
D03*
X225750D02*
D03*
D38*
X210000Y86500D02*
D03*
Y100000D02*
D03*
X145000Y50750D02*
D03*
Y64250D02*
D03*
D39*
X174000Y140000D02*
D03*
Y160000D02*
D03*
Y135000D02*
D03*
X126000Y165000D02*
D03*
Y160000D02*
D03*
Y155000D02*
D03*
Y150000D02*
D03*
Y145000D02*
D03*
Y140000D02*
D03*
Y135000D02*
D03*
X174000Y145000D02*
D03*
Y150000D02*
D03*
Y155000D02*
D03*
Y165000D02*
D03*
D40*
X170000Y191250D02*
D03*
Y198750D02*
D03*
D41*
X112500Y60000D02*
D03*
Y40000D02*
D03*
D42*
X61238Y180086D02*
D03*
X51238D02*
D03*
D43*
X55118Y64296D02*
D03*
Y100296D02*
D03*
D44*
X212344Y161514D02*
D03*
Y189514D02*
D03*
D45*
X102758Y179070D02*
D03*
X88758D02*
D03*
D46*
X165000Y174000D02*
D03*
X160000D02*
D03*
X155000D02*
D03*
X150000D02*
D03*
X145000D02*
D03*
X140000D02*
D03*
X135000D02*
D03*
Y126000D02*
D03*
X140000D02*
D03*
X145000D02*
D03*
X150000D02*
D03*
X155000D02*
D03*
X160000D02*
D03*
X165000D02*
D03*
D47*
X150000Y150000D02*
D03*
D48*
X181864Y48892D02*
D03*
Y64393D02*
D03*
D49*
X105000Y265000D02*
D03*
X147500D02*
D03*
D50*
X262500Y162500D02*
D03*
D51*
X260000Y110000D02*
D03*
D52*
X15000Y85000D02*
D03*
Y117500D02*
D03*
Y150000D02*
D03*
Y177500D02*
D03*
D53*
X252500Y252500D02*
D03*
X30000Y37500D02*
D03*
X252500D02*
D03*
D54*
X104902Y121412D02*
D03*
X230316Y122184D02*
D03*
X170000Y107500D02*
D03*
X245000Y100000D02*
D03*
X181610Y79756D02*
D03*
X230234Y161220D02*
D03*
X115000Y110000D02*
D03*
X250000Y175000D02*
D03*
X82500Y160000D02*
D03*
X102500Y162500D02*
D03*
X127500Y100000D02*
D03*
X180000Y180550D02*
D03*
X175000Y235000D02*
D03*
X260000Y190000D02*
D03*
X60000Y160000D02*
D03*
X70000Y200000D02*
D03*
X185000D02*
D03*
X35000Y85000D02*
D03*
Y117500D02*
D03*
Y150000D02*
D03*
Y177500D02*
D03*
D55*
X205000Y45000D02*
D03*
D56*
X161000Y161000D02*
D03*
Y150000D02*
D03*
Y139000D02*
D03*
X150000Y161000D02*
D03*
Y150000D02*
D03*
Y139000D02*
D03*
X139000Y161000D02*
D03*
Y150000D02*
D03*
Y139000D02*
D03*
M02*
