G04*
G04 #@! TF.GenerationSoftware,Altium Limited,Altium Designer,22.6.1 (34)*
G04*
G04 Layer_Color=32896*
%FSLAX44Y44*%
%MOMM*%
G71*
G04*
G04 #@! TF.SameCoordinates,4B676402-AEF7-43F9-94C9-A96E2D6DE339*
G04*
G04*
G04 #@! TF.FilePolarity,Positive*
G04*
G01*
G75*
%ADD12C,0.2540*%
%ADD13C,1.2000*%
D12*
X232460Y18369D02*
Y8372D01*
X227462D01*
X225795Y10038D01*
Y16703D01*
X227462Y18369D01*
X232460D01*
X217465Y8372D02*
X220797D01*
X222463Y10038D01*
Y13371D01*
X220797Y15037D01*
X217465D01*
X215799Y13371D01*
Y11704D01*
X222463D01*
X212467Y8372D02*
X207468D01*
X205802Y10038D01*
X207468Y11704D01*
X210800D01*
X212467Y13371D01*
X210800Y15037D01*
X205802D01*
X202470Y8372D02*
X199137D01*
X200804D01*
Y15037D01*
X202470D01*
X190807Y5040D02*
X189141D01*
X187474Y6706D01*
Y15037D01*
X192473D01*
X194139Y13371D01*
Y10038D01*
X192473Y8372D01*
X187474D01*
X184142D02*
Y15037D01*
X179144D01*
X177478Y13371D01*
Y8372D01*
X169147D02*
X172479D01*
X174146Y10038D01*
Y13371D01*
X172479Y15037D01*
X169147D01*
X167481Y13371D01*
Y11704D01*
X174146D01*
X157484Y18369D02*
Y8372D01*
X162483D01*
X164149Y10038D01*
Y13371D01*
X162483Y15037D01*
X157484D01*
X144155Y8372D02*
X140823D01*
X142489D01*
Y15037D01*
X144155D01*
X135824Y8372D02*
Y15037D01*
X130826D01*
X129160Y13371D01*
Y8372D01*
X115831D02*
Y15037D01*
X112499Y18369D01*
X109166Y15037D01*
Y8372D01*
Y13371D01*
X115831D01*
X105834Y15037D02*
Y10038D01*
X104168Y8372D01*
X99170D01*
Y15037D01*
X95837Y8372D02*
X90839D01*
X89173Y10038D01*
X90839Y11704D01*
X94171D01*
X95837Y13371D01*
X94171Y15037D01*
X89173D01*
X84174Y16703D02*
Y15037D01*
X85841D01*
X82508D01*
X84174D01*
Y10038D01*
X82508Y8372D01*
X77510Y15037D02*
Y8372D01*
Y11704D01*
X75844Y13371D01*
X74178Y15037D01*
X72512D01*
X67513Y8372D02*
X64181D01*
X65847D01*
Y15037D01*
X67513D01*
X57516D02*
X54184D01*
X52518Y13371D01*
Y8372D01*
X57516D01*
X59183Y10038D01*
X57516Y11704D01*
X52518D01*
X207460Y37537D02*
Y27540D01*
X200795D01*
X197463Y34204D02*
Y29206D01*
X195797Y27540D01*
X190799D01*
Y34204D01*
X180802D02*
X185800D01*
X187467Y32538D01*
Y29206D01*
X185800Y27540D01*
X180802D01*
X175804Y34204D02*
X172471D01*
X170805Y32538D01*
Y27540D01*
X175804D01*
X177470Y29206D01*
X175804Y30872D01*
X170805D01*
X167473Y27540D02*
X162474D01*
X160808Y29206D01*
X162474Y30872D01*
X165807D01*
X167473Y32538D01*
X165807Y34204D01*
X160808D01*
X147479Y37537D02*
Y27540D01*
X140815D01*
X132484D02*
X135816D01*
X137483Y29206D01*
Y32538D01*
X135816Y34204D01*
X132484D01*
X130818Y32538D01*
Y30872D01*
X137483D01*
X127486Y27540D02*
Y34204D01*
X122487D01*
X120821Y32538D01*
Y27540D01*
X115823Y34204D02*
X112491D01*
X110824Y32538D01*
Y27540D01*
X115823D01*
X117489Y29206D01*
X115823Y30872D01*
X110824D01*
X107492Y34204D02*
Y27540D01*
Y30872D01*
X105826Y32538D01*
X104160Y34204D01*
X102494D01*
X90831D02*
X95829D01*
X97495Y32538D01*
Y29206D01*
X95829Y27540D01*
X90831D01*
X87499D02*
X84166D01*
X85833D01*
Y34204D01*
X87499D01*
X72503D02*
X77502D01*
X79168Y32538D01*
Y29206D01*
X77502Y27540D01*
X72503D01*
X134960Y222540D02*
Y232537D01*
X128295Y222540D01*
Y232537D01*
X119965Y222540D02*
X123297D01*
X124963Y224206D01*
Y227538D01*
X123297Y229205D01*
X119965D01*
X118299Y227538D01*
Y225872D01*
X124963D01*
X114966Y222540D02*
Y229205D01*
X113300D01*
X111634Y227538D01*
Y222540D01*
Y227538D01*
X109968Y229205D01*
X108302Y227538D01*
Y222540D01*
X103303Y229205D02*
X99971D01*
X98305Y227538D01*
Y222540D01*
X103303D01*
X104970Y224206D01*
X103303Y225872D01*
X98305D01*
X84976Y222540D02*
X81644D01*
X83310D01*
Y232537D01*
X84976Y230871D01*
X76645Y222540D02*
X73313D01*
X74979D01*
Y232537D01*
X76645Y230871D01*
X58318Y232537D02*
Y222540D01*
X53320D01*
X51653Y224206D01*
Y230871D01*
X53320Y232537D01*
X58318D01*
X48321Y229205D02*
Y222540D01*
Y225872D01*
X46655Y227538D01*
X44989Y229205D01*
X43323D01*
X38324Y222540D02*
X34992D01*
X36658D01*
Y229205D01*
X38324D01*
X29994D02*
X26662Y222540D01*
X23329Y229205D01*
X14999Y222540D02*
X18331D01*
X19997Y224206D01*
Y227538D01*
X18331Y229205D01*
X14999D01*
X13333Y227538D01*
Y225872D01*
X19997D01*
X10000Y229205D02*
Y222540D01*
Y225872D01*
X8334Y227538D01*
X6668Y229205D01*
X5002D01*
X129166Y248137D02*
X130832Y249803D01*
X134164D01*
X135830Y248137D01*
Y246471D01*
X134164Y244805D01*
X130832D01*
X129166Y243139D01*
Y241472D01*
X130832Y239806D01*
X134164D01*
X135830Y241472D01*
X124167Y248137D02*
Y246471D01*
X125834D01*
X122501D01*
X124167D01*
Y241472D01*
X122501Y239806D01*
X112505D02*
X115837D01*
X117503Y241472D01*
Y244805D01*
X115837Y246471D01*
X112505D01*
X110838Y244805D01*
Y243139D01*
X117503D01*
X107506Y236474D02*
Y246471D01*
X102508D01*
X100842Y244805D01*
Y241472D01*
X102508Y239806D01*
X107506D01*
X97509Y236474D02*
Y246471D01*
X92511D01*
X90845Y244805D01*
Y241472D01*
X92511Y239806D01*
X97509D01*
X82514D02*
X85847D01*
X87513Y241472D01*
Y244805D01*
X85847Y246471D01*
X82514D01*
X80848Y244805D01*
Y243139D01*
X87513D01*
X77516Y246471D02*
Y239806D01*
Y243139D01*
X75850Y244805D01*
X74184Y246471D01*
X72517D01*
X57522Y239806D02*
Y249803D01*
X54190Y246471D01*
X50858Y249803D01*
Y239806D01*
X45859D02*
X42527D01*
X40861Y241472D01*
Y244805D01*
X42527Y246471D01*
X45859D01*
X47526Y244805D01*
Y241472D01*
X45859Y239806D01*
X35863Y248137D02*
Y246471D01*
X37529D01*
X34197D01*
X35863D01*
Y241472D01*
X34197Y239806D01*
X27532D02*
X24200D01*
X22534Y241472D01*
Y244805D01*
X24200Y246471D01*
X27532D01*
X29198Y244805D01*
Y241472D01*
X27532Y239806D01*
X19201Y246471D02*
Y239806D01*
Y243139D01*
X17535Y244805D01*
X15869Y246471D01*
X14203D01*
D13*
X286000Y280000D02*
G03*
X280000Y286000I-6000J0D01*
G01*
X286000Y280000D02*
G03*
X280000Y286000I-6000J0D01*
G01*
Y-6000D02*
G03*
X286000Y0I0J6000D01*
G01*
X280000Y-6000D02*
G03*
X286000Y0I0J6000D01*
G01*
X0Y286000D02*
G03*
X-6000Y280000I0J-6000D01*
G01*
X0Y286000D02*
G03*
X-6000Y280000I0J-6000D01*
G01*
Y0D02*
G03*
X0Y-6000I6000J0D01*
G01*
X-6000Y0D02*
G03*
X0Y-6000I6000J0D01*
G01*
X286000Y0D02*
Y280000D01*
X0Y286000D02*
X280000D01*
X0Y-6000D02*
X280000D01*
X-6000Y0D02*
Y280000D01*
M02*
