M48
;Layer_Color=6321
;FILE_FORMAT=2:5
INCH,LZ
;TYPE=PLATED
T1F00S00C0.01181
T2F00S00C0.02800
T3F00S00C0.03000
T4F00S00C0.06937
%
T01
X0054724Y0054724
X0059055
X0063386
Y0059055
Y0063386
X0059055
Y0059055
X0054724
Y0063386
T02
X001378Y0033465
Y004626
Y0059055
Y0069882
X00103Y00807
X0027559Y007874
X0023622Y0062992
X00413Y00478
X0050197Y003937
X0066929Y0042323
X00715Y00314
X0098425Y003937
X009252Y004626
X0102362Y0074803
X0072835Y007874
X0070866Y0070866
X00728Y00942
T03
X0046555Y0007874
X0059055
X0071555
X0105315Y0042815
Y0063976
T04
X0041339Y0104331
X0058071
M30
