M48
;Layer_Color=6321
;FILE_FORMAT=4:4
METRIC,LZ
;TYPE=PLATED
T2F00S00C0.7112
T3F00S00C0.7620
T5F00S00C0.9000
T6F00S00C1.0000
T7F00S00C1.0160
T8F00S00C1.2700
T9F00S00C3.0000
%
T02
X00209804Y00373888
X00337273Y0037656
X00428752Y00379932
X00413766Y0034671
X0046228Y0034036
X00455676Y00311404
X00435356
X00433582Y00286516
X00447802Y00224282
X0051943Y0029337
X00543556Y00335313
X00577342Y00335026
X00553466Y00364236
X00510794Y00383286
X00592582Y00184404
X0062484Y00198
X00602742Y00143256
X00545592Y00103124
X00548894Y00441846
X00536956Y00451612
X00520954Y00442578
X0048017Y00446422
X00431292Y0044323
X004295Y0059817
X0041426Y0058801
X0047752Y0058674
X00576072Y0047879
X00352298Y00471678
X00335788Y00471932
X00342138Y00456692
X00307848Y0048895
X00229616Y00489458
X002159Y0047879
X00192278Y00492252
X00197612Y00440436
X00219964Y00435864
X00165354Y00408178
X00139954Y0046355
X00141224Y00542036
X00226568Y00522986
X00249682Y0055245
X00389636Y00578104
X0039624Y00601472
X00392176Y00417068
X00387604Y00397256
X00368554Y0039878
X00279654Y00413004
X00138176Y00659384
T03
X00135Y0035
Y00375
X0044Y00135
Y0011
Y00085
Y0006
X005Y00065
X00525
X0055
X00575
X00635Y0006
Y00085
Y0011
Y00135
X00135Y004
Y00425
X0013Y00565
Y0059
Y00615
Y0064
T05
X00297Y005015
X003458
T06
X004204Y0063
X00395
X003696
T07
X00417Y00545
X004424
X004678
X004932
X005186
X005477Y0050775
X006493
X003916Y00545
X003662
X003408
X003154
X0029
T08
X0045525Y004675
X0048065
X001845Y0055585
Y0058125
T09
X00276Y0034425
X00642Y00345
X0064325Y000165
X00428Y000175
X00143Y00517
M30
