M48
;Layer_Color=6321
;FILE_FORMAT=4:4
METRIC,LZ
T12F00S00C5.0800
%
G90
G05
T12
G00X003446Y000254
M15
G01X003446Y002146
G01X000254Y002146
G01X000254Y000254
G01X003446Y000254
M16
G00X00675798Y-00024893
M15
G01X00680645Y-00023393
G01X00685097Y-0002096
G01X00688976Y-0001769
G01X00692128Y-00013715
G01X00694428Y-00009192
G01X00695782Y-00004303
G01X0069615Y0
G01X0069615Y00669996
G01X00695643Y00675044
G01X00694143Y00679891
G01X00691709Y00684343
G01X0068871Y00687956
G01X00688706Y0068796
G01X00684778Y00691172
G01X0068029Y00693538
G01X00675421Y00694966
G01X00670745Y006954
G01X001Y006954
G01X00094952Y00694893
G01X00090105Y00693393
G01X00085653Y0069096
G01X00081773Y0068769
G01X00078621Y00683715
G01X00076322Y00679192
G01X00074967Y00674303
G01X000746Y0067
G01X000746Y0032
G01X00075107Y00314952
G01X00076607Y00310105
G01X0007904Y00305653
G01X0008231Y00301773
G01X00086285Y00298621
G01X00090808Y00296322
G01X00095697Y00294967
G01X001Y002946
G01X003746Y002946
G01X003746Y0
G01X00375107Y-00005048
G01X00376607Y-00009895
G01X0037904Y-00014347
G01X0038231Y-00018227
G01X00386285Y-00021379
G01X00390808Y-00023678
G01X00395697Y-00025033
G01X004Y-000254
G01X0067075Y-000254
G01X00675798Y-00024893
M16
M17
M30
