M48
;Layer_Color=6321
;FILE_FORMAT=2:5
INCH,LZ
;TYPE=PLATED
T2F00S00C0.02800
T3F00S00C0.03000
T5F00S00C0.03543
T6F00S00C0.03937
T7F00S00C0.04000
T8F00S00C0.05000
T9F00S00C0.11811
;TYPE=NON_PLATED
T10F00S00C0.02362
%
T02
X00673Y01375
X00812Y01397
X01112Y01525
X0133Y01499
X01376Y01397
X01407Y01244
X01418Y01181
X01458Y01136
X016Y01142
X01653Y01239
X01747Y01177
X01765Y01352
X01703Y01454
X02054Y01549
X02176Y01546
X02059Y01287
X02078Y01207
X01896Y00918
X01681Y00748
X0233Y00894
X02383Y00854
X0238822Y00642
X0241Y01587
X023422Y0168
X0215223Y01751
X02051Y01875
X02044Y02034
X02063Y02273
X0220354Y0225547
X0228694Y02051
X02464Y0212795
X02467Y02358
X0187303Y0230217
X01812Y02358
X01903Y02535
X01708Y01846
X01668Y018
Y01736
X0180362Y0158662
X01893Y01568
X01436Y01688
X0124649Y01674
X01246Y01565
X01036Y01624
X00896Y0174303
X00726Y0175029
X00815Y0189059
X00929Y01903
X01112Y01865
X01213Y01915
X0128102Y01829
X01162Y01761
X01056Y02018
X0101Y02284
X00777Y02439
X00647Y0247
X01281Y02455
X01537Y02553
X01532Y02266
X01448Y01886
T03
X005315Y0137795
Y0147638
X0173228Y005315
Y0043307
Y0033465
Y0023622
X019685Y0025591
X0206693
X0216535
X0226378
X025Y0023622
Y0033465
Y0043307
Y005315
X005315Y015748
Y0167323
X0051181Y0222441
Y0232283
Y0242126
Y0251969
T05
X0116929Y0197441
X0136142
T06
X0165512Y0248032
X0155512
X0145512
T07
X0164173Y0214567
X0174173
X0184173
X0194173
X0204173
X021563Y0199902
X025563
X0154173Y0214567
X0144173
X0134173
X0124173
X0114173
T08
X0179232Y0184055
X0189232
X0072638Y0218839
Y0228839
T09
X0108661Y0135531
X0252756Y0135827
X0253248Y0006496
X0168504Y000689
X0056299Y0203543
T10
X0206201Y0077854
M30
