M48
;Layer_Color=6321
;FILE_FORMAT=2:5
INCH,LZ
;TYPE=PLATED
T2F00S00C0.02800
T3F00S00C0.03000
T5F00S00C0.03543
T6F00S00C0.03937
T7F00S00C0.04000
T8F00S00C0.05000
T9F00S00C0.11811
;TYPE=NON_PLATED
T10F00S00C0.02362
%
T02
X00759Y01408
X00902Y01424
X008937Y0151181
X0120079Y0151575
X01205Y0138103
X01276Y0132
X01356
X0137Y01498
X01469Y01468
X0155
X01636Y0150702
X01614Y01341
X0176Y0134717
X01852Y01315
X01786Y01169
X01698Y01155
X0182198Y0108502
X01861Y00922
X01779Y008
X0162Y00909
X02151Y01115
X02473Y01048
X02454Y0122311
X02286Y01391
X0221654Y01506
X01967Y01509
X0187147Y0155053
X02411Y00888
X02372Y00831
X02274Y0065
X0256331Y00717
X02363Y0184
X0228Y01861
X02278Y01925
X02284Y02007
X0213701Y0211101
X02225Y02253
X02185Y02331
X02012Y023
X02013Y0224
X01958Y01995
X01937Y01902
X02032Y01853
X0211043Y0174
X02194Y01759
X0184043Y01739
X01696Y0158
X01649Y02317
X01885Y02522
X01414Y02385
X01515Y0227
X01418Y02053
X0143Y01687
X0129921Y0172047
X01166Y01782
X01185Y01881
X0114961Y0165748
X00902Y01815
X0091903Y0190803
X0083Y019
X0071Y01894
X0073622Y0174409
X0055Y01828
X00695Y02107
X00795Y02114
X0084646Y02369
X00699Y02425
X00604Y02258
X0110559Y02421
T03
X005315Y0137795
Y0147638
X0173228Y005315
Y0043307
Y0033465
Y0023622
X019685Y0025591
X0206693
X0216535
X0226378
X025Y0023622
Y0033465
Y0043307
Y005315
X005315Y015748
Y0167323
X0051181Y0222441
Y0232283
Y0242126
Y0251969
T05
X0116929Y0197441
X0136142
T06
X0165512Y0248032
X0155512
X0145512
T07
X0164173Y0214567
X0174173
X0184173
X0194173
X0204173
X021563Y0199902
X025563
X0154173Y0214567
X0144173
X0134173
X0124173
X0114173
T08
X0179232Y0184055
X0189232
X0072638Y0218839
Y0228839
T09
X0108661Y0135532
X0252756Y0135827
X0253248Y0006496
X0168504Y000689
X0056299Y0203543
T10
X0206201Y0077854
M30
