M48
;Layer_Color=6321
;FILE_FORMAT=2:5
INCH,LZ
;TYPE=PLATED
T2F00S00C0.02800
T3F00S00C0.03150
T5F00S00C0.03543
T6F00S00C0.03937
T7F00S00C0.04000
T8F00S00C0.05000
T9F00S00C0.11811
;TYPE=NON_PLATED
T10F00S00C0.02362
%
T02
X01734Y01137
X01847Y0108
X01812Y01249
X01595Y01343
X0166929Y0151971
X0202573Y0151527
X02293Y01519
X02406Y0151741
X0236Y0147
X02274Y01422
X02326Y0131231
X02104Y01299
X02204Y00965
X02521Y00827
X02441Y01615
X02415Y01704
X02521Y01743
X02522Y01813
X02532Y02131
X0246Y02188
X02561Y02319
X0246Y02432
X02209Y02483
X0210106Y0241994
X0214598Y0211703
Y0209703
X0215275
X0216103
X02143Y02021
X02094Y01901
X02134Y01856
X0213302Y0176575
X02006Y01796
X01773Y01782
X01661Y01747
X01705Y01907
X01688Y01993
X01768Y01982
X0181004Y0193504
X01659Y02079
X01631Y02185
X01603Y0224
X01579Y02139
X01993Y02168
X01688Y02626
X0164Y02666
X0172835Y03028
X01871Y03069
X01854Y02906
X022Y0307157
X02397Y0298
X02338Y02765
X02278Y02788
X023Y0263
X0251Y02762
X01474Y02995
X01301Y03012
X01104Y02919
X00923Y02928
X00926Y03026
X00844Y02773
X007115Y027115
X00597Y02779
X0053937Y0253937
X00667Y023999
X00756Y0237
X0087298Y023799
X00932Y02309
X01012Y0234
X01027Y02513
X0112992Y0251492
Y0245792
X01283Y02474
X01219Y0234
X01231Y02206
X01357Y02168
X01339Y02069
X01221Y02048
X01489Y02121
X0151195Y0229705
X00836Y02214
X007628Y021682
X00686Y02059
X00792Y02473
X00893Y02494
X0095Y02648
X01065Y0262
X02152Y03246
X0224Y0319244
T03
X0166929Y0088661
Y0098161
Y0108661
Y0118661
X0191181Y0079134
X0201181
X0211681
X0221181
X0246457Y0087374
Y0097374
Y0107874
Y0117374
X0049713Y0208346
Y0217846
Y0228346
Y0238346
Y0288532
Y0298032
Y0308532
Y0318532
T05
X0112992Y0262402
X0132205
T06
X0141575Y0312992
X0151575
X0161575
T07
X0160236Y0279528
X0170236
X0180236
X0190236
X0200236
X0211693Y0264862
X0251693
X0150236Y0279528
X0140236
X0130236
X0120236
X0110236
T08
X0175295Y0249016
X0185295
X0068701Y0283799
Y0293799
T09
X0164567Y007185
X0249311Y0071457
X0248819Y0200787
X0104724Y0200492
X0052362Y0268504
T10
X0202264Y0142815
M30
