M48
;Layer_Color=6321
;FILE_FORMAT=2:5
INCH,LZ
;TYPE=PLATED
T2F00S00C0.02800
T3F00S00C0.03000
T5F00S00C0.03543
T6F00S00C0.03937
T7F00S00C0.04000
T8F00S00C0.05000
T9F00S00C0.11811
;TYPE=NON_PLATED
T10F00S00C0.02362
%
T02
X00826Y01472
X0132785Y0148252
X01688Y0149579
X01629Y01365
X0182Y0134
X01794Y01226
X01714
X0170702Y0112802
X01763Y00883
X02045Y01155
X0213998Y0132013
X02273Y01319
X02179Y01434
X02011Y01509
X02333Y00726
X0246Y0077953
X02373Y00564
X02148Y00406
X02161Y0173955
X02114Y01778
X02051Y0174243
X0189043Y0175757
X01698Y01745
X0169094Y02355
X0163094Y02315
X0188Y0231
X02268Y01885
X01387Y01857
X01322Y01858
X01347Y01798
X01212Y01925
X00904Y01927
X0085Y01885
X00757Y01938
X00778Y01734
X00866Y01716
X00651Y01607
X00551Y01825
X00556Y02134
X00892Y02059
X00983Y02175
X01534Y02276
X0156Y02368
X01544Y01642
X01526Y01564
X01451Y0157
X01101Y01626
X00544Y02596
T03
X005315Y0137795
Y0147638
X0173228Y005315
Y0043307
Y0033465
Y0023622
X019685Y0025591
X0206693
X0216535
X0226378
X025Y0023622
Y0033465
Y0043307
Y005315
X005315Y015748
Y0167323
X0051181Y0222441
Y0232283
Y0242126
Y0251969
T05
X0116929Y0197441
X0136142
T06
X0165512Y0248032
X0155512
X0145512
T07
X0164173Y0214567
X0174173
X0184173
X0194173
X0204173
X021563Y0199902
X025563
X0154173Y0214567
X0144173
X0134173
X0124173
X0114173
T08
X0179232Y0184055
X0189232
X0072638Y0218839
Y0228839
T09
X0108661Y0135532
X0252756Y0135827
X0253248Y0006496
X0168504Y000689
X0056299Y0203543
T10
X0206201Y0077854
M30
