M48
;Layer_Color=9474304
;FILE_FORMAT=4:4
METRIC,LZ
;TYPE=PLATED
T1F00S00C0.3110
T3F00S00C0.7112
T4F00S00C0.8000
T6F00S00C0.9000
T7F00S00C1.0000
T8F00S00C1.0160
T9F00S00C1.2700
T10F00S00C3.0000
;TYPE=NON_PLATED
T11F00S00C0.6000
%
T01
X0040767Y0023067
X0043561Y00391414
X00507238Y00383794
X00585724Y00379776
X00619506Y0038354
X0054367Y0039751
X00539496Y00448564
X0053467Y0046228
X00542572Y0046942
X0053467Y00482092
X00518414Y00457454
X00501252Y004581
X00465836Y00460248
X0045593Y0047244
X0043307Y00472948
X00422402Y00438912
X0043561Y0043053
X0046863Y00440182
X00457708Y00500126
X00456438Y00538988
X00480568Y0052324
X00522478Y0055499
X00528574Y00561086
X00545592Y00568452
X0055372
X0056642Y00557276
X00583946Y00548894
X0055118Y00542036
X00542572Y00535589
X0062738Y0052832
Y00566928
X00630174Y0057912
X00633984Y00592328
X00609092Y00596138
X00620522Y00629158
X00615696Y0068961
X00596646Y00688848
X0059Y0068889
Y00699558
X00596646Y00679958
X00530098Y00676148
X00519684Y00671068
X00521476Y0065508
X0051943Y00605536
X00483362
X0045823Y00626364
X00419862Y00587756
X00400758Y005265
X00561594Y00611124
X00541274Y0077089
X00438404Y00772922
X00439Y007493
X00644398Y00713994
X0059055Y004445
X00390652Y00517652
X00344424Y00510794
X0033528Y00516382
X00341884Y00497586
X00351028Y00500888
X00335563Y00559279
X00329692Y00557784
X00321056Y00573786
X00306832Y00581914
X0030734Y00590816
X00309405Y00616237
X00314452Y00631444
X00298704Y0064516
X00276098Y0064008
X00269164Y0065813
X00225074Y00662686
X00230632Y0064389
X0023499Y00632968
X00237664Y00625936
X00281Y00599324
X00288798Y00574802
X002921Y00543052
X00231902Y00531622
X00208046Y00554208
X00171196Y00557276
X00164862Y0054075
X00148336Y0053325
X0010668Y0058928
X0013589Y00641096
X00174244Y0064897
X00316992Y00684022
X00324866Y00676148
X00328925Y00606547
X00368808Y005975
X00395732Y00727456
X003813Y0076073
X00381254
X00366522Y00767461
X00304038Y0076073
X00262382Y00759968
X00277876Y0073787
X00435864Y00795782
T03
X0056642Y0045466
X00495046Y00678434
X00224028Y00705612
T04
X00426Y00249
Y00269
Y00289
Y00309
X00493Y00198
X00513
X00533
X00553
X00629Y00248
Y00268
Y00288
Y00308
X00124Y00514
Y00534
Y00554
Y00574
Y00631
Y00651
Y00671
Y00691
Y00747
Y00767
Y00787
Y00807
T06
X00287Y006665
X003358
T07
X003596Y00795
X00385
X004104
T08
X00407Y0071
X004324
X004578
X004832
X005086
X00544201Y00697
X00645801
X003816Y0071
X003562
X003308
X003054
X0028
T09
X00427Y006246
Y0065
X00557
Y006246
X00321Y00534
Y005086
X00193
Y00534
T10
X00418Y00189
X00633Y0019
X00638Y0051
X00266Y0050925
T11
X00513751Y0036275
M30
