G04*
G04 #@! TF.GenerationSoftware,Altium Limited,Altium Designer,22.2.1 (43)*
G04*
G04 Layer_Physical_Order=2*
G04 Layer_Color=16711680*
%FSLAX44Y44*%
%MOMM*%
G71*
G04*
G04 #@! TF.SameCoordinates,82B9A7A7-C451-481E-A025-ABCBCC36AE2A*
G04*
G04*
G04 #@! TF.FilePolarity,Positive*
G04*
G01*
G75*
%ADD13C,0.2540*%
%ADD17C,1.2000*%
%ADD21R,0.8000X0.8000*%
%ADD27R,1.1000X0.9500*%
%ADD44R,1.3000X1.3000*%
%ADD45C,1.3000*%
%ADD46R,1.3000X1.3000*%
%ADD58C,0.1640*%
%ADD59O,2.1590X1.5240*%
%ADD60C,1.5000*%
%ADD61C,2.0000*%
%ADD62O,0.9500X1.3500*%
%ADD63O,1.2000X1.7000*%
%ADD64C,2.0320*%
%ADD65O,2.0320X2.7940*%
%ADD66C,3.0000*%
%ADD67C,0.6000*%
%ADD68C,1.2700*%
%ADD69R,0.8500X0.7000*%
%ADD70R,0.7000X0.8500*%
%ADD71R,0.4500X0.5000*%
%ADD72R,0.8000X0.6000*%
%ADD73R,0.5000X0.4500*%
%ADD74R,0.6000X0.8000*%
%ADD75R,0.9500X2.1000*%
%ADD76R,5.5000X6.5000*%
%ADD77R,0.5588X1.2700*%
%ADD78R,1.2700X0.5588*%
%ADD79O,0.4000X2.0000*%
%ADD80R,0.4000X2.0000*%
%ADD81R,3.7000X2.4500*%
%ADD82R,1.4000X0.2700*%
%ADD83R,1.3000X1.8000*%
%ADD84O,0.8890X1.1430*%
%ADD85R,0.8000X0.9000*%
%ADD86R,1.7000X1.1000*%
G36*
X660745Y165009D02*
X390000D01*
Y485009D01*
X90000D01*
Y835000D01*
X479960D01*
Y803926D01*
X469541D01*
X441480Y831986D01*
X440369Y832729D01*
X439058Y832990D01*
X259080D01*
X257769Y832729D01*
X256658Y831986D01*
X253599Y828928D01*
X252857Y827817D01*
X252596Y826506D01*
Y700034D01*
X252857Y698723D01*
X253599Y697612D01*
X265072Y686140D01*
X264586Y684966D01*
X253583D01*
X248536Y690013D01*
Y802132D01*
X248275Y803443D01*
X247532Y804554D01*
X232546Y819540D01*
X231435Y820283D01*
X230124Y820544D01*
X111760D01*
X110449Y820283D01*
X109338Y819540D01*
X103242Y813444D01*
X102499Y812333D01*
X102238Y811022D01*
Y626430D01*
X102499Y625119D01*
X103242Y624008D01*
X109338Y617912D01*
X110449Y617169D01*
X111760Y616908D01*
X132693D01*
X135324Y614277D01*
Y606790D01*
X126210D01*
Y597210D01*
X128575D01*
X128827Y596832D01*
X131683Y593976D01*
X131387Y592952D01*
X131207Y592706D01*
X111089D01*
X109818Y593977D01*
X107782Y594820D01*
X105578D01*
X103542Y593977D01*
X101983Y592418D01*
X101140Y590382D01*
Y588178D01*
X101983Y586142D01*
X103542Y584583D01*
X105578Y583740D01*
X107782D01*
X109818Y584583D01*
X111089Y585854D01*
X163576D01*
X164887Y586115D01*
X165998Y586858D01*
X170373Y591232D01*
X171546Y590746D01*
Y579901D01*
X168774Y577128D01*
X168031Y576017D01*
X167770Y574706D01*
Y561685D01*
X166499Y560414D01*
X165656Y558378D01*
Y556174D01*
X166039Y555250D01*
X165333Y554194D01*
X155938D01*
X154627Y553933D01*
X153515Y553190D01*
X139553Y539229D01*
X138811Y538117D01*
X138550Y536806D01*
Y511312D01*
X138811Y510001D01*
X139553Y508890D01*
X160138Y488306D01*
X161249Y487563D01*
X162560Y487302D01*
X278130D01*
X279441Y487563D01*
X280552Y488306D01*
X311807Y519560D01*
X314417D01*
X314670Y518290D01*
X312701Y517475D01*
X310579Y515846D01*
X308950Y513724D01*
X307927Y511252D01*
X307577Y508600D01*
X307927Y505948D01*
X308950Y503476D01*
X310579Y501354D01*
X312701Y499725D01*
X315173Y498701D01*
X317825Y498352D01*
X324175D01*
X326827Y498701D01*
X329299Y499725D01*
X330584Y500711D01*
X331854Y500085D01*
Y492760D01*
X332115Y491449D01*
X332858Y490338D01*
X335652Y487544D01*
X336763Y486801D01*
X338074Y486540D01*
X399139D01*
X402212Y483467D01*
Y329362D01*
X402473Y328051D01*
X403216Y326939D01*
X416960Y313195D01*
Y299960D01*
X432438D01*
Y297005D01*
X431168Y296454D01*
X429490Y297424D01*
X427190Y298040D01*
X424810D01*
X422511Y297424D01*
X420449Y296234D01*
X418766Y294550D01*
X417576Y292489D01*
X416960Y290190D01*
Y287810D01*
X417576Y285510D01*
X418766Y283449D01*
X420449Y281766D01*
X422511Y280576D01*
X424810Y279960D01*
X427190D01*
X429490Y280576D01*
X431168Y281545D01*
X432438Y280995D01*
Y277005D01*
X431168Y276455D01*
X429490Y277424D01*
X427190Y278040D01*
X424810D01*
X422511Y277424D01*
X420449Y276234D01*
X418766Y274550D01*
X417576Y272489D01*
X416960Y270190D01*
Y267810D01*
X417576Y265510D01*
X418578Y263776D01*
X418068Y262506D01*
X416306D01*
X414995Y262245D01*
X413884Y261502D01*
X398644Y246262D01*
X397901Y245151D01*
X397640Y243840D01*
Y220472D01*
X397901Y219161D01*
X398644Y218050D01*
X403978Y212716D01*
X405089Y211973D01*
X406400Y211712D01*
X423015D01*
X463922Y170806D01*
X465033Y170063D01*
X466344Y169802D01*
X554228D01*
X555539Y170063D01*
X556650Y170806D01*
X624805Y238960D01*
X638040D01*
Y257040D01*
X619960D01*
Y243805D01*
X552809Y176654D01*
X538245D01*
X538065Y176900D01*
X537769Y177924D01*
X549454Y189609D01*
X549511Y189576D01*
X551810Y188960D01*
X554190D01*
X556489Y189576D01*
X558551Y190766D01*
X560234Y192449D01*
X561424Y194511D01*
X562040Y196810D01*
Y199190D01*
X561424Y201489D01*
X560234Y203551D01*
X558551Y205234D01*
X556489Y206424D01*
X554190Y207040D01*
X551810D01*
X549511Y206424D01*
X547449Y205234D01*
X546224Y204008D01*
X544954Y204534D01*
Y211941D01*
X558174Y225162D01*
X558917Y226273D01*
X559178Y227584D01*
Y258318D01*
X558917Y259629D01*
X558174Y260740D01*
X551812Y267103D01*
Y276595D01*
X553082Y277221D01*
X553643Y276790D01*
X555721Y275930D01*
X557950Y275636D01*
X560179Y275930D01*
X562257Y276790D01*
X564041Y278159D01*
X565410Y279943D01*
X566270Y282020D01*
X566564Y284250D01*
Y289250D01*
X566270Y291479D01*
X565410Y293557D01*
X564041Y295340D01*
X563763Y295554D01*
X564194Y296824D01*
X615331D01*
X620609Y291546D01*
X620576Y291489D01*
X619960Y289190D01*
Y286810D01*
X620576Y284511D01*
X621766Y282449D01*
X623449Y280766D01*
X625511Y279576D01*
X627810Y278960D01*
X630190D01*
X632489Y279576D01*
X634551Y280766D01*
X636234Y282449D01*
X637424Y284511D01*
X638040Y286810D01*
Y289190D01*
X637424Y291489D01*
X636234Y293551D01*
X634551Y295234D01*
X632489Y296424D01*
X630190Y297040D01*
X627810D01*
X625511Y296424D01*
X625454Y296391D01*
X619173Y302672D01*
X618061Y303415D01*
X616750Y303676D01*
X559790D01*
Y316360D01*
Y326360D01*
Y335518D01*
X560885Y336785D01*
X589013Y336680D01*
X589020Y336681D01*
X589026Y336680D01*
X595336D01*
X620599Y311529D01*
X620576Y311489D01*
X619960Y309190D01*
Y306810D01*
X620576Y304511D01*
X621766Y302449D01*
X623449Y300766D01*
X625511Y299576D01*
X627810Y298960D01*
X630190D01*
X632489Y299576D01*
X634551Y300766D01*
X636234Y302449D01*
X637424Y304511D01*
X638040Y306810D01*
Y309190D01*
X637424Y311489D01*
X636234Y313551D01*
X634551Y315234D01*
X632489Y316424D01*
X630190Y317040D01*
X627810D01*
X625511Y316424D01*
X625437Y316381D01*
X599167Y342534D01*
X598611Y342904D01*
X598351Y343078D01*
X598049Y344176D01*
X598047Y344570D01*
X599576Y346099D01*
X600319Y347211D01*
X600580Y348521D01*
Y511153D01*
X652916Y563490D01*
X653659Y564602D01*
X653920Y565913D01*
Y672666D01*
X653659Y673977D01*
X652916Y675089D01*
X644975Y683030D01*
X645501Y684300D01*
X647473D01*
X650703Y685165D01*
X653599Y686837D01*
X655963Y689202D01*
X657635Y692098D01*
X658501Y695328D01*
Y698672D01*
X657635Y701902D01*
X655963Y704798D01*
X653599Y707162D01*
X650703Y708834D01*
X649067Y709273D01*
X648738Y710499D01*
X649095Y710856D01*
X649938Y712892D01*
Y715096D01*
X649095Y717132D01*
X647536Y718691D01*
X645500Y719534D01*
X643296D01*
X641260Y718691D01*
X639701Y717132D01*
X638858Y715096D01*
Y714061D01*
X632699Y707902D01*
X631526Y708388D01*
Y755946D01*
X631265Y757257D01*
X630522Y758369D01*
X622182Y766708D01*
X621071Y767451D01*
X619760Y767712D01*
X547329D01*
X546480Y768982D01*
X546814Y769788D01*
Y771992D01*
X545971Y774028D01*
X544700Y775299D01*
Y797706D01*
X544599Y798214D01*
X544543Y798730D01*
X544469Y798865D01*
X544439Y799017D01*
X544151Y799448D01*
X543902Y799903D01*
X543782Y800000D01*
X543696Y800128D01*
X543265Y800416D01*
X542861Y800742D01*
X542713Y800785D01*
X542585Y800871D01*
X542076Y800972D01*
X541579Y801118D01*
X540040Y801255D01*
Y835000D01*
X660745D01*
Y165009D01*
D02*
G37*
G36*
X450696Y813081D02*
X450210Y811908D01*
X341630D01*
X340319Y811647D01*
X339208Y810904D01*
X326229Y797926D01*
X284290D01*
Y802540D01*
X264792D01*
Y812460D01*
X284290D01*
Y826138D01*
X437639D01*
X450696Y813081D01*
D02*
G37*
G36*
X241684Y800713D02*
Y786916D01*
X240511Y786430D01*
X214422Y812519D01*
X214908Y813692D01*
X228705D01*
X241684Y800713D01*
D02*
G37*
G36*
X423802Y791660D02*
Y751790D01*
X412710D01*
Y749176D01*
X392690D01*
X391379Y748915D01*
X390268Y748173D01*
X387963Y745868D01*
X373078D01*
X372552Y747138D01*
X380605Y755190D01*
X382402D01*
X384438Y756033D01*
X385996Y757592D01*
X386840Y759628D01*
Y761832D01*
X385996Y763868D01*
X384902Y764962D01*
X384897Y765029D01*
X385357Y766303D01*
X386121Y766455D01*
X387232Y767198D01*
X404159Y784124D01*
X405560Y783315D01*
X408749Y782460D01*
X412051D01*
X415240Y783315D01*
X418100Y784966D01*
X420434Y787300D01*
X422085Y790160D01*
X422532Y791827D01*
X423802Y791660D01*
D02*
G37*
G36*
X475618Y781663D02*
Y773962D01*
X474445Y773476D01*
X444135Y803786D01*
X444661Y805056D01*
X452225D01*
X475618Y781663D01*
D02*
G37*
G36*
X350652Y803786D02*
X349566Y802700D01*
X347915Y799840D01*
X347060Y796651D01*
Y793349D01*
X347915Y790160D01*
X349566Y787300D01*
X351900Y784966D01*
X354760Y783315D01*
X357949Y782460D01*
X361251D01*
X364440Y783315D01*
X367300Y784966D01*
X369635Y787300D01*
X371285Y790160D01*
X371643Y791493D01*
X372957D01*
X373315Y790160D01*
X374966Y787300D01*
X377300Y784966D01*
X380160Y783315D01*
X383349Y782460D01*
X386651D01*
X389840Y783315D01*
X392700Y784966D01*
X395034Y787300D01*
X396685Y790160D01*
X397043Y791493D01*
X398357D01*
X398715Y790160D01*
X399164Y789381D01*
Y788819D01*
X383391Y773046D01*
X381000D01*
X379689Y772785D01*
X378578Y772042D01*
X373332Y766797D01*
X372062Y767323D01*
Y768564D01*
X371219Y770600D01*
X369660Y772158D01*
X367624Y773001D01*
X365420D01*
X363384Y772158D01*
X361825Y770600D01*
X360982Y768564D01*
Y766652D01*
X271719D01*
X264792Y773579D01*
Y786460D01*
X284290D01*
Y791074D01*
X327648D01*
X328959Y791335D01*
X330070Y792077D01*
X343049Y805056D01*
X350126D01*
X350652Y803786D01*
D02*
G37*
G36*
X432726Y791085D02*
X434762Y790242D01*
X436559D01*
X465790Y761011D01*
Y757940D01*
X466051Y756629D01*
X466793Y755518D01*
X470018Y752293D01*
X471129Y751551D01*
X472440Y751290D01*
X475511D01*
X477349Y749452D01*
X476839Y748289D01*
X444540Y749581D01*
Y750402D01*
X443697Y752438D01*
X442426Y753709D01*
Y769109D01*
X443101Y769784D01*
X443944Y771820D01*
Y774024D01*
X443101Y776060D01*
X441542Y777619D01*
X439506Y778462D01*
X437302D01*
X435266Y777619D01*
X433707Y776060D01*
X432864Y774024D01*
Y771820D01*
X433707Y769784D01*
X435266Y768225D01*
X435574Y768098D01*
Y753709D01*
X434303Y752438D01*
X433460Y750402D01*
Y748198D01*
X434303Y746162D01*
X435862Y744603D01*
X437898Y743760D01*
X439730D01*
X440125Y743496D01*
X440611Y743142D01*
X440679Y743126D01*
X440737Y743087D01*
X441326Y742970D01*
X441911Y742829D01*
X479910Y741309D01*
Y726187D01*
X479885Y726183D01*
X476795Y724903D01*
X474142Y722868D01*
X472107Y720215D01*
X471187Y717996D01*
X469813D01*
X468893Y720215D01*
X466858Y722868D01*
X464205Y724903D01*
X461115Y726183D01*
X457800Y726620D01*
X454485Y726183D01*
X451395Y724903D01*
X448742Y722868D01*
X446707Y720215D01*
X445787Y717996D01*
X444413D01*
X443493Y720215D01*
X441458Y722868D01*
X438805Y724903D01*
X435715Y726183D01*
X432400Y726620D01*
X429085Y726183D01*
X425995Y724903D01*
X423342Y722868D01*
X421306Y720215D01*
X420387Y717996D01*
X419013D01*
X418093Y720215D01*
X416058Y722868D01*
X413405Y724903D01*
X410315Y726183D01*
X407000Y726620D01*
X403685Y726183D01*
X402220Y725577D01*
X401272Y726559D01*
Y728558D01*
X400429Y730594D01*
X398870Y732153D01*
X396834Y732996D01*
X395037D01*
X390157Y737876D01*
X390575Y739254D01*
X390693Y739277D01*
X391804Y740020D01*
X394109Y742324D01*
X412710D01*
Y739710D01*
X412710D01*
Y739290D01*
X412710D01*
Y727210D01*
X426290D01*
Y730619D01*
X426602Y730828D01*
X429650Y733876D01*
X430393Y734987D01*
X430654Y736298D01*
Y791361D01*
X431924Y791887D01*
X432726Y791085D01*
D02*
G37*
G36*
X261280Y754428D02*
X263077D01*
X267326Y750180D01*
X268437Y749437D01*
X269748Y749176D01*
X345440D01*
X346751Y749437D01*
X347862Y750180D01*
X349037Y751354D01*
X350210Y750868D01*
Y745868D01*
X287465D01*
X286560Y746773D01*
X285448Y747516D01*
X284137Y747776D01*
X274087D01*
X272776Y747516D01*
X271665Y746773D01*
X268994Y744102D01*
X268252Y742991D01*
X267991Y741680D01*
Y737910D01*
X264024Y733942D01*
X263281Y732831D01*
X263020Y731520D01*
Y699677D01*
X261934Y699125D01*
X261793Y699108D01*
X259448Y701453D01*
Y754044D01*
X260504Y754750D01*
X261280Y754428D01*
D02*
G37*
G36*
X237366Y779885D02*
Y725244D01*
X237120Y725065D01*
X236096Y724768D01*
X174608Y786256D01*
X174290Y787460D01*
X174290D01*
X174290Y787460D01*
Y799540D01*
X174290D01*
Y799960D01*
X174290D01*
Y809435D01*
X207817D01*
X237366Y779885D01*
D02*
G37*
G36*
X276774Y732330D02*
X278978D01*
X279625Y732598D01*
X279746Y732574D01*
X350210D01*
Y730460D01*
X363290D01*
Y732574D01*
X385769D01*
X390192Y728151D01*
Y726354D01*
X391035Y724318D01*
X392594Y722759D01*
X394630Y721916D01*
X395611D01*
X396237Y720646D01*
X395906Y720215D01*
X394987Y717996D01*
X393613D01*
X392693Y720215D01*
X390658Y722868D01*
X388005Y724903D01*
X384915Y726183D01*
X381600Y726620D01*
X378285Y726183D01*
X375195Y724903D01*
X372542Y722868D01*
X370507Y720215D01*
X369587Y717996D01*
X368213D01*
X367293Y720215D01*
X365258Y722868D01*
X362605Y724903D01*
X359515Y726183D01*
X356200Y726620D01*
X352885Y726183D01*
X349795Y724903D01*
X347142Y722868D01*
X345107Y720215D01*
X344187Y717996D01*
X342813D01*
X341893Y720215D01*
X339858Y722868D01*
X337205Y724903D01*
X334115Y726183D01*
X330800Y726620D01*
X327485Y726183D01*
X324395Y724903D01*
X321742Y722868D01*
X319706Y720215D01*
X318787Y717996D01*
X317413D01*
X316493Y720215D01*
X314458Y722868D01*
X311805Y724903D01*
X308715Y726183D01*
X305400Y726620D01*
X302085Y726183D01*
X298995Y724903D01*
X296342Y722868D01*
X294307Y720215D01*
X293387Y717996D01*
X292013D01*
X291093Y720215D01*
X289058Y722868D01*
X286405Y724903D01*
X283315Y726183D01*
X280000Y726620D01*
X276685Y726183D01*
X273595Y724903D01*
X271142Y723021D01*
X269872Y723361D01*
Y730101D01*
X272944Y733173D01*
X274738Y733173D01*
X276774Y732330D01*
D02*
G37*
G36*
X624674Y754527D02*
Y715838D01*
X623501Y715352D01*
X579166Y759687D01*
X579652Y760860D01*
X618341D01*
X624674Y754527D01*
D02*
G37*
G36*
X165077Y786097D02*
X230508Y720666D01*
Y713322D01*
X229238Y712869D01*
X227459Y713896D01*
X225198Y714502D01*
X222858D01*
X220597Y713896D01*
X220592Y713893D01*
X163192Y771293D01*
Y786807D01*
X163651Y786969D01*
X164462Y787018D01*
X165077Y786097D01*
D02*
G37*
G36*
X154640Y812519D02*
X147692Y805570D01*
X146949Y804459D01*
X146688Y803148D01*
Y723488D01*
X146949Y722177D01*
X147692Y721066D01*
X173121Y695636D01*
X172829Y694805D01*
X172535Y694426D01*
X133040D01*
Y700040D01*
X114960D01*
Y681960D01*
X133040D01*
Y687574D01*
X171277D01*
X175926Y682926D01*
X175440Y681752D01*
X171546D01*
Y676288D01*
X151214D01*
X149903Y676027D01*
X148792Y675285D01*
X147933Y674426D01*
X132441D01*
X132424Y674489D01*
X131234Y676551D01*
X129551Y678234D01*
X127490Y679424D01*
X125190Y680040D01*
X122810D01*
X120511Y679424D01*
X118450Y678234D01*
X116767Y676551D01*
X115576Y674489D01*
X114960Y672190D01*
Y670284D01*
X113938Y669600D01*
X113744Y669560D01*
X113408Y669779D01*
Y791563D01*
X119805Y797960D01*
X133040D01*
Y813692D01*
X154154D01*
X154640Y812519D01*
D02*
G37*
G36*
X620494Y708670D02*
Y694443D01*
X619224Y693917D01*
X618834Y694307D01*
X616798Y695150D01*
X615001D01*
X556142Y754008D01*
X555031Y754751D01*
X553720Y755012D01*
X525780D01*
X524469Y754751D01*
X523358Y754008D01*
X519698Y750349D01*
X518955Y749237D01*
X518694Y747926D01*
Y723419D01*
X517425Y723047D01*
X515005Y724903D01*
X511915Y726183D01*
X508600Y726620D01*
X505285Y726183D01*
X502195Y724903D01*
X499542Y722868D01*
X497506Y720215D01*
X496587Y717996D01*
X495213D01*
X494293Y720215D01*
X492258Y722868D01*
X491750Y723258D01*
X492158Y724460D01*
X494490D01*
Y750540D01*
X485951D01*
X481376Y755115D01*
X481862Y756288D01*
X572875D01*
X620494Y708670D01*
D02*
G37*
G36*
X472107Y699785D02*
X474142Y697132D01*
X476795Y695097D01*
X479885Y693817D01*
X483200Y693381D01*
X486515Y693817D01*
X489605Y695097D01*
X492258Y697132D01*
X494293Y699785D01*
X495213Y702005D01*
X496587D01*
X497506Y699785D01*
X499542Y697132D01*
X502195Y695097D01*
X505285Y693817D01*
X508600Y693381D01*
X511915Y693817D01*
X513218Y694356D01*
X513937Y693280D01*
X504562Y683904D01*
X504056Y683148D01*
X502881Y683035D01*
X502615Y683104D01*
X502160Y683893D01*
X500505Y685548D01*
X498477Y686718D01*
X496216Y687324D01*
X493876D01*
X491615Y686718D01*
X489587Y685548D01*
X487932Y683893D01*
X486762Y681865D01*
X486760Y681860D01*
X466874D01*
X465563Y681599D01*
X464451Y680856D01*
X456577Y672982D01*
X456054Y672199D01*
X454784Y672584D01*
Y681736D01*
X454523Y683047D01*
X453780Y684158D01*
X445144Y692794D01*
X444033Y693537D01*
X442722Y693798D01*
X438988D01*
X438735Y695068D01*
X438805Y695097D01*
X441458Y697132D01*
X443493Y699785D01*
X444413Y702005D01*
X445787D01*
X446707Y699785D01*
X448742Y697132D01*
X451395Y695097D01*
X454485Y693817D01*
X457800Y693381D01*
X461115Y693817D01*
X464205Y695097D01*
X466858Y697132D01*
X468893Y699785D01*
X469813Y702005D01*
X471187D01*
X472107Y699785D01*
D02*
G37*
G36*
X584460Y689585D02*
Y687788D01*
X585303Y685752D01*
X586862Y684194D01*
X588898Y683350D01*
X590680D01*
X591445Y682487D01*
X591569Y682177D01*
X591106Y681060D01*
Y678856D01*
X591847Y677066D01*
X591314Y675796D01*
X545963D01*
X536584Y685174D01*
X535473Y685917D01*
X534162Y686178D01*
X527433D01*
X526947Y687351D01*
X528723Y689128D01*
X529466Y690239D01*
X529726Y691550D01*
Y693915D01*
X529968Y695128D01*
Y696424D01*
X530231Y696599D01*
X531501Y695921D01*
Y695328D01*
X532366Y692098D01*
X534038Y689202D01*
X536403Y686837D01*
X539299Y685165D01*
X542529Y684300D01*
X545873D01*
X549103Y685165D01*
X551999Y686837D01*
X554363Y689202D01*
X556035Y692098D01*
X556901Y695328D01*
Y698672D01*
X556035Y701902D01*
X554363Y704798D01*
X551999Y707162D01*
X551744Y707309D01*
X552073Y708536D01*
X565509D01*
X584460Y689585D01*
D02*
G37*
G36*
X156340Y802733D02*
Y769874D01*
X156601Y768563D01*
X157344Y767452D01*
X215747Y709048D01*
X215744Y709043D01*
X215138Y706782D01*
Y704442D01*
X215744Y702181D01*
X216914Y700153D01*
X218569Y698498D01*
X220597Y697328D01*
X222858Y696722D01*
X225198D01*
X227459Y697328D01*
X229238Y698355D01*
X230508Y697902D01*
Y681752D01*
X196103D01*
X196047Y682031D01*
X195304Y683142D01*
X153540Y724907D01*
Y801729D01*
X155108Y803297D01*
X156340Y802733D01*
D02*
G37*
G36*
X319706Y699785D02*
X321742Y697132D01*
X324395Y695097D01*
X327374Y693863D01*
Y690372D01*
X327635Y689061D01*
X328377Y687950D01*
X338966Y677361D01*
X338309Y676222D01*
X337122Y676540D01*
X334478D01*
X331925Y675856D01*
X331676Y675712D01*
X330406Y676445D01*
Y677250D01*
X329563Y679286D01*
X328004Y680845D01*
X325968Y681688D01*
X324171D01*
X322532Y683327D01*
Y685124D01*
X321689Y687160D01*
X320130Y688719D01*
X318094Y689562D01*
X316297D01*
X312048Y693810D01*
X312037Y693818D01*
X311952Y694286D01*
X312086Y695313D01*
X314458Y697132D01*
X316493Y699785D01*
X317413Y702005D01*
X318787D01*
X319706Y699785D01*
D02*
G37*
G36*
X343018Y687950D02*
X344129Y687207D01*
X345440Y686946D01*
X364960D01*
Y677145D01*
X363991Y676176D01*
X349841D01*
X334226Y691791D01*
Y693863D01*
X336261Y694706D01*
X343018Y687950D01*
D02*
G37*
G36*
X610156Y690305D02*
Y688508D01*
X610999Y686472D01*
X612558Y684913D01*
X614594Y684070D01*
X616798D01*
X618834Y684913D01*
X619224Y685303D01*
X620494Y684777D01*
Y683289D01*
X620755Y681978D01*
X621497Y680866D01*
X634883Y667480D01*
X634290Y666277D01*
X634000Y666316D01*
X632177Y666075D01*
X630478Y665372D01*
X629019Y664252D01*
X627899Y662793D01*
X627195Y661094D01*
X627021Y659770D01*
X625740D01*
X625565Y661094D01*
X624862Y662793D01*
X623742Y664252D01*
X622283Y665372D01*
X622186Y665412D01*
Y670798D01*
X621925Y672109D01*
X621183Y673220D01*
X612022Y682380D01*
X595540Y698863D01*
Y700660D01*
X594696Y702696D01*
X593138Y704255D01*
X591102Y705098D01*
X588898D01*
X586862Y704255D01*
X586473Y703866D01*
X575954Y714384D01*
X574843Y715127D01*
X573532Y715388D01*
X568347D01*
X559952Y723782D01*
X558841Y724525D01*
X557530Y724786D01*
X540090D01*
Y748160D01*
X552301D01*
X610156Y690305D01*
D02*
G37*
G36*
X241418Y674938D02*
X242529Y674195D01*
X243840Y673934D01*
X278576D01*
X279062Y672761D01*
X278966Y672665D01*
X277644Y670375D01*
X276960Y667822D01*
Y666179D01*
X275690Y665653D01*
X274202Y667140D01*
X273091Y667883D01*
X271780Y668144D01*
X238408D01*
Y676288D01*
X239581Y676774D01*
X241418Y674938D01*
D02*
G37*
G36*
X171546Y664524D02*
X171203Y663808D01*
X170486Y663464D01*
X153876D01*
X152965Y664073D01*
X151654Y664334D01*
X131708D01*
X131323Y665604D01*
X132424Y667511D01*
X132441Y667574D01*
X149352D01*
X150663Y667835D01*
X151774Y668577D01*
X152633Y669436D01*
X171546D01*
Y664524D01*
D02*
G37*
G36*
X317250Y646765D02*
X316764Y645591D01*
X304244D01*
Y646262D01*
X303401Y648298D01*
X301842Y649857D01*
X299806Y650700D01*
X297602D01*
X295566Y649857D01*
X294007Y648298D01*
X293164Y646262D01*
Y644058D01*
X294007Y642022D01*
X295566Y640463D01*
X297602Y639620D01*
X299460D01*
X300388Y639000D01*
X301699Y638740D01*
X325403D01*
X325889Y637566D01*
X321165Y632842D01*
X319723Y633196D01*
X319149Y634582D01*
X317590Y636141D01*
X315554Y636984D01*
X313350D01*
X311314Y636141D01*
X310043Y634870D01*
X280519D01*
X279993Y636140D01*
X280795Y636942D01*
X281638Y638978D01*
Y641182D01*
X280795Y643218D01*
X279524Y644489D01*
Y658118D01*
X280697Y658604D01*
X280835Y658466D01*
X283125Y657144D01*
X285678Y656460D01*
X288322D01*
X290875Y657144D01*
X293165Y658466D01*
X295034Y660335D01*
X296356Y662625D01*
X297040Y665178D01*
Y665315D01*
X298214Y665801D01*
X317250Y646765D01*
D02*
G37*
G36*
X364960Y665796D02*
Y657960D01*
X403044D01*
X403530Y656787D01*
X401425Y654682D01*
X353846D01*
X353360Y655855D01*
X363786Y666282D01*
X364960Y665796D01*
D02*
G37*
G36*
X526960Y671451D02*
X528996Y670608D01*
X530793D01*
X542237Y659164D01*
X543349Y658421D01*
X544660Y658160D01*
X545815D01*
X546306Y656890D01*
X544950Y655124D01*
X544247Y653426D01*
X527975D01*
X527016Y654385D01*
Y656182D01*
X526173Y658218D01*
X524614Y659777D01*
X522578Y660620D01*
X520374D01*
X520096Y660505D01*
X519040Y661211D01*
Y665528D01*
X520786D01*
X522822Y666371D01*
X524381Y667930D01*
X525224Y669966D01*
Y671391D01*
X526494Y671917D01*
X526960Y671451D01*
D02*
G37*
G36*
X205648Y661819D02*
X196225Y652396D01*
X178653D01*
X177382Y653667D01*
X175346Y654510D01*
X173142D01*
X172308Y654165D01*
X171038Y655013D01*
Y662913D01*
X171381Y663629D01*
X172098Y663972D01*
X205648D01*
Y661819D01*
D02*
G37*
G36*
X447932Y670157D02*
Y652542D01*
X446662Y651905D01*
X446148Y652290D01*
Y655320D01*
X445887Y656631D01*
X445144Y657742D01*
X439302Y663584D01*
X438191Y664327D01*
X436880Y664588D01*
X412750D01*
X411439Y664327D01*
X410328Y663584D01*
X408213Y661470D01*
X407040Y661956D01*
Y682628D01*
X435461D01*
X447932Y670157D01*
D02*
G37*
G36*
X627195Y654907D02*
X627899Y653208D01*
X629019Y651749D01*
X630478Y650629D01*
X630574Y650589D01*
Y596753D01*
X629287Y595466D01*
X628444Y593430D01*
Y591226D01*
X629287Y589190D01*
X630574Y587903D01*
Y584660D01*
X629072D01*
X627036Y583817D01*
X625477Y582258D01*
X624634Y580222D01*
Y578018D01*
X625477Y575982D01*
X627036Y574423D01*
X628924Y573641D01*
X628482Y572468D01*
X626278D01*
X624242Y571625D01*
X622971Y570354D01*
X620790D01*
Y578290D01*
X607283D01*
X606436Y579239D01*
X622944Y595748D01*
X623687Y596859D01*
X623948Y598170D01*
Y624749D01*
X625219Y626020D01*
X626062Y628056D01*
Y630260D01*
X625219Y632296D01*
X623660Y633855D01*
X621624Y634698D01*
X619420D01*
X617384Y633855D01*
X615825Y632296D01*
X614982Y630260D01*
Y628056D01*
X615825Y626020D01*
X617096Y624749D01*
Y599589D01*
X615638Y598131D01*
X614140Y598429D01*
X613789Y599276D01*
X612518Y600547D01*
Y651305D01*
X613778Y651749D01*
X615238Y650629D01*
X616937Y649925D01*
X618760Y649685D01*
X620584Y649925D01*
X622283Y650629D01*
X623742Y651749D01*
X624862Y653208D01*
X625565Y654907D01*
X625740Y656231D01*
X627021D01*
X627195Y654907D01*
D02*
G37*
G36*
X486762Y675003D02*
X487932Y672975D01*
X489587Y671320D01*
X491615Y670150D01*
X493876Y669544D01*
X493899D01*
X494960Y669040D01*
Y655960D01*
X496157D01*
X496683Y654690D01*
X486261Y644268D01*
X465790D01*
Y653790D01*
X465790D01*
Y654210D01*
X465790D01*
Y666290D01*
X462426D01*
Y669141D01*
X468293Y675008D01*
X486760D01*
X486762Y675003D01*
D02*
G37*
G36*
X205648Y650470D02*
Y640080D01*
X205909Y638769D01*
X206652Y637658D01*
X213764Y630546D01*
X214875Y629803D01*
X216186Y629542D01*
X230581D01*
X231852Y628271D01*
X232520Y627995D01*
X232124Y627038D01*
Y624834D01*
X232967Y622798D01*
X233184Y622581D01*
X232698Y621408D01*
X192278D01*
X190967Y621147D01*
X189856Y620404D01*
X182813Y613362D01*
X171038D01*
Y620602D01*
Y628666D01*
Y636794D01*
Y642927D01*
X172308Y643775D01*
X173142Y643430D01*
X175346D01*
X177382Y644273D01*
X178653Y645544D01*
X197644D01*
X198955Y645805D01*
X200066Y646548D01*
X204475Y650956D01*
X205648Y650470D01*
D02*
G37*
G36*
X114418Y658486D02*
X115529Y657743D01*
X116058Y657638D01*
X116313Y657247D01*
X116586Y656238D01*
X115576Y654489D01*
X114960Y652190D01*
Y649810D01*
X115576Y647511D01*
X116767Y645449D01*
X118450Y643766D01*
X120511Y642576D01*
X122810Y641960D01*
X125190D01*
X127490Y642576D01*
X129551Y643766D01*
X129677Y643893D01*
X130754Y643173D01*
X130350Y642198D01*
Y639994D01*
X130890Y638691D01*
X129813Y637972D01*
X129551Y638234D01*
X127490Y639424D01*
X125190Y640040D01*
X122810D01*
X120511Y639424D01*
X118450Y638234D01*
X116767Y636551D01*
X115576Y634489D01*
X114960Y632190D01*
Y629810D01*
X115576Y627511D01*
X116767Y625449D01*
X117186Y625030D01*
X116660Y623760D01*
X113179D01*
X109090Y627849D01*
Y662154D01*
X110263Y662640D01*
X114418Y658486D01*
D02*
G37*
G36*
X213909Y656137D02*
X214652Y655026D01*
X225092Y644585D01*
Y642788D01*
X225935Y640752D01*
X227494Y639193D01*
X229530Y638350D01*
X230392D01*
X230881Y637094D01*
X230310Y636394D01*
X217605D01*
X212500Y641499D01*
Y656711D01*
X213770Y656836D01*
X213909Y656137D01*
D02*
G37*
G36*
X578617Y636172D02*
X577449Y635674D01*
X573414Y639708D01*
X572303Y640451D01*
X570992Y640712D01*
X566846D01*
X566415Y641982D01*
X567421Y642754D01*
X569050Y644876D01*
X570074Y647348D01*
X570423Y650000D01*
X570074Y652653D01*
X569050Y655124D01*
X567695Y656890D01*
X568185Y658160D01*
X578138D01*
X578617Y636172D01*
D02*
G37*
G36*
X153258Y636794D02*
Y628666D01*
Y620602D01*
Y612602D01*
Y605362D01*
X150578D01*
X149267Y605101D01*
X148156Y604359D01*
X144963Y601166D01*
X143790Y601652D01*
Y606790D01*
X142176D01*
Y615696D01*
X141915Y617007D01*
X141173Y618118D01*
X136534Y622757D01*
X135423Y623499D01*
X134112Y623760D01*
X131341D01*
X130815Y625030D01*
X131234Y625449D01*
X132424Y627511D01*
X133040Y629810D01*
Y632190D01*
X132424Y634489D01*
X131857Y635472D01*
X132703Y636337D01*
X132799Y636380D01*
X134788Y635556D01*
X136992D01*
X139028Y636399D01*
X140587Y637958D01*
X141430Y639994D01*
Y641791D01*
X146215Y646576D01*
X153258D01*
Y636794D01*
D02*
G37*
G36*
X271898Y629022D02*
X273009Y628279D01*
X274320Y628018D01*
X310043D01*
X311314Y626747D01*
X312700Y626173D01*
X313054Y624731D01*
X310101Y621777D01*
X308304D01*
X306267Y620934D01*
X304709Y619376D01*
X303866Y617340D01*
Y615602D01*
X302770Y614877D01*
X302692Y614859D01*
X302234Y615165D01*
X300923Y615426D01*
X287540D01*
Y619040D01*
X271926D01*
Y624310D01*
X271909Y624394D01*
X271922Y624478D01*
X271779Y625047D01*
X271665Y625621D01*
X271618Y625692D01*
X271597Y625775D01*
X271248Y626245D01*
X270922Y626733D01*
X270851Y626780D01*
X270801Y626848D01*
X260111Y636539D01*
X259608Y636840D01*
X259121Y637165D01*
X259037Y637182D01*
X258964Y637226D01*
X258385Y637312D01*
X257810Y637426D01*
X256890D01*
Y642370D01*
X258063Y642856D01*
X271898Y629022D01*
D02*
G37*
G36*
X440395Y630057D02*
X441706Y629796D01*
X452281D01*
X453129Y628526D01*
X452690Y627466D01*
Y625262D01*
X453534Y623226D01*
X455092Y621667D01*
X457128Y620824D01*
X459332D01*
X461368Y621667D01*
X461877Y622176D01*
X477822Y606231D01*
Y604434D01*
X478665Y602398D01*
X480224Y600839D01*
X482260Y599996D01*
X484464D01*
X486500Y600839D01*
X488059Y602398D01*
X488902Y604434D01*
Y606638D01*
X488059Y608674D01*
X486500Y610233D01*
X484464Y611076D01*
X482667D01*
X465217Y628526D01*
X465513Y629550D01*
X465693Y629796D01*
X476101D01*
X511586Y594311D01*
X511582Y594261D01*
X511461Y593041D01*
X511461D01*
Y589927D01*
X505707D01*
X504396Y589666D01*
X504036Y589426D01*
X499540D01*
Y592540D01*
X495120D01*
X494311Y593081D01*
X493000Y593341D01*
X485659D01*
X479424Y599576D01*
X478313Y600319D01*
X477002Y600580D01*
X429260D01*
X427949Y600319D01*
X426838Y599576D01*
X420557Y593296D01*
X418760D01*
X416724Y592453D01*
X415453Y591182D01*
X396727D01*
X395416Y590921D01*
X394304Y590178D01*
X376963Y572838D01*
X375790Y573324D01*
Y591540D01*
X373990D01*
X373504Y592713D01*
X387251Y606460D01*
X407040D01*
Y624300D01*
X408213Y624786D01*
X410821Y622178D01*
X411933Y621435D01*
X413244Y621174D01*
X414247D01*
X414950Y619476D01*
X416579Y617354D01*
X418701Y615726D01*
X421173Y614702D01*
X423825Y614352D01*
X430175D01*
X432827Y614702D01*
X435299Y615726D01*
X437421Y617354D01*
X439050Y619476D01*
X440073Y621948D01*
X440423Y624600D01*
X440073Y627253D01*
X439219Y629315D01*
X440245Y630157D01*
X440395Y630057D01*
D02*
G37*
G36*
X516353Y639578D02*
X517464Y638835D01*
X518775Y638574D01*
X519901D01*
X523116Y635359D01*
Y623189D01*
X523377Y621878D01*
X524120Y620766D01*
X529075Y615811D01*
Y612556D01*
X527901Y612070D01*
X510410Y629561D01*
Y643725D01*
X511680Y644251D01*
X516353Y639578D01*
D02*
G37*
G36*
X497074Y643732D02*
Y624466D01*
X497335Y623155D01*
X498078Y622044D01*
X513890Y606231D01*
Y604434D01*
X514556Y602827D01*
X513479Y602108D01*
X479942Y635644D01*
X479192Y636146D01*
X479577Y637416D01*
X487680D01*
X488991Y637677D01*
X490102Y638420D01*
X495901Y644218D01*
X497074Y643732D01*
D02*
G37*
G36*
X300623Y607455D02*
X301734Y606712D01*
X303045Y606451D01*
X319405D01*
X320715Y606712D01*
X321827Y607455D01*
X322181Y607809D01*
X323385Y607217D01*
Y605852D01*
X318969Y601436D01*
X301033D01*
X299722Y601175D01*
X298611Y600432D01*
X294568Y596390D01*
X286924D01*
X286219Y597446D01*
X286540Y598222D01*
Y600426D01*
X285697Y602462D01*
X284469Y603690D01*
X284531Y604960D01*
X287540D01*
Y608574D01*
X299504D01*
X300623Y607455D01*
D02*
G37*
G36*
X239110Y609496D02*
Y600405D01*
X239014Y600326D01*
X219614D01*
X218303Y600065D01*
X217192Y599322D01*
X214652Y596782D01*
X214062Y595900D01*
X176700D01*
X176214Y597074D01*
X185651Y606511D01*
X233046D01*
X234357Y606771D01*
X235468Y607514D01*
X237937Y609982D01*
X239110Y609496D01*
D02*
G37*
G36*
X264984Y586361D02*
X266096Y585619D01*
X267407Y585358D01*
X300887D01*
X301736Y584088D01*
X301292Y583016D01*
Y582479D01*
X295421Y576608D01*
X293923Y576906D01*
X293495Y577940D01*
X291936Y579499D01*
X289900Y580342D01*
X287696D01*
X285660Y579499D01*
X284389Y578228D01*
X262531D01*
X245330Y595429D01*
X245816Y596602D01*
X254743D01*
X264984Y586361D01*
D02*
G37*
G36*
X364960Y606460D02*
X365382D01*
Y601909D01*
X364111Y600639D01*
X363268Y598602D01*
Y596399D01*
X364111Y594362D01*
X364787Y593686D01*
X364328Y593226D01*
X363585Y592115D01*
X363471Y591540D01*
X357710D01*
Y576910D01*
X356537Y576424D01*
X352942Y580018D01*
X351831Y580761D01*
X350520Y581022D01*
X347790D01*
Y591540D01*
X342176D01*
Y612140D01*
X341915Y613451D01*
X341173Y614562D01*
X338316Y617419D01*
X337204Y618162D01*
X335893Y618423D01*
X324524D01*
X323213Y618162D01*
X322102Y617419D01*
X317985Y613303D01*
X315329D01*
X314624Y614359D01*
X314946Y615135D01*
Y616933D01*
X331447Y633434D01*
X364960D01*
Y606460D01*
D02*
G37*
G36*
X257931Y573138D02*
X257405Y571868D01*
X245574D01*
X238408Y579034D01*
Y591002D01*
X239581Y591488D01*
X257931Y573138D01*
D02*
G37*
G36*
X482972Y576190D02*
X484083Y575447D01*
X485394Y575186D01*
X486460D01*
Y570425D01*
X420290D01*
Y573790D01*
X421339Y574324D01*
X438210D01*
Y571710D01*
X451790D01*
Y583790D01*
X451790D01*
Y584210D01*
X451790D01*
Y586824D01*
X472337D01*
X482972Y576190D01*
D02*
G37*
G36*
X335324Y604201D02*
Y591540D01*
X329710D01*
Y570801D01*
X326959D01*
X326254Y571857D01*
X326596Y572684D01*
Y574888D01*
X325753Y576924D01*
X324194Y578483D01*
X322158Y579326D01*
X319954D01*
X317918Y578483D01*
X316647Y577212D01*
X311761D01*
X311235Y578482D01*
X311529Y578776D01*
X312372Y580812D01*
Y583016D01*
X311529Y585052D01*
X311364Y585216D01*
X311368Y587009D01*
X312037Y587677D01*
X312880Y589714D01*
Y591918D01*
X312302Y593314D01*
X313066Y594584D01*
X320388D01*
X321699Y594845D01*
X322810Y595588D01*
X328230Y601007D01*
X330027D01*
X332063Y601850D01*
X333621Y603409D01*
X334054Y604454D01*
X335324Y604201D01*
D02*
G37*
G36*
X511461Y573196D02*
Y564961D01*
X522100D01*
Y564134D01*
X522361Y562823D01*
X523034Y561816D01*
Y560530D01*
X521376D01*
X519340Y559687D01*
X518069Y558416D01*
X405263D01*
X404605Y559686D01*
X404974Y560210D01*
X407790D01*
Y560210D01*
X408210D01*
Y560210D01*
X420290D01*
Y563574D01*
X488999D01*
X490310Y563835D01*
X491246Y564460D01*
X499540D01*
Y575186D01*
X509471D01*
X511461Y573196D01*
D02*
G37*
G36*
X542166Y588103D02*
Y572861D01*
X540895Y571590D01*
X540052Y569554D01*
Y567350D01*
X540895Y565314D01*
X540436Y563977D01*
X540136Y563777D01*
X534884Y558525D01*
X533808Y559245D01*
X534114Y559984D01*
Y562188D01*
X533271Y564224D01*
X531712Y565783D01*
X529676Y566626D01*
X528952D01*
Y576685D01*
X540896Y588629D01*
X542166Y588103D01*
D02*
G37*
G36*
X544544Y668944D02*
X601037D01*
X605666Y664315D01*
Y600547D01*
X604395Y599276D01*
X603552Y597240D01*
Y595036D01*
X604395Y593000D01*
X605954Y591441D01*
X606801Y591090D01*
X607099Y589592D01*
X596002Y578494D01*
X595259Y577383D01*
X594998Y576072D01*
Y552081D01*
X590756Y547839D01*
X589486Y548365D01*
Y549996D01*
X588643Y552032D01*
X587274Y553400D01*
X584915Y661661D01*
X584778Y662278D01*
X584655Y662897D01*
X584634Y662929D01*
X584626Y662966D01*
X584263Y663484D01*
X583912Y664009D01*
X583881Y664030D01*
X583859Y664061D01*
X583326Y664400D01*
X582801Y664751D01*
X582764Y664759D01*
X582732Y664779D01*
X582109Y664889D01*
X581490Y665012D01*
X546079D01*
X543168Y667923D01*
X543793Y669093D01*
X544544Y668944D01*
D02*
G37*
G36*
X516747Y550294D02*
X513494Y547041D01*
X511461D01*
Y545008D01*
X510380Y543927D01*
X499541D01*
Y547041D01*
X486461D01*
Y538545D01*
X485288Y538059D01*
X473931Y549415D01*
X472820Y550158D01*
X472133Y550294D01*
X472258Y551564D01*
X516221D01*
X516747Y550294D01*
D02*
G37*
G36*
X545962Y543914D02*
X545640Y543138D01*
Y541689D01*
X544417Y540821D01*
X543674Y541129D01*
X541470D01*
X539434Y540286D01*
X537876Y538727D01*
X537033Y536691D01*
Y534487D01*
X537876Y532451D01*
X539434Y530892D01*
X541115Y530196D01*
X540862Y528926D01*
X524541D01*
Y532041D01*
X511461D01*
Y520062D01*
X504952D01*
X504788Y520029D01*
X503806Y520835D01*
Y527663D01*
X510501Y534358D01*
X511461Y533961D01*
Y533961D01*
X524541D01*
Y538492D01*
X531019Y544970D01*
X545256D01*
X545962Y543914D01*
D02*
G37*
G36*
X485753Y527904D02*
X485726Y527713D01*
X484380Y527263D01*
X483706Y527937D01*
X481670Y528780D01*
X479466D01*
X477430Y527937D01*
X475871Y526378D01*
X475044Y524380D01*
X436969D01*
X426960Y534389D01*
X427446Y535562D01*
X452029D01*
X453300Y534291D01*
X455336Y533448D01*
X457540D01*
X459576Y534291D01*
X461135Y535850D01*
X461978Y537886D01*
Y540090D01*
X461135Y542126D01*
X460867Y542393D01*
X461353Y543567D01*
X470090D01*
X485753Y527904D01*
D02*
G37*
G36*
X619880Y552440D02*
X596366Y528926D01*
X544283D01*
X544030Y530196D01*
X545711Y530892D01*
X546981Y532163D01*
X594263D01*
X595574Y532424D01*
X596685Y533167D01*
X616423Y552904D01*
X616961Y553710D01*
X619354D01*
X619880Y552440D01*
D02*
G37*
G36*
X374658Y540285D02*
X360785Y526412D01*
X332760D01*
X332133Y527682D01*
X333050Y528876D01*
X334074Y531348D01*
X334423Y534000D01*
X334074Y536652D01*
X333050Y539124D01*
X332159Y540285D01*
X332785Y541554D01*
X374132D01*
X374658Y540285D01*
D02*
G37*
G36*
X197584Y561244D02*
X197845Y559933D01*
X198588Y558822D01*
X202506Y554903D01*
Y553106D01*
X203349Y551070D01*
X204908Y549512D01*
X206944Y548668D01*
X209148D01*
X211184Y549512D01*
X212742Y551070D01*
X213586Y553106D01*
Y555310D01*
X212742Y557346D01*
X211184Y558905D01*
X209148Y559748D01*
X207351D01*
X204436Y562663D01*
Y569307D01*
X205706Y569432D01*
X205909Y568411D01*
X206652Y567300D01*
X228476Y545475D01*
Y536031D01*
X227205Y534760D01*
X226362Y532724D01*
Y530520D01*
X227205Y528484D01*
X228764Y526925D01*
X230800Y526082D01*
X233004D01*
X235040Y526925D01*
X236599Y528484D01*
X237442Y530520D01*
Y532724D01*
X236599Y534760D01*
X235328Y536031D01*
Y546894D01*
X235067Y548205D01*
X234324Y549316D01*
X228256Y555385D01*
X228782Y556655D01*
X298439D01*
X299750Y556916D01*
X300861Y557659D01*
X307152Y563950D01*
X326782D01*
X327035Y562680D01*
X326554Y562481D01*
X324995Y560922D01*
X324152Y558886D01*
Y556682D01*
X324995Y554646D01*
X325408Y554233D01*
X324882Y552963D01*
X278914D01*
X277603Y552702D01*
X276491Y551960D01*
X247642Y523110D01*
X199752D01*
X199499Y524380D01*
X201299Y525125D01*
X203421Y526754D01*
X205050Y528876D01*
X206073Y531348D01*
X206423Y534000D01*
X206073Y536652D01*
X205050Y539124D01*
X203421Y541246D01*
X201299Y542875D01*
X198827Y543899D01*
X196175Y544248D01*
X189825D01*
X188512Y544075D01*
X187918Y545278D01*
X195304Y552664D01*
X196047Y553775D01*
X196308Y555086D01*
Y578120D01*
X197584D01*
Y561244D01*
D02*
G37*
G36*
X385272Y534389D02*
X365103Y514220D01*
X348833D01*
X347562Y515491D01*
X345526Y516334D01*
X343322D01*
X342090Y515824D01*
X340820Y516672D01*
Y517484D01*
X340486Y518290D01*
X341335Y519560D01*
X362204D01*
X363515Y519821D01*
X364626Y520564D01*
X379625Y535562D01*
X384786D01*
X385272Y534389D01*
D02*
G37*
G36*
X396434Y530011D02*
X396061Y529638D01*
X395218Y527602D01*
Y525398D01*
X396061Y523362D01*
X397620Y521803D01*
X399656Y520960D01*
X401860D01*
X403690Y521718D01*
X404960Y521208D01*
Y509548D01*
X403787Y509062D01*
X396192Y516657D01*
Y518754D01*
X395349Y520790D01*
X393790Y522349D01*
X391754Y523192D01*
X389550D01*
X387514Y522349D01*
X385955Y520790D01*
X385112Y518754D01*
Y516550D01*
X385955Y514514D01*
X387514Y512955D01*
X389550Y512112D01*
X391047D01*
X397575Y505584D01*
X397049Y504314D01*
X355437D01*
X354166Y505585D01*
X352926Y506098D01*
X353179Y507368D01*
X366522D01*
X367833Y507629D01*
X368944Y508372D01*
X391757Y531184D01*
X395948D01*
X396434Y530011D01*
D02*
G37*
G36*
X480210Y509959D02*
X446155D01*
X444844Y509698D01*
X443733Y508955D01*
X441885Y507108D01*
X421040D01*
Y510683D01*
X423567Y513210D01*
X480210D01*
Y509959D01*
D02*
G37*
G36*
X286933Y545055D02*
X286560Y544154D01*
Y541950D01*
X287403Y539914D01*
X288962Y538355D01*
X290998Y537512D01*
X293202D01*
X295238Y538355D01*
X296797Y539914D01*
X297476Y541554D01*
X309215D01*
X309841Y540285D01*
X308950Y539124D01*
X307927Y536652D01*
X307577Y534000D01*
X307927Y531348D01*
X308950Y528876D01*
X309919Y527613D01*
X309392Y526214D01*
X309077Y526151D01*
X307966Y525408D01*
X282209Y499652D01*
X281223Y500462D01*
X281544Y500942D01*
X282866Y504134D01*
X283540Y507523D01*
Y510978D01*
X282866Y514366D01*
X281544Y517559D01*
X279624Y520431D01*
X277181Y522874D01*
X274308Y524794D01*
X271116Y526116D01*
X267728Y526790D01*
X264272D01*
X262444Y526427D01*
X261819Y527597D01*
X280333Y546111D01*
X286228D01*
X286933Y545055D01*
D02*
G37*
G36*
X147234Y527710D02*
X149031D01*
X152230Y524511D01*
X153342Y523769D01*
X154653Y523508D01*
X167640D01*
X168951Y523769D01*
X170062Y524511D01*
X171746Y526195D01*
X173064Y525716D01*
X173153Y524974D01*
X169578Y521399D01*
X168835Y520288D01*
X168574Y518977D01*
Y515790D01*
X167210D01*
Y505710D01*
Y498210D01*
X176790D01*
Y500231D01*
X177682Y500827D01*
X179861Y503006D01*
X181461Y502810D01*
X182579Y501354D01*
X184701Y499725D01*
X187173Y498701D01*
X189825Y498352D01*
X196175D01*
X198827Y498701D01*
X201299Y499725D01*
X203421Y501354D01*
X205050Y503476D01*
X206073Y505948D01*
X206423Y508600D01*
X206073Y511252D01*
X205050Y513724D01*
X204079Y514988D01*
X204706Y516258D01*
X248543D01*
X249460Y515154D01*
X249134Y514366D01*
X248460Y510978D01*
Y507523D01*
X249134Y504134D01*
X250456Y500942D01*
X252376Y498069D01*
X254819Y495626D01*
X255203Y495369D01*
X254835Y494154D01*
X163979D01*
X145402Y512731D01*
Y527326D01*
X146458Y528032D01*
X147234Y527710D01*
D02*
G37*
G36*
X560979Y490974D02*
X562751Y490621D01*
X564522Y490974D01*
X566001Y491962D01*
X567479Y490974D01*
X569251Y490621D01*
X570106Y490791D01*
X571376Y489799D01*
Y481987D01*
X554092Y464702D01*
X553349Y463591D01*
X553088Y462280D01*
Y452239D01*
X551818Y451737D01*
X545982Y457573D01*
X545792Y457700D01*
X546060Y459048D01*
X546395Y459115D01*
X547506Y459858D01*
X552586Y464938D01*
X553329Y466049D01*
X553590Y467360D01*
Y475742D01*
X553329Y477053D01*
X552586Y478164D01*
X540902Y489848D01*
X540810Y489911D01*
X541479Y490974D01*
X543251Y490621D01*
X545022Y490974D01*
X546501Y491962D01*
X547979Y490974D01*
X549751Y490621D01*
X551522Y490974D01*
X553000Y491962D01*
X554479Y490974D01*
X556250Y490621D01*
X558022Y490974D01*
X559501Y491962D01*
X560979Y490974D01*
D02*
G37*
G36*
X521328Y490589D02*
X529130Y482787D01*
Y480990D01*
X529973Y478954D01*
X531532Y477395D01*
X533568Y476552D01*
X535772D01*
X537808Y477395D01*
X539367Y478954D01*
X539732Y479836D01*
X540978Y480084D01*
X545470Y475592D01*
X544750Y474515D01*
X543674Y474960D01*
X541470D01*
X539434Y474117D01*
X538163Y472846D01*
X530429D01*
X514176Y489099D01*
Y490497D01*
X515296Y491096D01*
X515479Y490974D01*
X517251Y490621D01*
X519022Y490974D01*
X519463Y491268D01*
X520586Y491700D01*
X521328Y490589D01*
D02*
G37*
G36*
X435532Y487993D02*
X435006Y486723D01*
X426720D01*
X425409Y486463D01*
X424298Y485720D01*
X416333Y477756D01*
X415160Y478242D01*
Y485636D01*
X414899Y486947D01*
X414156Y488058D01*
X407450Y494765D01*
X407936Y495938D01*
X427587D01*
X435532Y487993D01*
D02*
G37*
G36*
X480210Y490710D02*
X488028D01*
X488086Y490418D01*
X488828Y489307D01*
X495418Y482718D01*
X496529Y481975D01*
X497840Y481714D01*
X505960D01*
X527816Y459858D01*
X528928Y459115D01*
X530239Y458854D01*
X530261D01*
X531200Y457915D01*
X527828Y454542D01*
X527085Y453431D01*
X526825Y452120D01*
Y450654D01*
X526383Y450212D01*
X500380D01*
X499069Y449951D01*
X497958Y449208D01*
X495328Y446579D01*
X494585Y445468D01*
X493675Y445090D01*
X493022Y445526D01*
X491251Y445879D01*
X489479Y445526D01*
X488000Y444538D01*
X486522Y445526D01*
X484750Y445879D01*
X482979Y445526D01*
X481477Y444523D01*
X480866Y443608D01*
X473039D01*
X471768Y444879D01*
X469732Y445722D01*
X467528D01*
X465492Y444879D01*
X464060Y443447D01*
X463467Y443531D01*
X462790Y443836D01*
Y453790D01*
X462790D01*
Y454210D01*
X463733Y455000D01*
X463846Y455076D01*
X464734Y454708D01*
X466938D01*
X468974Y455551D01*
X470245Y456822D01*
X495785D01*
X496556Y454962D01*
X498114Y453403D01*
X500150Y452560D01*
X502354D01*
X504390Y453403D01*
X505949Y454962D01*
X506792Y456998D01*
Y459202D01*
X505949Y461238D01*
X504390Y462796D01*
X502354Y463640D01*
X500150D01*
X499866Y463522D01*
X499104Y463674D01*
X470245D01*
X468974Y464945D01*
X466938Y465788D01*
X465938D01*
X465716Y466058D01*
Y478800D01*
X465455Y480111D01*
X464713Y481223D01*
X454774Y491161D01*
Y494202D01*
X455830Y494908D01*
X456606Y494586D01*
X458403D01*
X482199Y470790D01*
X483311Y470047D01*
X484622Y469786D01*
X501237D01*
X512874Y458149D01*
Y456352D01*
X513717Y454316D01*
X515276Y452757D01*
X517312Y451914D01*
X519516D01*
X521552Y452757D01*
X523111Y454316D01*
X523954Y456352D01*
Y458556D01*
X523111Y460592D01*
X521552Y462151D01*
X519516Y462994D01*
X517719D01*
X505078Y475635D01*
X503967Y476377D01*
X502656Y476638D01*
X486041D01*
X463248Y499431D01*
Y501228D01*
X462907Y502051D01*
X463613Y503107D01*
X480210D01*
Y490710D01*
D02*
G37*
G36*
X593728Y512573D02*
Y450555D01*
X592458Y449706D01*
X591652Y450040D01*
X589448D01*
X587412Y449197D01*
X586141Y447926D01*
X577999D01*
X574701Y451224D01*
X574704Y451229D01*
X575310Y453490D01*
Y455830D01*
X574704Y458091D01*
X573534Y460119D01*
X571879Y461774D01*
X569851Y462944D01*
X567590Y463550D01*
X565250D01*
X564123Y463248D01*
X563466Y464387D01*
X577224Y478146D01*
X577967Y479257D01*
X578228Y480568D01*
Y513210D01*
X593205D01*
X593728Y512573D01*
D02*
G37*
G36*
X438091Y467162D02*
Y455813D01*
X438352Y454502D01*
X439094Y453391D01*
X447158Y445327D01*
X448269Y444585D01*
X449210Y444397D01*
Y441710D01*
X461917D01*
X462882Y441359D01*
X463090Y440564D01*
Y439080D01*
X463933Y437044D01*
X465492Y435485D01*
X467528Y434642D01*
X469732D01*
X471768Y435485D01*
X473039Y436756D01*
X480121D01*
Y425250D01*
X480260Y424551D01*
X479218Y423281D01*
X475891D01*
X465349Y433823D01*
X464238Y434566D01*
X462927Y434827D01*
X447334D01*
X436496Y445665D01*
Y467624D01*
X436821Y467841D01*
X438091Y467162D01*
D02*
G37*
G36*
X515479Y420973D02*
X517251Y420621D01*
X519022Y420973D01*
X520501Y421961D01*
X521979Y420973D01*
X523750Y420621D01*
X525522Y420973D01*
X527001Y421961D01*
X528479Y420973D01*
X530083Y420654D01*
X530412Y420096D01*
X530626Y419401D01*
X526146Y414921D01*
X497535D01*
X497049Y416094D01*
X500173Y419218D01*
X500916Y420329D01*
X500944Y420471D01*
X502355Y421056D01*
X502479Y420973D01*
X504250Y420621D01*
X506022Y420973D01*
X507500Y421961D01*
X508979Y420973D01*
X510750Y420621D01*
X512522Y420973D01*
X514001Y421961D01*
X515479Y420973D01*
D02*
G37*
G36*
X543678Y417440D02*
X544789Y416697D01*
X546100Y416436D01*
X553720D01*
X555031Y416697D01*
X556142Y417440D01*
X558055Y419352D01*
X559325Y418826D01*
Y399139D01*
X554726Y394541D01*
X553456Y395067D01*
Y401320D01*
X553195Y402631D01*
X552453Y403742D01*
X549903Y406293D01*
X548791Y407035D01*
X547480Y407296D01*
X537310D01*
X535999Y407035D01*
X534888Y406293D01*
X531771Y403176D01*
X461790D01*
Y405790D01*
X461790D01*
Y406210D01*
X461790D01*
Y407524D01*
X462712Y408397D01*
X468618Y408074D01*
X468712Y408087D01*
X468805Y408069D01*
X527565D01*
X528876Y408330D01*
X529987Y409072D01*
X539173Y418258D01*
X539915Y419369D01*
X539923Y419408D01*
X541299Y419818D01*
X543678Y417440D01*
D02*
G37*
G36*
X433308Y479849D02*
X433357Y479758D01*
X432600Y478488D01*
X431968D01*
X429932Y477645D01*
X428373Y476086D01*
X427530Y474050D01*
Y471846D01*
X428373Y469810D01*
X429644Y468539D01*
Y444246D01*
X429905Y442935D01*
X430648Y441824D01*
X435228Y437243D01*
X434742Y436070D01*
X434508D01*
X432472Y435227D01*
X430913Y433668D01*
X430070Y431632D01*
Y429428D01*
X430913Y427392D01*
X432472Y425833D01*
X434508Y424990D01*
X436305D01*
X444607Y416688D01*
X445718Y415946D01*
X447029Y415685D01*
X448210D01*
Y406210D01*
X448210D01*
Y405790D01*
X448210D01*
Y400304D01*
X447037Y399818D01*
X425828Y421027D01*
Y434503D01*
X427099Y435774D01*
X427942Y437810D01*
Y440014D01*
X427099Y442050D01*
X425540Y443609D01*
X423504Y444452D01*
X421300D01*
X420524Y444130D01*
X419468Y444836D01*
Y471200D01*
X428139Y479872D01*
X433267D01*
X433308Y479849D01*
D02*
G37*
G36*
X447158Y390008D02*
X448269Y389265D01*
X449580Y389004D01*
X502817D01*
X503343Y387734D01*
X502541Y386932D01*
X501698Y384896D01*
Y382692D01*
X502541Y380656D01*
X504100Y379097D01*
X506136Y378254D01*
X508340D01*
X510376Y379097D01*
X511647Y380368D01*
X538758D01*
X539284Y379098D01*
X533544Y373359D01*
X532780Y372899D01*
X531755Y373232D01*
X530927Y373868D01*
X529153Y374602D01*
X527250Y374853D01*
X525347Y374602D01*
X523574Y373868D01*
X522051Y372699D01*
X520882Y371176D01*
X520148Y369403D01*
X519897Y367500D01*
Y365706D01*
X518627Y365453D01*
X518447Y365888D01*
X516889Y367447D01*
X514852Y368290D01*
X512649D01*
X510612Y367447D01*
X509054Y365888D01*
X508211Y363852D01*
Y361648D01*
X508723Y360410D01*
X507875Y359140D01*
X503222D01*
X502833Y360410D01*
X504010Y361943D01*
X504870Y364021D01*
X505164Y366250D01*
Y371250D01*
X504870Y373479D01*
X504010Y375557D01*
X502641Y377341D01*
X500857Y378710D01*
X498780Y379570D01*
X496550Y379864D01*
X494321Y379570D01*
X492243Y378710D01*
X490459Y377341D01*
X489090Y375557D01*
X488230Y373479D01*
X487937Y371250D01*
Y366250D01*
X488230Y364021D01*
X489090Y361943D01*
X490459Y360159D01*
X492243Y358790D01*
X494321Y357930D01*
X494711Y357879D01*
Y346360D01*
Y336360D01*
Y326360D01*
Y316360D01*
Y306360D01*
Y297621D01*
X494321Y297570D01*
X492243Y296709D01*
X490459Y295340D01*
X489090Y293557D01*
X488230Y291479D01*
X487937Y289250D01*
Y284250D01*
X488230Y282020D01*
X489090Y279943D01*
X490459Y278159D01*
X492243Y276790D01*
X494321Y275930D01*
X496550Y275636D01*
X498780Y275930D01*
X500857Y276790D01*
X502641Y278159D01*
X504010Y279943D01*
X504870Y282020D01*
X505164Y284250D01*
Y289250D01*
X504870Y291479D01*
X504010Y293557D01*
X502833Y295090D01*
X503222Y296360D01*
X507277D01*
X508319Y295090D01*
X508102Y294000D01*
Y291500D01*
X508532Y289338D01*
X509756Y287506D01*
X511589Y286281D01*
X513751Y285851D01*
X515912Y286281D01*
X517745Y287506D01*
X518627Y288826D01*
X519897Y288441D01*
Y288000D01*
X520148Y286097D01*
X520882Y284324D01*
X522051Y282801D01*
X523574Y281632D01*
X525347Y280898D01*
X527250Y280647D01*
X529153Y280898D01*
X530927Y281632D01*
X532449Y282801D01*
X533618Y284324D01*
X534352Y286097D01*
X534603Y288000D01*
Y292000D01*
X534352Y293903D01*
X533618Y295676D01*
X532449Y297199D01*
X530927Y298368D01*
X529153Y299102D01*
X527250Y299353D01*
X525347Y299102D01*
X523574Y298368D01*
X522051Y297199D01*
X520882Y295676D01*
X520530Y294825D01*
X519209Y294955D01*
X518969Y296161D01*
X517745Y297994D01*
X515912Y299218D01*
X513790Y299640D01*
Y306360D01*
Y316360D01*
Y326360D01*
Y336360D01*
Y346360D01*
Y357210D01*
X514852D01*
X516889Y358054D01*
X518447Y359612D01*
X519021Y360998D01*
X520396Y360998D01*
X520882Y359823D01*
X522051Y358301D01*
X523574Y357132D01*
X525347Y356398D01*
X527250Y356147D01*
X529153Y356398D01*
X530736Y357053D01*
X532006Y356552D01*
Y328298D01*
X532267Y326987D01*
X533010Y325876D01*
X536058Y322828D01*
X537169Y322085D01*
X538480Y321824D01*
X540710D01*
Y316360D01*
Y306360D01*
Y296360D01*
X544960D01*
Y265684D01*
X545221Y264373D01*
X545964Y263262D01*
X551609Y257617D01*
X551586Y257055D01*
X550945Y255884D01*
X515445Y255384D01*
X513963Y255067D01*
X512715Y254207D01*
X511891Y252936D01*
X511616Y251445D01*
X511932Y249963D01*
X512792Y248714D01*
X514064Y247890D01*
X515555Y247615D01*
X551055Y248116D01*
X551339Y248176D01*
X552326Y247378D01*
Y229003D01*
X539106Y215782D01*
X538363Y214671D01*
X538102Y213360D01*
Y206763D01*
X537002Y206128D01*
X536489Y206424D01*
X534190Y207040D01*
X531810D01*
X529511Y206424D01*
X527449Y205234D01*
X525766Y203551D01*
X524576Y201489D01*
X523960Y199190D01*
Y196810D01*
X524576Y194511D01*
X525766Y192449D01*
X527449Y190766D01*
X529511Y189576D01*
X531810Y188960D01*
X534190D01*
X536489Y189576D01*
X538551Y190766D01*
X540234Y192449D01*
X541424Y194511D01*
X541441Y194574D01*
X541528D01*
X542839Y194835D01*
X543578Y193801D01*
X543648Y193492D01*
X533667Y183512D01*
X474663D01*
X429426Y228749D01*
Y240559D01*
X429490Y240576D01*
X431551Y241766D01*
X433234Y243449D01*
X434424Y245511D01*
X435040Y247810D01*
Y250190D01*
X434424Y252489D01*
X433234Y254550D01*
X432875Y254909D01*
X433036Y256544D01*
X433206Y256658D01*
X438286Y261738D01*
X439029Y262849D01*
X439290Y264160D01*
Y358140D01*
X439029Y359451D01*
X438286Y360562D01*
X415160Y383689D01*
Y405360D01*
X416333Y405846D01*
X430070Y392109D01*
Y390312D01*
X430913Y388276D01*
X432472Y386717D01*
X434508Y385874D01*
X436712D01*
X438748Y386717D01*
X440307Y388276D01*
X441150Y390312D01*
Y392516D01*
X440307Y394552D01*
X438748Y396111D01*
X436712Y396954D01*
X434915D01*
X419468Y412401D01*
Y415901D01*
X420738Y416427D01*
X447158Y390008D01*
D02*
G37*
G36*
X575269Y441335D02*
X576580Y441074D01*
X581282D01*
X582324Y439804D01*
X582298Y439674D01*
Y384185D01*
X581027Y382914D01*
X580184Y380878D01*
Y378674D01*
X581027Y376638D01*
X582586Y375079D01*
X584622Y374236D01*
X586826D01*
X588862Y375079D01*
X590421Y376638D01*
X591264Y378674D01*
Y380878D01*
X590421Y382914D01*
X589150Y384185D01*
Y438255D01*
X589855Y438960D01*
X591652D01*
X592458Y439294D01*
X593728Y438445D01*
Y349940D01*
X587463Y343676D01*
X559790D01*
Y346360D01*
Y357879D01*
X560179Y357930D01*
X562257Y358790D01*
X564041Y360159D01*
X565410Y361943D01*
X566270Y364021D01*
X566564Y366250D01*
Y371250D01*
X566270Y373479D01*
X565410Y375557D01*
X564041Y377341D01*
X562257Y378710D01*
X560179Y379570D01*
X557950Y379864D01*
X557370Y379787D01*
X556777Y380990D01*
X571673Y395886D01*
X572416Y396998D01*
X572676Y398309D01*
Y422205D01*
X573527Y423478D01*
X573880Y425250D01*
Y440736D01*
X574955Y441415D01*
X575113Y441439D01*
X575269Y441335D01*
D02*
G37*
G36*
X432438Y356721D02*
Y318040D01*
X421805D01*
X409064Y330781D01*
Y378299D01*
X410334Y378825D01*
X432438Y356721D01*
D02*
G37*
G36*
X422574Y238933D02*
Y227330D01*
X422835Y226019D01*
X423578Y224908D01*
X470561Y177924D01*
X470265Y176900D01*
X470085Y176654D01*
X467763D01*
X426856Y217560D01*
X425745Y218303D01*
X424434Y218564D01*
X407819D01*
X404492Y221891D01*
Y224615D01*
X405762Y225464D01*
X406568Y225130D01*
X408772D01*
X410808Y225973D01*
X412367Y227531D01*
X413210Y229568D01*
Y231365D01*
X421304Y239459D01*
X422574Y238933D01*
D02*
G37*
%LPC*%
G36*
X133040Y583040D02*
X114960D01*
Y564960D01*
X133040D01*
Y583040D01*
D02*
G37*
G36*
X125190Y563040D02*
X122810D01*
X120511Y562424D01*
X118450Y561234D01*
X116767Y559551D01*
X115576Y557489D01*
X114960Y555190D01*
Y552810D01*
X115576Y550511D01*
X116767Y548449D01*
X118450Y546766D01*
X120511Y545576D01*
X122810Y544960D01*
X125190D01*
X127490Y545576D01*
X129551Y546766D01*
X131234Y548449D01*
X132424Y550511D01*
X133040Y552810D01*
Y555190D01*
X132424Y557489D01*
X131234Y559551D01*
X129551Y561234D01*
X127490Y562424D01*
X125190Y563040D01*
D02*
G37*
G36*
Y543040D02*
X122810D01*
X120511Y542424D01*
X118450Y541234D01*
X116767Y539551D01*
X115576Y537489D01*
X114960Y535190D01*
Y532810D01*
X115576Y530511D01*
X116767Y528449D01*
X118450Y526766D01*
X120511Y525576D01*
X122810Y524960D01*
X125190D01*
X127490Y525576D01*
X129551Y526766D01*
X131234Y528449D01*
X132424Y530511D01*
X133040Y532810D01*
Y535190D01*
X132424Y537489D01*
X131234Y539551D01*
X129551Y541234D01*
X127490Y542424D01*
X125190Y543040D01*
D02*
G37*
G36*
Y523040D02*
X122810D01*
X120511Y522424D01*
X118450Y521234D01*
X116767Y519551D01*
X115576Y517489D01*
X114960Y515190D01*
Y512810D01*
X115576Y510511D01*
X116767Y508449D01*
X118450Y506766D01*
X120511Y505576D01*
X122810Y504960D01*
X125190D01*
X127490Y505576D01*
X129551Y506766D01*
X131234Y508449D01*
X132424Y510511D01*
X133040Y512810D01*
Y515190D01*
X132424Y517489D01*
X131234Y519551D01*
X129551Y521234D01*
X127490Y522424D01*
X125190Y523040D01*
D02*
G37*
G36*
X628482Y533860D02*
X626278D01*
X624242Y533017D01*
X622683Y531458D01*
X621840Y529422D01*
Y527625D01*
X617084Y522868D01*
X616341Y521757D01*
X616080Y520446D01*
Y387949D01*
X614809Y386678D01*
X613966Y384642D01*
Y382438D01*
X614809Y380402D01*
X616368Y378843D01*
X618404Y378000D01*
X620608D01*
X622644Y378843D01*
X624203Y380402D01*
X625046Y382438D01*
Y384642D01*
X624203Y386678D01*
X622932Y387949D01*
Y498793D01*
X624147Y499161D01*
X624376Y498819D01*
X626819Y496376D01*
X629692Y494456D01*
X632884Y493134D01*
X636273Y492460D01*
X639728D01*
X643117Y493134D01*
X646309Y494456D01*
X649181Y496376D01*
X651625Y498819D01*
X653544Y501692D01*
X654866Y504884D01*
X655540Y508273D01*
Y511727D01*
X654866Y515116D01*
X653544Y518308D01*
X651625Y521181D01*
X649181Y523624D01*
X646309Y525544D01*
X643117Y526866D01*
X639728Y527540D01*
X636273D01*
X634148Y527117D01*
X632920Y528168D01*
Y529422D01*
X632077Y531458D01*
X630518Y533017D01*
X628482Y533860D01*
D02*
G37*
G36*
X630190Y277040D02*
X627810D01*
X625511Y276424D01*
X623449Y275234D01*
X621766Y273551D01*
X620576Y271489D01*
X619960Y269190D01*
Y266810D01*
X620576Y264511D01*
X621766Y262449D01*
X623449Y260766D01*
X625511Y259576D01*
X627810Y258960D01*
X630190D01*
X632489Y259576D01*
X634551Y260766D01*
X636234Y262449D01*
X637424Y264511D01*
X638040Y266810D01*
Y269190D01*
X637424Y271489D01*
X636234Y273551D01*
X634551Y275234D01*
X632489Y276424D01*
X630190Y277040D01*
D02*
G37*
G36*
X634728Y207540D02*
X631273D01*
X627884Y206866D01*
X624692Y205544D01*
X621819Y203624D01*
X619376Y201181D01*
X617456Y198308D01*
X616134Y195116D01*
X615460Y191728D01*
Y188272D01*
X616134Y184884D01*
X617456Y181692D01*
X619376Y178819D01*
X621819Y176376D01*
X624692Y174456D01*
X627884Y173134D01*
X631273Y172460D01*
X634728D01*
X638116Y173134D01*
X641308Y174456D01*
X644181Y176376D01*
X646624Y178819D01*
X648544Y181692D01*
X649866Y184884D01*
X650540Y188272D01*
Y191728D01*
X649866Y195116D01*
X648544Y198308D01*
X646624Y201181D01*
X644181Y203624D01*
X641308Y205544D01*
X638116Y206866D01*
X634728Y207540D01*
D02*
G37*
G36*
X419728Y206540D02*
X416273D01*
X412884Y205866D01*
X409692Y204544D01*
X406819Y202624D01*
X404376Y200181D01*
X402456Y197308D01*
X401134Y194116D01*
X400460Y190728D01*
Y187272D01*
X401134Y183884D01*
X402456Y180692D01*
X404376Y177819D01*
X406819Y175376D01*
X409692Y173456D01*
X412884Y172134D01*
X416273Y171460D01*
X419728D01*
X423116Y172134D01*
X426308Y173456D01*
X429181Y175376D01*
X431624Y177819D01*
X433544Y180692D01*
X434866Y183884D01*
X435540Y187272D01*
Y190728D01*
X434866Y194116D01*
X433544Y197308D01*
X431624Y200181D01*
X429181Y202624D01*
X426308Y204544D01*
X423116Y205866D01*
X419728Y206540D01*
D02*
G37*
G36*
X125190Y796040D02*
X122810D01*
X120511Y795424D01*
X118450Y794234D01*
X116767Y792551D01*
X115576Y790490D01*
X114960Y788190D01*
Y785810D01*
X115576Y783511D01*
X116767Y781450D01*
X118450Y779766D01*
X120511Y778576D01*
X122810Y777960D01*
X125190D01*
X127490Y778576D01*
X129551Y779766D01*
X131234Y781450D01*
X132424Y783511D01*
X133040Y785810D01*
Y788190D01*
X132424Y790490D01*
X131234Y792551D01*
X129551Y794234D01*
X127490Y795424D01*
X125190Y796040D01*
D02*
G37*
G36*
Y776040D02*
X122810D01*
X120511Y775424D01*
X118450Y774234D01*
X116767Y772551D01*
X115576Y770490D01*
X114960Y768190D01*
Y765810D01*
X115576Y763511D01*
X116767Y761450D01*
X118450Y759766D01*
X120511Y758576D01*
X122810Y757960D01*
X125190D01*
X127490Y758576D01*
X129551Y759766D01*
X131234Y761450D01*
X132424Y763511D01*
X133040Y765810D01*
Y768190D01*
X132424Y770490D01*
X131234Y772551D01*
X129551Y774234D01*
X127490Y775424D01*
X125190Y776040D01*
D02*
G37*
G36*
Y756040D02*
X122810D01*
X120511Y755424D01*
X118450Y754234D01*
X116767Y752551D01*
X115576Y750489D01*
X114960Y748190D01*
Y745810D01*
X115576Y743511D01*
X116767Y741449D01*
X118450Y739766D01*
X120511Y738576D01*
X122810Y737960D01*
X125190D01*
X127490Y738576D01*
X129551Y739766D01*
X131234Y741449D01*
X132424Y743511D01*
X133040Y745810D01*
Y748190D01*
X132424Y750489D01*
X131234Y752551D01*
X129551Y754234D01*
X127490Y755424D01*
X125190Y756040D01*
D02*
G37*
G36*
X514190Y207040D02*
X511810D01*
X509511Y206424D01*
X507450Y205234D01*
X505766Y203551D01*
X504576Y201489D01*
X503960Y199190D01*
Y196810D01*
X504576Y194511D01*
X505766Y192449D01*
X507450Y190766D01*
X509511Y189576D01*
X511810Y188960D01*
X514190D01*
X516489Y189576D01*
X518551Y190766D01*
X520234Y192449D01*
X521424Y194511D01*
X522040Y196810D01*
Y199190D01*
X521424Y201489D01*
X520234Y203551D01*
X518551Y205234D01*
X516489Y206424D01*
X514190Y207040D01*
D02*
G37*
G36*
X502040D02*
X483960D01*
Y188960D01*
X502040D01*
Y207040D01*
D02*
G37*
%LPD*%
D13*
X515500Y251500D02*
X551000Y252000D01*
D17*
X90000Y485000D02*
Y835000D01*
X660745D01*
X660750Y834996D01*
Y165000D02*
Y834996D01*
X390000Y165000D02*
X660750D01*
X390000D02*
Y484000D01*
X389000Y485000D02*
X390000Y484000D01*
X90000Y485000D02*
X389000D01*
D21*
X493000Y586000D02*
D03*
Y571000D02*
D03*
X518001Y540501D02*
D03*
Y525501D02*
D03*
X493001Y540501D02*
D03*
Y525501D02*
D03*
X518001Y586501D02*
D03*
Y571501D02*
D03*
D27*
X413000Y512000D02*
D03*
Y526500D02*
D03*
D44*
X124000Y691000D02*
D03*
X629000Y248000D02*
D03*
X124000Y807000D02*
D03*
X426000Y309000D02*
D03*
X124000Y574000D02*
D03*
D45*
Y671000D02*
D03*
Y651000D02*
D03*
Y631000D02*
D03*
X629000Y268000D02*
D03*
Y288000D02*
D03*
Y308000D02*
D03*
X124000Y787000D02*
D03*
Y767000D02*
D03*
Y747000D02*
D03*
X426000Y249000D02*
D03*
Y269000D02*
D03*
Y289000D02*
D03*
X553000Y198000D02*
D03*
X533000D02*
D03*
X513000D02*
D03*
X124000Y554000D02*
D03*
Y534000D02*
D03*
Y514000D02*
D03*
D46*
X493000Y198000D02*
D03*
D58*
X566928Y711962D02*
X573532D01*
X537464D02*
X566928D01*
X609600Y679958D02*
X618760Y670798D01*
X590000Y699558D02*
X609600Y679958D01*
X573532Y711962D02*
X596646Y688848D01*
X566928Y711962D02*
X590000Y688890D01*
X557530Y721360D02*
X566928Y711962D01*
X576580Y589960D02*
Y631698D01*
Y567436D02*
Y589960D01*
Y564388D02*
Y567436D01*
X526542Y637286D02*
X533908D01*
X563880D02*
X570992D01*
X526034D02*
X526542D01*
X570498Y561354D02*
X576580Y567436D01*
X566420Y557276D02*
X570498Y561354D01*
X573546D02*
X576580Y564388D01*
X560588Y548396D02*
X573546Y561354D01*
X570498D02*
X573546D01*
X542558D02*
X570498D01*
X532800Y707298D02*
Y726440D01*
Y705104D02*
Y707298D01*
X537464Y711962D01*
X526542Y701040D02*
X532800Y707298D01*
X526542Y698846D02*
X532800Y705104D01*
X526301Y698605D02*
X526542Y698846D01*
Y701040D01*
Y695128D02*
Y698846D01*
X526301Y694887D02*
Y698605D01*
Y691550D02*
Y694887D01*
X526542Y695128D01*
X513080Y681666D02*
X526301Y694887D01*
X513080Y650240D02*
Y681666D01*
X533908Y637286D02*
Y642000D01*
X534000D01*
X521320D02*
X533908D01*
X518775D02*
X521320D01*
X529600Y548396D02*
X560588D01*
X519694D02*
X529600D01*
X521320Y642000D02*
X526034Y637286D01*
X513500Y649820D02*
X521320Y642000D01*
X513080Y650240D02*
X513500Y649820D01*
X513324Y664679D02*
X513500D01*
Y649820D02*
Y662500D01*
Y647275D02*
Y649820D01*
X529600Y548396D02*
X542558Y561354D01*
X521705Y540501D02*
X529600Y548396D01*
X548386Y265684D02*
Y300250D01*
X529336Y487426D02*
X534670Y482092D01*
X511799Y540501D02*
X519694Y548396D01*
X500380Y529082D02*
X511799Y540501D01*
X518001D01*
X493001D02*
X511799D01*
X499110Y517906D02*
X500380Y519176D01*
X497840Y516636D02*
X499110Y517906D01*
X500380Y529082D02*
Y533122D01*
Y519176D02*
Y529082D01*
Y517906D02*
Y519176D01*
X499110Y517906D02*
X500380D01*
X495300D02*
X499110D01*
X530250Y449235D02*
X536166Y455150D01*
X527802Y446786D02*
X530250Y449235D01*
Y452120D01*
Y433250D02*
Y449235D01*
X270300Y763226D02*
X365716D01*
X369524Y749000D02*
X369570D01*
X381300Y760730D01*
X270300Y763226D02*
X272796Y760730D01*
X261366Y772160D02*
X270300Y763226D01*
X238252Y642128D02*
X241300D01*
X484240Y589916D02*
X493000D01*
X494030Y516636D02*
X495300Y517906D01*
X491251Y513857D02*
X494030Y516636D01*
X497840D01*
X422148D02*
X494030D01*
X238252Y626525D02*
Y639080D01*
X209074Y640080D02*
Y660400D01*
X338750Y577596D02*
X350520D01*
X366750Y590804D02*
X386000Y610054D01*
X368808Y597500D02*
Y621250D01*
X468630Y440182D02*
X484750D01*
X554736Y624600D02*
X557000D01*
X553720D02*
X554736D01*
Y569468D02*
Y624600D01*
X316992Y684022D02*
X324866Y676148D01*
X309626Y691388D02*
X316992Y684022D01*
X335563Y559279D02*
X398780D01*
X331187D02*
X335563D01*
X209074Y579120D02*
Y587010D01*
Y569722D02*
Y579120D01*
X416024Y624600D02*
X427000D01*
X413244D02*
X416024D01*
X446155Y506533D02*
X454660D01*
X484750D01*
X407924Y636860D02*
X416024Y628761D01*
X402619Y642165D02*
X407924Y636860D01*
X416024Y624600D02*
Y628761D01*
X634000Y582946D02*
Y592344D01*
X330800Y705012D02*
Y710000D01*
Y690372D02*
Y705012D01*
X451358Y671576D02*
Y681736D01*
X365410Y672750D02*
X386000D01*
X348422D02*
X365410D01*
X378714Y686054D01*
X348234Y655574D02*
X365410Y672750D01*
X556514Y433250D02*
Y462280D01*
Y422656D02*
Y433250D01*
X573278Y516636D02*
X594832D01*
X439000Y749300D02*
Y772922D01*
X257208Y617936D02*
X257810D01*
X248000D02*
X257208D01*
X263144Y612000D01*
X257162Y617982D02*
X257208Y617936D01*
X192278Y617982D02*
X257162D01*
X184232Y609936D02*
X192278Y617982D01*
X163576Y589280D02*
X184232Y609936D01*
X233046D01*
X162148D02*
X184232D01*
X402590Y787400D02*
Y795000D01*
X155938Y550768D02*
X179000D01*
X500500Y624466D02*
Y653662D01*
X499104Y460248D02*
X501252Y458100D01*
X465836Y460248D02*
X499104D01*
X233074Y579523D02*
Y587010D01*
Y579523D02*
X244156Y568442D01*
X292100D01*
X305572Y581914D01*
X306832D01*
X335280Y492760D02*
Y516382D01*
Y492760D02*
X338074Y489966D01*
X400558D01*
X405638Y484886D01*
Y329362D02*
Y484886D01*
Y329362D02*
X426000Y309000D01*
X209074Y640080D02*
X216186Y632968D01*
X234990D01*
X241300Y642128D02*
X248000D01*
X238252Y639080D02*
X241300Y642128D01*
X238252Y626525D02*
X248000Y625936D01*
X530239Y462280D02*
X534670D01*
X507379Y485140D02*
X530239Y462280D01*
X497840Y485140D02*
X507379D01*
X491251Y491729D02*
X497840Y485140D01*
X491251Y491729D02*
Y503250D01*
X523750Y493012D02*
X529336Y487426D01*
X538480D01*
X550164Y475742D01*
Y467360D02*
Y475742D01*
X545084Y462280D02*
X550164Y467360D01*
X540410Y462280D02*
X545084D01*
X530250Y452120D02*
X540410Y462280D01*
X523750Y493012D02*
Y503250D01*
X543560Y455150D02*
X549751Y448960D01*
X536166Y455150D02*
X543560D01*
X497751Y421640D02*
Y433250D01*
X491786Y415675D02*
X497751Y421640D01*
X472186Y415675D02*
X491786D01*
X468750Y419111D02*
X472186Y415675D01*
X447029Y419111D02*
X468750D01*
X435610Y430530D02*
X447029Y419111D01*
X550250Y300250D02*
X616750D01*
X629000Y288000D01*
X585724Y439674D02*
X590550Y444500D01*
X585724Y379776D02*
Y439674D01*
X618760Y658000D02*
Y670798D01*
X176880Y580390D02*
Y587010D01*
X171196Y574706D02*
X176880Y580390D01*
X171196Y557276D02*
Y574706D01*
X164862Y540750D02*
X171000D01*
X368808Y621250D02*
X386000D01*
X320388Y598010D02*
X328925Y606547D01*
X301033Y598010D02*
X320388D01*
X295987Y592964D02*
X301033Y598010D01*
X272160Y592964D02*
X295987D01*
X255188Y609936D02*
X272160Y592964D01*
X248000Y609936D02*
X255188D01*
X400758Y526500D02*
X413000D01*
X433070Y444246D02*
Y472948D01*
Y444246D02*
X445915Y431401D01*
X462927D01*
X474472Y419855D01*
X489466D01*
X491251Y433250D01*
X351028Y500888D02*
X398526D01*
X400050Y499364D01*
X429006D01*
X455930Y472440D01*
X484750Y433250D02*
Y440182D01*
X457708Y500126D02*
X484622Y473212D01*
X502656D01*
X518414Y457454D01*
X614000Y555326D02*
Y559750D01*
X594263Y535589D02*
X614000Y555326D01*
X542572Y535589D02*
X594263D01*
X545592Y568452D02*
Y616472D01*
X553720Y624600D01*
X529010Y469420D02*
X542572D01*
X510750Y487680D02*
X529010Y469420D01*
X510750Y487680D02*
Y503250D01*
X553720Y568452D02*
X554736Y569468D01*
X478282Y520954D02*
X480568Y523240D01*
X435550Y520954D02*
X478282D01*
X421894Y534610D02*
X435550Y520954D01*
X390338Y534610D02*
X421894D01*
X366522Y510794D02*
X390338Y534610D01*
X344424Y510794D02*
X366522D01*
X422402Y419608D02*
Y438912D01*
Y419608D02*
X449580Y392430D01*
X538590D01*
X543670Y397510D01*
X233074Y672862D02*
Y676910D01*
X233934Y677770D01*
Y722085D01*
X167500Y788520D02*
X233934Y722085D01*
X167500Y788520D02*
Y793500D01*
X392690Y745750D02*
X419500D01*
X284137Y744351D02*
X286046Y742442D01*
X274087Y744351D02*
X284137D01*
X266446Y699262D02*
Y731520D01*
Y699262D02*
X274320Y691388D01*
Y631444D02*
X314452D01*
X255762Y650002D02*
X274320Y631444D01*
X248000Y650002D02*
X255762D01*
X389382Y742442D02*
X392690Y745750D01*
X286046Y742442D02*
X389382D01*
X271417Y741680D02*
X274087Y744351D01*
X271417Y736491D02*
Y741680D01*
X266446Y731520D02*
X271417Y736491D01*
X274320Y691388D02*
X309626D01*
X401750Y562249D02*
Y567000D01*
X304165Y573786D02*
X321056D01*
X294640Y564262D02*
X304165Y573786D01*
X239394Y564262D02*
X294640D01*
X225074Y578582D02*
X239394Y564262D01*
X225074Y578582D02*
Y587010D01*
X135890Y641096D02*
X144796Y650002D01*
X162148D01*
X298704Y645160D02*
X301699Y642165D01*
X402619D01*
X407924Y629920D02*
X413244Y624600D01*
X407924Y629920D02*
Y636860D01*
X330028D02*
X407924D01*
X309405Y616237D02*
X330028Y636860D01*
X390652Y517352D02*
Y517652D01*
Y517352D02*
X404322Y503682D01*
X443304D01*
X446155Y506533D01*
X484750Y503250D02*
Y506533D01*
X468122Y800500D02*
X510000D01*
X439058Y829564D02*
X468122Y800500D01*
X259080Y829564D02*
X439058D01*
X256022Y826506D02*
X259080Y829564D01*
X256022Y700034D02*
Y826506D01*
Y700034D02*
X270335Y685721D01*
X300053D01*
X330200Y655574D01*
X348234D01*
X378714Y686054D02*
X436880D01*
X451358Y671576D01*
Y651052D02*
Y671576D01*
Y651052D02*
X454660Y647750D01*
X459000D01*
X634000Y592344D02*
Y658000D01*
X633984Y592328D02*
X634000Y592344D01*
X541274Y770890D02*
Y797706D01*
X510000Y800500D02*
X541274Y797706D01*
X504250Y503250D02*
Y515934D01*
X504952Y516636D02*
X573278D01*
X574802Y515112D01*
Y480568D02*
Y515112D01*
X556514Y462280D02*
X574802Y480568D01*
X543251Y422711D02*
X546100Y419862D01*
X543251Y422711D02*
Y433250D01*
X546100Y419862D02*
X553720D01*
X556514Y422656D01*
X556250Y433250D02*
X556514D01*
X248000Y634000D02*
X257810D01*
X268500Y624310D01*
Y612000D02*
Y624310D01*
X263144Y612000D02*
X268500D01*
X106680Y589280D02*
X163576D01*
X438404Y772922D02*
X439000D01*
X487200Y737500D02*
Y744446D01*
X442048Y746252D02*
X487200Y744446D01*
X439000Y749300D02*
X442048Y746252D01*
X476930Y754716D02*
X487200Y744446D01*
X472440Y754716D02*
X476930D01*
X469216Y757940D02*
X472440Y754716D01*
X469216Y757940D02*
Y762430D01*
X435864Y795782D02*
X469216Y762430D01*
X620522Y598170D02*
Y629158D01*
X598424Y576072D02*
X620522Y598170D01*
X598424Y550662D02*
Y576072D01*
X589798Y542036D02*
X598424Y550662D01*
X551180Y542036D02*
X589798D01*
X536750Y445818D02*
X539496Y448564D01*
X536750Y433250D02*
Y445818D01*
Y420680D02*
Y433250D01*
X527565Y411495D02*
X536750Y420680D01*
X468805Y411495D02*
X527565D01*
X455000Y412250D02*
X468805Y411495D01*
X402590Y795000D02*
X410400D01*
X384810Y769620D02*
X402590Y787400D01*
X381000Y769620D02*
X384810D01*
X370425Y759045D02*
X381000Y769620D01*
X351884Y759045D02*
X370425D01*
X345440Y752602D02*
X351884Y759045D01*
X269748Y752602D02*
X345440D01*
X262382Y759968D02*
X269748Y752602D01*
X643636Y713994D02*
X644398D01*
X632280Y702638D02*
X643636Y713994D01*
X632280Y690880D02*
Y702638D01*
Y690880D02*
X650494Y672666D01*
Y565913D02*
Y672666D01*
X597154Y512573D02*
X650494Y565913D01*
X597154Y348521D02*
Y512573D01*
X588882Y340250D02*
X597154Y348521D01*
X588882Y340250D02*
X589026Y340106D01*
X550250Y340250D02*
X589026Y340106D01*
X550250Y340250D02*
X588882D01*
X589026Y340106D02*
X596750D01*
X629000Y308000D01*
X535086Y180086D02*
X553000Y198000D01*
X473244Y180086D02*
X535086D01*
X426000Y227330D02*
X473244Y180086D01*
X426000Y227330D02*
Y249000D01*
X378206Y538988D02*
X456438D01*
X362204Y522986D02*
X378206Y538988D01*
X310388Y522986D02*
X362204D01*
X278130Y490728D02*
X310388Y522986D01*
X162560Y490728D02*
X278130D01*
X141976Y511312D02*
X162560Y490728D01*
X141976Y511312D02*
Y536806D01*
X155938Y550768D01*
X179000D02*
Y552250D01*
X561594Y579500D02*
X569000D01*
X561594D02*
Y611124D01*
X279746Y736000D02*
X356750D01*
X277876Y737870D02*
X279746Y736000D01*
X148336Y533250D02*
X154653Y526934D01*
X167640D01*
X171000Y530294D01*
Y533250D01*
X172000Y503250D02*
X175260D01*
X178844Y506834D01*
Y515648D01*
X182880Y519684D01*
X249061D01*
X278914Y549537D01*
X371019D01*
X376472Y554990D01*
X522478D01*
X225074Y662686D02*
Y672862D01*
X462534Y626364D02*
X483362Y605536D01*
X458230Y626364D02*
X462534D01*
X124000Y691000D02*
X172696D01*
X185008Y678688D01*
Y672862D02*
Y678688D01*
X459000Y660250D02*
Y670560D01*
X466874Y678434D01*
X495046D01*
X530098Y676148D02*
X544660Y661586D01*
X581490D01*
X583946Y548894D01*
X455000Y399750D02*
X533190D01*
X537310Y403870D01*
X547480D01*
X550030Y401320D01*
Y394195D02*
Y401320D01*
X539630Y383794D02*
X550030Y394195D01*
X507238Y383794D02*
X539630D01*
X414250Y567000D02*
X488999D01*
X493000Y571000D01*
X192882Y672862D02*
Y680720D01*
X150114Y723488D02*
X192882Y680720D01*
X150114Y723488D02*
Y803148D01*
X159826Y812860D01*
X209235D01*
X240792Y781304D01*
Y680408D02*
Y781304D01*
Y680408D02*
X243840Y677360D01*
X291499D01*
X322429Y646430D01*
X404368D01*
X411988Y638810D01*
X436118D01*
X441706Y633222D01*
X477520D01*
X514096Y596646D01*
X523240D01*
X528320Y601726D01*
Y606806D01*
X506984Y628142D02*
X528320Y606806D01*
X506984Y628142D02*
Y681482D01*
X522120Y696618D01*
Y747926D01*
X525780Y751586D01*
X553720D01*
X615696Y689610D01*
X538480Y325250D02*
X550250D01*
X535432Y328298D02*
X538480Y325250D01*
X535432Y328298D02*
Y370402D01*
X562751Y397720D01*
Y433250D01*
X569251Y398309D02*
Y433250D01*
X539750Y368808D02*
X569251Y398309D01*
X539750Y330250D02*
Y368808D01*
Y330250D02*
X550250D01*
X273250Y794500D02*
X327648D01*
X341630Y808482D01*
X453644D01*
X479044Y783082D01*
Y764286D02*
Y783082D01*
Y764286D02*
X619760D01*
X628100Y755946D01*
Y687620D02*
Y755946D01*
Y687620D02*
X646176Y669544D01*
Y567980D02*
Y669544D01*
X594832Y516636D02*
X646176Y567980D01*
X504250Y515934D02*
X504952Y516636D01*
X419500Y733250D02*
X424180D01*
X427228Y736298D01*
Y797814D01*
X431800Y802386D01*
X440690D01*
X474218Y768858D01*
Y763016D02*
Y768858D01*
Y763016D02*
X477520Y759714D01*
X574294D01*
X623919Y710089D01*
Y683289D02*
Y710089D01*
Y683289D02*
X641858Y665350D01*
Y569573D02*
Y665350D01*
X597785Y525501D02*
X641858Y569573D01*
X518001Y525501D02*
X597785D01*
X154432Y658130D02*
X162148D01*
X151654Y660908D02*
X154432Y658130D01*
X116840Y660908D02*
X151654D01*
X109982Y667766D02*
X116840Y660908D01*
X109982Y667766D02*
Y792982D01*
X124000Y807000D01*
X201010Y561244D02*
Y587010D01*
Y561244D02*
X208046Y554208D01*
X179000Y559750D02*
Y567016D01*
X185008Y573024D01*
Y587010D01*
X192882Y555086D02*
Y587010D01*
X176784Y538988D02*
X192882Y555086D01*
X176784Y523761D02*
Y538988D01*
X172000Y518977D02*
X176784Y523761D01*
X172000Y510750D02*
Y518977D01*
X248000Y658130D02*
X269164D01*
X233074Y664718D02*
Y672862D01*
Y664718D02*
X271780D01*
X276098Y660400D01*
Y640080D02*
Y660400D01*
X398780Y559279D02*
X401750Y562249D01*
X329692Y557784D02*
X331187Y559279D01*
X231902Y531622D02*
Y546894D01*
X209074Y569722D02*
X231902Y546894D01*
X596646Y679958D02*
X609600D01*
X500500Y653662D02*
Y662500D01*
X487680Y640842D02*
X500500Y653662D01*
X452120Y640842D02*
X487680D01*
X442722Y650240D02*
X452120Y640842D01*
X442722Y650240D02*
Y655320D01*
X436880Y661162D02*
X442722Y655320D01*
X412750Y661162D02*
X436880D01*
X402844Y651256D02*
X412750Y661162D01*
X328606Y651256D02*
X402844D01*
X298322Y681540D02*
X328606Y651256D01*
X252164Y681540D02*
X298322D01*
X245110Y688594D02*
X252164Y681540D01*
X245110Y688594D02*
Y802132D01*
X230124Y817118D02*
X245110Y802132D01*
X111760Y817118D02*
X230124D01*
X105664Y811022D02*
X111760Y817118D01*
X105664Y626430D02*
Y811022D01*
Y626430D02*
X111760Y620334D01*
X134112D01*
X138750Y615696D01*
Y602000D02*
Y615696D01*
X630174Y579120D02*
X634000Y582946D01*
X413000Y512000D02*
X417512D01*
X422148Y516636D01*
X570992Y637286D02*
X576580Y631698D01*
X366522Y764032D02*
Y767461D01*
X365716Y763226D02*
X366522Y764032D01*
X261366Y772160D02*
Y817880D01*
X549751Y433250D02*
Y448960D01*
X500380Y446786D02*
X527802D01*
X497751Y444157D02*
X500380Y446786D01*
X497751Y433250D02*
Y444157D01*
X519684Y671068D02*
Y678688D01*
X523748Y682752D01*
X534162D01*
X544544Y672370D01*
X602456D01*
X609092Y665734D01*
Y596138D02*
Y665734D01*
X471509Y546993D02*
X493001Y525501D01*
X385676Y546993D02*
X471509D01*
X383663Y544980D02*
X385676Y546993D01*
X294028Y544980D02*
X383663D01*
X292100Y543052D02*
X294028Y544980D01*
X159766Y769874D02*
X224028Y705612D01*
X159766Y769874D02*
Y803206D01*
X162560Y806000D01*
X167500D01*
X217074Y657448D02*
X230632Y643890D01*
X217074Y657448D02*
Y672862D01*
X174244Y648970D02*
X197644D01*
X209074Y660400D01*
Y672862D01*
X537880Y721360D02*
X557530D01*
X532800Y726440D02*
X537880Y721360D01*
X532800Y726440D02*
Y737500D01*
X513500Y662500D02*
Y664679D01*
X513324D02*
Y678573D01*
X526301Y691550D01*
X518001Y540501D02*
X521705D01*
X526542Y623189D02*
Y637286D01*
Y623189D02*
X532500Y617230D01*
Y591556D02*
Y617230D01*
X527445Y586501D02*
X532500Y591556D01*
X518001Y586501D02*
X527445D01*
X576580Y444500D02*
X590550D01*
X566420Y454660D02*
X576580Y444500D01*
X574040Y592500D02*
X576580Y589960D01*
X569000Y592500D02*
X574040D01*
X525526Y564134D02*
X528574Y561086D01*
X525526Y564134D02*
Y578104D01*
X539231Y591809D01*
Y623931D01*
X534162Y629000D02*
X539231Y623931D01*
X534000Y629000D02*
X534162D01*
X407670Y230670D02*
X426000Y249000D01*
X217074Y587010D02*
Y594360D01*
X219614Y596900D01*
X239014D01*
X261112Y574802D01*
X288798D01*
X341884Y497586D02*
X345186Y494284D01*
X403086D01*
X411734Y485636D01*
Y382270D02*
Y485636D01*
Y382270D02*
X435864Y358140D01*
Y264160D02*
Y358140D01*
X430784Y259080D02*
X435864Y264160D01*
X416306Y259080D02*
X430784D01*
X401066Y243840D02*
X416306Y259080D01*
X401066Y220472D02*
Y243840D01*
Y220472D02*
X406400Y215138D01*
X424434D01*
X466344Y173228D01*
X554228D01*
X629000Y248000D01*
X614000Y566928D02*
Y572250D01*
Y566928D02*
X627380D01*
X619506Y520446D02*
X627380Y528320D01*
X619506Y383540D02*
Y520446D01*
X369524Y749000D02*
X381254Y760730D01*
X356750Y749000D02*
X369524D01*
X272796Y760730D02*
X304038D01*
X261366Y817880D02*
X263986Y820500D01*
X273250D01*
X526556Y650000D02*
X557000D01*
X521476Y655080D02*
X526556Y650000D01*
X356750Y736000D02*
X387188D01*
X395732Y727456D01*
X456000Y460250D02*
X456482D01*
X462290Y466058D01*
Y478800D01*
X451348Y489743D02*
X462290Y478800D01*
X451348Y489743D02*
Y503221D01*
X454660Y506533D01*
X281000Y599324D02*
Y612000D01*
X237664Y625936D02*
X248000D01*
Y601936D02*
X254254D01*
X267407Y588784D01*
X305308D01*
X307340Y590816D01*
X393854Y577750D02*
X445000D01*
X379563Y563459D02*
X393854Y577750D01*
X348655Y563459D02*
X379563D01*
X344739Y567375D02*
X348655Y563459D01*
X305733Y567375D02*
X344739D01*
X298439Y560081D02*
X305733Y567375D01*
X228113Y560081D02*
X298439D01*
X209074Y579120D02*
X228113Y560081D01*
X234990Y632968D02*
Y638866D01*
X238252Y642128D01*
X500500Y624466D02*
X519430Y605536D01*
X330800Y705012D02*
X345440Y690372D01*
X442722D01*
X451358Y681736D01*
X493000Y586000D02*
Y589916D01*
X477002Y597154D02*
X484240Y589916D01*
X429260Y597154D02*
X477002D01*
X419862Y587756D02*
X429260Y597154D01*
X281000Y612000D02*
X300923D01*
X303045Y609877D01*
X319405D01*
X324524Y614997D01*
X335893D01*
X338750Y612140D01*
Y580000D02*
Y612140D01*
X513500Y647275D02*
X518775Y642000D01*
X150578Y601936D02*
X162148D01*
X144780Y596138D02*
X150578Y601936D01*
X134366Y596138D02*
X144780D01*
X131250Y599254D02*
X134366Y596138D01*
X131250Y599254D02*
Y602000D01*
X241046Y617936D02*
X248000D01*
X233046Y609936D02*
X241046Y617936D01*
X449580Y447750D02*
X456000D01*
X441516Y455813D02*
X449580Y447750D01*
X441516Y455813D02*
Y477520D01*
X435739Y483298D02*
X441516Y477520D01*
X426720Y483298D02*
X435739D01*
X416042Y472619D02*
X426720Y483298D01*
X416042Y410982D02*
Y472619D01*
Y410982D02*
X435610Y391414D01*
X510890Y578612D02*
X518001Y571501D01*
X485394Y578612D02*
X510890D01*
X473756Y590250D02*
X485394Y578612D01*
X445000Y590250D02*
X473756D01*
X330800Y690372D02*
X348422Y672750D01*
X574040Y592500D02*
X575499Y593959D01*
Y625667D01*
X563880Y637286D02*
X575499Y625667D01*
X533908Y637286D02*
X563880D01*
X491251Y503250D02*
Y513857D01*
X493001Y540501D02*
X500380Y533122D01*
X257810Y617936D02*
Y634000D01*
X396727Y587756D02*
X419862D01*
X376610Y567640D02*
X396727Y587756D01*
X356870Y567640D02*
X376610D01*
X356870D02*
Y571246D01*
X350520Y577596D02*
X356870Y571246D01*
X338750Y577596D02*
Y580000D01*
X533000Y198000D02*
X541528D01*
Y213360D01*
X555752Y227584D01*
Y258318D01*
X548386Y265684D02*
X555752Y258318D01*
X548386Y300250D02*
X550250D01*
X505707Y586501D02*
X518001D01*
X505206Y586000D02*
X505707Y586501D01*
X493000Y586000D02*
X505206D01*
X386000Y610054D02*
Y621250D01*
X366750Y580000D02*
Y590804D01*
X151214Y672862D02*
X176880D01*
X149352Y671000D02*
X151214Y672862D01*
X124000Y671000D02*
X149352D01*
D59*
X427000Y624600D02*
D03*
Y650000D02*
D03*
X557000Y624600D02*
D03*
Y650000D02*
D03*
X193000Y508600D02*
D03*
Y534000D02*
D03*
X321000D02*
D03*
Y508600D02*
D03*
D60*
X287000Y666500D02*
D03*
X335800D02*
D03*
D61*
X410400Y795000D02*
D03*
X385000D02*
D03*
X359600D02*
D03*
D62*
X527250Y290000D02*
D03*
Y365500D02*
D03*
D63*
X496550Y286750D02*
D03*
Y368750D02*
D03*
X557950D02*
D03*
Y286750D02*
D03*
D64*
X544201Y697000D02*
D03*
X645801D02*
D03*
D65*
X457800Y710000D02*
D03*
X432400D02*
D03*
X280000D02*
D03*
X305400D02*
D03*
X330800D02*
D03*
X356200D02*
D03*
X381600D02*
D03*
X407000D02*
D03*
X483200D02*
D03*
X508600D02*
D03*
D66*
X633000Y190000D02*
D03*
X418000Y189000D02*
D03*
X638000Y510000D02*
D03*
X266000Y509250D02*
D03*
D67*
X501252Y458100D02*
D03*
X465836Y460248D02*
D03*
X306832Y581914D02*
D03*
X335280Y516382D02*
D03*
X534670Y462280D02*
D03*
Y482092D02*
D03*
X435610Y430530D02*
D03*
X585724Y379776D02*
D03*
X590000Y699558D02*
D03*
X171196Y557276D02*
D03*
X164862Y540750D02*
D03*
X368808Y597500D02*
D03*
X328925Y606547D02*
D03*
X400758Y526500D02*
D03*
X433070Y472948D02*
D03*
X351028Y500888D02*
D03*
X455930Y472440D02*
D03*
X468630Y440182D02*
D03*
X457708Y500126D02*
D03*
X518414Y457454D02*
D03*
X545592Y568452D02*
D03*
X542572Y535589D02*
D03*
Y469420D02*
D03*
X553720Y568452D02*
D03*
X480568Y523240D02*
D03*
X344424Y510794D02*
D03*
X422402Y438912D02*
D03*
X543670Y397510D02*
D03*
X316992Y684022D02*
D03*
X314452Y631444D02*
D03*
X324866Y676148D02*
D03*
X335563Y559279D02*
D03*
X321056Y573786D02*
D03*
X135890Y641096D02*
D03*
X298704Y645160D02*
D03*
X309405Y616237D02*
D03*
X390652Y517652D02*
D03*
X633984Y592328D02*
D03*
X541274Y770890D02*
D03*
X106680Y589280D02*
D03*
X438404Y772922D02*
D03*
X439000Y749300D02*
D03*
X435864Y795782D02*
D03*
X620522Y629158D02*
D03*
X551180Y542036D02*
D03*
X539496Y448564D02*
D03*
X262382Y759968D02*
D03*
X644398Y713994D02*
D03*
X456438Y538988D02*
D03*
X561594Y611124D02*
D03*
X277876Y737870D02*
D03*
X148336Y533250D02*
D03*
X522478Y554990D02*
D03*
X225074Y662686D02*
D03*
X483362Y605536D02*
D03*
X458230Y626364D02*
D03*
X530098Y676148D02*
D03*
X583946Y548894D02*
D03*
X507238Y383794D02*
D03*
X615696Y689610D02*
D03*
X208046Y554208D02*
D03*
X269164Y658130D02*
D03*
X276098Y640080D02*
D03*
X329692Y557784D02*
D03*
X231902Y531622D02*
D03*
X596646Y679958D02*
D03*
X630174Y579120D02*
D03*
X596646Y688848D02*
D03*
X366522Y767461D02*
D03*
X519684Y671068D02*
D03*
X609092Y596138D02*
D03*
X292100Y543052D02*
D03*
X230632Y643890D02*
D03*
X174244Y648970D02*
D03*
X590000Y688890D02*
D03*
X590550Y444500D02*
D03*
X566420Y557276D02*
D03*
X528574Y561086D02*
D03*
X407670Y230670D02*
D03*
X288798Y574802D02*
D03*
X341884Y497586D02*
D03*
X627380Y566928D02*
D03*
Y528320D02*
D03*
X619506Y383540D02*
D03*
X381254Y760730D02*
D03*
X381300D02*
D03*
X304038D02*
D03*
X521476Y655080D02*
D03*
X395732Y727456D02*
D03*
X281000Y599324D02*
D03*
X237664Y625936D02*
D03*
X307340Y590816D02*
D03*
X234990Y632968D02*
D03*
X519430Y605536D02*
D03*
X419862Y587756D02*
D03*
X435610Y391414D02*
D03*
D68*
X495046Y678434D02*
D03*
X224028Y705612D02*
D03*
X566420Y454660D02*
D03*
D69*
X456000Y460250D02*
D03*
Y447750D02*
D03*
X614000Y572250D02*
D03*
Y559750D02*
D03*
X459000Y647750D02*
D03*
Y660250D02*
D03*
X455000Y399750D02*
D03*
Y412250D02*
D03*
X445000Y577750D02*
D03*
Y590250D02*
D03*
X167500Y806000D02*
D03*
Y793500D02*
D03*
X419500Y733250D02*
D03*
Y745750D02*
D03*
D70*
X414250Y567000D02*
D03*
X401750D02*
D03*
D71*
X172000Y510750D02*
D03*
Y503250D02*
D03*
X171000Y540750D02*
D03*
Y533250D02*
D03*
X179000Y559750D02*
D03*
Y552250D02*
D03*
D72*
X534000Y629000D02*
D03*
Y642000D02*
D03*
X356750Y749000D02*
D03*
Y736000D02*
D03*
X569000Y592500D02*
D03*
Y579500D02*
D03*
D73*
X131250Y602000D02*
D03*
X138750D02*
D03*
D74*
X513500Y662500D02*
D03*
X500500D02*
D03*
D75*
X532800Y737500D02*
D03*
X487200D02*
D03*
D76*
X510000Y800500D02*
D03*
D77*
X217074Y587010D02*
D03*
X233074Y672862D02*
D03*
X225074D02*
D03*
X217074D02*
D03*
X209074D02*
D03*
X201010D02*
D03*
X192882D02*
D03*
X176880Y587010D02*
D03*
X185008D02*
D03*
X192882D02*
D03*
X201010D02*
D03*
X209074D02*
D03*
X225074D02*
D03*
X233074D02*
D03*
X176880Y672862D02*
D03*
X185008D02*
D03*
D78*
X162148Y658130D02*
D03*
Y650002D02*
D03*
Y642128D02*
D03*
Y634000D02*
D03*
Y625936D02*
D03*
Y617936D02*
D03*
Y609936D02*
D03*
Y601936D02*
D03*
X248000D02*
D03*
Y609936D02*
D03*
Y617936D02*
D03*
Y625936D02*
D03*
Y634000D02*
D03*
Y642128D02*
D03*
Y650002D02*
D03*
Y658130D02*
D03*
D79*
X491251Y503250D02*
D03*
X497751D02*
D03*
X504250D02*
D03*
X530250D02*
D03*
X523750D02*
D03*
X510750D02*
D03*
X517251D02*
D03*
X556250D02*
D03*
X549751D02*
D03*
X562751D02*
D03*
X569251D02*
D03*
X543251D02*
D03*
X536750D02*
D03*
Y433250D02*
D03*
X543251D02*
D03*
X569251D02*
D03*
X562751D02*
D03*
X549751D02*
D03*
X556250D02*
D03*
X517251D02*
D03*
X510750D02*
D03*
X523750D02*
D03*
X530250D02*
D03*
X504250D02*
D03*
X497751D02*
D03*
X484750D02*
D03*
X491251D02*
D03*
D80*
X484750Y503250D02*
D03*
D81*
X386000Y621250D02*
D03*
Y672750D02*
D03*
D82*
X550250Y355250D02*
D03*
Y350250D02*
D03*
Y345250D02*
D03*
Y340250D02*
D03*
Y335250D02*
D03*
Y330250D02*
D03*
Y325250D02*
D03*
Y320250D02*
D03*
Y315250D02*
D03*
Y310250D02*
D03*
Y305250D02*
D03*
Y300250D02*
D03*
X504250D02*
D03*
Y305250D02*
D03*
Y310250D02*
D03*
Y315250D02*
D03*
Y320250D02*
D03*
Y325250D02*
D03*
Y330250D02*
D03*
Y335250D02*
D03*
Y340250D02*
D03*
Y345250D02*
D03*
Y350250D02*
D03*
Y355250D02*
D03*
D83*
X366750Y580000D02*
D03*
X338750D02*
D03*
D84*
X618760Y658000D02*
D03*
X634000D02*
D03*
D85*
X268500Y612000D02*
D03*
X281000D02*
D03*
D86*
X273250Y794500D02*
D03*
Y820500D02*
D03*
M02*
