G04*
G04 #@! TF.GenerationSoftware,Altium Limited,Altium Designer,22.2.1 (43)*
G04*
G04 Layer_Color=16711935*
%FSLAX44Y44*%
%MOMM*%
G71*
G04*
G04 #@! TF.SameCoordinates,82B9A7A7-C451-481E-A025-ABCBCC36AE2A*
G04*
G04*
G04 #@! TF.FilePolarity,Negative*
G04*
G01*
G75*
%ADD17C,1.2000*%
%ADD34R,1.0032X1.0032*%
%ADD40R,1.3032X1.1532*%
%ADD44R,1.3000X1.3000*%
%ADD45C,1.3000*%
%ADD46R,1.3000X1.3000*%
%ADD47O,2.3622X1.7272*%
%ADD48C,1.7032*%
%ADD49C,2.2032*%
%ADD50O,1.1532X1.5532*%
%ADD51O,1.4032X1.9032*%
%ADD52C,0.2032*%
%ADD53C,2.2352*%
%ADD54O,2.2352X2.9972*%
%ADD55C,3.2032*%
%ADD56C,0.8032*%
%ADD57C,1.4732*%
%ADD87R,1.0532X0.9032*%
%ADD88R,0.9032X1.0532*%
%ADD89R,0.6532X0.7032*%
%ADD90R,1.0032X0.8032*%
%ADD91R,0.7032X0.6532*%
%ADD92R,0.8032X1.0032*%
%ADD93R,1.1532X2.3032*%
%ADD94R,5.7032X6.7032*%
%ADD95R,0.7620X1.4732*%
%ADD96R,1.4732X0.7620*%
%ADD97O,0.6032X2.2032*%
%ADD98R,0.6032X2.2032*%
%ADD99R,3.9032X2.6532*%
%ADD100R,1.6032X0.4732*%
%ADD101R,1.5032X2.0032*%
%ADD102O,1.0922X1.3462*%
%ADD103R,1.0032X1.1032*%
%ADD104R,1.9032X1.3032*%
D17*
X90000Y485000D02*
Y835000D01*
X660745D01*
X660750Y834996D01*
Y165000D02*
Y834996D01*
X390000Y165000D02*
X660750D01*
X390000D02*
Y484000D01*
X389000Y485000D02*
X390000Y484000D01*
X90000Y485000D02*
X389000D01*
D34*
X493000Y586000D02*
D03*
Y571000D02*
D03*
X518001Y540501D02*
D03*
Y525501D02*
D03*
X493001Y540501D02*
D03*
Y525501D02*
D03*
X518001Y586501D02*
D03*
Y571501D02*
D03*
D40*
X413000Y512000D02*
D03*
Y526500D02*
D03*
D44*
X124000Y691000D02*
D03*
X629000Y248000D02*
D03*
X124000Y807000D02*
D03*
X426000Y309000D02*
D03*
X124000Y574000D02*
D03*
D45*
Y671000D02*
D03*
Y651000D02*
D03*
Y631000D02*
D03*
X629000Y268000D02*
D03*
Y288000D02*
D03*
Y308000D02*
D03*
X124000Y787000D02*
D03*
Y767000D02*
D03*
Y747000D02*
D03*
X426000Y249000D02*
D03*
Y269000D02*
D03*
Y289000D02*
D03*
X553000Y198000D02*
D03*
X533000D02*
D03*
X513000D02*
D03*
X124000Y554000D02*
D03*
Y534000D02*
D03*
Y514000D02*
D03*
D46*
X493000Y198000D02*
D03*
D47*
X427000Y624600D02*
D03*
Y650000D02*
D03*
X557000Y624600D02*
D03*
Y650000D02*
D03*
X193000Y508600D02*
D03*
Y534000D02*
D03*
X321000D02*
D03*
Y508600D02*
D03*
D48*
X287000Y666500D02*
D03*
X335800D02*
D03*
D49*
X410400Y795000D02*
D03*
X385000D02*
D03*
X359600D02*
D03*
D50*
X527250Y290000D02*
D03*
Y365500D02*
D03*
D51*
X496550Y286750D02*
D03*
Y368750D02*
D03*
X557950D02*
D03*
Y286750D02*
D03*
D52*
X513751Y362750D02*
D03*
Y292750D02*
D03*
D53*
X544201Y697000D02*
D03*
X645801D02*
D03*
D54*
X457800Y710000D02*
D03*
X432400D02*
D03*
X280000D02*
D03*
X305400D02*
D03*
X330800D02*
D03*
X356200D02*
D03*
X381600D02*
D03*
X407000D02*
D03*
X483200D02*
D03*
X508600D02*
D03*
D55*
X633000Y190000D02*
D03*
X418000Y189000D02*
D03*
X638000Y510000D02*
D03*
X266000Y509250D02*
D03*
D56*
X501252Y458100D02*
D03*
X465836Y460248D02*
D03*
X306832Y581914D02*
D03*
X335280Y516382D02*
D03*
X534670Y462280D02*
D03*
Y482092D02*
D03*
X435610Y430530D02*
D03*
X585724Y379776D02*
D03*
X590000Y699558D02*
D03*
X171196Y557276D02*
D03*
X164862Y540750D02*
D03*
X368808Y597500D02*
D03*
X328925Y606547D02*
D03*
X400758Y526500D02*
D03*
X433070Y472948D02*
D03*
X351028Y500888D02*
D03*
X455930Y472440D02*
D03*
X468630Y440182D02*
D03*
X457708Y500126D02*
D03*
X518414Y457454D02*
D03*
X545592Y568452D02*
D03*
X542572Y535589D02*
D03*
Y469420D02*
D03*
X553720Y568452D02*
D03*
X480568Y523240D02*
D03*
X344424Y510794D02*
D03*
X422402Y438912D02*
D03*
X543670Y397510D02*
D03*
X316992Y684022D02*
D03*
X314452Y631444D02*
D03*
X324866Y676148D02*
D03*
X335563Y559279D02*
D03*
X321056Y573786D02*
D03*
X135890Y641096D02*
D03*
X298704Y645160D02*
D03*
X309405Y616237D02*
D03*
X390652Y517652D02*
D03*
X633984Y592328D02*
D03*
X541274Y770890D02*
D03*
X106680Y589280D02*
D03*
X438404Y772922D02*
D03*
X439000Y749300D02*
D03*
X435864Y795782D02*
D03*
X620522Y629158D02*
D03*
X551180Y542036D02*
D03*
X539496Y448564D02*
D03*
X262382Y759968D02*
D03*
X644398Y713994D02*
D03*
X456438Y538988D02*
D03*
X561594Y611124D02*
D03*
X277876Y737870D02*
D03*
X148336Y533250D02*
D03*
X522478Y554990D02*
D03*
X225074Y662686D02*
D03*
X483362Y605536D02*
D03*
X458230Y626364D02*
D03*
X530098Y676148D02*
D03*
X583946Y548894D02*
D03*
X507238Y383794D02*
D03*
X615696Y689610D02*
D03*
X208046Y554208D02*
D03*
X269164Y658130D02*
D03*
X276098Y640080D02*
D03*
X329692Y557784D02*
D03*
X231902Y531622D02*
D03*
X596646Y679958D02*
D03*
X630174Y579120D02*
D03*
X596646Y688848D02*
D03*
X366522Y767461D02*
D03*
X519684Y671068D02*
D03*
X609092Y596138D02*
D03*
X292100Y543052D02*
D03*
X230632Y643890D02*
D03*
X174244Y648970D02*
D03*
X590000Y688890D02*
D03*
X590550Y444500D02*
D03*
X566420Y557276D02*
D03*
X528574Y561086D02*
D03*
X407670Y230670D02*
D03*
X288798Y574802D02*
D03*
X341884Y497586D02*
D03*
X627380Y566928D02*
D03*
Y528320D02*
D03*
X619506Y383540D02*
D03*
X381254Y760730D02*
D03*
X381300D02*
D03*
X304038D02*
D03*
X521476Y655080D02*
D03*
X395732Y727456D02*
D03*
X281000Y599324D02*
D03*
X237664Y625936D02*
D03*
X307340Y590816D02*
D03*
X234990Y632968D02*
D03*
X519430Y605536D02*
D03*
X419862Y587756D02*
D03*
X435610Y391414D02*
D03*
D57*
X495046Y678434D02*
D03*
X224028Y705612D02*
D03*
X566420Y454660D02*
D03*
D87*
X456000Y460250D02*
D03*
Y447750D02*
D03*
X614000Y572250D02*
D03*
Y559750D02*
D03*
X459000Y647750D02*
D03*
Y660250D02*
D03*
X455000Y399750D02*
D03*
Y412250D02*
D03*
X445000Y577750D02*
D03*
Y590250D02*
D03*
X167500Y806000D02*
D03*
Y793500D02*
D03*
X419500Y733250D02*
D03*
Y745750D02*
D03*
D88*
X414250Y567000D02*
D03*
X401750D02*
D03*
D89*
X172000Y510750D02*
D03*
Y503250D02*
D03*
X171000Y540750D02*
D03*
Y533250D02*
D03*
X179000Y559750D02*
D03*
Y552250D02*
D03*
D90*
X534000Y629000D02*
D03*
Y642000D02*
D03*
X356750Y749000D02*
D03*
Y736000D02*
D03*
X569000Y592500D02*
D03*
Y579500D02*
D03*
D91*
X131250Y602000D02*
D03*
X138750D02*
D03*
D92*
X513500Y662500D02*
D03*
X500500D02*
D03*
D93*
X532800Y737500D02*
D03*
X487200D02*
D03*
D94*
X510000Y800500D02*
D03*
D95*
X217074Y587010D02*
D03*
X233074Y672862D02*
D03*
X225074D02*
D03*
X217074D02*
D03*
X209074D02*
D03*
X201010D02*
D03*
X192882D02*
D03*
X176880Y587010D02*
D03*
X185008D02*
D03*
X192882D02*
D03*
X201010D02*
D03*
X209074D02*
D03*
X225074D02*
D03*
X233074D02*
D03*
X176880Y672862D02*
D03*
X185008D02*
D03*
D96*
X162148Y658130D02*
D03*
Y650002D02*
D03*
Y642128D02*
D03*
Y634000D02*
D03*
Y625936D02*
D03*
Y617936D02*
D03*
Y609936D02*
D03*
Y601936D02*
D03*
X248000D02*
D03*
Y609936D02*
D03*
Y617936D02*
D03*
Y625936D02*
D03*
Y634000D02*
D03*
Y642128D02*
D03*
Y650002D02*
D03*
Y658130D02*
D03*
D97*
X491251Y503250D02*
D03*
X497751D02*
D03*
X504250D02*
D03*
X530250D02*
D03*
X523750D02*
D03*
X510750D02*
D03*
X517251D02*
D03*
X556250D02*
D03*
X549751D02*
D03*
X562751D02*
D03*
X569251D02*
D03*
X543251D02*
D03*
X536750D02*
D03*
Y433250D02*
D03*
X543251D02*
D03*
X569251D02*
D03*
X562751D02*
D03*
X549751D02*
D03*
X556250D02*
D03*
X517251D02*
D03*
X510750D02*
D03*
X523750D02*
D03*
X530250D02*
D03*
X504250D02*
D03*
X497751D02*
D03*
X484750D02*
D03*
X491251D02*
D03*
D98*
X484750Y503250D02*
D03*
D99*
X386000Y621250D02*
D03*
Y672750D02*
D03*
D100*
X550250Y355250D02*
D03*
Y350250D02*
D03*
Y345250D02*
D03*
Y340250D02*
D03*
Y335250D02*
D03*
Y330250D02*
D03*
Y325250D02*
D03*
Y320250D02*
D03*
Y315250D02*
D03*
Y310250D02*
D03*
Y305250D02*
D03*
Y300250D02*
D03*
X504250D02*
D03*
Y305250D02*
D03*
Y310250D02*
D03*
Y315250D02*
D03*
Y320250D02*
D03*
Y325250D02*
D03*
Y330250D02*
D03*
Y335250D02*
D03*
Y340250D02*
D03*
Y345250D02*
D03*
Y350250D02*
D03*
Y355250D02*
D03*
D101*
X366750Y580000D02*
D03*
X338750D02*
D03*
D102*
X618760Y658000D02*
D03*
X634000D02*
D03*
D103*
X268500Y612000D02*
D03*
X281000D02*
D03*
D104*
X273250Y794500D02*
D03*
Y820500D02*
D03*
M02*
