G04*
G04 #@! TF.GenerationSoftware,Altium Limited,Altium Designer,22.2.1 (43)*
G04*
G04 Layer_Color=8388736*
%FSLAX44Y44*%
%MOMM*%
G71*
G04*
G04 #@! TF.SameCoordinates,82B9A7A7-C451-481E-A025-ABCBCC36AE2A*
G04*
G04*
G04 #@! TF.FilePolarity,Negative*
G04*
G01*
G75*
%ADD17C,1.2000*%
G04:AMPARAMS|DCode=31|XSize=3.2032mm|YSize=1.7272mm|CornerRadius=0.4826mm|HoleSize=0mm|Usage=FLASHONLY|Rotation=0.000|XOffset=0mm|YOffset=0mm|HoleType=Round|Shape=RoundedRectangle|*
%AMROUNDEDRECTD31*
21,1,3.2032,0.7620,0,0,0.0*
21,1,2.2380,1.7272,0,0,0.0*
1,1,0.9652,1.1190,-0.3810*
1,1,0.9652,-1.1190,-0.3810*
1,1,0.9652,-1.1190,0.3810*
1,1,0.9652,1.1190,0.3810*
%
%ADD31ROUNDEDRECTD31*%
G04:AMPARAMS|DCode=32|XSize=1.7272mm|YSize=3.2032mm|CornerRadius=0.4826mm|HoleSize=0mm|Usage=FLASHONLY|Rotation=0.000|XOffset=0mm|YOffset=0mm|HoleType=Round|Shape=RoundedRectangle|*
%AMROUNDEDRECTD32*
21,1,1.7272,2.2380,0,0,0.0*
21,1,0.7620,3.2032,0,0,0.0*
1,1,0.9652,0.3810,-1.1190*
1,1,0.9652,-0.3810,-1.1190*
1,1,0.9652,-0.3810,1.1190*
1,1,0.9652,0.3810,1.1190*
%
%ADD32ROUNDEDRECTD32*%
G04:AMPARAMS|DCode=33|XSize=1.7032mm|YSize=3.2032mm|CornerRadius=0.4766mm|HoleSize=0mm|Usage=FLASHONLY|Rotation=0.000|XOffset=0mm|YOffset=0mm|HoleType=Round|Shape=RoundedRectangle|*
%AMROUNDEDRECTD33*
21,1,1.7032,2.2500,0,0,0.0*
21,1,0.7500,3.2032,0,0,0.0*
1,1,0.9532,0.3750,-1.1250*
1,1,0.9532,-0.3750,-1.1250*
1,1,0.9532,-0.3750,1.1250*
1,1,0.9532,0.3750,1.1250*
%
%ADD33ROUNDEDRECTD33*%
%ADD34R,1.0032X1.0032*%
G04:AMPARAMS|DCode=35|XSize=2.2032mm|YSize=1.1032mm|CornerRadius=0.2366mm|HoleSize=0mm|Usage=FLASHONLY|Rotation=90.000|XOffset=0mm|YOffset=0mm|HoleType=Round|Shape=RoundedRectangle|*
%AMROUNDEDRECTD35*
21,1,2.2032,0.6300,0,0,90.0*
21,1,1.7300,1.1032,0,0,90.0*
1,1,0.4732,0.3150,0.8650*
1,1,0.4732,0.3150,-0.8650*
1,1,0.4732,-0.3150,-0.8650*
1,1,0.4732,-0.3150,0.8650*
%
%ADD35ROUNDEDRECTD35*%
G04:AMPARAMS|DCode=36|XSize=2.2032mm|YSize=1.1032mm|CornerRadius=0.2366mm|HoleSize=0mm|Usage=FLASHONLY|Rotation=180.000|XOffset=0mm|YOffset=0mm|HoleType=Round|Shape=RoundedRectangle|*
%AMROUNDEDRECTD36*
21,1,2.2032,0.6300,0,0,180.0*
21,1,1.7300,1.1032,0,0,180.0*
1,1,0.4732,-0.8650,0.3150*
1,1,0.4732,0.8650,0.3150*
1,1,0.4732,0.8650,-0.3150*
1,1,0.4732,-0.8650,-0.3150*
%
%ADD36ROUNDEDRECTD36*%
G04:AMPARAMS|DCode=37|XSize=5.2032mm|YSize=5.2032mm|CornerRadius=0.3516mm|HoleSize=0mm|Usage=FLASHONLY|Rotation=90.000|XOffset=0mm|YOffset=0mm|HoleType=Round|Shape=RoundedRectangle|*
%AMROUNDEDRECTD37*
21,1,5.2032,4.5000,0,0,90.0*
21,1,4.5000,5.2032,0,0,90.0*
1,1,0.7032,2.2500,2.2500*
1,1,0.7032,2.2500,-2.2500*
1,1,0.7032,-2.2500,-2.2500*
1,1,0.7032,-2.2500,2.2500*
%
%ADD37ROUNDEDRECTD37*%
%ADD38R,1.0032X1.0032*%
%ADD39R,2.2032X4.2032*%
%ADD40R,1.3032X1.1532*%
%ADD41R,1.0532X1.1532*%
%ADD42R,3.4032X2.3032*%
%ADD43R,1.1032X2.3032*%
%ADD44R,1.3000X1.3000*%
%ADD45C,1.3000*%
%ADD46R,1.3000X1.3000*%
%ADD47O,2.3622X1.7272*%
%ADD48C,1.7032*%
%ADD49C,2.2032*%
%ADD50O,1.1532X1.5532*%
%ADD51O,1.4032X1.9032*%
%ADD52C,0.2032*%
%ADD53C,2.2352*%
%ADD54O,2.2352X2.9972*%
%ADD55C,3.2032*%
%ADD56C,0.8032*%
%ADD57C,1.4732*%
D17*
X90000Y485000D02*
Y835000D01*
X660745D01*
X660750Y834996D01*
Y165000D02*
Y834996D01*
X390000Y165000D02*
X660750D01*
X390000D02*
Y484000D01*
X389000Y485000D02*
X390000Y484000D01*
X90000Y485000D02*
X389000D01*
D31*
X642000Y610000D02*
D03*
Y630000D02*
D03*
Y649000D02*
D03*
Y667000D02*
D03*
D32*
X524001Y801000D02*
D03*
D33*
X492000D02*
D03*
D34*
X446001Y383499D02*
D03*
Y368499D02*
D03*
X597001Y383499D02*
D03*
Y368499D02*
D03*
X633001Y442499D02*
D03*
Y457499D02*
D03*
D35*
X594470Y415000D02*
D03*
X429370D02*
D03*
X442070D02*
D03*
X454770D02*
D03*
X467470D02*
D03*
X480170D02*
D03*
X492870D02*
D03*
X505570D02*
D03*
X518270D02*
D03*
X530970D02*
D03*
X543670D02*
D03*
X556370D02*
D03*
X569070D02*
D03*
X581770D02*
D03*
Y585000D02*
D03*
X569070D02*
D03*
X556370D02*
D03*
X543670D02*
D03*
X530970D02*
D03*
X518270D02*
D03*
X505570D02*
D03*
X492870D02*
D03*
X480170D02*
D03*
X467470D02*
D03*
X454770D02*
D03*
X442070D02*
D03*
X429370D02*
D03*
X594470D02*
D03*
D36*
X604470Y544450D02*
D03*
Y531750D02*
D03*
Y519050D02*
D03*
Y506350D02*
D03*
Y493650D02*
D03*
Y480950D02*
D03*
Y468250D02*
D03*
X604630Y455550D02*
D03*
X604470Y442850D02*
D03*
Y557150D02*
D03*
D37*
X504300Y490430D02*
D03*
D38*
X532499Y236999D02*
D03*
X517499D02*
D03*
D39*
X205000Y810500D02*
D03*
Y739500D02*
D03*
X590000Y810500D02*
D03*
Y739500D02*
D03*
D40*
X251750Y691500D02*
D03*
Y706000D02*
D03*
D41*
X448250Y790000D02*
D03*
X461750D02*
D03*
X452500Y740750D02*
D03*
X439000D02*
D03*
D42*
X293820Y818002D02*
D03*
D43*
X316820Y761002D02*
D03*
X293820D02*
D03*
X270820D02*
D03*
D44*
X124000Y691000D02*
D03*
X629000Y248000D02*
D03*
X124000Y807000D02*
D03*
X426000Y309000D02*
D03*
X124000Y574000D02*
D03*
D45*
Y671000D02*
D03*
Y651000D02*
D03*
Y631000D02*
D03*
X629000Y268000D02*
D03*
Y288000D02*
D03*
Y308000D02*
D03*
X124000Y787000D02*
D03*
Y767000D02*
D03*
Y747000D02*
D03*
X426000Y249000D02*
D03*
Y269000D02*
D03*
Y289000D02*
D03*
X553000Y198000D02*
D03*
X533000D02*
D03*
X513000D02*
D03*
X124000Y554000D02*
D03*
Y534000D02*
D03*
Y514000D02*
D03*
D46*
X493000Y198000D02*
D03*
D47*
X427000Y624600D02*
D03*
Y650000D02*
D03*
X557000Y624600D02*
D03*
Y650000D02*
D03*
X193000Y508600D02*
D03*
Y534000D02*
D03*
X321000D02*
D03*
Y508600D02*
D03*
D48*
X287000Y666500D02*
D03*
X335800D02*
D03*
D49*
X410400Y795000D02*
D03*
X385000D02*
D03*
X359600D02*
D03*
D50*
X527250Y290000D02*
D03*
Y365500D02*
D03*
D51*
X496550Y286750D02*
D03*
Y368750D02*
D03*
X557950D02*
D03*
Y286750D02*
D03*
D52*
X513751Y362750D02*
D03*
Y292750D02*
D03*
D53*
X544201Y697000D02*
D03*
X645801D02*
D03*
D54*
X457800Y710000D02*
D03*
X432400D02*
D03*
X280000D02*
D03*
X305400D02*
D03*
X330800D02*
D03*
X356200D02*
D03*
X381600D02*
D03*
X407000D02*
D03*
X483200D02*
D03*
X508600D02*
D03*
D55*
X633000Y190000D02*
D03*
X418000Y189000D02*
D03*
X638000Y510000D02*
D03*
X266000Y509250D02*
D03*
D56*
X501252Y458100D02*
D03*
X465836Y460248D02*
D03*
X306832Y581914D02*
D03*
X335280Y516382D02*
D03*
X534670Y462280D02*
D03*
Y482092D02*
D03*
X435610Y430530D02*
D03*
X585724Y379776D02*
D03*
X590000Y699558D02*
D03*
X171196Y557276D02*
D03*
X164862Y540750D02*
D03*
X368808Y597500D02*
D03*
X328925Y606547D02*
D03*
X400758Y526500D02*
D03*
X433070Y472948D02*
D03*
X351028Y500888D02*
D03*
X455930Y472440D02*
D03*
X468630Y440182D02*
D03*
X457708Y500126D02*
D03*
X518414Y457454D02*
D03*
X545592Y568452D02*
D03*
X542572Y535589D02*
D03*
Y469420D02*
D03*
X553720Y568452D02*
D03*
X480568Y523240D02*
D03*
X344424Y510794D02*
D03*
X422402Y438912D02*
D03*
X543670Y397510D02*
D03*
X316992Y684022D02*
D03*
X314452Y631444D02*
D03*
X324866Y676148D02*
D03*
X335563Y559279D02*
D03*
X321056Y573786D02*
D03*
X135890Y641096D02*
D03*
X298704Y645160D02*
D03*
X309405Y616237D02*
D03*
X390652Y517652D02*
D03*
X633984Y592328D02*
D03*
X541274Y770890D02*
D03*
X106680Y589280D02*
D03*
X438404Y772922D02*
D03*
X439000Y749300D02*
D03*
X435864Y795782D02*
D03*
X620522Y629158D02*
D03*
X551180Y542036D02*
D03*
X539496Y448564D02*
D03*
X262382Y759968D02*
D03*
X644398Y713994D02*
D03*
X456438Y538988D02*
D03*
X561594Y611124D02*
D03*
X277876Y737870D02*
D03*
X148336Y533250D02*
D03*
X522478Y554990D02*
D03*
X225074Y662686D02*
D03*
X483362Y605536D02*
D03*
X458230Y626364D02*
D03*
X530098Y676148D02*
D03*
X583946Y548894D02*
D03*
X507238Y383794D02*
D03*
X615696Y689610D02*
D03*
X208046Y554208D02*
D03*
X269164Y658130D02*
D03*
X276098Y640080D02*
D03*
X329692Y557784D02*
D03*
X231902Y531622D02*
D03*
X596646Y679958D02*
D03*
X630174Y579120D02*
D03*
X596646Y688848D02*
D03*
X366522Y767461D02*
D03*
X519684Y671068D02*
D03*
X609092Y596138D02*
D03*
X292100Y543052D02*
D03*
X230632Y643890D02*
D03*
X174244Y648970D02*
D03*
X590000Y688890D02*
D03*
X590550Y444500D02*
D03*
X566420Y557276D02*
D03*
X528574Y561086D02*
D03*
X407670Y230670D02*
D03*
X288798Y574802D02*
D03*
X341884Y497586D02*
D03*
X627380Y566928D02*
D03*
Y528320D02*
D03*
X619506Y383540D02*
D03*
X381254Y760730D02*
D03*
X381300D02*
D03*
X304038D02*
D03*
X521476Y655080D02*
D03*
X395732Y727456D02*
D03*
X281000Y599324D02*
D03*
X237664Y625936D02*
D03*
X307340Y590816D02*
D03*
X234990Y632968D02*
D03*
X519430Y605536D02*
D03*
X419862Y587756D02*
D03*
X435610Y391414D02*
D03*
D57*
X495046Y678434D02*
D03*
X224028Y705612D02*
D03*
X566420Y454660D02*
D03*
M02*
