G04*
G04 #@! TF.GenerationSoftware,Altium Limited,Altium Designer,22.2.1 (43)*
G04*
G04 Layer_Color=65535*
%FSLAX44Y44*%
%MOMM*%
G71*
G04*
G04 #@! TF.SameCoordinates,82B9A7A7-C451-481E-A025-ABCBCC36AE2A*
G04*
G04*
G04 #@! TF.FilePolarity,Positive*
G04*
G01*
G75*
%ADD10C,0.2500*%
%ADD11C,0.2000*%
%ADD12C,0.4000*%
%ADD13C,0.2540*%
%ADD14C,0.1200*%
%ADD15C,0.1540*%
%ADD16C,0.2040*%
%ADD17C,1.2000*%
D10*
X125250Y720000D02*
G03*
X125250Y720000I-1250J0D01*
G01*
X630250Y219000D02*
G03*
X630250Y219000I-1250J0D01*
G01*
X125250Y836000D02*
G03*
X125250Y836000I-1250J0D01*
G01*
X427250Y338000D02*
G03*
X427250Y338000I-1250J0D01*
G01*
X465250Y198000D02*
G03*
X465250Y198000I-1250J0D01*
G01*
X125250Y603000D02*
G03*
X125250Y603000I-1250J0D01*
G01*
X262070Y761002D02*
G03*
X262070Y761002I-1250J0D01*
G01*
D11*
X335800Y644000D02*
G03*
X335800Y689000I0J22500D01*
G01*
X287000D02*
G03*
X287000Y644000I0J-22500D01*
G01*
X93500Y608000D02*
Y714000D01*
X150500D01*
Y608000D02*
Y714000D01*
X93500Y608000D02*
X150500D01*
X659500Y225000D02*
Y331000D01*
X602500Y225000D02*
X659500D01*
X602500D02*
Y331000D01*
X659500D01*
X93500Y724000D02*
Y830000D01*
X150500D01*
Y724000D02*
Y830000D01*
X93500Y724000D02*
X150500D01*
X395500Y226000D02*
X452500D01*
Y332000D01*
X395500D02*
X452500D01*
X395500Y226000D02*
Y332000D01*
X576000Y167500D02*
Y224500D01*
X470000D02*
X576000D01*
X470000Y167500D02*
Y224500D01*
Y167500D02*
X576000D01*
X93500Y491000D02*
Y597000D01*
X150500D01*
Y491000D02*
Y597000D01*
X93500Y491000D02*
X150500D01*
X605550Y685250D02*
Y708750D01*
X618250Y697000D02*
X630950D01*
X559050D02*
X571750D01*
Y685250D02*
Y708750D01*
X618250D01*
Y685250D02*
Y708750D01*
X571750Y685250D02*
X618250D01*
X187250Y806240D02*
Y811240D01*
X184750Y808740D02*
X189750D01*
X163500Y806500D02*
X173500Y816500D01*
X163500Y733500D02*
Y806500D01*
X246500Y733500D02*
Y806500D01*
X236500Y816500D02*
X246500Y806500D01*
X173500Y816500D02*
X191000D01*
X219000D02*
X236500D01*
X219000Y733500D02*
X246500D01*
X163500D02*
X191000D01*
X572250Y806240D02*
Y811240D01*
X569750Y808740D02*
X574750D01*
X548500Y806500D02*
X558500Y816500D01*
X548500Y733500D02*
Y806500D01*
X631500Y733500D02*
Y806500D01*
X621500Y816500D02*
X631500Y806500D01*
X558500Y816500D02*
X576000D01*
X604000D02*
X621500D01*
X604000Y733500D02*
X631500D01*
X548500D02*
X576000D01*
X327320Y774502D02*
Y804502D01*
X260320Y774502D02*
Y804502D01*
X327320D01*
X260320Y774502D02*
X327320D01*
D12*
X442001Y359499D02*
X450001D01*
X593001D02*
X601001D01*
X629001Y433499D02*
X637001D01*
X508499Y232999D02*
Y240999D01*
D13*
X420220Y597760D02*
Y601310D01*
Y398440D02*
Y401990D01*
X420480Y402250D02*
Y597500D01*
X420220Y398440D02*
X619220D01*
X420220Y601310D02*
X619220D01*
Y398440D02*
Y601310D01*
X344600Y762500D02*
X427862D01*
X344600D02*
Y827500D01*
X426910D01*
Y762500D02*
Y826770D01*
X520540Y775540D02*
X530697D01*
X487540Y775618D02*
X497697D01*
X492618Y780697D02*
Y770540D01*
X161540Y620540D02*
Y632776D01*
X165619Y628697D01*
X169697Y632776D01*
Y620540D01*
X175815Y628697D02*
X179894D01*
X181933Y626658D01*
Y620540D01*
X175815D01*
X173776Y622579D01*
X175815Y624619D01*
X181933D01*
X186012Y620540D02*
X190091D01*
X188051D01*
Y628697D01*
X186012D01*
X196209Y620540D02*
Y628697D01*
X202327D01*
X204366Y626658D01*
Y620540D01*
X208445Y626658D02*
X216602D01*
X228838Y630737D02*
X226799Y632776D01*
X222720D01*
X220681Y630737D01*
Y622579D01*
X222720Y620540D01*
X226799D01*
X228838Y622579D01*
X234956Y620540D02*
X239035D01*
X241074Y622579D01*
Y626658D01*
X239035Y628697D01*
X234956D01*
X232917Y626658D01*
Y622579D01*
X234956Y620540D01*
X245153D02*
Y628697D01*
X251271D01*
X253310Y626658D01*
Y620540D01*
X259428Y630737D02*
Y628697D01*
X257389D01*
X261468D01*
X259428D01*
Y622579D01*
X261468Y620540D01*
X267586Y628697D02*
Y620540D01*
Y624619D01*
X269625Y626658D01*
X271664Y628697D01*
X273704D01*
X281861Y620540D02*
X285940D01*
X287979Y622579D01*
Y626658D01*
X285940Y628697D01*
X281861D01*
X279822Y626658D01*
Y622579D01*
X281861Y620540D01*
X292058D02*
X296136D01*
X294097D01*
Y632776D01*
X292058D01*
X302255Y620540D02*
X306333D01*
X304294D01*
Y632776D01*
X302255D01*
X318569Y620540D02*
X314491D01*
X312451Y622579D01*
Y626658D01*
X314491Y628697D01*
X318569D01*
X320609Y626658D01*
Y624619D01*
X312451D01*
X324687Y628697D02*
Y620540D01*
Y624619D01*
X326727Y626658D01*
X328766Y628697D01*
X330805D01*
X161540Y586776D02*
Y578619D01*
X165619Y574540D01*
X169697Y578619D01*
Y586776D01*
X173776Y584737D02*
X175815Y586776D01*
X179894D01*
X181933Y584737D01*
Y576579D01*
X179894Y574540D01*
X175815D01*
X173776Y576579D01*
Y584737D01*
X186012Y574540D02*
Y576579D01*
X188051D01*
Y574540D01*
X186012D01*
X202327D02*
Y586776D01*
X196209Y580658D01*
X204366D01*
X208445Y574540D02*
Y576579D01*
X210484D01*
Y574540D01*
X208445D01*
X226799D02*
X218641D01*
X226799Y582697D01*
Y584737D01*
X224760Y586776D01*
X220681D01*
X218641Y584737D01*
X161540Y609776D02*
Y597540D01*
X169697D01*
X179894D02*
X175815D01*
X173776Y599579D01*
Y603658D01*
X175815Y605697D01*
X179894D01*
X181933Y603658D01*
Y601619D01*
X173776D01*
X186012Y597540D02*
Y605697D01*
X192130D01*
X194169Y603658D01*
Y597540D01*
X200287Y605697D02*
X204366D01*
X206406Y603658D01*
Y597540D01*
X200287D01*
X198248Y599579D01*
X200287Y601619D01*
X206406D01*
X210484Y605697D02*
Y597540D01*
Y601619D01*
X212523Y603658D01*
X214563Y605697D01*
X216602D01*
X230878D02*
X224760D01*
X222720Y603658D01*
Y599579D01*
X224760Y597540D01*
X230878D01*
X234956D02*
X239035D01*
X236996D01*
Y605697D01*
X234956D01*
X253310D02*
X247192D01*
X245153Y603658D01*
Y599579D01*
X247192Y597540D01*
X253310D01*
X269625Y609776D02*
Y597540D01*
X277782D01*
X281861Y605697D02*
Y599579D01*
X283900Y597540D01*
X290018D01*
Y605697D01*
X302255D02*
X296136D01*
X294097Y603658D01*
Y599579D01*
X296136Y597540D01*
X302255D01*
X308372Y605697D02*
X312451D01*
X314491Y603658D01*
Y597540D01*
X308372D01*
X306333Y599579D01*
X308372Y601619D01*
X314491D01*
X318569Y597540D02*
X324687D01*
X326727Y599579D01*
X324687Y601619D01*
X320609D01*
X318569Y603658D01*
X320609Y605697D01*
X326727D01*
X161540Y641540D02*
Y653776D01*
X167658D01*
X169697Y651737D01*
Y647658D01*
X167658Y645619D01*
X161540D01*
X165619D02*
X169697Y641540D01*
X175815D02*
X179894D01*
X181933Y643579D01*
Y647658D01*
X179894Y649697D01*
X175815D01*
X173776Y647658D01*
Y643579D01*
X175815Y641540D01*
X186012Y653776D02*
Y641540D01*
X192130D01*
X194169Y643579D01*
Y645619D01*
Y647658D01*
X192130Y649697D01*
X186012D01*
X200287Y641540D02*
X204366D01*
X206406Y643579D01*
Y647658D01*
X204366Y649697D01*
X200287D01*
X198248Y647658D01*
Y643579D01*
X200287Y641540D01*
X212523Y651737D02*
Y649697D01*
X210484D01*
X214563D01*
X212523D01*
Y643579D01*
X214563Y641540D01*
X226799D02*
X222720D01*
X220681Y643579D01*
Y647658D01*
X222720Y649697D01*
X226799D01*
X228838Y647658D01*
Y645619D01*
X220681D01*
X232917Y649697D02*
Y641540D01*
Y645619D01*
X234956Y647658D01*
X236996Y649697D01*
X239035D01*
X245153Y647658D02*
X253310D01*
X257389Y641540D02*
Y649697D01*
X261468Y653776D01*
X265546Y649697D01*
Y641540D01*
Y647658D01*
X257389D01*
X269625Y649697D02*
Y641540D01*
Y645619D01*
X271664Y647658D01*
X273704Y649697D01*
X275743D01*
X281861Y641540D02*
Y649697D01*
X283900D01*
X285940Y647658D01*
Y641540D01*
Y647658D01*
X287979Y649697D01*
X290018Y647658D01*
Y641540D01*
X397687Y383618D02*
X407843D01*
X402765D01*
Y368382D01*
X412922Y383618D02*
X423078Y368382D01*
Y383618D02*
X412922Y368382D01*
X428157Y383618D02*
Y368382D01*
X435774D01*
X438313Y370922D01*
Y381078D01*
X435774Y383618D01*
X428157D01*
X622604Y586048D02*
Y573352D01*
X625144Y570812D01*
X630222D01*
X632761Y573352D01*
Y586048D01*
X645457Y570812D02*
Y586048D01*
X637840Y578430D01*
X647996D01*
X606687Y368382D02*
Y383618D01*
X614304D01*
X616843Y381078D01*
Y376000D01*
X614304Y373461D01*
X606687D01*
X611765D02*
X616843Y368382D01*
X621922Y383618D02*
X632078Y368382D01*
Y383618D02*
X621922Y368382D01*
X637157Y383618D02*
Y368382D01*
X644774D01*
X647313Y370922D01*
Y381078D01*
X644774Y383618D01*
X637157D01*
X485025Y261618D02*
X474869D01*
Y254000D01*
X479947Y256539D01*
X482486D01*
X485025Y254000D01*
Y248922D01*
X482486Y246383D01*
X477408D01*
X474869Y248922D01*
X490104Y261618D02*
Y251461D01*
X495182Y246383D01*
X500260Y251461D01*
Y261618D01*
X520574Y246383D02*
Y261618D01*
X528191D01*
X530730Y259078D01*
Y254000D01*
X528191Y251461D01*
X520574D01*
X538348Y246383D02*
X543426D01*
X545965Y248922D01*
Y254000D01*
X543426Y256539D01*
X538348D01*
X535809Y254000D01*
Y248922D01*
X538348Y246383D01*
X551044Y256539D02*
Y248922D01*
X553583Y246383D01*
X556122Y248922D01*
X558661Y246383D01*
X561201Y248922D01*
Y256539D01*
X573896Y246383D02*
X568818D01*
X566279Y248922D01*
Y254000D01*
X568818Y256539D01*
X573896D01*
X576436Y254000D01*
Y251461D01*
X566279D01*
X581514Y256539D02*
Y246383D01*
Y251461D01*
X584053Y254000D01*
X586592Y256539D01*
X589132D01*
X266098Y712873D02*
X276255Y697638D01*
Y712873D02*
X266098Y697638D01*
X281333D02*
X286411D01*
X283872D01*
Y712873D01*
X281333Y710334D01*
X323461Y827617D02*
X318382D01*
X320922D01*
Y814922D01*
X318382Y812383D01*
X315843D01*
X313304Y814922D01*
X338696Y812383D02*
X328539D01*
X338696Y822539D01*
Y825078D01*
X336157Y827617D01*
X331078D01*
X328539Y825078D01*
X636843Y733617D02*
Y718382D01*
X644461D01*
X647000Y720922D01*
Y731078D01*
X644461Y733617D01*
X636843D01*
X652078Y718382D02*
X657157D01*
X654618D01*
Y733617D01*
X652078Y731078D01*
X179461Y781078D02*
X176922Y783617D01*
X171843D01*
X169304Y781078D01*
Y770922D01*
X171843Y768382D01*
X176922D01*
X179461Y770922D01*
X194696Y783617D02*
X184539D01*
Y776000D01*
X189618Y778539D01*
X192157D01*
X194696Y776000D01*
Y770922D01*
X192157Y768382D01*
X187078D01*
X184539Y770922D01*
X612461Y779078D02*
X609922Y781618D01*
X604843D01*
X602304Y779078D01*
Y768922D01*
X604843Y766383D01*
X609922D01*
X612461Y768922D01*
X625157Y766383D02*
Y781618D01*
X617539Y774000D01*
X627696D01*
X254289Y673672D02*
X256828Y671133D01*
X261907D01*
X264446Y673672D01*
Y683828D01*
X261907Y686367D01*
X256828D01*
X254289Y683828D01*
X249211Y673672D02*
X246672Y671133D01*
X241593D01*
X239054Y673672D01*
Y676211D01*
X241593Y678750D01*
X244132D01*
X241593D01*
X239054Y681289D01*
Y683828D01*
X241593Y686367D01*
X246672D01*
X249211Y683828D01*
X451007Y818030D02*
X448467Y820569D01*
X443389D01*
X440850Y818030D01*
Y807873D01*
X443389Y805334D01*
X448467D01*
X451007Y807873D01*
X466242Y805334D02*
X456085D01*
X466242Y815491D01*
Y818030D01*
X463703Y820569D01*
X458624D01*
X456085Y818030D01*
X446689Y768754D02*
X444150Y771293D01*
X439071D01*
X436532Y768754D01*
Y758597D01*
X439071Y756058D01*
X444150D01*
X446689Y758597D01*
X451767Y756058D02*
X456845D01*
X454306D01*
Y771293D01*
X451767Y768754D01*
X260858Y847594D02*
X271015Y837437D01*
X260858D02*
X271015Y847594D01*
X260858Y842515D02*
X271015D01*
X265936Y837437D02*
Y847594D01*
X271432Y742846D02*
X281589Y732689D01*
X271432D02*
X281589Y742846D01*
X271432Y737767D02*
X281589D01*
X276510Y732689D02*
Y742846D01*
D14*
X606200Y648699D02*
X609532D01*
X607866Y650365D02*
Y647033D01*
X614531Y646200D02*
X611198D01*
X614531Y649532D01*
Y650365D01*
X613698Y651198D01*
X612031D01*
X611198Y650365D01*
X618696Y646200D02*
Y651198D01*
X616197Y648699D01*
X619529D01*
X621195Y651198D02*
Y647866D01*
X622861Y646200D01*
X624527Y647866D01*
Y651198D01*
D15*
X608540Y630159D02*
X612032D01*
X610286Y631905D02*
Y628413D01*
X617271Y632778D02*
X613778D01*
Y630159D01*
X615524Y631032D01*
X616397D01*
X617271Y630159D01*
Y628413D01*
X616397Y627540D01*
X614651D01*
X613778Y628413D01*
X619017Y632778D02*
Y629286D01*
X620763Y627540D01*
X622509Y629286D01*
Y632778D01*
X613032Y611905D02*
X612159Y612778D01*
X610413D01*
X609540Y611905D01*
Y608413D01*
X610413Y607540D01*
X612159D01*
X613032Y608413D01*
Y610159D01*
X611286D01*
X614778Y607540D02*
Y612778D01*
X618270Y607540D01*
Y612778D01*
X620017D02*
Y607540D01*
X622636D01*
X623509Y608413D01*
Y611905D01*
X622636Y612778D01*
X620017D01*
X610540Y665540D02*
Y670778D01*
X613159D01*
X614032Y669905D01*
Y668159D01*
X613159Y667286D01*
X610540D01*
X615778Y665540D02*
X617524D01*
X616651D01*
Y669032D01*
X615778D01*
X620144Y665540D02*
Y669032D01*
X622763D01*
X623636Y668159D01*
Y665540D01*
X593462Y621539D02*
Y617540D01*
X599460D01*
Y621539D01*
X596461Y617540D02*
Y619539D01*
X593462Y626537D02*
Y624538D01*
X594462Y623538D01*
X598460D01*
X599460Y624538D01*
Y626537D01*
X598460Y627537D01*
X594462D01*
X593462Y626537D01*
Y629536D02*
Y633535D01*
Y631535D01*
X599460D01*
X593462Y641532D02*
Y645531D01*
Y643532D01*
X599460D01*
Y648530D02*
Y650529D01*
X598460Y651529D01*
X596461D01*
X595461Y650529D01*
Y648530D01*
X596461Y647530D01*
X598460D01*
X599460Y648530D01*
Y654528D02*
Y656527D01*
X598460Y657527D01*
X596461D01*
X595461Y656527D01*
Y654528D01*
X596461Y653528D01*
X598460D01*
X599460Y654528D01*
Y659526D02*
Y661526D01*
Y660526D01*
X593462D01*
Y659526D01*
X490540Y761524D02*
Y756286D01*
X494032D01*
X498397D02*
X496651D01*
X495778Y757159D01*
Y758905D01*
X496651Y759778D01*
X498397D01*
X499271Y758905D01*
Y758032D01*
X495778D01*
X504509Y761524D02*
Y756286D01*
X501890D01*
X501017Y757159D01*
Y758905D01*
X501890Y759778D01*
X504509D01*
X511493Y756286D02*
Y761524D01*
X514112D01*
X514985Y760651D01*
Y758905D01*
X514112Y758032D01*
X511493D01*
X513239D02*
X514985Y756286D01*
X516731D02*
X518478D01*
X517604D01*
Y759778D01*
X516731D01*
X521097Y756286D02*
Y759778D01*
X523716D01*
X524589Y758905D01*
Y756286D01*
X528081Y754540D02*
X528954D01*
X529827Y755413D01*
Y759778D01*
X527208D01*
X526335Y758905D01*
Y757159D01*
X527208Y756286D01*
X529827D01*
X392305Y674119D02*
X397797D01*
X395051D01*
Y665881D01*
X400542Y674119D02*
X406034Y665881D01*
Y674119D02*
X400542Y665881D01*
X408780Y674119D02*
Y665881D01*
X412898D01*
X414271Y667254D01*
Y672746D01*
X412898Y674119D01*
X408780D01*
X430746D02*
X425254D01*
Y665881D01*
X430746D01*
X425254Y670000D02*
X428000D01*
X438983Y672746D02*
X437610Y674119D01*
X434865D01*
X433492Y672746D01*
Y671373D01*
X434865Y670000D01*
X437610D01*
X438983Y668627D01*
Y667254D01*
X437610Y665881D01*
X434865D01*
X433492Y667254D01*
X441729Y665881D02*
Y674119D01*
X445848D01*
X447220Y672746D01*
Y670000D01*
X445848Y668627D01*
X441729D01*
X449966Y672746D02*
X451339Y674119D01*
X454085D01*
X455458Y672746D01*
Y671373D01*
X454085Y670000D01*
X452712D01*
X454085D01*
X455458Y668627D01*
Y667254D01*
X454085Y665881D01*
X451339D01*
X449966Y667254D01*
X463695Y665881D02*
X458204D01*
X463695Y671373D01*
Y672746D01*
X462322Y674119D01*
X459576D01*
X458204Y672746D01*
X524305Y666881D02*
Y675118D01*
X528424D01*
X529797Y673745D01*
Y671000D01*
X528424Y669627D01*
X524305D01*
X527051D02*
X529797Y666881D01*
X532542Y675118D02*
X538034Y666881D01*
Y675118D02*
X532542Y666881D01*
X540780Y675118D02*
Y666881D01*
X544898D01*
X546271Y668254D01*
Y673745D01*
X544898Y675118D01*
X540780D01*
X562746D02*
X557254D01*
Y666881D01*
X562746D01*
X557254Y671000D02*
X560000D01*
X570983Y673745D02*
X569610Y675118D01*
X566865D01*
X565492Y673745D01*
Y672373D01*
X566865Y671000D01*
X569610D01*
X570983Y669627D01*
Y668254D01*
X569610Y666881D01*
X566865D01*
X565492Y668254D01*
X573729Y666881D02*
Y675118D01*
X577848D01*
X579221Y673745D01*
Y671000D01*
X577848Y669627D01*
X573729D01*
X581966Y673745D02*
X583339Y675118D01*
X586085D01*
X587458Y673745D01*
Y672373D01*
X586085Y671000D01*
X584712D01*
X586085D01*
X587458Y669627D01*
Y668254D01*
X586085Y666881D01*
X583339D01*
X581966Y668254D01*
X595695Y666881D02*
X590204D01*
X595695Y672373D01*
Y673745D01*
X594322Y675118D01*
X591577D01*
X590204Y673745D01*
X154186Y559119D02*
X159678D01*
X156932D01*
Y550881D01*
X162424Y559119D02*
X167915Y550881D01*
Y559119D02*
X162424Y550881D01*
X170661Y559119D02*
Y550881D01*
X174780D01*
X176152Y552254D01*
Y557746D01*
X174780Y559119D01*
X170661D01*
X187136Y550881D02*
Y556373D01*
X189881Y559119D01*
X192627Y556373D01*
Y550881D01*
Y555000D01*
X187136D01*
X195373Y559119D02*
X200864D01*
X198119D01*
Y550881D01*
X203610D02*
Y559119D01*
X206356Y556373D01*
X209102Y559119D01*
Y550881D01*
X217339Y559119D02*
X211847D01*
Y550881D01*
X217339D01*
X211847Y555000D02*
X214593D01*
X225576Y557746D02*
X224203Y559119D01*
X221458D01*
X220085Y557746D01*
Y552254D01*
X221458Y550881D01*
X224203D01*
X225576Y552254D01*
Y555000D01*
X222831D01*
X228322Y550881D02*
Y556373D01*
X231068Y559119D01*
X233814Y556373D01*
Y550881D01*
Y555000D01*
X228322D01*
X282186Y550881D02*
Y559119D01*
X286305D01*
X287678Y557746D01*
Y555000D01*
X286305Y553627D01*
X282186D01*
X284932D02*
X287678Y550881D01*
X290424Y559119D02*
X295915Y550881D01*
Y559119D02*
X290424Y550881D01*
X298661Y559119D02*
Y550881D01*
X302780D01*
X304153Y552254D01*
Y557746D01*
X302780Y559119D01*
X298661D01*
X315136Y550881D02*
Y556373D01*
X317881Y559119D01*
X320627Y556373D01*
Y550881D01*
Y555000D01*
X315136D01*
X323373Y559119D02*
X328864D01*
X326119D01*
Y550881D01*
X331610D02*
Y559119D01*
X334356Y556373D01*
X337102Y559119D01*
Y550881D01*
X345339Y559119D02*
X339847D01*
Y550881D01*
X345339D01*
X339847Y555000D02*
X342593D01*
X353576Y557746D02*
X352203Y559119D01*
X349458D01*
X348085Y557746D01*
Y552254D01*
X349458Y550881D01*
X352203D01*
X353576Y552254D01*
Y555000D01*
X350831D01*
X356322Y550881D02*
Y556373D01*
X359068Y559119D01*
X361814Y556373D01*
Y550881D01*
Y555000D01*
X356322D01*
D16*
X648921Y383879D02*
X646882Y385918D01*
Y389997D01*
X648921Y392036D01*
X650961D01*
X653000Y389997D01*
Y387957D01*
Y389997D01*
X655039Y392036D01*
X657079D01*
X659118Y389997D01*
Y385918D01*
X657079Y383879D01*
X650961Y396115D02*
X659118Y400193D01*
X650961Y404272D01*
X648921Y408351D02*
X646882Y410390D01*
Y414469D01*
X648921Y416508D01*
X650961D01*
X653000Y414469D01*
Y412430D01*
Y414469D01*
X655039Y416508D01*
X657079D01*
X659118Y414469D01*
Y410390D01*
X657079Y408351D01*
X646882Y420587D02*
X655039D01*
X659118Y424666D01*
X655039Y428744D01*
X646882D01*
X659118Y445059D02*
X646882D01*
Y451177D01*
X648921Y453216D01*
X653000D01*
X655039Y451177D01*
Y445059D01*
X659118Y459334D02*
Y463413D01*
X657079Y465452D01*
X653000D01*
X650961Y463413D01*
Y459334D01*
X653000Y457295D01*
X657079D01*
X659118Y459334D01*
X650961Y469531D02*
X657079D01*
X659118Y471571D01*
X657079Y473610D01*
X659118Y475649D01*
X657079Y477688D01*
X650961D01*
X659118Y487885D02*
Y483806D01*
X657079Y481767D01*
X653000D01*
X650961Y483806D01*
Y487885D01*
X653000Y489925D01*
X655039D01*
Y481767D01*
X650961Y494003D02*
X659118D01*
X655039D01*
X653000Y496043D01*
X650961Y498082D01*
Y500121D01*
D17*
X90000Y485000D02*
Y835000D01*
X660745D01*
X660750Y834996D01*
Y165000D02*
Y834996D01*
X390000Y165000D02*
X660750D01*
X390000D02*
Y484000D01*
X389000Y485000D02*
X390000Y484000D01*
X90000Y485000D02*
X389000D01*
M02*
