G04*
G04 #@! TF.GenerationSoftware,Altium Limited,CircuitMaker,2.0.3 (2.0.3.51)*
G04*
G04 Layer_Color=128*
%FSLAX44Y44*%
%MOMM*%
G71*
G04*
G04 #@! TF.SameCoordinates,E9E563F1-332F-4466-8196-8310A66FFE87*
G04*
G04*
G04 #@! TF.FilePolarity,Positive*
G04*
G01*
G75*
%ADD12C,0.2540*%
%ADD13C,0.1000*%
%ADD14C,0.0500*%
%ADD15C,0.0100*%
%ADD16C,0.1270*%
%ADD97C,0.0508*%
D12*
X535000Y488700D02*
X662000D01*
X535000D02*
Y526800D01*
X662000D01*
Y488700D02*
Y526800D01*
X529515Y172593D02*
Y177672D01*
Y175133D01*
X542211D01*
X544750Y177672D01*
Y180211D01*
X542211Y182750D01*
X544750Y167515D02*
Y162437D01*
Y164976D01*
X529515D01*
X532054Y167515D01*
D13*
X173500Y568500D02*
X256500D01*
X173500Y641500D02*
X183500Y651500D01*
X173500Y568500D02*
Y641500D01*
X256500Y568500D02*
Y641500D01*
X246500Y651500D02*
X256500Y641500D01*
X183500Y651500D02*
X246500D01*
X337320Y606002D02*
Y643002D01*
X270320Y606002D02*
Y643002D01*
X337320D01*
X270320Y606002D02*
X337320D01*
X558500Y568500D02*
X641500D01*
X558500Y641500D02*
X568500Y651500D01*
X558500Y568500D02*
Y641500D01*
X641500Y568500D02*
Y641500D01*
X631500Y651500D02*
X641500Y641500D01*
X568500Y651500D02*
X631500D01*
X473500Y620500D02*
Y629500D01*
X456500Y620500D02*
Y629500D01*
Y620500D02*
X473500D01*
X456500Y629500D02*
X473500D01*
X447250Y571250D02*
Y580250D01*
X464250Y571250D02*
Y580250D01*
X447250D02*
X464250D01*
X447250Y571250D02*
X464250D01*
X266500Y525000D02*
Y542500D01*
X257000Y525000D02*
Y542500D01*
X266500D01*
X257000Y525000D02*
X266500D01*
X132250Y442750D02*
Y453250D01*
X137750Y442750D02*
Y453250D01*
X132250D02*
X137750D01*
X132250Y442750D02*
X137750D01*
X183750Y366750D02*
Y377250D01*
X178250Y366750D02*
Y377250D01*
Y366750D02*
X183750D01*
X178250Y377250D02*
X183750D01*
X182250Y626000D02*
Y643500D01*
X172750Y626000D02*
Y643500D01*
Y626000D02*
X182250D01*
X172750Y643500D02*
X182250D01*
X191750Y385750D02*
Y396250D01*
X186250Y385750D02*
Y396250D01*
Y385750D02*
X191750D01*
X186250Y396250D02*
X191750D01*
X460750Y374750D02*
X478250D01*
X460750Y384250D02*
X478250D01*
X460750Y374750D02*
Y384250D01*
X478250Y374750D02*
Y384250D01*
X508500Y493000D02*
X525500D01*
X508500Y502000D02*
X525500D01*
X508500Y493000D02*
Y502000D01*
X525500Y493000D02*
Y502000D01*
X532250Y359750D02*
Y377250D01*
X541749Y359750D02*
Y377250D01*
X532250D02*
X541749D01*
X532250Y359750D02*
X541749D01*
X548500Y462000D02*
Y479000D01*
X539500Y462000D02*
Y479000D01*
Y462000D02*
X548500D01*
X539500Y479000D02*
X548500D01*
X561000Y398250D02*
X578000D01*
X561000Y389250D02*
X578000D01*
Y398250D01*
X561000Y389250D02*
Y398250D01*
X603750Y394250D02*
Y411750D01*
X594250Y394250D02*
Y411750D01*
Y394250D02*
X603750D01*
X594250Y411750D02*
X603750D01*
X184750Y336750D02*
Y347250D01*
X179250Y336750D02*
Y347250D01*
Y336750D02*
X184750D01*
X179250Y347250D02*
X184750D01*
X264250Y441250D02*
X281750D01*
X264250Y450750D02*
X281750D01*
X264250Y441250D02*
Y450750D01*
X281750Y441250D02*
Y450750D01*
X274250Y625500D02*
Y659500D01*
X292250Y625500D02*
Y659500D01*
X274250D02*
X292250D01*
X274250Y625500D02*
X292250D01*
X345750Y406000D02*
X379750D01*
X345750Y424000D02*
X379750D01*
X345750Y406000D02*
Y424000D01*
X379750Y406000D02*
Y424000D01*
X441750Y379000D02*
Y396500D01*
X451250Y379000D02*
Y396500D01*
X441750D02*
X451250D01*
X441750Y379000D02*
X451250D01*
X487000Y595000D02*
X553000D01*
X487000Y657000D02*
X553000D01*
Y595000D02*
Y657000D01*
X487000Y595000D02*
Y657000D01*
X500500Y395500D02*
Y413000D01*
X510000Y395500D02*
Y413000D01*
X500500D02*
X510000D01*
X500500Y395500D02*
X510000D01*
X371250Y569000D02*
Y586000D01*
X362250Y569000D02*
Y586000D01*
Y569000D02*
X371250D01*
X362250Y586000D02*
X371250D01*
X379500Y434250D02*
Y498750D01*
X413000Y434250D02*
Y498750D01*
X379500D02*
X413000D01*
X379500Y434250D02*
X413000D01*
X424749Y565750D02*
Y583250D01*
X434250Y565750D02*
Y583250D01*
X424749D02*
X434250D01*
X424749Y565750D02*
X434250D01*
X473500Y498250D02*
Y515750D01*
X464000Y498250D02*
Y515750D01*
Y498250D02*
X473500D01*
X464000Y515750D02*
X473500D01*
X562000Y228999D02*
Y331000D01*
X509000Y228999D02*
Y331000D01*
X562000D01*
X509000Y228999D02*
X562000D01*
X215000Y605000D02*
Y615000D01*
X210000Y610000D02*
X220000D01*
X298820Y624502D02*
X308820D01*
X303820Y619502D02*
Y629502D01*
X600000Y605000D02*
Y615000D01*
X595000Y610000D02*
X605000D01*
X654000Y191250D02*
Y227250D01*
X638000Y191250D02*
X654000D01*
X638000D02*
Y227250D01*
X654000D01*
X460500Y625000D02*
X469500D01*
X465000Y620500D02*
Y629500D01*
X451250Y575750D02*
X460250D01*
X455750Y571250D02*
Y580250D01*
X257000Y533750D02*
X266500D01*
X261750Y529000D02*
Y538500D01*
X132250Y448000D02*
X137750D01*
X135000Y445250D02*
Y450750D01*
X178250Y372000D02*
X183750D01*
X181000Y369250D02*
Y374750D01*
X172750Y634750D02*
X182250D01*
X177500Y630000D02*
Y639500D01*
X186250Y391000D02*
X191750D01*
X189000Y388250D02*
Y393750D01*
X215500Y648000D02*
X251500D01*
X215500Y632000D02*
Y648000D01*
Y632000D02*
X251500D01*
Y648000D01*
X469500Y374750D02*
Y384250D01*
X464750Y379500D02*
X474250D01*
X517000Y493000D02*
Y502000D01*
X512500Y497500D02*
X521500D01*
X532250Y368500D02*
X541749D01*
X537000Y363750D02*
Y373250D01*
X539500Y470500D02*
X548500D01*
X544000Y466000D02*
Y475000D01*
X569500Y389250D02*
Y398250D01*
X565000Y393750D02*
X574000D01*
X594250Y403000D02*
X603750D01*
X599000Y398250D02*
Y407750D01*
X179250Y342000D02*
X184750D01*
X182000Y339250D02*
Y344750D01*
X273000Y441250D02*
Y450750D01*
X268250Y446000D02*
X277750D01*
X278250Y642500D02*
X288250D01*
X283250Y637500D02*
Y647500D01*
X362750Y410000D02*
Y420000D01*
X357750Y415000D02*
X367750D01*
X441750Y387750D02*
X451250D01*
X446500Y383000D02*
Y392500D01*
X440500Y369500D02*
X476500D01*
X440500Y353500D02*
Y369500D01*
Y353500D02*
X476500D01*
Y369500D01*
X520000Y610000D02*
Y620000D01*
X515000Y615000D02*
X525000D01*
X500500Y404250D02*
X510000D01*
X505250Y399500D02*
Y409000D01*
X545250Y386750D02*
Y422750D01*
X529250D02*
X545250D01*
X529250Y386750D02*
Y422750D01*
Y386750D02*
X545250D01*
X362250Y577500D02*
X371250D01*
X366750Y573000D02*
Y582000D01*
X391250Y466500D02*
X401250D01*
X396250Y461500D02*
Y471500D01*
X424749Y574500D02*
X434250D01*
X429500Y569750D02*
Y579250D01*
X464000Y507000D02*
X473500D01*
X468750Y502250D02*
Y511750D01*
X530250Y280249D02*
X540250D01*
X535250Y275250D02*
Y285250D01*
X335000Y615249D02*
Y651249D01*
Y615249D02*
X351000D01*
Y651249D01*
X335000D02*
X351000D01*
X569500Y361750D02*
X605500D01*
Y377750D01*
X569500D02*
X605500D01*
X569500Y361750D02*
Y377750D01*
X483500Y354000D02*
X519500D01*
Y370000D01*
X483500D02*
X519500D01*
X483500Y354000D02*
Y370000D01*
D14*
X502248Y217747D02*
X572248D01*
X502248Y107748D02*
Y217747D01*
Y107748D02*
X572248D01*
Y217747D01*
X210499Y560245D02*
X219499D01*
Y589245D01*
X210499Y560245D02*
Y589245D01*
X219500Y630500D02*
Y659500D01*
X210500Y630500D02*
Y659500D01*
X219500D01*
X595499Y560245D02*
X604499D01*
Y589245D01*
X595499Y560245D02*
Y589245D01*
X604500Y630500D02*
Y659500D01*
X595500Y630500D02*
Y659500D01*
X604500D01*
X572248Y107748D02*
Y217747D01*
X502248Y107748D02*
X572248D01*
X502248D02*
Y217747D01*
X572248D01*
X257500Y553500D02*
Y666500D01*
X172500Y553500D02*
X257500D01*
X172500Y666500D02*
X257500D01*
X172500Y553500D02*
Y666500D01*
X338320Y584502D02*
Y664502D01*
X269320Y584502D02*
Y664502D01*
X338320D01*
X269320Y584502D02*
X338320D01*
X642500Y553500D02*
Y666500D01*
X557500Y553500D02*
X642500D01*
X557500Y666500D02*
X642500D01*
X557500Y553500D02*
Y666500D01*
X478500Y617500D02*
Y632500D01*
X451500Y617500D02*
Y632500D01*
Y617500D02*
X478500D01*
X451500Y632500D02*
X478500D01*
X442250Y568250D02*
Y583250D01*
X469250Y568250D02*
Y583250D01*
X442250D02*
X469250D01*
X442250Y568250D02*
X469250D01*
X272250Y516750D02*
Y550750D01*
X251250Y516750D02*
Y550750D01*
X272250D01*
X251250Y516750D02*
X272250D01*
X131000Y440500D02*
Y455500D01*
X139000Y440500D02*
Y455500D01*
X131000D02*
X139000D01*
X131000Y440500D02*
X139000D01*
X185000Y364500D02*
Y379500D01*
X177000Y364500D02*
Y379500D01*
Y364500D02*
X185000D01*
X177000Y379500D02*
X185000D01*
X183500Y623750D02*
Y645750D01*
X171500Y623750D02*
Y645750D01*
Y623750D02*
X183500D01*
X171500Y645750D02*
X183500D01*
X193000Y383500D02*
Y398500D01*
X185000Y383500D02*
Y398500D01*
Y383500D02*
X193000D01*
X185000Y398500D02*
X193000D01*
X458500Y373500D02*
X480500D01*
X458500Y385500D02*
X480500D01*
X458500Y373500D02*
Y385500D01*
X480500Y373500D02*
Y385500D01*
X506500Y492000D02*
X527500D01*
X506500Y503000D02*
X527500D01*
X506500Y492000D02*
Y503000D01*
X527500Y492000D02*
Y503000D01*
X531000Y357500D02*
Y379500D01*
X543000Y357500D02*
Y379500D01*
X531000D02*
X543000D01*
X531000Y357500D02*
X543000D01*
X549500Y460000D02*
Y481000D01*
X538500Y460000D02*
Y481000D01*
Y460000D02*
X549500D01*
X538500Y481000D02*
X549500D01*
X559000Y399250D02*
X580000D01*
X559000Y388250D02*
X580000D01*
Y399250D01*
X559000Y388250D02*
Y399250D01*
X605000Y392000D02*
Y414000D01*
X593000Y392000D02*
Y414000D01*
Y392000D02*
X605000D01*
X593000Y414000D02*
X605000D01*
X186000Y334500D02*
Y349500D01*
X178000Y334500D02*
Y349500D01*
Y334500D02*
X186000D01*
X178000Y349500D02*
X186000D01*
X262000Y440000D02*
X284000D01*
X262000Y452000D02*
X284000D01*
X262000Y440000D02*
Y452000D01*
X284000Y440000D02*
Y452000D01*
X273250Y623000D02*
Y662000D01*
X293250Y623000D02*
Y662000D01*
X273250D02*
X293250D01*
X273250Y623000D02*
X293250D01*
X339750Y403500D02*
X385750D01*
X339750Y426500D02*
X385750D01*
X339750Y403500D02*
Y426500D01*
X385750Y403500D02*
Y426500D01*
X440500Y376750D02*
Y398750D01*
X452500Y376750D02*
Y398750D01*
X440500D02*
X452500D01*
X440500Y376750D02*
X452500D01*
X484500Y559500D02*
X555500D01*
X484500Y670500D02*
X555500D01*
Y559500D02*
Y670500D01*
X484500Y559500D02*
Y670500D01*
X494750Y387250D02*
Y421250D01*
X515750Y387250D02*
Y421250D01*
X494750D02*
X515750D01*
X494750Y387250D02*
X515750D01*
X372250Y567000D02*
Y588000D01*
X361250Y567000D02*
Y588000D01*
Y567000D02*
X372250D01*
X361250Y588000D02*
X372250D01*
X375250Y428000D02*
Y505000D01*
X417250Y428000D02*
Y505000D01*
X375250D02*
X417250D01*
X375250Y428000D02*
X417250D01*
X423500Y563500D02*
Y585500D01*
X435500Y563500D02*
Y585500D01*
X423500D02*
X435500D01*
X423500Y563500D02*
X435500D01*
X474750Y496000D02*
Y518000D01*
X462750Y496000D02*
Y518000D01*
Y496000D02*
X474750D01*
X462750Y518000D02*
X474750D01*
X582500Y226499D02*
Y333499D01*
X488500Y226499D02*
Y333499D01*
X582500D01*
X488500Y226499D02*
X582500D01*
X498750Y220250D02*
X576250D01*
X498750Y105250D02*
Y220250D01*
Y105250D02*
X576250D01*
Y220250D01*
X532250Y162750D02*
X542250D01*
X537250Y157750D02*
Y167750D01*
D15*
X219499Y589245D02*
G03*
X210499Y589245I-4500J0D01*
G01*
X210500Y630500D02*
G03*
X219500Y630500I4500J0D01*
G01*
X250000Y610000D02*
G03*
X250000Y610000I-35000J0D01*
G01*
X255000D02*
G03*
X255000Y610000I-40000J0D01*
G01*
X604499Y589245D02*
G03*
X595499Y589245I-4500J0D01*
G01*
X595500Y630500D02*
G03*
X604500Y630500I4500J0D01*
G01*
X635000Y610000D02*
G03*
X635000Y610000I-35000J0D01*
G01*
X640000D02*
G03*
X640000Y610000I-40000J0D01*
G01*
X210499Y589245D02*
X219499D01*
X210500Y630500D02*
X219500D01*
X595499Y589245D02*
X604499D01*
X595500Y630500D02*
X604500D01*
D16*
X592150Y507750D02*
X604850D01*
X598500Y501400D02*
Y514100D01*
D97*
X131190Y350000D02*
X138810D01*
X135000Y346190D02*
Y353810D01*
X131190Y375000D02*
X138810D01*
X135000Y371190D02*
Y378810D01*
X131190Y400000D02*
X138810D01*
X135000Y396190D02*
Y403810D01*
X131190Y425000D02*
X138810D01*
X135000Y421190D02*
Y428810D01*
X126190Y640000D02*
X133810D01*
X130000Y636190D02*
Y643810D01*
X126190Y615000D02*
X133810D01*
X130000Y611190D02*
Y618810D01*
X126190Y590000D02*
X133810D01*
X130000Y586190D02*
Y593810D01*
X126190Y565000D02*
X133810D01*
X130000Y561190D02*
Y568810D01*
X364600Y630000D02*
X374600D01*
X369600Y625000D02*
Y635000D01*
X390000Y630000D02*
X400000D01*
X395000Y625000D02*
Y635000D01*
X415400Y630000D02*
X425400D01*
X420400Y625000D02*
Y635000D01*
X436190Y60000D02*
X443810D01*
X440000Y56190D02*
Y63810D01*
X436190Y85000D02*
X443810D01*
X440000Y81190D02*
Y88810D01*
X436190Y110000D02*
X443810D01*
X440000Y106190D02*
Y113810D01*
X436190Y135000D02*
X443810D01*
X440000Y131190D02*
Y138810D01*
X474300Y467500D02*
X487000D01*
X480650Y461150D02*
Y473850D01*
X448900Y467500D02*
X461600D01*
X455250Y461150D02*
Y473850D01*
X571190Y65000D02*
X578810D01*
X575000Y61190D02*
Y68810D01*
X546190Y65000D02*
X553810D01*
X550000Y61190D02*
Y68810D01*
X521190Y65000D02*
X528810D01*
X525000Y61190D02*
Y68810D01*
X496190Y65000D02*
X503810D01*
X500000Y61190D02*
Y68810D01*
X631190Y60000D02*
X638810D01*
X635000Y56190D02*
Y63810D01*
X631190Y85000D02*
X638810D01*
X635000Y81190D02*
Y88810D01*
X631190Y110000D02*
X638810D01*
X635000Y106190D02*
Y113810D01*
X631190Y135000D02*
X638810D01*
X635000Y131190D02*
Y138810D01*
X292500Y501500D02*
X301500D01*
X297000Y497000D02*
Y506000D01*
X341300Y501500D02*
X350300D01*
X345800Y497000D02*
Y506000D01*
X644220Y507750D02*
X654380D01*
X649300Y502670D02*
Y512830D01*
X542620Y507750D02*
X552780D01*
X547700Y502670D02*
Y512830D01*
X178150Y581250D02*
X190850D01*
X184500Y574900D02*
Y587600D01*
X178150Y555850D02*
X190850D01*
X184500Y549500D02*
Y562200D01*
X563950Y121750D02*
X571950D01*
X567950Y117750D02*
Y125750D01*
X563950Y203750D02*
X571950D01*
X567950Y199750D02*
Y207750D01*
X520751Y127750D02*
X526750D01*
X523750Y124750D02*
Y130750D01*
X520751Y197750D02*
X526750D01*
X523750Y194750D02*
Y200750D01*
X502550Y203750D02*
X510550D01*
X506550Y199750D02*
Y207750D01*
X502550Y121750D02*
X510550D01*
X506550Y117750D02*
Y125750D01*
X534500Y200500D02*
X540000D01*
X537250Y197750D02*
Y203250D01*
X534500Y125000D02*
X540000D01*
X537250Y122250D02*
Y127750D01*
X513520Y545000D02*
X523680D01*
X518600Y539920D02*
Y550080D01*
X488120Y545000D02*
X498280D01*
X493200Y539920D02*
Y550080D01*
X411920Y545000D02*
X422080D01*
X417000Y539920D02*
Y550080D01*
X386520Y545000D02*
X396680D01*
X391600Y539920D02*
Y550080D01*
X361120Y545000D02*
X371280D01*
X366200Y539920D02*
Y550080D01*
X335720Y545000D02*
X345880D01*
X340800Y539920D02*
Y550080D01*
X310320Y545000D02*
X320480D01*
X315400Y539920D02*
Y550080D01*
X284920Y545000D02*
X295080D01*
X290000Y539920D02*
Y550080D01*
X437320Y545000D02*
X447480D01*
X442400Y539920D02*
Y550080D01*
X462720Y545000D02*
X472880D01*
X467800Y539920D02*
Y550080D01*
X542036Y103124D02*
X549148D01*
X545592Y99568D02*
Y106680D01*
X276098Y413004D02*
X283210D01*
X279654Y409448D02*
Y416560D01*
X333717Y376560D02*
X340829D01*
X337273Y373004D02*
Y380116D01*
X246126Y552450D02*
X253238D01*
X249682Y548894D02*
Y556006D01*
X410210Y346710D02*
X417322D01*
X413766Y343154D02*
Y350266D01*
X515874Y293370D02*
X522986D01*
X519430Y289814D02*
Y296926D01*
X161798Y408178D02*
X168910D01*
X165354Y404622D02*
Y411734D01*
X194056Y440436D02*
X201168D01*
X197612Y436880D02*
Y443992D01*
X425944Y598170D02*
X433056D01*
X429500Y594614D02*
Y601726D01*
X549910Y364236D02*
X557022D01*
X553466Y360680D02*
Y367792D01*
X599186Y143256D02*
X606298D01*
X602742Y139700D02*
Y146812D01*
X137668Y542036D02*
X144780D01*
X141224Y538480D02*
Y545592D01*
X427736Y443230D02*
X434848D01*
X431292Y439674D02*
Y446786D01*
X304292Y488950D02*
X311404D01*
X307848Y485394D02*
Y492506D01*
X223012Y522986D02*
X230124D01*
X226568Y519430D02*
Y526542D01*
X573786Y335026D02*
X580898D01*
X577342Y331470D02*
Y338582D01*
X386080Y578104D02*
X393192D01*
X389636Y574548D02*
Y581660D01*
X444246Y224282D02*
X451358D01*
X447802Y220726D02*
Y227838D01*
X188722Y492252D02*
X195834D01*
X192278Y488696D02*
Y495808D01*
X473964Y586740D02*
X481076D01*
X477520Y583184D02*
Y590296D01*
X458724Y340360D02*
X465836D01*
X462280Y336804D02*
Y343916D01*
X206248Y373888D02*
X213360D01*
X209804Y370332D02*
Y377444D01*
X338582Y456692D02*
X345694D01*
X342138Y453136D02*
Y460248D01*
X517398Y442578D02*
X524510D01*
X520954Y439022D02*
Y446134D01*
X572516Y478790D02*
X579628D01*
X576072Y475234D02*
Y482346D01*
X226060Y489458D02*
X233172D01*
X229616Y485902D02*
Y493014D01*
X410704Y588010D02*
X417816D01*
X414260Y584454D02*
Y591566D01*
X392684Y601472D02*
X399796D01*
X396240Y597916D02*
Y605028D01*
X212344Y478790D02*
X219456D01*
X215900Y475234D02*
Y482346D01*
X348742Y471678D02*
X355854D01*
X352298Y468122D02*
Y475234D01*
X476614Y446422D02*
X483726D01*
X480170Y442866D02*
Y449978D01*
X136398Y463550D02*
X143510D01*
X139954Y459994D02*
Y467106D01*
X332232Y471932D02*
X339344D01*
X335788Y468376D02*
Y475488D01*
X533400Y451612D02*
X540512D01*
X536956Y448056D02*
Y455168D01*
X545338Y441846D02*
X552450D01*
X548894Y438290D02*
Y445402D01*
X384048Y397256D02*
X391160D01*
X387604Y393700D02*
Y400812D01*
X507238Y383286D02*
X514350D01*
X510794Y379730D02*
Y386842D01*
X388620Y417068D02*
X395732D01*
X392176Y413512D02*
Y420624D01*
X589026Y184404D02*
X596138D01*
X592582Y180848D02*
Y187960D01*
X216408Y435864D02*
X223520D01*
X219964Y432308D02*
Y439420D01*
X540000Y335313D02*
X547112D01*
X543556Y331758D02*
Y338870D01*
X425196Y379932D02*
X432308D01*
X428752Y376376D02*
Y383488D01*
X430026Y286516D02*
X437138D01*
X433582Y282960D02*
Y290072D01*
X364998Y398780D02*
X372110D01*
X368554Y395224D02*
Y402336D01*
X431800Y311404D02*
X438912D01*
X435356Y307848D02*
Y314960D01*
X452120Y311404D02*
X459232D01*
X455676Y307848D02*
Y314960D01*
X134620Y659384D02*
X141732D01*
X138176Y655828D02*
Y662940D01*
X621284Y198000D02*
X628396D01*
X624840Y194444D02*
Y201556D01*
X128000Y517000D02*
X158000D01*
X143000Y502000D02*
Y532000D01*
X627000Y345000D02*
X657000D01*
X642000Y330000D02*
Y360000D01*
X261000Y344250D02*
X291000D01*
X276000Y329250D02*
Y359250D01*
X628250Y16500D02*
X658250D01*
X643250Y1500D02*
Y31500D01*
X413000Y17500D02*
X443000D01*
X428000Y2500D02*
Y32500D01*
M02*
