G04*
G04 #@! TF.GenerationSoftware,Altium Limited,CircuitMaker,2.0.3 (51)*
G04*
G04 Layer_Physical_Order=1*
G04 Layer_Color=25308*
%FSLAX25Y25*%
%MOIN*%
G70*
G04*
G04 #@! TF.SameCoordinates,F5335DBB-8355-4FF0-A9BA-B13CC3796949*
G04*
G04*
G04 #@! TF.FilePolarity,Positive*
G04*
G01*
G75*
%ADD14C,0.04724*%
G04:AMPARAMS|DCode=15|XSize=196.85mil|YSize=196.85mil|CornerRadius=9.84mil|HoleSize=0mil|Usage=FLASHONLY|Rotation=90.000|XOffset=0mil|YOffset=0mil|HoleType=Round|Shape=RoundedRectangle|*
%AMROUNDEDRECTD15*
21,1,0.19685,0.17716,0,0,90.0*
21,1,0.17716,0.19685,0,0,90.0*
1,1,0.01968,0.08858,0.08858*
1,1,0.01968,0.08858,-0.08858*
1,1,0.01968,-0.08858,-0.08858*
1,1,0.01968,-0.08858,0.08858*
%
%ADD15ROUNDEDRECTD15*%
G04:AMPARAMS|DCode=16|XSize=78.74mil|YSize=35.43mil|CornerRadius=5.32mil|HoleSize=0mil|Usage=FLASHONLY|Rotation=180.000|XOffset=0mil|YOffset=0mil|HoleType=Round|Shape=RoundedRectangle|*
%AMROUNDEDRECTD16*
21,1,0.07874,0.02480,0,0,180.0*
21,1,0.06811,0.03543,0,0,180.0*
1,1,0.01063,-0.03406,0.01240*
1,1,0.01063,0.03406,0.01240*
1,1,0.01063,0.03406,-0.01240*
1,1,0.01063,-0.03406,-0.01240*
%
%ADD16ROUNDEDRECTD16*%
G04:AMPARAMS|DCode=17|XSize=78.74mil|YSize=35.43mil|CornerRadius=5.32mil|HoleSize=0mil|Usage=FLASHONLY|Rotation=90.000|XOffset=0mil|YOffset=0mil|HoleType=Round|Shape=RoundedRectangle|*
%AMROUNDEDRECTD17*
21,1,0.07874,0.02480,0,0,90.0*
21,1,0.06811,0.03543,0,0,90.0*
1,1,0.01063,0.01240,0.03406*
1,1,0.01063,0.01240,-0.03406*
1,1,0.01063,-0.01240,-0.03406*
1,1,0.01063,-0.01240,0.03406*
%
%ADD17ROUNDEDRECTD17*%
%ADD18R,0.07874X0.15748*%
%ADD19R,0.12598X0.08268*%
%ADD20R,0.03543X0.08268*%
%ADD21R,0.05118X0.04528*%
%ADD22R,0.03347X0.03740*%
%ADD23R,0.04331X0.03740*%
%ADD45C,0.00803*%
%ADD46C,0.06000*%
%ADD47C,0.07874*%
%ADD48O,0.06000X0.08500*%
%ADD49C,0.05905*%
%ADD50C,0.08000*%
%ADD51O,0.08500X0.06000*%
%ADD52O,0.04724X0.06693*%
%ADD53O,0.03740X0.05315*%
%ADD54O,0.08000X0.11000*%
%ADD55C,0.05000*%
%ADD56C,0.11811*%
G36*
X111989Y250189D02*
X112453Y249880D01*
X113000Y249771D01*
X132708D01*
X134180Y248299D01*
X133861Y247911D01*
X133847Y247920D01*
X133300Y248029D01*
X106800D01*
X106253Y247920D01*
X105789Y247610D01*
X99190Y241010D01*
X98880Y240547D01*
X98771Y240000D01*
Y223292D01*
X91891Y216412D01*
X91429Y216603D01*
Y216900D01*
Y239646D01*
X91429Y239646D01*
X91320Y240193D01*
X91010Y240656D01*
X91010Y240656D01*
X86869Y244798D01*
X87060Y245260D01*
X89583D01*
Y252671D01*
X109508D01*
X111989Y250189D01*
D02*
G37*
G36*
X264075Y263778D02*
Y0D01*
X256856D01*
X256704Y500D01*
X257650Y1132D01*
X258612Y2094D01*
X259368Y3225D01*
X259888Y4482D01*
X260154Y5816D01*
Y7176D01*
X259888Y8510D01*
X259368Y9767D01*
X258612Y10898D01*
X257650Y11860D01*
X256519Y12616D01*
X255262Y13136D01*
X253928Y13401D01*
X252568D01*
X251234Y13136D01*
X249977Y12616D01*
X248846Y11860D01*
X247884Y10898D01*
X247128Y9767D01*
X246608Y8510D01*
X246342Y7176D01*
Y5816D01*
X246608Y4482D01*
X247128Y3225D01*
X247884Y2094D01*
X248846Y1132D01*
X249792Y500D01*
X249640Y0D01*
X171222D01*
X171123Y500D01*
X171775Y770D01*
X172906Y1526D01*
X173868Y2488D01*
X174624Y3619D01*
X175144Y4876D01*
X175409Y6210D01*
Y7570D01*
X175144Y8904D01*
X174624Y10161D01*
X173868Y11292D01*
X172906Y12254D01*
X171775Y13009D01*
X170518Y13530D01*
X169184Y13795D01*
X167824D01*
X166490Y13530D01*
X165233Y13009D01*
X164102Y12254D01*
X163140Y11292D01*
X162384Y10161D01*
X161864Y8904D01*
X161599Y7570D01*
Y6210D01*
X161864Y4876D01*
X162384Y3619D01*
X163140Y2488D01*
X164102Y1526D01*
X165233Y770D01*
X165885Y500D01*
X165786Y0D01*
X158500D01*
Y88962D01*
X159000Y89096D01*
X159199Y88751D01*
X159851Y88099D01*
X160571Y87684D01*
Y34700D01*
X160680Y34153D01*
X160989Y33689D01*
X166990Y27689D01*
X167453Y27380D01*
X168000Y27271D01*
X170647D01*
X170721Y26771D01*
X170028Y26078D01*
X169501Y25166D01*
X169228Y24149D01*
Y23095D01*
X169501Y22078D01*
X170028Y21166D01*
X170772Y20421D01*
X171685Y19895D01*
X172702Y19622D01*
X173755D01*
X174772Y19895D01*
X175684Y20421D01*
X176429Y21166D01*
X176956Y22078D01*
X177228Y23095D01*
Y24149D01*
X176956Y25166D01*
X176429Y26078D01*
X175736Y26771D01*
X175810Y27271D01*
X185008D01*
X192190Y20089D01*
X192190Y20089D01*
X192653Y19780D01*
X193200Y19671D01*
X210000D01*
X210547Y19780D01*
X211011Y20089D01*
X212110Y21190D01*
X212110Y21190D01*
X212420Y21653D01*
X212529Y22200D01*
Y23530D01*
X213029Y23664D01*
X213335Y23134D01*
X214079Y22390D01*
X214991Y21863D01*
X216009Y21591D01*
X217062D01*
X218079Y21863D01*
X218991Y22390D01*
X219736Y23134D01*
X220263Y24047D01*
X220535Y25064D01*
Y26117D01*
X220263Y27134D01*
X219736Y28047D01*
X218991Y28791D01*
X218079Y29318D01*
X217062Y29591D01*
X216009D01*
X215203Y29375D01*
X214944Y29823D01*
X246012Y60891D01*
X246322Y61355D01*
X246431Y61902D01*
Y92300D01*
X246322Y92847D01*
X246012Y93310D01*
X244412Y94911D01*
X243949Y95220D01*
X243402Y95329D01*
X237099D01*
X236771Y95829D01*
X236845Y96201D01*
Y103012D01*
X236826Y103110D01*
X237286Y103356D01*
X247138Y93505D01*
Y63995D01*
X247247Y63448D01*
X247556Y62985D01*
X248571Y61970D01*
Y56908D01*
X248456Y56877D01*
X247544Y56350D01*
X246799Y55606D01*
X246273Y54694D01*
X246000Y53676D01*
Y52623D01*
X246273Y51606D01*
X246799Y50694D01*
X247544Y49949D01*
X248456Y49422D01*
X249473Y49150D01*
X250527D01*
X251544Y49422D01*
X252456Y49949D01*
X252609Y50102D01*
X253071Y49910D01*
Y48399D01*
X251647Y46975D01*
X251544Y47034D01*
X250527Y47307D01*
X250500D01*
Y43307D01*
X250000D01*
Y42807D01*
X246000D01*
Y42780D01*
X246273Y41763D01*
X246799Y40851D01*
X247421Y40229D01*
X247247Y39729D01*
X239087D01*
X239087Y39729D01*
X238541Y39620D01*
X238077Y39311D01*
X238077Y39310D01*
X228025Y29258D01*
X227922Y29318D01*
X226905Y29591D01*
X225851D01*
X224834Y29318D01*
X223922Y28791D01*
X223177Y28047D01*
X222651Y27134D01*
X222378Y26117D01*
Y25064D01*
X222651Y24047D01*
X223177Y23134D01*
X223922Y22390D01*
X224834Y21863D01*
X225851Y21591D01*
X226905D01*
X227922Y21863D01*
X228834Y22390D01*
X229579Y23134D01*
X230105Y24047D01*
X230378Y25064D01*
Y26117D01*
X230105Y27134D01*
X230046Y27238D01*
X239679Y36871D01*
X247042D01*
X247250Y36371D01*
X246799Y35921D01*
X246273Y35008D01*
X246000Y33991D01*
Y32938D01*
X246273Y31921D01*
X246799Y31008D01*
X247544Y30264D01*
X248456Y29737D01*
X249473Y29465D01*
X250527D01*
X251544Y29737D01*
X252456Y30264D01*
X253201Y31008D01*
X253727Y31921D01*
X254000Y32938D01*
Y33991D01*
X253727Y35008D01*
X253201Y35921D01*
X252634Y36487D01*
X252614Y36601D01*
X252678Y37034D01*
X252712Y37090D01*
X253011Y37290D01*
X261243Y45522D01*
X261553Y45985D01*
X261661Y46532D01*
Y181368D01*
X261661Y181368D01*
X261553Y181914D01*
X261243Y182378D01*
X261243Y182378D01*
X222321Y221300D01*
X222528Y221800D01*
X222961D01*
X223851Y222039D01*
X224649Y222499D01*
X225301Y223151D01*
X225762Y223949D01*
X225848Y224271D01*
X231283D01*
Y217307D01*
X235720D01*
Y226181D01*
Y235055D01*
X231283D01*
Y227129D01*
X225485D01*
X225301Y227449D01*
X224649Y228101D01*
X223851Y228561D01*
X223000Y228789D01*
Y225300D01*
X222000D01*
Y228789D01*
X221149Y228561D01*
X220429Y228146D01*
X219929Y228310D01*
Y229884D01*
X220649Y230299D01*
X221301Y230951D01*
X221761Y231749D01*
X222000Y232639D01*
Y233561D01*
X221761Y234451D01*
X221301Y235249D01*
X220649Y235901D01*
X219851Y236362D01*
X218961Y236600D01*
X218039D01*
X217149Y236362D01*
X216351Y235901D01*
X215699Y235249D01*
X215238Y234451D01*
X215000Y233561D01*
Y232639D01*
X215238Y231749D01*
X215699Y230951D01*
X216351Y230299D01*
X217071Y229884D01*
Y224003D01*
X216609Y223812D01*
X211229Y229192D01*
Y243408D01*
X215792Y247971D01*
X231283D01*
Y245260D01*
X241157D01*
Y263008D01*
X231283D01*
Y255529D01*
X201092D01*
X199410Y257210D01*
X198947Y257520D01*
X198400Y257629D01*
X184613D01*
X184613Y257629D01*
X184066Y257520D01*
X183603Y257210D01*
X183603Y257210D01*
X179403Y253011D01*
X179093Y252547D01*
X178984Y252000D01*
Y248933D01*
X177740D01*
Y247492D01*
X174460D01*
X172910Y249042D01*
X172447Y249352D01*
X171900Y249461D01*
X170240D01*
X170112Y249937D01*
X169462Y251063D01*
X168543Y251982D01*
X167417Y252632D01*
X166162Y252969D01*
X164862D01*
X163606Y252632D01*
X162480Y251982D01*
X161561Y251063D01*
X160911Y249937D01*
X160771Y249412D01*
X160253D01*
X160112Y249937D01*
X159462Y251063D01*
X158543Y251982D01*
X157417Y252632D01*
X156162Y252969D01*
X154862D01*
X153606Y252632D01*
X152480Y251982D01*
X151561Y251063D01*
X150911Y249937D01*
X150771Y249412D01*
X150253D01*
X150112Y249937D01*
X149462Y251063D01*
X148543Y251982D01*
X147417Y252632D01*
X146162Y252969D01*
X146012D01*
Y248032D01*
X145512D01*
Y247532D01*
X140575D01*
Y247382D01*
X140841Y246387D01*
X140393Y246128D01*
X134310Y252210D01*
X133847Y252520D01*
X133300Y252629D01*
X126913D01*
Y262221D01*
X112315D01*
Y254559D01*
X111853Y254368D01*
X111110Y255111D01*
X110647Y255420D01*
X110100Y255529D01*
X89583D01*
Y263008D01*
X79709D01*
Y245260D01*
X83217D01*
Y245000D01*
X83325Y244453D01*
X83635Y243990D01*
X88571Y239054D01*
Y237705D01*
X88071Y237639D01*
X87907Y238251D01*
X87446Y239049D01*
X86795Y239701D01*
X85997Y240161D01*
X85146Y240389D01*
Y236900D01*
X84146D01*
Y240389D01*
X83295Y240161D01*
X83062Y240027D01*
X73038D01*
X72803Y240527D01*
X73162Y241149D01*
X73400Y242039D01*
Y242961D01*
X73162Y243851D01*
X72701Y244649D01*
X72049Y245301D01*
X71251Y245761D01*
X70361Y246000D01*
X69439D01*
X68636Y245785D01*
X61442Y252979D01*
X60978Y253289D01*
X60431Y253398D01*
X54939D01*
X54909Y253513D01*
X54382Y254425D01*
X53637Y255169D01*
X52725Y255696D01*
X51708Y255969D01*
X50655D01*
X49637Y255696D01*
X48725Y255169D01*
X47980Y254425D01*
X47454Y253513D01*
X47181Y252495D01*
Y251442D01*
X47454Y250425D01*
X47980Y249513D01*
X48725Y248768D01*
X49167Y248513D01*
X49080Y247985D01*
X48753Y247920D01*
X48289Y247610D01*
X48289Y247610D01*
X45689Y245010D01*
X45380Y244547D01*
X45271Y244000D01*
Y236765D01*
X45380Y236218D01*
X45689Y235754D01*
X47513Y233930D01*
X47454Y233827D01*
X47181Y232810D01*
Y232783D01*
X50681D01*
Y236283D01*
X50655D01*
X49637Y236011D01*
X49534Y235951D01*
X48129Y237356D01*
Y238868D01*
X48591Y239059D01*
X48725Y238925D01*
X49637Y238399D01*
X50655Y238126D01*
X51708D01*
X52725Y238399D01*
X52828Y238458D01*
X55837Y235450D01*
X55837Y235450D01*
X56300Y235140D01*
X56847Y235031D01*
X65557D01*
Y230919D01*
X65095Y230727D01*
X62529Y233294D01*
X62065Y233604D01*
X61518Y233712D01*
X54939D01*
X54909Y233827D01*
X54382Y234739D01*
X53637Y235484D01*
X52725Y236011D01*
X51708Y236283D01*
X51681D01*
Y232283D01*
Y228283D01*
X51708D01*
X52725Y228556D01*
X52828Y228615D01*
X54171Y227273D01*
Y225761D01*
X53709Y225570D01*
X53637Y225642D01*
X52725Y226168D01*
X51708Y226441D01*
X50655D01*
X49637Y226168D01*
X48725Y225642D01*
X47980Y224897D01*
X47454Y223985D01*
X47181Y222968D01*
Y221914D01*
X47454Y220897D01*
X47513Y220794D01*
X45874Y219155D01*
X45565Y218691D01*
X45456Y218145D01*
Y173588D01*
X45565Y173041D01*
X45874Y172577D01*
X49482Y168970D01*
X49422Y168867D01*
X49150Y167849D01*
Y166796D01*
X49422Y165779D01*
X49949Y164867D01*
X50694Y164122D01*
X51606Y163595D01*
X52623Y163323D01*
X53676D01*
X54694Y163595D01*
X55606Y164122D01*
X55660Y164177D01*
X56122Y163985D01*
Y162474D01*
X54797Y161148D01*
X54694Y161208D01*
X53676Y161480D01*
X53650D01*
Y157980D01*
X57150D01*
Y158007D01*
X56877Y159024D01*
X56818Y159127D01*
X57463Y159773D01*
X57925Y159582D01*
Y144592D01*
X54797Y141463D01*
X54694Y141523D01*
X53676Y141795D01*
X52623D01*
X51606Y141523D01*
X50694Y140996D01*
X50591Y140893D01*
X50129Y141085D01*
Y142596D01*
X51503Y143970D01*
X51606Y143910D01*
X52623Y143638D01*
X53676D01*
X54694Y143910D01*
X55606Y144437D01*
X56350Y145182D01*
X56877Y146094D01*
X57150Y147111D01*
Y148164D01*
X56877Y149182D01*
X56350Y150094D01*
X55606Y150839D01*
X54694Y151365D01*
X53676Y151638D01*
X52623D01*
X51606Y151365D01*
X50694Y150839D01*
X49949Y150094D01*
X49422Y149182D01*
X49150Y148164D01*
Y147111D01*
X49422Y146094D01*
X49482Y145991D01*
X47690Y144199D01*
X47380Y143735D01*
X47271Y143188D01*
Y136000D01*
X47380Y135453D01*
X47690Y134990D01*
X50889Y131790D01*
X50889Y131790D01*
X51353Y131480D01*
X51900Y131371D01*
X94900D01*
X95447Y131480D01*
X95911Y131790D01*
X101473Y137352D01*
X101934Y137106D01*
X101756Y136212D01*
Y134852D01*
X102021Y133517D01*
X102542Y132261D01*
X103297Y131130D01*
X104259Y130168D01*
X105390Y129412D01*
X106647Y128892D01*
X107981Y128626D01*
X109342D01*
X110676Y128892D01*
X111932Y129412D01*
X113063Y130168D01*
X114025Y131130D01*
X114402Y131694D01*
X114958Y131625D01*
X115166Y131313D01*
X119013Y127466D01*
X118822Y127004D01*
X39370D01*
Y263426D01*
X39724Y263779D01*
X264075Y263778D01*
D02*
G37*
G36*
X66615Y243764D02*
X66400Y242961D01*
Y242039D01*
X66577Y241379D01*
X66128Y241121D01*
X59639Y247610D01*
X59175Y247920D01*
X58628Y248029D01*
X53358D01*
X53224Y248529D01*
X53637Y248768D01*
X54382Y249513D01*
X54909Y250425D01*
X54939Y250540D01*
X59839D01*
X66615Y243764D01*
D02*
G37*
G36*
X64856Y238351D02*
X64665Y237889D01*
X57439D01*
X54849Y240479D01*
X54909Y240582D01*
X55181Y241599D01*
Y242653D01*
X54909Y243670D01*
X54382Y244582D01*
X54255Y244709D01*
X54446Y245171D01*
X58036D01*
X64856Y238351D01*
D02*
G37*
G36*
X138115Y239764D02*
X137900Y238961D01*
Y238039D01*
X137984Y237727D01*
X137535Y237468D01*
X133793Y241211D01*
X133329Y241520D01*
X132783Y241629D01*
X116413D01*
X116413Y241629D01*
X115866Y241520D01*
X115402Y241211D01*
X114125Y239933D01*
X113520Y240035D01*
X113498Y240080D01*
X113529Y240244D01*
X113821Y240749D01*
X114059Y241639D01*
Y242561D01*
X113821Y243451D01*
X113360Y244249D01*
X112938Y244671D01*
X113145Y245171D01*
X132708D01*
X138115Y239764D01*
D02*
G37*
G36*
X150911Y246126D02*
X151561Y245000D01*
X152480Y244081D01*
X153606Y243431D01*
X154862Y243095D01*
X156162D01*
X157417Y243431D01*
X158543Y244081D01*
X159462Y245000D01*
X160112Y246126D01*
X160253Y246651D01*
X160771D01*
X160911Y246126D01*
X161561Y245000D01*
X162480Y244081D01*
X163606Y243431D01*
X164862Y243095D01*
X166162D01*
X167417Y243431D01*
X168543Y244081D01*
X169462Y245000D01*
X170112Y246126D01*
X170240Y246603D01*
X171308D01*
X172858Y245053D01*
X173322Y244743D01*
X173869Y244634D01*
X177740D01*
Y243193D01*
X184299D01*
Y238734D01*
X181076Y235510D01*
X181028Y235439D01*
X180531Y235390D01*
X175506Y240415D01*
X175042Y240725D01*
X174495Y240834D01*
X154730D01*
X149866Y245699D01*
X150112Y246126D01*
X150253Y246651D01*
X150771D01*
X150911Y246126D01*
D02*
G37*
G36*
X125898Y229513D02*
X131441D01*
Y230871D01*
X134217D01*
X134353Y230780D01*
X134900Y230671D01*
X149858D01*
X149992Y230171D01*
X149351Y229801D01*
X148699Y229149D01*
X148284Y228429D01*
X140000D01*
X139453Y228320D01*
X138989Y228011D01*
X133163Y222184D01*
X132853Y221720D01*
X132744Y221173D01*
Y220887D01*
X131652Y220434D01*
X130607Y219633D01*
X129806Y218589D01*
X129444Y217715D01*
X128903D01*
X128541Y218589D01*
X127739Y219633D01*
X126695Y220434D01*
X125602Y220887D01*
Y222300D01*
X125494Y222847D01*
X125184Y223310D01*
X121043Y227451D01*
Y229513D01*
X122386D01*
Y234146D01*
X119614D01*
X116843D01*
Y229513D01*
X118185D01*
Y226859D01*
X118294Y226312D01*
X118604Y225849D01*
X122744Y221708D01*
Y220887D01*
X121652Y220434D01*
X120607Y219633D01*
X119806Y218589D01*
X119444Y217715D01*
X118903D01*
X118541Y218589D01*
X117739Y219633D01*
X116695Y220434D01*
X115479Y220938D01*
X114173Y221110D01*
X112868Y220938D01*
X111652Y220434D01*
X110607Y219633D01*
X109806Y218589D01*
X109302Y217372D01*
X109130Y216067D01*
Y213067D01*
X109302Y211762D01*
X109806Y210545D01*
X110607Y209501D01*
X111018Y209186D01*
X110857Y208712D01*
X106217D01*
Y210122D01*
Y215862D01*
X99886D01*
Y214421D01*
X99400D01*
X98853Y214312D01*
X98390Y214003D01*
X98080Y213539D01*
X97971Y212992D01*
Y202041D01*
X98080Y201494D01*
X98390Y201030D01*
X100088Y199332D01*
X99897Y198870D01*
X90441D01*
X89894Y198761D01*
X89430Y198451D01*
X89430Y198451D01*
X84264Y193285D01*
X83461Y193500D01*
X82539D01*
X81649Y193262D01*
X81027Y192903D01*
X80527Y193138D01*
Y197699D01*
X109399Y226571D01*
X112400D01*
X112947Y226680D01*
X113410Y226990D01*
X115410Y228990D01*
X115410Y228990D01*
X115720Y229453D01*
X115829Y230000D01*
X115829Y230000D01*
Y237595D01*
X116381Y238147D01*
X116843Y237955D01*
Y235146D01*
X119614D01*
X122386D01*
Y238771D01*
X125898D01*
Y229513D01*
D02*
G37*
G36*
X149989Y236590D02*
X149989Y236590D01*
X150453Y236280D01*
X151000Y236171D01*
X151000Y236171D01*
X165708D01*
X166349Y235530D01*
X166332Y235454D01*
X165745Y235097D01*
X165361Y235200D01*
X164439D01*
X163636Y234985D01*
X163610Y235011D01*
X163147Y235320D01*
X162600Y235429D01*
X143986D01*
X143779Y235929D01*
X144201Y236351D01*
X144661Y237149D01*
X144900Y238039D01*
Y238961D01*
X144661Y239851D01*
X144246Y240571D01*
X144410Y241071D01*
X145508D01*
X149989Y236590D01*
D02*
G37*
G36*
X203671Y235008D02*
Y233140D01*
X203171Y232904D01*
X202551Y233261D01*
X201700Y233489D01*
Y230000D01*
X200700D01*
Y233489D01*
X199849Y233261D01*
X199051Y232801D01*
X198399Y232149D01*
X197984Y231429D01*
X192320D01*
X187157Y236592D01*
Y238142D01*
Y243193D01*
X188402D01*
Y245563D01*
X185728D01*
Y246563D01*
X188402D01*
Y248700D01*
X188961D01*
X189764Y248915D01*
X203671Y235008D01*
D02*
G37*
G36*
X199489Y253089D02*
X199953Y252780D01*
X200500Y252671D01*
X200500Y252671D01*
X231283D01*
Y250829D01*
X215200D01*
X214653Y250720D01*
X214190Y250411D01*
X214190Y250410D01*
X208789Y245010D01*
X208480Y244547D01*
X208371Y244000D01*
Y229803D01*
X207909Y229612D01*
X206529Y230992D01*
Y235600D01*
X206529Y235600D01*
X206420Y236147D01*
X206111Y236611D01*
X206110Y236611D01*
X191785Y250936D01*
X192000Y251739D01*
Y252661D01*
X191762Y253551D01*
X191346Y254271D01*
X191510Y254771D01*
X197808D01*
X199489Y253089D01*
D02*
G37*
G36*
X180658Y231222D02*
Y229543D01*
X174098D01*
Y228102D01*
X172592D01*
X171329Y229365D01*
Y234000D01*
X171329Y234000D01*
X171220Y234547D01*
X170911Y235011D01*
X168407Y237514D01*
X168598Y237976D01*
X173903D01*
X180658Y231222D01*
D02*
G37*
G36*
X81146Y236439D02*
X81384Y235549D01*
X81419Y235488D01*
X81169Y235055D01*
X79709D01*
Y226681D01*
X84646D01*
Y225681D01*
X79709D01*
Y219166D01*
X79247Y218974D01*
X78372Y219849D01*
X77908Y220159D01*
X77649Y220210D01*
X77382Y220856D01*
X76741Y221691D01*
X75905Y222333D01*
X74932Y222736D01*
X73888Y222873D01*
X71388D01*
X70344Y222736D01*
X69371Y222333D01*
X68915Y221983D01*
X68415Y222230D01*
Y225447D01*
X68915Y225694D01*
X69371Y225345D01*
X70344Y224942D01*
X71388Y224804D01*
X73888D01*
X74932Y224942D01*
X75905Y225345D01*
X76741Y225986D01*
X77382Y226821D01*
X77785Y227794D01*
X77922Y228839D01*
X77785Y229883D01*
X77382Y230856D01*
X76741Y231691D01*
X75905Y232333D01*
X74932Y232736D01*
X73888Y232873D01*
X71388D01*
X70344Y232736D01*
X69371Y232333D01*
X68915Y231983D01*
X68415Y232230D01*
Y236000D01*
X68415Y236000D01*
X68306Y236547D01*
X68225Y236669D01*
X68492Y237169D01*
X81146D01*
Y236439D01*
D02*
G37*
G36*
X185011Y234696D02*
X190718Y228990D01*
X191182Y228680D01*
X191728Y228571D01*
X197984D01*
X198399Y227851D01*
X198974Y227276D01*
X199041Y227095D01*
X199001Y226651D01*
X198499Y226149D01*
X198038Y225351D01*
X197818Y224529D01*
X184760D01*
Y226173D01*
X182087D01*
Y227173D01*
X184760D01*
Y229543D01*
X183516D01*
Y233908D01*
X184329Y234721D01*
X185011Y234696D01*
D02*
G37*
G36*
X161797Y225663D02*
X161797Y225663D01*
X162260Y225353D01*
X162807Y225244D01*
X172000D01*
X172000Y225244D01*
X172000Y225244D01*
X174098D01*
Y223803D01*
X175447D01*
X175451Y223781D01*
X175761Y223318D01*
X176989Y222090D01*
X177453Y221780D01*
X178000Y221671D01*
X198679D01*
X199151Y221199D01*
X199949Y220739D01*
X200839Y220500D01*
X200916D01*
X201085Y220000D01*
X200607Y219633D01*
X199806Y218589D01*
X199444Y217715D01*
X198903D01*
X198541Y218589D01*
X197739Y219633D01*
X196695Y220434D01*
X195478Y220938D01*
X194173Y221110D01*
X192868Y220938D01*
X191652Y220434D01*
X190607Y219633D01*
X189806Y218589D01*
X189444Y217715D01*
X188903D01*
X188541Y218589D01*
X187739Y219633D01*
X186695Y220434D01*
X185478Y220938D01*
X184173Y221110D01*
X182868Y220938D01*
X181652Y220434D01*
X180607Y219633D01*
X179806Y218589D01*
X179444Y217715D01*
X178903D01*
X178541Y218589D01*
X177739Y219633D01*
X176695Y220434D01*
X175478Y220938D01*
X174173Y221110D01*
X172868Y220938D01*
X171652Y220434D01*
X170607Y219633D01*
X169806Y218589D01*
X169444Y217715D01*
X168903D01*
X168541Y218589D01*
X167739Y219633D01*
X166695Y220434D01*
X165479Y220938D01*
X164173Y221110D01*
X162868Y220938D01*
X161652Y220434D01*
X160607Y219633D01*
X159806Y218589D01*
X159444Y217715D01*
X158903D01*
X158541Y218589D01*
X157739Y219633D01*
X156695Y220434D01*
X155479Y220938D01*
X154173Y221110D01*
X152868Y220938D01*
X151652Y220434D01*
X150607Y219633D01*
X149806Y218589D01*
X149444Y217715D01*
X148903D01*
X148541Y218589D01*
X147739Y219633D01*
X146695Y220434D01*
X145478Y220938D01*
X144173Y221110D01*
X142868Y220938D01*
X141652Y220434D01*
X140607Y219633D01*
X139806Y218589D01*
X139444Y217715D01*
X138903D01*
X138541Y218589D01*
X137739Y219633D01*
X136695Y220434D01*
X136234Y220625D01*
X136137Y221116D01*
X140592Y225571D01*
X148284D01*
X148699Y224851D01*
X149351Y224199D01*
X150149Y223739D01*
X151039Y223500D01*
X151961D01*
X152851Y223739D01*
X153649Y224199D01*
X154301Y224851D01*
X154762Y225649D01*
X155000Y226539D01*
Y227461D01*
X154762Y228351D01*
X154301Y229149D01*
X153649Y229801D01*
X153008Y230171D01*
X153142Y230671D01*
X156789D01*
X161797Y225663D01*
D02*
G37*
G36*
X108180Y244671D02*
X107758Y244249D01*
X107298Y243451D01*
X107059Y242561D01*
Y241639D01*
X107298Y240749D01*
X107603Y240219D01*
X107787Y239780D01*
X107787Y239780D01*
X107787Y239780D01*
Y229513D01*
X107787Y229513D01*
X107787D01*
X107800Y229012D01*
X107797Y229011D01*
X102091Y223305D01*
X101629Y223496D01*
Y239408D01*
X107392Y245171D01*
X107973D01*
X108180Y244671D01*
D02*
G37*
G36*
X54171Y219121D02*
Y214092D01*
X48776Y208697D01*
X48314Y208888D01*
Y217553D01*
X49534Y218773D01*
X49637Y218714D01*
X50655Y218441D01*
X51708D01*
X52725Y218714D01*
X53637Y219240D01*
X53709Y219312D01*
X54171Y219121D01*
D02*
G37*
G36*
X78290Y215890D02*
X78290Y215890D01*
X78753Y215580D01*
X79300Y215471D01*
X86993D01*
X87184Y215009D01*
X83500Y211325D01*
X83000Y211532D01*
Y211861D01*
X82762Y212751D01*
X82301Y213549D01*
X81649Y214201D01*
X80851Y214662D01*
X80000Y214890D01*
Y211400D01*
X79500D01*
Y210900D01*
X76011D01*
X76215Y210136D01*
X71108Y205029D01*
X68492D01*
X66929Y206592D01*
Y207690D01*
X67429Y207854D01*
X68149Y207438D01*
X69039Y207200D01*
X69961D01*
X70851Y207438D01*
X71649Y207899D01*
X72301Y208551D01*
X72761Y209349D01*
X73000Y210239D01*
Y211161D01*
X72761Y212051D01*
X72301Y212849D01*
X71649Y213501D01*
X70851Y213962D01*
X69961Y214200D01*
X69751D01*
X69347Y214391D01*
X69245Y214867D01*
X69428Y215096D01*
X69627Y215238D01*
X70344Y214942D01*
X71388Y214804D01*
X73888D01*
X74932Y214942D01*
X75905Y215345D01*
X76741Y215986D01*
X77140Y216507D01*
X77639Y216540D01*
X78290Y215890D01*
D02*
G37*
G36*
X228779Y204700D02*
X228572Y204200D01*
X227939D01*
X227136Y203985D01*
X224710Y206411D01*
X224247Y206720D01*
X223700Y206829D01*
X212103D01*
X211912Y207291D01*
X212437Y207816D01*
X213201Y207611D01*
Y210601D01*
X210211D01*
X210416Y209837D01*
X203700Y203121D01*
X202310Y204510D01*
X201847Y204820D01*
X201300Y204929D01*
X186807D01*
X186641Y205187D01*
X186588Y205416D01*
X188742Y207571D01*
X194173D01*
X194720Y207680D01*
X195184Y207990D01*
X195306Y208173D01*
X195478Y208196D01*
X196695Y208699D01*
X197739Y209501D01*
X198541Y210545D01*
X198903Y211419D01*
X199444D01*
X199806Y210545D01*
X200607Y209501D01*
X201652Y208699D01*
X202868Y208196D01*
X204173Y208024D01*
X205479Y208196D01*
X206695Y208699D01*
X207739Y209501D01*
X208541Y210545D01*
X209045Y211762D01*
X209216Y213067D01*
Y216067D01*
X209045Y217372D01*
X208541Y218589D01*
X207739Y219633D01*
X206695Y220434D01*
X205479Y220938D01*
X204173Y221110D01*
X204051Y221094D01*
X203817Y221568D01*
X204101Y221851D01*
X204561Y222649D01*
X204800Y223539D01*
Y224461D01*
X204561Y225351D01*
X204101Y226149D01*
X203526Y226724D01*
X203458Y226905D01*
X203499Y227349D01*
X204001Y227851D01*
X204338Y228434D01*
X204916Y228563D01*
X228779Y204700D01*
D02*
G37*
G36*
X57599Y223651D02*
X58251Y222999D01*
X58971Y222584D01*
Y214065D01*
X59080Y213518D01*
X59390Y213055D01*
X62206Y210239D01*
Y207995D01*
X61727Y207850D01*
X61663Y207945D01*
X60701Y208907D01*
X59570Y209663D01*
X58314Y210184D01*
X56979Y210449D01*
X55619D01*
X55154Y210356D01*
X54918Y210797D01*
X56611Y212490D01*
X56611Y212490D01*
X56920Y212953D01*
X57029Y213500D01*
Y223639D01*
X57529Y223773D01*
X57599Y223651D01*
D02*
G37*
G36*
X79039Y207900D02*
X79368D01*
X79575Y207400D01*
X73891Y201716D01*
X73581Y201253D01*
X73473Y200706D01*
Y192538D01*
X72973Y192303D01*
X72351Y192661D01*
X71461Y192900D01*
X70539D01*
X69736Y192685D01*
X65064Y197357D01*
Y199835D01*
Y203762D01*
X65526Y203954D01*
X66890Y202590D01*
X67353Y202280D01*
X67900Y202171D01*
X71700D01*
X72247Y202280D01*
X72711Y202590D01*
X78236Y208115D01*
X79039Y207900D01*
D02*
G37*
G36*
X179806Y210545D02*
X180607Y209501D01*
X181652Y208699D01*
X182302Y208430D01*
X182419Y207840D01*
X176071Y201491D01*
X175671Y201669D01*
X175602Y201730D01*
Y208247D01*
X176695Y208699D01*
X177739Y209501D01*
X178541Y210545D01*
X178903Y211419D01*
X179444D01*
X179806Y210545D01*
D02*
G37*
G36*
X225115Y201964D02*
X224900Y201161D01*
Y200239D01*
X225138Y199349D01*
X225599Y198551D01*
X226251Y197899D01*
X227049Y197439D01*
X227939Y197200D01*
X228861D01*
X229751Y197439D01*
X230471Y197854D01*
X230971Y197690D01*
Y194962D01*
X230471Y194779D01*
X229949Y195301D01*
X229151Y195762D01*
X228261Y196000D01*
X227339D01*
X226449Y195762D01*
X226189Y195611D01*
X226100Y195629D01*
X219136D01*
X218929Y196129D01*
X219631Y196832D01*
X220289Y197972D01*
X220630Y199243D01*
Y200560D01*
X220289Y201832D01*
X219631Y202972D01*
X219132Y203471D01*
X219339Y203971D01*
X223108D01*
X225115Y201964D01*
D02*
G37*
G36*
X140371Y196020D02*
Y192592D01*
X131587Y183808D01*
X125183D01*
X124992Y184270D01*
X134529Y193808D01*
X134616Y193758D01*
X135621Y193488D01*
X136662D01*
X137668Y193758D01*
X138569Y194278D01*
X139305Y195014D01*
X139825Y195915D01*
X139871Y196086D01*
X140371Y196020D01*
D02*
G37*
G36*
X224300Y192059D02*
X224290Y191959D01*
X223917Y191626D01*
X223900Y191629D01*
X214600D01*
X214600Y191629D01*
X214600Y191629D01*
X196916D01*
X196546Y192271D01*
X196710Y192771D01*
X224300D01*
Y192059D01*
D02*
G37*
G36*
X129806Y210545D02*
X130607Y209501D01*
X131652Y208699D01*
X132868Y208196D01*
X134173Y208024D01*
X135478Y208196D01*
X136695Y208699D01*
X137739Y209501D01*
X138541Y210545D01*
X138903Y211419D01*
X139444D01*
X139806Y210545D01*
X140607Y209501D01*
X140974Y209220D01*
X140865Y208673D01*
X140449Y208561D01*
X139651Y208101D01*
X138999Y207449D01*
X138539Y206651D01*
X138300Y205761D01*
Y204839D01*
X138539Y203949D01*
X138999Y203151D01*
X139651Y202499D01*
X140371Y202084D01*
Y198862D01*
X139871Y198796D01*
X139825Y198967D01*
X139305Y199868D01*
X138569Y200604D01*
X137668Y201124D01*
X136662Y201394D01*
X135621D01*
X134616Y201124D01*
X133715Y200604D01*
X132979Y199868D01*
X132458Y198967D01*
X132189Y197961D01*
Y196921D01*
X132458Y195915D01*
X132509Y195829D01*
X122291Y185611D01*
X121616D01*
X121393Y186111D01*
X121762Y186749D01*
X121990Y187600D01*
X115010D01*
X115238Y186749D01*
X115607Y186111D01*
X115384Y185611D01*
X92882D01*
X92335Y185502D01*
X91872Y185193D01*
X91464Y184785D01*
X90661Y185000D01*
X89739D01*
X88849Y184762D01*
X88051Y184301D01*
X87399Y183649D01*
X86939Y182851D01*
X86700Y181961D01*
Y181039D01*
X86939Y180149D01*
X87399Y179351D01*
X88051Y178699D01*
X88849Y178238D01*
X89739Y178000D01*
X90661D01*
X91551Y178238D01*
X92349Y178699D01*
X93001Y179351D01*
X93462Y180149D01*
X93700Y181039D01*
Y181961D01*
X93594Y182356D01*
X93898Y182753D01*
X98779D01*
X98970Y182291D01*
X96090Y179411D01*
X95780Y178947D01*
X95671Y178400D01*
Y142592D01*
X94030Y140951D01*
X93954Y140968D01*
X93597Y141554D01*
X93700Y141939D01*
Y142861D01*
X93462Y143751D01*
X93001Y144549D01*
X92349Y145201D01*
X91846Y145491D01*
X91789Y146061D01*
X94282Y148554D01*
X94592Y149018D01*
X94700Y149565D01*
X94700Y149565D01*
Y162628D01*
X94592Y163175D01*
X94282Y163639D01*
X94282Y163639D01*
X78629Y179292D01*
Y185795D01*
X79091Y185986D01*
X79989Y185088D01*
X80453Y184778D01*
X81000Y184669D01*
X81000Y184669D01*
X87198D01*
X87745Y184778D01*
X88209Y185088D01*
X90639Y187518D01*
X91442Y187303D01*
X92364D01*
X93254Y187542D01*
X94052Y188003D01*
X94704Y188654D01*
X95165Y189452D01*
X95403Y190342D01*
Y191264D01*
X95165Y192154D01*
X94704Y192952D01*
X94052Y193604D01*
X93254Y194065D01*
X92364Y194303D01*
X91442D01*
X90552Y194065D01*
X89754Y193604D01*
X89103Y192952D01*
X88642Y192154D01*
X88403Y191264D01*
Y190342D01*
X88618Y189539D01*
X86607Y187527D01*
X86138D01*
X85903Y188027D01*
X86261Y188649D01*
X86500Y189539D01*
Y190461D01*
X86285Y191264D01*
X91033Y196012D01*
X113220D01*
X113246Y195915D01*
X113766Y195014D01*
X114502Y194278D01*
X115403Y193758D01*
X116409Y193488D01*
X117450D01*
X118455Y193758D01*
X119356Y194278D01*
X120092Y195014D01*
X120613Y195915D01*
X120882Y196921D01*
Y197961D01*
X120613Y198967D01*
X120092Y199868D01*
X119356Y200604D01*
X118455Y201124D01*
X117450Y201394D01*
X116409D01*
X115403Y201124D01*
X114502Y200604D01*
X113766Y199868D01*
X113246Y198967D01*
X113220Y198870D01*
X104592D01*
X100829Y202633D01*
Y204413D01*
X102551D01*
Y207283D01*
X103551D01*
Y204413D01*
X106217D01*
Y205854D01*
X116325D01*
X122571Y199608D01*
Y194192D01*
X119764Y191385D01*
X119000Y191589D01*
Y188600D01*
X121990D01*
X121785Y189364D01*
X125010Y192589D01*
X125011Y192589D01*
X125320Y193053D01*
X125429Y193600D01*
Y200200D01*
X125320Y200747D01*
X125011Y201210D01*
X120828Y205392D01*
X121020Y205854D01*
X123083D01*
X123630Y205963D01*
X124094Y206273D01*
X125184Y207363D01*
X125494Y207826D01*
X125575Y208236D01*
X126695Y208699D01*
X127739Y209501D01*
X128541Y210545D01*
X128903Y211419D01*
X129444D01*
X129806Y210545D01*
D02*
G37*
G36*
X159806D02*
X160607Y209501D01*
X161652Y208699D01*
X162744Y208247D01*
Y197765D01*
X156064Y191085D01*
X155602Y191277D01*
Y208247D01*
X156695Y208699D01*
X157739Y209501D01*
X158541Y210545D01*
X158903Y211419D01*
X159444D01*
X159806Y210545D01*
D02*
G37*
G36*
X190854Y192271D02*
X190438Y191551D01*
X190200Y190661D01*
Y189739D01*
X190206Y189716D01*
X189810Y189264D01*
X189732Y189274D01*
Y184555D01*
X193267D01*
Y185305D01*
X193146Y186222D01*
X193152Y186251D01*
X193359Y186553D01*
X193525Y186700D01*
X194161D01*
X195051Y186939D01*
X195849Y187399D01*
X196501Y188051D01*
X196916Y188771D01*
X201212D01*
X201346Y188271D01*
X201051Y188101D01*
X200399Y187449D01*
X199938Y186651D01*
X199700Y185761D01*
Y184839D01*
X199915Y184036D01*
X191208Y175329D01*
X187260D01*
X186889Y175971D01*
X187053Y176471D01*
X187182D01*
X187729Y176580D01*
X188193Y176890D01*
X190201Y178898D01*
X190276Y178908D01*
X191250Y179311D01*
X192085Y179952D01*
X192726Y180788D01*
X193129Y181761D01*
X193267Y182805D01*
Y183555D01*
X189232D01*
X185198D01*
Y182805D01*
X185335Y181761D01*
X185738Y180788D01*
X186379Y179952D01*
X186540Y179829D01*
X186370Y179329D01*
X182051D01*
X181890Y179803D01*
X182085Y179952D01*
X182726Y180788D01*
X183129Y181761D01*
X183267Y182805D01*
Y185305D01*
X183129Y186349D01*
X182726Y187322D01*
X182085Y188158D01*
X181249Y188799D01*
X181022Y188894D01*
X180904Y189483D01*
X184192Y192771D01*
X190690D01*
X190854Y192271D01*
D02*
G37*
G36*
X50935Y199141D02*
X51897Y198179D01*
X53028Y197424D01*
X54285Y196903D01*
X55619Y196638D01*
X56979D01*
X57891Y196819D01*
X58138Y196359D01*
X50579Y188800D01*
X50117Y188991D01*
Y199466D01*
X50617Y199618D01*
X50935Y199141D01*
D02*
G37*
G36*
X192954Y201571D02*
X192538Y200851D01*
X192300Y199961D01*
Y199039D01*
X192538Y198149D01*
X192999Y197351D01*
X193651Y196699D01*
X194449Y196239D01*
X194858Y196129D01*
X194792Y195629D01*
X183600D01*
X183053Y195520D01*
X182589Y195211D01*
X178222Y190843D01*
X177912Y190379D01*
X177803Y189832D01*
Y189043D01*
X177215Y188799D01*
X176729Y188426D01*
X176229Y188673D01*
Y191008D01*
X187292Y202071D01*
X192790D01*
X192954Y201571D01*
D02*
G37*
G36*
X238774Y197605D02*
Y187136D01*
X238274Y186902D01*
X237651Y187261D01*
X236761Y187500D01*
X235839D01*
X234949Y187261D01*
X234151Y186801D01*
X233969Y186619D01*
X233469Y186826D01*
Y188142D01*
X233720Y188517D01*
X233829Y189064D01*
Y201897D01*
X234291Y202088D01*
X238774Y197605D01*
D02*
G37*
G36*
X224715Y187364D02*
X224500Y186561D01*
Y185639D01*
X224739Y184749D01*
X225199Y183951D01*
X225523Y183627D01*
X225316Y183127D01*
X210566D01*
X210566Y183127D01*
X210178Y183050D01*
X209932Y183511D01*
X215192Y188771D01*
X223308D01*
X224715Y187364D01*
D02*
G37*
G36*
X66571Y171008D02*
Y138700D01*
X66680Y138153D01*
X66989Y137689D01*
X69988Y134691D01*
X69797Y134229D01*
X55931D01*
X55740Y134729D01*
X56350Y135339D01*
X56877Y136251D01*
X57150Y137269D01*
Y138322D01*
X56877Y139339D01*
X56818Y139442D01*
X60365Y142990D01*
X60675Y143453D01*
X60783Y144000D01*
Y171137D01*
X60783Y171137D01*
X60675Y171684D01*
X60365Y172147D01*
X53511Y179001D01*
X53652Y179503D01*
X53692Y179527D01*
X54539Y179300D01*
X55461D01*
X56351Y179539D01*
X57149Y179999D01*
X57364Y180215D01*
X66571Y171008D01*
D02*
G37*
G36*
X181198Y175971D02*
X180782Y175251D01*
X180543Y174361D01*
Y173439D01*
X180782Y172549D01*
X181243Y171751D01*
X181266Y171728D01*
X180947Y171339D01*
X180881Y171384D01*
X180283Y171502D01*
X177803D01*
X177206Y171384D01*
X176900Y171179D01*
X176543Y171086D01*
X176187Y171179D01*
X175881Y171384D01*
X175284Y171502D01*
X172803D01*
X172206Y171384D01*
X171900Y171179D01*
X171543Y171086D01*
X171187Y171179D01*
X171045Y171274D01*
X170913Y171848D01*
X175535Y176471D01*
X176900D01*
X176900Y176471D01*
X176900Y176471D01*
X181034D01*
X181198Y175971D01*
D02*
G37*
G36*
X149806Y210545D02*
X150607Y209501D01*
X151652Y208699D01*
X152744Y208247D01*
Y191065D01*
X135155Y173476D01*
X133138D01*
X132722Y174196D01*
X132070Y174848D01*
X131272Y175309D01*
X130382Y175547D01*
X129461D01*
X128570Y175309D01*
X127772Y174848D01*
X127121Y174196D01*
X126660Y173398D01*
X126421Y172508D01*
Y171587D01*
X126660Y170696D01*
X127121Y169898D01*
X127772Y169246D01*
X128570Y168786D01*
X129461Y168547D01*
X130382D01*
X131272Y168786D01*
X132070Y169246D01*
X132722Y169898D01*
X133138Y170618D01*
X135747D01*
X136294Y170727D01*
X136758Y171037D01*
X137109Y171388D01*
X137571Y171197D01*
Y162692D01*
X126590Y151710D01*
X126280Y151247D01*
X126171Y150700D01*
Y135216D01*
X125451Y134801D01*
X124799Y134149D01*
X124338Y133351D01*
X124100Y132461D01*
Y131539D01*
X124338Y130649D01*
X124799Y129851D01*
X124859Y129791D01*
X124668Y129329D01*
X121192D01*
X117606Y132915D01*
Y135341D01*
X118106Y135548D01*
X118351Y135303D01*
X119149Y134842D01*
X120039Y134603D01*
X120961D01*
X121851Y134842D01*
X122649Y135303D01*
X123301Y135954D01*
X123761Y136752D01*
X124000Y137643D01*
Y138564D01*
X123761Y139454D01*
X123301Y140252D01*
X122649Y140904D01*
X121851Y141365D01*
X121508Y141457D01*
Y148358D01*
X122228Y148774D01*
X122879Y149425D01*
X123340Y150224D01*
X123579Y151114D01*
Y152035D01*
X123340Y152926D01*
X122879Y153724D01*
X122228Y154375D01*
X121429Y154836D01*
X120539Y155075D01*
X119618D01*
X118728Y154836D01*
X118106Y154477D01*
X117606Y154712D01*
Y163444D01*
X117761Y163599D01*
X118222Y164397D01*
X118461Y165287D01*
Y166209D01*
X118222Y167099D01*
X117761Y167897D01*
X117110Y168549D01*
X116312Y169009D01*
X115421Y169248D01*
X114500D01*
X113610Y169009D01*
X112812Y168549D01*
X112160Y167897D01*
X111699Y167099D01*
X111461Y166209D01*
Y165287D01*
X111699Y164397D01*
X112160Y163599D01*
X112812Y162947D01*
X113610Y162487D01*
X114500Y162248D01*
X114748D01*
Y139713D01*
X114269Y139568D01*
X114025Y139934D01*
X113063Y140895D01*
X111932Y141651D01*
X110676Y142172D01*
X109342Y142437D01*
X107981D01*
X107087Y142259D01*
X106841Y142720D01*
X109510Y145389D01*
X109511Y145389D01*
X109820Y145853D01*
X109929Y146400D01*
Y169508D01*
X115336Y174915D01*
X116139Y174700D01*
X117061D01*
X117951Y174938D01*
X118749Y175399D01*
X119401Y176051D01*
X119861Y176849D01*
X120100Y177739D01*
Y178661D01*
X119861Y179551D01*
X119401Y180349D01*
X119262Y180488D01*
X119453Y180950D01*
X132179D01*
X132726Y181059D01*
X133189Y181368D01*
X142810Y190989D01*
X143120Y191453D01*
X143229Y192000D01*
Y202084D01*
X143949Y202499D01*
X144601Y203151D01*
X145062Y203949D01*
X145300Y204839D01*
Y205761D01*
X145062Y206651D01*
X144601Y207449D01*
X144489Y207561D01*
X144668Y208089D01*
X145478Y208196D01*
X146695Y208699D01*
X147739Y209501D01*
X148541Y210545D01*
X148903Y211419D01*
X149444D01*
X149806Y210545D01*
D02*
G37*
G36*
X232202Y181799D02*
X232614Y181585D01*
Y171465D01*
X232206Y171384D01*
X231900Y171179D01*
X231543Y171086D01*
X231187Y171179D01*
X230881Y171384D01*
X230284Y171502D01*
X227803D01*
X227206Y171384D01*
X226900Y171179D01*
X226543Y171086D01*
X226187Y171179D01*
X225881Y171384D01*
X225284Y171502D01*
X222803D01*
X222206Y171384D01*
X221900Y171179D01*
X221543Y171086D01*
X221187Y171179D01*
X220881Y171384D01*
X220284Y171502D01*
X217803D01*
X217712Y171484D01*
X217466Y171945D01*
X218136Y172615D01*
X218939Y172400D01*
X219861D01*
X220751Y172638D01*
X221549Y173099D01*
X222201Y173751D01*
X222661Y174549D01*
X222900Y175439D01*
Y176361D01*
X222661Y177251D01*
X222201Y178049D01*
X221549Y178701D01*
X220751Y179162D01*
X219861Y179400D01*
X218939D01*
X218049Y179162D01*
X217251Y178701D01*
X216599Y178049D01*
X216139Y177251D01*
X215900Y176361D01*
Y175439D01*
X216115Y174636D01*
X215043Y173564D01*
X214543Y173772D01*
Y174461D01*
X214305Y175351D01*
X213844Y176149D01*
X213193Y176801D01*
X212394Y177261D01*
X211504Y177500D01*
X210583D01*
X209693Y177261D01*
X208894Y176801D01*
X208243Y176149D01*
X207782Y175351D01*
X207543Y174461D01*
Y173539D01*
X207782Y172649D01*
X207786Y172641D01*
X207723Y172547D01*
X207614Y172000D01*
Y171465D01*
X207206Y171384D01*
X206900Y171179D01*
X206543Y171086D01*
X206187Y171179D01*
X205881Y171384D01*
X205472Y171465D01*
Y174584D01*
X211158Y180269D01*
X230000D01*
X230547Y180378D01*
X231011Y180688D01*
X232131Y181808D01*
X232202Y181799D01*
D02*
G37*
G36*
X238774Y180864D02*
Y165102D01*
X237294Y163951D01*
X236845Y164170D01*
Y169941D01*
X236726Y170538D01*
X236388Y171045D01*
X235881Y171384D01*
X235472Y171465D01*
Y180219D01*
X235839Y180500D01*
X236761D01*
X237651Y180738D01*
X238274Y181098D01*
X238774Y180864D01*
D02*
G37*
G36*
X173113Y191659D02*
X173371Y191493D01*
Y180000D01*
X173480Y179453D01*
X173790Y178990D01*
X173901Y178878D01*
X168033Y173011D01*
X167723Y172547D01*
X167614Y172000D01*
Y171465D01*
X167206Y171384D01*
X166699Y171045D01*
X166361Y170538D01*
X166242Y169941D01*
Y167035D01*
X169043D01*
Y166035D01*
X166242D01*
Y163130D01*
X166251Y163085D01*
X165989Y162910D01*
X165491Y162412D01*
X165029Y162603D01*
Y183858D01*
X172883Y191712D01*
X173113Y191659D01*
D02*
G37*
G36*
X226900Y161892D02*
X227206Y161687D01*
X227803Y161568D01*
X230284D01*
X230881Y161687D01*
X231187Y161892D01*
X231543Y161985D01*
X231900Y161892D01*
X232206Y161687D01*
X232803Y161568D01*
X233447D01*
X233647Y161068D01*
X231590Y159011D01*
X231280Y158547D01*
X231171Y158000D01*
Y142110D01*
X230671Y141946D01*
X229951Y142361D01*
X229061Y142600D01*
X228139D01*
X227249Y142361D01*
X226451Y141901D01*
X225799Y141249D01*
X225339Y140451D01*
X225100Y139561D01*
Y138639D01*
X225315Y137836D01*
X218033Y130554D01*
X217723Y130090D01*
X217614Y129543D01*
Y114583D01*
X217114Y114378D01*
X216529Y114716D01*
Y134608D01*
X226610Y144690D01*
X226920Y145153D01*
X227029Y145700D01*
Y156000D01*
X227029Y156000D01*
X226920Y156547D01*
X226610Y157010D01*
X222503Y161118D01*
X222749Y161579D01*
X222803Y161568D01*
X225284D01*
X225881Y161687D01*
X226187Y161892D01*
X226543Y161985D01*
X226900Y161892D01*
D02*
G37*
G36*
X62488Y195959D02*
X62624Y195755D01*
X67715Y190664D01*
X67500Y189861D01*
Y188939D01*
X67738Y188049D01*
X68199Y187251D01*
X68851Y186599D01*
X69649Y186138D01*
X70539Y185900D01*
X71461D01*
X71796Y185990D01*
X72193Y185686D01*
Y177626D01*
X71473Y177210D01*
X70821Y176558D01*
X70361Y175760D01*
X70122Y174870D01*
Y173949D01*
X70361Y173058D01*
X70821Y172260D01*
X71473Y171609D01*
X72271Y171148D01*
X73161Y170909D01*
X74083D01*
X74973Y171148D01*
X75771Y171609D01*
X76423Y172260D01*
X76884Y173058D01*
X77122Y173949D01*
Y174870D01*
X76884Y175760D01*
X76423Y176558D01*
X75771Y177210D01*
X75051Y177626D01*
Y185775D01*
X75271Y185946D01*
X75771Y185702D01*
Y178700D01*
X75880Y178153D01*
X76190Y177690D01*
X91842Y162037D01*
Y154319D01*
X91342Y154083D01*
X90721Y154442D01*
X89831Y154681D01*
X88909D01*
X88019Y154442D01*
X87221Y153981D01*
X86569Y153330D01*
X86137Y152581D01*
X85734Y152501D01*
X85270Y152191D01*
X77164Y144085D01*
X76361Y144300D01*
X75439D01*
X74549Y144062D01*
X73751Y143601D01*
X73099Y142949D01*
X72638Y142151D01*
X72400Y141261D01*
Y140339D01*
X72638Y139449D01*
X73099Y138651D01*
X73751Y137999D01*
X74549Y137539D01*
X75439Y137300D01*
X76361D01*
X77251Y137539D01*
X78049Y137999D01*
X78701Y138651D01*
X79162Y139449D01*
X79400Y140339D01*
Y141261D01*
X79185Y142064D01*
X86201Y149080D01*
X86569Y149032D01*
X87221Y148380D01*
X88019Y147919D01*
X88737Y147727D01*
X88956Y147319D01*
X88974Y147181D01*
X88880Y147040D01*
X88771Y146493D01*
Y145616D01*
X88051Y145201D01*
X87399Y144549D01*
X86939Y143751D01*
X86700Y142861D01*
Y141939D01*
X86939Y141049D01*
X87399Y140251D01*
X88051Y139599D01*
X88849Y139138D01*
X89739Y138900D01*
X90661D01*
X91045Y139003D01*
X91632Y138646D01*
X91649Y138570D01*
X89208Y136129D01*
X72592D01*
X69429Y139292D01*
Y171600D01*
X69320Y172147D01*
X69011Y172610D01*
X58500Y183121D01*
Y183261D01*
X58262Y184151D01*
X57801Y184949D01*
X57149Y185601D01*
X56351Y186062D01*
X55461Y186300D01*
X54539D01*
X53649Y186062D01*
X52851Y185601D01*
X52420Y185170D01*
X51920Y185377D01*
Y186099D01*
X61876Y196055D01*
X62488Y195959D01*
D02*
G37*
G36*
X162171Y182897D02*
Y153918D01*
X161627Y153604D01*
X161127Y153840D01*
Y182507D01*
X161709Y183088D01*
X162171Y182897D01*
D02*
G37*
G36*
X224171Y155408D02*
Y153680D01*
X223671Y153477D01*
X223005Y153861D01*
X222114Y154100D01*
X221193D01*
X220390Y153885D01*
X215865Y158409D01*
X216057Y158871D01*
X220708D01*
X224171Y155408D01*
D02*
G37*
G36*
X175575Y158891D02*
X176038Y158581D01*
X176585Y158473D01*
X176585Y158473D01*
X185071D01*
X185205Y157973D01*
X184998Y157853D01*
X184347Y157202D01*
X183886Y156404D01*
X183647Y155513D01*
Y154592D01*
X183886Y153702D01*
X184347Y152903D01*
X184621Y152629D01*
X184414Y152129D01*
X170990D01*
X169105Y154014D01*
X169326Y154500D01*
X170061D01*
X170951Y154738D01*
X171749Y155199D01*
X172401Y155851D01*
X172862Y156649D01*
X173100Y157539D01*
Y158461D01*
X172885Y159264D01*
X174043Y160422D01*
X175575Y158891D01*
D02*
G37*
G36*
X193314Y151786D02*
X193200Y151361D01*
Y150439D01*
X193415Y149636D01*
X184189Y140410D01*
X183880Y139947D01*
X183771Y139400D01*
Y134716D01*
X183051Y134301D01*
X182399Y133649D01*
X181939Y132851D01*
X181700Y131961D01*
Y131039D01*
X181939Y130149D01*
X182399Y129351D01*
X183051Y128699D01*
X183849Y128238D01*
X184739Y128000D01*
X185661D01*
X186551Y128238D01*
X187162Y128591D01*
X187662Y128348D01*
Y121312D01*
X187200Y121121D01*
X177429Y130892D01*
Y131501D01*
X178149Y131916D01*
X178801Y132568D01*
X179262Y133366D01*
X179500Y134256D01*
Y135178D01*
X179262Y136068D01*
X178801Y136866D01*
X178149Y137518D01*
X177351Y137978D01*
X176461Y138217D01*
X175539D01*
X174649Y137978D01*
X173851Y137518D01*
X173199Y136866D01*
X172739Y136068D01*
X172500Y135178D01*
Y134256D01*
X172657Y133671D01*
X172208Y133413D01*
X161127Y144493D01*
Y147564D01*
X161627Y147799D01*
X162249Y147440D01*
X163139Y147202D01*
X164061D01*
X164951Y147440D01*
X165749Y147901D01*
X166401Y148553D01*
X166861Y149351D01*
X167100Y150241D01*
Y151162D01*
X167060Y151310D01*
X167509Y151569D01*
X169388Y149690D01*
X169388Y149689D01*
X169852Y149380D01*
X170398Y149271D01*
X189500D01*
X190047Y149380D01*
X190510Y149689D01*
X192866Y152045D01*
X193314Y151786D01*
D02*
G37*
G36*
X158201Y183129D02*
X158269Y183068D01*
Y149137D01*
X157910Y148993D01*
X157769Y148980D01*
X157149Y149601D01*
X156429Y150016D01*
Y181935D01*
X157801Y183307D01*
X158201Y183129D01*
D02*
G37*
G36*
X199173Y147762D02*
Y143695D01*
X197533Y142055D01*
X197223Y141592D01*
X197114Y141045D01*
Y140185D01*
X189685D01*
X188911Y140031D01*
X188255Y139592D01*
X187816Y138936D01*
X187662Y138162D01*
Y134652D01*
X187162Y134409D01*
X186629Y134716D01*
Y138808D01*
X195436Y147615D01*
X196239Y147400D01*
X197161D01*
X198051Y147638D01*
X198673Y147997D01*
X199173Y147762D01*
D02*
G37*
G36*
X141569Y165484D02*
Y145200D01*
X141107Y145009D01*
X139145Y146971D01*
X139149Y146999D01*
X139801Y147651D01*
X140261Y148449D01*
X140500Y149339D01*
Y150261D01*
X140261Y151151D01*
X139801Y151949D01*
X139149Y152601D01*
X138351Y153061D01*
X137461Y153300D01*
X136539D01*
X135649Y153061D01*
X134851Y152601D01*
X134199Y151949D01*
X133739Y151151D01*
X133500Y150261D01*
Y149339D01*
X133739Y148449D01*
X134199Y147651D01*
X134851Y146999D01*
X135649Y146538D01*
X135694Y146526D01*
X135989Y146085D01*
X154570Y127504D01*
X154363Y127004D01*
X133278D01*
X133087Y127466D01*
X134336Y128715D01*
X135139Y128500D01*
X136061D01*
X136951Y128738D01*
X137749Y129199D01*
X138401Y129851D01*
X138862Y130649D01*
X139100Y131539D01*
Y132461D01*
X138862Y133351D01*
X138401Y134149D01*
X137749Y134801D01*
X136951Y135261D01*
X136061Y135500D01*
X135139D01*
X134249Y135261D01*
X133451Y134801D01*
X132799Y134149D01*
X132339Y133351D01*
X132100Y132461D01*
Y131539D01*
X132315Y130736D01*
X130994Y129415D01*
X130707Y129450D01*
X130595Y129597D01*
X130461Y129956D01*
X130861Y130649D01*
X131100Y131539D01*
Y132461D01*
X130861Y133351D01*
X130401Y134149D01*
X129749Y134801D01*
X129029Y135216D01*
Y150108D01*
X140010Y161090D01*
X140010Y161090D01*
X140320Y161553D01*
X140429Y162100D01*
Y165690D01*
X140929Y165854D01*
X141569Y165484D01*
D02*
G37*
G36*
X151691Y139988D02*
X152155Y139678D01*
X152702Y139569D01*
X159459D01*
X160967Y138062D01*
X160768Y137554D01*
X160049Y137362D01*
X159251Y136901D01*
X158599Y136249D01*
X158139Y135451D01*
X157900Y134561D01*
Y133639D01*
X158139Y132749D01*
X158497Y132127D01*
X158262Y131627D01*
X157292D01*
X146026Y142893D01*
X146285Y143341D01*
X146439Y143300D01*
X147361D01*
X148164Y143515D01*
X151691Y139988D01*
D02*
G37*
G36*
X169806Y210545D02*
X170607Y209501D01*
X171652Y208699D01*
X172744Y208247D01*
Y202292D01*
X153990Y183537D01*
X153680Y183074D01*
X153571Y182527D01*
Y150016D01*
X152851Y149601D01*
X152199Y148949D01*
X151739Y148151D01*
X151500Y147261D01*
Y146339D01*
X151739Y145449D01*
X152199Y144651D01*
X152851Y143999D01*
X153649Y143538D01*
X154539Y143300D01*
X155461D01*
X156351Y143538D01*
X157149Y143999D01*
X157769Y144620D01*
X157910Y144607D01*
X158269Y144463D01*
Y143902D01*
X158378Y143355D01*
X158664Y142927D01*
X158613Y142705D01*
X158498Y142427D01*
X153294D01*
X150185Y145536D01*
X150400Y146339D01*
Y147261D01*
X150162Y148151D01*
X149701Y148949D01*
X149049Y149601D01*
X148251Y150062D01*
X147361Y150300D01*
X146439D01*
X145549Y150062D01*
X144927Y149703D01*
X144427Y149938D01*
Y165483D01*
X145149Y165899D01*
X145801Y166551D01*
X146262Y167349D01*
X146500Y168239D01*
Y169161D01*
X146262Y170051D01*
X145801Y170849D01*
X145149Y171501D01*
X144351Y171961D01*
X143461Y172200D01*
X142539D01*
X142155Y172097D01*
X141568Y172454D01*
X141551Y172530D01*
X165184Y196163D01*
X165494Y196626D01*
X165602Y197173D01*
Y208247D01*
X166695Y208699D01*
X167739Y209501D01*
X168541Y210545D01*
X168903Y211419D01*
X169444D01*
X169806Y210545D01*
D02*
G37*
G36*
X258803Y180776D02*
Y140067D01*
X258325Y139922D01*
X258120Y140229D01*
X257158Y141191D01*
X256027Y141946D01*
X254770Y142467D01*
X253436Y142732D01*
X252076D01*
X250742Y142467D01*
X249485Y141946D01*
X248354Y141191D01*
X247392Y140229D01*
X246636Y139098D01*
X246116Y137841D01*
X245850Y136507D01*
Y135147D01*
X246116Y133812D01*
X246636Y132556D01*
X247392Y131425D01*
X248354Y130463D01*
X249485Y129707D01*
X250742Y129187D01*
X252076Y128921D01*
X253436D01*
X254770Y129187D01*
X256027Y129707D01*
X257158Y130463D01*
X258120Y131425D01*
X258325Y131732D01*
X258803Y131587D01*
Y74838D01*
X258303Y74603D01*
X257890Y74841D01*
Y81217D01*
X255272D01*
X255081Y81678D01*
X255341Y81939D01*
X255341Y81939D01*
X255651Y82402D01*
X255760Y82949D01*
X255760Y82949D01*
Y83547D01*
X257890D01*
Y86311D01*
X254331D01*
X250772D01*
Y83547D01*
X250772D01*
X250771Y83276D01*
X250420Y83173D01*
X249996Y83500D01*
Y94097D01*
X249887Y94643D01*
X249577Y95107D01*
X237474Y107211D01*
X237386Y107269D01*
X237480Y107580D01*
Y110571D01*
X238480D01*
Y107769D01*
X241386D01*
X241984Y107888D01*
X242490Y108227D01*
X242828Y108733D01*
X242910Y109142D01*
X247408D01*
X247750Y108800D01*
X247543Y108300D01*
X246839D01*
X245949Y108062D01*
X245151Y107601D01*
X244499Y106949D01*
X244039Y106151D01*
X243811Y105300D01*
X247300D01*
Y104800D01*
X247800D01*
Y101311D01*
X248564Y101515D01*
X252902Y97177D01*
Y90075D01*
X250772D01*
Y87311D01*
X254331D01*
X257890D01*
Y90075D01*
X255760D01*
Y97769D01*
Y104240D01*
X255651Y104787D01*
X255341Y105251D01*
X255341Y105251D01*
X249010Y111581D01*
X248547Y111891D01*
X248000Y112000D01*
X246103D01*
X245912Y112462D01*
X246410Y112960D01*
X246410Y112960D01*
X246720Y113424D01*
X246829Y113971D01*
X246829Y113971D01*
Y119094D01*
X247549Y119510D01*
X248201Y120162D01*
X248661Y120960D01*
X248889Y121811D01*
X245400D01*
Y122311D01*
X244900D01*
Y125800D01*
X244049Y125572D01*
X243447Y125225D01*
X242947Y125475D01*
Y126811D01*
X242828Y127409D01*
X242624Y127715D01*
X242531Y128071D01*
X242624Y128427D01*
X242828Y128733D01*
X242947Y129331D01*
Y131811D01*
X242828Y132408D01*
X242624Y132715D01*
X242531Y133071D01*
X242624Y133427D01*
X242828Y133733D01*
X242947Y134331D01*
Y136811D01*
X242828Y137408D01*
X242624Y137715D01*
X242531Y138071D01*
X242624Y138427D01*
X242828Y138733D01*
X242947Y139331D01*
Y141811D01*
X242828Y142409D01*
X242624Y142715D01*
X242531Y143071D01*
X242624Y143427D01*
X242828Y143733D01*
X242947Y144331D01*
Y146811D01*
X242828Y147408D01*
X242624Y147715D01*
X242531Y148071D01*
X242624Y148427D01*
X242828Y148733D01*
X242947Y149331D01*
Y151811D01*
X242828Y152409D01*
X242624Y152715D01*
X242531Y153071D01*
X242624Y153427D01*
X242828Y153733D01*
X242947Y154331D01*
Y156811D01*
X242828Y157408D01*
X242490Y157915D01*
X241984Y158254D01*
X241386Y158372D01*
X235647D01*
X235455Y158834D01*
X235748Y159127D01*
X241081Y163275D01*
X241139Y163343D01*
X241214Y163393D01*
X241320Y163552D01*
X241445Y163697D01*
X241474Y163782D01*
X241524Y163856D01*
X241561Y164044D01*
X241621Y164226D01*
X241615Y164315D01*
X241632Y164403D01*
Y197293D01*
X242094Y197485D01*
X258803Y180776D01*
D02*
G37*
G36*
X209669Y147319D02*
Y139239D01*
X209169Y139087D01*
X208832Y139592D01*
X208176Y140031D01*
X207402Y140185D01*
X200411D01*
X200204Y140685D01*
X201612Y142093D01*
X201612Y142093D01*
X201922Y142556D01*
X202031Y143103D01*
Y153200D01*
X201922Y153747D01*
X201612Y154210D01*
X201612Y154210D01*
X201109Y154714D01*
X201300Y155176D01*
X201813D01*
X209669Y147319D01*
D02*
G37*
G36*
X231171Y136090D02*
Y107600D01*
X231280Y107053D01*
X231590Y106589D01*
X232990Y105190D01*
X233163Y105073D01*
X233012Y104573D01*
X232803D01*
X232206Y104455D01*
X231900Y104250D01*
X231543Y104157D01*
X231187Y104250D01*
X230881Y104455D01*
X230284Y104573D01*
X227803D01*
X227206Y104455D01*
X226900Y104250D01*
X226543Y104157D01*
X226187Y104250D01*
X225881Y104455D01*
X225284Y104573D01*
X222803D01*
X222206Y104455D01*
X221900Y104250D01*
X221543Y104157D01*
X221187Y104250D01*
X220881Y104455D01*
X220472Y104536D01*
Y128952D01*
X227336Y135815D01*
X228139Y135600D01*
X229061D01*
X229951Y135838D01*
X230671Y136254D01*
X231171Y136090D01*
D02*
G37*
G36*
X113938Y180488D02*
X113799Y180349D01*
X113338Y179551D01*
X113100Y178661D01*
Y177739D01*
X113315Y176936D01*
X107490Y171110D01*
X107180Y170647D01*
X107071Y170100D01*
Y146992D01*
X94308Y134229D01*
X92003D01*
X91812Y134691D01*
X98111Y140989D01*
X98420Y141453D01*
X98529Y142000D01*
X98529Y142000D01*
Y177808D01*
X101671Y180950D01*
X113747D01*
X113938Y180488D01*
D02*
G37*
G36*
X218369Y151864D02*
X218154Y151061D01*
Y150139D01*
X218392Y149249D01*
X218853Y148451D01*
X219505Y147799D01*
X220303Y147338D01*
X221193Y147100D01*
X222114D01*
X223005Y147338D01*
X223671Y147723D01*
X224171Y147520D01*
Y146292D01*
X214089Y136211D01*
X213780Y135747D01*
X213671Y135200D01*
Y114716D01*
X213027Y114345D01*
X212527Y114508D01*
Y147911D01*
X212527Y147911D01*
X212419Y148458D01*
X212109Y148922D01*
X212109Y148922D01*
X203415Y157615D01*
X202952Y157925D01*
X202713Y157973D01*
X202762Y158473D01*
X211760D01*
X218369Y151864D01*
D02*
G37*
G36*
X175315Y118164D02*
X175100Y117361D01*
Y116439D01*
X175338Y115549D01*
X175754Y114829D01*
X175590Y114329D01*
X173520D01*
X173216Y114726D01*
X173300Y115039D01*
Y115961D01*
X173062Y116851D01*
X172601Y117649D01*
X171949Y118301D01*
X171151Y118762D01*
X170261Y119000D01*
X169339D01*
X168449Y118762D01*
X167651Y118301D01*
X166999Y117649D01*
X166539Y116851D01*
X166300Y115961D01*
Y115776D01*
X165800Y115515D01*
X165634Y115631D01*
Y126595D01*
X165526Y127141D01*
X165315Y127457D01*
X165703Y127776D01*
X175315Y118164D01*
D02*
G37*
G36*
X162776Y126003D02*
Y114732D01*
X162885Y114185D01*
X163195Y113722D01*
X167189Y109728D01*
X167189Y109728D01*
X167652Y109418D01*
X168199Y109309D01*
X168199Y109309D01*
X171713D01*
X176107Y104915D01*
X175887Y104481D01*
X175856Y104460D01*
X175284Y104573D01*
X172803D01*
X172206Y104455D01*
X171900Y104250D01*
X171543Y104157D01*
X171187Y104250D01*
X170881Y104455D01*
X170283Y104573D01*
X169543D01*
Y99606D01*
X169043D01*
Y99106D01*
X166242D01*
Y97592D01*
X165780Y97401D01*
X160811Y102369D01*
Y127261D01*
X161218Y127473D01*
X161295Y127484D01*
X162776Y126003D01*
D02*
G37*
G36*
X199043Y118422D02*
X207402D01*
X208176Y118576D01*
X208832Y119014D01*
X209169Y119519D01*
X209669Y119367D01*
Y107600D01*
X209778Y107053D01*
X210088Y106589D01*
X211706Y104971D01*
X211641Y104411D01*
X211316Y104216D01*
X211187Y104250D01*
X210881Y104455D01*
X210284Y104573D01*
X207803D01*
X207206Y104455D01*
X206900Y104250D01*
X206543Y104157D01*
X206187Y104250D01*
X205881Y104455D01*
X205472Y104536D01*
Y106600D01*
X205472Y106600D01*
X205364Y107147D01*
X205054Y107610D01*
X205054Y107610D01*
X199354Y113311D01*
X198890Y113620D01*
X198343Y113729D01*
X194592D01*
X190361Y117960D01*
X190552Y118422D01*
X198043D01*
Y129303D01*
X199043D01*
Y118422D01*
D02*
G37*
G36*
X192614Y106414D02*
Y104536D01*
X192206Y104455D01*
X191900Y104250D01*
X191543Y104157D01*
X191187Y104250D01*
X190881Y104455D01*
X190284Y104573D01*
X187803D01*
X187206Y104455D01*
X186900Y104250D01*
X186543Y104157D01*
X186187Y104250D01*
X185881Y104455D01*
X185284Y104573D01*
X182993D01*
X182927Y105073D01*
X183549Y105240D01*
X184347Y105701D01*
X184999Y106352D01*
X185460Y107151D01*
X185698Y108041D01*
Y108962D01*
X185460Y109853D01*
X184999Y110651D01*
X184347Y111302D01*
X183549Y111763D01*
X182659Y112002D01*
X181738D01*
X180935Y111786D01*
X179620Y113101D01*
X179749Y113584D01*
X179951Y113638D01*
X180749Y114099D01*
X181401Y114751D01*
X181861Y115549D01*
X182054Y116268D01*
X182562Y116466D01*
X192614Y106414D01*
D02*
G37*
G36*
X206900Y94963D02*
X207206Y94758D01*
X207681Y94664D01*
X207723Y94453D01*
X208033Y93989D01*
X209133Y92889D01*
X209133Y92889D01*
X209596Y92580D01*
X210143Y92471D01*
X239458D01*
X239592Y91971D01*
X238951Y91601D01*
X238299Y90949D01*
X237884Y90229D01*
X197500D01*
X196953Y90120D01*
X196490Y89811D01*
X196490Y89811D01*
X184108Y77429D01*
X180910D01*
X180746Y77929D01*
X181161Y78649D01*
X181400Y79539D01*
Y80461D01*
X181161Y81351D01*
X180701Y82149D01*
X180049Y82801D01*
X179640Y83037D01*
X179571Y83650D01*
X184836Y88915D01*
X185639Y88700D01*
X186561D01*
X187451Y88938D01*
X188249Y89399D01*
X188901Y90051D01*
X189362Y90849D01*
X189600Y91739D01*
Y92661D01*
X189362Y93551D01*
X189022Y94139D01*
X189281Y94639D01*
X190284D01*
X190881Y94758D01*
X191187Y94963D01*
X191543Y95056D01*
X191900Y94963D01*
X192206Y94758D01*
X192803Y94639D01*
X195283D01*
X195881Y94758D01*
X196187Y94963D01*
X196543Y95056D01*
X196900Y94963D01*
X197206Y94758D01*
X197803Y94639D01*
X200284D01*
X200881Y94758D01*
X201187Y94963D01*
X201543Y95056D01*
X201900Y94963D01*
X202206Y94758D01*
X202803Y94639D01*
X205284D01*
X205881Y94758D01*
X206187Y94963D01*
X206543Y95056D01*
X206900Y94963D01*
D02*
G37*
G36*
X171900D02*
X172206Y94758D01*
X172471Y94705D01*
Y78000D01*
X172580Y77453D01*
X172889Y76990D01*
X174890Y74989D01*
X174890Y74989D01*
X175353Y74680D01*
X175900Y74571D01*
X175900Y74571D01*
X184700D01*
X185247Y74680D01*
X185711Y74989D01*
X198092Y87371D01*
X237815D01*
X238051Y86940D01*
X237768Y86571D01*
X237661Y86600D01*
X236739D01*
X235849Y86361D01*
X235051Y85901D01*
X234399Y85249D01*
X233939Y84451D01*
X233700Y83561D01*
Y82639D01*
X233915Y81836D01*
X226390Y74310D01*
X226080Y73847D01*
X225971Y73300D01*
Y68216D01*
X225251Y67801D01*
X224599Y67149D01*
X224138Y66351D01*
X223900Y65461D01*
Y64539D01*
X224138Y63649D01*
X224599Y62851D01*
X225251Y62199D01*
X226049Y61739D01*
X226939Y61500D01*
X227861D01*
X228751Y61739D01*
X229549Y62199D01*
X230201Y62851D01*
X230662Y63649D01*
X230900Y64539D01*
Y65461D01*
X230662Y66351D01*
X230201Y67149D01*
X229549Y67801D01*
X228829Y68216D01*
Y72708D01*
X235936Y79815D01*
X236739Y79600D01*
X237661D01*
X238551Y79839D01*
X239349Y80299D01*
X240001Y80951D01*
X240461Y81749D01*
X240700Y82639D01*
Y83561D01*
X240461Y84451D01*
X240203Y84899D01*
X240532Y85329D01*
X240639Y85300D01*
X241561D01*
X242451Y85539D01*
X243073Y85897D01*
X243573Y85662D01*
Y62493D01*
X227418Y46339D01*
X226944Y46572D01*
X226994Y46949D01*
Y48917D01*
X226878Y49795D01*
X226539Y50613D01*
X226000Y51315D01*
X225298Y51854D01*
X224480Y52193D01*
X223602Y52308D01*
X222725Y52193D01*
X221907Y51854D01*
X221204Y51315D01*
X220666Y50613D01*
X220327Y49795D01*
X220211Y48917D01*
Y46949D01*
X220327Y46071D01*
X220666Y45253D01*
X221204Y44551D01*
X221907Y44012D01*
X222725Y43673D01*
X223602Y43558D01*
X223979Y43607D01*
X224213Y43134D01*
X210089Y29010D01*
X209908Y28739D01*
X209323Y28618D01*
X209149Y28791D01*
X208237Y29318D01*
X207220Y29591D01*
X207193D01*
Y25591D01*
X206693D01*
Y25091D01*
X202693D01*
Y25064D01*
X202966Y24047D01*
X203492Y23134D01*
X203636Y22991D01*
X203444Y22529D01*
X200099D01*
X199908Y22991D01*
X200051Y23134D01*
X200578Y24047D01*
X200850Y25064D01*
Y26117D01*
X200578Y27134D01*
X200051Y28047D01*
X199306Y28791D01*
X198394Y29318D01*
X198279Y29349D01*
Y29528D01*
X198171Y30075D01*
X197861Y30538D01*
X197861Y30538D01*
X176896Y51503D01*
X176956Y51606D01*
X177228Y52623D01*
Y53676D01*
X176956Y54694D01*
X176429Y55606D01*
X175684Y56350D01*
X174772Y56877D01*
X173755Y57150D01*
X172702D01*
X171685Y56877D01*
X170772Y56350D01*
X170691Y56269D01*
X170229Y56460D01*
Y93395D01*
X170364Y93597D01*
X170472Y94143D01*
Y94677D01*
X170881Y94758D01*
X171187Y94963D01*
X171543Y95056D01*
X171900Y94963D01*
D02*
G37*
G36*
X176900D02*
X177206Y94758D01*
X177803Y94639D01*
X180283D01*
X180881Y94758D01*
X181187Y94963D01*
X181543Y95056D01*
X181900Y94963D01*
X182206Y94758D01*
X182803Y94639D01*
X182919D01*
X183178Y94139D01*
X182838Y93551D01*
X182600Y92661D01*
Y91739D01*
X182815Y90936D01*
X176890Y85010D01*
X176580Y84547D01*
X176471Y84000D01*
Y83216D01*
X175829Y82846D01*
X175329Y83010D01*
Y94648D01*
X175881Y94758D01*
X176187Y94963D01*
X176543Y95056D01*
X176900Y94963D01*
D02*
G37*
G36*
X170772Y49949D02*
X171685Y49422D01*
X172702Y49150D01*
X173755D01*
X174772Y49422D01*
X174875Y49482D01*
X194846Y29511D01*
X194781Y29015D01*
X194394Y28791D01*
X193650Y28047D01*
X193123Y27134D01*
X192850Y26117D01*
Y25064D01*
X193123Y24047D01*
X193316Y23712D01*
X192916Y23405D01*
X186610Y29711D01*
X186147Y30020D01*
X185600Y30129D01*
X176257D01*
X176050Y30629D01*
X176429Y31008D01*
X176956Y31921D01*
X177228Y32938D01*
Y33991D01*
X176956Y35008D01*
X176429Y35921D01*
X175684Y36665D01*
X174772Y37192D01*
X173755Y37465D01*
X172702D01*
X171685Y37192D01*
X171581Y37132D01*
X167429Y41285D01*
Y46388D01*
X167929Y46585D01*
X169561Y44954D01*
X169501Y44851D01*
X169228Y43834D01*
Y43807D01*
X172728D01*
Y47307D01*
X172702D01*
X171685Y47034D01*
X171581Y46975D01*
X170229Y48327D01*
Y49839D01*
X170691Y50030D01*
X170772Y49949D01*
D02*
G37*
G36*
X252902Y73700D02*
X253011Y73153D01*
X253074Y73059D01*
X253069Y73051D01*
X252831Y72161D01*
Y71239D01*
X253069Y70349D01*
X253530Y69551D01*
X254182Y68899D01*
X254980Y68439D01*
X255870Y68200D01*
X256792D01*
X257682Y68439D01*
X258303Y68797D01*
X258803Y68562D01*
Y47124D01*
X254500Y42821D01*
X254000Y43028D01*
Y43834D01*
X253727Y44851D01*
X253668Y44954D01*
X255510Y46797D01*
X255820Y47260D01*
X255929Y47807D01*
Y61697D01*
X255820Y62244D01*
X255510Y62707D01*
X251799Y66419D01*
Y74689D01*
X252902D01*
Y73700D01*
D02*
G37*
G36*
X164571Y87890D02*
Y40693D01*
X164680Y40146D01*
X164989Y39682D01*
X169561Y35112D01*
X169501Y35008D01*
X169228Y33991D01*
Y32938D01*
X169501Y31921D01*
X170028Y31008D01*
X170407Y30629D01*
X170200Y30129D01*
X168592D01*
X163429Y35292D01*
Y87684D01*
X164071Y88054D01*
X164571Y87890D01*
D02*
G37*
%LPC*%
G36*
X145012Y252969D02*
X144862D01*
X143606Y252632D01*
X142480Y251982D01*
X141561Y251063D01*
X140911Y249937D01*
X140575Y248682D01*
Y248532D01*
X145012D01*
Y252969D01*
D02*
G37*
G36*
X50681Y231783D02*
X47181D01*
Y231757D01*
X47454Y230739D01*
X47980Y229827D01*
X48725Y229083D01*
X49637Y228556D01*
X50655Y228283D01*
X50681D01*
Y231783D01*
D02*
G37*
G36*
X241157Y235055D02*
X236720D01*
Y226681D01*
X241157D01*
Y235055D01*
D02*
G37*
G36*
Y225681D02*
X236720D01*
Y217307D01*
X241157D01*
Y225681D01*
D02*
G37*
G36*
X256288Y204902D02*
X254972D01*
X253700Y204561D01*
X252560Y203903D01*
X251629Y202972D01*
X250971Y201832D01*
X250630Y200560D01*
Y199243D01*
X250971Y197972D01*
X251629Y196832D01*
X252560Y195901D01*
X253700Y195242D01*
X254972Y194902D01*
X256288D01*
X257560Y195242D01*
X258700Y195901D01*
X259631Y196832D01*
X260289Y197972D01*
X260630Y199243D01*
Y200560D01*
X260289Y201832D01*
X259631Y202972D01*
X258700Y203903D01*
X257560Y204561D01*
X256288Y204902D01*
D02*
G37*
G36*
X52650Y161480D02*
X52623D01*
X51606Y161208D01*
X50694Y160681D01*
X49949Y159936D01*
X49422Y159024D01*
X49150Y158007D01*
Y157980D01*
X52650D01*
Y161480D01*
D02*
G37*
G36*
X57150Y156980D02*
X53650D01*
Y153480D01*
X53676D01*
X54694Y153753D01*
X55606Y154280D01*
X56350Y155024D01*
X56877Y155937D01*
X57150Y156954D01*
Y156980D01*
D02*
G37*
G36*
X52650D02*
X49150D01*
Y156954D01*
X49422Y155937D01*
X49949Y155024D01*
X50694Y154280D01*
X51606Y153753D01*
X52623Y153480D01*
X52650D01*
Y156980D01*
D02*
G37*
G36*
X249500Y47307D02*
X249473D01*
X248456Y47034D01*
X247544Y46508D01*
X246799Y45763D01*
X246273Y44851D01*
X246000Y43834D01*
Y43807D01*
X249500D01*
Y47307D01*
D02*
G37*
G36*
X250527Y27622D02*
X249473D01*
X248456Y27349D01*
X247544Y26823D01*
X246799Y26078D01*
X246273Y25166D01*
X246000Y24149D01*
Y23095D01*
X246273Y22078D01*
X246799Y21166D01*
X247544Y20421D01*
X248456Y19895D01*
X249473Y19622D01*
X250527D01*
X251544Y19895D01*
X252456Y20421D01*
X253201Y21166D01*
X253727Y22078D01*
X254000Y23095D01*
Y24149D01*
X253727Y25166D01*
X253201Y26078D01*
X252456Y26823D01*
X251544Y27349D01*
X250527Y27622D01*
D02*
G37*
G36*
X79000Y214890D02*
X78149Y214662D01*
X77351Y214201D01*
X76699Y213549D01*
X76239Y212751D01*
X76011Y211900D01*
X79000D01*
Y214890D01*
D02*
G37*
G36*
X214201Y214590D02*
Y211601D01*
X217190D01*
X216962Y212452D01*
X216501Y213250D01*
X215850Y213901D01*
X215052Y214362D01*
X214201Y214590D01*
D02*
G37*
G36*
X213201D02*
X212350Y214362D01*
X211552Y213901D01*
X210900Y213250D01*
X210439Y212452D01*
X210211Y211601D01*
X213201D01*
Y214590D01*
D02*
G37*
G36*
X217190Y210601D02*
X214201D01*
Y207611D01*
X215052Y207839D01*
X215850Y208300D01*
X216501Y208952D01*
X216962Y209750D01*
X217190Y210601D01*
D02*
G37*
G36*
X118000Y191589D02*
X117149Y191361D01*
X116351Y190901D01*
X115699Y190249D01*
X115238Y189451D01*
X115010Y188600D01*
X118000D01*
Y191589D01*
D02*
G37*
G36*
X188732Y189274D02*
X188188Y189202D01*
X187215Y188799D01*
X186379Y188158D01*
X185738Y187322D01*
X185335Y186349D01*
X185198Y185305D01*
Y184555D01*
X188732D01*
Y189274D01*
D02*
G37*
G36*
X245900Y125800D02*
Y122811D01*
X248889D01*
X248661Y123662D01*
X248201Y124460D01*
X247549Y125111D01*
X246751Y125572D01*
X245900Y125800D01*
D02*
G37*
G36*
X246800Y104300D02*
X243811D01*
X244039Y103449D01*
X244499Y102651D01*
X245151Y101999D01*
X245949Y101539D01*
X246800Y101311D01*
Y104300D01*
D02*
G37*
G36*
X168543Y104573D02*
X167803D01*
X167206Y104455D01*
X166699Y104116D01*
X166361Y103610D01*
X166242Y103012D01*
Y100106D01*
X168543D01*
Y104573D01*
D02*
G37*
G36*
X211516Y82619D02*
X210767Y82521D01*
X210068Y82231D01*
X209469Y81771D01*
X209009Y81172D01*
X208720Y80474D01*
X208621Y79724D01*
Y79018D01*
X208121Y78919D01*
X208050Y79090D01*
X207436Y79703D01*
X206635Y80036D01*
X205767D01*
X204965Y79703D01*
X204352Y79090D01*
X204020Y78288D01*
Y77421D01*
X204352Y76619D01*
X204965Y76005D01*
X205767Y75673D01*
X206635D01*
X207436Y76005D01*
X208050Y76619D01*
X208276Y77165D01*
X208817Y77165D01*
X209009Y76702D01*
X209469Y76103D01*
X210068Y75643D01*
X210767Y75353D01*
X211516Y75255D01*
X212265Y75353D01*
X212963Y75643D01*
X213563Y76103D01*
X214023Y76702D01*
X214312Y77400D01*
X214411Y78150D01*
Y79724D01*
X214312Y80474D01*
X214023Y81172D01*
X213563Y81771D01*
X212963Y82231D01*
X212265Y82521D01*
X211516Y82619D01*
D02*
G37*
G36*
X223602Y84592D02*
X222725Y84477D01*
X221907Y84138D01*
X221204Y83599D01*
X220666Y82897D01*
X220327Y82079D01*
X220211Y81201D01*
Y79232D01*
X220327Y78355D01*
X220666Y77537D01*
X221204Y76834D01*
X221907Y76296D01*
X222725Y75957D01*
X223602Y75841D01*
X224480Y75957D01*
X225298Y76296D01*
X226000Y76834D01*
X226539Y77537D01*
X226878Y78355D01*
X226994Y79232D01*
Y81201D01*
X226878Y82079D01*
X226539Y82897D01*
X226000Y83599D01*
X225298Y84138D01*
X224480Y84477D01*
X223602Y84592D01*
D02*
G37*
G36*
X199429D02*
X198551Y84477D01*
X197734Y84138D01*
X197031Y83599D01*
X196492Y82897D01*
X196153Y82079D01*
X196038Y81201D01*
Y79232D01*
X196153Y78355D01*
X196492Y77537D01*
X197031Y76834D01*
X197734Y76296D01*
X198551Y75957D01*
X199429Y75841D01*
X200307Y75957D01*
X201125Y76296D01*
X201827Y76834D01*
X202366Y77537D01*
X202705Y78355D01*
X202820Y79232D01*
Y81201D01*
X202705Y82079D01*
X202366Y82897D01*
X201827Y83599D01*
X201125Y84138D01*
X200307Y84477D01*
X199429Y84592D01*
D02*
G37*
G36*
X206201Y53011D02*
X205350Y52842D01*
X204628Y52360D01*
X204147Y51638D01*
X203977Y50787D01*
Y49803D01*
X204147Y48952D01*
X204628Y48231D01*
X205350Y47749D01*
X206201Y47579D01*
X207052Y47749D01*
X207773Y48231D01*
X208121Y48751D01*
X208621Y48599D01*
Y48425D01*
X208720Y47676D01*
X209009Y46978D01*
X209469Y46378D01*
X210068Y45918D01*
X210767Y45629D01*
X211516Y45530D01*
X212265Y45629D01*
X212963Y45918D01*
X213563Y46378D01*
X214023Y46978D01*
X214312Y47676D01*
X214411Y48425D01*
Y50000D01*
X214312Y50749D01*
X214023Y51447D01*
X213563Y52047D01*
X212963Y52507D01*
X212265Y52796D01*
X211516Y52895D01*
X210767Y52796D01*
X210068Y52507D01*
X209469Y52047D01*
X209009Y51447D01*
X208870Y51112D01*
X208350Y51164D01*
X208256Y51638D01*
X207773Y52360D01*
X207052Y52842D01*
X206201Y53011D01*
D02*
G37*
G36*
X199429Y52308D02*
X198551Y52193D01*
X197734Y51854D01*
X197031Y51315D01*
X196492Y50613D01*
X196153Y49795D01*
X196038Y48917D01*
Y46949D01*
X196153Y46071D01*
X196492Y45253D01*
X197031Y44551D01*
X197734Y44012D01*
X198551Y43673D01*
X199429Y43558D01*
X200307Y43673D01*
X201125Y44012D01*
X201827Y44551D01*
X202366Y45253D01*
X202705Y46071D01*
X202820Y46949D01*
Y48917D01*
X202705Y49795D01*
X202366Y50613D01*
X201827Y51315D01*
X201125Y51854D01*
X200307Y52193D01*
X199429Y52308D01*
D02*
G37*
G36*
X206193Y29591D02*
X206166D01*
X205149Y29318D01*
X204237Y28791D01*
X203492Y28047D01*
X202966Y27134D01*
X202693Y26117D01*
Y26091D01*
X206193D01*
Y29591D01*
D02*
G37*
G36*
X173755Y47307D02*
X173728D01*
Y43807D01*
X177228D01*
Y43834D01*
X176956Y44851D01*
X176429Y45763D01*
X175684Y46508D01*
X174772Y47034D01*
X173755Y47307D01*
D02*
G37*
G36*
X177228Y42807D02*
X173728D01*
Y39307D01*
X173755D01*
X174772Y39580D01*
X175684Y40106D01*
X176429Y40851D01*
X176956Y41763D01*
X177228Y42780D01*
Y42807D01*
D02*
G37*
G36*
X172728D02*
X169228D01*
Y42780D01*
X169501Y41763D01*
X170028Y40851D01*
X170772Y40106D01*
X171685Y39580D01*
X172702Y39307D01*
X172728D01*
Y42807D01*
D02*
G37*
%LPD*%
D14*
X266435Y263780D02*
G03*
X264073Y266142I-2362J-0D01*
G01*
X266435Y263780D02*
G03*
X264073Y266142I-2362J-0D01*
G01*
X264075Y-2362D02*
G03*
X266437Y0I0J2362D01*
G01*
X264075Y-2362D02*
G03*
X266437Y0I0J2362D01*
G01*
X39370Y266142D02*
G03*
X37008Y263779I0J-2362D01*
G01*
X39370Y266142D02*
G03*
X37008Y263779I0J-2362D01*
G01*
X155118Y0D02*
G03*
X157480Y-2362I2362J0D01*
G01*
X37008Y125984D02*
G03*
X39370Y123622I2362J0D01*
G01*
X37008Y125984D02*
G03*
X39370Y123622I2362J0D01*
G01*
X155118Y0D02*
G03*
X157480Y-2362I2362J0D01*
G01*
X266435Y263780D02*
X266437Y0D01*
X157480Y-2362D02*
X264075D01*
X155118Y0D02*
Y123622D01*
X39370Y266142D02*
X264073D01*
X37008Y125984D02*
Y263780D01*
X39370Y123622D02*
X155118D01*
D15*
X198543Y129303D02*
D03*
D16*
X237980Y155571D02*
D03*
Y110571D02*
D03*
X238043Y115571D02*
D03*
X237980Y120571D02*
D03*
Y125571D02*
D03*
Y130571D02*
D03*
Y135571D02*
D03*
Y140571D02*
D03*
Y145571D02*
D03*
Y150571D02*
D03*
D17*
X234043Y166535D02*
D03*
X169043D02*
D03*
X174043D02*
D03*
X179043D02*
D03*
X184043D02*
D03*
X189043D02*
D03*
X194043D02*
D03*
X199043D02*
D03*
X204043D02*
D03*
X209043D02*
D03*
X214043D02*
D03*
X219043D02*
D03*
X224043D02*
D03*
X229043D02*
D03*
Y99606D02*
D03*
X224043D02*
D03*
X219043D02*
D03*
X214043D02*
D03*
X209043D02*
D03*
X204043D02*
D03*
X199043D02*
D03*
X194043D02*
D03*
X189043D02*
D03*
X184043D02*
D03*
X179043D02*
D03*
X174043D02*
D03*
X169043D02*
D03*
X234043D02*
D03*
D18*
X84646Y226181D02*
D03*
Y254134D02*
D03*
X236220Y226181D02*
D03*
Y254134D02*
D03*
D19*
X119614Y257087D02*
D03*
D20*
X128669Y234646D02*
D03*
X119614D02*
D03*
X110559D02*
D03*
D21*
X254331Y86811D02*
D03*
Y77953D02*
D03*
D22*
X185728Y246063D02*
D03*
X180413D02*
D03*
X176772Y226673D02*
D03*
X182087D02*
D03*
D23*
X103051Y212992D02*
D03*
Y207283D02*
D03*
D45*
X77200Y178700D02*
X93271Y162628D01*
X86281Y151181D02*
X89370D01*
X75900Y140800D02*
X86281Y151181D01*
X93271Y149565D02*
Y162628D01*
X90200Y146493D02*
X93271Y149565D01*
X90200Y142400D02*
Y146493D01*
X74902Y200706D02*
X90000Y215804D01*
X74902Y187784D02*
Y200706D01*
X73622Y186504D02*
X74902Y187784D01*
X73622Y174409D02*
Y186504D01*
X129921Y172047D02*
X135747D01*
X154173Y190473D01*
X114961Y165748D02*
X116106D01*
X116177Y165677D01*
Y132323D02*
Y165677D01*
Y132323D02*
X120600Y127900D01*
X120079Y139257D02*
X120866Y138470D01*
X120079Y139257D02*
Y151575D01*
X120500Y138103D02*
X120866Y138470D01*
X188150Y209000D02*
X194173D01*
X222900Y225700D02*
X236220D01*
X242000Y110571D02*
X248000D01*
X237980D02*
X242000D01*
X254331Y97769D02*
Y104240D01*
Y86811D02*
Y97769D01*
X185728Y238142D02*
Y246063D01*
Y236000D02*
Y238142D01*
X182087Y231813D02*
Y234500D01*
X116917Y207283D02*
X123083D01*
X84646Y236900D02*
Y237554D01*
Y226181D02*
Y236900D01*
X176900Y177900D02*
X187182D01*
X174943D02*
X176900D01*
X142998Y143900D02*
Y168700D01*
X90441Y197441D02*
X104000D01*
X214600Y190200D02*
X223900D01*
X193700D02*
X214600D01*
X63635Y196765D02*
Y199835D01*
X162807Y226673D02*
X172000D01*
X128669Y232300D02*
X134700D01*
X84646Y254100D02*
X110100D01*
X90000Y216900D02*
Y239646D01*
Y215804D02*
Y216900D01*
X84646Y254100D02*
Y254134D01*
Y245000D02*
Y254100D01*
X236220Y249400D02*
Y254100D01*
X215200Y249400D02*
X236220D01*
X200500Y254100D02*
X236220D01*
X194043Y99606D02*
Y107006D01*
X160051Y140998D02*
X194043Y107006D01*
X152702Y140998D02*
X160051D01*
X146900Y146800D02*
X152702Y140998D01*
X163600Y150702D02*
Y184450D01*
X188150Y209000D01*
X194173D02*
Y214567D01*
X184173Y207573D02*
Y214567D01*
X159698Y183098D02*
X184173Y207573D01*
X159698Y143902D02*
Y183098D01*
Y143902D02*
X199043Y104557D01*
Y99606D02*
Y104557D01*
X177900Y84000D02*
X186100Y92200D01*
X177900Y80000D02*
Y84000D01*
X227400Y73300D02*
X237200Y83100D01*
X227400Y65000D02*
Y73300D01*
X174173Y201700D02*
Y214567D01*
X155000Y182527D02*
X174173Y201700D01*
X155000Y146800D02*
Y182527D01*
X176000Y130300D02*
Y134717D01*
Y130300D02*
X194000Y112300D01*
X198343D01*
X204043Y106600D01*
Y99606D02*
Y106600D01*
X48700Y143188D02*
X53150Y147638D01*
X48700Y136000D02*
Y143188D01*
Y136000D02*
X51900Y132800D01*
X94900D01*
X108500Y146400D01*
Y170100D01*
X116600Y178200D01*
X103051Y207283D02*
X116917D01*
X124000Y200200D01*
Y193600D02*
Y200200D01*
X118500Y188100D02*
X124000Y193600D01*
X254331Y82949D02*
Y86811D01*
X253000Y81618D02*
X254331Y82949D01*
X250370Y81618D02*
X253000D01*
X250370Y65827D02*
Y81618D01*
Y65827D02*
X254500Y61697D01*
Y47807D02*
Y61697D01*
X250000Y43307D02*
X254500Y47807D01*
X203700Y201100D02*
X213701Y211101D01*
X201300Y203500D02*
X203700Y201100D01*
X186700Y203500D02*
X201300D01*
X174800Y191600D02*
X186700Y203500D01*
X174800Y180000D02*
Y191600D01*
Y180000D02*
X176900Y177900D01*
X187182D02*
X189232Y179950D01*
Y184055D01*
X142998Y168700D02*
X143000D01*
X142998Y143900D02*
X156700Y130198D01*
X160602D01*
X164205Y126595D01*
Y114732D02*
Y126595D01*
Y114732D02*
X168199Y110738D01*
X172305D01*
X179043Y104000D01*
Y99606D02*
Y104000D01*
X164173Y197173D02*
Y214567D01*
X139000Y172000D02*
X164173Y197173D01*
X139000Y162100D02*
Y172000D01*
X127600Y150700D02*
X139000Y162100D01*
X127600Y132000D02*
Y150700D01*
X162000Y34700D02*
Y90900D01*
Y34700D02*
X168000Y28700D01*
X185600D01*
X193200Y21100D01*
X210000D01*
X211100Y22200D01*
Y28000D01*
X245002Y61902D01*
Y92300D01*
X243402Y93900D02*
X245002Y92300D01*
X210143Y93900D02*
X243402D01*
X209043Y95000D02*
X210143Y93900D01*
X209043Y95000D02*
Y99606D01*
X219043D02*
Y129543D01*
X228600Y139100D01*
X154173Y190473D02*
Y214567D01*
X187147Y155053D02*
X188700Y156605D01*
X202405D01*
X211098Y147911D01*
Y107600D02*
Y147911D01*
Y107600D02*
X214043Y104655D01*
Y99606D02*
Y104655D01*
X53150Y137795D02*
X59354Y144000D01*
Y171137D01*
X50491Y180000D02*
X59354Y171137D01*
X50491Y180000D02*
Y186691D01*
X63635Y199835D01*
Y210831D01*
X60400Y214065D02*
X63635Y210831D01*
X226378Y25591D02*
X239087Y38300D01*
X252000D01*
X260232Y46532D01*
Y181368D01*
X218500Y223100D02*
X260232Y181368D01*
X218500Y223100D02*
Y233100D01*
X87198Y186098D02*
X91903Y190803D01*
X81000Y186098D02*
X87198D01*
X79098Y188000D02*
X81000Y186098D01*
X79098Y188000D02*
Y198291D01*
X108807Y228000D01*
X112400D01*
X114400Y230000D01*
Y238187D01*
X116413Y240200D01*
X132783D01*
X138983Y234000D01*
X162600D01*
X164900Y231700D01*
X184043Y166535D02*
Y173900D01*
X191800D01*
X203200Y185300D01*
X197500Y88800D02*
X241100D01*
X184700Y76000D02*
X197500Y88800D01*
X175900Y76000D02*
X184700D01*
X173900Y78000D02*
X175900Y76000D01*
X173900Y78000D02*
Y95957D01*
X174043Y99606D01*
X161400Y134100D02*
X178600Y116900D01*
X172000Y226673D02*
X176772D01*
X169900Y228773D02*
X172000Y226673D01*
X169900Y228773D02*
Y234000D01*
X166300Y237600D02*
X169900Y234000D01*
X151000Y237600D02*
X166300D01*
X146100Y242500D02*
X151000Y237600D01*
X142000Y242500D02*
X146100D01*
X133300Y251200D02*
X142000Y242500D01*
X113000Y251200D02*
X133300D01*
X110100Y254100D02*
X113000Y251200D01*
X84646Y245000D02*
X90000Y239646D01*
X72638Y218839D02*
X77361D01*
X79300Y216900D01*
X90000D01*
X173228Y53150D02*
X196850Y29528D01*
Y25591D02*
Y29528D01*
X250000Y53150D02*
Y62562D01*
X248567Y63995D02*
X250000Y62562D01*
X248567Y63995D02*
Y94097D01*
X236463Y106200D02*
X248567Y94097D01*
X234000Y106200D02*
X236463D01*
X232600Y107600D02*
X234000Y106200D01*
X232600Y107600D02*
Y158000D01*
X234800Y160200D01*
X240203Y164403D01*
Y198197D01*
X209800Y228600D02*
X240203Y198197D01*
X209800Y228600D02*
Y244000D01*
X215200Y249400D01*
X195800Y199500D02*
X198562Y196738D01*
X206000D01*
X208397Y199135D01*
Y202731D01*
X211066Y205400D01*
X223700D01*
X228400Y200700D01*
X254331Y73700D02*
X256331Y71700D01*
X254331Y73700D02*
Y77953D01*
X55000Y182800D02*
X56800D01*
X68000Y171600D01*
Y138700D02*
Y171600D01*
Y138700D02*
X72000Y134700D01*
X89800D01*
X97100Y142000D01*
Y178400D01*
X101079Y182379D01*
X132179D01*
X141800Y192000D01*
Y205300D01*
X209043Y172000D02*
X211043Y174000D01*
X209043Y166535D02*
Y172000D01*
X169800Y115500D02*
X172400Y112900D01*
X177800D01*
X182198Y108502D01*
X215100Y111500D02*
Y135200D01*
X225600Y145700D01*
Y156000D01*
X221300Y160300D02*
X225600Y156000D01*
X214900Y160300D02*
X221300D01*
X214043Y161157D02*
X214900Y160300D01*
X214043Y161157D02*
Y166535D01*
X169043D02*
Y172000D01*
X174943Y177900D01*
X223900Y190200D02*
X228000Y186100D01*
X196300Y171900D02*
X214600Y190200D01*
X189043Y171900D02*
X196300D01*
X189043Y166535D02*
Y171900D01*
X234043Y166535D02*
Y181743D01*
X236300Y184000D01*
X226100Y194200D02*
X227800Y192500D01*
X183600Y194200D02*
X226100D01*
X179232Y189832D02*
X183600Y194200D01*
X179232Y184055D02*
Y189832D01*
X242000Y110571D02*
X245400Y113971D01*
Y122311D01*
X185200Y131500D02*
Y139400D01*
X196700Y150900D01*
X188500Y252200D02*
X205100Y235600D01*
Y230400D02*
Y235600D01*
Y230400D02*
X232400Y203100D01*
Y189064D02*
Y203100D01*
X232040Y188704D02*
X232400Y189064D01*
X232040Y183739D02*
Y188704D01*
X230000Y181698D02*
X232040Y183739D01*
X210566Y181698D02*
X230000D01*
X204043Y175176D02*
X210566Y181698D01*
X204043Y166535D02*
Y175176D01*
X214043Y170543D02*
X219400Y175900D01*
X214043Y166535D02*
Y170543D01*
X212352Y159902D02*
X221654Y150600D01*
X176585Y159902D02*
X212352D01*
X174043Y162443D02*
X176585Y159902D01*
X174043Y162443D02*
Y166535D01*
X169600Y158000D02*
X174043Y162443D01*
X83602Y238598D02*
X84646Y237554D01*
X66630Y238598D02*
X83602D01*
X58628Y246600D02*
X66630Y238598D01*
X49300Y246600D02*
X58628D01*
X46700Y244000D02*
X49300Y246600D01*
X46700Y236765D02*
Y244000D01*
Y236765D02*
X51181Y232283D01*
X191728Y230000D02*
X201200D01*
X185728Y236000D02*
X191728Y230000D01*
X236220Y254100D02*
Y254134D01*
X198400Y256200D02*
X200500Y254100D01*
X184613Y256200D02*
X198400D01*
X180413Y252000D02*
X184613Y256200D01*
X180413Y246063D02*
Y252000D01*
X110559Y234646D02*
Y242100D01*
X77200Y178700D02*
Y199700D01*
X100200Y222700D01*
Y240000D01*
X106800Y246600D01*
X133300D01*
X141400Y238500D01*
X128669Y232300D02*
Y234646D01*
X134700Y232300D02*
X134900Y232100D01*
X157381D01*
X162807Y226673D01*
X83000Y190000D02*
X90441Y197441D01*
X169043Y161900D02*
Y166535D01*
X167000Y161900D02*
X169043D01*
X165698Y160598D02*
X167000Y161900D01*
X165698Y155400D02*
Y160598D01*
Y155400D02*
X170398Y150700D01*
X189500D01*
X193602Y154802D01*
X199000D01*
X200602Y153200D01*
Y143103D02*
Y153200D01*
X198543Y141045D02*
X200602Y143103D01*
X198543Y129303D02*
Y141045D01*
X51181Y232283D02*
X55600Y227865D01*
Y213500D02*
Y227865D01*
X48688Y206588D02*
X55600Y213500D01*
X48688Y179036D02*
Y206588D01*
Y179036D02*
X57551Y170173D01*
Y161882D02*
Y170173D01*
X53150Y157480D02*
X57551Y161882D01*
X137000Y147095D02*
Y149800D01*
Y147095D02*
X155897Y128198D01*
X158602D01*
X159382Y127418D01*
Y101778D02*
Y127418D01*
Y101778D02*
X166000Y95160D01*
Y40693D02*
Y95160D01*
Y40693D02*
X173228Y33465D01*
X51181Y232283D02*
X61518D01*
X65183Y228619D01*
Y212634D02*
Y228619D01*
Y212634D02*
X65500Y212317D01*
Y206000D02*
Y212317D01*
Y206000D02*
X67900Y203600D01*
X71700D01*
X79500Y211400D01*
X46885Y173588D02*
X53150Y167323D01*
X46885Y173588D02*
Y218145D01*
X51181Y222441D01*
Y251969D02*
X60431D01*
X69900Y242500D01*
X63635Y196765D02*
X71000Y189400D01*
X60400Y214065D02*
Y225800D01*
X67900Y212300D02*
X69500Y210700D01*
X67900Y212300D02*
Y214400D01*
X66986Y215314D02*
X67900Y214400D01*
X66986Y215314D02*
Y236000D01*
X66526Y236460D02*
X66986Y236000D01*
X56847Y236460D02*
X66526D01*
X51181Y242126D02*
X56847Y236460D01*
X248000Y110571D02*
X254331Y104240D01*
X247300Y104800D02*
X254331Y97769D01*
X122883Y184182D02*
X136142Y197441D01*
X92882Y184182D02*
X122883D01*
X90200Y181500D02*
X92882Y184182D01*
X120600Y127900D02*
X131500D01*
X135600Y132000D01*
X176772Y224328D02*
Y226673D01*
Y224328D02*
X178000Y223100D01*
X200400D01*
X201300Y224000D01*
X236220Y225700D02*
Y226181D01*
X222500Y225300D02*
X222900Y225700D01*
X140000Y227000D02*
X151500D01*
X134173Y221173D02*
X140000Y227000D01*
X134173Y214567D02*
Y221173D01*
X182087Y226673D02*
Y231813D01*
X174495Y239405D02*
X182087Y231813D01*
X154139Y239405D02*
X174495D01*
X145512Y248032D02*
X154139Y239405D01*
X124173Y208373D02*
Y214567D01*
X123083Y207283D02*
X124173Y208373D01*
X168800Y47735D02*
X173228Y43307D01*
X168800Y47735D02*
Y93900D01*
X169043Y94143D01*
Y99606D01*
X99400Y212992D02*
X103051D01*
X99400Y202041D02*
Y212992D01*
Y202041D02*
X104000Y197441D01*
X116929D01*
X119614Y226859D02*
Y234646D01*
Y226859D02*
X124173Y222300D01*
Y214567D02*
Y222300D01*
X182087Y234500D02*
X185728Y238142D01*
X173869Y246063D02*
X180413D01*
X171900Y248032D02*
X173869Y246063D01*
X165512Y248032D02*
X171900D01*
D46*
X53150Y137795D02*
D03*
Y147638D02*
D03*
Y157480D02*
D03*
Y167323D02*
D03*
X51181Y251969D02*
D03*
Y242126D02*
D03*
Y232283D02*
D03*
Y222441D02*
D03*
X173228Y23622D02*
D03*
Y33465D02*
D03*
Y43307D02*
D03*
Y53150D02*
D03*
X226378Y25591D02*
D03*
X216535D02*
D03*
X206693D02*
D03*
X196850D02*
D03*
X250000Y23622D02*
D03*
Y33465D02*
D03*
Y43307D02*
D03*
Y53150D02*
D03*
D47*
X145512Y248032D02*
D03*
X155512D02*
D03*
X165512D02*
D03*
D48*
X189232Y184055D02*
D03*
X179232D02*
D03*
D49*
X116929Y197441D02*
D03*
X136142D02*
D03*
D50*
X255630Y199902D02*
D03*
X215630D02*
D03*
D51*
X72638Y228839D02*
D03*
Y218839D02*
D03*
D52*
X223602Y47933D02*
D03*
Y80217D02*
D03*
X199429D02*
D03*
Y47933D02*
D03*
D53*
X211516Y78937D02*
D03*
Y49213D02*
D03*
D54*
X204173Y214567D02*
D03*
X194173D02*
D03*
X164173D02*
D03*
X154173D02*
D03*
X144173D02*
D03*
X134173D02*
D03*
X124173D02*
D03*
X114173D02*
D03*
X174173D02*
D03*
X184173D02*
D03*
D55*
X89370Y151181D02*
D03*
X73622Y174409D02*
D03*
X129921Y172047D02*
D03*
X114961Y165748D02*
D03*
X120079Y151575D02*
D03*
X146900Y146800D02*
D03*
X163600Y150702D02*
D03*
X186100Y92200D02*
D03*
X177900Y80000D02*
D03*
X237200Y83100D02*
D03*
X227400Y65000D02*
D03*
X155000Y146800D02*
D03*
X176000Y134717D02*
D03*
X116600Y178200D02*
D03*
X84646Y236900D02*
D03*
X118500Y188100D02*
D03*
X213701Y211101D02*
D03*
X143000Y168700D02*
D03*
X127600Y132000D02*
D03*
X162000Y90900D02*
D03*
X193700Y190200D02*
D03*
X228600Y139100D02*
D03*
X187147Y155053D02*
D03*
X60400Y225800D02*
D03*
X218500Y233100D02*
D03*
X91903Y190803D02*
D03*
X164900Y231700D02*
D03*
X120500Y138103D02*
D03*
X184043Y173900D02*
D03*
X203200Y185300D02*
D03*
X241100Y88800D02*
D03*
X161400Y134100D02*
D03*
X178600Y116900D02*
D03*
X195800Y199500D02*
D03*
X228400Y200700D02*
D03*
X256331Y71700D02*
D03*
X55000Y182800D02*
D03*
X141800Y205300D02*
D03*
X211043Y174000D02*
D03*
X169800Y115500D02*
D03*
X182198Y108502D02*
D03*
X215100Y111500D02*
D03*
X228000Y186100D02*
D03*
X236300Y184000D02*
D03*
X227800Y192500D02*
D03*
X245400Y122311D02*
D03*
X185200Y131500D02*
D03*
X196700Y150900D02*
D03*
X188500Y252200D02*
D03*
X219400Y175900D02*
D03*
X221654Y150600D02*
D03*
X169600Y158000D02*
D03*
X75900Y140800D02*
D03*
X201200Y230000D02*
D03*
X110559Y242100D02*
D03*
X90200Y142400D02*
D03*
X141400Y238500D02*
D03*
X83000Y190000D02*
D03*
X137000Y149800D02*
D03*
X79500Y211400D02*
D03*
X69900Y242500D02*
D03*
X71000Y189400D02*
D03*
X69500Y210700D02*
D03*
X247300Y104800D02*
D03*
X90200Y181500D02*
D03*
X135600Y132000D02*
D03*
X201300Y224000D02*
D03*
X222500Y225300D02*
D03*
X151500Y227000D02*
D03*
D56*
X56299Y203543D02*
D03*
X252756Y135827D02*
D03*
X108661Y135532D02*
D03*
X253248Y6496D02*
D03*
X168504Y6890D02*
D03*
M02*
