G04*
G04 #@! TF.GenerationSoftware,Altium Limited,Altium Designer,22.2.1 (43)*
G04*
G04 Layer_Physical_Order=1*
G04 Layer_Color=255*
%FSLAX44Y44*%
%MOMM*%
G71*
G04*
G04 #@! TF.SameCoordinates,82B9A7A7-C451-481E-A025-ABCBCC36AE2A*
G04*
G04*
G04 #@! TF.FilePolarity,Positive*
G04*
G01*
G75*
%ADD17C,1.2000*%
G04:AMPARAMS|DCode=18|XSize=3mm|YSize=1.524mm|CornerRadius=0.381mm|HoleSize=0mm|Usage=FLASHONLY|Rotation=0.000|XOffset=0mm|YOffset=0mm|HoleType=Round|Shape=RoundedRectangle|*
%AMROUNDEDRECTD18*
21,1,3.0000,0.7620,0,0,0.0*
21,1,2.2380,1.5240,0,0,0.0*
1,1,0.7620,1.1190,-0.3810*
1,1,0.7620,-1.1190,-0.3810*
1,1,0.7620,-1.1190,0.3810*
1,1,0.7620,1.1190,0.3810*
%
%ADD18ROUNDEDRECTD18*%
G04:AMPARAMS|DCode=19|XSize=1.524mm|YSize=3mm|CornerRadius=0.381mm|HoleSize=0mm|Usage=FLASHONLY|Rotation=0.000|XOffset=0mm|YOffset=0mm|HoleType=Round|Shape=RoundedRectangle|*
%AMROUNDEDRECTD19*
21,1,1.5240,2.2380,0,0,0.0*
21,1,0.7620,3.0000,0,0,0.0*
1,1,0.7620,0.3810,-1.1190*
1,1,0.7620,-0.3810,-1.1190*
1,1,0.7620,-0.3810,1.1190*
1,1,0.7620,0.3810,1.1190*
%
%ADD19ROUNDEDRECTD19*%
G04:AMPARAMS|DCode=20|XSize=1.5mm|YSize=3mm|CornerRadius=0.375mm|HoleSize=0mm|Usage=FLASHONLY|Rotation=0.000|XOffset=0mm|YOffset=0mm|HoleType=Round|Shape=RoundedRectangle|*
%AMROUNDEDRECTD20*
21,1,1.5000,2.2500,0,0,0.0*
21,1,0.7500,3.0000,0,0,0.0*
1,1,0.7500,0.3750,-1.1250*
1,1,0.7500,-0.3750,-1.1250*
1,1,0.7500,-0.3750,1.1250*
1,1,0.7500,0.3750,1.1250*
%
%ADD20ROUNDEDRECTD20*%
%ADD21R,0.8000X0.8000*%
G04:AMPARAMS|DCode=22|XSize=2mm|YSize=0.9mm|CornerRadius=0.135mm|HoleSize=0mm|Usage=FLASHONLY|Rotation=90.000|XOffset=0mm|YOffset=0mm|HoleType=Round|Shape=RoundedRectangle|*
%AMROUNDEDRECTD22*
21,1,2.0000,0.6300,0,0,90.0*
21,1,1.7300,0.9000,0,0,90.0*
1,1,0.2700,0.3150,0.8650*
1,1,0.2700,0.3150,-0.8650*
1,1,0.2700,-0.3150,-0.8650*
1,1,0.2700,-0.3150,0.8650*
%
%ADD22ROUNDEDRECTD22*%
G04:AMPARAMS|DCode=23|XSize=2mm|YSize=0.9mm|CornerRadius=0.135mm|HoleSize=0mm|Usage=FLASHONLY|Rotation=180.000|XOffset=0mm|YOffset=0mm|HoleType=Round|Shape=RoundedRectangle|*
%AMROUNDEDRECTD23*
21,1,2.0000,0.6300,0,0,180.0*
21,1,1.7300,0.9000,0,0,180.0*
1,1,0.2700,-0.8650,0.3150*
1,1,0.2700,0.8650,0.3150*
1,1,0.2700,0.8650,-0.3150*
1,1,0.2700,-0.8650,-0.3150*
%
%ADD23ROUNDEDRECTD23*%
G04:AMPARAMS|DCode=24|XSize=5mm|YSize=5mm|CornerRadius=0.25mm|HoleSize=0mm|Usage=FLASHONLY|Rotation=90.000|XOffset=0mm|YOffset=0mm|HoleType=Round|Shape=RoundedRectangle|*
%AMROUNDEDRECTD24*
21,1,5.0000,4.5000,0,0,90.0*
21,1,4.5000,5.0000,0,0,90.0*
1,1,0.5000,2.2500,2.2500*
1,1,0.5000,2.2500,-2.2500*
1,1,0.5000,-2.2500,-2.2500*
1,1,0.5000,-2.2500,2.2500*
%
%ADD24ROUNDEDRECTD24*%
%ADD25R,0.8000X0.8000*%
%ADD26R,2.0000X4.0000*%
%ADD27R,1.1000X0.9500*%
%ADD28R,0.8500X0.9500*%
%ADD29R,3.2000X2.1000*%
%ADD30R,0.9000X2.1000*%
%ADD44R,1.3000X1.3000*%
%ADD45C,1.3000*%
%ADD46R,1.3000X1.3000*%
%ADD58C,0.1640*%
%ADD59O,2.1590X1.5240*%
%ADD60C,1.5000*%
%ADD61C,2.0000*%
%ADD62O,0.9500X1.3500*%
%ADD63O,1.2000X1.7000*%
%ADD64C,2.0320*%
%ADD65O,2.0320X2.7940*%
%ADD66C,3.0000*%
%ADD67C,0.6000*%
%ADD68C,1.2700*%
G36*
X492970Y823695D02*
X489578Y820302D01*
X488835Y819191D01*
X488730Y818663D01*
X488250D01*
X485796Y818175D01*
X483715Y816785D01*
X482325Y814704D01*
X481837Y812250D01*
Y804542D01*
X441198D01*
X439887Y804281D01*
X438776Y803538D01*
X436559Y801322D01*
X434762D01*
X433986Y801000D01*
X432930Y801706D01*
Y811381D01*
X446417Y824868D01*
X492484D01*
X492970Y823695D01*
D02*
G37*
G36*
X412374Y808766D02*
X412266Y808355D01*
X411690Y807540D01*
X408749D01*
X405560Y806686D01*
X402700Y805035D01*
X400365Y802700D01*
X398715Y799840D01*
X398357Y798508D01*
X397043D01*
X396685Y799840D01*
X395034Y802700D01*
X392700Y805035D01*
X389840Y806686D01*
X386651Y807540D01*
X383349D01*
X380160Y806686D01*
X377300Y805035D01*
X374966Y802700D01*
X373315Y799840D01*
X372957Y798508D01*
X371643D01*
X371285Y799840D01*
X369635Y802700D01*
X367300Y805035D01*
X364440Y806686D01*
X361251Y807540D01*
X357949D01*
X354760Y806686D01*
X351900Y805035D01*
X349566Y802700D01*
X347915Y799840D01*
X347060Y796651D01*
Y793349D01*
X347915Y790160D01*
X349566Y787300D01*
X351900Y784966D01*
X354760Y783315D01*
X356174Y782936D01*
Y762339D01*
X344021Y750186D01*
X323860D01*
Y774042D01*
X320246D01*
Y777412D01*
X319985Y778723D01*
X319243Y779834D01*
X307222Y791854D01*
X306111Y792597D01*
X304800Y792858D01*
X217540D01*
Y797944D01*
X317500D01*
X318811Y798205D01*
X319922Y798948D01*
X330095Y809120D01*
X412120D01*
X412374Y808766D01*
D02*
G37*
G36*
X568584Y808077D02*
X569695Y807335D01*
X571006Y807074D01*
X577460D01*
Y794040D01*
X576287Y793554D01*
X546146Y823695D01*
X546632Y824868D01*
X551793D01*
X568584Y808077D01*
D02*
G37*
G36*
X519454Y818518D02*
X517713Y818172D01*
X515612Y816768D01*
X514209Y814668D01*
X513716Y812190D01*
Y796796D01*
X513039Y796661D01*
X511928Y795918D01*
X502764Y786755D01*
X502239Y787015D01*
X501716Y787503D01*
X502163Y789750D01*
Y812250D01*
X501675Y814704D01*
X500285Y816785D01*
X499050Y817610D01*
X498818Y819044D01*
X499440Y819788D01*
X519329D01*
X519454Y818518D01*
D02*
G37*
G36*
X481837Y789750D02*
X482325Y787296D01*
X483715Y785215D01*
X485582Y783968D01*
X485479Y782984D01*
X485371Y782698D01*
X469711D01*
X468540Y783869D01*
Y797290D01*
X469644Y797690D01*
X481837D01*
Y789750D01*
D02*
G37*
G36*
X467360Y775846D02*
X485116D01*
X485602Y774673D01*
X476736Y765807D01*
X464081D01*
X463596Y766981D01*
X464173Y767558D01*
X464915Y768669D01*
X465176Y769980D01*
Y775279D01*
X466446Y776028D01*
X467360Y775846D01*
D02*
G37*
G36*
X373315Y790160D02*
X374966Y787300D01*
X377300Y784966D01*
X380160Y783315D01*
X383349Y782460D01*
X386651D01*
X389840Y783315D01*
X392700Y784966D01*
X395034Y787300D01*
X396685Y790160D01*
X397043Y791493D01*
X398357D01*
X398715Y790160D01*
X400365Y787300D01*
X402700Y784966D01*
X405560Y783315D01*
X406974Y782936D01*
Y782042D01*
X407235Y780731D01*
X407978Y779620D01*
X420617Y766981D01*
X420131Y765807D01*
X383519D01*
X382402Y766270D01*
X380559D01*
X364668Y782161D01*
X364992Y783633D01*
X367300Y784966D01*
X369635Y787300D01*
X371285Y790160D01*
X371643Y791493D01*
X372957D01*
X373315Y790160D01*
D02*
G37*
G36*
X192460Y787960D02*
X211533D01*
X212483Y787010D01*
X213595Y786267D01*
X214906Y786006D01*
X303381D01*
X313395Y775993D01*
Y774042D01*
X309780D01*
Y764482D01*
X309566Y764356D01*
X308510Y764092D01*
X307176Y765427D01*
X305140Y766270D01*
X303343D01*
X300860Y768753D01*
Y774042D01*
X295571D01*
X290712Y778900D01*
X289601Y779643D01*
X288290Y779904D01*
X133478D01*
X132167Y779643D01*
X131056Y778900D01*
X127547Y775391D01*
X127490Y775424D01*
X125190Y776040D01*
X122810D01*
X120511Y775424D01*
X119381Y774772D01*
X118022Y775393D01*
X117919Y776074D01*
X120454Y778609D01*
X120511Y778576D01*
X122810Y777960D01*
X125190D01*
X127490Y778576D01*
X129551Y779766D01*
X131234Y781450D01*
X132424Y783511D01*
X133040Y785810D01*
Y788190D01*
X132424Y790490D01*
X131347Y792356D01*
X131760Y793626D01*
X192460D01*
Y787960D01*
D02*
G37*
G36*
X263780Y770467D02*
X187459D01*
X186148Y770206D01*
X185037Y769463D01*
X165999Y750426D01*
X132441D01*
X132424Y750489D01*
X131234Y752551D01*
X129551Y754234D01*
X127490Y755424D01*
X125190Y756040D01*
X122810D01*
X120511Y755424D01*
X118742Y754402D01*
X117472Y754887D01*
Y759113D01*
X118742Y759598D01*
X120511Y758576D01*
X122810Y757960D01*
X125190D01*
X127490Y758576D01*
X129551Y759766D01*
X131234Y761450D01*
X132424Y763511D01*
X133040Y765810D01*
Y768190D01*
X132424Y770490D01*
X132391Y770546D01*
X134897Y773052D01*
X263780D01*
Y770467D01*
D02*
G37*
G36*
X596938Y763214D02*
X596452Y762040D01*
X577460D01*
Y755281D01*
X576287Y754795D01*
X550188Y780893D01*
X549077Y781636D01*
X547766Y781897D01*
X545526D01*
X536838Y790584D01*
X535727Y791327D01*
X534416Y791588D01*
X534285D01*
Y812190D01*
X533792Y814668D01*
X532389Y816768D01*
X530288Y818172D01*
X528546Y818518D01*
X528672Y819788D01*
X540363D01*
X596938Y763214D01*
D02*
G37*
G36*
X365420Y761921D02*
X367217D01*
X369180Y759959D01*
X370291Y759217D01*
X371602Y758956D01*
X375993D01*
X376557Y757592D01*
X378116Y756033D01*
X380152Y755190D01*
X382402D01*
X384438Y756033D01*
X385709Y757304D01*
X445875D01*
X449074Y754105D01*
Y748040D01*
X444646D01*
X444540Y748198D01*
Y750402D01*
X443697Y752438D01*
X442138Y753997D01*
X440102Y754840D01*
X437898D01*
X435862Y753997D01*
X434303Y752438D01*
X433460Y750402D01*
Y748198D01*
X433354Y748040D01*
X432210D01*
Y737243D01*
X430940Y736717D01*
X422538Y745118D01*
X421427Y745861D01*
X420116Y746122D01*
X367376D01*
X366065Y745861D01*
X364953Y745118D01*
X353778Y733942D01*
X353035Y732831D01*
X352774Y731520D01*
Y726137D01*
X349795Y724903D01*
X347142Y722868D01*
X345107Y720215D01*
X344187Y717996D01*
X342813D01*
X341893Y720215D01*
X339858Y722868D01*
X337205Y724903D01*
X334115Y726183D01*
X330800Y726620D01*
X327485Y726183D01*
X324395Y724903D01*
X321742Y722868D01*
X319706Y720215D01*
X318787Y717996D01*
X317413D01*
X316493Y720215D01*
X314458Y722868D01*
X311805Y724903D01*
X308826Y726137D01*
Y729488D01*
X308565Y730799D01*
X307822Y731910D01*
X297669Y742064D01*
X298185Y743334D01*
X345440D01*
X346751Y743595D01*
X347862Y744338D01*
X362022Y758498D01*
X362765Y759609D01*
X363026Y760920D01*
Y761539D01*
X364296Y762387D01*
X365420Y761921D01*
D02*
G37*
G36*
X286780Y764253D02*
Y747962D01*
X290394D01*
Y743041D01*
X284686Y737333D01*
X283416Y737859D01*
Y738972D01*
X282573Y741008D01*
X281014Y742567D01*
X278978Y743410D01*
X276774D01*
X274738Y742567D01*
X273467Y741296D01*
X244850D01*
X223704Y762442D01*
X224190Y763615D01*
X256535D01*
X257370Y762345D01*
X256842Y761070D01*
Y758866D01*
X257685Y756830D01*
X259244Y755271D01*
X261280Y754428D01*
X263484D01*
X263780Y754230D01*
Y747962D01*
X277860D01*
Y771377D01*
X279130Y771903D01*
X286780Y764253D01*
D02*
G37*
G36*
X240250Y736206D02*
X239724Y734936D01*
X217540D01*
Y757256D01*
X218713Y757742D01*
X240250Y736206D01*
D02*
G37*
G36*
X425912Y732055D02*
X425426Y730882D01*
X400141D01*
X398870Y732153D01*
X396834Y732996D01*
X394630D01*
X392594Y732153D01*
X391035Y730594D01*
X390192Y728558D01*
Y726354D01*
X391035Y724318D01*
X392594Y722759D01*
X394630Y721916D01*
X395611D01*
X396237Y720646D01*
X395906Y720215D01*
X394987Y717996D01*
X393613D01*
X392693Y720215D01*
X390658Y722868D01*
X388005Y724903D01*
X384915Y726183D01*
X381600Y726620D01*
X378285Y726183D01*
X375195Y724903D01*
X372542Y722868D01*
X370507Y720215D01*
X369587Y717996D01*
X368213D01*
X367293Y720215D01*
X365258Y722868D01*
X362605Y724903D01*
X359626Y726137D01*
Y730101D01*
X368795Y739270D01*
X418697D01*
X425912Y732055D01*
D02*
G37*
G36*
X261225Y720466D02*
X261118Y719978D01*
X259692Y719403D01*
X259629Y719445D01*
X258318Y719706D01*
X241046D01*
X239735Y719445D01*
X238624Y718702D01*
X234570Y714649D01*
X233827Y713537D01*
X233566Y712226D01*
Y709270D01*
X232312Y709043D01*
X231142Y711071D01*
X229487Y712726D01*
X227459Y713896D01*
X225198Y714502D01*
X224573D01*
X224047Y715772D01*
X231543Y723268D01*
X258423D01*
X261225Y720466D01*
D02*
G37*
G36*
X536473Y773775D02*
X535734Y771992D01*
Y769788D01*
X536577Y767752D01*
X538136Y766193D01*
X540172Y765350D01*
X541969D01*
X573154Y734165D01*
Y717215D01*
X571981Y716729D01*
X553752Y734958D01*
X552640Y735701D01*
X551329Y735962D01*
X459290D01*
Y748040D01*
X455926D01*
Y758956D01*
X478156D01*
X479467Y759217D01*
X480578Y759959D01*
X495664Y775045D01*
X535935D01*
X536473Y773775D01*
D02*
G37*
G36*
X527180Y717655D02*
Y688360D01*
X527441Y687049D01*
X528184Y685938D01*
X531163Y682958D01*
X530637Y681688D01*
X528996D01*
X528892Y681645D01*
X527812Y681860D01*
X503332D01*
X503330Y681865D01*
X502160Y683893D01*
X500505Y685548D01*
X498477Y686718D01*
X496216Y687324D01*
X493876D01*
X491615Y686718D01*
X489587Y685548D01*
X487932Y683893D01*
X487896Y683829D01*
X486626Y684170D01*
Y693863D01*
X489605Y695097D01*
X492258Y697132D01*
X494293Y699785D01*
X495213Y702005D01*
X496587D01*
X497506Y699785D01*
X499542Y697132D01*
X502195Y695097D01*
X505285Y693817D01*
X508600Y693381D01*
X511915Y693817D01*
X515005Y695097D01*
X517658Y697132D01*
X519693Y699785D01*
X520973Y702875D01*
X521409Y706190D01*
Y713810D01*
X520973Y717125D01*
X519693Y720215D01*
X517740Y722760D01*
X517906Y723600D01*
X518052Y724030D01*
X520805D01*
X527180Y717655D01*
D02*
G37*
G36*
X294307Y699785D02*
X296342Y697132D01*
X298995Y695097D01*
X302085Y693817D01*
X305400Y693381D01*
X308715Y693817D01*
X310018Y694356D01*
X310737Y693280D01*
X305669Y688212D01*
X304927Y687101D01*
X304666Y685790D01*
Y648562D01*
X303423Y648303D01*
X303396Y648303D01*
X302130Y649569D01*
Y670560D01*
X301869Y671871D01*
X301126Y672982D01*
X290966Y683142D01*
X289855Y683885D01*
X288544Y684146D01*
X286915D01*
X278725Y692335D01*
X279287Y693474D01*
X280000Y693381D01*
X283315Y693817D01*
X286405Y695097D01*
X289058Y697132D01*
X291093Y699785D01*
X292013Y702005D01*
X293387D01*
X294307Y699785D01*
D02*
G37*
G36*
X660745Y834991D02*
Y671889D01*
X659475Y671764D01*
X659172Y673288D01*
X657768Y675388D01*
X655668Y676792D01*
X653190Y677284D01*
X630810D01*
X629282Y676980D01*
X628012Y677988D01*
Y680720D01*
X627751Y682031D01*
X627008Y683142D01*
X621236Y688915D01*
Y690712D01*
X620393Y692748D01*
X618834Y694307D01*
X616798Y695150D01*
X614594D01*
X613786Y694815D01*
X612730Y695521D01*
Y702119D01*
X621179Y710568D01*
X639599D01*
X640348Y709671D01*
X640108Y708378D01*
X638003Y707162D01*
X635638Y704798D01*
X633966Y701902D01*
X633101Y698672D01*
Y695328D01*
X633966Y692098D01*
X635638Y689202D01*
X638003Y686837D01*
X640899Y685165D01*
X644129Y684300D01*
X647473D01*
X650703Y685165D01*
X653599Y686837D01*
X655963Y689202D01*
X657635Y692098D01*
X658501Y695328D01*
Y698672D01*
X657635Y701902D01*
X655963Y704798D01*
X653599Y707162D01*
X650703Y708834D01*
X649067Y709273D01*
X648738Y710499D01*
X649095Y710856D01*
X649938Y712892D01*
Y715096D01*
X649095Y717132D01*
X647536Y718691D01*
X645500Y719534D01*
X643296D01*
X641260Y718691D01*
X639989Y717420D01*
X619760D01*
X618449Y717159D01*
X617338Y716416D01*
X613903Y712982D01*
X612730Y713468D01*
Y767906D01*
X612469Y769217D01*
X611726Y770328D01*
X595268Y786786D01*
X595754Y787960D01*
X602540D01*
Y833040D01*
X577460D01*
Y813926D01*
X572425D01*
X555634Y830716D01*
X554523Y831459D01*
X553212Y831720D01*
X444998D01*
X443687Y831459D01*
X442575Y830716D01*
X427081Y815222D01*
X426339Y814111D01*
X426078Y812800D01*
Y806992D01*
X424905Y806506D01*
X416442Y814968D01*
X415331Y815711D01*
X414020Y815972D01*
X328676D01*
X327365Y815711D01*
X326254Y814968D01*
X316081Y804796D01*
X313561D01*
X312360Y804962D01*
X312360Y806066D01*
Y831042D01*
X275280D01*
Y806066D01*
X275280Y804962D01*
X274079Y804796D01*
X217540D01*
Y833040D01*
X192460D01*
Y800478D01*
X133040D01*
Y816040D01*
X114960D01*
Y800007D01*
X114164Y799474D01*
X104258Y789568D01*
X103515Y788457D01*
X103254Y787146D01*
Y593689D01*
X101983Y592418D01*
X101140Y590382D01*
Y588178D01*
X101983Y586142D01*
X103542Y584583D01*
X105578Y583740D01*
X107782D01*
X109350Y584390D01*
X110620Y583726D01*
Y543954D01*
X110881Y542643D01*
X111624Y541532D01*
X115609Y537546D01*
X115576Y537489D01*
X114960Y535190D01*
Y532810D01*
X115576Y530511D01*
X116767Y528449D01*
X118450Y526766D01*
X120511Y525576D01*
X122810Y524960D01*
X125190D01*
X127490Y525576D01*
X129551Y526766D01*
X131234Y528449D01*
X132200Y530122D01*
X133470Y529782D01*
Y518218D01*
X132200Y517878D01*
X131234Y519551D01*
X129551Y521234D01*
X127490Y522424D01*
X125190Y523040D01*
X122810D01*
X120511Y522424D01*
X118450Y521234D01*
X116767Y519551D01*
X115576Y517489D01*
X114960Y515190D01*
Y512810D01*
X115576Y510511D01*
X116767Y508449D01*
X118450Y506766D01*
X120511Y505576D01*
X122810Y504960D01*
X125190D01*
X127490Y505576D01*
X127547Y505609D01*
X145612Y487544D01*
X146723Y486801D01*
X148034Y486540D01*
X388758D01*
X388937Y486270D01*
X388255Y485000D01*
X90000D01*
Y834102D01*
X90898Y835000D01*
X660745Y834991D01*
D02*
G37*
G36*
X569990Y709031D02*
Y655985D01*
X568720Y655554D01*
X567421Y657246D01*
X565299Y658875D01*
X562827Y659899D01*
X560175Y660248D01*
X553825D01*
X551173Y659899D01*
X548701Y658875D01*
X546579Y657246D01*
X544950Y655124D01*
X543927Y652653D01*
X543577Y650000D01*
X543927Y647348D01*
X544950Y644876D01*
X546579Y642754D01*
X547254Y642236D01*
X546823Y640966D01*
X544979D01*
X539884Y646061D01*
Y682508D01*
X539623Y683819D01*
X540459Y684855D01*
X542529Y684300D01*
X545873D01*
X549103Y685165D01*
X551999Y686837D01*
X554363Y689202D01*
X556035Y692098D01*
X556901Y695328D01*
Y698672D01*
X556035Y701902D01*
X554363Y704798D01*
X551999Y707162D01*
X549103Y708834D01*
X545873Y709700D01*
X542529D01*
X539299Y708834D01*
X536403Y707162D01*
X535302Y706062D01*
X534032Y706588D01*
Y719074D01*
X533771Y720385D01*
X533028Y721496D01*
X526588Y727937D01*
X527074Y729110D01*
X549910D01*
X569990Y709031D01*
D02*
G37*
G36*
X283074Y678298D02*
X284185Y677555D01*
X284400Y677512D01*
X284442Y676209D01*
X283125Y675856D01*
X280835Y674534D01*
X278966Y672665D01*
X277644Y670375D01*
X277524Y669926D01*
X261003D01*
X247892Y683036D01*
X248378Y684210D01*
X259790D01*
Y688074D01*
X260858D01*
X262169Y688335D01*
X263280Y689077D01*
X264023Y690189D01*
X264284Y691500D01*
Y695428D01*
X265457Y695914D01*
X283074Y678298D01*
D02*
G37*
G36*
X215138Y705067D02*
Y704442D01*
X215744Y702181D01*
X216914Y700153D01*
X218569Y698498D01*
X220597Y697328D01*
X222858Y696722D01*
X225198D01*
X227459Y697328D01*
X227464Y697331D01*
X228343Y696453D01*
Y668703D01*
X227073Y667855D01*
X226176Y668226D01*
X223972D01*
X221936Y667383D01*
X220377Y665824D01*
X219534Y663788D01*
Y661991D01*
X217288Y659744D01*
X216545Y658633D01*
X216284Y657322D01*
Y521703D01*
X206926Y512345D01*
X205545Y512528D01*
X205050Y513724D01*
X203421Y515846D01*
X201299Y517475D01*
X200485Y517812D01*
X200738Y519082D01*
X202233D01*
X203544Y519342D01*
X204656Y520085D01*
X210468Y525898D01*
X211211Y527009D01*
X211472Y528320D01*
Y549799D01*
X212742Y551070D01*
X213586Y553106D01*
Y555310D01*
X212742Y557346D01*
X211184Y558905D01*
X209148Y559748D01*
X206944D01*
X204908Y558905D01*
X203349Y557346D01*
X202506Y555310D01*
Y553106D01*
X203349Y551070D01*
X204620Y549799D01*
Y541653D01*
X203813Y541379D01*
X203350Y541301D01*
X201299Y542875D01*
X199514Y543614D01*
Y691239D01*
X213868Y705593D01*
X215138Y705067D01*
D02*
G37*
G36*
X120511Y738576D02*
X122810Y737960D01*
X125190D01*
X127490Y738576D01*
X127547Y738609D01*
X138975Y727180D01*
Y659384D01*
X137705Y658858D01*
X133232Y663330D01*
X132121Y664073D01*
X131731Y664150D01*
X131252Y665402D01*
X131283Y665535D01*
X132424Y667511D01*
X133040Y669810D01*
Y672190D01*
X132424Y674489D01*
X131234Y676551D01*
X129551Y678234D01*
X127490Y679424D01*
X125190Y680040D01*
X122810D01*
X120511Y679424D01*
X118742Y678402D01*
X117472Y678887D01*
Y681960D01*
X133040D01*
Y700040D01*
X117472D01*
Y739113D01*
X118742Y739597D01*
X120511Y738576D01*
D02*
G37*
G36*
X345107Y699785D02*
X347142Y697132D01*
X349795Y695097D01*
X352885Y693817D01*
X356200Y693381D01*
X359515Y693817D01*
X362605Y695097D01*
X365258Y697132D01*
X367293Y699785D01*
X368213Y702005D01*
X369587D01*
X370507Y699785D01*
X372542Y697132D01*
X375195Y695097D01*
X378174Y693863D01*
Y625843D01*
X358258Y605926D01*
X357515Y604815D01*
X357254Y603504D01*
Y599731D01*
X356081Y599245D01*
X328292Y627034D01*
Y658150D01*
X329465Y658636D01*
X329636Y658466D01*
X331925Y657144D01*
X334478Y656460D01*
X337122D01*
X339675Y657144D01*
X341965Y658466D01*
X343834Y660335D01*
X345156Y662625D01*
X345840Y665178D01*
Y667822D01*
X345156Y670375D01*
X343834Y672665D01*
X341965Y674534D01*
X339675Y675856D01*
X339226Y675976D01*
Y681978D01*
X338965Y683289D01*
X338223Y684400D01*
X330331Y692291D01*
X331011Y693408D01*
X334115Y693817D01*
X337205Y695097D01*
X339858Y697132D01*
X341893Y699785D01*
X342813Y702005D01*
X344187D01*
X345107Y699785D01*
D02*
G37*
G36*
X421306D02*
X423342Y697132D01*
X425995Y695097D01*
X428974Y693863D01*
Y679691D01*
X404196Y654913D01*
X403984Y654595D01*
X402714Y654981D01*
Y663715D01*
X409422Y670424D01*
X410165Y671535D01*
X410426Y672846D01*
Y693863D01*
X413405Y695097D01*
X416058Y697132D01*
X418093Y699785D01*
X419013Y702005D01*
X420387D01*
X421306Y699785D01*
D02*
G37*
G36*
X179200Y752278D02*
Y653645D01*
X177930Y653119D01*
X177382Y653667D01*
X175346Y654510D01*
X173142D01*
X171106Y653667D01*
X169547Y652108D01*
X168704Y650072D01*
Y648275D01*
X140567Y620138D01*
X123870D01*
X123455Y620690D01*
X124089Y621960D01*
X125190D01*
X127490Y622576D01*
X129551Y623766D01*
X131234Y625449D01*
X132424Y627511D01*
X132441Y627574D01*
X134945D01*
X136256Y627835D01*
X137367Y628578D01*
X144823Y636034D01*
X145566Y637145D01*
X145826Y638456D01*
Y728599D01*
X145566Y729911D01*
X144823Y731022D01*
X133541Y742304D01*
X134067Y743574D01*
X167418D01*
X168729Y743835D01*
X169840Y744577D01*
X178027Y752764D01*
X179200Y752278D01*
D02*
G37*
G36*
X614594Y684070D02*
X616391D01*
X621160Y679301D01*
Y667000D01*
X621421Y665689D01*
X622164Y664577D01*
X623275Y663835D01*
X624336Y663624D01*
Y663190D01*
X624829Y660712D01*
X626232Y658612D01*
Y657388D01*
X624829Y655288D01*
X624336Y652810D01*
Y652426D01*
X621179D01*
X612730Y660875D01*
Y683699D01*
X613786Y684405D01*
X614594Y684070D01*
D02*
G37*
G36*
X579504Y707241D02*
Y646454D01*
X578331Y645968D01*
X576842Y647457D01*
Y708244D01*
X578015Y708730D01*
X579504Y707241D01*
D02*
G37*
G36*
X446707Y699785D02*
X448742Y697132D01*
X451395Y695097D01*
X454374Y693863D01*
Y685800D01*
X454635Y684489D01*
X455378Y683378D01*
X461394Y677361D01*
Y632425D01*
X460124Y631576D01*
X459332Y631904D01*
X457535D01*
X440308Y649131D01*
X440423Y650000D01*
X440073Y652653D01*
X439050Y655124D01*
X437421Y657246D01*
X435299Y658875D01*
X432827Y659899D01*
X430175Y660248D01*
X423825D01*
X421173Y659899D01*
X420311Y659542D01*
X419591Y660618D01*
X434822Y675850D01*
X435565Y676961D01*
X435826Y678272D01*
Y693863D01*
X438805Y695097D01*
X441458Y697132D01*
X443493Y699785D01*
X444413Y702005D01*
X445787D01*
X446707Y699785D01*
D02*
G37*
G36*
X277644Y662625D02*
X278966Y660335D01*
X280835Y658466D01*
X283125Y657144D01*
X285678Y656460D01*
X288322D01*
X290875Y657144D01*
X293165Y658466D01*
X294008Y659309D01*
X295278Y658783D01*
Y649569D01*
X294007Y648298D01*
X293164Y646262D01*
Y644058D01*
X294007Y642022D01*
X295566Y640463D01*
X297602Y639620D01*
X299806D01*
X301842Y640463D01*
X303396Y642017D01*
X303423Y642017D01*
X304666Y641758D01*
Y627963D01*
X303396Y627838D01*
X303263Y628507D01*
X302520Y629618D01*
X274704Y657435D01*
Y659232D01*
X273860Y661268D01*
X273325Y661804D01*
X273851Y663074D01*
X277524D01*
X277644Y662625D01*
D02*
G37*
G36*
X472107Y699785D02*
X474142Y697132D01*
X476795Y695097D01*
X479774Y693863D01*
Y675294D01*
X480035Y673983D01*
X480778Y672872D01*
X490338Y663312D01*
X491449Y662569D01*
X492760Y662308D01*
X512524D01*
X513010Y661135D01*
X454741Y602866D01*
X444610D01*
X443299Y602605D01*
X442188Y601862D01*
X439648Y599322D01*
X438905Y598211D01*
X438781Y597589D01*
X437402Y597314D01*
X436625Y596795D01*
X435720Y596558D01*
X434816Y596795D01*
X434038Y597314D01*
X432520Y597616D01*
X426220D01*
X424702Y597314D01*
X423416Y596455D01*
X422556Y595168D01*
X422343Y594099D01*
X421143Y593222D01*
X420964Y593296D01*
X418760D01*
X416724Y592453D01*
X415668Y591397D01*
X414398Y591923D01*
Y618110D01*
X415668Y618541D01*
X416579Y617354D01*
X418701Y615726D01*
X421173Y614702D01*
X423825Y614352D01*
X430175D01*
X432827Y614702D01*
X435299Y615726D01*
X437421Y617354D01*
X439050Y619476D01*
X440073Y621948D01*
X440359Y624118D01*
X441624Y624649D01*
X448936Y617338D01*
X450047Y616595D01*
X451358Y616334D01*
X462280D01*
X463591Y616595D01*
X464702Y617338D01*
X467242Y619878D01*
X467985Y620989D01*
X468246Y622300D01*
Y678780D01*
X467985Y680091D01*
X467242Y681202D01*
X461226Y687219D01*
Y693863D01*
X464205Y695097D01*
X466858Y697132D01*
X468893Y699785D01*
X469813Y702005D01*
X471187D01*
X472107Y699785D01*
D02*
G37*
G36*
X179200Y644295D02*
Y607971D01*
X145914Y574684D01*
X145171Y573573D01*
X144910Y572262D01*
Y559731D01*
X143640Y559205D01*
X133040Y569805D01*
Y583040D01*
X117472D01*
Y614656D01*
X118645Y615142D01*
X119498Y614290D01*
X120609Y613547D01*
X121920Y613286D01*
X141986D01*
X143297Y613547D01*
X144408Y614290D01*
X173549Y643430D01*
X175346D01*
X177382Y644273D01*
X177930Y644821D01*
X179200Y644295D01*
D02*
G37*
G36*
X296672Y625777D02*
Y614579D01*
X296933Y613268D01*
X297164Y612922D01*
X296178Y612113D01*
X279524Y628767D01*
Y635671D01*
X280795Y636942D01*
X281638Y638978D01*
Y639152D01*
X282811Y639638D01*
X296672Y625777D01*
D02*
G37*
G36*
X526793Y628634D02*
X546726Y608702D01*
X547837Y607959D01*
X549148Y607698D01*
X557185D01*
X558456Y606427D01*
X559082Y606168D01*
X558830Y604898D01*
X542713D01*
X533293Y614319D01*
X532181Y615061D01*
X530870Y615322D01*
X515620D01*
X514309Y615061D01*
X513198Y614319D01*
X510647Y611768D01*
X509905Y610657D01*
X509644Y609346D01*
Y599296D01*
X509762Y598704D01*
X508743Y597612D01*
X508720Y597616D01*
X502420D01*
X500902Y597314D01*
X500125Y596795D01*
X499220Y596558D01*
X498316Y596795D01*
X497538Y597314D01*
X496260Y597569D01*
X495630Y598735D01*
X523899Y627004D01*
X524641Y628115D01*
X524902Y629426D01*
X525242Y629521D01*
X526172Y629563D01*
X526793Y628634D01*
D02*
G37*
G36*
X516347Y652987D02*
X516780Y651942D01*
X518050Y650671D01*
Y630845D01*
X490017Y602812D01*
X489602Y602853D01*
X488795Y604176D01*
X488902Y604434D01*
Y606638D01*
X488059Y608674D01*
X486500Y610233D01*
X484464Y611076D01*
X482260D01*
X480224Y610233D01*
X478665Y608674D01*
X477822Y606638D01*
Y604841D01*
X476863Y603882D01*
X471026D01*
X469715Y603621D01*
X468604Y602878D01*
X465048Y599322D01*
X464305Y598211D01*
X464181Y597589D01*
X462803Y597314D01*
X462025Y596795D01*
X461340Y596615D01*
X460198Y597230D01*
X460025Y598461D01*
X514849Y653285D01*
X516347Y652987D01*
D02*
G37*
G36*
X279036Y605882D02*
X278738Y604383D01*
X277862Y604021D01*
X276591Y602750D01*
X265695D01*
X243204Y625241D01*
Y627038D01*
X242360Y629074D01*
X240802Y630633D01*
X240134Y630910D01*
X240530Y631866D01*
Y634070D01*
X240333Y634545D01*
X240418Y634970D01*
Y642840D01*
X241591Y643326D01*
X279036Y605882D01*
D02*
G37*
G36*
X263594Y662191D02*
X263773Y662001D01*
X264258Y660764D01*
X263624Y659232D01*
Y657028D01*
X264467Y654992D01*
X266026Y653434D01*
X268062Y652590D01*
X269859D01*
X275656Y646793D01*
X275170Y645620D01*
X274996D01*
X272960Y644777D01*
X271401Y643218D01*
X270558Y641182D01*
Y638978D01*
X271401Y636942D01*
X272672Y635671D01*
Y627347D01*
X272933Y626036D01*
X273676Y624925D01*
X297897Y600704D01*
X297508Y599297D01*
X297375Y599264D01*
X257426Y639213D01*
Y656187D01*
X263457Y662218D01*
X263594Y662191D01*
D02*
G37*
G36*
X570320Y644624D02*
X570993Y643616D01*
X599062Y615547D01*
Y598330D01*
X598080Y597525D01*
X597620Y597616D01*
X591320D01*
X589803Y597314D01*
X589025Y596795D01*
X588120Y596558D01*
X587216Y596795D01*
X586438Y597314D01*
X584920Y597616D01*
X578620D01*
X577103Y597314D01*
X576325Y596795D01*
X575420Y596558D01*
X574516Y596795D01*
X573738Y597314D01*
X572220Y597616D01*
X566443D01*
X566058Y598886D01*
X566302Y599050D01*
X573668Y606416D01*
X574411Y607527D01*
X574672Y608838D01*
Y630174D01*
X574411Y631485D01*
X573668Y632596D01*
X566302Y639962D01*
X566070Y640117D01*
X566020Y641679D01*
X567421Y642754D01*
X568952Y644748D01*
X569605Y644766D01*
X570320Y644624D01*
D02*
G37*
G36*
X234526Y621240D02*
X236562Y620396D01*
X238359D01*
X261853Y596902D01*
X262965Y596159D01*
X264276Y595898D01*
X276591D01*
X277862Y594628D01*
X279898Y593784D01*
X282102D01*
X284138Y594628D01*
X285697Y596186D01*
X286059Y597062D01*
X287558Y597360D01*
X292218Y592700D01*
X293329Y591957D01*
X294640Y591696D01*
X301615D01*
X301800Y591511D01*
Y589714D01*
X302643Y587677D01*
X302808Y587514D01*
X302804Y585721D01*
X302135Y585052D01*
X301292Y583016D01*
Y581844D01*
X300022Y581318D01*
X291891Y589449D01*
X290780Y590192D01*
X289469Y590453D01*
X242178D01*
X231772Y600859D01*
Y622365D01*
X232677Y622693D01*
X233042Y622723D01*
X234526Y621240D01*
D02*
G37*
G36*
X395906Y699785D02*
X397942Y697132D01*
X400595Y695097D01*
X403574Y693863D01*
Y674265D01*
X396866Y667557D01*
X396123Y666445D01*
X395862Y665134D01*
Y577088D01*
X395862Y577087D01*
X394692Y576461D01*
X374348Y596805D01*
Y598602D01*
X373505Y600639D01*
X371946Y602197D01*
X369910Y603040D01*
X367706D01*
X366257Y602440D01*
X365538Y603517D01*
X384022Y622001D01*
X384765Y623113D01*
X385026Y624424D01*
Y693863D01*
X388005Y695097D01*
X390658Y697132D01*
X392693Y699785D01*
X393613Y702005D01*
X394987D01*
X395906Y699785D01*
D02*
G37*
G36*
X512825Y573205D02*
X513602Y572686D01*
X515120Y572384D01*
X521420D01*
X522938Y572686D01*
X523716Y573205D01*
X524620Y573442D01*
X525525Y573205D01*
X526302Y572686D01*
X527820Y572384D01*
X533231D01*
X533757Y571114D01*
X529269Y566626D01*
X527472D01*
X525436Y565783D01*
X523877Y564224D01*
X523034Y562188D01*
Y560530D01*
X521376D01*
X519340Y559687D01*
X517781Y558128D01*
X516938Y556092D01*
Y553888D01*
X517781Y551852D01*
X519340Y550293D01*
X521376Y549450D01*
X523580D01*
X525616Y550293D01*
X527175Y551852D01*
X528018Y553888D01*
Y555546D01*
X529676D01*
X531712Y556389D01*
X533271Y557948D01*
X534114Y559984D01*
Y561781D01*
X537920Y565587D01*
X538061Y565569D01*
X539147Y565018D01*
Y558723D01*
X507089Y526666D01*
X484977D01*
X483706Y527937D01*
X481670Y528780D01*
X479466D01*
X477430Y527937D01*
X475871Y526378D01*
X475028Y524342D01*
Y522138D01*
X475871Y520102D01*
X477430Y518543D01*
X478302Y518182D01*
X478443Y516749D01*
X478167Y516564D01*
X477053Y514897D01*
X476701Y513129D01*
X476262Y512854D01*
X475392Y512687D01*
X455901Y532178D01*
X456427Y533448D01*
X457540D01*
X459576Y534291D01*
X461135Y535850D01*
X461978Y537886D01*
Y540090D01*
X461135Y542126D01*
X459864Y543397D01*
Y559562D01*
X459603Y560873D01*
X458860Y561984D01*
X448849Y571996D01*
X449658Y572982D01*
X450103Y572686D01*
X451620Y572384D01*
X457920D01*
X459438Y572686D01*
X460216Y573205D01*
X461120Y573442D01*
X462025Y573205D01*
X462803Y572686D01*
X464320Y572384D01*
X470620D01*
X472138Y572686D01*
X472916Y573205D01*
X473820Y573442D01*
X474725Y573205D01*
X475503Y572686D01*
X477020Y572384D01*
X483320D01*
X484838Y572686D01*
X485616Y573205D01*
X486520Y573442D01*
X487425Y573205D01*
X488203Y572686D01*
X489720Y572384D01*
X496020D01*
X497538Y572686D01*
X498316Y573205D01*
X499220Y573442D01*
X500125Y573205D01*
X500902Y572686D01*
X502420Y572384D01*
X508720D01*
X510238Y572686D01*
X511016Y573205D01*
X511920Y573442D01*
X512825Y573205D01*
D02*
G37*
G36*
X238337Y584605D02*
X239448Y583862D01*
X240759Y583601D01*
X288050D01*
X290135Y581515D01*
X290134Y581509D01*
X289513Y580342D01*
X287696D01*
X285660Y579499D01*
X284101Y577940D01*
X283258Y575904D01*
Y573700D01*
X284101Y571664D01*
X285660Y570105D01*
X287696Y569262D01*
X289493D01*
X295046Y563710D01*
Y548971D01*
X293990Y548266D01*
X293202Y548592D01*
X290998D01*
X288962Y547749D01*
X287691Y546478D01*
X241702D01*
X227454Y560726D01*
Y593828D01*
X228627Y594314D01*
X238337Y584605D01*
D02*
G37*
G36*
X416724Y583059D02*
X418760Y582216D01*
X420964D01*
X421198Y582313D01*
X422254Y581607D01*
Y576350D01*
X422556Y574832D01*
X423416Y573546D01*
X424702Y572686D01*
X426220Y572384D01*
X432520D01*
X434038Y572686D01*
X434816Y573205D01*
X435720Y573442D01*
X436625Y573205D01*
X437402Y572686D01*
X438920Y572384D01*
X439062D01*
X439648Y571507D01*
X453012Y558143D01*
Y543467D01*
X452065Y542618D01*
X414398Y580285D01*
Y583589D01*
X415668Y584115D01*
X416724Y583059D01*
D02*
G37*
G36*
X192460Y757300D02*
Y716960D01*
X213886D01*
X214372Y715787D01*
X193666Y695080D01*
X192923Y693969D01*
X192662Y692658D01*
Y544248D01*
X189825D01*
X187173Y543899D01*
X184701Y542875D01*
X182579Y541246D01*
X180950Y539124D01*
X179926Y536652D01*
X179577Y534000D01*
X179926Y531348D01*
X180950Y528876D01*
X182234Y527203D01*
X181653Y525933D01*
X147882D01*
X147473Y526442D01*
X148083Y527710D01*
X149438D01*
X151474Y528554D01*
X153033Y530112D01*
X153876Y532148D01*
Y534352D01*
X153033Y536388D01*
X151762Y537659D01*
Y570843D01*
X185048Y604130D01*
X185791Y605241D01*
X186052Y606552D01*
Y752551D01*
X191287Y757786D01*
X192460Y757300D01*
D02*
G37*
G36*
X372197Y534057D02*
Y516840D01*
X370967Y516274D01*
X334772Y552469D01*
X335298Y553739D01*
X336665D01*
X338701Y554582D01*
X340260Y556141D01*
X341103Y558177D01*
Y560381D01*
X340260Y562417D01*
X338701Y563976D01*
X336665Y564819D01*
X334868D01*
X326596Y573091D01*
Y574888D01*
X325753Y576924D01*
X324194Y578483D01*
X322158Y579326D01*
X319954D01*
X318132Y578571D01*
X316862Y579086D01*
Y584720D01*
X316601Y586031D01*
X315858Y587142D01*
X312880Y590121D01*
Y591577D01*
X313892Y592161D01*
X314053Y592200D01*
X372197Y534057D01*
D02*
G37*
G36*
X397332Y533295D02*
Y530909D01*
X396061Y529638D01*
X395218Y527602D01*
Y525398D01*
X396061Y523362D01*
X397620Y521803D01*
X399656Y520960D01*
X401453D01*
X406425Y515988D01*
X405899Y514718D01*
X396576D01*
X395870Y515774D01*
X396192Y516550D01*
Y518754D01*
X395349Y520790D01*
X393790Y522349D01*
X391754Y523192D01*
X391454D01*
Y535516D01*
X391193Y536827D01*
X390451Y537938D01*
X329493Y598896D01*
X329911Y600274D01*
X330280Y600348D01*
X397332Y533295D01*
D02*
G37*
G36*
X318351Y677577D02*
X319326Y676755D01*
Y675046D01*
X320169Y673010D01*
X321440Y671739D01*
Y625615D01*
X321701Y624304D01*
X322444Y623192D01*
X420767Y524869D01*
Y513131D01*
X419497Y512606D01*
X406298Y525805D01*
Y527602D01*
X405454Y529638D01*
X404184Y530909D01*
Y534714D01*
X403923Y536025D01*
X403180Y537137D01*
X334465Y605852D01*
Y607649D01*
X333621Y609685D01*
X332063Y611244D01*
X330027Y612087D01*
X328230D01*
X315586Y624731D01*
X316017Y626096D01*
X317590Y626747D01*
X319149Y628306D01*
X319992Y630342D01*
Y632546D01*
X319149Y634582D01*
X317878Y635853D01*
Y677530D01*
X318153Y677644D01*
X318351Y677577D01*
D02*
G37*
G36*
X143617Y520085D02*
X144729Y519342D01*
X146040Y519082D01*
X185262D01*
X185514Y517812D01*
X184701Y517475D01*
X182579Y515846D01*
X180950Y513724D01*
X179926Y511252D01*
X179577Y508600D01*
X179926Y505948D01*
X180950Y503476D01*
X182579Y501354D01*
X184701Y499725D01*
X186833Y498842D01*
X186580Y497572D01*
X152179D01*
X140322Y509429D01*
Y521721D01*
X141495Y522207D01*
X143617Y520085D01*
D02*
G37*
G36*
X371859Y505692D02*
Y502931D01*
X372120Y501620D01*
X372863Y500509D01*
X373974Y499766D01*
X375285Y499505D01*
X392788D01*
X399682Y492611D01*
Y487816D01*
X398412Y487430D01*
X398154Y487816D01*
X393582Y492388D01*
X392471Y493131D01*
X391160Y493392D01*
X347184D01*
X346669Y494662D01*
X346949Y495336D01*
X347890Y496191D01*
X349926Y495348D01*
X352130D01*
X354166Y496191D01*
X355725Y497750D01*
X356568Y499786D01*
Y501990D01*
X355725Y504026D01*
X354454Y505297D01*
Y521438D01*
X355627Y521924D01*
X371859Y505692D01*
D02*
G37*
G36*
X237861Y540630D02*
X238972Y539887D01*
X240283Y539626D01*
X287691D01*
X288962Y538355D01*
X290998Y537512D01*
X293202D01*
X293990Y537838D01*
X295046Y537133D01*
Y509896D01*
X295306Y508585D01*
X296049Y507474D01*
X308359Y495164D01*
X309110Y494662D01*
X308725Y493392D01*
X276123D01*
X275738Y494662D01*
X277181Y495626D01*
X279624Y498069D01*
X281544Y500942D01*
X282866Y504134D01*
X283540Y507523D01*
Y510978D01*
X282866Y514366D01*
X281544Y517559D01*
X279624Y520431D01*
X277181Y522874D01*
X274308Y524794D01*
X271116Y526116D01*
X267728Y526790D01*
X264272D01*
X260884Y526116D01*
X257692Y524794D01*
X254819Y522874D01*
X252376Y520431D01*
X250456Y517559D01*
X249134Y514366D01*
X248460Y510978D01*
Y507523D01*
X249134Y504134D01*
X250456Y500942D01*
X252376Y498069D01*
X254819Y495626D01*
X256262Y494662D01*
X255877Y493392D01*
X214724D01*
X214238Y494565D01*
X234324Y514652D01*
X235067Y515763D01*
X235328Y517074D01*
Y527213D01*
X236599Y528484D01*
X237442Y530520D01*
Y532724D01*
X236599Y534760D01*
X235040Y536319D01*
X233004Y537162D01*
X230800D01*
X228764Y536319D01*
X227205Y534760D01*
X226362Y532724D01*
Y530520D01*
X227205Y528484D01*
X228476Y527213D01*
Y518493D01*
X207555Y497572D01*
X199419D01*
X199167Y498842D01*
X201299Y499725D01*
X203421Y501354D01*
X205050Y503476D01*
X205753Y505174D01*
X208026D01*
X209337Y505435D01*
X210448Y506177D01*
X222132Y517862D01*
X222875Y518973D01*
X223136Y520284D01*
Y553695D01*
X224309Y554181D01*
X237861Y540630D01*
D02*
G37*
G36*
X628444Y593023D02*
Y591226D01*
X629287Y589190D01*
X630846Y587631D01*
X632882Y586788D01*
X635086D01*
X637122Y587631D01*
X638681Y589190D01*
X639524Y591226D01*
Y593430D01*
X638681Y595466D01*
X637122Y597025D01*
X635086Y597868D01*
X633600D01*
X633148Y598445D01*
X633759Y599715D01*
X653190D01*
X655668Y600208D01*
X657768Y601612D01*
X659172Y603712D01*
X659475Y605236D01*
X660745Y605111D01*
Y165000D01*
X390000D01*
Y484485D01*
X391262Y485019D01*
X392306Y483975D01*
Y242608D01*
X392567Y241297D01*
X393310Y240185D01*
X402130Y231365D01*
Y229568D01*
X402973Y227531D01*
X404532Y225973D01*
X406568Y225130D01*
X408772D01*
X410808Y225973D01*
X412367Y227531D01*
X413210Y229568D01*
Y231405D01*
X414308Y232011D01*
X414383Y232028D01*
X471288Y175124D01*
X472399Y174381D01*
X473710Y174120D01*
X556006D01*
X557317Y174381D01*
X558428Y175124D01*
X620912Y237608D01*
X621655Y238719D01*
X621703Y238960D01*
X638040D01*
Y257040D01*
X624544D01*
X624058Y258213D01*
X625454Y259609D01*
X625511Y259576D01*
X627810Y258960D01*
X630190D01*
X632489Y259576D01*
X634551Y260766D01*
X636234Y262449D01*
X637424Y264511D01*
X638040Y266810D01*
Y269190D01*
X637424Y271489D01*
X636234Y273551D01*
X636189Y273595D01*
X636564Y274963D01*
X636595Y274985D01*
X637676Y275708D01*
X641486Y279518D01*
X642229Y280629D01*
X642490Y281940D01*
Y297936D01*
X642229Y299247D01*
X641486Y300358D01*
X637391Y304454D01*
X637424Y304511D01*
X638040Y306810D01*
Y309190D01*
X637424Y311489D01*
X636234Y313551D01*
X634551Y315234D01*
X632489Y316424D01*
X630190Y317040D01*
X627810D01*
X625511Y316424D01*
X623449Y315234D01*
X621766Y313551D01*
X620576Y311489D01*
X619960Y309190D01*
Y306810D01*
X620576Y304511D01*
X621766Y302449D01*
X623449Y300766D01*
X625511Y299576D01*
X627810Y298960D01*
X630190D01*
X632489Y299576D01*
X632546Y299609D01*
X635214Y296942D01*
X635101Y296312D01*
X633718Y295714D01*
X632489Y296424D01*
X630190Y297040D01*
X627810D01*
X625511Y296424D01*
X625454Y296391D01*
X600426Y321418D01*
Y361959D01*
X603541D01*
Y375039D01*
X595471D01*
X594903Y375748D01*
X595436Y376959D01*
X603541D01*
Y380074D01*
X615138D01*
X616368Y378843D01*
X618404Y378000D01*
X620608D01*
X622644Y378843D01*
X624203Y380402D01*
X625046Y382438D01*
Y384642D01*
X624203Y386678D01*
X622644Y388237D01*
X620608Y389080D01*
X618404D01*
X616368Y388237D01*
X615056Y386925D01*
X603541D01*
Y390039D01*
X590461D01*
Y384670D01*
X589191Y384144D01*
X588862Y384472D01*
X586826Y385316D01*
X584622D01*
X582586Y384472D01*
X581027Y382914D01*
X580184Y380878D01*
Y378674D01*
X581027Y376638D01*
X582586Y375079D01*
X584622Y374236D01*
X586419D01*
X590461Y370194D01*
Y361959D01*
X593575D01*
Y319999D01*
X593835Y318688D01*
X594578Y317577D01*
X620609Y291546D01*
X620576Y291489D01*
X619960Y289190D01*
Y286810D01*
X620576Y284511D01*
X621766Y282449D01*
X621873Y282343D01*
X621712Y280708D01*
X621479Y280552D01*
X550578Y209651D01*
X549835Y208540D01*
X549574Y207228D01*
Y206441D01*
X549511Y206424D01*
X547449Y205234D01*
X545766Y203551D01*
X544576Y201489D01*
X543960Y199190D01*
Y196810D01*
X544576Y194511D01*
X545766Y192449D01*
X547449Y190766D01*
X549511Y189576D01*
X551810Y188960D01*
X554190D01*
X556489Y189576D01*
X558551Y190766D01*
X560234Y192449D01*
X561424Y194511D01*
X562040Y196810D01*
Y199190D01*
X561424Y201489D01*
X560234Y203551D01*
X558551Y205234D01*
X557742Y205701D01*
X557576Y206960D01*
X618690Y268074D01*
X619960Y267547D01*
Y266810D01*
X620576Y264511D01*
X620609Y264454D01*
X616068Y259912D01*
X615325Y258801D01*
X615064Y257490D01*
Y241449D01*
X554587Y180972D01*
X502476D01*
X501990Y182145D01*
X509454Y189609D01*
X509511Y189576D01*
X511810Y188960D01*
X514190D01*
X516489Y189576D01*
X518551Y190766D01*
X520234Y192449D01*
X521424Y194511D01*
X522040Y196810D01*
Y199190D01*
X521424Y201489D01*
X520234Y203551D01*
X518551Y205234D01*
X516489Y206424D01*
X514190Y207040D01*
X511810D01*
X509511Y206424D01*
X507450Y205234D01*
X505766Y203551D01*
X504576Y201489D01*
X503960Y199190D01*
Y196810D01*
X504576Y194511D01*
X504609Y194454D01*
X503213Y193058D01*
X502040Y193544D01*
Y207040D01*
X488805D01*
X434342Y261502D01*
X433588Y262007D01*
X433240Y263391D01*
X433281Y263530D01*
X434424Y265510D01*
X434441Y265574D01*
X484080D01*
X510959Y238694D01*
Y230459D01*
X514073D01*
Y213501D01*
X514334Y212190D01*
X515077Y211079D01*
X524609Y201546D01*
X524576Y201489D01*
X523960Y199190D01*
Y196810D01*
X524576Y194511D01*
X525766Y192449D01*
X527449Y190766D01*
X529511Y189576D01*
X531810Y188960D01*
X534190D01*
X536489Y189576D01*
X538551Y190766D01*
X540234Y192449D01*
X541424Y194511D01*
X542040Y196810D01*
Y199190D01*
X541424Y201489D01*
X540234Y203551D01*
X538551Y205234D01*
X536489Y206424D01*
X534190Y207040D01*
X531810D01*
X529511Y206424D01*
X529454Y206391D01*
X520925Y214920D01*
Y230459D01*
X524039D01*
Y238561D01*
X525251Y239095D01*
X525959Y238528D01*
Y230459D01*
X539039D01*
Y243539D01*
X530804D01*
X510664Y263679D01*
Y285488D01*
X511934Y286213D01*
X513751Y285851D01*
X515912Y286281D01*
X517745Y287506D01*
X518627Y288826D01*
X519897Y288441D01*
Y288000D01*
X520148Y286097D01*
X520882Y284324D01*
X522051Y282801D01*
X523574Y281632D01*
X525347Y280898D01*
X527250Y280647D01*
X529153Y280898D01*
X530927Y281632D01*
X532449Y282801D01*
X533618Y284324D01*
X534352Y286097D01*
X534603Y288000D01*
Y292000D01*
X534352Y293903D01*
X533618Y295676D01*
X532449Y297199D01*
X530927Y298368D01*
X529153Y299102D01*
X527250Y299353D01*
X525347Y299102D01*
X523574Y298368D01*
X522051Y297199D01*
X520882Y295676D01*
X520530Y294825D01*
X519209Y294955D01*
X518969Y296161D01*
X517745Y297994D01*
X515912Y299218D01*
X513751Y299648D01*
X511934Y299287D01*
X510664Y300011D01*
Y356889D01*
X511720Y357595D01*
X512649Y357210D01*
X514852D01*
X516889Y358054D01*
X518447Y359612D01*
X519021Y360998D01*
X520396Y360998D01*
X520882Y359823D01*
X522051Y358301D01*
X523574Y357132D01*
X525347Y356398D01*
X527250Y356147D01*
X529153Y356398D01*
X530927Y357132D01*
X532449Y358301D01*
X533618Y359823D01*
X534352Y361597D01*
X534603Y363500D01*
Y367500D01*
X534352Y369403D01*
X533618Y371176D01*
X532449Y372699D01*
X530927Y373868D01*
X529153Y374602D01*
X527250Y374853D01*
X525347Y374602D01*
X523574Y373868D01*
X522051Y372699D01*
X520882Y371176D01*
X520148Y369403D01*
X519897Y367500D01*
Y365706D01*
X518627Y365453D01*
X518447Y365888D01*
X516889Y367447D01*
X514852Y368290D01*
X512649D01*
X511720Y367905D01*
X510664Y368611D01*
Y379385D01*
X511935Y380656D01*
X512778Y382692D01*
Y384896D01*
X512128Y386464D01*
X512792Y387734D01*
X520091D01*
X525503Y382323D01*
X526614Y381580D01*
X527925Y381319D01*
X571181D01*
X572492Y381580D01*
X573603Y382323D01*
X584349Y393068D01*
X629920D01*
X631231Y393329D01*
X632342Y394072D01*
X647328Y409058D01*
X648071Y410169D01*
X648332Y411480D01*
Y463042D01*
X648071Y464353D01*
X647328Y465464D01*
X623001Y489792D01*
Y498689D01*
X624216Y499058D01*
X624376Y498819D01*
X626819Y496376D01*
X629692Y494456D01*
X632884Y493134D01*
X636273Y492460D01*
X639728D01*
X643117Y493134D01*
X646309Y494456D01*
X649181Y496376D01*
X651625Y498819D01*
X653544Y501692D01*
X654866Y504884D01*
X655540Y508273D01*
Y511727D01*
X654866Y515116D01*
X653544Y518308D01*
X651625Y521181D01*
X649181Y523624D01*
X646309Y525544D01*
X643117Y526866D01*
X639728Y527540D01*
X636273D01*
X634148Y527117D01*
X632920Y528168D01*
Y529422D01*
X632077Y531458D01*
X630806Y532729D01*
Y562519D01*
X632077Y563790D01*
X632920Y565826D01*
Y568030D01*
X632077Y570066D01*
X630518Y571625D01*
X630258Y573107D01*
X630646Y573580D01*
X631276D01*
X633312Y574423D01*
X634871Y575982D01*
X635714Y578018D01*
Y580222D01*
X634871Y582258D01*
X633312Y583817D01*
X631276Y584660D01*
X629072D01*
X627036Y583817D01*
X625477Y582258D01*
X624634Y580222D01*
Y578425D01*
X617153Y570943D01*
X616410Y569832D01*
X616149Y568521D01*
Y564482D01*
X614879Y563803D01*
X614638Y563964D01*
X613120Y564266D01*
X605822D01*
X605336Y565439D01*
X611514Y571618D01*
X612257Y572729D01*
X612518Y574040D01*
Y591729D01*
X613789Y593000D01*
X614632Y595036D01*
Y597240D01*
X613789Y599276D01*
X612230Y600835D01*
X610194Y601678D01*
X607990D01*
X607184Y601344D01*
X605914Y602193D01*
Y613894D01*
X607087Y614380D01*
X628444Y593023D01*
D02*
G37*
G36*
X539147Y547374D02*
Y539998D01*
X537876Y538727D01*
X537033Y536691D01*
Y534487D01*
X537876Y532451D01*
X539147Y531180D01*
Y488907D01*
X537877Y488782D01*
X537835Y488991D01*
X537092Y490102D01*
X534342Y492853D01*
X534202Y492946D01*
X534095Y493077D01*
X533650Y493315D01*
X533231Y493595D01*
X533065Y493628D01*
X532917Y493708D01*
X532415Y493758D01*
X531939Y493852D01*
Y512930D01*
X531548Y514897D01*
X530434Y516564D01*
X528767Y517678D01*
X526800Y518069D01*
X485974D01*
X485331Y519339D01*
X485680Y519814D01*
X508508D01*
X509819Y520075D01*
X510930Y520818D01*
X537973Y547860D01*
X539147Y547374D01*
D02*
G37*
G36*
X454570Y495429D02*
X456606Y494586D01*
X458810D01*
X460846Y495429D01*
X461140Y495723D01*
X462410Y495197D01*
Y474591D01*
X461140Y474338D01*
X460627Y475578D01*
X459068Y477137D01*
X457032Y477980D01*
X454828D01*
X453953Y477618D01*
X452897Y478323D01*
Y495306D01*
X454167Y495832D01*
X454570Y495429D01*
D02*
G37*
G36*
X547754Y464971D02*
Y461667D01*
X540191Y454104D01*
X538394D01*
X536358Y453261D01*
X534799Y451702D01*
X533956Y449666D01*
Y448553D01*
X532686Y448027D01*
X523954Y456759D01*
Y458556D01*
X523111Y460592D01*
X522181Y461522D01*
X522707Y462792D01*
X526800D01*
X527860Y463002D01*
X529130Y462014D01*
Y461178D01*
X529973Y459142D01*
X531532Y457583D01*
X533568Y456740D01*
X535772D01*
X537808Y457583D01*
X539367Y459142D01*
X540210Y461178D01*
Y463028D01*
X541233Y463979D01*
X541470Y463881D01*
X543674D01*
X545711Y464724D01*
X546484Y465497D01*
X547754Y464971D01*
D02*
G37*
G36*
X572705Y554653D02*
Y462625D01*
X571435Y462030D01*
X569851Y462944D01*
X569846Y462946D01*
Y552867D01*
X571117Y554138D01*
X571435Y554906D01*
X572705Y554653D01*
D02*
G37*
G36*
X562994Y552523D02*
Y462946D01*
X562989Y462944D01*
X561066Y461834D01*
X560325Y462038D01*
X559796Y462257D01*
Y532899D01*
X560063Y533167D01*
X560806Y534278D01*
X561067Y535589D01*
Y552492D01*
X562314Y553052D01*
X562994Y552523D01*
D02*
G37*
G36*
X427530Y473643D02*
Y471846D01*
X428373Y469810D01*
X429932Y468251D01*
X430814Y467886D01*
X431062Y466641D01*
X416069Y451648D01*
X414896Y452134D01*
Y484481D01*
X416166Y485008D01*
X427530Y473643D01*
D02*
G37*
G36*
X592038Y562064D02*
X592128Y561679D01*
X591854Y560300D01*
Y554000D01*
X592156Y552482D01*
X592676Y551705D01*
X592912Y550800D01*
X592676Y549895D01*
X592156Y549118D01*
X591854Y547600D01*
Y541300D01*
X592156Y539782D01*
X592676Y539005D01*
X592912Y538100D01*
X592676Y537195D01*
X592156Y536418D01*
X591854Y534900D01*
Y528600D01*
X592156Y527082D01*
X592676Y526305D01*
X592912Y525400D01*
X592676Y524495D01*
X592156Y523718D01*
X591854Y522200D01*
Y515900D01*
X592156Y514382D01*
X592676Y513605D01*
X592912Y512700D01*
X592676Y511795D01*
X592156Y511018D01*
X591854Y509500D01*
Y503200D01*
X592156Y501682D01*
X592676Y500905D01*
X592912Y500000D01*
X592676Y499095D01*
X592156Y498318D01*
X591854Y496800D01*
Y490500D01*
X592156Y488982D01*
X592676Y488205D01*
X592912Y487300D01*
X592676Y486395D01*
X592156Y485618D01*
X591854Y484100D01*
Y477800D01*
X592156Y476282D01*
X592676Y475505D01*
X592912Y474600D01*
X592676Y473695D01*
X592156Y472918D01*
X591854Y471400D01*
Y465100D01*
X592156Y463582D01*
X592725Y462731D01*
X593176Y461505D01*
X592316Y460218D01*
X592014Y458700D01*
Y452400D01*
X592260Y451163D01*
X592027Y450732D01*
X591746Y450385D01*
X591351Y450040D01*
X589448D01*
X588642Y449706D01*
X587372Y450555D01*
Y544485D01*
X588643Y545756D01*
X589486Y547792D01*
Y549996D01*
X588643Y552032D01*
X587084Y553591D01*
X585048Y554434D01*
X582844D01*
X580808Y553591D01*
X580730Y553512D01*
X579556Y553998D01*
Y559285D01*
X583221Y562949D01*
X591565D01*
X592038Y562064D01*
D02*
G37*
G36*
X637891Y465213D02*
X637405Y464039D01*
X626461D01*
Y450959D01*
X634531D01*
X635099Y450250D01*
X634566Y449039D01*
X626461D01*
Y445925D01*
X619936D01*
X619801Y446015D01*
X618490Y446276D01*
X617032D01*
X616785Y447518D01*
X615925Y448805D01*
X616376Y450031D01*
X616945Y450882D01*
X617246Y452400D01*
Y458700D01*
X616945Y460218D01*
X616376Y461069D01*
X615925Y462295D01*
X616785Y463582D01*
X617086Y465100D01*
Y471400D01*
X616785Y472918D01*
X616265Y473695D01*
X616028Y474600D01*
X616265Y475505D01*
X616785Y476282D01*
X617086Y477800D01*
Y484100D01*
X617056Y484251D01*
X618227Y484876D01*
X637891Y465213D01*
D02*
G37*
G36*
X552944Y455508D02*
Y427562D01*
X551702Y427315D01*
X550925Y426795D01*
X550020Y426558D01*
X549116Y426795D01*
X548338Y427315D01*
X546820Y427617D01*
X540520D01*
X539002Y427315D01*
X538225Y426795D01*
X537320Y426558D01*
X536416Y426795D01*
X535638Y427315D01*
X534396Y427562D01*
Y444033D01*
X535666Y444559D01*
X536358Y443867D01*
X538394Y443024D01*
X540598D01*
X542634Y443867D01*
X544193Y445426D01*
X545036Y447462D01*
Y449259D01*
X551771Y455994D01*
X552944Y455508D01*
D02*
G37*
G36*
X461139Y457110D02*
X462698Y455551D01*
X464734Y454708D01*
X466938D01*
X468974Y455551D01*
X470150Y456728D01*
X470780Y456666D01*
X498861Y428584D01*
X498678Y426971D01*
X498377Y426779D01*
X498316Y426795D01*
X497538Y427315D01*
X496020Y427617D01*
X489720D01*
X488203Y427315D01*
X487425Y426795D01*
X486520Y426558D01*
X485616Y426795D01*
X484838Y427315D01*
X483320Y427617D01*
X477020D01*
X475503Y427315D01*
X474725Y426795D01*
X473820Y426558D01*
X472916Y426795D01*
X472138Y427315D01*
X470620Y427617D01*
X464320D01*
X462803Y427315D01*
X462025Y426795D01*
X461120Y426558D01*
X460216Y426795D01*
X459438Y427315D01*
X458196Y427562D01*
Y443975D01*
X459466Y444501D01*
X463090Y440877D01*
Y439080D01*
X463933Y437044D01*
X465492Y435485D01*
X467528Y434642D01*
X469732D01*
X471768Y435485D01*
X473327Y437044D01*
X474170Y439080D01*
Y441284D01*
X473327Y443320D01*
X471768Y444879D01*
X469732Y445722D01*
X467935D01*
X459356Y454301D01*
Y458097D01*
X460626Y458350D01*
X461139Y457110D01*
D02*
G37*
G36*
X562989Y446376D02*
X565250Y445770D01*
X567590D01*
X569851Y446376D01*
X571435Y447290D01*
X572705Y446695D01*
Y436568D01*
X572965Y435257D01*
X573708Y434145D01*
X579094Y428759D01*
X578913Y428324D01*
X578470Y427587D01*
X577103Y427315D01*
X576325Y426795D01*
X575420Y426558D01*
X574516Y426795D01*
X573738Y427315D01*
X572220Y427617D01*
X565920D01*
X564403Y427315D01*
X563625Y426795D01*
X562720Y426558D01*
X561816Y426795D01*
X561038Y427315D01*
X559796Y427562D01*
Y447063D01*
X560325Y447282D01*
X561066Y447486D01*
X562989Y446376D01*
D02*
G37*
G36*
X514647Y461522D02*
X513717Y460592D01*
X512874Y458556D01*
Y456352D01*
X513717Y454316D01*
X515276Y452757D01*
X517312Y451914D01*
X519109D01*
X527544Y443479D01*
Y427562D01*
X526302Y427315D01*
X525525Y426795D01*
X524620Y426558D01*
X523716Y426795D01*
X522938Y427315D01*
X521696Y427562D01*
Y441082D01*
X521435Y442393D01*
X520693Y443504D01*
X506792Y457405D01*
Y459202D01*
X505949Y461238D01*
X505568Y461618D01*
X506054Y462792D01*
X514121D01*
X514647Y461522D01*
D02*
G37*
G36*
X478167Y464297D02*
X479834Y463183D01*
X481800Y462792D01*
X496450D01*
X496936Y461618D01*
X496556Y461238D01*
X495712Y459202D01*
Y456998D01*
X496556Y454962D01*
X498114Y453403D01*
X500150Y452560D01*
X501947D01*
X514844Y439663D01*
Y427562D01*
X513602Y427315D01*
X512825Y426795D01*
X511920Y426558D01*
X511016Y426795D01*
X510238Y427315D01*
X508822Y427597D01*
X508735Y428031D01*
X507993Y429142D01*
X476628Y460507D01*
Y464314D01*
X477898Y464699D01*
X478167Y464297D01*
D02*
G37*
G36*
X446045Y455915D02*
Y450452D01*
X446306Y449141D01*
X447049Y448029D01*
X451344Y443734D01*
Y427562D01*
X450103Y427315D01*
X449325Y426795D01*
X448420Y426558D01*
X447516Y426795D01*
X446738Y427315D01*
X445220Y427617D01*
X441543D01*
X440837Y428673D01*
X441150Y429428D01*
Y431632D01*
X440307Y433668D01*
X438748Y435227D01*
X436712Y436070D01*
X434508D01*
X432472Y435227D01*
X430913Y433668D01*
X430070Y431632D01*
Y429548D01*
X429905Y429301D01*
X429866Y429106D01*
X429775Y428928D01*
X429402Y427617D01*
X426220D01*
X424702Y427315D01*
X423416Y426455D01*
X422556Y425168D01*
X422254Y423650D01*
Y406350D01*
X422556Y404833D01*
X423416Y403546D01*
X424702Y402686D01*
X425944Y402439D01*
Y398965D01*
X425905Y398905D01*
X425644Y397594D01*
Y385430D01*
X425905Y384119D01*
X426647Y383008D01*
X439461Y370194D01*
Y361959D01*
X442575D01*
Y290419D01*
X429546Y277391D01*
X429490Y277424D01*
X427190Y278040D01*
X424810D01*
X422511Y277424D01*
X420449Y276234D01*
X418766Y274550D01*
X417576Y272489D01*
X416960Y270190D01*
Y269756D01*
X415787Y269270D01*
X414896Y270161D01*
Y293600D01*
X416069Y294086D01*
X417609Y292546D01*
X417576Y292489D01*
X416960Y290190D01*
Y287810D01*
X417576Y285510D01*
X418766Y283449D01*
X420449Y281766D01*
X422511Y280576D01*
X424810Y279960D01*
X427190D01*
X429490Y280576D01*
X431551Y281766D01*
X433234Y283449D01*
X434424Y285510D01*
X435040Y287810D01*
Y290190D01*
X434424Y292489D01*
X433234Y294550D01*
X431551Y296234D01*
X429490Y297424D01*
X427190Y298040D01*
X424810D01*
X422511Y297424D01*
X422454Y297391D01*
X421058Y298786D01*
X421544Y299960D01*
X435040D01*
Y318040D01*
X419468D01*
Y432988D01*
X420524Y433694D01*
X421300Y433372D01*
X423504D01*
X425540Y434215D01*
X427099Y435774D01*
X427942Y437810D01*
Y439607D01*
X444776Y456441D01*
X446045Y455915D01*
D02*
G37*
G36*
X474725Y403206D02*
X475503Y402686D01*
X477020Y402384D01*
X483320D01*
X484838Y402686D01*
X485616Y403206D01*
X486520Y403442D01*
X487425Y403206D01*
X488203Y402686D01*
X489444Y402439D01*
Y401320D01*
X489705Y400009D01*
X490448Y398898D01*
X493242Y396104D01*
X493613Y395856D01*
X493227Y394586D01*
X448569D01*
X445496Y397659D01*
Y402439D01*
X446738Y402686D01*
X447516Y403206D01*
X448420Y403442D01*
X449325Y403206D01*
X450103Y402686D01*
X451620Y402384D01*
X457920D01*
X459438Y402686D01*
X460216Y403206D01*
X461120Y403442D01*
X462025Y403206D01*
X462803Y402686D01*
X464320Y402384D01*
X470620D01*
X472138Y402686D01*
X472916Y403206D01*
X473820Y403442D01*
X474725Y403206D01*
D02*
G37*
G36*
X641480Y430252D02*
Y412899D01*
X628501Y399920D01*
X605052D01*
X604566Y401093D01*
X604910Y401438D01*
X605653Y402549D01*
X605914Y403860D01*
Y425450D01*
X605653Y426761D01*
X604910Y427872D01*
X604566Y428217D01*
X605052Y429390D01*
X637540D01*
X638851Y429651D01*
X639962Y430394D01*
X640307Y430738D01*
X641480Y430252D01*
D02*
G37*
G36*
X502348Y386464D02*
X501698Y384896D01*
Y382692D01*
X502541Y380656D01*
X503812Y379385D01*
Y377738D01*
X503278Y377557D01*
X502542Y377417D01*
X500857Y378710D01*
X498780Y379570D01*
X496550Y379864D01*
X494321Y379570D01*
X492243Y378710D01*
X490459Y377341D01*
X489090Y375557D01*
X488230Y373479D01*
X487937Y371250D01*
Y366250D01*
X488230Y364021D01*
X489090Y361943D01*
X490459Y360159D01*
X492243Y358790D01*
X494321Y357930D01*
X496550Y357636D01*
X498780Y357930D01*
X500857Y358790D01*
X502542Y360084D01*
X503278Y359943D01*
X503812Y359762D01*
Y295738D01*
X503278Y295557D01*
X502542Y295416D01*
X500857Y296709D01*
X498780Y297570D01*
X496550Y297863D01*
X494321Y297570D01*
X492243Y296709D01*
X490459Y295340D01*
X489090Y293557D01*
X488230Y291479D01*
X487937Y289250D01*
Y284250D01*
X488230Y282020D01*
X489090Y279943D01*
X490459Y278159D01*
X492243Y276790D01*
X494321Y275930D01*
X496550Y275636D01*
X498780Y275930D01*
X500857Y276790D01*
X502542Y278083D01*
X503278Y277943D01*
X503812Y277761D01*
Y262260D01*
X504073Y260949D01*
X504816Y259838D01*
X519941Y244713D01*
X519455Y243539D01*
X515804D01*
X487921Y271422D01*
X486810Y272165D01*
X485499Y272425D01*
X436067D01*
X435541Y273696D01*
X448423Y286578D01*
X449166Y287689D01*
X449426Y289000D01*
Y361959D01*
X452541D01*
Y375039D01*
X444471D01*
X443903Y375748D01*
X444436Y376959D01*
X452541D01*
Y387734D01*
X501684D01*
X502348Y386464D01*
D02*
G37*
G36*
X483960Y202195D02*
Y188960D01*
X497456D01*
X497942Y187787D01*
X496207Y186052D01*
X476695D01*
X423842Y238904D01*
X424500Y240043D01*
X424810Y239960D01*
X427190D01*
X429490Y240576D01*
X431551Y241766D01*
X433234Y243449D01*
X434424Y245511D01*
X435040Y247810D01*
Y249319D01*
X436310Y249845D01*
X483960Y202195D01*
D02*
G37*
%LPC*%
G36*
X172298Y562816D02*
X170094D01*
X168058Y561973D01*
X166499Y560414D01*
X165656Y558378D01*
Y556581D01*
X162439Y553364D01*
X161697Y552253D01*
X161436Y550942D01*
Y545159D01*
X160165Y543888D01*
X159322Y541852D01*
Y539648D01*
X160165Y537612D01*
X161724Y536054D01*
X163760Y535210D01*
X165964D01*
X168000Y536054D01*
X169558Y537612D01*
X170402Y539648D01*
Y541852D01*
X169558Y543888D01*
X168288Y545159D01*
Y549523D01*
X170501Y551736D01*
X172298D01*
X174334Y552579D01*
X175893Y554138D01*
X176736Y556174D01*
Y558378D01*
X175893Y560414D01*
X174334Y561973D01*
X172298Y562816D01*
D02*
G37*
G36*
X557950Y379864D02*
X555721Y379570D01*
X553643Y378710D01*
X551859Y377341D01*
X550490Y375557D01*
X549630Y373479D01*
X549336Y371250D01*
Y366250D01*
X549630Y364021D01*
X550490Y361943D01*
X551859Y360159D01*
X553643Y358790D01*
X555721Y357930D01*
X557950Y357636D01*
X560179Y357930D01*
X562257Y358790D01*
X564041Y360159D01*
X565410Y361943D01*
X566270Y364021D01*
X566564Y366250D01*
Y371250D01*
X566270Y373479D01*
X565410Y375557D01*
X564041Y377341D01*
X562257Y378710D01*
X560179Y379570D01*
X557950Y379864D01*
D02*
G37*
G36*
Y297863D02*
X555721Y297570D01*
X553643Y296709D01*
X551859Y295340D01*
X550490Y293557D01*
X549630Y291479D01*
X549336Y289250D01*
Y284250D01*
X549630Y282020D01*
X550490Y279943D01*
X551859Y278159D01*
X553643Y276790D01*
X555721Y275930D01*
X557950Y275636D01*
X560179Y275930D01*
X562257Y276790D01*
X564041Y278159D01*
X565410Y279943D01*
X566270Y282020D01*
X566564Y284250D01*
Y289250D01*
X566270Y291479D01*
X565410Y293557D01*
X564041Y295340D01*
X562257Y296709D01*
X560179Y297570D01*
X557950Y297863D01*
D02*
G37*
G36*
X634728Y207540D02*
X631273D01*
X627884Y206866D01*
X624692Y205544D01*
X621819Y203624D01*
X619376Y201181D01*
X617456Y198308D01*
X616134Y195116D01*
X615460Y191728D01*
Y188272D01*
X616134Y184884D01*
X617456Y181692D01*
X619376Y178819D01*
X621819Y176376D01*
X624692Y174456D01*
X627884Y173134D01*
X631273Y172460D01*
X634728D01*
X638116Y173134D01*
X641308Y174456D01*
X644181Y176376D01*
X646624Y178819D01*
X648544Y181692D01*
X649866Y184884D01*
X650540Y188272D01*
Y191728D01*
X649866Y195116D01*
X648544Y198308D01*
X646624Y201181D01*
X644181Y203624D01*
X641308Y205544D01*
X638116Y206866D01*
X634728Y207540D01*
D02*
G37*
G36*
X419728Y206540D02*
X416273D01*
X412884Y205866D01*
X409692Y204544D01*
X406819Y202624D01*
X404376Y200181D01*
X402456Y197308D01*
X401134Y194116D01*
X400460Y190728D01*
Y187272D01*
X401134Y183884D01*
X402456Y180692D01*
X404376Y177819D01*
X406819Y175376D01*
X409692Y173456D01*
X412884Y172134D01*
X416273Y171460D01*
X419728D01*
X423116Y172134D01*
X426308Y173456D01*
X429181Y175376D01*
X431624Y177819D01*
X433544Y180692D01*
X434866Y183884D01*
X435540Y187272D01*
Y190728D01*
X434866Y194116D01*
X433544Y197308D01*
X431624Y200181D01*
X429181Y202624D01*
X426308Y204544D01*
X423116Y205866D01*
X419728Y206540D01*
D02*
G37*
%LPD*%
D17*
X90000Y485000D02*
Y835000D01*
X660745D01*
X660750Y834996D01*
Y165000D02*
Y834996D01*
X390000Y165000D02*
X660750D01*
X390000D02*
Y484000D01*
X389000Y485000D02*
X390000Y484000D01*
X90000Y485000D02*
X389000D01*
D18*
X642000Y610000D02*
D03*
Y630000D02*
D03*
Y649000D02*
D03*
Y667000D02*
D03*
D19*
X524001Y801000D02*
D03*
D20*
X492000D02*
D03*
D21*
X446001Y383499D02*
D03*
Y368499D02*
D03*
X597001Y383499D02*
D03*
Y368499D02*
D03*
X633001Y442499D02*
D03*
Y457499D02*
D03*
D22*
X594470Y415000D02*
D03*
X429370D02*
D03*
X442070D02*
D03*
X454770D02*
D03*
X467470D02*
D03*
X480170D02*
D03*
X492870D02*
D03*
X505570D02*
D03*
X518270D02*
D03*
X530970D02*
D03*
X543670D02*
D03*
X556370D02*
D03*
X569070D02*
D03*
X581770D02*
D03*
Y585000D02*
D03*
X569070D02*
D03*
X556370D02*
D03*
X543670D02*
D03*
X530970D02*
D03*
X518270D02*
D03*
X505570D02*
D03*
X492870D02*
D03*
X480170D02*
D03*
X467470D02*
D03*
X454770D02*
D03*
X442070D02*
D03*
X429370D02*
D03*
X594470D02*
D03*
D23*
X604470Y544450D02*
D03*
Y531750D02*
D03*
Y519050D02*
D03*
Y506350D02*
D03*
Y493650D02*
D03*
Y480950D02*
D03*
Y468250D02*
D03*
X604630Y455550D02*
D03*
X604470Y442850D02*
D03*
Y557150D02*
D03*
D24*
X504300Y490430D02*
D03*
D25*
X532499Y236999D02*
D03*
X517499D02*
D03*
D26*
X205000Y810500D02*
D03*
Y739500D02*
D03*
X590000Y810500D02*
D03*
Y739500D02*
D03*
D27*
X251750Y691500D02*
D03*
Y706000D02*
D03*
D28*
X448250Y790000D02*
D03*
X461750D02*
D03*
X452500Y740750D02*
D03*
X439000D02*
D03*
D29*
X293820Y818002D02*
D03*
D30*
X316820Y761002D02*
D03*
X293820D02*
D03*
X270820D02*
D03*
D44*
X124000Y691000D02*
D03*
X629000Y248000D02*
D03*
X124000Y807000D02*
D03*
X426000Y309000D02*
D03*
X124000Y574000D02*
D03*
D45*
Y671000D02*
D03*
Y651000D02*
D03*
Y631000D02*
D03*
X629000Y268000D02*
D03*
Y288000D02*
D03*
Y308000D02*
D03*
X124000Y787000D02*
D03*
Y767000D02*
D03*
Y747000D02*
D03*
X426000Y249000D02*
D03*
Y269000D02*
D03*
Y289000D02*
D03*
X553000Y198000D02*
D03*
X533000D02*
D03*
X513000D02*
D03*
X124000Y554000D02*
D03*
Y534000D02*
D03*
Y514000D02*
D03*
D46*
X493000Y198000D02*
D03*
D58*
X590042Y644798D02*
Y732536D01*
X590000Y736237D02*
X596646Y729591D01*
X547766Y778471D02*
X590000Y736237D01*
Y732578D02*
Y736237D01*
Y732578D02*
X590042Y732536D01*
X544107Y778471D02*
X590000Y732578D01*
X534416Y788162D02*
X544107Y778471D01*
X590000Y736237D02*
Y739500D01*
Y699558D02*
Y732578D01*
Y688890D02*
Y699558D01*
X629666Y610000D02*
X642000D01*
X624840D02*
X629666D01*
X524001Y788162D02*
X534416D01*
X524001Y793496D02*
Y801000D01*
Y788162D02*
Y793496D01*
X544107Y778471D02*
X547766D01*
X494245D02*
X544107D01*
X514350Y793496D02*
X524001D01*
X592200Y442850D02*
X592551Y442499D01*
X590550Y444500D02*
X592200Y442850D01*
X592551Y442499D02*
X618841D01*
X531920Y490430D02*
X532753Y481905D01*
X534670Y462280D01*
X461750Y784882D02*
Y790000D01*
Y769980D02*
Y784882D01*
X454151Y762382D02*
X461750Y769980D01*
X452500Y760730D02*
X454151Y762382D01*
X379603D02*
X381254Y760730D01*
X359600Y782384D02*
X379603Y762382D01*
X359600Y782384D02*
Y795000D01*
Y760920D02*
Y782384D01*
X288290Y776478D02*
X304038Y760730D01*
X454151Y762382D02*
X478156D01*
X379603D02*
X454151D01*
X371602D02*
X379603D01*
X452500Y755524D02*
Y760730D01*
Y740750D02*
Y755524D01*
X293878Y749242D02*
X296360Y746760D01*
X293820Y749300D02*
X293878Y749242D01*
X283708Y731510D02*
X298460D01*
X205000D02*
X283708D01*
X305400Y724570D02*
Y729488D01*
Y710000D02*
Y724570D01*
X293878Y749242D02*
Y762000D01*
Y741680D02*
Y749242D01*
X293820Y749300D02*
Y761002D01*
Y741622D02*
Y749300D01*
Y741068D02*
Y741622D01*
X293878Y741680D01*
X283708Y731510D02*
X293820Y741622D01*
X279400Y776478D02*
X288290D01*
X133478D02*
X279400D01*
X419862Y587756D02*
X429370D01*
X114046Y624586D02*
Y641046D01*
Y543954D02*
Y624586D01*
X328925Y606547D02*
X400758Y534714D01*
X307340Y590816D02*
X313436Y584720D01*
X303034Y595122D02*
X307340Y590816D01*
X262894Y666500D02*
X287000D01*
X259584D02*
X262894D01*
X242824Y683260D02*
Y706000D01*
Y646938D02*
Y683260D01*
X296672Y595122D02*
X303034D01*
X294640D02*
X296672D01*
X542572Y557304D02*
Y565432D01*
Y535589D02*
Y557304D01*
X553720Y568452D01*
X508508Y523240D02*
X542572Y557304D01*
X327152Y555244D02*
X375285Y507111D01*
X196088Y534000D02*
Y692658D01*
X441198Y801116D02*
X492000D01*
X621121Y629757D02*
X621364Y630000D01*
X620522Y629158D02*
X621121Y629757D01*
X605028Y645851D02*
X621121Y629757D01*
X205000Y801370D02*
X317500D01*
X205000D02*
Y810500D01*
Y799338D02*
Y801370D01*
X207286Y797052D02*
X214906Y789432D01*
X205000Y799338D02*
X207286Y797052D01*
X116586D02*
X207286D01*
X609304Y703538D02*
Y767906D01*
X448250Y784342D02*
Y790000D01*
Y772160D02*
Y784342D01*
X262382Y759968D02*
X270820D01*
X542056Y574568D02*
X543670D01*
X528574Y561086D02*
X542056Y574568D01*
X522478Y554990D02*
X528574Y561086D01*
X518270Y415000D02*
Y441082D01*
X501252Y458100D02*
X518270Y441082D01*
X465836Y460248D02*
Y509798D01*
X445897Y529737D02*
X465836Y509798D01*
X445897Y529737D02*
Y536575D01*
X406618Y575854D02*
X445897Y536575D01*
X406618Y575854D02*
Y652490D01*
X432400Y678272D01*
Y710000D01*
X306832Y528574D02*
Y581914D01*
Y528574D02*
X312420Y522986D01*
X328676D01*
X335280Y516382D01*
X234990Y632968D02*
X236992Y634970D01*
Y712226D01*
X260858Y691500D02*
Y713740D01*
X504300Y490430D02*
X531920D01*
X534670Y482092D02*
Y487680D01*
X531920Y490430D02*
X534670Y487680D01*
X433070Y427990D02*
X435610Y430530D01*
X429370Y415000D02*
X433070Y427990D01*
X426000Y269000D02*
X446001Y289000D01*
Y368499D01*
X592200Y442850D02*
X604470D01*
X585724Y379776D02*
X597001Y368499D01*
X590042Y644798D02*
X624840Y610000D01*
X164862Y550942D02*
X171196Y557276D01*
X164862Y540750D02*
Y550942D01*
X454770Y415000D02*
Y445153D01*
X449471Y450452D02*
X454770Y445153D01*
X449471Y450452D02*
Y501228D01*
X434340Y516360D02*
X449471Y501228D01*
X434340Y516360D02*
Y531968D01*
X368808Y597500D02*
X434340Y531968D01*
X335800Y666500D02*
Y681978D01*
X325120Y692658D02*
X335800Y681978D01*
X314960Y692658D02*
X325120D01*
X308092Y627380D02*
X328925Y606547D01*
X400758Y526500D02*
Y534714D01*
X308092Y627380D02*
Y685790D01*
X314960Y692658D01*
X400758Y526500D02*
X417830Y509427D01*
Y488188D02*
Y509427D01*
Y488188D02*
X433070Y472948D01*
X242824Y706000D02*
X251750D01*
X242824Y646938D02*
X294640Y595122D01*
X313436Y562102D02*
Y584720D01*
Y562102D02*
X351028Y524510D01*
Y500888D02*
Y524510D01*
X455930Y452882D02*
Y472440D01*
Y452882D02*
X468630Y440182D01*
X407000Y672846D02*
Y710000D01*
X399288Y665134D02*
X407000Y672846D01*
X399288Y577088D02*
Y665134D01*
Y577088D02*
X439867Y536509D01*
Y517967D02*
Y536509D01*
Y517967D02*
X457708Y500126D01*
X518414Y457454D02*
X530970Y444898D01*
Y415000D02*
Y444898D01*
X542572Y565432D02*
X545592Y568452D01*
X542572Y469420D02*
Y535589D01*
X480568Y523240D02*
X508508D01*
X344424Y510794D02*
Y519776D01*
X330200Y534000D02*
X344424Y519776D01*
X321000Y534000D02*
X330200D01*
X356200Y710000D02*
Y731520D01*
X367376Y742696D01*
X420116D01*
X430276Y732536D01*
X551329D01*
X573416Y710450D01*
Y646038D02*
Y710450D01*
Y646038D02*
X602488Y616966D01*
Y574040D02*
Y616966D01*
X599010Y570562D02*
X602488Y574040D01*
X565117Y570562D02*
X599010D01*
X557641Y563086D02*
X565117Y570562D01*
X557641Y535589D02*
Y563086D01*
X556370Y534319D02*
X557641Y535589D01*
X556370Y415000D02*
Y534319D01*
X381600Y624424D02*
Y710000D01*
X360680Y603504D02*
X381600Y624424D01*
X360680Y595884D02*
Y603504D01*
Y595884D02*
X428762Y527802D01*
Y505216D02*
Y527802D01*
Y505216D02*
X443610Y490368D01*
Y460121D02*
Y490368D01*
X422402Y438912D02*
X443610Y460121D01*
X543670Y397510D02*
Y415000D01*
X314452Y681482D02*
X316992Y684022D01*
X314452Y631444D02*
Y681482D01*
X324866Y625615D02*
Y676148D01*
Y625615D02*
X424193Y526288D01*
Y500689D02*
Y526288D01*
Y500689D02*
X439430Y485452D01*
Y470164D02*
Y485452D01*
X416042Y446776D02*
X439430Y470164D01*
X416042Y298958D02*
Y446776D01*
Y298958D02*
X426000Y289000D01*
X321056Y573786D02*
X335563Y559279D01*
X114046Y777046D02*
X124000Y787000D01*
X114046Y663702D02*
Y777046D01*
Y663702D02*
X116840Y660908D01*
X130810D01*
X135890Y655828D01*
Y641096D02*
Y655828D01*
X193000Y534000D02*
X196088D01*
Y692658D02*
X230124Y726694D01*
X259842D01*
X265176Y721360D01*
Y701040D02*
Y721360D01*
Y701040D02*
X285496Y680720D01*
X288544D01*
X298704Y670560D01*
Y645160D02*
Y670560D01*
X309405Y614138D02*
Y616237D01*
Y614138D02*
X388028Y535516D01*
Y520276D02*
Y535516D01*
Y520276D02*
X390652Y517652D01*
X582930Y643382D02*
X633984Y592328D01*
X582930Y643382D02*
Y708660D01*
X576580Y715010D02*
X582930Y708660D01*
X576580Y715010D02*
Y735584D01*
X541274Y770890D02*
X576580Y735584D01*
X106680Y589280D02*
Y787146D01*
X116586Y797052D01*
X316820Y761002D02*
Y777412D01*
X304800Y789432D02*
X316820Y777412D01*
X214906Y789432D02*
X304800D01*
X317500Y801370D02*
X328676Y812546D01*
X414020D01*
X424462Y802104D01*
Y782320D02*
Y802104D01*
Y782320D02*
X433860Y772922D01*
X438404D01*
X439000Y740750D02*
Y749300D01*
X492000Y801000D02*
Y801116D01*
Y817880D01*
X497334Y823214D01*
X541782D01*
X605028Y759968D01*
Y645851D02*
Y759968D01*
X621121Y629757D02*
X642000Y630000D01*
X435864Y795782D02*
X441198Y801116D01*
X621364Y630000D02*
X642000D01*
X551180Y460248D02*
Y542036D01*
X539496Y448564D02*
X551180Y460248D01*
X270820Y759968D02*
Y761002D01*
X442652Y766562D02*
X448250Y772160D01*
X425880Y766562D02*
X442652D01*
X410400Y782042D02*
X425880Y766562D01*
X410400Y782042D02*
Y795000D01*
X609304Y659456D02*
Y703538D01*
X619760Y713994D01*
X644398D01*
X442070Y573930D02*
Y585000D01*
Y573930D02*
X456438Y559562D01*
Y538988D02*
Y559562D01*
X549148Y611124D02*
X561594D01*
X529216Y631056D02*
X549148Y611124D01*
X529216Y631056D02*
Y660492D01*
X528268Y661440D02*
X529216Y660492D01*
X518160Y661440D02*
X528268D01*
X456160Y599440D02*
X518160Y661440D01*
X444610Y599440D02*
X456160D01*
X442070Y596900D02*
X444610Y599440D01*
X442070Y585000D02*
Y596900D01*
X243431Y737870D02*
X277876D01*
X218440Y762861D02*
X243431Y737870D01*
X191516Y762861D02*
X218440D01*
X182626Y753971D02*
X191516Y762861D01*
X182626Y606552D02*
Y753971D01*
X148336Y572262D02*
X182626Y606552D01*
X148336Y533250D02*
Y572262D01*
X542056Y574568D02*
X543670Y585000D01*
X193000Y508600D02*
X208026D01*
X219710Y520284D01*
Y657322D01*
X225074Y662686D01*
X467470Y585000D02*
Y596900D01*
X471026Y600456D01*
X478282D01*
X483362Y605536D01*
X434594Y650000D02*
X458230Y626364D01*
X427000Y650000D02*
X434594D01*
X495046Y678434D02*
X527812D01*
X530098Y676148D01*
X583946Y440690D02*
Y548894D01*
Y440690D02*
X591820Y432816D01*
X637540D01*
X640588Y435864D01*
Y449912D01*
X633001Y457499D02*
X640588Y449912D01*
X507238Y262260D02*
Y383794D01*
Y262260D02*
X532499Y236999D01*
X615696Y689610D02*
X624586Y680720D01*
Y667000D02*
Y680720D01*
Y667000D02*
X642000D01*
X590000Y787209D02*
Y810500D01*
Y787209D02*
X609304Y767906D01*
Y659456D02*
X619760Y649000D01*
X642000D01*
X505570Y415000D02*
Y426720D01*
X473202Y459088D02*
X505570Y426720D01*
X473202Y459088D02*
Y510032D01*
X450078Y533156D02*
X473202Y510032D01*
X450078Y533156D02*
Y539760D01*
X410972Y578866D02*
X450078Y539760D01*
X410972Y578866D02*
Y628142D01*
X418592Y635762D01*
X435356D01*
X451358Y619760D01*
X462280D01*
X464820Y622300D01*
Y678780D01*
X457800Y685800D02*
X464820Y678780D01*
X457800Y685800D02*
Y710000D01*
X208046Y528320D02*
Y554208D01*
X202233Y522508D02*
X208046Y528320D01*
X146040Y522508D02*
X202233D01*
X141976Y526572D02*
X146040Y522508D01*
X141976Y526572D02*
Y556024D01*
X124000Y574000D02*
X141976Y556024D01*
X124000Y747000D02*
X142401Y728599D01*
Y638456D02*
Y728599D01*
X134945Y631000D02*
X142401Y638456D01*
X124000Y631000D02*
X134945D01*
X269164Y658130D02*
X300098Y627196D01*
Y614579D02*
Y627196D01*
Y614579D02*
X304800Y609877D01*
X307143D01*
X383848Y533172D01*
Y516816D02*
Y533172D01*
Y516816D02*
X384292Y516372D01*
Y511292D02*
Y516372D01*
Y511292D02*
X406599D01*
X411470Y506421D01*
Y268742D02*
Y506421D01*
Y268742D02*
X421132Y259080D01*
X431920D01*
X493000Y198000D01*
X276098Y627347D02*
Y640080D01*
Y627347D02*
X301029Y602416D01*
X308682D01*
X375622Y535476D01*
Y516372D02*
Y535476D01*
Y516372D02*
X380112Y511883D01*
Y507112D02*
Y511883D01*
Y507112D02*
X398869D01*
X407290Y498691D01*
Y250612D02*
Y498691D01*
Y250612D02*
X475276Y182626D01*
X497626D01*
X513000Y198000D01*
X327152Y555244D02*
X329692Y557784D01*
X375285Y502931D02*
Y507111D01*
Y502931D02*
X394207D01*
X403108Y494030D01*
Y248148D02*
Y494030D01*
Y248148D02*
X473710Y177546D01*
X556006D01*
X618490Y240030D01*
Y257490D01*
X629000Y268000D01*
X124000Y554000D02*
X136896Y541104D01*
Y508010D02*
Y541104D01*
Y508010D02*
X150760Y494146D01*
X208974D01*
X231902Y517074D01*
Y531622D01*
X596646Y643020D02*
Y679958D01*
Y643020D02*
X629666Y610000D01*
X442070Y396240D02*
Y415000D01*
Y396240D02*
X447150Y391160D01*
X521510D01*
X527925Y384745D01*
X571181D01*
X582930Y396494D01*
X629920D01*
X644906Y411480D01*
Y463042D01*
X619575Y488373D02*
X644906Y463042D01*
X619575Y488373D02*
Y568521D01*
X630174Y579120D01*
X596646Y688848D02*
Y729591D01*
X478156Y762382D02*
X494245Y778471D01*
X366522Y767461D02*
X371602Y762382D01*
X483200Y675294D02*
Y710000D01*
Y675294D02*
X492760Y665734D01*
X514350D01*
X519684Y671068D01*
X609092Y574040D02*
Y596138D01*
X601427Y566375D02*
X609092Y574040D01*
X581802Y566375D02*
X601427D01*
X576130Y560704D02*
X581802Y566375D01*
X576130Y436568D02*
Y560704D01*
Y436568D02*
X584200Y428498D01*
X599440D01*
X602488Y425450D01*
Y403860D02*
Y425450D01*
X599694Y401066D02*
X602488Y403860D01*
X561848Y401066D02*
X599694D01*
X549910Y389128D02*
X561848Y401066D01*
X535686Y389128D02*
X549910D01*
X526288Y398526D02*
X535686Y389128D01*
X495664Y398526D02*
X526288D01*
X492870Y401320D02*
X495664Y398526D01*
X492870Y401320D02*
Y415000D01*
X240283Y543052D02*
X292100D01*
X224028Y559307D02*
X240283Y543052D01*
X224028Y559307D02*
Y648585D01*
X231768Y656326D01*
Y697872D01*
X224028Y705612D02*
X231768Y697872D01*
X306832Y508600D02*
X321000D01*
X302652Y512780D02*
X306832Y508600D01*
X302652Y512780D02*
Y573844D01*
X289469Y587027D02*
X302652Y573844D01*
X240759Y587027D02*
X289469D01*
X228346Y599440D02*
X240759Y587027D01*
X228346Y599440D02*
Y641604D01*
X230632Y643890D01*
X114046Y624586D02*
X121920Y616712D01*
X141986D01*
X174244Y648970D01*
X566420Y454660D02*
Y557276D01*
X543670Y574568D02*
Y585000D01*
X395732Y242608D02*
X407670Y230670D01*
X395732Y242608D02*
Y485394D01*
X391160Y489966D02*
X395732Y485394D01*
X148034Y489966D02*
X391160D01*
X124000Y514000D02*
X148034Y489966D01*
X242824Y683260D02*
X259584Y666500D01*
X345440Y746760D02*
X359600Y760920D01*
X296360Y746760D02*
X345440D01*
X288798Y574802D02*
X298471Y565129D01*
Y509896D02*
Y565129D01*
Y509896D02*
X310782Y497586D01*
X341884D01*
X627380Y528320D02*
Y566928D01*
X619465Y383499D02*
X619506Y383540D01*
X597001Y383499D02*
X619465D01*
X571006Y810500D02*
X590000D01*
X553212Y828294D02*
X571006Y810500D01*
X444998Y828294D02*
X553212D01*
X429504Y812800D02*
X444998Y828294D01*
X429504Y787400D02*
Y812800D01*
Y787400D02*
X432562Y784342D01*
X448250D01*
X447294Y760730D02*
X452500Y755524D01*
X381300Y760730D02*
X447294D01*
X124000Y767000D02*
X133478Y776478D01*
X279400D02*
X293878Y762000D01*
X521476Y629426D02*
Y655080D01*
X490728Y598678D02*
X521476Y629426D01*
X483870Y598678D02*
X490728D01*
X481838Y596646D02*
X483870Y598678D01*
X480170Y596646D02*
X481838D01*
X480170Y585000D02*
Y596646D01*
X395732Y727456D02*
X522224D01*
X530606Y719074D01*
Y688360D02*
Y719074D01*
Y688360D02*
X536458Y682508D01*
Y644642D02*
Y682508D01*
Y644642D02*
X543560Y637540D01*
X563880D01*
X571246Y630174D01*
Y608838D02*
Y630174D01*
X563880Y601472D02*
X571246Y608838D01*
X541294Y601472D02*
X563880D01*
X530870Y611896D02*
X541294Y601472D01*
X515620Y611896D02*
X530870D01*
X513070Y609346D02*
X515620Y611896D01*
X513070Y599296D02*
Y609346D01*
Y599296D02*
X518270Y594096D01*
Y585000D02*
Y594096D01*
X264276Y599324D02*
X281000D01*
X237664Y625936D02*
X264276Y599324D01*
X254000Y637794D02*
X296672Y595122D01*
X254000Y637794D02*
Y657606D01*
X262894Y666500D01*
X251750Y691500D02*
X260858D01*
X258318Y716280D02*
X260858Y713740D01*
X241046Y716280D02*
X258318D01*
X236992Y712226D02*
X241046Y716280D01*
X530970Y585000D02*
Y599076D01*
X524510Y605536D02*
X530970Y599076D01*
X519430Y605536D02*
X524510D01*
X435610Y386293D02*
Y391414D01*
Y386293D02*
X438404Y383499D01*
X446001D01*
X429370Y397895D02*
Y415000D01*
X429070Y397594D02*
X429370Y397895D01*
X429070Y385430D02*
Y397594D01*
Y385430D02*
X446001Y368499D01*
X124000Y747000D02*
X167418D01*
X187459Y767041D01*
X264781D01*
X270820Y761002D01*
X298460Y731510D02*
X305400Y724570D01*
X205000Y731510D02*
Y739500D01*
X429370Y585000D02*
Y587756D01*
X629000Y308000D02*
X639064Y297936D01*
Y281940D02*
Y297936D01*
X635254Y278130D02*
X639064Y281940D01*
X623902Y278130D02*
X635254D01*
X553000Y207228D02*
X623902Y278130D01*
X553000Y198000D02*
Y207228D01*
X597001Y319999D02*
X629000Y288000D01*
X597001Y319999D02*
Y368499D01*
X517499Y213501D02*
X533000Y198000D01*
X517499Y213501D02*
Y236999D01*
X485499Y269000D02*
X517499Y236999D01*
X426000Y269000D02*
X485499D01*
X500126Y779272D02*
X514350Y793496D01*
X467360Y779272D02*
X500126D01*
X461750Y784882D02*
X467360Y779272D01*
X114046Y641046D02*
X124000Y651000D01*
X114046Y543954D02*
X124000Y534000D01*
X618841Y442499D02*
X633001D01*
X618490Y442850D02*
X618841Y442499D01*
X604470Y442850D02*
X618490D01*
X293820Y741068D02*
X305400Y729488D01*
D59*
X427000Y624600D02*
D03*
Y650000D02*
D03*
X557000Y624600D02*
D03*
Y650000D02*
D03*
X193000Y508600D02*
D03*
Y534000D02*
D03*
X321000D02*
D03*
Y508600D02*
D03*
D60*
X287000Y666500D02*
D03*
X335800D02*
D03*
D61*
X410400Y795000D02*
D03*
X385000D02*
D03*
X359600D02*
D03*
D62*
X527250Y290000D02*
D03*
Y365500D02*
D03*
D63*
X496550Y286750D02*
D03*
Y368750D02*
D03*
X557950D02*
D03*
Y286750D02*
D03*
D64*
X544201Y697000D02*
D03*
X645801D02*
D03*
D65*
X457800Y710000D02*
D03*
X432400D02*
D03*
X280000D02*
D03*
X305400D02*
D03*
X330800D02*
D03*
X356200D02*
D03*
X381600D02*
D03*
X407000D02*
D03*
X483200D02*
D03*
X508600D02*
D03*
D66*
X633000Y190000D02*
D03*
X418000Y189000D02*
D03*
X638000Y510000D02*
D03*
X266000Y509250D02*
D03*
D67*
X501252Y458100D02*
D03*
X465836Y460248D02*
D03*
X306832Y581914D02*
D03*
X335280Y516382D02*
D03*
X534670Y462280D02*
D03*
Y482092D02*
D03*
X435610Y430530D02*
D03*
X585724Y379776D02*
D03*
X590000Y699558D02*
D03*
X171196Y557276D02*
D03*
X164862Y540750D02*
D03*
X368808Y597500D02*
D03*
X328925Y606547D02*
D03*
X400758Y526500D02*
D03*
X433070Y472948D02*
D03*
X351028Y500888D02*
D03*
X455930Y472440D02*
D03*
X468630Y440182D02*
D03*
X457708Y500126D02*
D03*
X518414Y457454D02*
D03*
X545592Y568452D02*
D03*
X542572Y535589D02*
D03*
Y469420D02*
D03*
X553720Y568452D02*
D03*
X480568Y523240D02*
D03*
X344424Y510794D02*
D03*
X422402Y438912D02*
D03*
X543670Y397510D02*
D03*
X316992Y684022D02*
D03*
X314452Y631444D02*
D03*
X324866Y676148D02*
D03*
X335563Y559279D02*
D03*
X321056Y573786D02*
D03*
X135890Y641096D02*
D03*
X298704Y645160D02*
D03*
X309405Y616237D02*
D03*
X390652Y517652D02*
D03*
X633984Y592328D02*
D03*
X541274Y770890D02*
D03*
X106680Y589280D02*
D03*
X438404Y772922D02*
D03*
X439000Y749300D02*
D03*
X435864Y795782D02*
D03*
X620522Y629158D02*
D03*
X551180Y542036D02*
D03*
X539496Y448564D02*
D03*
X262382Y759968D02*
D03*
X644398Y713994D02*
D03*
X456438Y538988D02*
D03*
X561594Y611124D02*
D03*
X277876Y737870D02*
D03*
X148336Y533250D02*
D03*
X522478Y554990D02*
D03*
X225074Y662686D02*
D03*
X483362Y605536D02*
D03*
X458230Y626364D02*
D03*
X530098Y676148D02*
D03*
X583946Y548894D02*
D03*
X507238Y383794D02*
D03*
X615696Y689610D02*
D03*
X208046Y554208D02*
D03*
X269164Y658130D02*
D03*
X276098Y640080D02*
D03*
X329692Y557784D02*
D03*
X231902Y531622D02*
D03*
X596646Y679958D02*
D03*
X630174Y579120D02*
D03*
X596646Y688848D02*
D03*
X366522Y767461D02*
D03*
X519684Y671068D02*
D03*
X609092Y596138D02*
D03*
X292100Y543052D02*
D03*
X230632Y643890D02*
D03*
X174244Y648970D02*
D03*
X590000Y688890D02*
D03*
X590550Y444500D02*
D03*
X566420Y557276D02*
D03*
X528574Y561086D02*
D03*
X407670Y230670D02*
D03*
X288798Y574802D02*
D03*
X341884Y497586D02*
D03*
X627380Y566928D02*
D03*
Y528320D02*
D03*
X619506Y383540D02*
D03*
X381254Y760730D02*
D03*
X381300D02*
D03*
X304038D02*
D03*
X521476Y655080D02*
D03*
X395732Y727456D02*
D03*
X281000Y599324D02*
D03*
X237664Y625936D02*
D03*
X307340Y590816D02*
D03*
X234990Y632968D02*
D03*
X519430Y605536D02*
D03*
X419862Y587756D02*
D03*
X435610Y391414D02*
D03*
D68*
X495046Y678434D02*
D03*
X224028Y705612D02*
D03*
X566420Y454660D02*
D03*
M02*
