G04*
G04 #@! TF.GenerationSoftware,Altium Limited,CircuitMaker,2.0.3 (2.0.3.51)*
G04*
G04 Layer_Color=25308*
%FSLAX44Y44*%
%MOMM*%
G71*
G04*
G04 #@! TF.SameCoordinates,E9E563F1-332F-4466-8196-8310A66FFE87*
G04*
G04*
G04 #@! TF.FilePolarity,Positive*
G04*
G01*
G75*
%ADD12C,0.2540*%
%ADD13C,0.1000*%
%ADD14C,0.0500*%
%ADD15C,0.0100*%
%ADD16C,0.1270*%
G04:AMPARAMS|DCode=17|XSize=5mm|YSize=5mm|CornerRadius=0.25mm|HoleSize=0mm|Usage=FLASHONLY|Rotation=90.000|XOffset=0mm|YOffset=0mm|HoleType=Round|Shape=RoundedRectangle|*
%AMROUNDEDRECTD17*
21,1,5.0000,4.5000,0,0,90.0*
21,1,4.5000,5.0000,0,0,90.0*
1,1,0.5000,2.2500,2.2500*
1,1,0.5000,2.2500,-2.2500*
1,1,0.5000,-2.2500,-2.2500*
1,1,0.5000,-2.2500,2.2500*
%
%ADD17ROUNDEDRECTD17*%
G04:AMPARAMS|DCode=18|XSize=2mm|YSize=0.9mm|CornerRadius=0.135mm|HoleSize=0mm|Usage=FLASHONLY|Rotation=180.000|XOffset=0mm|YOffset=0mm|HoleType=Round|Shape=RoundedRectangle|*
%AMROUNDEDRECTD18*
21,1,2.0000,0.6300,0,0,180.0*
21,1,1.7300,0.9000,0,0,180.0*
1,1,0.2700,-0.8650,0.3150*
1,1,0.2700,0.8650,0.3150*
1,1,0.2700,0.8650,-0.3150*
1,1,0.2700,-0.8650,-0.3150*
%
%ADD18ROUNDEDRECTD18*%
G04:AMPARAMS|DCode=19|XSize=2mm|YSize=0.9mm|CornerRadius=0.135mm|HoleSize=0mm|Usage=FLASHONLY|Rotation=90.000|XOffset=0mm|YOffset=0mm|HoleType=Round|Shape=RoundedRectangle|*
%AMROUNDEDRECTD19*
21,1,2.0000,0.6300,0,0,90.0*
21,1,1.7300,0.9000,0,0,90.0*
1,1,0.2700,0.3150,0.8650*
1,1,0.2700,0.3150,-0.8650*
1,1,0.2700,-0.3150,-0.8650*
1,1,0.2700,-0.3150,0.8650*
%
%ADD19ROUNDEDRECTD19*%
%ADD20R,2.0000X4.0000*%
%ADD21R,3.2000X2.1000*%
%ADD22R,0.9000X2.1000*%
%ADD23R,1.3000X1.1500*%
%ADD24R,0.8500X0.9500*%
%ADD25R,1.1000X0.9500*%
%ADD48C,1.5240*%
%ADD49C,2.0000*%
%ADD50O,1.5240X2.1590*%
%ADD51C,1.5000*%
%ADD52C,2.0320*%
%ADD53O,2.1590X1.5240*%
%ADD54O,1.2000X1.7000*%
%ADD55O,0.9500X1.3500*%
%ADD56O,2.0320X2.7940*%
D12*
X535000Y488700D02*
X662000D01*
X535000D02*
Y526800D01*
X662000D01*
Y488700D02*
Y526800D01*
X529515Y172593D02*
Y177672D01*
Y175133D01*
X542211D01*
X544750Y177672D01*
Y180211D01*
X542211Y182750D01*
X544750Y167515D02*
Y162437D01*
Y164976D01*
X529515D01*
X532054Y167515D01*
D13*
X173500Y568500D02*
X256500D01*
X173500Y641500D02*
X183500Y651500D01*
X173500Y568500D02*
Y641500D01*
X256500Y568500D02*
Y641500D01*
X246500Y651500D02*
X256500Y641500D01*
X183500Y651500D02*
X246500D01*
X337320Y606002D02*
Y643002D01*
X270320Y606002D02*
Y643002D01*
X337320D01*
X270320Y606002D02*
X337320D01*
X558500Y568500D02*
X641500D01*
X558500Y641500D02*
X568500Y651500D01*
X558500Y568500D02*
Y641500D01*
X641500Y568500D02*
Y641500D01*
X631500Y651500D02*
X641500Y641500D01*
X568500Y651500D02*
X631500D01*
X473500Y620500D02*
Y629500D01*
X456500Y620500D02*
Y629500D01*
Y620500D02*
X473500D01*
X456500Y629500D02*
X473500D01*
X447250Y571250D02*
Y580250D01*
X464250Y571250D02*
Y580250D01*
X447250D02*
X464250D01*
X447250Y571250D02*
X464250D01*
X266500Y525000D02*
Y542500D01*
X257000Y525000D02*
Y542500D01*
X266500D01*
X257000Y525000D02*
X266500D01*
X132250Y442750D02*
Y453250D01*
X137750Y442750D02*
Y453250D01*
X132250D02*
X137750D01*
X132250Y442750D02*
X137750D01*
X183750Y366750D02*
Y377250D01*
X178250Y366750D02*
Y377250D01*
Y366750D02*
X183750D01*
X178250Y377250D02*
X183750D01*
X182250Y626000D02*
Y643500D01*
X172750Y626000D02*
Y643500D01*
Y626000D02*
X182250D01*
X172750Y643500D02*
X182250D01*
X191750Y385750D02*
Y396250D01*
X186250Y385750D02*
Y396250D01*
Y385750D02*
X191750D01*
X186250Y396250D02*
X191750D01*
X460750Y374750D02*
X478250D01*
X460750Y384250D02*
X478250D01*
X460750Y374750D02*
Y384250D01*
X478250Y374750D02*
Y384250D01*
X508500Y493000D02*
X525500D01*
X508500Y502000D02*
X525500D01*
X508500Y493000D02*
Y502000D01*
X525500Y493000D02*
Y502000D01*
X532250Y359750D02*
Y377250D01*
X541749Y359750D02*
Y377250D01*
X532250D02*
X541749D01*
X532250Y359750D02*
X541749D01*
X548500Y462000D02*
Y479000D01*
X539500Y462000D02*
Y479000D01*
Y462000D02*
X548500D01*
X539500Y479000D02*
X548500D01*
X561000Y398250D02*
X578000D01*
X561000Y389250D02*
X578000D01*
Y398250D01*
X561000Y389250D02*
Y398250D01*
X603750Y394250D02*
Y411750D01*
X594250Y394250D02*
Y411750D01*
Y394250D02*
X603750D01*
X594250Y411750D02*
X603750D01*
X184750Y336750D02*
Y347250D01*
X179250Y336750D02*
Y347250D01*
Y336750D02*
X184750D01*
X179250Y347250D02*
X184750D01*
X264250Y441250D02*
X281750D01*
X264250Y450750D02*
X281750D01*
X264250Y441250D02*
Y450750D01*
X281750Y441250D02*
Y450750D01*
X274250Y625500D02*
Y659500D01*
X292250Y625500D02*
Y659500D01*
X274250D02*
X292250D01*
X274250Y625500D02*
X292250D01*
X345750Y406000D02*
X379750D01*
X345750Y424000D02*
X379750D01*
X345750Y406000D02*
Y424000D01*
X379750Y406000D02*
Y424000D01*
X441750Y379000D02*
Y396500D01*
X451250Y379000D02*
Y396500D01*
X441750D02*
X451250D01*
X441750Y379000D02*
X451250D01*
X487000Y595000D02*
X553000D01*
X487000Y657000D02*
X553000D01*
Y595000D02*
Y657000D01*
X487000Y595000D02*
Y657000D01*
X500500Y395500D02*
Y413000D01*
X510000Y395500D02*
Y413000D01*
X500500D02*
X510000D01*
X500500Y395500D02*
X510000D01*
X371250Y569000D02*
Y586000D01*
X362250Y569000D02*
Y586000D01*
Y569000D02*
X371250D01*
X362250Y586000D02*
X371250D01*
X379500Y434250D02*
Y498750D01*
X413000Y434250D02*
Y498750D01*
X379500D02*
X413000D01*
X379500Y434250D02*
X413000D01*
X424749Y565750D02*
Y583250D01*
X434250Y565750D02*
Y583250D01*
X424749D02*
X434250D01*
X424749Y565750D02*
X434250D01*
X473500Y498250D02*
Y515750D01*
X464000Y498250D02*
Y515750D01*
Y498250D02*
X473500D01*
X464000Y515750D02*
X473500D01*
X562000Y228999D02*
Y331000D01*
X509000Y228999D02*
Y331000D01*
X562000D01*
X509000Y228999D02*
X562000D01*
X215000Y605000D02*
Y615000D01*
X210000Y610000D02*
X220000D01*
X298820Y624502D02*
X308820D01*
X303820Y619502D02*
Y629502D01*
X600000Y605000D02*
Y615000D01*
X595000Y610000D02*
X605000D01*
X654000Y191250D02*
Y227250D01*
X638000Y191250D02*
X654000D01*
X638000D02*
Y227250D01*
X654000D01*
X460500Y625000D02*
X469500D01*
X465000Y620500D02*
Y629500D01*
X451250Y575750D02*
X460250D01*
X455750Y571250D02*
Y580250D01*
X257000Y533750D02*
X266500D01*
X261750Y529000D02*
Y538500D01*
X132250Y448000D02*
X137750D01*
X135000Y445250D02*
Y450750D01*
X178250Y372000D02*
X183750D01*
X181000Y369250D02*
Y374750D01*
X172750Y634750D02*
X182250D01*
X177500Y630000D02*
Y639500D01*
X186250Y391000D02*
X191750D01*
X189000Y388250D02*
Y393750D01*
X215500Y648000D02*
X251500D01*
X215500Y632000D02*
Y648000D01*
Y632000D02*
X251500D01*
Y648000D01*
X469500Y374750D02*
Y384250D01*
X464750Y379500D02*
X474250D01*
X517000Y493000D02*
Y502000D01*
X512500Y497500D02*
X521500D01*
X532250Y368500D02*
X541749D01*
X537000Y363750D02*
Y373250D01*
X539500Y470500D02*
X548500D01*
X544000Y466000D02*
Y475000D01*
X569500Y389250D02*
Y398250D01*
X565000Y393750D02*
X574000D01*
X594250Y403000D02*
X603750D01*
X599000Y398250D02*
Y407750D01*
X179250Y342000D02*
X184750D01*
X182000Y339250D02*
Y344750D01*
X273000Y441250D02*
Y450750D01*
X268250Y446000D02*
X277750D01*
X278250Y642500D02*
X288250D01*
X283250Y637500D02*
Y647500D01*
X362750Y410000D02*
Y420000D01*
X357750Y415000D02*
X367750D01*
X441750Y387750D02*
X451250D01*
X446500Y383000D02*
Y392500D01*
X440500Y369500D02*
X476500D01*
X440500Y353500D02*
Y369500D01*
Y353500D02*
X476500D01*
Y369500D01*
X520000Y610000D02*
Y620000D01*
X515000Y615000D02*
X525000D01*
X500500Y404250D02*
X510000D01*
X505250Y399500D02*
Y409000D01*
X545250Y386750D02*
Y422750D01*
X529250D02*
X545250D01*
X529250Y386750D02*
Y422750D01*
Y386750D02*
X545250D01*
X362250Y577500D02*
X371250D01*
X366750Y573000D02*
Y582000D01*
X391250Y466500D02*
X401250D01*
X396250Y461500D02*
Y471500D01*
X424749Y574500D02*
X434250D01*
X429500Y569750D02*
Y579250D01*
X464000Y507000D02*
X473500D01*
X468750Y502250D02*
Y511750D01*
X530250Y280249D02*
X540250D01*
X535250Y275250D02*
Y285250D01*
X335000Y615249D02*
Y651249D01*
Y615249D02*
X351000D01*
Y651249D01*
X335000D02*
X351000D01*
X569500Y361750D02*
X605500D01*
Y377750D01*
X569500D02*
X605500D01*
X569500Y361750D02*
Y377750D01*
X483500Y354000D02*
X519500D01*
Y370000D01*
X483500D02*
X519500D01*
X483500Y354000D02*
Y370000D01*
D14*
X502248Y217747D02*
X572248D01*
X502248Y107748D02*
Y217747D01*
Y107748D02*
X572248D01*
Y217747D01*
X210499Y560245D02*
X219499D01*
Y589245D01*
X210499Y560245D02*
Y589245D01*
X219500Y630500D02*
Y659500D01*
X210500Y630500D02*
Y659500D01*
X219500D01*
X595499Y560245D02*
X604499D01*
Y589245D01*
X595499Y560245D02*
Y589245D01*
X604500Y630500D02*
Y659500D01*
X595500Y630500D02*
Y659500D01*
X604500D01*
X572248Y107748D02*
Y217747D01*
X502248Y107748D02*
X572248D01*
X502248D02*
Y217747D01*
X572248D01*
X257500Y553500D02*
Y666500D01*
X172500Y553500D02*
X257500D01*
X172500Y666500D02*
X257500D01*
X172500Y553500D02*
Y666500D01*
X338320Y584502D02*
Y664502D01*
X269320Y584502D02*
Y664502D01*
X338320D01*
X269320Y584502D02*
X338320D01*
X642500Y553500D02*
Y666500D01*
X557500Y553500D02*
X642500D01*
X557500Y666500D02*
X642500D01*
X557500Y553500D02*
Y666500D01*
X478500Y617500D02*
Y632500D01*
X451500Y617500D02*
Y632500D01*
Y617500D02*
X478500D01*
X451500Y632500D02*
X478500D01*
X442250Y568250D02*
Y583250D01*
X469250Y568250D02*
Y583250D01*
X442250D02*
X469250D01*
X442250Y568250D02*
X469250D01*
X272250Y516750D02*
Y550750D01*
X251250Y516750D02*
Y550750D01*
X272250D01*
X251250Y516750D02*
X272250D01*
X131000Y440500D02*
Y455500D01*
X139000Y440500D02*
Y455500D01*
X131000D02*
X139000D01*
X131000Y440500D02*
X139000D01*
X185000Y364500D02*
Y379500D01*
X177000Y364500D02*
Y379500D01*
Y364500D02*
X185000D01*
X177000Y379500D02*
X185000D01*
X183500Y623750D02*
Y645750D01*
X171500Y623750D02*
Y645750D01*
Y623750D02*
X183500D01*
X171500Y645750D02*
X183500D01*
X193000Y383500D02*
Y398500D01*
X185000Y383500D02*
Y398500D01*
Y383500D02*
X193000D01*
X185000Y398500D02*
X193000D01*
X458500Y373500D02*
X480500D01*
X458500Y385500D02*
X480500D01*
X458500Y373500D02*
Y385500D01*
X480500Y373500D02*
Y385500D01*
X506500Y492000D02*
X527500D01*
X506500Y503000D02*
X527500D01*
X506500Y492000D02*
Y503000D01*
X527500Y492000D02*
Y503000D01*
X531000Y357500D02*
Y379500D01*
X543000Y357500D02*
Y379500D01*
X531000D02*
X543000D01*
X531000Y357500D02*
X543000D01*
X549500Y460000D02*
Y481000D01*
X538500Y460000D02*
Y481000D01*
Y460000D02*
X549500D01*
X538500Y481000D02*
X549500D01*
X559000Y399250D02*
X580000D01*
X559000Y388250D02*
X580000D01*
Y399250D01*
X559000Y388250D02*
Y399250D01*
X605000Y392000D02*
Y414000D01*
X593000Y392000D02*
Y414000D01*
Y392000D02*
X605000D01*
X593000Y414000D02*
X605000D01*
X186000Y334500D02*
Y349500D01*
X178000Y334500D02*
Y349500D01*
Y334500D02*
X186000D01*
X178000Y349500D02*
X186000D01*
X262000Y440000D02*
X284000D01*
X262000Y452000D02*
X284000D01*
X262000Y440000D02*
Y452000D01*
X284000Y440000D02*
Y452000D01*
X273250Y623000D02*
Y662000D01*
X293250Y623000D02*
Y662000D01*
X273250D02*
X293250D01*
X273250Y623000D02*
X293250D01*
X339750Y403500D02*
X385750D01*
X339750Y426500D02*
X385750D01*
X339750Y403500D02*
Y426500D01*
X385750Y403500D02*
Y426500D01*
X440500Y376750D02*
Y398750D01*
X452500Y376750D02*
Y398750D01*
X440500D02*
X452500D01*
X440500Y376750D02*
X452500D01*
X484500Y559500D02*
X555500D01*
X484500Y670500D02*
X555500D01*
Y559500D02*
Y670500D01*
X484500Y559500D02*
Y670500D01*
X494750Y387250D02*
Y421250D01*
X515750Y387250D02*
Y421250D01*
X494750D02*
X515750D01*
X494750Y387250D02*
X515750D01*
X372250Y567000D02*
Y588000D01*
X361250Y567000D02*
Y588000D01*
Y567000D02*
X372250D01*
X361250Y588000D02*
X372250D01*
X375250Y428000D02*
Y505000D01*
X417250Y428000D02*
Y505000D01*
X375250D02*
X417250D01*
X375250Y428000D02*
X417250D01*
X423500Y563500D02*
Y585500D01*
X435500Y563500D02*
Y585500D01*
X423500D02*
X435500D01*
X423500Y563500D02*
X435500D01*
X474750Y496000D02*
Y518000D01*
X462750Y496000D02*
Y518000D01*
Y496000D02*
X474750D01*
X462750Y518000D02*
X474750D01*
X582500Y226499D02*
Y333499D01*
X488500Y226499D02*
Y333499D01*
X582500D01*
X488500Y226499D02*
X582500D01*
X498750Y220250D02*
X576250D01*
X498750Y105250D02*
Y220250D01*
Y105250D02*
X576250D01*
Y220250D01*
X532250Y162750D02*
X542250D01*
X537250Y157750D02*
Y167750D01*
D15*
X219499Y589245D02*
G03*
X210499Y589245I-4500J0D01*
G01*
X210500Y630500D02*
G03*
X219500Y630500I4500J0D01*
G01*
X250000Y610000D02*
G03*
X250000Y610000I-35000J0D01*
G01*
X255000D02*
G03*
X255000Y610000I-40000J0D01*
G01*
X604499Y589245D02*
G03*
X595499Y589245I-4500J0D01*
G01*
X595500Y630500D02*
G03*
X604500Y630500I4500J0D01*
G01*
X635000Y610000D02*
G03*
X635000Y610000I-35000J0D01*
G01*
X640000D02*
G03*
X640000Y610000I-40000J0D01*
G01*
X210499Y589245D02*
X219499D01*
X210500Y630500D02*
X219500D01*
X595499Y589245D02*
X604499D01*
X595500Y630500D02*
X604500D01*
D16*
X592150Y507750D02*
X604850D01*
X598500Y501400D02*
Y514100D01*
D17*
X504300Y328430D02*
D03*
D18*
X604470Y395150D02*
D03*
Y280850D02*
D03*
X604630Y293550D02*
D03*
X604470Y306250D02*
D03*
Y318950D02*
D03*
Y331650D02*
D03*
Y344350D02*
D03*
Y357050D02*
D03*
Y369750D02*
D03*
Y382450D02*
D03*
D19*
X594470Y423000D02*
D03*
X429370D02*
D03*
X442070D02*
D03*
X454770D02*
D03*
X467470D02*
D03*
X480170D02*
D03*
X492870D02*
D03*
X505570D02*
D03*
X518270D02*
D03*
X530970D02*
D03*
X543670D02*
D03*
X556370D02*
D03*
X569070D02*
D03*
X581770D02*
D03*
Y253000D02*
D03*
X569070D02*
D03*
X556370D02*
D03*
X543670D02*
D03*
X530970D02*
D03*
X518270D02*
D03*
X505570D02*
D03*
X492870D02*
D03*
X480170D02*
D03*
X467470D02*
D03*
X454770D02*
D03*
X442070D02*
D03*
X429370D02*
D03*
X594470D02*
D03*
D20*
X215000Y574500D02*
D03*
Y645500D02*
D03*
X600000Y574500D02*
D03*
Y645500D02*
D03*
D21*
X303820Y653002D02*
D03*
D22*
X326820Y596002D02*
D03*
X303820D02*
D03*
X280820D02*
D03*
D23*
X646000Y220500D02*
D03*
Y198000D02*
D03*
D24*
X471750Y625000D02*
D03*
X458250D02*
D03*
X449000Y575750D02*
D03*
X462500D02*
D03*
D25*
X261750Y541000D02*
D03*
Y526500D02*
D03*
D48*
X135000Y350000D02*
D03*
Y375000D02*
D03*
Y400000D02*
D03*
Y425000D02*
D03*
X130000Y640000D02*
D03*
Y615000D02*
D03*
Y590000D02*
D03*
Y565000D02*
D03*
X440000Y60000D02*
D03*
Y85000D02*
D03*
Y110000D02*
D03*
Y135000D02*
D03*
X575000Y65000D02*
D03*
X550000D02*
D03*
X525000D02*
D03*
X500000D02*
D03*
X635000Y60000D02*
D03*
Y85000D02*
D03*
Y110000D02*
D03*
Y135000D02*
D03*
D49*
X369600Y630000D02*
D03*
X395000D02*
D03*
X420400D02*
D03*
D50*
X480650Y467500D02*
D03*
X455250D02*
D03*
D51*
X297000Y501500D02*
D03*
X345800D02*
D03*
D52*
X649300Y507750D02*
D03*
X547700D02*
D03*
D53*
X184500Y581250D02*
D03*
Y555850D02*
D03*
D54*
X567950Y121750D02*
D03*
Y203750D02*
D03*
X506550D02*
D03*
Y121750D02*
D03*
D55*
X537250Y200500D02*
D03*
Y125000D02*
D03*
D56*
X518600Y545000D02*
D03*
X493200D02*
D03*
X417000D02*
D03*
X391600D02*
D03*
X366200D02*
D03*
X340800D02*
D03*
X315400D02*
D03*
X290000D02*
D03*
X442400D02*
D03*
X467800D02*
D03*
M02*
