G04*
G04 #@! TF.GenerationSoftware,Altium Limited,CircuitMaker,2.0.3 (51)*
G04*
G04 Layer_Color=13362661*
%FSLAX25Y25*%
%MOIN*%
G70*
G04*
G04 #@! TF.SameCoordinates,F5335DBB-8355-4FF0-A9BA-B13CC3796949*
G04*
G04*
G04 #@! TF.FilePolarity,Positive*
G04*
G01*
G75*
%ADD12C,0.01000*%
%ADD14C,0.04724*%
%ADD95C,0.00197*%
D12*
X210630Y192402D02*
X260630D01*
X210630D02*
Y207402D01*
X260630D01*
Y192402D02*
Y207402D01*
X208470Y67950D02*
Y69950D01*
Y68950D01*
X213469D01*
X214469Y69950D01*
Y70949D01*
X213469Y71949D01*
X214469Y65951D02*
Y63951D01*
Y64951D01*
X208470D01*
X209470Y65951D01*
D14*
X266435Y263780D02*
G03*
X264073Y266142I-2362J-0D01*
G01*
X266435Y263780D02*
G03*
X264073Y266142I-2362J-0D01*
G01*
X264075Y-2362D02*
G03*
X266437Y0I0J2362D01*
G01*
X264075Y-2362D02*
G03*
X266437Y0I0J2362D01*
G01*
X39370Y266142D02*
G03*
X37008Y263779I0J-2362D01*
G01*
X39370Y266142D02*
G03*
X37008Y263779I0J-2362D01*
G01*
X155118Y0D02*
G03*
X157480Y-2362I2362J0D01*
G01*
X37008Y125984D02*
G03*
X39370Y123622I2362J0D01*
G01*
X37008Y125984D02*
G03*
X39370Y123622I2362J0D01*
G01*
X155118Y0D02*
G03*
X157480Y-2362I2362J0D01*
G01*
X266435Y263780D02*
X266437Y0D01*
X157480Y-2362D02*
X264075D01*
X155118Y0D02*
Y123622D01*
X39370Y266142D02*
X264073D01*
X37008Y125984D02*
Y263780D01*
X39370Y123622D02*
X155118D01*
D95*
X197735Y85727D02*
X225294D01*
X197735Y42420D02*
Y85727D01*
Y42420D02*
X225294D01*
Y85727D01*
M02*
