G04*
G04 #@! TF.GenerationSoftware,Altium Limited,CircuitMaker,2.0.3 (2.0.3.51)*
G04*
G04 Layer_Color=13362661*
%FSLAX25Y25*%
%MOIN*%
G70*
G04*
G04 #@! TF.SameCoordinates,36100E47-EE27-4898-87D7-6225316A82EF*
G04*
G04*
G04 #@! TF.FilePolarity,Positive*
G04*
G01*
G75*
%ADD13C,0.01000*%
%ADD15C,0.04724*%
%ADD100C,0.00197*%
D13*
X206693Y257362D02*
X256693D01*
X206693D02*
Y272362D01*
X256693D01*
Y257362D02*
Y272362D01*
X204533Y132911D02*
Y134910D01*
Y133910D01*
X209532D01*
X210531Y134910D01*
Y135910D01*
X209532Y136909D01*
X210531Y130911D02*
Y128912D01*
Y129912D01*
X204533D01*
X205533Y130911D01*
D15*
X262498Y328740D02*
G03*
X260136Y331102I-2362J-0D01*
G01*
X262498Y328740D02*
G03*
X260136Y331102I-2362J-0D01*
G01*
X260138Y62598D02*
G03*
X262500Y64961I0J2362D01*
G01*
X260138Y62598D02*
G03*
X262500Y64961I0J2362D01*
G01*
X35433Y331102D02*
G03*
X33071Y328740I0J-2362D01*
G01*
X35433Y331102D02*
G03*
X33071Y328740I0J-2362D01*
G01*
X151181Y64961D02*
G03*
X153543Y62598I2362J0D01*
G01*
X151181Y64961D02*
G03*
X153543Y62598I2362J0D01*
G01*
X33071Y191339D02*
G03*
X35433Y188976I2362J0D01*
G01*
X33071Y191339D02*
G03*
X35433Y188976I2362J0D01*
G01*
X262498Y328740D02*
X262500Y64961D01*
X153543Y62598D02*
X260138D01*
X35433Y331102D02*
X260136D01*
X33071Y191339D02*
Y328740D01*
X35433Y188976D02*
X151181D01*
Y64961D02*
Y188976D01*
D100*
X193798Y150688D02*
X221357D01*
X193798Y107381D02*
Y150688D01*
Y107381D02*
X221357D01*
Y150688D01*
M02*
