G04*
G04 #@! TF.GenerationSoftware,Altium Limited,CircuitMaker,2.0.3 (2.0.3.51)*
G04*
G04 Layer_Color=13813960*
%FSLAX25Y25*%
%MOIN*%
G70*
G04*
G04 #@! TF.SameCoordinates,36100E47-EE27-4898-87D7-6225316A82EF*
G04*
G04*
G04 #@! TF.FilePolarity,Positive*
G04*
G01*
G75*
%ADD11C,0.00787*%
%ADD12C,0.00984*%
%ADD13C,0.01000*%
%ADD14C,0.00394*%
%ADD15C,0.04724*%
%ADD98C,0.01968*%
%ADD99C,0.00600*%
D11*
X104626Y316535D02*
Y319291D01*
X110531Y316535D02*
Y319291D01*
X137500Y225197D02*
X140256D01*
X137500Y231496D02*
X140256D01*
X213780Y299213D02*
Y300787D01*
X187795Y299213D02*
Y300787D01*
Y299213D02*
X213780D01*
X145177Y240551D02*
Y256693D01*
X158957Y240551D02*
Y256693D01*
X215748Y155118D02*
Y195275D01*
X198032Y155118D02*
Y195275D01*
X215748D01*
X198032Y155118D02*
X215748D01*
D12*
X214291Y290354D02*
G03*
X214291Y290354I-492J0D01*
G01*
X221161Y194783D02*
G03*
X221161Y194783I-492J0D01*
G01*
D13*
X251100Y219934D02*
Y225932D01*
X248101D01*
X247101Y224932D01*
Y222933D01*
X248101Y221933D01*
X251100D01*
X249101D02*
X247101Y219934D01*
X245102D02*
X243103D01*
X244102D01*
Y225932D01*
X245102Y224932D01*
X240104Y225932D02*
X236105D01*
Y224932D01*
X240104Y220934D01*
Y219934D01*
X182990Y248970D02*
Y254967D01*
X179991D01*
X178991Y253968D01*
Y251969D01*
X179991Y250969D01*
X182990D01*
X180990D02*
X178991Y248970D01*
X176992D02*
X174992D01*
X175992D01*
Y254967D01*
X176992Y253968D01*
X167994Y254967D02*
X169994Y253968D01*
X171993Y251969D01*
Y249969D01*
X170994Y248970D01*
X168994D01*
X167994Y249969D01*
Y250969D01*
X168994Y251969D01*
X171993D01*
X215076Y196706D02*
Y202704D01*
X212077D01*
X211078Y201704D01*
Y199705D01*
X212077Y198705D01*
X215076D01*
X213077D02*
X211078Y196706D01*
X209078D02*
X207079D01*
X208079D01*
Y202704D01*
X209078Y201704D01*
X200081Y202704D02*
X204080D01*
Y199705D01*
X202080Y200704D01*
X201081D01*
X200081Y199705D01*
Y197705D01*
X201081Y196706D01*
X203080D01*
X204080Y197705D01*
X173541Y222001D02*
Y227999D01*
X170542D01*
X169542Y226999D01*
Y225000D01*
X170542Y224000D01*
X173541D01*
X171542D02*
X169542Y222001D01*
X167543D02*
X165543D01*
X166543D01*
Y227999D01*
X167543Y226999D01*
X159545Y222001D02*
Y227999D01*
X162544Y225000D01*
X158546D01*
X61857Y325116D02*
X55859D01*
Y322117D01*
X56859Y321117D01*
X58858D01*
X59858Y322117D01*
Y325116D01*
Y323116D02*
X61857Y321117D01*
Y319118D02*
Y317118D01*
Y318118D01*
X55859D01*
X56859Y319118D01*
Y314119D02*
X55859Y313120D01*
Y311120D01*
X56859Y310121D01*
X57859D01*
X58858Y311120D01*
Y312120D01*
Y311120D01*
X59858Y310121D01*
X60858D01*
X61857Y311120D01*
Y313120D01*
X60858Y314119D01*
X189880Y218556D02*
Y224554D01*
X186880D01*
X185881Y223554D01*
Y221555D01*
X186880Y220555D01*
X189880D01*
X187880D02*
X185881Y218556D01*
X183881D02*
X181882D01*
X182882D01*
Y224554D01*
X183881Y223554D01*
X174884Y218556D02*
X178883D01*
X174884Y222555D01*
Y223554D01*
X175884Y224554D01*
X177883D01*
X178883Y223554D01*
X166537Y296804D02*
Y302802D01*
X163538D01*
X162539Y301802D01*
Y299803D01*
X163538Y298803D01*
X166537D01*
X164538D02*
X162539Y296804D01*
X160539D02*
X158540D01*
X159539D01*
Y302802D01*
X160539Y301802D01*
X155541Y296804D02*
X153541D01*
X154541D01*
Y302802D01*
X155541Y301802D01*
X65372Y192277D02*
Y198275D01*
X62373D01*
X61373Y197275D01*
Y195276D01*
X62373Y194276D01*
X65372D01*
X63372D02*
X61373Y192277D01*
X59373D02*
X57374D01*
X58374D01*
Y198275D01*
X59373Y197275D01*
X54375D02*
X53376Y198275D01*
X51376D01*
X50376Y197275D01*
Y193276D01*
X51376Y192277D01*
X53376D01*
X54375Y193276D01*
Y197275D01*
X206179Y247198D02*
Y253196D01*
X203180D01*
X202181Y252196D01*
Y250197D01*
X203180Y249197D01*
X206179D01*
X204180D02*
X202181Y247198D01*
X200181Y248198D02*
X199182Y247198D01*
X197182D01*
X196183Y248198D01*
Y252196D01*
X197182Y253196D01*
X199182D01*
X200181Y252196D01*
Y251197D01*
X199182Y250197D01*
X196183D01*
X50668Y240013D02*
Y246011D01*
X47669D01*
X46669Y245011D01*
Y243012D01*
X47669Y242012D01*
X50668D01*
X48668D02*
X46669Y240013D01*
X44670Y245011D02*
X43670Y246011D01*
X41671D01*
X40671Y245011D01*
Y244011D01*
X41671Y243012D01*
X40671Y242012D01*
Y241012D01*
X41671Y240013D01*
X43670D01*
X44670Y241012D01*
Y242012D01*
X43670Y243012D01*
X44670Y244011D01*
Y245011D01*
X43670Y243012D02*
X41671D01*
X203424Y264521D02*
Y270519D01*
X200425D01*
X199425Y269519D01*
Y267520D01*
X200425Y266520D01*
X203424D01*
X201424D02*
X199425Y264521D01*
X197425Y270519D02*
X193427D01*
Y269519D01*
X197425Y265520D01*
Y264521D01*
X64841Y208418D02*
Y214416D01*
X61842D01*
X60842Y213417D01*
Y211417D01*
X61842Y210418D01*
X64841D01*
X62841D02*
X60842Y208418D01*
X54844Y214416D02*
X56844Y213417D01*
X58843Y211417D01*
Y209418D01*
X57843Y208418D01*
X55844D01*
X54844Y209418D01*
Y210418D01*
X55844Y211417D01*
X58843D01*
X141763Y299561D02*
Y305559D01*
X138764D01*
X137764Y304559D01*
Y302560D01*
X138764Y301560D01*
X141763D01*
X139764D02*
X137764Y299561D01*
X131766Y305559D02*
X135765D01*
Y302560D01*
X133766Y303559D01*
X132766D01*
X131766Y302560D01*
Y300560D01*
X132766Y299561D01*
X134765D01*
X135765Y300560D01*
X218452Y215727D02*
X212454D01*
Y212728D01*
X213453Y211728D01*
X215453D01*
X216452Y212728D01*
Y215727D01*
Y213727D02*
X218452Y211728D01*
Y206730D02*
X212454D01*
X215453Y209729D01*
Y205730D01*
X75834Y214841D02*
X69836D01*
Y211842D01*
X70835Y210842D01*
X72835D01*
X73834Y211842D01*
Y214841D01*
Y212842D02*
X75834Y210842D01*
X70835Y208843D02*
X69836Y207843D01*
Y205844D01*
X70835Y204844D01*
X71835D01*
X72835Y205844D01*
Y206843D01*
Y205844D01*
X73834Y204844D01*
X74834D01*
X75834Y205844D01*
Y207843D01*
X74834Y208843D01*
X237479Y206838D02*
Y200840D01*
X234480D01*
X233480Y201839D01*
Y205838D01*
X234480Y206838D01*
X237479D01*
X231481Y205838D02*
X230481Y206838D01*
X228482D01*
X227482Y205838D01*
Y204838D01*
X228482Y203839D01*
X227482Y202839D01*
Y201839D01*
X228482Y200840D01*
X230481D01*
X231481Y201839D01*
Y202839D01*
X230481Y203839D01*
X231481Y204838D01*
Y205838D01*
X230481Y203839D02*
X228482D01*
X198502Y217172D02*
Y211174D01*
X195503D01*
X194504Y212174D01*
Y216173D01*
X195503Y217172D01*
X198502D01*
X188505D02*
X190505Y216173D01*
X192504Y214173D01*
Y212174D01*
X191505Y211174D01*
X189505D01*
X188505Y212174D01*
Y213174D01*
X189505Y214173D01*
X192504D01*
X181278Y201621D02*
Y195623D01*
X178279D01*
X177279Y196623D01*
Y200621D01*
X178279Y201621D01*
X181278D01*
X171281D02*
X175280D01*
Y198622D01*
X173281Y199622D01*
X172281D01*
X171281Y198622D01*
Y196623D01*
X172281Y195623D01*
X174280D01*
X175280Y196623D01*
X92203Y327015D02*
Y321017D01*
X89204D01*
X88204Y322016D01*
Y326015D01*
X89204Y327015D01*
X92203D01*
X83206Y321017D02*
Y327015D01*
X86205Y324016D01*
X82206D01*
X217763Y226498D02*
X211765D01*
Y229497D01*
X212764Y230496D01*
X216763D01*
X217763Y229497D01*
Y226498D01*
X216763Y232496D02*
X217763Y233495D01*
Y235495D01*
X216763Y236494D01*
X215763D01*
X214764Y235495D01*
Y234495D01*
Y235495D01*
X213764Y236494D01*
X212764D01*
X211765Y235495D01*
Y233495D01*
X212764Y232496D01*
X127679Y300249D02*
Y306247D01*
X130678D01*
X131677Y305247D01*
Y301249D01*
X130678Y300249D01*
X127679D01*
X137676Y306247D02*
X133677D01*
X137676Y302248D01*
Y301249D01*
X136676Y300249D01*
X134677D01*
X133677Y301249D01*
X205786Y296306D02*
Y291308D01*
X204786Y290308D01*
X202787D01*
X201787Y291308D01*
Y296306D01*
X199788Y295306D02*
X198788Y296306D01*
X196789D01*
X195789Y295306D01*
Y294307D01*
X196789Y293307D01*
X197788D01*
X196789D01*
X195789Y292307D01*
Y291308D01*
X196789Y290308D01*
X198788D01*
X199788Y291308D01*
X79014Y275440D02*
Y270442D01*
X78014Y269442D01*
X76015D01*
X75015Y270442D01*
Y275440D01*
X69017Y269442D02*
X73016D01*
X69017Y273441D01*
Y274440D01*
X70017Y275440D01*
X72016D01*
X73016Y274440D01*
X224463Y205359D02*
Y200360D01*
X223463Y199361D01*
X221464D01*
X220464Y200360D01*
Y205359D01*
X218465Y199361D02*
X216466D01*
X217465D01*
Y205359D01*
X218465Y204359D01*
X170239Y256154D02*
Y262153D01*
X167240D01*
X166240Y261153D01*
Y259154D01*
X167240Y258154D01*
X170239D01*
X168239D02*
X166240Y256154D01*
X164241D02*
X162241D01*
X163241D01*
Y262153D01*
X164241Y261153D01*
X205906Y100544D02*
X203906D01*
X204906D01*
Y105543D01*
X203906Y106542D01*
X202906D01*
X201907Y105543D01*
X207905Y106542D02*
X209904D01*
X208905D01*
Y100544D01*
X207905Y101544D01*
X158405Y230641D02*
X159404Y231641D01*
X161404D01*
X162403Y230641D01*
Y226642D01*
X161404Y225643D01*
X159404D01*
X158405Y226642D01*
X156405Y225643D02*
X154406D01*
X155406D01*
Y231641D01*
X156405Y230641D01*
X151407Y225643D02*
X149408D01*
X150407D01*
Y231641D01*
X151407Y230641D01*
X222444Y287236D02*
X223443Y288235D01*
X225443D01*
X226443Y287236D01*
Y283237D01*
X225443Y282237D01*
X223443D01*
X222444Y283237D01*
X220444Y282237D02*
X218445D01*
X219445D01*
Y288235D01*
X220444Y287236D01*
X215446D02*
X214446Y288235D01*
X212447D01*
X211447Y287236D01*
Y283237D01*
X212447Y282237D01*
X214446D01*
X215446Y283237D01*
Y287236D01*
X102964Y251059D02*
X103964Y252059D01*
X105963D01*
X106963Y251059D01*
Y247060D01*
X105963Y246061D01*
X103964D01*
X102964Y247060D01*
X100965D02*
X99965Y246061D01*
X97966D01*
X96966Y247060D01*
Y251059D01*
X97966Y252059D01*
X99965D01*
X100965Y251059D01*
Y250059D01*
X99965Y249060D01*
X96966D01*
X107760Y304103D02*
X106761Y303103D01*
X104761D01*
X103761Y304103D01*
Y308102D01*
X104761Y309101D01*
X106761D01*
X107760Y308102D01*
X109759Y303103D02*
X113758D01*
Y304103D01*
X109759Y308102D01*
Y309101D01*
X197555Y237432D02*
X198555Y238432D01*
X200554D01*
X201554Y237432D01*
Y233434D01*
X200554Y232434D01*
X198555D01*
X197555Y233434D01*
X191557Y238432D02*
X193556Y237432D01*
X195555Y235433D01*
Y233434D01*
X194556Y232434D01*
X192556D01*
X191557Y233434D01*
Y234433D01*
X192556Y235433D01*
X195555D01*
D14*
X86417Y319291D02*
X89567D01*
X86417Y314567D02*
X89567D01*
Y315354D02*
Y318504D01*
X87992Y315354D02*
X89567Y316929D01*
X86417D02*
X87992D01*
Y315354D02*
Y318504D01*
X89567Y316929D01*
X175000Y209646D02*
X178150D01*
X175000Y204921D02*
X178150D01*
Y205709D02*
Y208858D01*
X176575Y205709D02*
X178150Y207284D01*
X175000D02*
X176575D01*
Y205709D02*
Y208858D01*
X178150Y207284D01*
X209941Y222736D02*
Y225886D01*
X205217Y222736D02*
Y225886D01*
X206004Y222736D02*
X209154D01*
X206004Y224311D02*
X207579Y222736D01*
Y224311D02*
Y225886D01*
X206004Y224311D02*
X209154D01*
X207579Y222736D02*
X209154Y224311D01*
X128740Y312697D02*
Y315846D01*
X133465Y312697D02*
Y315846D01*
X129528D02*
X132677D01*
X131102D02*
X132677Y314271D01*
X131102Y312697D02*
Y314271D01*
X129528D02*
X132677D01*
X129528D02*
X131102Y315846D01*
X225787Y208169D02*
X228937D01*
X225787Y212894D02*
X228937D01*
X225787Y208957D02*
Y212106D01*
Y210531D02*
X227362Y212106D01*
Y210531D02*
X228937D01*
X227362Y208957D02*
Y212106D01*
X225787Y210531D02*
X227362Y208957D01*
X191929Y205118D02*
X195079D01*
X191929Y209842D02*
X195079D01*
X191929Y205905D02*
Y209055D01*
Y207480D02*
X193504Y209055D01*
Y207480D02*
X195079D01*
X193504Y205905D02*
Y209055D01*
X191929Y207480D02*
X193504Y205905D01*
D15*
X262498Y328740D02*
G03*
X260136Y331102I-2362J-0D01*
G01*
X262498Y328740D02*
G03*
X260136Y331102I-2362J-0D01*
G01*
X260138Y62598D02*
G03*
X262500Y64961I0J2362D01*
G01*
X260138Y62598D02*
G03*
X262500Y64961I0J2362D01*
G01*
X35433Y331102D02*
G03*
X33071Y328740I0J-2362D01*
G01*
X35433Y331102D02*
G03*
X33071Y328740I0J-2362D01*
G01*
X151181Y64961D02*
G03*
X153543Y62598I2362J0D01*
G01*
X151181Y64961D02*
G03*
X153543Y62598I2362J0D01*
G01*
X33071Y191339D02*
G03*
X35433Y188976I2362J0D01*
G01*
X33071Y191339D02*
G03*
X35433Y188976I2362J0D01*
G01*
X262498Y328740D02*
X262500Y64961D01*
X153543Y62598D02*
X260138D01*
X35433Y331102D02*
X260136D01*
X33071Y191339D02*
Y328740D01*
X35433Y188976D02*
X151181D01*
Y64961D02*
Y188976D01*
D98*
X213189Y191929D02*
G03*
X213189Y191929I-984J0D01*
G01*
D99*
X90180Y258664D02*
G03*
X90180Y258664I-1500J0D01*
G01*
X218988Y275256D02*
X219988D01*
Y280256D01*
X218988D02*
X219988D01*
X218988Y275256D02*
Y280256D01*
X89581Y261364D02*
X91380Y259691D01*
X64380Y261364D02*
X89581D01*
X91380Y234364D02*
Y259691D01*
X64380Y234364D02*
X91380D01*
X64380D02*
Y261364D01*
M02*
