G04*
G04 #@! TF.GenerationSoftware,Altium Limited,CircuitMaker,2.0.3 (2.0.3.51)*
G04*
G04 Layer_Color=15132400*
%FSLAX25Y25*%
%MOIN*%
G70*
G04*
G04 #@! TF.SameCoordinates,36100E47-EE27-4898-87D7-6225316A82EF*
G04*
G04*
G04 #@! TF.FilePolarity,Positive*
G04*
G01*
G75*
%ADD10C,0.03000*%
%ADD11C,0.00787*%
%ADD12C,0.00984*%
%ADD13C,0.01000*%
%ADD14C,0.00394*%
%ADD15C,0.04724*%
D10*
X233181Y93634D02*
G03*
X233181Y93634I-1500J0D01*
G01*
X233457Y127874D02*
G03*
X233457Y127874I-1500J0D01*
G01*
X65713Y197846D02*
G03*
X65713Y197846I-1500J0D01*
G01*
X65712Y278031D02*
G03*
X65712Y278031I-1500J0D01*
G01*
X182929Y78161D02*
G03*
X182929Y78161I-1500J0D01*
G01*
D11*
X132205Y253543D02*
G03*
X132205Y271260I0J8858D01*
G01*
X112992D02*
G03*
X112992Y253543I0J-8858D01*
G01*
X222539Y260236D02*
X240846D01*
Y269488D01*
X222539D02*
X240846D01*
X222539Y260236D02*
Y269488D01*
X217539Y264862D02*
X222539D01*
X240846D02*
X245846D01*
X235846Y260236D02*
Y269488D01*
X64370Y288780D02*
X75197D01*
X86220D02*
X97047D01*
X86220Y321457D02*
X93110D01*
X68307D02*
X75197D01*
X93110D02*
X97047Y317520D01*
Y288780D02*
Y317520D01*
X64370Y288780D02*
Y317520D01*
X68307Y321457D01*
X72736Y318402D02*
X74705D01*
X73720Y317417D02*
Y319386D01*
X128866Y304922D02*
Y316733D01*
X102488Y304922D02*
Y316733D01*
X128866D01*
X102488Y304922D02*
X128866D01*
X215945Y288780D02*
X226772D01*
X237795D02*
X248622D01*
X237795Y321457D02*
X244685D01*
X219882D02*
X226772D01*
X244685D02*
X248622Y317520D01*
Y288780D02*
Y317520D01*
X215945Y288780D02*
Y317520D01*
X219882Y321457D01*
X224311Y318402D02*
X226280D01*
X225295Y317417D02*
Y319386D01*
D12*
X103177Y299607D02*
G03*
X103177Y299607I-492J0D01*
G01*
D13*
X191181Y34646D02*
Y79134D01*
X201181Y34646D02*
Y79134D01*
X211681Y34646D02*
Y79134D01*
X221181Y34646D02*
Y79134D01*
X181811Y29921D02*
X231024D01*
Y88976D01*
X181811D02*
X231024D01*
X181811Y29921D02*
Y88976D01*
X236614Y78004D02*
X295669D01*
X236614D02*
Y127216D01*
X295669D01*
Y78004D02*
Y127216D01*
X246457Y117374D02*
X290945D01*
X246457Y107874D02*
X290945D01*
X246457Y97374D02*
X290945D01*
X246457Y87374D02*
X290945D01*
X5224Y238346D02*
X49713D01*
X5224Y228346D02*
X49713D01*
X5224Y217846D02*
X49713D01*
X5224Y208346D02*
X49713D01*
X500Y198504D02*
Y247717D01*
Y198504D02*
X59555D01*
Y247717D01*
X500D02*
X59555D01*
X5224Y318532D02*
X49713D01*
X5224Y308532D02*
X49713D01*
X5224Y298032D02*
X49713D01*
X5224Y288532D02*
X49713D01*
X500Y278689D02*
Y327902D01*
Y278689D02*
X59555D01*
Y327902D01*
X500D02*
X59555D01*
X122441Y118661D02*
X166929D01*
X122441Y108661D02*
X166929D01*
X122441Y98161D02*
X166929D01*
X122441Y88661D02*
X166929D01*
X117717Y78819D02*
Y128031D01*
Y78819D02*
X176772D01*
Y128031D01*
X117717D02*
X176772D01*
X239850Y158047D02*
Y237917D01*
X161504D02*
X239850D01*
X161504Y158047D02*
X239850D01*
X161606Y159547D02*
Y236417D01*
X161504Y158047D02*
Y159445D01*
Y236520D02*
Y237917D01*
X168075Y300197D02*
Y325500D01*
X135669Y325787D02*
X168075D01*
X135669Y300197D02*
Y325787D01*
Y300197D02*
X168449D01*
X63205Y225109D02*
Y220291D01*
X66416D01*
X70431D02*
X68825D01*
X68022Y221094D01*
Y222700D01*
X68825Y223503D01*
X70431D01*
X71234Y222700D01*
Y221897D01*
X68022D01*
X72839Y220291D02*
Y223503D01*
X75248D01*
X76051Y222700D01*
Y220291D01*
X78460Y223503D02*
X80065D01*
X80868Y222700D01*
Y220291D01*
X78460D01*
X77657Y221094D01*
X78460Y221897D01*
X80868D01*
X82474Y223503D02*
Y220291D01*
Y221897D01*
X83277Y222700D01*
X84080Y223503D01*
X84883D01*
X90503D02*
X88094D01*
X87291Y222700D01*
Y221094D01*
X88094Y220291D01*
X90503D01*
X92109D02*
X93714D01*
X92912D01*
Y223503D01*
X92109D01*
X99335D02*
X96926D01*
X96123Y222700D01*
Y221094D01*
X96926Y220291D01*
X99335D01*
X105758Y225109D02*
Y220291D01*
X108969D01*
X110575Y223503D02*
Y221094D01*
X111378Y220291D01*
X113787D01*
Y223503D01*
X118604D02*
X116195D01*
X115393Y222700D01*
Y221094D01*
X116195Y220291D01*
X118604D01*
X121013Y223503D02*
X122619D01*
X123422Y222700D01*
Y220291D01*
X121013D01*
X120210Y221094D01*
X121013Y221897D01*
X123422D01*
X125027Y220291D02*
X127436D01*
X128239Y221094D01*
X127436Y221897D01*
X125830D01*
X125027Y222700D01*
X125830Y223503D01*
X128239D01*
X63205Y237614D02*
Y242431D01*
X65613D01*
X66416Y241629D01*
Y240023D01*
X65613Y239220D01*
X63205D01*
X64811D02*
X66416Y237614D01*
X68825D02*
X70431D01*
X71234Y238417D01*
Y240023D01*
X70431Y240826D01*
X68825D01*
X68022Y240023D01*
Y238417D01*
X68825Y237614D01*
X72839Y242431D02*
Y237614D01*
X75248D01*
X76051Y238417D01*
Y239220D01*
Y240023D01*
X75248Y240826D01*
X72839D01*
X78460Y237614D02*
X80065D01*
X80868Y238417D01*
Y240023D01*
X80065Y240826D01*
X78460D01*
X77657Y240023D01*
Y238417D01*
X78460Y237614D01*
X83277Y241629D02*
Y240826D01*
X82474D01*
X84080D01*
X83277D01*
Y238417D01*
X84080Y237614D01*
X88897D02*
X87291D01*
X86488Y238417D01*
Y240023D01*
X87291Y240826D01*
X88897D01*
X89700Y240023D01*
Y239220D01*
X86488D01*
X91306Y240826D02*
Y237614D01*
Y239220D01*
X92109Y240023D01*
X92912Y240826D01*
X93714D01*
X96123Y240023D02*
X99335D01*
X100941Y237614D02*
Y240826D01*
X102546Y242431D01*
X104152Y240826D01*
Y237614D01*
Y240023D01*
X100941D01*
X105758Y240826D02*
Y237614D01*
Y239220D01*
X106561Y240023D01*
X107364Y240826D01*
X108167D01*
X110575Y237614D02*
Y240826D01*
X111378D01*
X112181Y240023D01*
Y237614D01*
Y240023D01*
X112984Y240826D01*
X113787Y240023D01*
Y237614D01*
X63205Y229346D02*
Y234164D01*
X64811Y232558D01*
X66416Y234164D01*
Y229346D01*
X68825Y232558D02*
X70431D01*
X71234Y231755D01*
Y229346D01*
X68825D01*
X68022Y230149D01*
X68825Y230952D01*
X71234D01*
X72839Y229346D02*
X74445D01*
X73642D01*
Y232558D01*
X72839D01*
X76854Y229346D02*
Y232558D01*
X79263D01*
X80065Y231755D01*
Y229346D01*
X81671Y231755D02*
X84883D01*
X89700Y233361D02*
X88897Y234164D01*
X87291D01*
X86488Y233361D01*
Y230149D01*
X87291Y229346D01*
X88897D01*
X89700Y230149D01*
X92109Y229346D02*
X93714D01*
X94517Y230149D01*
Y231755D01*
X93714Y232558D01*
X92109D01*
X91306Y231755D01*
Y230149D01*
X92109Y229346D01*
X96123D02*
Y232558D01*
X98532D01*
X99335Y231755D01*
Y229346D01*
X101743Y233361D02*
Y232558D01*
X100941D01*
X102546D01*
X101743D01*
Y230149D01*
X102546Y229346D01*
X104955Y232558D02*
Y229346D01*
Y230952D01*
X105758Y231755D01*
X106561Y232558D01*
X107364D01*
X110575Y229346D02*
X112181D01*
X112984Y230149D01*
Y231755D01*
X112181Y232558D01*
X110575D01*
X109772Y231755D01*
Y230149D01*
X110575Y229346D01*
X114590D02*
X116195D01*
X115393D01*
Y234164D01*
X114590D01*
X118604Y229346D02*
X120210D01*
X119407D01*
Y234164D01*
X118604D01*
X125027Y229346D02*
X123422D01*
X122619Y230149D01*
Y231755D01*
X123422Y232558D01*
X125027D01*
X125830Y231755D01*
Y230952D01*
X122619D01*
X127436Y232558D02*
Y229346D01*
Y230952D01*
X128239Y231755D01*
X129042Y232558D01*
X129845D01*
X63205Y216054D02*
Y212842D01*
X64811Y211236D01*
X66416Y212842D01*
Y216054D01*
X68022Y215251D02*
X68825Y216054D01*
X70431D01*
X71234Y215251D01*
Y212039D01*
X70431Y211236D01*
X68825D01*
X68022Y212039D01*
Y215251D01*
X72839Y211236D02*
Y212039D01*
X73642D01*
Y211236D01*
X72839D01*
X79263D02*
Y216054D01*
X76854Y213645D01*
X80065D01*
X1000Y255198D02*
X4999Y251200D01*
X1000D02*
X4999Y255198D01*
X1000Y253199D02*
X4999D01*
X2999Y251200D02*
Y255198D01*
X182300Y103598D02*
X186299Y99600D01*
X182300D02*
X186299Y103598D01*
X182300Y101599D02*
X186299D01*
X184299Y99600D02*
Y103598D01*
X1000Y335398D02*
X4999Y331400D01*
X1000D02*
X4999Y335398D01*
X1000Y333399D02*
X4999D01*
X2999Y331400D02*
Y335398D01*
X242069Y206318D02*
Y201320D01*
X243068Y200320D01*
X245068D01*
X246067Y201320D01*
Y206318D01*
X251066Y200320D02*
Y206318D01*
X248067Y203319D01*
X252065D01*
X247758Y161365D02*
Y155367D01*
X250757D01*
X251756Y156367D01*
Y160365D01*
X250757Y161365D01*
X247758D01*
X253756D02*
X257754D01*
Y160365D01*
X253756Y156367D01*
Y155367D01*
X118200Y136498D02*
X122199Y132500D01*
X118200D02*
X122199Y136498D01*
X118200Y134499D02*
X122199D01*
X120199Y132500D02*
Y136498D01*
X128197Y131500D02*
X124198D01*
X128197Y135499D01*
Y136498D01*
X127197Y137498D01*
X125198D01*
X124198Y136498D01*
X230000Y138898D02*
X233999Y134900D01*
X230000D02*
X233999Y138898D01*
X230000Y136899D02*
X233999D01*
X231999Y134900D02*
Y138898D01*
X235998Y133900D02*
X237997D01*
X236998D01*
Y139898D01*
X235998Y138898D01*
X104763Y280659D02*
X108762Y274661D01*
Y280659D02*
X104763Y274661D01*
X110761D02*
X112760D01*
X111761D01*
Y280659D01*
X110761Y279659D01*
X127347Y325834D02*
X125347D01*
X126347D01*
Y320835D01*
X125347Y319836D01*
X124348D01*
X123348Y320835D01*
X133345Y319836D02*
X129346D01*
X133345Y323834D01*
Y324834D01*
X132345Y325834D01*
X130346D01*
X129346Y324834D01*
X236577Y249560D02*
Y255558D01*
X233578D01*
X232579Y254558D01*
Y250560D01*
X233578Y249560D01*
X236577D01*
X230579Y255558D02*
X228580D01*
X229580D01*
Y249560D01*
X230579Y250560D01*
X70654Y307511D02*
X69654Y308511D01*
X67655D01*
X66655Y307511D01*
Y303513D01*
X67655Y302513D01*
X69654D01*
X70654Y303513D01*
X76652Y308511D02*
X72653D01*
Y305512D01*
X74653Y306511D01*
X75652D01*
X76652Y305512D01*
Y303513D01*
X75652Y302513D01*
X73653D01*
X72653Y303513D01*
X241126Y306724D02*
X240127Y307723D01*
X238127D01*
X237128Y306724D01*
Y302725D01*
X238127Y301725D01*
X240127D01*
X241126Y302725D01*
X246125Y301725D02*
Y307723D01*
X243126Y304724D01*
X247124D01*
X100114Y265225D02*
X101113Y264225D01*
X103113D01*
X104113Y265225D01*
Y269224D01*
X103113Y270223D01*
X101113D01*
X100114Y269224D01*
X98115Y265225D02*
X97115Y264225D01*
X95116D01*
X94116Y265225D01*
Y266225D01*
X95116Y267224D01*
X96115D01*
X95116D01*
X94116Y268224D01*
Y269224D01*
X95116Y270223D01*
X97115D01*
X98115Y269224D01*
X177562Y322059D02*
X176562Y323059D01*
X174563D01*
X173563Y322059D01*
Y318060D01*
X174563Y317061D01*
X176562D01*
X177562Y318060D01*
X183560Y317061D02*
X179561D01*
X183560Y321059D01*
Y322059D01*
X182560Y323059D01*
X180561D01*
X179561Y322059D01*
X175862Y302659D02*
X174862Y303659D01*
X172863D01*
X171863Y302659D01*
Y298660D01*
X172863Y297661D01*
X174862D01*
X175862Y298660D01*
X177861Y297661D02*
X179860D01*
X178861D01*
Y303659D01*
X177861Y302659D01*
X165263Y247061D02*
X167262D01*
X166263D01*
Y253059D01*
X165263Y252059D01*
X102663Y333659D02*
X106662Y329660D01*
X102663D02*
X106662Y333659D01*
X102663Y331660D02*
X106662D01*
X104662Y329660D02*
Y333659D01*
X106863Y292459D02*
X110862Y288460D01*
X106863D02*
X110862Y292459D01*
X106863Y290460D02*
X110862D01*
X108862Y288460D02*
Y292459D01*
D14*
X252756Y145768D02*
Y148917D01*
X248032Y145768D02*
Y148917D01*
X248819D02*
X251969D01*
X248819Y147343D02*
X250394Y148917D01*
Y145768D02*
Y147343D01*
X248819D02*
X251969D01*
X250394Y148917D02*
X251969Y147343D01*
D15*
X262498Y328740D02*
G03*
X260136Y331102I-2362J-0D01*
G01*
X262498Y328740D02*
G03*
X260136Y331102I-2362J-0D01*
G01*
X260138Y62598D02*
G03*
X262500Y64961I0J2362D01*
G01*
X260138Y62598D02*
G03*
X262500Y64961I0J2362D01*
G01*
X35433Y331102D02*
G03*
X33071Y328740I0J-2362D01*
G01*
X35433Y331102D02*
G03*
X33071Y328740I0J-2362D01*
G01*
X151181Y64961D02*
G03*
X153543Y62598I2362J0D01*
G01*
X151181Y64961D02*
G03*
X153543Y62598I2362J0D01*
G01*
X33071Y191339D02*
G03*
X35433Y188976I2362J0D01*
G01*
X33071Y191339D02*
G03*
X35433Y188976I2362J0D01*
G01*
X262498Y328740D02*
X262500Y64961D01*
X153543Y62598D02*
X260138D01*
X35433Y331102D02*
X260136D01*
X33071Y191339D02*
Y328740D01*
X35433Y188976D02*
X151181D01*
Y64961D02*
Y188976D01*
M02*
