G04*
G04 #@! TF.GenerationSoftware,Altium Limited,CircuitMaker,2.0.3 (2.0.3.51)*
G04*
G04 Layer_Color=15132400*
%FSLAX44Y44*%
%MOMM*%
G71*
G04*
G04 #@! TF.SameCoordinates,E9E563F1-332F-4466-8196-8310A66FFE87*
G04*
G04*
G04 #@! TF.FilePolarity,Positive*
G04*
G01*
G75*
%ADD10C,0.2000*%
%ADD11C,0.2500*%
%ADD12C,0.2540*%
%ADD13C,0.1000*%
%ADD14C,0.0500*%
%ADD15C,0.0100*%
%ADD16C,0.1270*%
D10*
X345800Y479000D02*
G03*
X345800Y524001I0J22500D01*
G01*
X297000D02*
G03*
X297000Y479000I0J-22500D01*
G01*
X575250Y496000D02*
X621750D01*
Y519500D01*
X575250D02*
X621750D01*
X575250Y496000D02*
Y519500D01*
X562550Y507750D02*
X575250D01*
X621750D02*
X634450D01*
X609050Y496000D02*
Y519500D01*
X173500Y568500D02*
X201000D01*
X229000D02*
X256500D01*
X229000Y651500D02*
X246500D01*
X183500D02*
X201000D01*
X246500D02*
X256500Y641500D01*
Y568500D02*
Y641500D01*
X173500Y568500D02*
Y641500D01*
X183500Y651500D01*
X194750Y643740D02*
X199750D01*
X197250Y641240D02*
Y646240D01*
X337320Y609502D02*
Y639502D01*
X270320Y609502D02*
Y639502D01*
X337320D01*
X270320Y609502D02*
X337320D01*
X558500Y568500D02*
X586000D01*
X614000D02*
X641500D01*
X614000Y651500D02*
X631500D01*
X568500D02*
X586000D01*
X631500D02*
X641500Y641500D01*
Y568500D02*
Y641500D01*
X558500Y568500D02*
Y641500D01*
X568500Y651500D01*
X579750Y643740D02*
X584750D01*
X582250Y641240D02*
Y646240D01*
D11*
X272070Y596002D02*
G03*
X272070Y596002I-1250J0D01*
G01*
D12*
X619220Y236440D02*
Y439310D01*
X420220D02*
X619220D01*
X420220Y236440D02*
X619220D01*
X420480Y240250D02*
Y435500D01*
X420220Y236440D02*
Y239990D01*
Y435760D02*
Y439310D01*
X436910Y597500D02*
Y661770D01*
X354600Y662500D02*
X436910D01*
X354600Y597500D02*
Y662500D01*
Y597500D02*
X437862D01*
X624854Y359048D02*
Y346352D01*
X627393Y343813D01*
X632472D01*
X635011Y346352D01*
Y359048D01*
X647707Y343813D02*
Y359048D01*
X640089Y351430D01*
X650246D01*
X639304Y244868D02*
Y229632D01*
X646922D01*
X649461Y232172D01*
Y242328D01*
X646922Y244868D01*
X639304D01*
X654539D02*
X664696D01*
Y242328D01*
X654539Y232172D01*
Y229632D01*
X477012Y110232D02*
X487169Y100075D01*
X477012D02*
X487169Y110232D01*
X477012Y105154D02*
X487169D01*
X482090Y100075D02*
Y110232D01*
X106934Y468372D02*
X117091Y458215D01*
X106934D02*
X117091Y468372D01*
X106934Y463293D02*
X117091D01*
X112012Y458215D02*
Y468372D01*
X142304Y662078D02*
X152461Y651922D01*
X142304D02*
X152461Y662078D01*
X142304Y657000D02*
X152461D01*
X147382Y651922D02*
Y662078D01*
X157539D02*
X160078Y664617D01*
X165157D01*
X167696Y662078D01*
Y659539D01*
X165157Y657000D01*
X162617D01*
X165157D01*
X167696Y654461D01*
Y651922D01*
X165157Y649382D01*
X160078D01*
X157539Y651922D01*
X411988Y180844D02*
X422145Y170687D01*
X411988D02*
X422145Y180844D01*
X411988Y175765D02*
X422145D01*
X417066Y170687D02*
Y180844D01*
X437380Y168148D02*
X427223D01*
X437380Y178305D01*
Y180844D01*
X434841Y183383D01*
X429762D01*
X427223Y180844D01*
X607060D02*
X617217Y170687D01*
X607060D02*
X617217Y180844D01*
X607060Y175765D02*
X617217D01*
X612138Y170687D02*
Y180844D01*
X622295Y168148D02*
X627373D01*
X624834D01*
Y183383D01*
X622295Y180844D01*
X276098Y547873D02*
X286255Y532638D01*
Y547873D02*
X276098Y532638D01*
X291333D02*
X296411D01*
X293872D01*
Y547873D01*
X291333Y545334D01*
X333461Y662617D02*
X328382D01*
X330922D01*
Y649922D01*
X328382Y647383D01*
X325843D01*
X323304Y649922D01*
X348696Y647383D02*
X338539D01*
X348696Y657539D01*
Y660078D01*
X346157Y662617D01*
X341078D01*
X338539Y660078D01*
X610907Y468882D02*
Y484118D01*
X603289D01*
X600750Y481578D01*
Y471422D01*
X603289Y468882D01*
X610907D01*
X595672Y484118D02*
X590593D01*
X593132D01*
Y468882D01*
X595672Y471422D01*
X189461Y616078D02*
X186922Y618618D01*
X181843D01*
X179304Y616078D01*
Y605922D01*
X181843Y603382D01*
X186922D01*
X189461Y605922D01*
X204696Y618618D02*
X194539D01*
Y611000D01*
X199618Y613539D01*
X202157D01*
X204696Y611000D01*
Y605922D01*
X202157Y603382D01*
X197078D01*
X194539Y605922D01*
X622461Y614078D02*
X619922Y616618D01*
X614843D01*
X612304Y614078D01*
Y603922D01*
X614843Y601382D01*
X619922D01*
X622461Y603922D01*
X635157Y601382D02*
Y616618D01*
X627539Y609000D01*
X637696D01*
X264289Y508672D02*
X266828Y506132D01*
X271907D01*
X274446Y508672D01*
Y518828D01*
X271907Y521367D01*
X266828D01*
X264289Y518828D01*
X259211Y508672D02*
X256672Y506132D01*
X251593D01*
X249054Y508672D01*
Y511211D01*
X251593Y513750D01*
X254132D01*
X251593D01*
X249054Y516289D01*
Y518828D01*
X251593Y521367D01*
X256672D01*
X259211Y518828D01*
X461007Y653030D02*
X458467Y655569D01*
X453389D01*
X450850Y653030D01*
Y642873D01*
X453389Y640334D01*
X458467D01*
X461007Y642873D01*
X476242Y640334D02*
X466085D01*
X476242Y650491D01*
Y653030D01*
X473703Y655569D01*
X468624D01*
X466085Y653030D01*
X456689Y603754D02*
X454150Y606293D01*
X449071D01*
X446532Y603754D01*
Y593597D01*
X449071Y591058D01*
X454150D01*
X456689Y593597D01*
X461767Y591058D02*
X466845D01*
X464306D01*
Y606293D01*
X461767Y603754D01*
X429768Y462534D02*
X434846D01*
X432307D01*
Y477769D01*
X429768Y475230D01*
X270764Y682494D02*
X280921Y672337D01*
X270764D02*
X280921Y682494D01*
X270764Y677415D02*
X280921D01*
X275842Y672337D02*
Y682494D01*
X281432Y577846D02*
X291589Y567689D01*
X281432D02*
X291589Y577846D01*
X281432Y572767D02*
X291589D01*
X286510Y567689D02*
Y577846D01*
X535000Y488700D02*
X662000D01*
X535000D02*
Y526800D01*
X662000D01*
Y488700D02*
Y526800D01*
X529515Y172593D02*
Y177672D01*
Y175133D01*
X542211D01*
X544750Y177672D01*
Y180211D01*
X542211Y182750D01*
X544750Y167515D02*
Y162437D01*
Y164976D01*
X529515D01*
X532054Y167515D01*
D13*
X105000Y450000D02*
X162000D01*
X105000Y325000D02*
X160000D01*
X105000D02*
Y450000D01*
X162000Y325000D02*
Y350000D01*
X160000Y325000D02*
X162000D01*
Y450000D01*
X103000Y540000D02*
X160000D01*
X105000Y665000D02*
X160000D01*
Y540000D02*
Y665000D01*
X103000Y640000D02*
Y665000D01*
X105000D01*
X103000Y540000D02*
Y665000D01*
X410000Y160000D02*
X467000D01*
X410000Y35000D02*
X465000D01*
X410000D02*
Y160000D01*
X467000Y35000D02*
Y60000D01*
X465000Y35000D02*
X467000D01*
Y160000D01*
X475000Y35000D02*
Y92000D01*
X600000Y35000D02*
Y90000D01*
X475000Y35000D02*
X600000D01*
X575000Y92000D02*
X600000D01*
Y90000D02*
Y92000D01*
X475000D02*
X600000D01*
X605000Y160000D02*
X662000D01*
X605000Y35000D02*
X660000D01*
X605000D02*
Y160000D01*
X662000Y35000D02*
Y60000D01*
X660000Y35000D02*
X662000D01*
Y160000D01*
X652000Y205250D02*
Y213250D01*
X640000Y205250D02*
Y213250D01*
X642000D02*
X650000D01*
X642000Y209250D02*
X646000Y213250D01*
Y205250D02*
Y209250D01*
X642000D02*
X650000D01*
X646000Y213250D02*
X650000Y209250D01*
X173500Y568500D02*
X256500D01*
X173500Y641500D02*
X183500Y651500D01*
X173500Y568500D02*
Y641500D01*
X256500Y568500D02*
Y641500D01*
X246500Y651500D02*
X256500Y641500D01*
X183500Y651500D02*
X246500D01*
X337320Y606002D02*
Y643002D01*
X270320Y606002D02*
Y643002D01*
X337320D01*
X270320Y606002D02*
X337320D01*
X558500Y568500D02*
X641500D01*
X558500Y641500D02*
X568500Y651500D01*
X558500Y568500D02*
Y641500D01*
X641500Y568500D02*
Y641500D01*
X631500Y651500D02*
X641500Y641500D01*
X568500Y651500D02*
X631500D01*
X473500Y620500D02*
Y629500D01*
X456500Y620500D02*
Y629500D01*
Y620500D02*
X473500D01*
X456500Y629500D02*
X473500D01*
X447250Y571250D02*
Y580250D01*
X464250Y571250D02*
Y580250D01*
X447250D02*
X464250D01*
X447250Y571250D02*
X464250D01*
X266500Y525000D02*
Y542500D01*
X257000Y525000D02*
Y542500D01*
X266500D01*
X257000Y525000D02*
X266500D01*
X132250Y442750D02*
Y453250D01*
X137750Y442750D02*
Y453250D01*
X132250D02*
X137750D01*
X132250Y442750D02*
X137750D01*
X183750Y366750D02*
Y377250D01*
X178250Y366750D02*
Y377250D01*
Y366750D02*
X183750D01*
X178250Y377250D02*
X183750D01*
X182250Y626000D02*
Y643500D01*
X172750Y626000D02*
Y643500D01*
Y626000D02*
X182250D01*
X172750Y643500D02*
X182250D01*
X191750Y385750D02*
Y396250D01*
X186250Y385750D02*
Y396250D01*
Y385750D02*
X191750D01*
X186250Y396250D02*
X191750D01*
X460750Y374750D02*
X478250D01*
X460750Y384250D02*
X478250D01*
X460750Y374750D02*
Y384250D01*
X478250Y374750D02*
Y384250D01*
X508500Y493000D02*
X525500D01*
X508500Y502000D02*
X525500D01*
X508500Y493000D02*
Y502000D01*
X525500Y493000D02*
Y502000D01*
X532250Y359750D02*
Y377250D01*
X541749Y359750D02*
Y377250D01*
X532250D02*
X541749D01*
X532250Y359750D02*
X541749D01*
X548500Y462000D02*
Y479000D01*
X539500Y462000D02*
Y479000D01*
Y462000D02*
X548500D01*
X539500Y479000D02*
X548500D01*
X561000Y398250D02*
X578000D01*
X561000Y389250D02*
X578000D01*
Y398250D01*
X561000Y389250D02*
Y398250D01*
X603750Y394250D02*
Y411750D01*
X594250Y394250D02*
Y411750D01*
Y394250D02*
X603750D01*
X594250Y411750D02*
X603750D01*
X184750Y336750D02*
Y347250D01*
X179250Y336750D02*
Y347250D01*
Y336750D02*
X184750D01*
X179250Y347250D02*
X184750D01*
X264250Y441250D02*
X281750D01*
X264250Y450750D02*
X281750D01*
X264250Y441250D02*
Y450750D01*
X281750Y441250D02*
Y450750D01*
X274250Y625500D02*
Y659500D01*
X292250Y625500D02*
Y659500D01*
X274250D02*
X292250D01*
X274250Y625500D02*
X292250D01*
X345750Y406000D02*
X379750D01*
X345750Y424000D02*
X379750D01*
X345750Y406000D02*
Y424000D01*
X379750Y406000D02*
Y424000D01*
X441750Y379000D02*
Y396500D01*
X451250Y379000D02*
Y396500D01*
X441750D02*
X451250D01*
X441750Y379000D02*
X451250D01*
X487000Y595000D02*
X553000D01*
X487000Y657000D02*
X553000D01*
Y595000D02*
Y657000D01*
X487000Y595000D02*
Y657000D01*
X500500Y395500D02*
Y413000D01*
X510000Y395500D02*
Y413000D01*
X500500D02*
X510000D01*
X500500Y395500D02*
X510000D01*
X371250Y569000D02*
Y586000D01*
X362250Y569000D02*
Y586000D01*
Y569000D02*
X371250D01*
X362250Y586000D02*
X371250D01*
X379500Y434250D02*
Y498750D01*
X413000Y434250D02*
Y498750D01*
X379500D02*
X413000D01*
X379500Y434250D02*
X413000D01*
X424749Y565750D02*
Y583250D01*
X434250Y565750D02*
Y583250D01*
X424749D02*
X434250D01*
X424749Y565750D02*
X434250D01*
X473500Y498250D02*
Y515750D01*
X464000Y498250D02*
Y515750D01*
Y498250D02*
X473500D01*
X464000Y515750D02*
X473500D01*
X562000Y228999D02*
Y331000D01*
X509000Y228999D02*
Y331000D01*
X562000D01*
X509000Y228999D02*
X562000D01*
X215000Y605000D02*
Y615000D01*
X210000Y610000D02*
X220000D01*
X298820Y624502D02*
X308820D01*
X303820Y619502D02*
Y629502D01*
X600000Y605000D02*
Y615000D01*
X595000Y610000D02*
X605000D01*
X654000Y191250D02*
Y227250D01*
X638000Y191250D02*
X654000D01*
X638000D02*
Y227250D01*
X654000D01*
X460500Y625000D02*
X469500D01*
X465000Y620500D02*
Y629500D01*
X451250Y575750D02*
X460250D01*
X455750Y571250D02*
Y580250D01*
X257000Y533750D02*
X266500D01*
X261750Y529000D02*
Y538500D01*
X132250Y448000D02*
X137750D01*
X135000Y445250D02*
Y450750D01*
X178250Y372000D02*
X183750D01*
X181000Y369250D02*
Y374750D01*
X172750Y634750D02*
X182250D01*
X177500Y630000D02*
Y639500D01*
X186250Y391000D02*
X191750D01*
X189000Y388250D02*
Y393750D01*
X215500Y648000D02*
X251500D01*
X215500Y632000D02*
Y648000D01*
Y632000D02*
X251500D01*
Y648000D01*
X469500Y374750D02*
Y384250D01*
X464750Y379500D02*
X474250D01*
X517000Y493000D02*
Y502000D01*
X512500Y497500D02*
X521500D01*
X532250Y368500D02*
X541749D01*
X537000Y363750D02*
Y373250D01*
X539500Y470500D02*
X548500D01*
X544000Y466000D02*
Y475000D01*
X569500Y389250D02*
Y398250D01*
X565000Y393750D02*
X574000D01*
X594250Y403000D02*
X603750D01*
X599000Y398250D02*
Y407750D01*
X179250Y342000D02*
X184750D01*
X182000Y339250D02*
Y344750D01*
X273000Y441250D02*
Y450750D01*
X268250Y446000D02*
X277750D01*
X278250Y642500D02*
X288250D01*
X283250Y637500D02*
Y647500D01*
X362750Y410000D02*
Y420000D01*
X357750Y415000D02*
X367750D01*
X441750Y387750D02*
X451250D01*
X446500Y383000D02*
Y392500D01*
X440500Y369500D02*
X476500D01*
X440500Y353500D02*
Y369500D01*
Y353500D02*
X476500D01*
Y369500D01*
X520000Y610000D02*
Y620000D01*
X515000Y615000D02*
X525000D01*
X500500Y404250D02*
X510000D01*
X505250Y399500D02*
Y409000D01*
X545250Y386750D02*
Y422750D01*
X529250D02*
X545250D01*
X529250Y386750D02*
Y422750D01*
Y386750D02*
X545250D01*
X362250Y577500D02*
X371250D01*
X366750Y573000D02*
Y582000D01*
X391250Y466500D02*
X401250D01*
X396250Y461500D02*
Y471500D01*
X424749Y574500D02*
X434250D01*
X429500Y569750D02*
Y579250D01*
X464000Y507000D02*
X473500D01*
X468750Y502250D02*
Y511750D01*
X530250Y280249D02*
X540250D01*
X535250Y275250D02*
Y285250D01*
X335000Y615249D02*
Y651249D01*
Y615249D02*
X351000D01*
Y651249D01*
X335000D02*
X351000D01*
X569500Y361750D02*
X605500D01*
Y377750D01*
X569500D02*
X605500D01*
X569500Y361750D02*
Y377750D01*
X483500Y354000D02*
X519500D01*
Y370000D01*
X483500D02*
X519500D01*
X483500Y354000D02*
Y370000D01*
D14*
X502248Y217747D02*
X572248D01*
X502248Y107748D02*
Y217747D01*
Y107748D02*
X572248D01*
Y217747D01*
X210499Y560245D02*
X219499D01*
Y589245D01*
X210499Y560245D02*
Y589245D01*
X219500Y630500D02*
Y659500D01*
X210500Y630500D02*
Y659500D01*
X219500D01*
X595499Y560245D02*
X604499D01*
Y589245D01*
X595499Y560245D02*
Y589245D01*
X604500Y630500D02*
Y659500D01*
X595500Y630500D02*
Y659500D01*
X604500D01*
X572248Y107748D02*
Y217747D01*
X502248Y107748D02*
X572248D01*
X502248D02*
Y217747D01*
X572248D01*
X257500Y553500D02*
Y666500D01*
X172500Y553500D02*
X257500D01*
X172500Y666500D02*
X257500D01*
X172500Y553500D02*
Y666500D01*
X338320Y584502D02*
Y664502D01*
X269320Y584502D02*
Y664502D01*
X338320D01*
X269320Y584502D02*
X338320D01*
X642500Y553500D02*
Y666500D01*
X557500Y553500D02*
X642500D01*
X557500Y666500D02*
X642500D01*
X557500Y553500D02*
Y666500D01*
X478500Y617500D02*
Y632500D01*
X451500Y617500D02*
Y632500D01*
Y617500D02*
X478500D01*
X451500Y632500D02*
X478500D01*
X442250Y568250D02*
Y583250D01*
X469250Y568250D02*
Y583250D01*
X442250D02*
X469250D01*
X442250Y568250D02*
X469250D01*
X272250Y516750D02*
Y550750D01*
X251250Y516750D02*
Y550750D01*
X272250D01*
X251250Y516750D02*
X272250D01*
X131000Y440500D02*
Y455500D01*
X139000Y440500D02*
Y455500D01*
X131000D02*
X139000D01*
X131000Y440500D02*
X139000D01*
X185000Y364500D02*
Y379500D01*
X177000Y364500D02*
Y379500D01*
Y364500D02*
X185000D01*
X177000Y379500D02*
X185000D01*
X183500Y623750D02*
Y645750D01*
X171500Y623750D02*
Y645750D01*
Y623750D02*
X183500D01*
X171500Y645750D02*
X183500D01*
X193000Y383500D02*
Y398500D01*
X185000Y383500D02*
Y398500D01*
Y383500D02*
X193000D01*
X185000Y398500D02*
X193000D01*
X458500Y373500D02*
X480500D01*
X458500Y385500D02*
X480500D01*
X458500Y373500D02*
Y385500D01*
X480500Y373500D02*
Y385500D01*
X506500Y492000D02*
X527500D01*
X506500Y503000D02*
X527500D01*
X506500Y492000D02*
Y503000D01*
X527500Y492000D02*
Y503000D01*
X531000Y357500D02*
Y379500D01*
X543000Y357500D02*
Y379500D01*
X531000D02*
X543000D01*
X531000Y357500D02*
X543000D01*
X549500Y460000D02*
Y481000D01*
X538500Y460000D02*
Y481000D01*
Y460000D02*
X549500D01*
X538500Y481000D02*
X549500D01*
X559000Y399250D02*
X580000D01*
X559000Y388250D02*
X580000D01*
Y399250D01*
X559000Y388250D02*
Y399250D01*
X605000Y392000D02*
Y414000D01*
X593000Y392000D02*
Y414000D01*
Y392000D02*
X605000D01*
X593000Y414000D02*
X605000D01*
X186000Y334500D02*
Y349500D01*
X178000Y334500D02*
Y349500D01*
Y334500D02*
X186000D01*
X178000Y349500D02*
X186000D01*
X262000Y440000D02*
X284000D01*
X262000Y452000D02*
X284000D01*
X262000Y440000D02*
Y452000D01*
X284000Y440000D02*
Y452000D01*
X273250Y623000D02*
Y662000D01*
X293250Y623000D02*
Y662000D01*
X273250D02*
X293250D01*
X273250Y623000D02*
X293250D01*
X339750Y403500D02*
X385750D01*
X339750Y426500D02*
X385750D01*
X339750Y403500D02*
Y426500D01*
X385750Y403500D02*
Y426500D01*
X440500Y376750D02*
Y398750D01*
X452500Y376750D02*
Y398750D01*
X440500D02*
X452500D01*
X440500Y376750D02*
X452500D01*
X484500Y559500D02*
X555500D01*
X484500Y670500D02*
X555500D01*
Y559500D02*
Y670500D01*
X484500Y559500D02*
Y670500D01*
X494750Y387250D02*
Y421250D01*
X515750Y387250D02*
Y421250D01*
X494750D02*
X515750D01*
X494750Y387250D02*
X515750D01*
X372250Y567000D02*
Y588000D01*
X361250Y567000D02*
Y588000D01*
Y567000D02*
X372250D01*
X361250Y588000D02*
X372250D01*
X375250Y428000D02*
Y505000D01*
X417250Y428000D02*
Y505000D01*
X375250D02*
X417250D01*
X375250Y428000D02*
X417250D01*
X423500Y563500D02*
Y585500D01*
X435500Y563500D02*
Y585500D01*
X423500D02*
X435500D01*
X423500Y563500D02*
X435500D01*
X474750Y496000D02*
Y518000D01*
X462750Y496000D02*
Y518000D01*
Y496000D02*
X474750D01*
X462750Y518000D02*
X474750D01*
X582500Y226499D02*
Y333499D01*
X488500Y226499D02*
Y333499D01*
X582500D01*
X488500Y226499D02*
X582500D01*
X498750Y220250D02*
X576250D01*
X498750Y105250D02*
Y220250D01*
Y105250D02*
X576250D01*
Y220250D01*
X532250Y162750D02*
X542250D01*
X537250Y157750D02*
Y167750D01*
D15*
X219499Y589245D02*
G03*
X210499Y589245I-4500J0D01*
G01*
X210500Y630500D02*
G03*
X219500Y630500I4500J0D01*
G01*
X250000Y610000D02*
G03*
X250000Y610000I-35000J0D01*
G01*
X255000D02*
G03*
X255000Y610000I-40000J0D01*
G01*
X604499Y589245D02*
G03*
X595499Y589245I-4500J0D01*
G01*
X595500Y630500D02*
G03*
X604500Y630500I4500J0D01*
G01*
X635000Y610000D02*
G03*
X635000Y610000I-35000J0D01*
G01*
X640000D02*
G03*
X640000Y610000I-40000J0D01*
G01*
X210499Y589245D02*
X219499D01*
X210500Y630500D02*
X219500D01*
X595499Y589245D02*
X604499D01*
X595500Y630500D02*
X604500D01*
D16*
X592150Y507750D02*
X604850D01*
X598500Y501400D02*
Y514100D01*
M02*
