G04*
G04 #@! TF.GenerationSoftware,Altium Limited,CircuitMaker,2.0.3 (2.0.3.51)*
G04*
G04 Layer_Color=20142*
%FSLAX25Y25*%
%MOIN*%
G70*
G04*
G04 #@! TF.SameCoordinates,36100E47-EE27-4898-87D7-6225316A82EF*
G04*
G04*
G04 #@! TF.FilePolarity,Negative*
G04*
G01*
G75*
%ADD15C,0.04724*%
G04:AMPARAMS|DCode=25|XSize=204.85mil|YSize=204.85mil|CornerRadius=13.84mil|HoleSize=0mil|Usage=FLASHONLY|Rotation=90.000|XOffset=0mil|YOffset=0mil|HoleType=Round|Shape=RoundedRectangle|*
%AMROUNDEDRECTD25*
21,1,0.20485,0.17716,0,0,90.0*
21,1,0.17716,0.20485,0,0,90.0*
1,1,0.02768,0.08858,0.08858*
1,1,0.02768,0.08858,-0.08858*
1,1,0.02768,-0.08858,-0.08858*
1,1,0.02768,-0.08858,0.08858*
%
%ADD25ROUNDEDRECTD25*%
G04:AMPARAMS|DCode=26|XSize=86.74mil|YSize=43.43mil|CornerRadius=9.32mil|HoleSize=0mil|Usage=FLASHONLY|Rotation=180.000|XOffset=0mil|YOffset=0mil|HoleType=Round|Shape=RoundedRectangle|*
%AMROUNDEDRECTD26*
21,1,0.08674,0.02480,0,0,180.0*
21,1,0.06811,0.04343,0,0,180.0*
1,1,0.01863,-0.03406,0.01240*
1,1,0.01863,0.03406,0.01240*
1,1,0.01863,0.03406,-0.01240*
1,1,0.01863,-0.03406,-0.01240*
%
%ADD26ROUNDEDRECTD26*%
G04:AMPARAMS|DCode=27|XSize=86.74mil|YSize=43.43mil|CornerRadius=9.32mil|HoleSize=0mil|Usage=FLASHONLY|Rotation=90.000|XOffset=0mil|YOffset=0mil|HoleType=Round|Shape=RoundedRectangle|*
%AMROUNDEDRECTD27*
21,1,0.08674,0.02480,0,0,90.0*
21,1,0.06811,0.04343,0,0,90.0*
1,1,0.01863,0.01240,0.03406*
1,1,0.01863,0.01240,-0.03406*
1,1,0.01863,-0.01240,-0.03406*
1,1,0.01863,-0.01240,0.03406*
%
%ADD27ROUNDEDRECTD27*%
%ADD28R,0.08674X0.16548*%
%ADD29R,0.13398X0.09068*%
%ADD30R,0.04343X0.09068*%
%ADD31R,0.05918X0.05328*%
%ADD32R,0.04147X0.04540*%
%ADD33R,0.05131X0.04540*%
%ADD34C,0.06800*%
%ADD35R,0.06800X0.06800*%
%ADD36R,0.06800X0.06800*%
%ADD37C,0.08674*%
%ADD38O,0.06800X0.09300*%
%ADD39C,0.06706*%
%ADD40C,0.08800*%
%ADD41O,0.09300X0.06800*%
%ADD42O,0.05524X0.07493*%
%ADD43C,0.00800*%
%ADD44O,0.04540X0.06115*%
%ADD45O,0.08800X0.11800*%
%ADD46C,0.05800*%
%ADD47C,0.12611*%
D15*
X262498Y328740D02*
G03*
X260136Y331102I-2362J-0D01*
G01*
X262498Y328740D02*
G03*
X260136Y331102I-2362J-0D01*
G01*
X260138Y62598D02*
G03*
X262500Y64961I0J2362D01*
G01*
X260138Y62598D02*
G03*
X262500Y64961I0J2362D01*
G01*
X35433Y331102D02*
G03*
X33071Y328740I0J-2362D01*
G01*
X35433Y331102D02*
G03*
X33071Y328740I0J-2362D01*
G01*
X151181Y64961D02*
G03*
X153543Y62598I2362J0D01*
G01*
X151181Y64961D02*
G03*
X153543Y62598I2362J0D01*
G01*
X33071Y191339D02*
G03*
X35433Y188976I2362J0D01*
G01*
X33071Y191339D02*
G03*
X35433Y188976I2362J0D01*
G01*
X262498Y328740D02*
X262500Y64961D01*
X153543Y62598D02*
X260138D01*
X35433Y331102D02*
X260136D01*
X33071Y191339D02*
Y328740D01*
X35433Y188976D02*
X151181D01*
Y64961D02*
Y188976D01*
D25*
X194606Y194264D02*
D03*
D26*
X234043Y220531D02*
D03*
Y175531D02*
D03*
X234106Y180531D02*
D03*
X234043Y185531D02*
D03*
Y190531D02*
D03*
Y195531D02*
D03*
Y200531D02*
D03*
Y205531D02*
D03*
Y210531D02*
D03*
Y215531D02*
D03*
D27*
X230106Y231496D02*
D03*
X165106D02*
D03*
X170106D02*
D03*
X175106D02*
D03*
X180106D02*
D03*
X185106D02*
D03*
X190106D02*
D03*
X195106D02*
D03*
X200106D02*
D03*
X205106D02*
D03*
X210106D02*
D03*
X215106D02*
D03*
X220106D02*
D03*
X225106D02*
D03*
Y164567D02*
D03*
X220106D02*
D03*
X215106D02*
D03*
X210106D02*
D03*
X205106D02*
D03*
X200106D02*
D03*
X195106D02*
D03*
X190106D02*
D03*
X185106D02*
D03*
X180106D02*
D03*
X175106D02*
D03*
X170106D02*
D03*
X165106D02*
D03*
X230106D02*
D03*
D28*
X80709Y291142D02*
D03*
Y319094D02*
D03*
X232283Y291142D02*
D03*
Y319094D02*
D03*
D29*
X115677Y322048D02*
D03*
D30*
X124732Y299607D02*
D03*
X115677D02*
D03*
X106622D02*
D03*
D31*
X250394Y151772D02*
D03*
Y142913D02*
D03*
D32*
X181791Y311024D02*
D03*
X176476D02*
D03*
X172835Y291634D02*
D03*
X178150D02*
D03*
D33*
X99114Y277953D02*
D03*
Y272244D02*
D03*
D34*
X201181Y79134D02*
D03*
X191181D02*
D03*
X211681D02*
D03*
X246457Y97374D02*
D03*
Y107874D02*
D03*
Y87374D02*
D03*
X49713Y228346D02*
D03*
Y238346D02*
D03*
Y217846D02*
D03*
Y308532D02*
D03*
Y318532D02*
D03*
Y298032D02*
D03*
X166929Y108661D02*
D03*
Y118661D02*
D03*
Y98161D02*
D03*
D35*
X221181Y79134D02*
D03*
D36*
X246457Y117374D02*
D03*
X49713Y208346D02*
D03*
Y288532D02*
D03*
X166929Y88661D02*
D03*
D37*
X141575Y312992D02*
D03*
X151575D02*
D03*
X161575D02*
D03*
D38*
X185295Y249016D02*
D03*
X175295D02*
D03*
D39*
X112992Y262402D02*
D03*
X132205D02*
D03*
D40*
X251693Y264862D02*
D03*
X211693D02*
D03*
D41*
X68701Y293799D02*
D03*
Y283799D02*
D03*
D42*
X219665Y112894D02*
D03*
Y145177D02*
D03*
X195492D02*
D03*
Y112894D02*
D03*
D43*
X202264Y115256D02*
D03*
Y142815D02*
D03*
D44*
X207579Y143898D02*
D03*
Y114173D02*
D03*
D45*
X200236Y279528D02*
D03*
X190236D02*
D03*
X160236D02*
D03*
X150236D02*
D03*
X140236D02*
D03*
X130236D02*
D03*
X120236D02*
D03*
X110236D02*
D03*
X170236D02*
D03*
X180236D02*
D03*
D46*
X240600Y151741D02*
D03*
X230000Y263000D02*
D03*
X227400Y142200D02*
D03*
X202573Y151527D02*
D03*
X229300Y151900D02*
D03*
X241500Y170400D02*
D03*
X185400Y290600D02*
D03*
X106500Y262000D02*
D03*
X215200Y324600D02*
D03*
X246000Y243200D02*
D03*
Y218800D02*
D03*
X252200Y181300D02*
D03*
X252100Y82700D02*
D03*
X93200Y230900D02*
D03*
X76280Y216820D02*
D03*
X75600Y237000D02*
D03*
X224000Y319244D02*
D03*
X239700Y298000D02*
D03*
X233800Y276500D02*
D03*
X214598Y209703D02*
D03*
X199300Y216800D02*
D03*
X215275Y209703D02*
D03*
X216103D02*
D03*
X181004Y193504D02*
D03*
X213400Y185600D02*
D03*
X151195Y229705D02*
D03*
X200600Y179600D02*
D03*
X165900Y207900D02*
D03*
X135700Y216800D02*
D03*
X121900Y234000D02*
D03*
X112992Y251492D02*
D03*
Y245792D02*
D03*
X101200Y234000D02*
D03*
X214300Y202100D02*
D03*
X256100Y231900D02*
D03*
X236000Y147000D02*
D03*
X244100Y161500D02*
D03*
X95000Y264800D02*
D03*
X92300Y292800D02*
D03*
X102700Y251300D02*
D03*
X181200Y124900D02*
D03*
X166100Y174700D02*
D03*
X184700Y108000D02*
D03*
X163100Y218500D02*
D03*
X123100Y220600D02*
D03*
X148900Y212100D02*
D03*
X157900Y213900D02*
D03*
X166929Y151971D02*
D03*
X79200Y247300D02*
D03*
X168800Y199300D02*
D03*
X220900Y248300D02*
D03*
X209400Y190100D02*
D03*
X187100Y306900D02*
D03*
X147400Y299500D02*
D03*
X251000Y276200D02*
D03*
X253200Y213100D02*
D03*
X89300Y249400D02*
D03*
X252100Y174300D02*
D03*
X176800Y198200D02*
D03*
X68600Y205900D02*
D03*
X59700Y277900D02*
D03*
X71150Y271150D02*
D03*
X53937Y253937D02*
D03*
X210106Y241994D02*
D03*
X164000Y266600D02*
D03*
X227800Y278800D02*
D03*
X220000Y307157D02*
D03*
X92600Y302600D02*
D03*
X87298Y237990D02*
D03*
X213302Y176575D02*
D03*
X84400Y277300D02*
D03*
X128300Y247400D02*
D03*
X122100Y204800D02*
D03*
X170500Y190700D02*
D03*
X110400Y291900D02*
D03*
X130100Y301200D02*
D03*
X172835Y302800D02*
D03*
X168800Y262600D02*
D03*
X66700Y239990D02*
D03*
X214598Y211703D02*
D03*
X160300Y224000D02*
D03*
X173400Y113700D02*
D03*
X159500Y134300D02*
D03*
X133900Y206900D02*
D03*
X177300Y178200D02*
D03*
X83600Y221400D02*
D03*
X232600Y131231D02*
D03*
X220400Y96500D02*
D03*
X210400Y129900D02*
D03*
D47*
X52362Y268504D02*
D03*
X248819Y200787D02*
D03*
X104724Y200492D02*
D03*
X249311Y71457D02*
D03*
X164567Y71850D02*
D03*
M02*
