G04*
G04 #@! TF.GenerationSoftware,Altium Limited,CircuitMaker,2.0.3 (2.0.3.51)*
G04*
G04 Layer_Physical_Order=1*
G04 Layer_Color=25308*
%FSLAX44Y44*%
%MOMM*%
G71*
G04*
G04 #@! TF.SameCoordinates,E9E563F1-332F-4466-8196-8310A66FFE87*
G04*
G04*
G04 #@! TF.FilePolarity,Positive*
G04*
G01*
G75*
%ADD12C,0.2540*%
%ADD13C,0.1000*%
%ADD14C,0.0500*%
%ADD15C,0.0100*%
%ADD16C,0.1270*%
G04:AMPARAMS|DCode=17|XSize=5mm|YSize=5mm|CornerRadius=0.25mm|HoleSize=0mm|Usage=FLASHONLY|Rotation=90.000|XOffset=0mm|YOffset=0mm|HoleType=Round|Shape=RoundedRectangle|*
%AMROUNDEDRECTD17*
21,1,5.0000,4.5000,0,0,90.0*
21,1,4.5000,5.0000,0,0,90.0*
1,1,0.5000,2.2500,2.2500*
1,1,0.5000,2.2500,-2.2500*
1,1,0.5000,-2.2500,-2.2500*
1,1,0.5000,-2.2500,2.2500*
%
%ADD17ROUNDEDRECTD17*%
G04:AMPARAMS|DCode=18|XSize=2mm|YSize=0.9mm|CornerRadius=0.135mm|HoleSize=0mm|Usage=FLASHONLY|Rotation=180.000|XOffset=0mm|YOffset=0mm|HoleType=Round|Shape=RoundedRectangle|*
%AMROUNDEDRECTD18*
21,1,2.0000,0.6300,0,0,180.0*
21,1,1.7300,0.9000,0,0,180.0*
1,1,0.2700,-0.8650,0.3150*
1,1,0.2700,0.8650,0.3150*
1,1,0.2700,0.8650,-0.3150*
1,1,0.2700,-0.8650,-0.3150*
%
%ADD18ROUNDEDRECTD18*%
G04:AMPARAMS|DCode=19|XSize=2mm|YSize=0.9mm|CornerRadius=0.135mm|HoleSize=0mm|Usage=FLASHONLY|Rotation=90.000|XOffset=0mm|YOffset=0mm|HoleType=Round|Shape=RoundedRectangle|*
%AMROUNDEDRECTD19*
21,1,2.0000,0.6300,0,0,90.0*
21,1,1.7300,0.9000,0,0,90.0*
1,1,0.2700,0.3150,0.8650*
1,1,0.2700,0.3150,-0.8650*
1,1,0.2700,-0.3150,-0.8650*
1,1,0.2700,-0.3150,0.8650*
%
%ADD19ROUNDEDRECTD19*%
%ADD20R,2.0000X4.0000*%
%ADD21R,3.2000X2.1000*%
%ADD22R,0.9000X2.1000*%
%ADD23R,1.3000X1.1500*%
%ADD24R,0.8500X0.9500*%
%ADD25R,1.1000X0.9500*%
%ADD47C,0.2040*%
%ADD48C,1.5240*%
%ADD49C,2.0000*%
%ADD50O,1.5240X2.1590*%
%ADD51C,1.5000*%
%ADD52C,2.0320*%
%ADD53O,2.1590X1.5240*%
%ADD54O,1.2000X1.7000*%
%ADD55O,0.9500X1.3500*%
%ADD56O,2.0320X2.7940*%
%ADD57C,1.2700*%
%ADD58C,3.0000*%
G36*
X587460Y626081D02*
Y622960D01*
X608177D01*
X661511Y569626D01*
Y514540D01*
X660241Y514200D01*
X659463Y515548D01*
X657098Y517913D01*
X654202Y519585D01*
X650972Y520450D01*
X647628D01*
X644398Y519585D01*
X641502Y517913D01*
X639138Y515548D01*
X637466Y512652D01*
X636600Y509422D01*
Y506078D01*
X637466Y502848D01*
X639138Y499952D01*
X641502Y497588D01*
X644398Y495916D01*
X647628Y495050D01*
X650972D01*
X654202Y495916D01*
X657098Y497588D01*
X659463Y499952D01*
X660241Y501300D01*
X661511Y500960D01*
Y359082D01*
X660338Y358596D01*
X633296Y385638D01*
Y586232D01*
X633019Y587621D01*
X632233Y588799D01*
X632233Y588799D01*
X620295Y600737D01*
X619117Y601523D01*
X617728Y601800D01*
X437669D01*
X436614Y603629D01*
X434958Y605284D01*
X432931Y606454D01*
X430670Y607060D01*
X428329D01*
X426068Y606454D01*
X424041Y605284D01*
X422386Y603629D01*
X421216Y601601D01*
X420610Y599340D01*
Y597000D01*
X420965Y595673D01*
X419827Y595015D01*
X419718Y595124D01*
X417691Y596294D01*
X415430Y596900D01*
X413089D01*
X411050Y596353D01*
X405130Y602273D01*
Y602642D01*
X404524Y604903D01*
X403354Y606931D01*
X401699Y608586D01*
X399671Y609756D01*
X399889Y611013D01*
X405042D01*
X406431Y611289D01*
X407609Y612076D01*
X414474Y618941D01*
X415560Y618315D01*
X418749Y617460D01*
X422051D01*
X425240Y618315D01*
X428100Y619966D01*
X430434Y622300D01*
X432085Y625160D01*
X432410Y626371D01*
X435122D01*
X439060Y622433D01*
X440237Y621647D01*
X441626Y621370D01*
X451460D01*
Y617710D01*
X455338D01*
X455683Y617193D01*
X458985Y613891D01*
X460163Y613105D01*
X461552Y612828D01*
X461552Y612828D01*
X571044D01*
X572433Y613105D01*
X573610Y613891D01*
X586287Y626567D01*
X587460Y626081D01*
D02*
G37*
G36*
X392809Y609756D02*
X390781Y608586D01*
X389126Y606931D01*
X387956Y604903D01*
X387350Y602642D01*
Y600302D01*
X387956Y598041D01*
X389126Y596013D01*
X390198Y594942D01*
X389672Y593672D01*
X333860D01*
Y609042D01*
X319780D01*
Y582962D01*
X319780D01*
X320073Y582254D01*
X308377Y570558D01*
X243840D01*
X242451Y570281D01*
X241273Y569495D01*
X235431Y563653D01*
X234645Y562475D01*
X234368Y561086D01*
Y551668D01*
X233403Y550702D01*
X232230Y551188D01*
Y566949D01*
X238232Y572950D01*
X274320D01*
X275709Y573227D01*
X276887Y574013D01*
X283386Y580513D01*
X284173Y581691D01*
X284426Y582962D01*
X287860D01*
Y609042D01*
X287860Y609042D01*
X287860D01*
X288194Y610213D01*
X288994Y611013D01*
X392591D01*
X392809Y609756D01*
D02*
G37*
G36*
X471478Y593270D02*
X470406Y592199D01*
X469350Y590370D01*
X454080D01*
X454080Y590370D01*
X452691Y590093D01*
X451513Y589307D01*
X451513Y589306D01*
X446433Y584227D01*
X445646Y583049D01*
X445645Y583040D01*
X442210D01*
Y579380D01*
X419632D01*
X419291Y580650D01*
X419718Y580896D01*
X421374Y582551D01*
X422544Y584579D01*
X423150Y586840D01*
Y589180D01*
X422794Y590507D01*
X423933Y591165D01*
X424041Y591056D01*
X426068Y589886D01*
X428329Y589280D01*
X430670D01*
X432931Y589886D01*
X434958Y591056D01*
X436614Y592711D01*
X437669Y594540D01*
X470952D01*
X471478Y593270D01*
D02*
G37*
G36*
X626036Y584729D02*
Y539616D01*
X624766Y539115D01*
X614199Y549683D01*
X613021Y550469D01*
X611911Y550690D01*
X612036Y551960D01*
X612540D01*
Y573230D01*
X600000D01*
X587460D01*
Y551960D01*
X587460D01*
X587326Y550746D01*
X585449D01*
X569749Y566447D01*
X568571Y567233D01*
X567182Y567510D01*
X470340D01*
X469879Y567418D01*
X469834Y567415D01*
X469290Y568636D01*
Y574480D01*
X463770D01*
Y568460D01*
X468380D01*
X468902Y567284D01*
X468886Y567190D01*
X468560Y566973D01*
X468138Y566766D01*
X467977Y566582D01*
X467773Y566447D01*
X467512Y566056D01*
X467202Y565704D01*
X467122Y565472D01*
X466987Y565269D01*
X466895Y564808D01*
X466743Y564364D01*
X466348Y561429D01*
X464485Y561183D01*
X461395Y559904D01*
X458742Y557868D01*
X456707Y555215D01*
X455787Y552996D01*
X454413D01*
X453493Y555215D01*
X451458Y557868D01*
X448805Y559904D01*
X445715Y561183D01*
X442400Y561620D01*
X439085Y561183D01*
X435995Y559904D01*
X433342Y557868D01*
X431306Y555215D01*
X430387Y552996D01*
X429013D01*
X428093Y555215D01*
X426058Y557868D01*
X423405Y559904D01*
X420315Y561183D01*
X417000Y561620D01*
X413685Y561183D01*
X410595Y559904D01*
X407942Y557868D01*
X405906Y555215D01*
X404987Y552996D01*
X403613D01*
X402693Y555215D01*
X400658Y557868D01*
X398005Y559904D01*
X394915Y561183D01*
X391600Y561620D01*
X388285Y561183D01*
X385195Y559904D01*
X382542Y557868D01*
X380507Y555215D01*
X379587Y552996D01*
X378213D01*
X377293Y555215D01*
X375258Y557868D01*
X372605Y559904D01*
X369515Y561183D01*
X366200Y561620D01*
X362885Y561183D01*
X359795Y559904D01*
X357142Y557868D01*
X355107Y555215D01*
X354187Y552996D01*
X352813D01*
X351893Y555215D01*
X349858Y557868D01*
X347877Y559388D01*
X347683Y560990D01*
X361167Y574474D01*
X381466D01*
X382522Y572645D01*
X384177Y570990D01*
X386205Y569820D01*
X388466Y569214D01*
X390806D01*
X393067Y569820D01*
X395095Y570990D01*
X396750Y572645D01*
X397920Y574673D01*
X398526Y576934D01*
Y577131D01*
X399699Y577617D01*
X404133Y573183D01*
X404133Y573183D01*
X405311Y572397D01*
X406700Y572120D01*
X406700Y572120D01*
X442210D01*
Y568460D01*
X461230D01*
Y575750D01*
X462500D01*
Y577020D01*
X469290D01*
Y580675D01*
X469922Y581018D01*
X470560Y581128D01*
X472061Y579626D01*
X474089Y578456D01*
X476350Y577850D01*
X478690D01*
X480951Y578456D01*
X482979Y579626D01*
X484634Y581281D01*
X485804Y583309D01*
X486410Y585570D01*
Y587910D01*
X485804Y590171D01*
X484634Y592199D01*
X483562Y593270D01*
X484088Y594540D01*
X587460D01*
Y575770D01*
X600000D01*
X612540D01*
Y594540D01*
X616225D01*
X626036Y584729D01*
D02*
G37*
G36*
X384073Y585482D02*
X384102Y585142D01*
X382522Y583563D01*
X381466Y581734D01*
X359664D01*
X358275Y581457D01*
X357097Y580671D01*
X338233Y561806D01*
X337849Y561231D01*
X337485Y561183D01*
X334395Y559904D01*
X331742Y557868D01*
X329706Y555215D01*
X328787Y552996D01*
X327413D01*
X326493Y555215D01*
X324458Y557868D01*
X321805Y559904D01*
X318715Y561183D01*
X316670Y561452D01*
Y545000D01*
Y528548D01*
X318715Y528817D01*
X321805Y530097D01*
X324458Y532132D01*
X326493Y534785D01*
X327413Y537005D01*
X328787D01*
X329706Y534785D01*
X331742Y532132D01*
X334395Y530097D01*
X337485Y528817D01*
X340800Y528381D01*
X344115Y528817D01*
X347205Y530097D01*
X349858Y532132D01*
X351893Y534785D01*
X352813Y537005D01*
X354187D01*
X355107Y534785D01*
X357142Y532132D01*
X359795Y530097D01*
X362570Y528947D01*
Y512826D01*
X362846Y511437D01*
X363633Y510259D01*
X382196Y491697D01*
Y423418D01*
X382473Y422029D01*
X383259Y420851D01*
X383833Y420278D01*
X383286Y418238D01*
Y415898D01*
X383892Y413637D01*
X385062Y411609D01*
X386717Y409954D01*
X388745Y408784D01*
X391006Y408178D01*
X393346D01*
X395607Y408784D01*
X397635Y409954D01*
X399290Y411609D01*
X400460Y413637D01*
X401066Y415898D01*
Y418238D01*
X400460Y420499D01*
X399290Y422527D01*
X397635Y424182D01*
X395607Y425352D01*
X393346Y425958D01*
X391006D01*
X390463Y425813D01*
X389456Y426586D01*
Y444238D01*
X390629Y444724D01*
X406326Y429026D01*
Y396240D01*
X406603Y394851D01*
X407389Y393673D01*
X413739Y387323D01*
X413739Y387323D01*
X414917Y386537D01*
X416306Y386260D01*
X420845D01*
X421407Y384990D01*
X420468Y383363D01*
X419862Y381102D01*
Y378761D01*
X420468Y376500D01*
X421638Y374473D01*
X423293Y372818D01*
X425321Y371647D01*
X427582Y371042D01*
X429922D01*
X429952Y371019D01*
Y363103D01*
X428682Y362577D01*
X401493Y389766D01*
X400315Y390553D01*
X398926Y390829D01*
X395384D01*
X394892Y392099D01*
X395888Y393825D01*
X396494Y396086D01*
Y398426D01*
X395888Y400687D01*
X394718Y402715D01*
X393063Y404370D01*
X391035Y405540D01*
X388774Y406146D01*
X386434D01*
X384394Y405599D01*
X380578Y409415D01*
Y486756D01*
X380578Y486756D01*
X380302Y488145D01*
X379515Y489323D01*
X379515Y489323D01*
X364771Y504067D01*
X363593Y504854D01*
X362204Y505130D01*
X355222D01*
X355156Y505375D01*
X353834Y507665D01*
X351965Y509534D01*
X349675Y510856D01*
X347122Y511540D01*
X344478D01*
X341925Y510856D01*
X339636Y509534D01*
X337766Y507665D01*
X336444Y505375D01*
X335760Y502822D01*
Y500178D01*
X336444Y497625D01*
X337766Y495335D01*
X339636Y493466D01*
X341925Y492144D01*
X342196Y492072D01*
X342029Y490802D01*
X334497D01*
X302541Y522759D01*
X301363Y523545D01*
X299974Y523822D01*
X285984D01*
X277442Y532364D01*
Y535003D01*
X278712Y535256D01*
X278906Y534785D01*
X280942Y532132D01*
X283595Y530097D01*
X286685Y528817D01*
X290000Y528381D01*
X293315Y528817D01*
X296405Y530097D01*
X299058Y532132D01*
X301093Y534785D01*
X302013Y537005D01*
X303387D01*
X304307Y534785D01*
X306342Y532132D01*
X308995Y530097D01*
X312085Y528817D01*
X314130Y528548D01*
Y545000D01*
Y561452D01*
X312085Y561183D01*
X308995Y559904D01*
X306342Y557868D01*
X304307Y555215D01*
X303387Y552996D01*
X302013D01*
X301093Y555215D01*
X299058Y557868D01*
X296405Y559904D01*
X293315Y561183D01*
X290000Y561620D01*
X286685Y561183D01*
X283595Y559904D01*
X280942Y557868D01*
X278906Y555215D01*
X277627Y552126D01*
X277572Y551707D01*
X276841Y551400D01*
X276243Y551343D01*
X272569Y555017D01*
X271391Y555803D01*
X270002Y556080D01*
X257852D01*
X256796Y557909D01*
X255141Y559564D01*
X253113Y560734D01*
X250852Y561340D01*
X248512D01*
X246251Y560734D01*
X244223Y559564D01*
X243383Y558723D01*
X242037Y559174D01*
X241936Y559891D01*
X245343Y563298D01*
X309880D01*
X311269Y563575D01*
X312447Y564361D01*
X329387Y581302D01*
X329387Y581302D01*
X330174Y582479D01*
X330270Y582962D01*
X333860D01*
Y586412D01*
X383706D01*
X384073Y585482D01*
D02*
G37*
G36*
X581379Y544549D02*
X582557Y543763D01*
X583205Y543634D01*
X583079Y542364D01*
X552958D01*
X551569Y542087D01*
X550391Y541301D01*
X550391Y541301D01*
X500401Y491310D01*
X463119D01*
X462593Y492580D01*
X495766Y525753D01*
X496553Y526931D01*
X496830Y528320D01*
Y528947D01*
X499605Y530097D01*
X502258Y532132D01*
X504293Y534785D01*
X505213Y537005D01*
X506587D01*
X507506Y534785D01*
X509542Y532132D01*
X512195Y530097D01*
X515285Y528817D01*
X518600Y528381D01*
X521915Y528817D01*
X525005Y530097D01*
X527658Y532132D01*
X529693Y534785D01*
X530973Y537875D01*
X531409Y541190D01*
Y548810D01*
X530973Y552126D01*
X529693Y555215D01*
X527658Y557868D01*
X526208Y558980D01*
X526639Y560250D01*
X565678D01*
X581379Y544549D01*
D02*
G37*
G36*
X456707Y534785D02*
X458742Y532132D01*
X461395Y530097D01*
X464485Y528817D01*
X467800Y528381D01*
X471115Y528817D01*
X474205Y530097D01*
X476858Y532132D01*
X478893Y534785D01*
X479813Y537005D01*
X481187D01*
X482107Y534785D01*
X484142Y532132D01*
X486795Y530097D01*
X487895Y529641D01*
X488142Y528396D01*
X457660Y497914D01*
X434594D01*
X433205Y497637D01*
X432027Y496851D01*
X415263Y480087D01*
X414477Y478909D01*
X414200Y477520D01*
Y432872D01*
X412930Y432486D01*
X412523Y433097D01*
X395230Y450390D01*
Y528947D01*
X398005Y530097D01*
X400658Y532132D01*
X402693Y534785D01*
X403613Y537005D01*
X404987D01*
X405906Y534785D01*
X407942Y532132D01*
X410595Y530097D01*
X413685Y528817D01*
X417000Y528381D01*
X420315Y528817D01*
X423405Y530097D01*
X426058Y532132D01*
X428093Y534785D01*
X429013Y537005D01*
X430387D01*
X431306Y534785D01*
X433342Y532132D01*
X435995Y530097D01*
X439085Y528817D01*
X442400Y528381D01*
X445715Y528817D01*
X448805Y530097D01*
X451458Y532132D01*
X453493Y534785D01*
X454413Y537005D01*
X455787D01*
X456707Y534785D01*
D02*
G37*
G36*
X137594Y556566D02*
Y550206D01*
X135765Y549150D01*
X134110Y547495D01*
X132940Y545467D01*
X132334Y543206D01*
Y540866D01*
X132940Y538605D01*
X134110Y536577D01*
X135765Y534922D01*
X136472Y534514D01*
X136389Y533247D01*
X134692Y532544D01*
X131819Y530624D01*
X129376Y528181D01*
X129051Y527695D01*
X127836Y528064D01*
Y554206D01*
X128663Y554840D01*
X131338D01*
X133922Y555532D01*
X136239Y556870D01*
X136421Y557052D01*
X137594Y556566D01*
D02*
G37*
G36*
X380507Y534785D02*
X382542Y532132D01*
X385195Y530097D01*
X387970Y528947D01*
Y497848D01*
X386797Y497362D01*
X369830Y514329D01*
Y528947D01*
X372605Y530097D01*
X375258Y532132D01*
X377293Y534785D01*
X378213Y537005D01*
X379587D01*
X380507Y534785D01*
D02*
G37*
G36*
X242160Y547699D02*
X242568Y546991D01*
X244223Y545336D01*
X246251Y544166D01*
X248398Y543591D01*
X248694Y543305D01*
X249077Y542588D01*
X249103Y542290D01*
X248846Y541000D01*
Y513184D01*
X249123Y511795D01*
X249909Y510617D01*
X261593Y498933D01*
X262771Y498147D01*
X264160Y497870D01*
X287579D01*
X287644Y497625D01*
X288966Y495335D01*
X290452Y493850D01*
X289926Y492580D01*
X262108D01*
X234911Y519776D01*
X235458Y521816D01*
Y524156D01*
X234852Y526417D01*
X233682Y528445D01*
X232027Y530100D01*
X229999Y531270D01*
X227738Y531876D01*
X226639D01*
X226113Y533146D01*
X240564Y547597D01*
X240565Y547597D01*
X240665Y547748D01*
X242160Y547699D01*
D02*
G37*
G36*
X271245Y528293D02*
X281913Y517626D01*
X281913Y517625D01*
X283091Y516838D01*
X284480Y516562D01*
X284480Y516562D01*
X298470D01*
X328138Y486895D01*
X327652Y485722D01*
X318262D01*
X318262Y485722D01*
X317459Y485562D01*
X316626Y486215D01*
X316415Y486534D01*
X316408Y486549D01*
X316738Y487780D01*
Y490120D01*
X316132Y492381D01*
X314962Y494409D01*
X313307Y496064D01*
X311279Y497234D01*
X309018Y497840D01*
X307728D01*
X306754Y499110D01*
X307040Y500178D01*
Y502822D01*
X306356Y505375D01*
X305034Y507665D01*
X303165Y509534D01*
X300875Y510856D01*
X298322Y511540D01*
X295678D01*
X293125Y510856D01*
X290835Y509534D01*
X288966Y507665D01*
X287644Y505375D01*
X287579Y505130D01*
X265664D01*
X256106Y514688D01*
Y519210D01*
X260480D01*
Y526500D01*
X261750D01*
Y527770D01*
X269790D01*
Y528186D01*
X271060Y528571D01*
X271245Y528293D01*
D02*
G37*
G36*
X217678Y522915D02*
Y521816D01*
X218284Y519555D01*
X219454Y517527D01*
X221109Y515872D01*
X223137Y514702D01*
X225398Y514096D01*
X227738D01*
X229778Y514643D01*
X258037Y486383D01*
X259215Y485597D01*
X260604Y485320D01*
X299678D01*
X300620Y483690D01*
X300203Y482420D01*
X236810D01*
X236323Y483593D01*
X236730Y483999D01*
X237900Y486027D01*
X238506Y488288D01*
Y490628D01*
X237900Y492889D01*
X236730Y494917D01*
X235075Y496572D01*
X233047Y497742D01*
X230786Y498348D01*
X228446D01*
X226185Y497742D01*
X224157Y496572D01*
X222502Y494917D01*
X221446Y493088D01*
X209399D01*
X208010Y492811D01*
X206832Y492025D01*
X201373Y486565D01*
X200781Y486660D01*
X200118Y488051D01*
X200562Y488821D01*
X201168Y491082D01*
Y493422D01*
X200562Y495683D01*
X199392Y497711D01*
X197737Y499366D01*
X195908Y500422D01*
Y502940D01*
X216408Y523441D01*
X217678Y522915D01*
D02*
G37*
G36*
X599112Y526816D02*
Y478941D01*
X597842Y478816D01*
X597824Y478909D01*
X597037Y480087D01*
X597037Y480087D01*
X585794Y491330D01*
X584616Y492117D01*
X583227Y492393D01*
X562875D01*
X562875Y492393D01*
X561486Y492117D01*
X560308Y491330D01*
X555208Y486230D01*
X507246D01*
X506760Y487403D01*
X554462Y535104D01*
X590825D01*
X599112Y526816D01*
D02*
G37*
G36*
X129513Y495781D02*
X130691Y494995D01*
X132080Y494718D01*
X179453D01*
X180842Y494995D01*
X182020Y495781D01*
X183355Y497117D01*
X184371Y496337D01*
X183994Y495683D01*
X183388Y493422D01*
Y491082D01*
X183994Y488821D01*
X184905Y487242D01*
X184308Y485972D01*
X138172D01*
X136783Y485695D01*
X135605Y484909D01*
X125187Y474490D01*
X124014Y474976D01*
Y499622D01*
X125187Y500108D01*
X129513Y495781D01*
D02*
G37*
G36*
X590840Y476017D02*
Y435521D01*
X589803Y435314D01*
X589025Y434795D01*
X588120Y434558D01*
X587216Y434795D01*
X586438Y435314D01*
X584920Y435616D01*
X578620D01*
X577103Y435314D01*
X576325Y434795D01*
X575420Y434558D01*
X574516Y434795D01*
X573738Y435314D01*
X572220Y435616D01*
X565920D01*
X564403Y435314D01*
X563625Y434795D01*
X562720Y434558D01*
X561816Y434795D01*
X561038Y435314D01*
X559520Y435616D01*
X556930D01*
X556296Y436886D01*
X557178Y438414D01*
X557784Y440675D01*
Y443016D01*
X557178Y445277D01*
X556008Y447304D01*
X554353Y448960D01*
X552325Y450130D01*
X550064Y450736D01*
X547724D01*
X547116Y450573D01*
X545846Y451547D01*
Y452782D01*
X545240Y455043D01*
X545157Y455188D01*
X565130Y475160D01*
X567902D01*
X568958Y473331D01*
X570613Y471676D01*
X572641Y470506D01*
X574902Y469900D01*
X577242D01*
X579503Y470506D01*
X581531Y471676D01*
X583186Y473331D01*
X584356Y475359D01*
X584962Y477620D01*
Y479960D01*
X584911Y480150D01*
X586050Y480807D01*
X590840Y476017D01*
D02*
G37*
G36*
X557544Y477841D02*
X539766Y460063D01*
X538126Y460502D01*
X535786D01*
X533525Y459896D01*
X531497Y458726D01*
X529842Y457071D01*
X528672Y455043D01*
X528066Y452782D01*
Y450442D01*
X528288Y449613D01*
X527150Y448955D01*
X526413Y449692D01*
X524385Y450862D01*
X522124Y451468D01*
X519784D01*
X517523Y450862D01*
X515495Y449692D01*
X513840Y448037D01*
X512670Y446010D01*
X512064Y443749D01*
Y441408D01*
X512670Y439147D01*
X513840Y437120D01*
X514227Y436733D01*
X513872Y435368D01*
X513602Y435314D01*
X512825Y434795D01*
X511920Y434558D01*
X511016Y434795D01*
X510238Y435314D01*
X508720Y435616D01*
X502420D01*
X500902Y435314D01*
X500125Y434795D01*
X499220Y434558D01*
X498316Y434795D01*
X497538Y435314D01*
X496020Y435616D01*
X489720D01*
X488203Y435314D01*
X487425Y434795D01*
X486520Y434558D01*
X485616Y434795D01*
X484838Y435314D01*
X483800Y435521D01*
Y438252D01*
X485629Y439308D01*
X487284Y440963D01*
X488454Y442990D01*
X489060Y445251D01*
Y447592D01*
X488454Y449853D01*
X487284Y451880D01*
X485629Y453535D01*
X485001Y453898D01*
X485085Y455165D01*
X485774Y455450D01*
X487896Y457079D01*
X489524Y459201D01*
X490548Y461673D01*
X490897Y464325D01*
Y466230D01*
X480650D01*
X470402D01*
Y464325D01*
X470751Y461673D01*
X471775Y459201D01*
X473404Y457079D01*
X475526Y455450D01*
X475597Y454047D01*
X474712Y453535D01*
X473056Y451880D01*
X471886Y449853D01*
X471280Y447592D01*
Y445858D01*
X470125Y445462D01*
X470010Y445459D01*
X461052Y454417D01*
X461189Y456076D01*
X462496Y457079D01*
X464124Y459201D01*
X465148Y461673D01*
X465498Y464325D01*
Y470675D01*
X465148Y473327D01*
X464124Y475799D01*
X462666Y477700D01*
X463026Y478970D01*
X472874D01*
X473234Y477700D01*
X471775Y475799D01*
X470751Y473327D01*
X470402Y470675D01*
Y468770D01*
X480650D01*
X490897D01*
Y470675D01*
X490548Y473327D01*
X489524Y475799D01*
X488066Y477700D01*
X488426Y478970D01*
X556712D01*
X556918Y479011D01*
X557544Y477841D01*
D02*
G37*
G36*
X363658Y479060D02*
Y413496D01*
X356077Y405915D01*
X355290Y404737D01*
X355014Y403348D01*
Y394865D01*
X353744Y394339D01*
X309653Y438431D01*
X308475Y439217D01*
X307086Y439494D01*
X228134D01*
X227078Y441323D01*
X225423Y442978D01*
X223395Y444148D01*
X221134Y444754D01*
X218794D01*
X216533Y444148D01*
X215367Y443475D01*
X213981Y444078D01*
X213869Y444702D01*
X216388Y447220D01*
X336296D01*
X337685Y447497D01*
X338863Y448283D01*
X338928Y448349D01*
X340968Y447802D01*
X343308D01*
X345569Y448408D01*
X347597Y449578D01*
X349252Y451233D01*
X350422Y453261D01*
X351028Y455522D01*
Y457862D01*
X350422Y460123D01*
X349371Y461944D01*
X349674Y462575D01*
X350148Y463050D01*
X351128Y462788D01*
X353468D01*
X355729Y463394D01*
X357757Y464564D01*
X359412Y466219D01*
X360582Y468247D01*
X361188Y470508D01*
Y472848D01*
X360582Y475109D01*
X359412Y477137D01*
X357757Y478792D01*
X355729Y479962D01*
X353468Y480568D01*
X351128D01*
X349088Y480021D01*
X346740Y482369D01*
X347226Y483542D01*
X359176D01*
X363658Y479060D01*
D02*
G37*
G36*
X450723Y489384D02*
X441425Y480087D01*
X440639Y478909D01*
X440362Y477520D01*
Y456184D01*
X440639Y454795D01*
X441425Y453617D01*
X444473Y450569D01*
X444473Y450569D01*
X445651Y449782D01*
X447040Y449506D01*
X447040Y449506D01*
X455696D01*
X457170Y448033D01*
X456684Y446860D01*
X439462D01*
X438406Y448689D01*
X436751Y450344D01*
X434723Y451514D01*
X432462Y452120D01*
X430122D01*
X427861Y451514D01*
X425833Y450344D01*
X424178Y448689D01*
X423008Y446661D01*
X422730Y445624D01*
X421460Y445791D01*
Y476017D01*
X436097Y490654D01*
X450197D01*
X450723Y489384D01*
D02*
G37*
G36*
X142674Y435122D02*
Y433353D01*
X141501Y432867D01*
X141238Y433130D01*
X138922Y434468D01*
X136338Y435160D01*
X133662D01*
X131078Y434468D01*
X130817Y434316D01*
X124014Y441120D01*
Y452124D01*
X125187Y452610D01*
X142674Y435122D01*
D02*
G37*
G36*
X576325Y411205D02*
X577103Y410686D01*
X578620Y410384D01*
X584770D01*
X584855Y410272D01*
X584935Y408967D01*
X584935Y408966D01*
X574775Y398807D01*
X573989Y397629D01*
X573712Y396240D01*
Y343196D01*
X571883Y342140D01*
X570228Y340485D01*
X569058Y338457D01*
X568452Y336196D01*
Y333856D01*
X569058Y331595D01*
X570228Y329567D01*
X571883Y327912D01*
X573911Y326742D01*
X576172Y326136D01*
X578512D01*
X580773Y326742D01*
X582801Y327912D01*
X584456Y329567D01*
X585626Y331595D01*
X586232Y333856D01*
Y336196D01*
X585626Y338457D01*
X584456Y340485D01*
X582801Y342140D01*
X580972Y343196D01*
Y394737D01*
X589006Y402770D01*
X593223D01*
X593608Y401500D01*
X593016Y401104D01*
X592156Y399818D01*
X591854Y398300D01*
Y392000D01*
X592156Y390482D01*
X592676Y389705D01*
X592912Y388800D01*
X592676Y387895D01*
X592156Y387118D01*
X591854Y385600D01*
Y379300D01*
X592156Y377782D01*
X592676Y377005D01*
X592912Y376100D01*
X592676Y375195D01*
X592156Y374418D01*
X591854Y372900D01*
Y366600D01*
X592156Y365082D01*
X592676Y364305D01*
X592912Y363400D01*
X592676Y362495D01*
X592156Y361718D01*
X591854Y360200D01*
Y353900D01*
X592156Y352382D01*
X592676Y351604D01*
X592912Y350700D01*
X592676Y349795D01*
X592156Y349018D01*
X591854Y347500D01*
Y341200D01*
X592156Y339682D01*
X592676Y338904D01*
X592912Y338000D01*
X592676Y337095D01*
X592156Y336318D01*
X591854Y334800D01*
Y328500D01*
X592156Y326982D01*
X592676Y326204D01*
X592912Y325300D01*
X592676Y324395D01*
X592156Y323618D01*
X591854Y322100D01*
Y315800D01*
X592156Y314282D01*
X592676Y313505D01*
X592912Y312600D01*
X592676Y311695D01*
X592156Y310918D01*
X591854Y309400D01*
Y303100D01*
X592156Y301582D01*
X593016Y300295D01*
X592786Y298921D01*
X592316Y298218D01*
X592014Y296700D01*
Y290400D01*
X592316Y288882D01*
X592786Y288178D01*
X593016Y286804D01*
X592156Y285518D01*
X591854Y284000D01*
Y281333D01*
X590681Y280847D01*
X561668Y309860D01*
Y360662D01*
X561750Y360805D01*
X562356Y363066D01*
Y365406D01*
X561750Y367667D01*
X560580Y369695D01*
X558925Y371350D01*
X556897Y372520D01*
X554636Y373126D01*
X552296D01*
X550035Y372520D01*
X548456Y371609D01*
X547186Y372206D01*
Y373571D01*
X547300Y374146D01*
Y410479D01*
X548338Y410686D01*
X549116Y411205D01*
X550020Y411442D01*
X550925Y411205D01*
X551702Y410686D01*
X553220Y410384D01*
X559520D01*
X561038Y410686D01*
X561816Y411205D01*
X562720Y411442D01*
X563625Y411205D01*
X564403Y410686D01*
X565920Y410384D01*
X572220D01*
X573738Y410686D01*
X574516Y411205D01*
X575420Y411442D01*
X576325Y411205D01*
D02*
G37*
G36*
X525525D02*
X526302Y410686D01*
X527820Y410384D01*
X534120D01*
X535638Y410686D01*
X536416Y411205D01*
X537320Y411442D01*
X538225Y411205D01*
X539002Y410686D01*
X540041Y410479D01*
Y374606D01*
X539926Y374032D01*
Y343483D01*
X538097Y342427D01*
X537695Y342025D01*
X536522Y342511D01*
Y361188D01*
X536522Y361188D01*
X536245Y362577D01*
X535459Y363755D01*
X519137Y380076D01*
X519684Y382116D01*
Y384456D01*
X519078Y386717D01*
X517908Y388745D01*
X516253Y390400D01*
X514225Y391570D01*
X511964Y392176D01*
X509624D01*
X507363Y391570D01*
X505335Y390400D01*
X503680Y388745D01*
X502510Y386717D01*
X501904Y384456D01*
Y382116D01*
X502510Y379855D01*
X503680Y377827D01*
X505335Y376172D01*
X507363Y375002D01*
X509624Y374396D01*
X511964D01*
X514004Y374943D01*
X529262Y359684D01*
Y356758D01*
X527992Y355832D01*
X526800Y356069D01*
X505570D01*
Y328430D01*
X503030D01*
Y356069D01*
X481800D01*
X480388Y355788D01*
X479118Y356610D01*
Y405405D01*
X482737Y409024D01*
X483524Y410201D01*
X483570Y410433D01*
X484838Y410686D01*
X485616Y411205D01*
X486520Y411442D01*
X487425Y411205D01*
X488203Y410686D01*
X489720Y410384D01*
X496020D01*
X497538Y410686D01*
X498316Y411205D01*
X499220Y411442D01*
X500125Y411205D01*
X500902Y410686D01*
X502420Y410384D01*
X508720D01*
X510238Y410686D01*
X511016Y411205D01*
X511920Y411442D01*
X512825Y411205D01*
X513602Y410686D01*
X515120Y410384D01*
X521420D01*
X522938Y410686D01*
X523716Y411205D01*
X524620Y411442D01*
X525525Y411205D01*
D02*
G37*
G36*
X462025D02*
X462803Y410686D01*
X464320Y410384D01*
X470620D01*
X472138Y410686D01*
X472736Y411085D01*
X473545Y410098D01*
X472921Y409475D01*
X472135Y408297D01*
X471858Y406908D01*
Y343869D01*
X470588Y343702D01*
X470564Y343791D01*
X469394Y345819D01*
X467739Y347474D01*
X465910Y348530D01*
Y389890D01*
X465633Y391279D01*
X464847Y392457D01*
X447909Y409394D01*
X448074Y410788D01*
X448947Y411304D01*
X449325Y411205D01*
X450103Y410686D01*
X451620Y410384D01*
X457920D01*
X459438Y410686D01*
X460216Y411205D01*
X461120Y411442D01*
X462025Y411205D01*
D02*
G37*
G36*
X373318Y485252D02*
Y407912D01*
X373352Y407742D01*
X372219Y406929D01*
X371985Y407064D01*
X369859Y407634D01*
X369395Y408466D01*
X369248Y408819D01*
X369855Y409425D01*
X370642Y410603D01*
X370918Y411992D01*
Y480564D01*
X370918Y480564D01*
X370642Y481953D01*
X369855Y483131D01*
X363247Y489739D01*
X362069Y490525D01*
X360680Y490802D01*
X349572D01*
X349404Y492072D01*
X349675Y492144D01*
X351965Y493466D01*
X353834Y495335D01*
X355156Y497625D01*
X355222Y497870D01*
X360700D01*
X373318Y485252D01*
D02*
G37*
G36*
X415263Y409675D02*
X424665Y400273D01*
X424665Y400273D01*
X425843Y399487D01*
X427232Y399210D01*
X434617D01*
X441886Y391941D01*
Y389781D01*
X440616Y389255D01*
X437415Y392457D01*
X436237Y393243D01*
X434848Y393520D01*
X417809D01*
X413586Y397743D01*
Y409900D01*
X414856Y410285D01*
X415263Y409675D01*
D02*
G37*
G36*
X645176Y363491D02*
X644577Y362371D01*
X643728Y362540D01*
X640273D01*
X636884Y361866D01*
X633692Y360544D01*
X630819Y358624D01*
X628376Y356181D01*
X627454Y354801D01*
X626184Y355186D01*
Y380712D01*
X627454Y381213D01*
X645176Y363491D01*
D02*
G37*
G36*
X377568Y384633D02*
X378745Y383846D01*
X380134Y383570D01*
X397423D01*
X423740Y357253D01*
Y348742D01*
X422470Y348575D01*
X422050Y350141D01*
X420880Y352169D01*
X419225Y353824D01*
X417197Y354994D01*
X414936Y355600D01*
X412596D01*
X410335Y354994D01*
X408307Y353824D01*
X406652Y352169D01*
X406590Y352062D01*
X405331Y351896D01*
X368607Y388620D01*
X369133Y389890D01*
X369724D01*
X371764Y390437D01*
X377568Y384633D01*
D02*
G37*
G36*
X550035Y355952D02*
X552296Y355346D01*
X554408D01*
Y308356D01*
X554685Y306967D01*
X555471Y305789D01*
X594471Y266790D01*
X593985Y265616D01*
X591320D01*
X589803Y265315D01*
X589025Y264795D01*
X588120Y264558D01*
X587216Y264795D01*
X586438Y265315D01*
X584920Y265616D01*
X578620D01*
X577103Y265315D01*
X576325Y264795D01*
X575420Y264558D01*
X574516Y264795D01*
X573738Y265315D01*
X572220Y265616D01*
X565920D01*
X564403Y265315D01*
X563625Y264795D01*
X562720Y264558D01*
X561816Y264795D01*
X561038Y265315D01*
X560000Y265521D01*
Y290974D01*
X559724Y292363D01*
X558937Y293540D01*
X536522Y315956D01*
Y328116D01*
X537695Y328602D01*
X538097Y328200D01*
X540125Y327029D01*
X542386Y326423D01*
X544726D01*
X546987Y327029D01*
X549015Y328200D01*
X550670Y329855D01*
X551840Y331882D01*
X552446Y334143D01*
Y336484D01*
X551840Y338745D01*
X550670Y340772D01*
X549015Y342427D01*
X547186Y343483D01*
Y356266D01*
X548456Y356863D01*
X550035Y355952D01*
D02*
G37*
G36*
X441199Y304130D02*
X442082Y303762D01*
X442163Y303357D01*
X442949Y302180D01*
X454113Y291016D01*
X455291Y290229D01*
X456680Y289953D01*
X461944D01*
X485412Y266485D01*
X484854Y265382D01*
X484774Y265327D01*
X483320Y265616D01*
X477020D01*
X475503Y265315D01*
X474725Y264795D01*
X473820Y264558D01*
X472916Y264795D01*
X472138Y265315D01*
X470620Y265616D01*
X464320D01*
X462803Y265315D01*
X462025Y264795D01*
X461120Y264558D01*
X460216Y264795D01*
X459438Y265315D01*
X459082Y265385D01*
X458400Y266446D01*
X458124Y267835D01*
X457337Y269013D01*
X457337Y269013D01*
X452007Y274343D01*
X450829Y275129D01*
X449440Y275406D01*
X422890D01*
X422472Y275823D01*
Y290697D01*
X423742Y291223D01*
X425239Y289726D01*
X424692Y287686D01*
Y285346D01*
X425298Y283085D01*
X426468Y281057D01*
X428124Y279402D01*
X430151Y278232D01*
X432412Y277626D01*
X434752D01*
X437014Y278232D01*
X439041Y279402D01*
X440696Y281057D01*
X441866Y283085D01*
X442472Y285346D01*
Y287686D01*
X441866Y289947D01*
X440696Y291975D01*
X439041Y293630D01*
X437014Y294800D01*
X434752Y295406D01*
X432412D01*
X430372Y294860D01*
X429076Y296156D01*
Y303434D01*
X430346Y304031D01*
X431925Y303120D01*
X434186Y302514D01*
X436526D01*
X438787Y303120D01*
X440696Y304222D01*
X441199Y304130D01*
D02*
G37*
G36*
X430640Y410384D02*
X432520D01*
X434038Y410686D01*
X434816Y411205D01*
X435720Y411442D01*
X436625Y411205D01*
X437402Y410686D01*
X438441Y410479D01*
Y410100D01*
X438717Y408711D01*
X439504Y407533D01*
X458650Y388386D01*
Y348530D01*
X456821Y347474D01*
X455166Y345819D01*
X453996Y343791D01*
X453390Y341530D01*
Y339190D01*
X453996Y336929D01*
X455166Y334901D01*
X456821Y333246D01*
X458849Y332076D01*
X461110Y331470D01*
X463450D01*
X465711Y332076D01*
X467739Y333246D01*
X469394Y334901D01*
X470564Y336929D01*
X470588Y337019D01*
X471858Y336851D01*
Y300490D01*
X470685Y300004D01*
X463505Y307184D01*
X463960Y307973D01*
X464566Y310234D01*
Y312574D01*
X463960Y314835D01*
X462790Y316863D01*
X461135Y318518D01*
X459107Y319688D01*
X456846Y320294D01*
X454506D01*
X452245Y319688D01*
X450416Y318632D01*
X449146Y319049D01*
Y393444D01*
X449146Y393445D01*
X448870Y394833D01*
X448083Y396011D01*
X448083Y396011D01*
X438687Y405407D01*
X437510Y406193D01*
X436120Y406470D01*
X428736D01*
X426051Y409154D01*
X426079Y409355D01*
X426618Y410384D01*
X428100D01*
Y423000D01*
X430640D01*
Y410384D01*
D02*
G37*
G36*
X419997Y268423D02*
X421386Y268146D01*
X421386Y268146D01*
X447937D01*
X449660Y266423D01*
X449480Y265227D01*
X448283Y264594D01*
X447516Y264795D01*
X446738Y265315D01*
X445220Y265616D01*
X438920D01*
X437402Y265315D01*
X436625Y264795D01*
X435720Y264558D01*
X434816Y264795D01*
X434038Y265315D01*
X432520Y265616D01*
X430640D01*
Y253000D01*
Y240384D01*
X432520D01*
X434038Y240686D01*
X434816Y241206D01*
X435720Y241442D01*
X436625Y241206D01*
X437402Y240686D01*
X438441Y240480D01*
Y230014D01*
X438717Y228625D01*
X439463Y227508D01*
X438912Y225452D01*
Y223112D01*
X439518Y220851D01*
X440688Y218823D01*
X442343Y217168D01*
X444371Y215998D01*
X446632Y215392D01*
X448972D01*
X451233Y215998D01*
X453261Y217168D01*
X454916Y218823D01*
X456086Y220851D01*
X456692Y223112D01*
Y225452D01*
X456086Y227713D01*
X454916Y229741D01*
X453261Y231396D01*
X451233Y232566D01*
X448972Y233172D01*
X446632D01*
X445700Y233887D01*
Y240480D01*
X446738Y240686D01*
X447516Y241206D01*
X448420Y241442D01*
X449325Y241206D01*
X450103Y240686D01*
X451620Y240384D01*
X457920D01*
X459438Y240686D01*
X460216Y241206D01*
X461120Y241442D01*
X462025Y241206D01*
X462803Y240686D01*
X464320Y240384D01*
X470620D01*
X472138Y240686D01*
X472916Y241206D01*
X473820Y241442D01*
X474725Y241206D01*
X475503Y240686D01*
X477020Y240384D01*
X483320D01*
X484838Y240686D01*
X485616Y241206D01*
X486520Y241442D01*
X487425Y241206D01*
X488203Y240686D01*
X489720Y240384D01*
X496020D01*
X497538Y240686D01*
X498316Y241206D01*
X499220Y241442D01*
X500125Y241206D01*
X500902Y240686D01*
X501940Y240480D01*
Y230268D01*
X502217Y228879D01*
X503004Y227701D01*
X512498Y218207D01*
Y213886D01*
X511359Y213325D01*
X510857Y213710D01*
X508780Y214570D01*
X506550Y214864D01*
X504321Y214570D01*
X502243Y213710D01*
X500459Y212341D01*
X499090Y210557D01*
X498230Y208479D01*
X497937Y206250D01*
Y201250D01*
X498230Y199021D01*
X499090Y196943D01*
X500459Y195159D01*
X502243Y193790D01*
X504321Y192930D01*
X506550Y192637D01*
X508780Y192930D01*
X510857Y193790D01*
X511359Y194176D01*
X512498Y193614D01*
Y131886D01*
X511359Y131324D01*
X510857Y131709D01*
X508780Y132570D01*
X506550Y132864D01*
X504321Y132570D01*
X502243Y131709D01*
X500459Y130341D01*
X499090Y128557D01*
X498230Y126479D01*
X497937Y124250D01*
Y119250D01*
X498230Y117020D01*
X499090Y114943D01*
X500459Y113159D01*
X502243Y111790D01*
X504321Y110930D01*
X506550Y110636D01*
X508780Y110930D01*
X510857Y111790D01*
X511359Y112176D01*
X512498Y111614D01*
Y105156D01*
X512775Y103767D01*
X513561Y102589D01*
X525753Y90398D01*
X525753Y90397D01*
X526498Y89900D01*
X526518Y89807D01*
X526113Y88630D01*
X516705D01*
X417650Y187686D01*
Y268725D01*
X418324Y269004D01*
X418920Y269142D01*
X419997Y268423D01*
D02*
G37*
G36*
X552741Y289470D02*
Y265521D01*
X551702Y265315D01*
X550925Y264795D01*
X550020Y264558D01*
X549116Y264795D01*
X548338Y265315D01*
X547300Y265521D01*
Y267606D01*
X547300Y267606D01*
X547024Y268995D01*
X546237Y270172D01*
X530887Y285523D01*
X529709Y286309D01*
X528320Y286586D01*
X526878D01*
X526391Y287759D01*
X526544Y287911D01*
X527714Y289939D01*
X528320Y292200D01*
Y294540D01*
X527714Y296801D01*
X526544Y298829D01*
X525851Y299521D01*
X526377Y300791D01*
X526800D01*
X528767Y301183D01*
X530434Y302297D01*
X531548Y303964D01*
X531939Y305930D01*
Y308612D01*
X533112Y309098D01*
X552741Y289470D01*
D02*
G37*
G36*
X539445Y266698D02*
X539027Y265319D01*
X539002Y265315D01*
X538225Y264795D01*
X537320Y264558D01*
X536416Y264795D01*
X535638Y265315D01*
X534120Y265616D01*
X527820D01*
X526302Y265315D01*
X525525Y264795D01*
X524620Y264558D01*
X523716Y264795D01*
X522938Y265315D01*
X521420Y265616D01*
X515120D01*
X513602Y265315D01*
X512825Y264795D01*
X511920Y264558D01*
X511016Y264795D01*
X510238Y265315D01*
X508720Y265616D01*
X502420D01*
X500902Y265315D01*
X500125Y264795D01*
X499220Y264558D01*
X498316Y264795D01*
X497538Y265315D01*
X496203Y265580D01*
X495437Y266727D01*
X495437Y266727D01*
X484011Y278153D01*
X484496Y279326D01*
X526816D01*
X539445Y266698D01*
D02*
G37*
G36*
X576325Y241206D02*
X577103Y240686D01*
X578620Y240384D01*
X584920D01*
X586438Y240686D01*
X587216Y241206D01*
X588120Y241442D01*
X589025Y241206D01*
X589803Y240686D01*
X591320Y240384D01*
X597620D01*
X598130Y240485D01*
X599112Y239680D01*
Y192049D01*
X597842Y191632D01*
X596212Y192574D01*
Y213360D01*
X595935Y214749D01*
X595149Y215927D01*
X595149Y215927D01*
X578668Y232407D01*
X577491Y233194D01*
X576101Y233470D01*
X546871D01*
X541227Y239114D01*
X541753Y240384D01*
X546820D01*
X548338Y240686D01*
X549116Y241206D01*
X550020Y241442D01*
X550925Y241206D01*
X551702Y240686D01*
X553220Y240384D01*
X559520D01*
X561038Y240686D01*
X561816Y241206D01*
X562720Y241442D01*
X563625Y241206D01*
X564403Y240686D01*
X565920Y240384D01*
X572220D01*
X573738Y240686D01*
X574516Y241206D01*
X575420Y241442D01*
X576325Y241206D01*
D02*
G37*
G36*
X512825D02*
X513602Y240686D01*
X514682Y240471D01*
X514917Y239293D01*
X515704Y238115D01*
X541962Y211856D01*
Y209492D01*
X540692Y208965D01*
X539153Y209602D01*
X537250Y209853D01*
X535347Y209602D01*
X533574Y208868D01*
X532051Y207699D01*
X530882Y206176D01*
X530148Y204403D01*
X529897Y202500D01*
Y200706D01*
X528627Y200454D01*
X528447Y200888D01*
X526889Y202447D01*
X524852Y203290D01*
X522649D01*
X521028Y202619D01*
X519758Y203251D01*
Y219710D01*
X519481Y221099D01*
X518695Y222277D01*
X509200Y231771D01*
Y240480D01*
X510238Y240686D01*
X511016Y241206D01*
X511920Y241442D01*
X512825Y241206D01*
D02*
G37*
G36*
X530882Y194823D02*
X532051Y193301D01*
X533574Y192132D01*
X535347Y191398D01*
X537250Y191147D01*
X539153Y191398D01*
X540692Y192035D01*
X541962Y191509D01*
Y133991D01*
X540692Y133465D01*
X539153Y134102D01*
X537250Y134353D01*
X535347Y134102D01*
X533574Y133368D01*
X532051Y132199D01*
X530882Y130676D01*
X530530Y129825D01*
X529209Y129955D01*
X528969Y131161D01*
X527745Y132994D01*
X525912Y134218D01*
X523750Y134648D01*
X521589Y134218D01*
X520878Y133743D01*
X519758Y134342D01*
Y192249D01*
X521028Y192882D01*
X522649Y192210D01*
X524852D01*
X526889Y193054D01*
X528447Y194612D01*
X529021Y195998D01*
X530396Y195998D01*
X530882Y194823D01*
D02*
G37*
G36*
X628376Y333819D02*
X630819Y331376D01*
X633692Y329456D01*
X636884Y328134D01*
X640273Y327460D01*
X643728D01*
X647116Y328134D01*
X650309Y329456D01*
X653181Y331376D01*
X655624Y333819D01*
X655715Y333955D01*
X656931Y333587D01*
Y85992D01*
X647213Y76274D01*
X642438D01*
X641912Y77544D01*
X643130Y78762D01*
X644468Y81079D01*
X645160Y83663D01*
Y86338D01*
X644468Y88922D01*
X643130Y91238D01*
X641238Y93130D01*
X638922Y94468D01*
X636338Y95160D01*
X633662D01*
X631078Y94468D01*
X628762Y93130D01*
X626870Y91238D01*
X625532Y88922D01*
X625454Y88630D01*
X594281D01*
X593896Y89900D01*
X594641Y90397D01*
X616484Y112241D01*
X616485Y112241D01*
X617271Y113419D01*
X617548Y114808D01*
X617548Y114808D01*
Y190924D01*
X618818Y191450D01*
X619381Y190886D01*
X621409Y189716D01*
X623670Y189110D01*
X626010D01*
X628271Y189716D01*
X630299Y190886D01*
X631954Y192542D01*
X633010Y194370D01*
X636960D01*
Y189710D01*
X655040D01*
Y206290D01*
X636960D01*
Y201630D01*
X633010D01*
X631954Y203459D01*
X630299Y205114D01*
X628271Y206284D01*
X626010Y206890D01*
X623670D01*
X621409Y206284D01*
X619381Y205114D01*
X618818Y204550D01*
X617548Y205076D01*
Y233447D01*
X625121Y241019D01*
X625121Y241019D01*
X625908Y242197D01*
X626184Y243586D01*
X626184Y243586D01*
Y334814D01*
X627454Y335199D01*
X628376Y333819D01*
D02*
G37*
G36*
X618924Y534691D02*
Y245089D01*
X611351Y237517D01*
X610565Y236339D01*
X610288Y234950D01*
Y150078D01*
X609018Y149552D01*
X608201Y150370D01*
X606372Y151426D01*
Y263652D01*
X606372Y263652D01*
X606095Y265041D01*
X605309Y266219D01*
X598967Y272560D01*
X599453Y273734D01*
X603200D01*
Y280850D01*
X604470D01*
Y282120D01*
X617086D01*
Y284000D01*
X616785Y285518D01*
X616314Y286221D01*
X616085Y287595D01*
X616945Y288882D01*
X617246Y290400D01*
Y296700D01*
X616945Y298218D01*
X616085Y299504D01*
X616314Y300878D01*
X616785Y301582D01*
X617086Y303100D01*
Y309400D01*
X616785Y310918D01*
X616265Y311695D01*
X616028Y312600D01*
X616265Y313505D01*
X616785Y314282D01*
X617086Y315800D01*
Y322100D01*
X616785Y323618D01*
X616265Y324395D01*
X616028Y325300D01*
X616265Y326204D01*
X616785Y326982D01*
X617086Y328500D01*
Y334800D01*
X616785Y336318D01*
X616265Y337095D01*
X616028Y338000D01*
X616265Y338904D01*
X616785Y339682D01*
X617086Y341200D01*
Y347500D01*
X616785Y349018D01*
X616265Y349795D01*
X616028Y350700D01*
X616265Y351604D01*
X616785Y352382D01*
X617086Y353900D01*
Y360200D01*
X616785Y361718D01*
X616265Y362495D01*
X616028Y363400D01*
X616265Y364305D01*
X616785Y365082D01*
X617086Y366600D01*
Y372900D01*
X616785Y374418D01*
X616265Y375195D01*
X616028Y376100D01*
X616265Y377005D01*
X616785Y377782D01*
X617086Y379300D01*
Y385600D01*
X616785Y387118D01*
X616265Y387895D01*
X616028Y388800D01*
X616265Y389705D01*
X616785Y390482D01*
X617086Y392000D01*
Y398300D01*
X616785Y399818D01*
X615925Y401104D01*
X614638Y401964D01*
X613120Y402266D01*
X600169D01*
X599784Y403536D01*
X600229Y403833D01*
X605308Y408913D01*
X605309Y408913D01*
X606096Y410091D01*
X606372Y411480D01*
X606372Y411480D01*
Y528320D01*
X606372Y528320D01*
X606096Y529709D01*
X605309Y530887D01*
X605308Y530887D01*
X594895Y541301D01*
X593717Y542087D01*
X593069Y542216D01*
X593195Y543486D01*
X610129D01*
X618924Y534691D01*
D02*
G37*
G36*
X670750Y669996D02*
Y0D01*
X652413D01*
X652028Y1270D01*
X654431Y2876D01*
X656874Y5319D01*
X658794Y8192D01*
X660116Y11384D01*
X660790Y14772D01*
Y18227D01*
X660116Y21616D01*
X658794Y24808D01*
X656874Y27681D01*
X654431Y30124D01*
X651558Y32044D01*
X648366Y33366D01*
X644977Y34040D01*
X641522D01*
X638134Y33366D01*
X634942Y32044D01*
X632069Y30124D01*
X629626Y27681D01*
X627706Y24808D01*
X626384Y21616D01*
X625710Y18227D01*
Y14772D01*
X626384Y11384D01*
X627706Y8192D01*
X629626Y5319D01*
X632069Y2876D01*
X634472Y1270D01*
X634087Y0D01*
X434904D01*
X434651Y1270D01*
X436308Y1956D01*
X439181Y3876D01*
X441624Y6319D01*
X443544Y9192D01*
X444866Y12384D01*
X445540Y15773D01*
Y19228D01*
X444866Y22616D01*
X443544Y25808D01*
X441624Y28681D01*
X439181Y31124D01*
X436308Y33044D01*
X433116Y34366D01*
X429728Y35040D01*
X426273D01*
X422884Y34366D01*
X419692Y33044D01*
X416819Y31124D01*
X414376Y28681D01*
X412456Y25808D01*
X411134Y22616D01*
X410460Y19228D01*
Y15773D01*
X411134Y12384D01*
X412456Y9192D01*
X414376Y6319D01*
X416819Y3876D01*
X419692Y1956D01*
X421349Y1270D01*
X421096Y0D01*
X400000D01*
Y119698D01*
X401270Y119823D01*
X401477Y118780D01*
X402264Y117603D01*
X430684Y89183D01*
X430532Y88922D01*
X429840Y86338D01*
Y83663D01*
X430532Y81079D01*
X431870Y78762D01*
X433762Y76870D01*
X436078Y75532D01*
X438662Y74840D01*
X441338D01*
X443922Y75532D01*
X446239Y76870D01*
X448130Y78762D01*
X449468Y81079D01*
X450160Y83663D01*
Y86338D01*
X449468Y88922D01*
X448130Y91238D01*
X446239Y93130D01*
X443922Y94468D01*
X441338Y95160D01*
X438662D01*
X436078Y94468D01*
X435817Y94317D01*
X408461Y121673D01*
Y178345D01*
X409634Y178831D01*
X442229Y146236D01*
X441571Y145097D01*
X441338Y145160D01*
X438662D01*
X436078Y144468D01*
X433762Y143130D01*
X431870Y141238D01*
X430532Y138922D01*
X429840Y136338D01*
Y133662D01*
X430532Y131078D01*
X431870Y128762D01*
X433762Y126870D01*
X436078Y125532D01*
X438662Y124840D01*
X441338D01*
X443922Y125532D01*
X444183Y125683D01*
X494910Y74957D01*
X494744Y73698D01*
X493762Y73130D01*
X491870Y71238D01*
X490532Y68922D01*
X489840Y66338D01*
Y63663D01*
X490532Y61079D01*
X491870Y58762D01*
X493762Y56870D01*
X496078Y55532D01*
X496370Y55454D01*
Y54990D01*
X496647Y53601D01*
X497433Y52423D01*
X504671Y45185D01*
X504671Y45185D01*
X505849Y44399D01*
X507238Y44122D01*
X640080D01*
X641469Y44399D01*
X642647Y45185D01*
X667707Y70246D01*
X667707Y70246D01*
X668494Y71424D01*
X668770Y72813D01*
X668770Y72813D01*
Y571129D01*
X668494Y572518D01*
X667707Y573696D01*
X612540Y628863D01*
Y668040D01*
X587460D01*
Y638007D01*
X569540Y620088D01*
X478540D01*
Y623730D01*
X471750D01*
Y625000D01*
X470480D01*
Y632290D01*
X451460D01*
Y628630D01*
X443130D01*
X439193Y632567D01*
X438015Y633354D01*
X436626Y633630D01*
X432410D01*
X432085Y634841D01*
X430434Y637700D01*
X428100Y640035D01*
X425240Y641686D01*
X422051Y642540D01*
X418749D01*
X415560Y641686D01*
X412700Y640035D01*
X410365Y637700D01*
X408714Y634841D01*
X408357Y633507D01*
X407043D01*
X406685Y634841D01*
X405034Y637700D01*
X402700Y640035D01*
X399840Y641686D01*
X396651Y642540D01*
X393349D01*
X390160Y641686D01*
X387300Y640035D01*
X384966Y637700D01*
X383315Y634841D01*
X382957Y633507D01*
X381643D01*
X381285Y634841D01*
X379635Y637700D01*
X377300Y640035D01*
X374440Y641686D01*
X371251Y642540D01*
X370870D01*
Y630000D01*
X369600D01*
Y628730D01*
X357060D01*
Y628349D01*
X357915Y625160D01*
X359566Y622300D01*
X361900Y619966D01*
X362634Y619542D01*
X362294Y618272D01*
X287491D01*
X287490Y618272D01*
X286101Y617996D01*
X284924Y617209D01*
X278253Y610538D01*
X277466Y609361D01*
X277403Y609042D01*
X273780D01*
Y582962D01*
X273909D01*
X274395Y581788D01*
X272817Y580210D01*
X236728D01*
X235339Y579933D01*
X234161Y579147D01*
X234161Y579146D01*
X228713Y573698D01*
X227540Y574184D01*
Y597040D01*
X216270D01*
Y574500D01*
Y551960D01*
X224970D01*
Y548998D01*
X177950Y501978D01*
X154276D01*
X153907Y503193D01*
X154181Y503376D01*
X156624Y505819D01*
X158544Y508692D01*
X159866Y511884D01*
X160540Y515273D01*
Y518728D01*
X159866Y522117D01*
X158544Y525308D01*
X156624Y528181D01*
X154181Y530624D01*
X151308Y532544D01*
X148116Y533866D01*
X147497Y533989D01*
X147120Y535359D01*
X148338Y536577D01*
X149508Y538605D01*
X150114Y540866D01*
Y543206D01*
X149508Y545467D01*
X148338Y547495D01*
X146683Y549150D01*
X144854Y550206D01*
Y628776D01*
X144854Y628777D01*
X144578Y630165D01*
X143791Y631343D01*
X143791Y631343D01*
X139317Y635817D01*
X139468Y636079D01*
X140160Y638663D01*
Y641338D01*
X139468Y643922D01*
X138130Y646239D01*
X136239Y648130D01*
X133922Y649468D01*
X131338Y650160D01*
X129785D01*
X129260Y651430D01*
X131408Y653579D01*
X132717Y652270D01*
X134745Y651100D01*
X137006Y650494D01*
X139346D01*
X141607Y651100D01*
X143635Y652270D01*
X145290Y653925D01*
X146460Y655953D01*
X147066Y658214D01*
Y660554D01*
X146460Y662815D01*
X145290Y664843D01*
X143635Y666498D01*
X141607Y667668D01*
X139346Y668274D01*
X137006D01*
X134745Y667668D01*
X132717Y666498D01*
X131062Y664843D01*
X129892Y662815D01*
X129692Y662070D01*
X129513Y661951D01*
X113003Y645441D01*
X112217Y644263D01*
X111940Y642874D01*
Y369430D01*
X112217Y368041D01*
X113003Y366863D01*
X125683Y354183D01*
X125532Y353921D01*
X124840Y351337D01*
Y348662D01*
X125532Y346078D01*
X126870Y343761D01*
X128762Y341870D01*
X131078Y340532D01*
X133662Y339840D01*
X136338D01*
X138922Y340532D01*
X141238Y341870D01*
X143130Y343761D01*
X144468Y346078D01*
X145160Y348662D01*
Y351337D01*
X144468Y353921D01*
X143130Y356238D01*
X141238Y358130D01*
X138922Y359467D01*
X136338Y360160D01*
X133662D01*
X131078Y359467D01*
X130817Y359316D01*
X119200Y370933D01*
Y434008D01*
X120373Y434494D01*
X125683Y429183D01*
X125532Y428922D01*
X124840Y426338D01*
Y423662D01*
X125532Y421078D01*
X126870Y418761D01*
X128762Y416870D01*
X131078Y415532D01*
X133662Y414840D01*
X136338D01*
X138922Y415532D01*
X141238Y416870D01*
X141501Y417132D01*
X142674Y416646D01*
Y408354D01*
X141501Y407868D01*
X141238Y408130D01*
X138922Y409468D01*
X136338Y410160D01*
X136270D01*
Y400000D01*
Y389840D01*
X136338D01*
X138922Y390533D01*
X141238Y391870D01*
X141501Y392133D01*
X142674Y391647D01*
Y387808D01*
X139183Y384317D01*
X138922Y384468D01*
X136338Y385160D01*
X133662D01*
X131078Y384468D01*
X128762Y383130D01*
X126870Y381238D01*
X125532Y378922D01*
X124840Y376338D01*
Y373662D01*
X125532Y371078D01*
X126870Y368762D01*
X128762Y366870D01*
X131078Y365532D01*
X133662Y364840D01*
X136338D01*
X138922Y365532D01*
X141238Y366870D01*
X143130Y368762D01*
X144468Y371078D01*
X145160Y373662D01*
Y376338D01*
X144468Y378922D01*
X144317Y379183D01*
X148870Y383737D01*
X148871Y383737D01*
X149657Y384915D01*
X149934Y386304D01*
X149934Y386304D01*
Y436626D01*
X149934Y436626D01*
X149657Y438015D01*
X148871Y439193D01*
X148870Y439193D01*
X128594Y459470D01*
Y467630D01*
X139675Y478712D01*
X202283D01*
X203672Y478988D01*
X204849Y479775D01*
X205937Y480863D01*
X207076Y480206D01*
X207010Y479960D01*
Y477620D01*
X207616Y475359D01*
X208786Y473331D01*
X210441Y471676D01*
X212469Y470506D01*
X214730Y469900D01*
X217070D01*
X219331Y470506D01*
X221359Y471676D01*
X223014Y473331D01*
X224070Y475160D01*
X314960D01*
X316349Y475437D01*
X317527Y476223D01*
X319765Y478462D01*
X328143D01*
X328560Y477192D01*
X327504Y475363D01*
X326898Y473102D01*
Y470762D01*
X327445Y468722D01*
X325902Y467180D01*
X148124D01*
X147068Y469009D01*
X145413Y470664D01*
X143385Y471834D01*
X141124Y472440D01*
X138784D01*
X136523Y471834D01*
X134495Y470664D01*
X132840Y469009D01*
X131670Y466981D01*
X131064Y464720D01*
Y462380D01*
X131670Y460119D01*
X132840Y458091D01*
X134495Y456436D01*
X136523Y455266D01*
X138784Y454660D01*
X141124D01*
X143385Y455266D01*
X145413Y456436D01*
X147068Y458091D01*
X148124Y459920D01*
X327406D01*
X328795Y460197D01*
X329973Y460983D01*
X332578Y463589D01*
X334225Y463147D01*
X334466Y462847D01*
X334742Y462203D01*
X334806Y461772D01*
X333854Y460123D01*
X333248Y457862D01*
Y455522D01*
X333257Y455487D01*
X332484Y454480D01*
X214884D01*
X214884Y454480D01*
X213495Y454203D01*
X212317Y453417D01*
X212317Y453416D01*
X207237Y448337D01*
X206451Y447159D01*
X206197Y445886D01*
X205902Y445731D01*
X204904Y445585D01*
X204726Y445895D01*
X203071Y447550D01*
X201043Y448720D01*
X198782Y449326D01*
X196442D01*
X194181Y448720D01*
X192153Y447550D01*
X190498Y445895D01*
X189328Y443867D01*
X188722Y441606D01*
Y439266D01*
X189269Y437226D01*
X168564Y416521D01*
X166524Y417068D01*
X164184D01*
X161923Y416462D01*
X159895Y415292D01*
X158240Y413637D01*
X157070Y411609D01*
X156464Y409348D01*
Y407008D01*
X157070Y404747D01*
X158240Y402719D01*
X159895Y401064D01*
X161923Y399894D01*
X164184Y399288D01*
X166524D01*
X168785Y399894D01*
X170813Y401064D01*
X172468Y402719D01*
X173638Y404747D01*
X174244Y407008D01*
Y409348D01*
X173697Y411388D01*
X194402Y432093D01*
X196442Y431546D01*
X198782D01*
X201043Y432152D01*
X203071Y433322D01*
X204726Y434977D01*
X204904Y435287D01*
X206174Y434946D01*
Y382058D01*
X204345Y381002D01*
X202690Y379347D01*
X201520Y377319D01*
X200914Y375058D01*
Y372718D01*
X201520Y370457D01*
X202690Y368429D01*
X204345Y366774D01*
X206373Y365604D01*
X208634Y364998D01*
X210974D01*
X213235Y365604D01*
X215263Y366774D01*
X216918Y368429D01*
X218088Y370457D01*
X218694Y372718D01*
Y375058D01*
X218088Y377319D01*
X216918Y379347D01*
X215263Y381002D01*
X213434Y382058D01*
Y428219D01*
X214704Y428636D01*
X216533Y427580D01*
X218794Y426974D01*
X221134D01*
X223395Y427580D01*
X225423Y428750D01*
X227078Y430405D01*
X228134Y432234D01*
X305583D01*
X335504Y402313D01*
X335018Y401140D01*
X296651D01*
X287997Y409794D01*
X288544Y411834D01*
Y414174D01*
X287938Y416435D01*
X286768Y418463D01*
X285113Y420118D01*
X283085Y421288D01*
X280824Y421894D01*
X278484D01*
X276223Y421288D01*
X274195Y420118D01*
X272540Y418463D01*
X271370Y416435D01*
X270764Y414174D01*
Y411834D01*
X271370Y409573D01*
X272540Y407545D01*
X274195Y405890D01*
X276223Y404720D01*
X278484Y404114D01*
X280824D01*
X282864Y404661D01*
X292581Y394944D01*
X292581Y394943D01*
X293759Y394157D01*
X295148Y393880D01*
X335532D01*
X348049Y381363D01*
X347563Y380189D01*
X345443D01*
X344387Y382018D01*
X342732Y383673D01*
X340705Y384844D01*
X338444Y385450D01*
X336103D01*
X333842Y384844D01*
X331815Y383673D01*
X330160Y382018D01*
X328989Y379991D01*
X328383Y377730D01*
Y375389D01*
X328989Y373128D01*
X330160Y371101D01*
X331815Y369446D01*
X333842Y368275D01*
X336103Y367670D01*
X338444D01*
X340705Y368275D01*
X342732Y369446D01*
X344387Y371101D01*
X345443Y372930D01*
X348088D01*
X401201Y319817D01*
Y256666D01*
X399931Y256656D01*
X399000Y320000D01*
X100000D01*
Y669102D01*
X100898Y670000D01*
X670750Y669996D01*
D02*
G37*
G36*
X529897Y123441D02*
Y123000D01*
X530148Y121097D01*
X530882Y119324D01*
X532051Y117801D01*
X533574Y116632D01*
X535347Y115898D01*
X537250Y115647D01*
X539153Y115898D01*
X540692Y116535D01*
X541962Y116009D01*
Y111294D01*
X540133Y110238D01*
X538478Y108583D01*
X537308Y106555D01*
X536702Y104294D01*
Y101954D01*
X537308Y99693D01*
X538364Y97864D01*
X537947Y96594D01*
X529823D01*
X519758Y106659D01*
Y121158D01*
X520878Y121756D01*
X521589Y121281D01*
X523750Y120851D01*
X525912Y121281D01*
X527745Y122506D01*
X528627Y123827D01*
X529897Y123441D01*
D02*
G37*
G36*
X525525Y241206D02*
X526302Y240686D01*
X527820Y240384D01*
X529691D01*
X542801Y227274D01*
X542801Y227274D01*
X543978Y226487D01*
X545368Y226211D01*
X545368Y226211D01*
X574598D01*
X588952Y211856D01*
Y192574D01*
X587123Y191518D01*
X585468Y189863D01*
X584298Y187835D01*
X583692Y185574D01*
Y183234D01*
X584298Y180973D01*
X585468Y178945D01*
X587123Y177290D01*
X589151Y176120D01*
X591412Y175514D01*
X593752D01*
X596013Y176120D01*
X597842Y177176D01*
X599112Y176759D01*
Y151426D01*
X597283Y150370D01*
X595628Y148715D01*
X594458Y146687D01*
X593852Y144426D01*
Y142086D01*
X594458Y139825D01*
X595628Y137797D01*
X597283Y136142D01*
X599311Y134972D01*
X601572Y134366D01*
X603912D01*
X606173Y134972D01*
X608201Y136142D01*
X609018Y136960D01*
X610288Y136434D01*
Y116312D01*
X590570Y96594D01*
X553237D01*
X552820Y97864D01*
X553876Y99693D01*
X554482Y101954D01*
Y104294D01*
X553876Y106555D01*
X552706Y108583D01*
X551051Y110238D01*
X549222Y111294D01*
Y213360D01*
X548945Y214749D01*
X548159Y215927D01*
X524755Y239331D01*
X524901Y240980D01*
X525307Y241263D01*
X525525Y241206D01*
D02*
G37*
G36*
X514323Y74141D02*
X515501Y73355D01*
X516890Y73078D01*
X517051D01*
X517537Y71905D01*
X516870Y71238D01*
X515533Y68922D01*
X514840Y66338D01*
Y66270D01*
X525000D01*
X535160D01*
Y66338D01*
X534468Y68922D01*
X533130Y71238D01*
X532464Y71905D01*
X532950Y73078D01*
X536788D01*
X540683Y69183D01*
X540532Y68922D01*
X539840Y66338D01*
Y63663D01*
X540532Y61079D01*
X541870Y58762D01*
X543761Y56870D01*
X546078Y55532D01*
X548662Y54840D01*
X551338D01*
X553922Y55532D01*
X556238Y56870D01*
X558130Y58762D01*
X559468Y61079D01*
X560160Y63663D01*
Y66338D01*
X559468Y68922D01*
X558130Y71238D01*
X556238Y73130D01*
X553922Y74468D01*
X551338Y75160D01*
X548662D01*
X546078Y74468D01*
X545817Y74317D01*
X540859Y79275D01*
X539681Y80061D01*
X539486Y80100D01*
X539611Y81370D01*
X625454D01*
X625532Y81079D01*
X626870Y78762D01*
X628088Y77544D01*
X627562Y76274D01*
X582644D01*
X581255Y75997D01*
X580077Y75211D01*
X580077Y75210D01*
X579183Y74317D01*
X578922Y74468D01*
X576338Y75160D01*
X573662D01*
X571078Y74468D01*
X568762Y73130D01*
X566870Y71238D01*
X565532Y68922D01*
X564840Y66338D01*
Y63663D01*
X565532Y61079D01*
X566870Y58762D01*
X568762Y56870D01*
X571078Y55532D01*
X573662Y54840D01*
X576338D01*
X578922Y55532D01*
X581239Y56870D01*
X583130Y58762D01*
X584468Y61079D01*
X585160Y63663D01*
Y66338D01*
X584783Y67744D01*
X585758Y69014D01*
X627850D01*
X628376Y67744D01*
X626870Y66238D01*
X625532Y63921D01*
X624840Y61337D01*
Y58662D01*
X625532Y56078D01*
X626870Y53762D01*
X627980Y52652D01*
X627454Y51382D01*
X508741D01*
X505083Y55040D01*
X505249Y56299D01*
X506238Y56870D01*
X508130Y58762D01*
X509468Y61079D01*
X510160Y63663D01*
Y66338D01*
X509468Y68922D01*
X508130Y71238D01*
X506238Y73130D01*
X503922Y74468D01*
X503630Y74546D01*
Y75000D01*
X503354Y76389D01*
X502567Y77567D01*
X502567Y77567D01*
X449317Y130817D01*
X449468Y131078D01*
X450160Y133662D01*
Y136338D01*
X450098Y136571D01*
X451236Y137229D01*
X514323Y74141D01*
D02*
G37*
%LPC*%
G36*
X310860Y609042D02*
X305090D01*
Y597272D01*
X310860D01*
Y609042D01*
D02*
G37*
G36*
X302550D02*
X296780D01*
Y597272D01*
X302550D01*
Y609042D01*
D02*
G37*
G36*
X310860Y594732D02*
X305090D01*
Y582962D01*
X310860D01*
Y594732D01*
D02*
G37*
G36*
X302550D02*
X296780D01*
Y582962D01*
X302550D01*
Y594732D01*
D02*
G37*
G36*
X269790Y525230D02*
X263020D01*
Y519210D01*
X269790D01*
Y525230D01*
D02*
G37*
G36*
X549372Y520450D02*
X546028D01*
X542798Y519585D01*
X539902Y517913D01*
X537538Y515548D01*
X535866Y512652D01*
X535000Y509422D01*
Y506078D01*
X535866Y502848D01*
X537538Y499952D01*
X539902Y497588D01*
X542798Y495916D01*
X546028Y495050D01*
X549372D01*
X552602Y495916D01*
X555498Y497588D01*
X557863Y499952D01*
X559535Y502848D01*
X560400Y506078D01*
Y509422D01*
X559535Y512652D01*
X557863Y515548D01*
X555498Y517913D01*
X552602Y519585D01*
X549372Y520450D01*
D02*
G37*
G36*
X428100Y265616D02*
X426220D01*
X424702Y265315D01*
X423416Y264455D01*
X422556Y263168D01*
X422254Y261650D01*
Y254270D01*
X428100D01*
Y265616D01*
D02*
G37*
G36*
Y251730D02*
X422254D01*
Y244350D01*
X422556Y242833D01*
X423416Y241546D01*
X424702Y240686D01*
X426220Y240384D01*
X428100D01*
Y251730D01*
D02*
G37*
G36*
X655040Y228790D02*
X647270D01*
Y221770D01*
X655040D01*
Y228790D01*
D02*
G37*
G36*
X644730D02*
X636960D01*
Y221770D01*
X644730D01*
Y228790D01*
D02*
G37*
G36*
X655040Y219230D02*
X647270D01*
Y212210D01*
X655040D01*
Y219230D01*
D02*
G37*
G36*
X644730D02*
X636960D01*
Y212210D01*
X644730D01*
Y219230D01*
D02*
G37*
G36*
X636338Y145160D02*
X633662D01*
X631078Y144468D01*
X628762Y143130D01*
X626870Y141238D01*
X625532Y138922D01*
X624840Y136338D01*
Y133662D01*
X625532Y131078D01*
X626870Y128762D01*
X628762Y126870D01*
X631078Y125532D01*
X633662Y124840D01*
X636338D01*
X638922Y125532D01*
X641238Y126870D01*
X643130Y128762D01*
X644468Y131078D01*
X645160Y133662D01*
Y136338D01*
X644468Y138922D01*
X643130Y141238D01*
X641238Y143130D01*
X638922Y144468D01*
X636338Y145160D01*
D02*
G37*
G36*
Y120160D02*
X636270D01*
Y111270D01*
X645160D01*
Y111337D01*
X644468Y113921D01*
X643130Y116238D01*
X641238Y118130D01*
X638922Y119467D01*
X636338Y120160D01*
D02*
G37*
G36*
X633730D02*
X633662D01*
X631078Y119467D01*
X628762Y118130D01*
X626870Y116238D01*
X625532Y113921D01*
X624840Y111337D01*
Y111270D01*
X633730D01*
Y120160D01*
D02*
G37*
G36*
X645160Y108730D02*
X636270D01*
Y99840D01*
X636338D01*
X638922Y100532D01*
X641238Y101870D01*
X643130Y103761D01*
X644468Y106078D01*
X645160Y108662D01*
Y108730D01*
D02*
G37*
G36*
X633730D02*
X624840D01*
Y108662D01*
X625532Y106078D01*
X626870Y103761D01*
X628762Y101870D01*
X631078Y100532D01*
X633662Y99840D01*
X633730D01*
Y108730D01*
D02*
G37*
G36*
X617086Y279580D02*
X605740D01*
Y273734D01*
X613120D01*
X614638Y274035D01*
X615925Y274895D01*
X616785Y276182D01*
X617086Y277700D01*
Y279580D01*
D02*
G37*
G36*
X322360Y666042D02*
X285280D01*
Y639962D01*
X322360D01*
Y666042D01*
D02*
G37*
G36*
X368330Y642540D02*
X367949D01*
X364760Y641686D01*
X361900Y640035D01*
X359566Y637700D01*
X357915Y634841D01*
X357060Y631651D01*
Y631270D01*
X368330D01*
Y642540D01*
D02*
G37*
G36*
X478540Y632290D02*
X473020D01*
Y626270D01*
X478540D01*
Y632290D01*
D02*
G37*
G36*
X227540Y668040D02*
X202460D01*
Y622960D01*
X204179D01*
X204665Y621786D01*
X197585Y614707D01*
X196799Y613529D01*
X196522Y612140D01*
Y588385D01*
X195320Y587977D01*
X194921Y588496D01*
X192799Y590125D01*
X190327Y591149D01*
X187675Y591498D01*
X181325D01*
X178673Y591149D01*
X176201Y590125D01*
X174079Y588496D01*
X172450Y586374D01*
X171427Y583902D01*
X171077Y581250D01*
X171427Y578598D01*
X172450Y576126D01*
X174079Y574004D01*
X176201Y572375D01*
X178673Y571352D01*
X181325Y571002D01*
X187675D01*
X190327Y571352D01*
X192799Y572375D01*
X194921Y574004D01*
X195320Y574523D01*
X196522Y574115D01*
Y562985D01*
X195320Y562577D01*
X194921Y563096D01*
X192799Y564725D01*
X190327Y565749D01*
X187675Y566098D01*
X181325D01*
X178673Y565749D01*
X176201Y564725D01*
X174079Y563096D01*
X172450Y560974D01*
X171427Y558502D01*
X171077Y555850D01*
X171427Y553198D01*
X172450Y550726D01*
X174079Y548604D01*
X176201Y546975D01*
X178673Y545951D01*
X181325Y545602D01*
X187675D01*
X190327Y545951D01*
X192799Y546975D01*
X194921Y548604D01*
X196550Y550726D01*
X197169Y552220D01*
X197202D01*
X198591Y552497D01*
X199769Y553283D01*
X201287Y554801D01*
X202460Y554315D01*
Y551960D01*
X213730D01*
Y574500D01*
Y597040D01*
X203782D01*
Y610636D01*
X216105Y622960D01*
X227540D01*
Y668040D01*
D02*
G37*
G36*
X133730Y410160D02*
X133662D01*
X131078Y409468D01*
X128762Y408130D01*
X126870Y406239D01*
X125532Y403922D01*
X124840Y401338D01*
Y401270D01*
X133730D01*
Y410160D01*
D02*
G37*
G36*
Y398730D02*
X124840D01*
Y398663D01*
X125532Y396079D01*
X126870Y393762D01*
X128762Y391870D01*
X131078Y390533D01*
X133662Y389840D01*
X133730D01*
Y398730D01*
D02*
G37*
G36*
X277728Y361790D02*
X274272D01*
X270884Y361116D01*
X267692Y359794D01*
X264819Y357874D01*
X262376Y355431D01*
X260456Y352559D01*
X259134Y349366D01*
X258460Y345978D01*
Y342523D01*
X259134Y339134D01*
X260456Y335942D01*
X262376Y333069D01*
X264819Y330626D01*
X267692Y328707D01*
X270884Y327384D01*
X274272Y326710D01*
X277728D01*
X281116Y327384D01*
X284308Y328707D01*
X287181Y330626D01*
X289624Y333069D01*
X291544Y335942D01*
X292866Y339134D01*
X293540Y342523D01*
Y345978D01*
X292866Y349366D01*
X291544Y352559D01*
X289624Y355431D01*
X287181Y357874D01*
X284308Y359794D01*
X281116Y361116D01*
X277728Y361790D01*
D02*
G37*
G36*
X441338Y120160D02*
X441270D01*
Y111270D01*
X450160D01*
Y111337D01*
X449468Y113921D01*
X448130Y116238D01*
X446239Y118130D01*
X443922Y119467D01*
X441338Y120160D01*
D02*
G37*
G36*
X438730D02*
X438662D01*
X436078Y119467D01*
X433762Y118130D01*
X431870Y116238D01*
X430532Y113921D01*
X429840Y111337D01*
Y111270D01*
X438730D01*
Y120160D01*
D02*
G37*
G36*
X450160Y108730D02*
X441270D01*
Y99840D01*
X441338D01*
X443922Y100532D01*
X446239Y101870D01*
X448130Y103761D01*
X449468Y106078D01*
X450160Y108662D01*
Y108730D01*
D02*
G37*
G36*
X438730D02*
X429840D01*
Y108662D01*
X430532Y106078D01*
X431870Y103761D01*
X433762Y101870D01*
X436078Y100532D01*
X438662Y99840D01*
X438730D01*
Y108730D01*
D02*
G37*
G36*
X441338Y70160D02*
X438662D01*
X436078Y69468D01*
X433762Y68130D01*
X431870Y66238D01*
X430532Y63921D01*
X429840Y61337D01*
Y58662D01*
X430532Y56078D01*
X431870Y53762D01*
X433762Y51870D01*
X436078Y50532D01*
X438662Y49840D01*
X441338D01*
X443922Y50532D01*
X446239Y51870D01*
X448130Y53762D01*
X449468Y56078D01*
X450160Y58662D01*
Y61337D01*
X449468Y63921D01*
X448130Y66238D01*
X446239Y68130D01*
X443922Y69468D01*
X441338Y70160D01*
D02*
G37*
G36*
X567950Y214864D02*
X565721Y214570D01*
X563643Y213710D01*
X561859Y212341D01*
X560490Y210557D01*
X559630Y208479D01*
X559336Y206250D01*
Y201250D01*
X559630Y199021D01*
X560490Y196943D01*
X561859Y195159D01*
X563643Y193790D01*
X565721Y192930D01*
X567950Y192637D01*
X570179Y192930D01*
X572257Y193790D01*
X574041Y195159D01*
X575410Y196943D01*
X576270Y199021D01*
X576564Y201250D01*
Y206250D01*
X576270Y208479D01*
X575410Y210557D01*
X574041Y212341D01*
X572257Y213710D01*
X570179Y214570D01*
X567950Y214864D01*
D02*
G37*
G36*
Y132864D02*
X565721Y132570D01*
X563643Y131709D01*
X561859Y130341D01*
X560490Y128557D01*
X559630Y126479D01*
X559336Y124250D01*
Y119250D01*
X559630Y117020D01*
X560490Y114943D01*
X561859Y113159D01*
X563643Y111790D01*
X565721Y110930D01*
X567950Y110636D01*
X570179Y110930D01*
X572257Y111790D01*
X574041Y113159D01*
X575410Y114943D01*
X576270Y117020D01*
X576564Y119250D01*
Y124250D01*
X576270Y126479D01*
X575410Y128557D01*
X574041Y130341D01*
X572257Y131709D01*
X570179Y132570D01*
X567950Y132864D01*
D02*
G37*
G36*
X535160Y63730D02*
X526270D01*
Y54840D01*
X526338D01*
X528922Y55532D01*
X531239Y56870D01*
X533130Y58762D01*
X534468Y61079D01*
X535160Y63663D01*
Y63730D01*
D02*
G37*
G36*
X523730D02*
X514840D01*
Y63663D01*
X515533Y61079D01*
X516870Y58762D01*
X518762Y56870D01*
X521079Y55532D01*
X523663Y54840D01*
X523730D01*
Y63730D01*
D02*
G37*
%LPD*%
D12*
X535000Y488700D02*
X662000D01*
X535000D02*
Y526800D01*
X662000D01*
Y488700D02*
Y526800D01*
X529515Y172593D02*
Y177672D01*
Y175133D01*
X542211D01*
X544750Y177672D01*
Y180211D01*
X542211Y182750D01*
X544750Y167515D02*
Y162437D01*
Y164976D01*
X529515D01*
X532054Y167515D01*
D13*
X173500Y568500D02*
X256500D01*
X173500Y641500D02*
X183500Y651500D01*
X173500Y568500D02*
Y641500D01*
X256500Y568500D02*
Y641500D01*
X246500Y651500D02*
X256500Y641500D01*
X183500Y651500D02*
X246500D01*
X337320Y606002D02*
Y643002D01*
X270320Y606002D02*
Y643002D01*
X337320D01*
X270320Y606002D02*
X337320D01*
X558500Y568500D02*
X641500D01*
X558500Y641500D02*
X568500Y651500D01*
X558500Y568500D02*
Y641500D01*
X641500Y568500D02*
Y641500D01*
X631500Y651500D02*
X641500Y641500D01*
X568500Y651500D02*
X631500D01*
X473500Y620500D02*
Y629500D01*
X456500Y620500D02*
Y629500D01*
Y620500D02*
X473500D01*
X456500Y629500D02*
X473500D01*
X447250Y571250D02*
Y580250D01*
X464250Y571250D02*
Y580250D01*
X447250D02*
X464250D01*
X447250Y571250D02*
X464250D01*
X266500Y525000D02*
Y542500D01*
X257000Y525000D02*
Y542500D01*
X266500D01*
X257000Y525000D02*
X266500D01*
X132250Y442750D02*
Y453250D01*
X137750Y442750D02*
Y453250D01*
X132250D02*
X137750D01*
X132250Y442750D02*
X137750D01*
X183750Y366750D02*
Y377250D01*
X178250Y366750D02*
Y377250D01*
Y366750D02*
X183750D01*
X178250Y377250D02*
X183750D01*
X182250Y626000D02*
Y643500D01*
X172750Y626000D02*
Y643500D01*
Y626000D02*
X182250D01*
X172750Y643500D02*
X182250D01*
X191750Y385750D02*
Y396250D01*
X186250Y385750D02*
Y396250D01*
Y385750D02*
X191750D01*
X186250Y396250D02*
X191750D01*
X460750Y374750D02*
X478250D01*
X460750Y384250D02*
X478250D01*
X460750Y374750D02*
Y384250D01*
X478250Y374750D02*
Y384250D01*
X508500Y493000D02*
X525500D01*
X508500Y502000D02*
X525500D01*
X508500Y493000D02*
Y502000D01*
X525500Y493000D02*
Y502000D01*
X532250Y359750D02*
Y377250D01*
X541749Y359750D02*
Y377250D01*
X532250D02*
X541749D01*
X532250Y359750D02*
X541749D01*
X548500Y462000D02*
Y479000D01*
X539500Y462000D02*
Y479000D01*
Y462000D02*
X548500D01*
X539500Y479000D02*
X548500D01*
X561000Y398250D02*
X578000D01*
X561000Y389250D02*
X578000D01*
Y398250D01*
X561000Y389250D02*
Y398250D01*
X603750Y394250D02*
Y411750D01*
X594250Y394250D02*
Y411750D01*
Y394250D02*
X603750D01*
X594250Y411750D02*
X603750D01*
X184750Y336750D02*
Y347250D01*
X179250Y336750D02*
Y347250D01*
Y336750D02*
X184750D01*
X179250Y347250D02*
X184750D01*
X264250Y441250D02*
X281750D01*
X264250Y450750D02*
X281750D01*
X264250Y441250D02*
Y450750D01*
X281750Y441250D02*
Y450750D01*
X274250Y625500D02*
Y659500D01*
X292250Y625500D02*
Y659500D01*
X274250D02*
X292250D01*
X274250Y625500D02*
X292250D01*
X345750Y406000D02*
X379750D01*
X345750Y424000D02*
X379750D01*
X345750Y406000D02*
Y424000D01*
X379750Y406000D02*
Y424000D01*
X441750Y379000D02*
Y396500D01*
X451250Y379000D02*
Y396500D01*
X441750D02*
X451250D01*
X441750Y379000D02*
X451250D01*
X487000Y595000D02*
X553000D01*
X487000Y657000D02*
X553000D01*
Y595000D02*
Y657000D01*
X487000Y595000D02*
Y657000D01*
X500500Y395500D02*
Y413000D01*
X510000Y395500D02*
Y413000D01*
X500500D02*
X510000D01*
X500500Y395500D02*
X510000D01*
X371250Y569000D02*
Y586000D01*
X362250Y569000D02*
Y586000D01*
Y569000D02*
X371250D01*
X362250Y586000D02*
X371250D01*
X379500Y434250D02*
Y498750D01*
X413000Y434250D02*
Y498750D01*
X379500D02*
X413000D01*
X379500Y434250D02*
X413000D01*
X424749Y565750D02*
Y583250D01*
X434250Y565750D02*
Y583250D01*
X424749D02*
X434250D01*
X424749Y565750D02*
X434250D01*
X473500Y498250D02*
Y515750D01*
X464000Y498250D02*
Y515750D01*
Y498250D02*
X473500D01*
X464000Y515750D02*
X473500D01*
X562000Y228999D02*
Y331000D01*
X509000Y228999D02*
Y331000D01*
X562000D01*
X509000Y228999D02*
X562000D01*
X215000Y605000D02*
Y615000D01*
X210000Y610000D02*
X220000D01*
X298820Y624502D02*
X308820D01*
X303820Y619502D02*
Y629502D01*
X600000Y605000D02*
Y615000D01*
X595000Y610000D02*
X605000D01*
X654000Y191250D02*
Y227250D01*
X638000Y191250D02*
X654000D01*
X638000D02*
Y227250D01*
X654000D01*
X460500Y625000D02*
X469500D01*
X465000Y620500D02*
Y629500D01*
X451250Y575750D02*
X460250D01*
X455750Y571250D02*
Y580250D01*
X257000Y533750D02*
X266500D01*
X261750Y529000D02*
Y538500D01*
X132250Y448000D02*
X137750D01*
X135000Y445250D02*
Y450750D01*
X178250Y372000D02*
X183750D01*
X181000Y369250D02*
Y374750D01*
X172750Y634750D02*
X182250D01*
X177500Y630000D02*
Y639500D01*
X186250Y391000D02*
X191750D01*
X189000Y388250D02*
Y393750D01*
X215500Y648000D02*
X251500D01*
X215500Y632000D02*
Y648000D01*
Y632000D02*
X251500D01*
Y648000D01*
X469500Y374750D02*
Y384250D01*
X464750Y379500D02*
X474250D01*
X517000Y493000D02*
Y502000D01*
X512500Y497500D02*
X521500D01*
X532250Y368500D02*
X541749D01*
X537000Y363750D02*
Y373250D01*
X539500Y470500D02*
X548500D01*
X544000Y466000D02*
Y475000D01*
X569500Y389250D02*
Y398250D01*
X565000Y393750D02*
X574000D01*
X594250Y403000D02*
X603750D01*
X599000Y398250D02*
Y407750D01*
X179250Y342000D02*
X184750D01*
X182000Y339250D02*
Y344750D01*
X273000Y441250D02*
Y450750D01*
X268250Y446000D02*
X277750D01*
X278250Y642500D02*
X288250D01*
X283250Y637500D02*
Y647500D01*
X362750Y410000D02*
Y420000D01*
X357750Y415000D02*
X367750D01*
X441750Y387750D02*
X451250D01*
X446500Y383000D02*
Y392500D01*
X440500Y369500D02*
X476500D01*
X440500Y353500D02*
Y369500D01*
Y353500D02*
X476500D01*
Y369500D01*
X520000Y610000D02*
Y620000D01*
X515000Y615000D02*
X525000D01*
X500500Y404250D02*
X510000D01*
X505250Y399500D02*
Y409000D01*
X545250Y386750D02*
Y422750D01*
X529250D02*
X545250D01*
X529250Y386750D02*
Y422750D01*
Y386750D02*
X545250D01*
X362250Y577500D02*
X371250D01*
X366750Y573000D02*
Y582000D01*
X391250Y466500D02*
X401250D01*
X396250Y461500D02*
Y471500D01*
X424749Y574500D02*
X434250D01*
X429500Y569750D02*
Y579250D01*
X464000Y507000D02*
X473500D01*
X468750Y502250D02*
Y511750D01*
X530250Y280249D02*
X540250D01*
X535250Y275250D02*
Y285250D01*
X335000Y615249D02*
Y651249D01*
Y615249D02*
X351000D01*
Y651249D01*
X335000D02*
X351000D01*
X569500Y361750D02*
X605500D01*
Y377750D01*
X569500D02*
X605500D01*
X569500Y361750D02*
Y377750D01*
X483500Y354000D02*
X519500D01*
Y370000D01*
X483500D02*
X519500D01*
X483500Y354000D02*
Y370000D01*
D14*
X502248Y217747D02*
X572248D01*
X502248Y107748D02*
Y217747D01*
Y107748D02*
X572248D01*
Y217747D01*
X210499Y560245D02*
X219499D01*
Y589245D01*
X210499Y560245D02*
Y589245D01*
X219500Y630500D02*
Y659500D01*
X210500Y630500D02*
Y659500D01*
X219500D01*
X595499Y560245D02*
X604499D01*
Y589245D01*
X595499Y560245D02*
Y589245D01*
X604500Y630500D02*
Y659500D01*
X595500Y630500D02*
Y659500D01*
X604500D01*
X572248Y107748D02*
Y217747D01*
X502248Y107748D02*
X572248D01*
X502248D02*
Y217747D01*
X572248D01*
X257500Y553500D02*
Y666500D01*
X172500Y553500D02*
X257500D01*
X172500Y666500D02*
X257500D01*
X172500Y553500D02*
Y666500D01*
X338320Y584502D02*
Y664502D01*
X269320Y584502D02*
Y664502D01*
X338320D01*
X269320Y584502D02*
X338320D01*
X642500Y553500D02*
Y666500D01*
X557500Y553500D02*
X642500D01*
X557500Y666500D02*
X642500D01*
X557500Y553500D02*
Y666500D01*
X478500Y617500D02*
Y632500D01*
X451500Y617500D02*
Y632500D01*
Y617500D02*
X478500D01*
X451500Y632500D02*
X478500D01*
X442250Y568250D02*
Y583250D01*
X469250Y568250D02*
Y583250D01*
X442250D02*
X469250D01*
X442250Y568250D02*
X469250D01*
X272250Y516750D02*
Y550750D01*
X251250Y516750D02*
Y550750D01*
X272250D01*
X251250Y516750D02*
X272250D01*
X131000Y440500D02*
Y455500D01*
X139000Y440500D02*
Y455500D01*
X131000D02*
X139000D01*
X131000Y440500D02*
X139000D01*
X185000Y364500D02*
Y379500D01*
X177000Y364500D02*
Y379500D01*
Y364500D02*
X185000D01*
X177000Y379500D02*
X185000D01*
X183500Y623750D02*
Y645750D01*
X171500Y623750D02*
Y645750D01*
Y623750D02*
X183500D01*
X171500Y645750D02*
X183500D01*
X193000Y383500D02*
Y398500D01*
X185000Y383500D02*
Y398500D01*
Y383500D02*
X193000D01*
X185000Y398500D02*
X193000D01*
X458500Y373500D02*
X480500D01*
X458500Y385500D02*
X480500D01*
X458500Y373500D02*
Y385500D01*
X480500Y373500D02*
Y385500D01*
X506500Y492000D02*
X527500D01*
X506500Y503000D02*
X527500D01*
X506500Y492000D02*
Y503000D01*
X527500Y492000D02*
Y503000D01*
X531000Y357500D02*
Y379500D01*
X543000Y357500D02*
Y379500D01*
X531000D02*
X543000D01*
X531000Y357500D02*
X543000D01*
X549500Y460000D02*
Y481000D01*
X538500Y460000D02*
Y481000D01*
Y460000D02*
X549500D01*
X538500Y481000D02*
X549500D01*
X559000Y399250D02*
X580000D01*
X559000Y388250D02*
X580000D01*
Y399250D01*
X559000Y388250D02*
Y399250D01*
X605000Y392000D02*
Y414000D01*
X593000Y392000D02*
Y414000D01*
Y392000D02*
X605000D01*
X593000Y414000D02*
X605000D01*
X186000Y334500D02*
Y349500D01*
X178000Y334500D02*
Y349500D01*
Y334500D02*
X186000D01*
X178000Y349500D02*
X186000D01*
X262000Y440000D02*
X284000D01*
X262000Y452000D02*
X284000D01*
X262000Y440000D02*
Y452000D01*
X284000Y440000D02*
Y452000D01*
X273250Y623000D02*
Y662000D01*
X293250Y623000D02*
Y662000D01*
X273250D02*
X293250D01*
X273250Y623000D02*
X293250D01*
X339750Y403500D02*
X385750D01*
X339750Y426500D02*
X385750D01*
X339750Y403500D02*
Y426500D01*
X385750Y403500D02*
Y426500D01*
X440500Y376750D02*
Y398750D01*
X452500Y376750D02*
Y398750D01*
X440500D02*
X452500D01*
X440500Y376750D02*
X452500D01*
X484500Y559500D02*
X555500D01*
X484500Y670500D02*
X555500D01*
Y559500D02*
Y670500D01*
X484500Y559500D02*
Y670500D01*
X494750Y387250D02*
Y421250D01*
X515750Y387250D02*
Y421250D01*
X494750D02*
X515750D01*
X494750Y387250D02*
X515750D01*
X372250Y567000D02*
Y588000D01*
X361250Y567000D02*
Y588000D01*
Y567000D02*
X372250D01*
X361250Y588000D02*
X372250D01*
X375250Y428000D02*
Y505000D01*
X417250Y428000D02*
Y505000D01*
X375250D02*
X417250D01*
X375250Y428000D02*
X417250D01*
X423500Y563500D02*
Y585500D01*
X435500Y563500D02*
Y585500D01*
X423500D02*
X435500D01*
X423500Y563500D02*
X435500D01*
X474750Y496000D02*
Y518000D01*
X462750Y496000D02*
Y518000D01*
Y496000D02*
X474750D01*
X462750Y518000D02*
X474750D01*
X582500Y226499D02*
Y333499D01*
X488500Y226499D02*
Y333499D01*
X582500D01*
X488500Y226499D02*
X582500D01*
X498750Y220250D02*
X576250D01*
X498750Y105250D02*
Y220250D01*
Y105250D02*
X576250D01*
Y220250D01*
X532250Y162750D02*
X542250D01*
X537250Y157750D02*
Y167750D01*
D15*
X219499Y589245D02*
G03*
X210499Y589245I-4500J0D01*
G01*
X210500Y630500D02*
G03*
X219500Y630500I4500J0D01*
G01*
X250000Y610000D02*
G03*
X250000Y610000I-35000J0D01*
G01*
X255000D02*
G03*
X255000Y610000I-40000J0D01*
G01*
X604499Y589245D02*
G03*
X595499Y589245I-4500J0D01*
G01*
X595500Y630500D02*
G03*
X604500Y630500I4500J0D01*
G01*
X635000Y610000D02*
G03*
X635000Y610000I-35000J0D01*
G01*
X640000D02*
G03*
X640000Y610000I-40000J0D01*
G01*
X210499Y589245D02*
X219499D01*
X210500Y630500D02*
X219500D01*
X595499Y589245D02*
X604499D01*
X595500Y630500D02*
X604500D01*
D16*
X592150Y507750D02*
X604850D01*
X598500Y501400D02*
Y514100D01*
D17*
X504300Y328430D02*
D03*
D18*
X604470Y395150D02*
D03*
Y280850D02*
D03*
X604630Y293550D02*
D03*
X604470Y306250D02*
D03*
Y318950D02*
D03*
Y331650D02*
D03*
Y344350D02*
D03*
Y357050D02*
D03*
Y369750D02*
D03*
Y382450D02*
D03*
D19*
X594470Y423000D02*
D03*
X429370D02*
D03*
X442070D02*
D03*
X454770D02*
D03*
X467470D02*
D03*
X480170D02*
D03*
X492870D02*
D03*
X505570D02*
D03*
X518270D02*
D03*
X530970D02*
D03*
X543670D02*
D03*
X556370D02*
D03*
X569070D02*
D03*
X581770D02*
D03*
Y253000D02*
D03*
X569070D02*
D03*
X556370D02*
D03*
X543670D02*
D03*
X530970D02*
D03*
X518270D02*
D03*
X505570D02*
D03*
X492870D02*
D03*
X480170D02*
D03*
X467470D02*
D03*
X454770D02*
D03*
X442070D02*
D03*
X429370D02*
D03*
X594470D02*
D03*
D20*
X215000Y574500D02*
D03*
Y645500D02*
D03*
X600000Y574500D02*
D03*
Y645500D02*
D03*
D21*
X303820Y653002D02*
D03*
D22*
X326820Y596002D02*
D03*
X303820D02*
D03*
X280820D02*
D03*
D23*
X646000Y220500D02*
D03*
Y198000D02*
D03*
D24*
X471750Y625000D02*
D03*
X458250D02*
D03*
X449000Y575750D02*
D03*
X462500D02*
D03*
D25*
X261750Y541000D02*
D03*
Y526500D02*
D03*
D47*
X467470Y434992D02*
Y442866D01*
X326820Y590042D02*
X392408D01*
X600000Y645414D02*
Y645500D01*
Y636270D02*
Y645414D01*
X124206Y559206D02*
X130000Y565000D01*
X120384Y555384D02*
X124206Y559206D01*
X530970Y446134D02*
X563626Y478790D01*
X530970Y445626D02*
Y446134D01*
X492870Y253000D02*
Y264160D01*
X463448Y293582D02*
X492870Y264160D01*
X456680Y293582D02*
X463448D01*
X445516Y304746D02*
X456680Y293582D01*
X445516Y304746D02*
Y393445D01*
X436120Y402840D02*
X445516Y393445D01*
X427232Y402840D02*
X436120D01*
X417830Y412242D02*
X427232Y402840D01*
X417830Y412242D02*
Y477520D01*
X434594Y494284D01*
X459164D01*
X493200Y528320D01*
Y545000D01*
X505570Y230268D02*
Y253000D01*
Y230268D02*
X516128Y219710D01*
Y105156D02*
Y219710D01*
Y105156D02*
X528320Y92964D01*
X592074D01*
X613918Y114808D01*
Y234950D01*
X622554Y243586D01*
Y536194D01*
X611632Y547116D02*
X622554Y536194D01*
X583946Y547116D02*
X611632D01*
X567182Y563880D02*
X583946Y547116D01*
X470340Y563880D02*
X567182D01*
X467800Y545000D02*
X470340Y563880D01*
X545592Y103124D02*
Y213360D01*
X518270Y240682D02*
X545592Y213360D01*
X518270Y240682D02*
Y253000D01*
X279654Y413004D02*
X295148Y397510D01*
X337035D01*
X409425Y325120D01*
Y184173D02*
Y325120D01*
Y184173D02*
X516890Y76708D01*
X538292D01*
X550000Y65000D01*
X404831Y120169D02*
X440000Y85000D01*
X404831Y120169D02*
Y321321D01*
X349592Y376560D02*
X404831Y321321D01*
X337273Y376560D02*
X349592D01*
X249682Y552450D02*
X270002D01*
X273812Y548640D01*
Y530860D02*
Y548640D01*
Y530860D02*
X284480Y520192D01*
X299974D01*
X332994Y487172D01*
X360680D01*
X367288Y480564D01*
Y411992D02*
Y480564D01*
X358644Y403348D02*
X367288Y411992D01*
X358644Y393450D02*
Y403348D01*
Y393450D02*
X405384Y346710D01*
X413766D01*
X479298Y293370D02*
X519430D01*
X475488Y297180D02*
X479298Y293370D01*
X475488Y297180D02*
Y406908D01*
X480170Y411590D01*
Y423000D01*
X165354Y408178D02*
X197612Y440436D01*
X429500Y598170D02*
X617728D01*
X629666Y586232D01*
Y384134D02*
Y586232D01*
Y384134D02*
X660561Y353240D01*
Y84488D02*
Y353240D01*
X648716Y72644D02*
X660561Y84488D01*
X582644Y72644D02*
X648716D01*
X575000Y65000D02*
X582644Y72644D01*
X553466Y364236D02*
X554482D01*
X558038Y360680D01*
Y308356D02*
Y360680D01*
Y308356D02*
X602742Y263652D01*
Y143256D02*
Y263652D01*
X130000Y640000D02*
X141224Y628777D01*
Y542036D02*
Y628777D01*
X467470Y423000D02*
Y434992D01*
X459232Y443230D02*
X467470Y434992D01*
X431292Y443230D02*
X459232D01*
X260604Y488950D02*
X307848D01*
X226568Y522986D02*
X260604Y488950D01*
X577342Y335026D02*
Y396240D01*
X587502Y406400D01*
X597662D01*
X602742Y411480D01*
Y528320D01*
X592328Y538734D02*
X602742Y528320D01*
X552958Y538734D02*
X592328D01*
X501904Y487680D02*
X552958Y538734D01*
X454152Y487680D02*
X501904D01*
X443992Y477520D02*
X454152Y487680D01*
X443992Y456184D02*
Y477520D01*
Y456184D02*
X447040Y453136D01*
X457200D01*
X467470Y442866D01*
X340800Y545000D02*
Y559240D01*
X359664Y578104D01*
X389636D01*
X442070Y230014D02*
Y253000D01*
Y230014D02*
X447802Y224282D01*
X326820Y583868D02*
Y590042D01*
X309880Y566928D02*
X326820Y583868D01*
X243840Y566928D02*
X309880D01*
X237998Y561086D02*
X243840Y566928D01*
X237998Y550164D02*
Y561086D01*
X192278Y504444D02*
X237998Y550164D01*
X192278Y492252D02*
Y504444D01*
X326820Y590042D02*
Y596002D01*
X392408Y590042D02*
X406700Y575750D01*
X449000D01*
Y581660D01*
X454080Y586740D01*
X477520D01*
X120384Y439616D02*
X135000Y425000D01*
X120384Y439616D02*
Y555384D01*
X124206Y506222D02*
Y559206D01*
Y506222D02*
X132080Y498348D01*
X179453D01*
X228600Y547495D01*
Y568452D01*
X236728Y576580D01*
X274320D01*
X280820Y583080D01*
Y596002D01*
Y607972D01*
X287490Y614642D01*
X405042D01*
X420400Y630000D01*
X500000Y54990D02*
Y65000D01*
Y54990D02*
X507238Y47752D01*
X640080D01*
X665141Y72813D01*
Y571129D01*
X600000Y636270D02*
X665141Y571129D01*
X458250Y619760D02*
Y625000D01*
Y619760D02*
X461552Y616458D01*
X571044D01*
X600000Y645414D01*
X442070Y410100D02*
Y423000D01*
Y410100D02*
X462280Y389890D01*
Y340360D02*
Y389890D01*
X209804Y445770D02*
X214884Y450850D01*
X518270Y439894D02*
X520954Y442578D01*
X518270Y423000D02*
Y439894D01*
X209804Y373888D02*
Y445770D01*
X214884Y450850D02*
X336296D01*
X342138Y456692D01*
X563626Y478790D02*
X576072D01*
X135000Y375000D02*
X146304Y386304D01*
Y436626D01*
X124964Y457966D02*
X146304Y436626D01*
X124964Y457966D02*
Y469134D01*
X138172Y482342D01*
X202283D01*
X209399Y489458D01*
X229616D01*
X400798Y601472D02*
X414260Y588010D01*
X396240Y601472D02*
X400798D01*
X215900Y478790D02*
X314960D01*
X318262Y482092D01*
X341884D01*
X352298Y471678D01*
X480170Y423000D02*
Y446422D01*
X139954Y463550D02*
X327406D01*
X335788Y471932D01*
X530970Y445626D02*
X536956Y451612D01*
X530970Y423000D02*
Y445626D01*
X543670Y436622D02*
X548894Y441846D01*
X543670Y423000D02*
Y436622D01*
X376948Y407912D02*
X387604Y397256D01*
X376948Y407912D02*
Y486756D01*
X362204Y501500D02*
X376948Y486756D01*
X345800Y501500D02*
X362204D01*
X556370Y253000D02*
Y290974D01*
X532892Y314452D02*
X556370Y290974D01*
X532892Y314452D02*
Y361188D01*
X510794Y383286D02*
X532892Y361188D01*
X385826Y423418D02*
X392176Y417068D01*
X385826Y423418D02*
Y493200D01*
X366200Y512826D02*
X385826Y493200D01*
X366200Y512826D02*
Y545000D01*
X530970Y244238D02*
Y253000D01*
Y244238D02*
X545368Y229841D01*
X576101D01*
X592582Y213360D01*
Y184404D02*
Y213360D01*
X219964Y435864D02*
X307086D01*
X414020Y328930D01*
Y186182D02*
Y328930D01*
Y186182D02*
X515202Y85000D01*
X635000D01*
X543670Y374146D02*
Y423000D01*
X543556Y374032D02*
X543670Y374146D01*
X543556Y335313D02*
Y374032D01*
X428752Y379932D02*
X433582Y375102D01*
Y334006D02*
Y375102D01*
X425446Y325870D02*
X433582Y334006D01*
X425446Y294652D02*
Y325870D01*
Y294652D02*
X433582Y286516D01*
X368554Y398780D02*
X380134Y387200D01*
X398926D01*
X427370Y358756D01*
Y336954D02*
Y358756D01*
X418842Y328426D02*
X427370Y336954D01*
X418842Y274320D02*
Y328426D01*
Y274320D02*
X421386Y271776D01*
X449440D01*
X454770Y266446D01*
Y253000D02*
Y266446D01*
X391600Y448886D02*
Y545000D01*
Y448886D02*
X409956Y430530D01*
Y396240D02*
Y430530D01*
Y396240D02*
X416306Y389890D01*
X434848D01*
X438912Y385826D01*
Y314960D02*
Y385826D01*
X435356Y311404D02*
X438912Y314960D01*
X455676Y309880D02*
Y311404D01*
Y309880D02*
X482600Y282956D01*
X528320D01*
X543670Y267606D01*
Y253000D02*
Y267606D01*
X132080Y659384D02*
X138176D01*
X115570Y642874D02*
X132080Y659384D01*
X115570Y369430D02*
Y642874D01*
Y369430D02*
X135000Y350000D01*
X215000Y626988D02*
Y645500D01*
X200152Y612140D02*
X215000Y626988D01*
X200152Y558800D02*
Y612140D01*
X197202Y555850D02*
X200152Y558800D01*
X184500Y555850D02*
X197202D01*
X624840Y198000D02*
X646000D01*
X455250Y467500D02*
Y480060D01*
X457790Y482600D01*
X556712D01*
X562875Y488763D01*
X583227D01*
X594470Y477520D01*
Y423000D02*
Y477520D01*
X252476Y541000D02*
X261750D01*
X252476Y513184D02*
Y541000D01*
Y513184D02*
X264160Y501500D01*
X297000D01*
X440000Y135000D02*
X500000Y75000D01*
Y65000D02*
Y75000D01*
X441626Y625000D02*
X458250D01*
X436626Y630000D02*
X441626Y625000D01*
X420400Y630000D02*
X436626D01*
D48*
X135000Y350000D02*
D03*
Y375000D02*
D03*
Y400000D02*
D03*
Y425000D02*
D03*
X130000Y640000D02*
D03*
Y615000D02*
D03*
Y590000D02*
D03*
Y565000D02*
D03*
X440000Y60000D02*
D03*
Y85000D02*
D03*
Y110000D02*
D03*
Y135000D02*
D03*
X575000Y65000D02*
D03*
X550000D02*
D03*
X525000D02*
D03*
X500000D02*
D03*
X635000Y60000D02*
D03*
Y85000D02*
D03*
Y110000D02*
D03*
Y135000D02*
D03*
D49*
X369600Y630000D02*
D03*
X395000D02*
D03*
X420400D02*
D03*
D50*
X480650Y467500D02*
D03*
X455250D02*
D03*
D51*
X297000Y501500D02*
D03*
X345800D02*
D03*
D52*
X649300Y507750D02*
D03*
X547700D02*
D03*
D53*
X184500Y581250D02*
D03*
Y555850D02*
D03*
D54*
X567950Y121750D02*
D03*
Y203750D02*
D03*
X506550D02*
D03*
Y121750D02*
D03*
D55*
X537250Y200500D02*
D03*
Y125000D02*
D03*
D56*
X518600Y545000D02*
D03*
X493200D02*
D03*
X417000D02*
D03*
X391600D02*
D03*
X366200D02*
D03*
X340800D02*
D03*
X315400D02*
D03*
X290000D02*
D03*
X442400D02*
D03*
X467800D02*
D03*
D57*
X545592Y103124D02*
D03*
X279654Y413004D02*
D03*
X337273Y376560D02*
D03*
X249682Y552450D02*
D03*
X413766Y346710D02*
D03*
X519430Y293370D02*
D03*
X165354Y408178D02*
D03*
X197612Y440436D02*
D03*
X429500Y598170D02*
D03*
X553466Y364236D02*
D03*
X602742Y143256D02*
D03*
X141224Y542036D02*
D03*
X431292Y443230D02*
D03*
X307848Y488950D02*
D03*
X226568Y522986D02*
D03*
X577342Y335026D02*
D03*
X389636Y578104D02*
D03*
X447802Y224282D02*
D03*
X192278Y492252D02*
D03*
X477520Y586740D02*
D03*
X462280Y340360D02*
D03*
X209804Y373888D02*
D03*
X342138Y456692D02*
D03*
X520954Y442578D02*
D03*
X576072Y478790D02*
D03*
X229616Y489458D02*
D03*
X414260Y588010D02*
D03*
X396240Y601472D02*
D03*
X215900Y478790D02*
D03*
X352298Y471678D02*
D03*
X480170Y446422D02*
D03*
X139954Y463550D02*
D03*
X335788Y471932D02*
D03*
X536956Y451612D02*
D03*
X548894Y441846D02*
D03*
X387604Y397256D02*
D03*
X510794Y383286D02*
D03*
X392176Y417068D02*
D03*
X592582Y184404D02*
D03*
X219964Y435864D02*
D03*
X543556Y335313D02*
D03*
X428752Y379932D02*
D03*
X433582Y286516D02*
D03*
X368554Y398780D02*
D03*
X435356Y311404D02*
D03*
X455676D02*
D03*
X138176Y659384D02*
D03*
X624840Y198000D02*
D03*
D58*
X143000Y517000D02*
D03*
X642000Y345000D02*
D03*
X276000Y344250D02*
D03*
X643250Y16500D02*
D03*
X428000Y17500D02*
D03*
M02*
