G04*
G04 #@! TF.GenerationSoftware,Altium Limited,CircuitMaker,2.0.3 (51)*
G04*
G04 Layer_Color=20142*
%FSLAX25Y25*%
%MOIN*%
G70*
G04*
G04 #@! TF.SameCoordinates,F5335DBB-8355-4FF0-A9BA-B13CC3796949*
G04*
G04*
G04 #@! TF.FilePolarity,Negative*
G04*
G01*
G75*
%ADD14C,0.04724*%
G04:AMPARAMS|DCode=24|XSize=204.85mil|YSize=204.85mil|CornerRadius=13.84mil|HoleSize=0mil|Usage=FLASHONLY|Rotation=90.000|XOffset=0mil|YOffset=0mil|HoleType=Round|Shape=RoundedRectangle|*
%AMROUNDEDRECTD24*
21,1,0.20485,0.17716,0,0,90.0*
21,1,0.17716,0.20485,0,0,90.0*
1,1,0.02768,0.08858,0.08858*
1,1,0.02768,0.08858,-0.08858*
1,1,0.02768,-0.08858,-0.08858*
1,1,0.02768,-0.08858,0.08858*
%
%ADD24ROUNDEDRECTD24*%
G04:AMPARAMS|DCode=25|XSize=86.74mil|YSize=43.43mil|CornerRadius=9.32mil|HoleSize=0mil|Usage=FLASHONLY|Rotation=180.000|XOffset=0mil|YOffset=0mil|HoleType=Round|Shape=RoundedRectangle|*
%AMROUNDEDRECTD25*
21,1,0.08674,0.02480,0,0,180.0*
21,1,0.06811,0.04343,0,0,180.0*
1,1,0.01863,-0.03406,0.01240*
1,1,0.01863,0.03406,0.01240*
1,1,0.01863,0.03406,-0.01240*
1,1,0.01863,-0.03406,-0.01240*
%
%ADD25ROUNDEDRECTD25*%
G04:AMPARAMS|DCode=26|XSize=86.74mil|YSize=43.43mil|CornerRadius=9.32mil|HoleSize=0mil|Usage=FLASHONLY|Rotation=90.000|XOffset=0mil|YOffset=0mil|HoleType=Round|Shape=RoundedRectangle|*
%AMROUNDEDRECTD26*
21,1,0.08674,0.02480,0,0,90.0*
21,1,0.06811,0.04343,0,0,90.0*
1,1,0.01863,0.01240,0.03406*
1,1,0.01863,0.01240,-0.03406*
1,1,0.01863,-0.01240,-0.03406*
1,1,0.01863,-0.01240,0.03406*
%
%ADD26ROUNDEDRECTD26*%
%ADD27R,0.08674X0.16548*%
%ADD28R,0.13398X0.09068*%
%ADD29R,0.04343X0.09068*%
%ADD30R,0.05918X0.05328*%
%ADD31R,0.04147X0.04540*%
%ADD32R,0.05131X0.04540*%
%ADD33C,0.06800*%
%ADD34C,0.08674*%
%ADD35O,0.06800X0.09300*%
%ADD36C,0.06706*%
%ADD37C,0.08800*%
%ADD38O,0.09300X0.06800*%
%ADD39O,0.05524X0.07493*%
%ADD40C,0.00800*%
%ADD41O,0.04540X0.06115*%
%ADD42O,0.08800X0.11800*%
%ADD43C,0.05800*%
%ADD44C,0.12611*%
D14*
X266435Y263780D02*
G03*
X264073Y266142I-2362J-0D01*
G01*
X266435Y263780D02*
G03*
X264073Y266142I-2362J-0D01*
G01*
X264075Y-2362D02*
G03*
X266437Y0I0J2362D01*
G01*
X264075Y-2362D02*
G03*
X266437Y0I0J2362D01*
G01*
X39370Y266142D02*
G03*
X37008Y263779I0J-2362D01*
G01*
X39370Y266142D02*
G03*
X37008Y263779I0J-2362D01*
G01*
X155118Y0D02*
G03*
X157480Y-2362I2362J0D01*
G01*
X37008Y125984D02*
G03*
X39370Y123622I2362J0D01*
G01*
X37008Y125984D02*
G03*
X39370Y123622I2362J0D01*
G01*
X155118Y0D02*
G03*
X157480Y-2362I2362J0D01*
G01*
X266435Y263780D02*
X266437Y0D01*
X157480Y-2362D02*
X264075D01*
X155118Y0D02*
Y123622D01*
X39370Y266142D02*
X264073D01*
X37008Y125984D02*
Y263780D01*
X39370Y123622D02*
X155118D01*
D24*
X198543Y129303D02*
D03*
D25*
X237980Y155571D02*
D03*
Y110571D02*
D03*
X238043Y115571D02*
D03*
X237980Y120571D02*
D03*
Y125571D02*
D03*
Y130571D02*
D03*
Y135571D02*
D03*
Y140571D02*
D03*
Y145571D02*
D03*
Y150571D02*
D03*
D26*
X234043Y166535D02*
D03*
X169043D02*
D03*
X174043D02*
D03*
X179043D02*
D03*
X184043D02*
D03*
X189043D02*
D03*
X194043D02*
D03*
X199043D02*
D03*
X204043D02*
D03*
X209043D02*
D03*
X214043D02*
D03*
X219043D02*
D03*
X224043D02*
D03*
X229043D02*
D03*
Y99606D02*
D03*
X224043D02*
D03*
X219043D02*
D03*
X214043D02*
D03*
X209043D02*
D03*
X204043D02*
D03*
X199043D02*
D03*
X194043D02*
D03*
X189043D02*
D03*
X184043D02*
D03*
X179043D02*
D03*
X174043D02*
D03*
X169043D02*
D03*
X234043D02*
D03*
D27*
X84646Y226181D02*
D03*
Y254134D02*
D03*
X236220Y226181D02*
D03*
Y254134D02*
D03*
D28*
X119614Y257087D02*
D03*
D29*
X128669Y234646D02*
D03*
X119614D02*
D03*
X110559D02*
D03*
D30*
X254331Y86811D02*
D03*
Y77953D02*
D03*
D31*
X185728Y246063D02*
D03*
X180413D02*
D03*
X176772Y226673D02*
D03*
X182087D02*
D03*
D32*
X103051Y212992D02*
D03*
Y207283D02*
D03*
D33*
X53150Y137795D02*
D03*
Y147638D02*
D03*
Y157480D02*
D03*
Y167323D02*
D03*
X51181Y251969D02*
D03*
Y242126D02*
D03*
Y232283D02*
D03*
Y222441D02*
D03*
X173228Y23622D02*
D03*
Y33465D02*
D03*
Y43307D02*
D03*
Y53150D02*
D03*
X226378Y25591D02*
D03*
X216535D02*
D03*
X206693D02*
D03*
X196850D02*
D03*
X250000Y23622D02*
D03*
Y33465D02*
D03*
Y43307D02*
D03*
Y53150D02*
D03*
D34*
X145512Y248032D02*
D03*
X155512D02*
D03*
X165512D02*
D03*
D35*
X189232Y184055D02*
D03*
X179232D02*
D03*
D36*
X116929Y197441D02*
D03*
X136142D02*
D03*
D37*
X255630Y199902D02*
D03*
X215630D02*
D03*
D38*
X72638Y228839D02*
D03*
Y218839D02*
D03*
D39*
X223602Y47933D02*
D03*
Y80217D02*
D03*
X199429D02*
D03*
Y47933D02*
D03*
D40*
X206201Y50295D02*
D03*
Y77854D02*
D03*
D41*
X211516Y78937D02*
D03*
Y49213D02*
D03*
D42*
X204173Y214567D02*
D03*
X194173D02*
D03*
X164173D02*
D03*
X154173D02*
D03*
X144173D02*
D03*
X134173D02*
D03*
X124173D02*
D03*
X114173D02*
D03*
X174173D02*
D03*
X184173D02*
D03*
D43*
X89370Y151181D02*
D03*
X73622Y174409D02*
D03*
X129921Y172047D02*
D03*
X114961Y165748D02*
D03*
X120079Y151575D02*
D03*
X146900Y146800D02*
D03*
X163600Y150702D02*
D03*
X186100Y92200D02*
D03*
X177900Y80000D02*
D03*
X237200Y83100D02*
D03*
X227400Y65000D02*
D03*
X155000Y146800D02*
D03*
X176000Y134717D02*
D03*
X116600Y178200D02*
D03*
X84646Y236900D02*
D03*
X118500Y188100D02*
D03*
X213701Y211101D02*
D03*
X143000Y168700D02*
D03*
X127600Y132000D02*
D03*
X162000Y90900D02*
D03*
X193700Y190200D02*
D03*
X228600Y139100D02*
D03*
X187147Y155053D02*
D03*
X60400Y225800D02*
D03*
X218500Y233100D02*
D03*
X91903Y190803D02*
D03*
X164900Y231700D02*
D03*
X120500Y138103D02*
D03*
X184043Y173900D02*
D03*
X203200Y185300D02*
D03*
X241100Y88800D02*
D03*
X161400Y134100D02*
D03*
X178600Y116900D02*
D03*
X195800Y199500D02*
D03*
X228400Y200700D02*
D03*
X256331Y71700D02*
D03*
X55000Y182800D02*
D03*
X141800Y205300D02*
D03*
X211043Y174000D02*
D03*
X169800Y115500D02*
D03*
X182198Y108502D02*
D03*
X215100Y111500D02*
D03*
X228000Y186100D02*
D03*
X236300Y184000D02*
D03*
X227800Y192500D02*
D03*
X245400Y122311D02*
D03*
X185200Y131500D02*
D03*
X196700Y150900D02*
D03*
X188500Y252200D02*
D03*
X219400Y175900D02*
D03*
X221654Y150600D02*
D03*
X169600Y158000D02*
D03*
X75900Y140800D02*
D03*
X201200Y230000D02*
D03*
X110559Y242100D02*
D03*
X90200Y142400D02*
D03*
X141400Y238500D02*
D03*
X83000Y190000D02*
D03*
X137000Y149800D02*
D03*
X79500Y211400D02*
D03*
X69900Y242500D02*
D03*
X71000Y189400D02*
D03*
X69500Y210700D02*
D03*
X247300Y104800D02*
D03*
X90200Y181500D02*
D03*
X135600Y132000D02*
D03*
X201300Y224000D02*
D03*
X222500Y225300D02*
D03*
X151500Y227000D02*
D03*
D44*
X56299Y203543D02*
D03*
X252756Y135827D02*
D03*
X108661Y135532D02*
D03*
X253248Y6496D02*
D03*
X168504Y6890D02*
D03*
M02*
