G04*
G04 #@! TF.GenerationSoftware,Altium Limited,CircuitMaker,2.0.3 (51)*
G04*
G04 Layer_Color=8150272*
%FSLAX25Y25*%
%MOIN*%
G70*
G04*
G04 #@! TF.SameCoordinates,F5335DBB-8355-4FF0-A9BA-B13CC3796949*
G04*
G04*
G04 #@! TF.FilePolarity,Negative*
G04*
G01*
G75*
%ADD14C,0.04724*%
%ADD30R,0.05918X0.05328*%
%ADD32R,0.05131X0.04540*%
%ADD33C,0.06800*%
%ADD34C,0.08674*%
%ADD35O,0.06800X0.09300*%
%ADD36C,0.06706*%
%ADD37C,0.08800*%
%ADD38O,0.09300X0.06800*%
%ADD39O,0.05524X0.07493*%
%ADD40C,0.00800*%
%ADD41O,0.04540X0.06115*%
%ADD42O,0.08800X0.11800*%
%ADD43C,0.05800*%
%ADD44C,0.12611*%
%ADD75R,0.02572X0.02768*%
%ADD76R,0.04147X0.03556*%
%ADD77R,0.05328X0.05918*%
%ADD78R,0.03556X0.04147*%
%ADD79R,0.03162X0.03950*%
%ADD80R,0.03950X0.03162*%
%ADD81R,0.03950X0.04343*%
%ADD82R,0.07493X0.05131*%
%ADD83R,0.05918X0.07887*%
%ADD84R,0.04540X0.09068*%
%ADD85R,0.22453X0.26391*%
%ADD86R,0.15367X0.10446*%
%ADD87O,0.08674X0.02375*%
%ADD88R,0.08674X0.02375*%
%ADD89O,0.04300X0.05300*%
%ADD90R,0.03000X0.05800*%
%ADD91R,0.05800X0.03000*%
%ADD92R,0.06312X0.01863*%
D14*
X266435Y263780D02*
G03*
X264073Y266142I-2362J-0D01*
G01*
X266435Y263780D02*
G03*
X264073Y266142I-2362J-0D01*
G01*
X264075Y-2362D02*
G03*
X266437Y0I0J2362D01*
G01*
X264075Y-2362D02*
G03*
X266437Y0I0J2362D01*
G01*
X39370Y266142D02*
G03*
X37008Y263779I0J-2362D01*
G01*
X39370Y266142D02*
G03*
X37008Y263779I0J-2362D01*
G01*
X155118Y0D02*
G03*
X157480Y-2362I2362J0D01*
G01*
X37008Y125984D02*
G03*
X39370Y123622I2362J0D01*
G01*
X37008Y125984D02*
G03*
X39370Y123622I2362J0D01*
G01*
X155118Y0D02*
G03*
X157480Y-2362I2362J0D01*
G01*
X266435Y263780D02*
X266437Y0D01*
X157480Y-2362D02*
X264075D01*
X155118Y0D02*
Y123622D01*
X39370Y266142D02*
X264073D01*
X37008Y125984D02*
Y263780D01*
X39370Y123622D02*
X155118D01*
D30*
X211516Y154921D02*
D03*
Y163780D02*
D03*
X135039Y253740D02*
D03*
Y244882D02*
D03*
D32*
X198917Y162008D02*
D03*
Y156299D02*
D03*
D33*
X53150Y137795D02*
D03*
Y147638D02*
D03*
Y157480D02*
D03*
Y167323D02*
D03*
X51181Y251969D02*
D03*
Y242126D02*
D03*
Y232283D02*
D03*
Y222441D02*
D03*
X173228Y23622D02*
D03*
Y33465D02*
D03*
Y43307D02*
D03*
Y53150D02*
D03*
X226378Y25591D02*
D03*
X216535D02*
D03*
X206693D02*
D03*
X196850D02*
D03*
X250000Y23622D02*
D03*
Y33465D02*
D03*
Y43307D02*
D03*
Y53150D02*
D03*
D34*
X145512Y248032D02*
D03*
X155512D02*
D03*
X165512D02*
D03*
D35*
X189232Y184055D02*
D03*
X179232D02*
D03*
D36*
X116929Y197441D02*
D03*
X136142D02*
D03*
D37*
X255630Y199902D02*
D03*
X215630D02*
D03*
D38*
X72638Y228839D02*
D03*
Y218839D02*
D03*
D39*
X223602Y47933D02*
D03*
Y80217D02*
D03*
X199429D02*
D03*
Y47933D02*
D03*
D40*
X206201Y50295D02*
D03*
Y77854D02*
D03*
D41*
X211516Y78937D02*
D03*
Y49213D02*
D03*
D42*
X204173Y214567D02*
D03*
X194173D02*
D03*
X164173D02*
D03*
X154173D02*
D03*
X144173D02*
D03*
X134173D02*
D03*
X124173D02*
D03*
X114173D02*
D03*
X174173D02*
D03*
X184173D02*
D03*
D43*
X89370Y151181D02*
D03*
X73622Y174409D02*
D03*
X129921Y172047D02*
D03*
X114961Y165748D02*
D03*
X120079Y151575D02*
D03*
X146900Y146800D02*
D03*
X163600Y150702D02*
D03*
X186100Y92200D02*
D03*
X177900Y80000D02*
D03*
X237200Y83100D02*
D03*
X227400Y65000D02*
D03*
X155000Y146800D02*
D03*
X176000Y134717D02*
D03*
X116600Y178200D02*
D03*
X84646Y236900D02*
D03*
X118500Y188100D02*
D03*
X213701Y211101D02*
D03*
X143000Y168700D02*
D03*
X127600Y132000D02*
D03*
X162000Y90900D02*
D03*
X193700Y190200D02*
D03*
X228600Y139100D02*
D03*
X187147Y155053D02*
D03*
X60400Y225800D02*
D03*
X218500Y233100D02*
D03*
X91903Y190803D02*
D03*
X164900Y231700D02*
D03*
X120500Y138103D02*
D03*
X184043Y173900D02*
D03*
X203200Y185300D02*
D03*
X241100Y88800D02*
D03*
X161400Y134100D02*
D03*
X178600Y116900D02*
D03*
X195800Y199500D02*
D03*
X228400Y200700D02*
D03*
X256331Y71700D02*
D03*
X55000Y182800D02*
D03*
X141800Y205300D02*
D03*
X211043Y174000D02*
D03*
X169800Y115500D02*
D03*
X182198Y108502D02*
D03*
X215100Y111500D02*
D03*
X228000Y186100D02*
D03*
X236300Y184000D02*
D03*
X227800Y192500D02*
D03*
X245400Y122311D02*
D03*
X185200Y131500D02*
D03*
X196700Y150900D02*
D03*
X188500Y252200D02*
D03*
X219400Y175900D02*
D03*
X221654Y150600D02*
D03*
X169600Y158000D02*
D03*
X75900Y140800D02*
D03*
X201200Y230000D02*
D03*
X110559Y242100D02*
D03*
X90200Y142400D02*
D03*
X141400Y238500D02*
D03*
X83000Y190000D02*
D03*
X137000Y149800D02*
D03*
X79500Y211400D02*
D03*
X69900Y242500D02*
D03*
X71000Y189400D02*
D03*
X69500Y210700D02*
D03*
X247300Y104800D02*
D03*
X90200Y181500D02*
D03*
X135600Y132000D02*
D03*
X201300Y224000D02*
D03*
X222500Y225300D02*
D03*
X151500Y227000D02*
D03*
D44*
X56299Y203543D02*
D03*
X252756Y135827D02*
D03*
X108661Y135532D02*
D03*
X253248Y6496D02*
D03*
X168504Y6890D02*
D03*
D75*
X53150Y177854D02*
D03*
Y174902D02*
D03*
X71260Y144980D02*
D03*
Y147933D02*
D03*
X74410Y152461D02*
D03*
Y155413D02*
D03*
X71654Y133169D02*
D03*
Y136122D02*
D03*
D76*
X69882Y247441D02*
D03*
Y252362D02*
D03*
X211417Y147539D02*
D03*
Y142618D02*
D03*
X235827Y156201D02*
D03*
Y161122D02*
D03*
X175787Y155118D02*
D03*
Y150197D02*
D03*
X169094Y228642D02*
D03*
Y223721D02*
D03*
X184547Y197146D02*
D03*
Y202067D02*
D03*
D77*
X96358Y251969D02*
D03*
X87500D02*
D03*
X184941Y142323D02*
D03*
X176083D02*
D03*
X226870Y145571D02*
D03*
X235728D02*
D03*
X193012Y142520D02*
D03*
X201870D02*
D03*
D78*
X182382Y149409D02*
D03*
X187303D02*
D03*
D79*
X200984Y195866D02*
D03*
X206102D02*
D03*
X226772Y155020D02*
D03*
X221654D02*
D03*
D80*
X214173Y182677D02*
D03*
Y187795D02*
D03*
X144390Y224803D02*
D03*
Y229921D02*
D03*
D81*
X105020Y175590D02*
D03*
X109941D02*
D03*
D82*
X111516Y258071D02*
D03*
Y247835D02*
D03*
D83*
X137303Y163386D02*
D03*
X148327D02*
D03*
D84*
X213701Y225394D02*
D03*
X195748D02*
D03*
D85*
X204724Y250197D02*
D03*
D86*
X156004Y193799D02*
D03*
Y173524D02*
D03*
D87*
X224606Y124409D02*
D03*
Y121850D02*
D03*
Y119291D02*
D03*
Y109055D02*
D03*
Y111614D02*
D03*
Y116732D02*
D03*
Y114173D02*
D03*
Y98819D02*
D03*
Y101378D02*
D03*
Y96260D02*
D03*
Y93701D02*
D03*
Y103937D02*
D03*
Y106496D02*
D03*
X197047D02*
D03*
Y103937D02*
D03*
Y93701D02*
D03*
Y96260D02*
D03*
Y101378D02*
D03*
Y98819D02*
D03*
Y114173D02*
D03*
Y116732D02*
D03*
Y111614D02*
D03*
Y109055D02*
D03*
Y119291D02*
D03*
Y121850D02*
D03*
Y126968D02*
D03*
Y124409D02*
D03*
D88*
X224606Y126968D02*
D03*
D89*
X226425Y212795D02*
D03*
X220425D02*
D03*
D90*
X92840Y199803D02*
D03*
X89691D02*
D03*
X86541D02*
D03*
X83391D02*
D03*
X80217D02*
D03*
X77017D02*
D03*
X73917D02*
D03*
X70717D02*
D03*
Y166003D02*
D03*
X73917D02*
D03*
X77017D02*
D03*
X80217D02*
D03*
X83391D02*
D03*
X86541D02*
D03*
X89691D02*
D03*
X92840D02*
D03*
D91*
X64917Y194003D02*
D03*
Y190803D02*
D03*
Y187703D02*
D03*
Y184503D02*
D03*
Y181328D02*
D03*
Y178179D02*
D03*
Y175029D02*
D03*
Y171880D02*
D03*
X98717D02*
D03*
Y175029D02*
D03*
Y178179D02*
D03*
Y181328D02*
D03*
Y184503D02*
D03*
Y187703D02*
D03*
Y190803D02*
D03*
Y194003D02*
D03*
D92*
X202461Y74902D02*
D03*
Y72933D02*
D03*
Y70965D02*
D03*
Y68996D02*
D03*
Y67028D02*
D03*
Y65059D02*
D03*
Y63091D02*
D03*
Y61122D02*
D03*
Y59154D02*
D03*
Y57185D02*
D03*
Y55217D02*
D03*
Y53248D02*
D03*
X220571D02*
D03*
Y55217D02*
D03*
Y57185D02*
D03*
Y59154D02*
D03*
Y61122D02*
D03*
Y63091D02*
D03*
Y65059D02*
D03*
Y67028D02*
D03*
Y68996D02*
D03*
Y70965D02*
D03*
Y72933D02*
D03*
Y74902D02*
D03*
M02*
