G04*
G04 #@! TF.GenerationSoftware,Altium Limited,CircuitMaker,2.0.3 (2.0.3.51)*
G04*
G04 Layer_Color=2752767*
%FSLAX44Y44*%
%MOMM*%
G71*
G04*
G04 #@! TF.SameCoordinates,E9E563F1-332F-4466-8196-8310A66FFE87*
G04*
G04*
G04 #@! TF.FilePolarity,Positive*
G04*
G01*
G75*
%ADD12C,0.2540*%
%ADD13C,0.1000*%
%ADD14C,0.0500*%
%ADD15C,0.0100*%
%ADD16C,0.1270*%
%ADD97C,0.0508*%
%ADD98C,0.0677*%
%ADD99C,0.0339*%
D12*
X535000Y488700D02*
X662000D01*
X535000D02*
Y526800D01*
X662000D01*
Y488700D02*
Y526800D01*
X529515Y172593D02*
Y177672D01*
Y175133D01*
X542211D01*
X544750Y177672D01*
Y180211D01*
X542211Y182750D01*
X544750Y167515D02*
Y162437D01*
Y164976D01*
X529515D01*
X532054Y167515D01*
D13*
X173500Y568500D02*
X256500D01*
X173500Y641500D02*
X183500Y651500D01*
X173500Y568500D02*
Y641500D01*
X256500Y568500D02*
Y641500D01*
X246500Y651500D02*
X256500Y641500D01*
X183500Y651500D02*
X246500D01*
X337320Y606002D02*
Y643002D01*
X270320Y606002D02*
Y643002D01*
X337320D01*
X270320Y606002D02*
X337320D01*
X558500Y568500D02*
X641500D01*
X558500Y641500D02*
X568500Y651500D01*
X558500Y568500D02*
Y641500D01*
X641500Y568500D02*
Y641500D01*
X631500Y651500D02*
X641500Y641500D01*
X568500Y651500D02*
X631500D01*
X473500Y620500D02*
Y629500D01*
X456500Y620500D02*
Y629500D01*
Y620500D02*
X473500D01*
X456500Y629500D02*
X473500D01*
X447250Y571250D02*
Y580250D01*
X464250Y571250D02*
Y580250D01*
X447250D02*
X464250D01*
X447250Y571250D02*
X464250D01*
X266500Y525000D02*
Y542500D01*
X257000Y525000D02*
Y542500D01*
X266500D01*
X257000Y525000D02*
X266500D01*
X132250Y442750D02*
Y453250D01*
X137750Y442750D02*
Y453250D01*
X132250D02*
X137750D01*
X132250Y442750D02*
X137750D01*
X183750Y366750D02*
Y377250D01*
X178250Y366750D02*
Y377250D01*
Y366750D02*
X183750D01*
X178250Y377250D02*
X183750D01*
X182250Y626000D02*
Y643500D01*
X172750Y626000D02*
Y643500D01*
Y626000D02*
X182250D01*
X172750Y643500D02*
X182250D01*
X191750Y385750D02*
Y396250D01*
X186250Y385750D02*
Y396250D01*
Y385750D02*
X191750D01*
X186250Y396250D02*
X191750D01*
X460750Y374750D02*
X478250D01*
X460750Y384250D02*
X478250D01*
X460750Y374750D02*
Y384250D01*
X478250Y374750D02*
Y384250D01*
X508500Y493000D02*
X525500D01*
X508500Y502000D02*
X525500D01*
X508500Y493000D02*
Y502000D01*
X525500Y493000D02*
Y502000D01*
X532250Y359750D02*
Y377250D01*
X541749Y359750D02*
Y377250D01*
X532250D02*
X541749D01*
X532250Y359750D02*
X541749D01*
X548500Y462000D02*
Y479000D01*
X539500Y462000D02*
Y479000D01*
Y462000D02*
X548500D01*
X539500Y479000D02*
X548500D01*
X561000Y398250D02*
X578000D01*
X561000Y389250D02*
X578000D01*
Y398250D01*
X561000Y389250D02*
Y398250D01*
X603750Y394250D02*
Y411750D01*
X594250Y394250D02*
Y411750D01*
Y394250D02*
X603750D01*
X594250Y411750D02*
X603750D01*
X184750Y336750D02*
Y347250D01*
X179250Y336750D02*
Y347250D01*
Y336750D02*
X184750D01*
X179250Y347250D02*
X184750D01*
X264250Y441250D02*
X281750D01*
X264250Y450750D02*
X281750D01*
X264250Y441250D02*
Y450750D01*
X281750Y441250D02*
Y450750D01*
X274250Y625500D02*
Y659500D01*
X292250Y625500D02*
Y659500D01*
X274250D02*
X292250D01*
X274250Y625500D02*
X292250D01*
X345750Y406000D02*
X379750D01*
X345750Y424000D02*
X379750D01*
X345750Y406000D02*
Y424000D01*
X379750Y406000D02*
Y424000D01*
X441750Y379000D02*
Y396500D01*
X451250Y379000D02*
Y396500D01*
X441750D02*
X451250D01*
X441750Y379000D02*
X451250D01*
X487000Y595000D02*
X553000D01*
X487000Y657000D02*
X553000D01*
Y595000D02*
Y657000D01*
X487000Y595000D02*
Y657000D01*
X500500Y395500D02*
Y413000D01*
X510000Y395500D02*
Y413000D01*
X500500D02*
X510000D01*
X500500Y395500D02*
X510000D01*
X371250Y569000D02*
Y586000D01*
X362250Y569000D02*
Y586000D01*
Y569000D02*
X371250D01*
X362250Y586000D02*
X371250D01*
X379500Y434250D02*
Y498750D01*
X413000Y434250D02*
Y498750D01*
X379500D02*
X413000D01*
X379500Y434250D02*
X413000D01*
X424749Y565750D02*
Y583250D01*
X434250Y565750D02*
Y583250D01*
X424749D02*
X434250D01*
X424749Y565750D02*
X434250D01*
X473500Y498250D02*
Y515750D01*
X464000Y498250D02*
Y515750D01*
Y498250D02*
X473500D01*
X464000Y515750D02*
X473500D01*
X562000Y228999D02*
Y331000D01*
X509000Y228999D02*
Y331000D01*
X562000D01*
X509000Y228999D02*
X562000D01*
X215000Y605000D02*
Y615000D01*
X210000Y610000D02*
X220000D01*
X298820Y624502D02*
X308820D01*
X303820Y619502D02*
Y629502D01*
X600000Y605000D02*
Y615000D01*
X595000Y610000D02*
X605000D01*
X654000Y191250D02*
Y227250D01*
X638000Y191250D02*
X654000D01*
X638000D02*
Y227250D01*
X654000D01*
X460500Y625000D02*
X469500D01*
X465000Y620500D02*
Y629500D01*
X451250Y575750D02*
X460250D01*
X455750Y571250D02*
Y580250D01*
X257000Y533750D02*
X266500D01*
X261750Y529000D02*
Y538500D01*
X132250Y448000D02*
X137750D01*
X135000Y445250D02*
Y450750D01*
X178250Y372000D02*
X183750D01*
X181000Y369250D02*
Y374750D01*
X172750Y634750D02*
X182250D01*
X177500Y630000D02*
Y639500D01*
X186250Y391000D02*
X191750D01*
X189000Y388250D02*
Y393750D01*
X215500Y648000D02*
X251500D01*
X215500Y632000D02*
Y648000D01*
Y632000D02*
X251500D01*
Y648000D01*
X469500Y374750D02*
Y384250D01*
X464750Y379500D02*
X474250D01*
X517000Y493000D02*
Y502000D01*
X512500Y497500D02*
X521500D01*
X532250Y368500D02*
X541749D01*
X537000Y363750D02*
Y373250D01*
X539500Y470500D02*
X548500D01*
X544000Y466000D02*
Y475000D01*
X569500Y389250D02*
Y398250D01*
X565000Y393750D02*
X574000D01*
X594250Y403000D02*
X603750D01*
X599000Y398250D02*
Y407750D01*
X179250Y342000D02*
X184750D01*
X182000Y339250D02*
Y344750D01*
X273000Y441250D02*
Y450750D01*
X268250Y446000D02*
X277750D01*
X278250Y642500D02*
X288250D01*
X283250Y637500D02*
Y647500D01*
X362750Y410000D02*
Y420000D01*
X357750Y415000D02*
X367750D01*
X441750Y387750D02*
X451250D01*
X446500Y383000D02*
Y392500D01*
X440500Y369500D02*
X476500D01*
X440500Y353500D02*
Y369500D01*
Y353500D02*
X476500D01*
Y369500D01*
X520000Y610000D02*
Y620000D01*
X515000Y615000D02*
X525000D01*
X500500Y404250D02*
X510000D01*
X505250Y399500D02*
Y409000D01*
X545250Y386750D02*
Y422750D01*
X529250D02*
X545250D01*
X529250Y386750D02*
Y422750D01*
Y386750D02*
X545250D01*
X362250Y577500D02*
X371250D01*
X366750Y573000D02*
Y582000D01*
X391250Y466500D02*
X401250D01*
X396250Y461500D02*
Y471500D01*
X424749Y574500D02*
X434250D01*
X429500Y569750D02*
Y579250D01*
X464000Y507000D02*
X473500D01*
X468750Y502250D02*
Y511750D01*
X530250Y280249D02*
X540250D01*
X535250Y275250D02*
Y285250D01*
X335000Y615249D02*
Y651249D01*
Y615249D02*
X351000D01*
Y651249D01*
X335000D02*
X351000D01*
X569500Y361750D02*
X605500D01*
Y377750D01*
X569500D02*
X605500D01*
X569500Y361750D02*
Y377750D01*
X483500Y354000D02*
X519500D01*
Y370000D01*
X483500D02*
X519500D01*
X483500Y354000D02*
Y370000D01*
D14*
X502248Y217747D02*
X572248D01*
X502248Y107748D02*
Y217747D01*
Y107748D02*
X572248D01*
Y217747D01*
X210499Y560245D02*
X219499D01*
Y589245D01*
X210499Y560245D02*
Y589245D01*
X219500Y630500D02*
Y659500D01*
X210500Y630500D02*
Y659500D01*
X219500D01*
X595499Y560245D02*
X604499D01*
Y589245D01*
X595499Y560245D02*
Y589245D01*
X604500Y630500D02*
Y659500D01*
X595500Y630500D02*
Y659500D01*
X604500D01*
X572248Y107748D02*
Y217747D01*
X502248Y107748D02*
X572248D01*
X502248D02*
Y217747D01*
X572248D01*
X257500Y553500D02*
Y666500D01*
X172500Y553500D02*
X257500D01*
X172500Y666500D02*
X257500D01*
X172500Y553500D02*
Y666500D01*
X338320Y584502D02*
Y664502D01*
X269320Y584502D02*
Y664502D01*
X338320D01*
X269320Y584502D02*
X338320D01*
X642500Y553500D02*
Y666500D01*
X557500Y553500D02*
X642500D01*
X557500Y666500D02*
X642500D01*
X557500Y553500D02*
Y666500D01*
X478500Y617500D02*
Y632500D01*
X451500Y617500D02*
Y632500D01*
Y617500D02*
X478500D01*
X451500Y632500D02*
X478500D01*
X442250Y568250D02*
Y583250D01*
X469250Y568250D02*
Y583250D01*
X442250D02*
X469250D01*
X442250Y568250D02*
X469250D01*
X272250Y516750D02*
Y550750D01*
X251250Y516750D02*
Y550750D01*
X272250D01*
X251250Y516750D02*
X272250D01*
X131000Y440500D02*
Y455500D01*
X139000Y440500D02*
Y455500D01*
X131000D02*
X139000D01*
X131000Y440500D02*
X139000D01*
X185000Y364500D02*
Y379500D01*
X177000Y364500D02*
Y379500D01*
Y364500D02*
X185000D01*
X177000Y379500D02*
X185000D01*
X183500Y623750D02*
Y645750D01*
X171500Y623750D02*
Y645750D01*
Y623750D02*
X183500D01*
X171500Y645750D02*
X183500D01*
X193000Y383500D02*
Y398500D01*
X185000Y383500D02*
Y398500D01*
Y383500D02*
X193000D01*
X185000Y398500D02*
X193000D01*
X458500Y373500D02*
X480500D01*
X458500Y385500D02*
X480500D01*
X458500Y373500D02*
Y385500D01*
X480500Y373500D02*
Y385500D01*
X506500Y492000D02*
X527500D01*
X506500Y503000D02*
X527500D01*
X506500Y492000D02*
Y503000D01*
X527500Y492000D02*
Y503000D01*
X531000Y357500D02*
Y379500D01*
X543000Y357500D02*
Y379500D01*
X531000D02*
X543000D01*
X531000Y357500D02*
X543000D01*
X549500Y460000D02*
Y481000D01*
X538500Y460000D02*
Y481000D01*
Y460000D02*
X549500D01*
X538500Y481000D02*
X549500D01*
X559000Y399250D02*
X580000D01*
X559000Y388250D02*
X580000D01*
Y399250D01*
X559000Y388250D02*
Y399250D01*
X605000Y392000D02*
Y414000D01*
X593000Y392000D02*
Y414000D01*
Y392000D02*
X605000D01*
X593000Y414000D02*
X605000D01*
X186000Y334500D02*
Y349500D01*
X178000Y334500D02*
Y349500D01*
Y334500D02*
X186000D01*
X178000Y349500D02*
X186000D01*
X262000Y440000D02*
X284000D01*
X262000Y452000D02*
X284000D01*
X262000Y440000D02*
Y452000D01*
X284000Y440000D02*
Y452000D01*
X273250Y623000D02*
Y662000D01*
X293250Y623000D02*
Y662000D01*
X273250D02*
X293250D01*
X273250Y623000D02*
X293250D01*
X339750Y403500D02*
X385750D01*
X339750Y426500D02*
X385750D01*
X339750Y403500D02*
Y426500D01*
X385750Y403500D02*
Y426500D01*
X440500Y376750D02*
Y398750D01*
X452500Y376750D02*
Y398750D01*
X440500D02*
X452500D01*
X440500Y376750D02*
X452500D01*
X484500Y559500D02*
X555500D01*
X484500Y670500D02*
X555500D01*
Y559500D02*
Y670500D01*
X484500Y559500D02*
Y670500D01*
X494750Y387250D02*
Y421250D01*
X515750Y387250D02*
Y421250D01*
X494750D02*
X515750D01*
X494750Y387250D02*
X515750D01*
X372250Y567000D02*
Y588000D01*
X361250Y567000D02*
Y588000D01*
Y567000D02*
X372250D01*
X361250Y588000D02*
X372250D01*
X375250Y428000D02*
Y505000D01*
X417250Y428000D02*
Y505000D01*
X375250D02*
X417250D01*
X375250Y428000D02*
X417250D01*
X423500Y563500D02*
Y585500D01*
X435500Y563500D02*
Y585500D01*
X423500D02*
X435500D01*
X423500Y563500D02*
X435500D01*
X474750Y496000D02*
Y518000D01*
X462750Y496000D02*
Y518000D01*
Y496000D02*
X474750D01*
X462750Y518000D02*
X474750D01*
X582500Y226499D02*
Y333499D01*
X488500Y226499D02*
Y333499D01*
X582500D01*
X488500Y226499D02*
X582500D01*
X498750Y220250D02*
X576250D01*
X498750Y105250D02*
Y220250D01*
Y105250D02*
X576250D01*
Y220250D01*
X532250Y162750D02*
X542250D01*
X537250Y157750D02*
Y167750D01*
D15*
X219499Y589245D02*
G03*
X210499Y589245I-4500J0D01*
G01*
X210500Y630500D02*
G03*
X219500Y630500I4500J0D01*
G01*
X250000Y610000D02*
G03*
X250000Y610000I-35000J0D01*
G01*
X255000D02*
G03*
X255000Y610000I-40000J0D01*
G01*
X604499Y589245D02*
G03*
X595499Y589245I-4500J0D01*
G01*
X595500Y630500D02*
G03*
X604500Y630500I4500J0D01*
G01*
X635000Y610000D02*
G03*
X635000Y610000I-35000J0D01*
G01*
X640000D02*
G03*
X640000Y610000I-40000J0D01*
G01*
X210499Y589245D02*
X219499D01*
X210500Y630500D02*
X219500D01*
X595499Y589245D02*
X604499D01*
X595500Y630500D02*
X604500D01*
D16*
X592150Y507750D02*
X604850D01*
X598500Y501400D02*
Y514100D01*
D97*
X132968Y347968D02*
Y352032D01*
X137032D01*
Y347968D01*
X132968D01*
Y372968D02*
Y377032D01*
X137032D01*
Y372968D01*
X132968D01*
Y397968D02*
Y402032D01*
X137032D01*
Y397968D01*
X132968D01*
Y422968D02*
Y427032D01*
X137032D01*
Y422968D01*
X132968D01*
X127968Y637968D02*
Y642032D01*
X132032D01*
Y637968D01*
X127968D01*
Y612968D02*
Y617032D01*
X132032D01*
Y612968D01*
X127968D01*
Y587968D02*
Y592032D01*
X132032D01*
Y587968D01*
X127968D01*
Y562968D02*
Y567032D01*
X132032D01*
Y562968D01*
X127968D01*
X437968Y57968D02*
Y62032D01*
X442032D01*
Y57968D01*
X437968D01*
Y82968D02*
Y87032D01*
X442032D01*
Y82968D01*
X437968D01*
Y107968D02*
Y112032D01*
X442032D01*
Y107968D01*
X437968D01*
Y132968D02*
Y137032D01*
X442032D01*
Y132968D01*
X437968D01*
X480650Y465468D02*
X478618Y469532D01*
X482682D01*
X480650Y465468D01*
X455250D02*
X453218Y469532D01*
X457282D01*
X455250Y465468D01*
X572968Y62968D02*
Y67032D01*
X577032D01*
Y62968D01*
X572968D01*
X547968D02*
Y67032D01*
X552032D01*
Y62968D01*
X547968D01*
X522968D02*
Y67032D01*
X527032D01*
Y62968D01*
X522968D01*
X497968D02*
Y67032D01*
X502032D01*
Y62968D01*
X497968D01*
X632968Y57968D02*
Y62032D01*
X637032D01*
Y57968D01*
X632968D01*
Y82968D02*
Y87032D01*
X637032D01*
Y82968D01*
X632968D01*
Y107968D02*
Y112032D01*
X637032D01*
Y107968D01*
X632968D01*
Y132968D02*
Y137032D01*
X637032D01*
Y132968D01*
X632968D01*
X297000Y499468D02*
X298016Y500484D01*
X299032D01*
X298016Y501500D01*
X299032Y502516D01*
X298016D01*
X297000Y503532D01*
X295984Y502516D01*
X294968D01*
X295984Y501500D01*
X294968Y500484D01*
X295984D01*
X297000Y499468D01*
X345800D02*
X346816Y500484D01*
X347832D01*
X346816Y501500D01*
X347832Y502516D01*
X346816D01*
X345800Y503532D01*
X344784Y502516D01*
X343768D01*
X344784Y501500D01*
X343768Y500484D01*
X344784D01*
X345800Y499468D01*
X647268Y505718D02*
X648284Y507750D01*
X647268Y509782D01*
X649300Y508766D01*
X651332Y509782D01*
X650316Y507750D01*
X651332Y505718D01*
X649300Y506734D01*
X647268Y505718D01*
X545668D02*
X546684Y507750D01*
X545668Y509782D01*
X547700Y508766D01*
X549732Y509782D01*
X548716Y507750D01*
X549732Y505718D01*
X547700Y506734D01*
X545668Y505718D01*
X184500Y579218D02*
X182468Y583282D01*
X186532D01*
X184500Y579218D01*
Y553818D02*
X182468Y557882D01*
X186532D01*
X184500Y553818D01*
X566934Y120734D02*
Y119718D01*
X568966D01*
Y120734D01*
X569982D01*
Y122766D01*
X568966D01*
Y123782D01*
X566934D01*
Y122766D01*
X565918D01*
Y120734D01*
X566934D01*
Y202734D02*
Y201718D01*
X568966D01*
Y202734D01*
X569982D01*
Y204766D01*
X568966D01*
Y205782D01*
X566934D01*
Y204766D01*
X565918D01*
Y202734D01*
X566934D01*
X521718Y125718D02*
X522734D01*
X523750Y126734D01*
X524767Y125718D01*
X525783D01*
Y126734D01*
X524767Y127750D01*
X525783Y128766D01*
Y129782D01*
X524767D01*
X523750Y128766D01*
X522734Y129782D01*
X521718D01*
Y128766D01*
X522734Y127750D01*
X521718Y126734D01*
Y125718D01*
Y197750D02*
X523750Y199782D01*
X525783Y197750D01*
X523750Y195718D01*
X521718Y197750D01*
X505534Y202734D02*
Y201718D01*
X507566D01*
Y202734D01*
X508582D01*
Y204766D01*
X507566D01*
Y205782D01*
X505534D01*
Y204766D01*
X504518D01*
Y202734D01*
X505534D01*
Y120734D02*
Y119718D01*
X507566D01*
Y120734D01*
X508582D01*
Y122766D01*
X507566D01*
Y123782D01*
X505534D01*
Y122766D01*
X504518D01*
Y120734D01*
X505534D01*
X535218Y198468D02*
Y202532D01*
X539282D01*
Y198468D01*
X535218D01*
X536234Y199484D02*
Y201516D01*
X538266D01*
Y199484D01*
X536234D01*
X535218Y122968D02*
Y127032D01*
X539282D01*
Y122968D01*
X535218D01*
X536234Y123984D02*
Y126016D01*
X538266D01*
Y123984D01*
X536234D01*
X516568Y542968D02*
X517584Y545000D01*
X516568Y547032D01*
X518600Y546016D01*
X520632Y547032D01*
X519616Y545000D01*
X520632Y542968D01*
X518600Y543984D01*
X516568Y542968D01*
X491168D02*
X492184Y545000D01*
X491168Y547032D01*
X493200Y546016D01*
X495232Y547032D01*
X494216Y545000D01*
X495232Y542968D01*
X493200Y543984D01*
X491168Y542968D01*
X414968D02*
X415984Y545000D01*
X414968Y547032D01*
X417000Y546016D01*
X419032Y547032D01*
X418016Y545000D01*
X419032Y542968D01*
X417000Y543984D01*
X414968Y542968D01*
X389568D02*
X390584Y545000D01*
X389568Y547032D01*
X391600Y546016D01*
X393632Y547032D01*
X392616Y545000D01*
X393632Y542968D01*
X391600Y543984D01*
X389568Y542968D01*
X364168D02*
X365184Y545000D01*
X364168Y547032D01*
X366200Y546016D01*
X368232Y547032D01*
X367216Y545000D01*
X368232Y542968D01*
X366200Y543984D01*
X364168Y542968D01*
X338768D02*
X339784Y545000D01*
X338768Y547032D01*
X340800Y546016D01*
X342832Y547032D01*
X341816Y545000D01*
X342832Y542968D01*
X340800Y543984D01*
X338768Y542968D01*
X313368D02*
X314384Y545000D01*
X313368Y547032D01*
X315400Y546016D01*
X317432Y547032D01*
X316416Y545000D01*
X317432Y542968D01*
X315400Y543984D01*
X313368Y542968D01*
X287968D02*
X288984Y545000D01*
X287968Y547032D01*
X290000Y546016D01*
X292032Y547032D01*
X291016Y545000D01*
X292032Y542968D01*
X290000Y543984D01*
X287968Y542968D01*
X440368D02*
X441384Y545000D01*
X440368Y547032D01*
X442400Y546016D01*
X444432Y547032D01*
X443416Y545000D01*
X444432Y542968D01*
X442400Y543984D01*
X440368Y542968D01*
X465768D02*
X466784Y545000D01*
X465768Y547032D01*
X467800Y546016D01*
X469832Y547032D01*
X468816Y545000D01*
X469832Y542968D01*
X467800Y543984D01*
X465768Y542968D01*
X143000Y514968D02*
X140968Y519032D01*
X145032D01*
X143000Y514968D01*
Y515984D02*
X141984Y518016D01*
X144016D01*
X143000Y515984D01*
X642000Y342968D02*
X639968Y347032D01*
X644032D01*
X642000Y342968D01*
Y343984D02*
X640984Y346016D01*
X643016D01*
X642000Y343984D01*
X276000Y342218D02*
X273968Y346282D01*
X278032D01*
X276000Y342218D01*
Y343234D02*
X274984Y345266D01*
X277016D01*
X276000Y343234D01*
X643250Y14468D02*
X641218Y18532D01*
X645282D01*
X643250Y14468D01*
Y15484D02*
X642234Y17516D01*
X644266D01*
X643250Y15484D01*
X428000Y15468D02*
X425968Y19532D01*
X430032D01*
X428000Y15468D01*
Y16484D02*
X426984Y18516D01*
X429016D01*
X428000Y16484D01*
D98*
X371632Y630000D02*
G03*
X371632Y630000I-2032J0D01*
G01*
X397032D02*
G03*
X397032Y630000I-2032J0D01*
G01*
X422432D02*
G03*
X422432Y630000I-2032J0D01*
G01*
X547624Y103124D02*
G03*
X547624Y103124I-2032J0D01*
G01*
X281686Y413004D02*
G03*
X281686Y413004I-2032J0D01*
G01*
X339305Y376560D02*
G03*
X339305Y376560I-2032J0D01*
G01*
X251714Y552450D02*
G03*
X251714Y552450I-2032J0D01*
G01*
X415798Y346710D02*
G03*
X415798Y346710I-2032J0D01*
G01*
X521462Y293370D02*
G03*
X521462Y293370I-2032J0D01*
G01*
X167386Y408178D02*
G03*
X167386Y408178I-2032J0D01*
G01*
X199644Y440436D02*
G03*
X199644Y440436I-2032J0D01*
G01*
X431532Y598170D02*
G03*
X431532Y598170I-2032J0D01*
G01*
X555498Y364236D02*
G03*
X555498Y364236I-2032J0D01*
G01*
X604774Y143256D02*
G03*
X604774Y143256I-2032J0D01*
G01*
X143256Y542036D02*
G03*
X143256Y542036I-2032J0D01*
G01*
X433324Y443230D02*
G03*
X433324Y443230I-2032J0D01*
G01*
X309880Y488950D02*
G03*
X309880Y488950I-2032J0D01*
G01*
X228600Y522986D02*
G03*
X228600Y522986I-2032J0D01*
G01*
X579374Y335026D02*
G03*
X579374Y335026I-2032J0D01*
G01*
X391668Y578104D02*
G03*
X391668Y578104I-2032J0D01*
G01*
X449834Y224282D02*
G03*
X449834Y224282I-2032J0D01*
G01*
X194310Y492252D02*
G03*
X194310Y492252I-2032J0D01*
G01*
X479552Y586740D02*
G03*
X479552Y586740I-2032J0D01*
G01*
X464312Y340360D02*
G03*
X464312Y340360I-2032J0D01*
G01*
X211836Y373888D02*
G03*
X211836Y373888I-2032J0D01*
G01*
X344170Y456692D02*
G03*
X344170Y456692I-2032J0D01*
G01*
X522986Y442578D02*
G03*
X522986Y442578I-2032J0D01*
G01*
X578104Y478790D02*
G03*
X578104Y478790I-2032J0D01*
G01*
X231648Y489458D02*
G03*
X231648Y489458I-2032J0D01*
G01*
X416292Y588010D02*
G03*
X416292Y588010I-2032J0D01*
G01*
X398272Y601472D02*
G03*
X398272Y601472I-2032J0D01*
G01*
X217932Y478790D02*
G03*
X217932Y478790I-2032J0D01*
G01*
X354330Y471678D02*
G03*
X354330Y471678I-2032J0D01*
G01*
X482202Y446422D02*
G03*
X482202Y446422I-2032J0D01*
G01*
X141986Y463550D02*
G03*
X141986Y463550I-2032J0D01*
G01*
X337820Y471932D02*
G03*
X337820Y471932I-2032J0D01*
G01*
X538988Y451612D02*
G03*
X538988Y451612I-2032J0D01*
G01*
X550926Y441846D02*
G03*
X550926Y441846I-2032J0D01*
G01*
X389636Y397256D02*
G03*
X389636Y397256I-2032J0D01*
G01*
X512826Y383286D02*
G03*
X512826Y383286I-2032J0D01*
G01*
X394208Y417068D02*
G03*
X394208Y417068I-2032J0D01*
G01*
X594614Y184404D02*
G03*
X594614Y184404I-2032J0D01*
G01*
X221996Y435864D02*
G03*
X221996Y435864I-2032J0D01*
G01*
X545588Y335313D02*
G03*
X545588Y335313I-2032J0D01*
G01*
X430784Y379932D02*
G03*
X430784Y379932I-2032J0D01*
G01*
X435614Y286516D02*
G03*
X435614Y286516I-2032J0D01*
G01*
X370586Y398780D02*
G03*
X370586Y398780I-2032J0D01*
G01*
X437388Y311404D02*
G03*
X437388Y311404I-2032J0D01*
G01*
X457708D02*
G03*
X457708Y311404I-2032J0D01*
G01*
X140208Y659384D02*
G03*
X140208Y659384I-2032J0D01*
G01*
X626872Y198000D02*
G03*
X626872Y198000I-2032J0D01*
G01*
D99*
X546608Y103124D02*
G03*
X546608Y103124I-1016J0D01*
G01*
X280670Y413004D02*
G03*
X280670Y413004I-1016J0D01*
G01*
X338289Y376560D02*
G03*
X338289Y376560I-1016J0D01*
G01*
X250698Y552450D02*
G03*
X250698Y552450I-1016J0D01*
G01*
X414782Y346710D02*
G03*
X414782Y346710I-1016J0D01*
G01*
X520446Y293370D02*
G03*
X520446Y293370I-1016J0D01*
G01*
X166370Y408178D02*
G03*
X166370Y408178I-1016J0D01*
G01*
X198628Y440436D02*
G03*
X198628Y440436I-1016J0D01*
G01*
X430516Y598170D02*
G03*
X430516Y598170I-1016J0D01*
G01*
X554482Y364236D02*
G03*
X554482Y364236I-1016J0D01*
G01*
X603758Y143256D02*
G03*
X603758Y143256I-1016J0D01*
G01*
X142240Y542036D02*
G03*
X142240Y542036I-1016J0D01*
G01*
X432308Y443230D02*
G03*
X432308Y443230I-1016J0D01*
G01*
X308864Y488950D02*
G03*
X308864Y488950I-1016J0D01*
G01*
X227584Y522986D02*
G03*
X227584Y522986I-1016J0D01*
G01*
X578358Y335026D02*
G03*
X578358Y335026I-1016J0D01*
G01*
X390652Y578104D02*
G03*
X390652Y578104I-1016J0D01*
G01*
X448818Y224282D02*
G03*
X448818Y224282I-1016J0D01*
G01*
X193294Y492252D02*
G03*
X193294Y492252I-1016J0D01*
G01*
X478536Y586740D02*
G03*
X478536Y586740I-1016J0D01*
G01*
X463296Y340360D02*
G03*
X463296Y340360I-1016J0D01*
G01*
X210820Y373888D02*
G03*
X210820Y373888I-1016J0D01*
G01*
X343154Y456692D02*
G03*
X343154Y456692I-1016J0D01*
G01*
X521970Y442578D02*
G03*
X521970Y442578I-1016J0D01*
G01*
X577088Y478790D02*
G03*
X577088Y478790I-1016J0D01*
G01*
X230632Y489458D02*
G03*
X230632Y489458I-1016J0D01*
G01*
X415276Y588010D02*
G03*
X415276Y588010I-1016J0D01*
G01*
X397256Y601472D02*
G03*
X397256Y601472I-1016J0D01*
G01*
X216916Y478790D02*
G03*
X216916Y478790I-1016J0D01*
G01*
X353314Y471678D02*
G03*
X353314Y471678I-1016J0D01*
G01*
X481186Y446422D02*
G03*
X481186Y446422I-1016J0D01*
G01*
X140970Y463550D02*
G03*
X140970Y463550I-1016J0D01*
G01*
X336804Y471932D02*
G03*
X336804Y471932I-1016J0D01*
G01*
X537972Y451612D02*
G03*
X537972Y451612I-1016J0D01*
G01*
X549910Y441846D02*
G03*
X549910Y441846I-1016J0D01*
G01*
X388620Y397256D02*
G03*
X388620Y397256I-1016J0D01*
G01*
X511810Y383286D02*
G03*
X511810Y383286I-1016J0D01*
G01*
X393192Y417068D02*
G03*
X393192Y417068I-1016J0D01*
G01*
X593598Y184404D02*
G03*
X593598Y184404I-1016J0D01*
G01*
X220980Y435864D02*
G03*
X220980Y435864I-1016J0D01*
G01*
X544572Y335313D02*
G03*
X544572Y335313I-1016J0D01*
G01*
X429768Y379932D02*
G03*
X429768Y379932I-1016J0D01*
G01*
X434598Y286516D02*
G03*
X434598Y286516I-1016J0D01*
G01*
X369570Y398780D02*
G03*
X369570Y398780I-1016J0D01*
G01*
X436372Y311404D02*
G03*
X436372Y311404I-1016J0D01*
G01*
X456692D02*
G03*
X456692Y311404I-1016J0D01*
G01*
X139192Y659384D02*
G03*
X139192Y659384I-1016J0D01*
G01*
X625856Y198000D02*
G03*
X625856Y198000I-1016J0D01*
G01*
M02*
