G04*
G04 #@! TF.GenerationSoftware,Altium Limited,CircuitMaker,2.0.3 (2.0.3.51)*
G04*
G04 Layer_Color=13813960*
%FSLAX44Y44*%
%MOMM*%
G71*
G04*
G04 #@! TF.SameCoordinates,E9E563F1-332F-4466-8196-8310A66FFE87*
G04*
G04*
G04 #@! TF.FilePolarity,Positive*
G04*
G01*
G75*
%ADD10C,0.2000*%
%ADD11C,0.2500*%
%ADD12C,0.2540*%
%ADD13C,0.1000*%
%ADD14C,0.0500*%
%ADD15C,0.0100*%
%ADD16C,0.1270*%
%ADD95C,0.5000*%
%ADD96C,0.1524*%
D10*
X275750Y639000D02*
Y646000D01*
X290750Y639000D02*
Y646000D01*
X359250Y407000D02*
X366250D01*
X359250Y423000D02*
X366250D01*
X553000Y595000D02*
Y599000D01*
X487000Y595000D02*
Y599000D01*
Y595000D02*
X553000D01*
X378750Y446000D02*
Y487000D01*
X413750Y446000D02*
Y487000D01*
X558000Y228999D02*
Y331000D01*
X513000Y228999D02*
Y331000D01*
X558000D01*
X513000Y228999D02*
X558000D01*
D11*
X554300Y572500D02*
G03*
X554300Y572500I-1250J0D01*
G01*
X571750Y329750D02*
G03*
X571750Y329750I-1250J0D01*
G01*
D12*
X647794Y393633D02*
Y408867D01*
X640176D01*
X637637Y406328D01*
Y401250D01*
X640176Y398711D01*
X647794D01*
X642716D02*
X637637Y393633D01*
X632559D02*
X627480D01*
X630020D01*
Y408867D01*
X632559Y406328D01*
X619863Y408867D02*
X609706D01*
Y406328D01*
X619863Y396172D01*
Y393633D01*
X474794Y467383D02*
Y482618D01*
X467176D01*
X464637Y480078D01*
Y475000D01*
X467176Y472461D01*
X474794D01*
X469715D02*
X464637Y467383D01*
X459559D02*
X454480D01*
X457020D01*
Y482618D01*
X459559Y480078D01*
X436706Y482618D02*
X441785Y480078D01*
X446863Y475000D01*
Y469922D01*
X444324Y467383D01*
X439245D01*
X436706Y469922D01*
Y472461D01*
X439245Y475000D01*
X446863D01*
X556294Y334632D02*
Y349868D01*
X548676D01*
X546137Y347328D01*
Y342250D01*
X548676Y339711D01*
X556294D01*
X551216D02*
X546137Y334632D01*
X541059D02*
X535980D01*
X538520D01*
Y349868D01*
X541059Y347328D01*
X518206Y349868D02*
X528363D01*
Y342250D01*
X523284Y344789D01*
X520745D01*
X518206Y342250D01*
Y337172D01*
X520745Y334632D01*
X525824D01*
X528363Y337172D01*
X450794Y398882D02*
Y414118D01*
X443176D01*
X440637Y411578D01*
Y406500D01*
X443176Y403961D01*
X450794D01*
X445715D02*
X440637Y398882D01*
X435559D02*
X430480D01*
X433020D01*
Y414118D01*
X435559Y411578D01*
X415245Y398882D02*
Y414118D01*
X422863Y406500D01*
X412706D01*
X167118Y660794D02*
X151882D01*
Y653176D01*
X154422Y650637D01*
X159500D01*
X162039Y653176D01*
Y660794D01*
Y655715D02*
X167118Y650637D01*
Y645559D02*
Y640480D01*
Y643019D01*
X151882D01*
X154422Y645559D01*
Y632863D02*
X151882Y630324D01*
Y625245D01*
X154422Y622706D01*
X156961D01*
X159500Y625245D01*
Y627785D01*
Y625245D01*
X162039Y622706D01*
X164578D01*
X167118Y625245D01*
Y630324D01*
X164578Y632863D01*
X492294Y390132D02*
Y405368D01*
X484676D01*
X482137Y402828D01*
Y397750D01*
X484676Y395211D01*
X492294D01*
X487215D02*
X482137Y390132D01*
X477059D02*
X471980D01*
X474520D01*
Y405368D01*
X477059Y402828D01*
X454206Y390132D02*
X464363D01*
X454206Y400289D01*
Y402828D01*
X456745Y405368D01*
X461824D01*
X464363Y402828D01*
X433004Y588882D02*
Y604118D01*
X425387D01*
X422848Y601578D01*
Y596500D01*
X425387Y593961D01*
X433004D01*
X427926D02*
X422848Y588882D01*
X417769D02*
X412691D01*
X415230D01*
Y604118D01*
X417769Y601578D01*
X405074Y588882D02*
X399995D01*
X402534D01*
Y604118D01*
X405074Y601578D01*
X176044Y323382D02*
Y338618D01*
X168426D01*
X165887Y336078D01*
Y331000D01*
X168426Y328461D01*
X176044D01*
X170965D02*
X165887Y323382D01*
X160809D02*
X155730D01*
X158270D01*
Y338618D01*
X160809Y336078D01*
X148113D02*
X145574Y338618D01*
X140495D01*
X137956Y336078D01*
Y325922D01*
X140495Y323382D01*
X145574D01*
X148113Y325922D01*
Y336078D01*
X533696Y462882D02*
Y478117D01*
X526078D01*
X523539Y475578D01*
Y470500D01*
X526078Y467961D01*
X533696D01*
X528618D02*
X523539Y462882D01*
X518461Y465422D02*
X515922Y462882D01*
X510843D01*
X508304Y465422D01*
Y475578D01*
X510843Y478117D01*
X515922D01*
X518461Y475578D01*
Y473039D01*
X515922Y470500D01*
X508304D01*
X126696Y435382D02*
Y450617D01*
X119078D01*
X116539Y448078D01*
Y443000D01*
X119078Y440461D01*
X126696D01*
X121617D02*
X116539Y435382D01*
X111461Y448078D02*
X108922Y450617D01*
X103843D01*
X101304Y448078D01*
Y445539D01*
X103843Y443000D01*
X101304Y440461D01*
Y437922D01*
X103843Y435382D01*
X108922D01*
X111461Y437922D01*
Y440461D01*
X108922Y443000D01*
X111461Y445539D01*
Y448078D01*
X108922Y443000D02*
X103843D01*
X526696Y506882D02*
Y522118D01*
X519078D01*
X516539Y519578D01*
Y514500D01*
X519078Y511961D01*
X526696D01*
X521618D02*
X516539Y506882D01*
X511461Y522118D02*
X501304D01*
Y519578D01*
X511461Y509422D01*
Y506882D01*
X174696Y364383D02*
Y379618D01*
X167078D01*
X164539Y377078D01*
Y372000D01*
X167078Y369461D01*
X174696D01*
X169618D02*
X164539Y364383D01*
X149304Y379618D02*
X154382Y377078D01*
X159461Y372000D01*
Y366922D01*
X156922Y364383D01*
X151843D01*
X149304Y366922D01*
Y369461D01*
X151843Y372000D01*
X159461D01*
X370078Y595884D02*
Y611119D01*
X362461D01*
X359921Y608580D01*
Y603502D01*
X362461Y600962D01*
X370078D01*
X365000D02*
X359921Y595884D01*
X344686Y611119D02*
X354843D01*
Y603502D01*
X349765Y606041D01*
X347225D01*
X344686Y603502D01*
Y598423D01*
X347225Y595884D01*
X352304D01*
X354843Y598423D01*
X564868Y382946D02*
X549632D01*
Y375328D01*
X552172Y372789D01*
X557250D01*
X559789Y375328D01*
Y382946D01*
Y377868D02*
X564868Y372789D01*
Y360093D02*
X549632D01*
X557250Y367711D01*
Y357554D01*
X202617Y380696D02*
X187382D01*
Y373078D01*
X189922Y370539D01*
X195000D01*
X197539Y373078D01*
Y380696D01*
Y375617D02*
X202617Y370539D01*
X189922Y365461D02*
X187382Y362922D01*
Y357843D01*
X189922Y355304D01*
X192461D01*
X195000Y357843D01*
Y360382D01*
Y357843D01*
X197539Y355304D01*
X200078D01*
X202617Y357843D01*
Y362922D01*
X200078Y365461D01*
X613196Y360368D02*
Y345132D01*
X605578D01*
X603039Y347672D01*
Y357828D01*
X605578Y360368D01*
X613196D01*
X597961Y357828D02*
X595422Y360368D01*
X590343D01*
X587804Y357828D01*
Y355289D01*
X590343Y352750D01*
X587804Y350211D01*
Y347672D01*
X590343Y345132D01*
X595422D01*
X597961Y347672D01*
Y350211D01*
X595422Y352750D01*
X597961Y355289D01*
Y357828D01*
X595422Y352750D02*
X590343D01*
X514196Y386618D02*
Y371382D01*
X506578D01*
X504039Y373922D01*
Y384078D01*
X506578Y386618D01*
X514196D01*
X488804D02*
X493882Y384078D01*
X498961Y379000D01*
Y373922D01*
X496422Y371382D01*
X491343D01*
X488804Y373922D01*
Y376461D01*
X491343Y379000D01*
X498961D01*
X470446Y347118D02*
Y331883D01*
X462828D01*
X460289Y334422D01*
Y344578D01*
X462828Y347118D01*
X470446D01*
X445054D02*
X455211D01*
Y339500D01*
X450132Y342039D01*
X447593D01*
X445054Y339500D01*
Y334422D01*
X447593Y331883D01*
X452672D01*
X455211Y334422D01*
X244196Y665618D02*
Y650383D01*
X236578D01*
X234039Y652922D01*
Y663078D01*
X236578Y665618D01*
X244196D01*
X221343Y650383D02*
Y665618D01*
X228961Y658000D01*
X218804D01*
X563118Y410304D02*
X547882D01*
Y417922D01*
X550422Y420461D01*
X560578D01*
X563118Y417922D01*
Y410304D01*
X560578Y425539D02*
X563118Y428078D01*
Y433157D01*
X560578Y435696D01*
X558039D01*
X555500Y433157D01*
Y430617D01*
Y433157D01*
X552961Y435696D01*
X550422D01*
X547882Y433157D01*
Y428078D01*
X550422Y425539D01*
X334304Y597632D02*
Y612868D01*
X341922D01*
X344461Y610328D01*
Y600172D01*
X341922Y597632D01*
X334304D01*
X359696Y612868D02*
X349539D01*
X359696Y602711D01*
Y600172D01*
X357157Y597632D01*
X352078D01*
X349539Y600172D01*
X532696Y587617D02*
Y574922D01*
X530157Y572383D01*
X525078D01*
X522539Y574922D01*
Y587617D01*
X517461Y585078D02*
X514922Y587617D01*
X509843D01*
X507304Y585078D01*
Y582539D01*
X509843Y580000D01*
X512383D01*
X509843D01*
X507304Y577461D01*
Y574922D01*
X509843Y572383D01*
X514922D01*
X517461Y574922D01*
X210696Y534618D02*
Y521922D01*
X208157Y519383D01*
X203078D01*
X200539Y521922D01*
Y534618D01*
X185304Y519383D02*
X195461D01*
X185304Y529539D01*
Y532078D01*
X187843Y534618D01*
X192922D01*
X195461Y532078D01*
X580136Y356611D02*
Y343915D01*
X577597Y341376D01*
X572519D01*
X569979Y343915D01*
Y356611D01*
X564901Y341376D02*
X559823D01*
X562362D01*
Y356611D01*
X564901Y354072D01*
X442407Y485633D02*
Y500868D01*
X434789D01*
X432250Y498328D01*
Y493250D01*
X434789Y490711D01*
X442407D01*
X437328D02*
X432250Y485633D01*
X427172D02*
X422093D01*
X424632D01*
Y500868D01*
X427172Y498328D01*
X533000Y90382D02*
X527922D01*
X530461D01*
Y103078D01*
X527922Y105618D01*
X525382D01*
X522843Y103078D01*
X538078Y105618D02*
X543157D01*
X540618D01*
Y90382D01*
X538078Y92922D01*
X412348Y420828D02*
X414887Y423368D01*
X419966D01*
X422505Y420828D01*
Y410672D01*
X419966Y408133D01*
X414887D01*
X412348Y410672D01*
X407270Y408133D02*
X402191D01*
X404730D01*
Y423368D01*
X407270Y420828D01*
X394574Y408133D02*
X389495D01*
X392034D01*
Y423368D01*
X394574Y420828D01*
X575007Y564578D02*
X577546Y567118D01*
X582625D01*
X585164Y564578D01*
Y554422D01*
X582625Y551883D01*
X577546D01*
X575007Y554422D01*
X569929Y551883D02*
X564850D01*
X567390D01*
Y567118D01*
X569929Y564578D01*
X557233D02*
X554694Y567118D01*
X549615D01*
X547076Y564578D01*
Y554422D01*
X549615Y551883D01*
X554694D01*
X557233Y554422D01*
Y564578D01*
X271529Y472690D02*
X274069Y475229D01*
X279147D01*
X281686Y472690D01*
Y462533D01*
X279147Y459994D01*
X274069D01*
X271529Y462533D01*
X266451D02*
X263912Y459994D01*
X258833D01*
X256294Y462533D01*
Y472690D01*
X258833Y475229D01*
X263912D01*
X266451Y472690D01*
Y470151D01*
X263912Y467612D01*
X256294D01*
X283711Y607422D02*
X281172Y604882D01*
X276093D01*
X273554Y607422D01*
Y617578D01*
X276093Y620117D01*
X281172D01*
X283711Y617578D01*
X288789Y604882D02*
X298946D01*
Y607422D01*
X288789Y617578D01*
Y620117D01*
X511789Y438078D02*
X514328Y440617D01*
X519407D01*
X521946Y438078D01*
Y427922D01*
X519407Y425382D01*
X514328D01*
X511789Y427922D01*
X496554Y440617D02*
X501632Y438078D01*
X506711Y433000D01*
Y427922D01*
X504172Y425382D01*
X499093D01*
X496554Y427922D01*
Y430461D01*
X499093Y433000D01*
X506711D01*
X535000Y488700D02*
X662000D01*
X535000D02*
Y526800D01*
X662000D01*
Y488700D02*
Y526800D01*
X529515Y172593D02*
Y177672D01*
Y175133D01*
X542211D01*
X544750Y177672D01*
Y180211D01*
X542211Y182750D01*
X544750Y167515D02*
Y162437D01*
Y164976D01*
X529515D01*
X532054Y167515D01*
D13*
X229500Y646000D02*
X237500D01*
X229500Y634000D02*
X237500D01*
Y636000D02*
Y644000D01*
X233500Y636000D02*
X237500Y640000D01*
X229500D02*
X233500D01*
Y636000D02*
Y644000D01*
X237500Y640000D01*
X454500Y367500D02*
X462500D01*
X454500Y355500D02*
X462500D01*
Y357500D02*
Y365500D01*
X458500Y357500D02*
X462500Y361500D01*
X454500D02*
X458500D01*
Y357500D02*
Y365500D01*
X462500Y361500D01*
X543250Y400750D02*
Y408750D01*
X531250Y400750D02*
Y408750D01*
X533250Y400750D02*
X541250D01*
X533250Y404750D02*
X537250Y400750D01*
Y404750D02*
Y408750D01*
X533250Y404750D02*
X541250D01*
X537250Y400750D02*
X541250Y404750D01*
X337000Y629249D02*
Y637249D01*
X349000Y629249D02*
Y637249D01*
X339000D02*
X347000D01*
X343000D02*
X347000Y633249D01*
X343000Y629249D02*
Y633249D01*
X339000D02*
X347000D01*
X339000D02*
X343000Y637249D01*
X583500Y363750D02*
X591500D01*
X583500Y375750D02*
X591500D01*
X583500Y365750D02*
Y373750D01*
Y369750D02*
X587500Y373750D01*
Y369750D02*
X591500D01*
X587500Y365750D02*
Y373750D01*
X583500Y369750D02*
X587500Y365750D01*
X497500Y356000D02*
X505500D01*
X497500Y368000D02*
X505500D01*
X497500Y358000D02*
Y366000D01*
Y362000D02*
X501500Y366000D01*
Y362000D02*
X505500D01*
X501500Y358000D02*
Y366000D01*
X497500Y362000D02*
X501500Y358000D01*
X173500Y568500D02*
X256500D01*
X173500Y641500D02*
X183500Y651500D01*
X173500Y568500D02*
Y641500D01*
X256500Y568500D02*
Y641500D01*
X246500Y651500D02*
X256500Y641500D01*
X183500Y651500D02*
X246500D01*
X337320Y606002D02*
Y643002D01*
X270320Y606002D02*
Y643002D01*
X337320D01*
X270320Y606002D02*
X337320D01*
X558500Y568500D02*
X641500D01*
X558500Y641500D02*
X568500Y651500D01*
X558500Y568500D02*
Y641500D01*
X641500Y568500D02*
Y641500D01*
X631500Y651500D02*
X641500Y641500D01*
X568500Y651500D02*
X631500D01*
X473500Y620500D02*
Y629500D01*
X456500Y620500D02*
Y629500D01*
Y620500D02*
X473500D01*
X456500Y629500D02*
X473500D01*
X447250Y571250D02*
Y580250D01*
X464250Y571250D02*
Y580250D01*
X447250D02*
X464250D01*
X447250Y571250D02*
X464250D01*
X266500Y525000D02*
Y542500D01*
X257000Y525000D02*
Y542500D01*
X266500D01*
X257000Y525000D02*
X266500D01*
X132250Y442750D02*
Y453250D01*
X137750Y442750D02*
Y453250D01*
X132250D02*
X137750D01*
X132250Y442750D02*
X137750D01*
X183750Y366750D02*
Y377250D01*
X178250Y366750D02*
Y377250D01*
Y366750D02*
X183750D01*
X178250Y377250D02*
X183750D01*
X182250Y626000D02*
Y643500D01*
X172750Y626000D02*
Y643500D01*
Y626000D02*
X182250D01*
X172750Y643500D02*
X182250D01*
X191750Y385750D02*
Y396250D01*
X186250Y385750D02*
Y396250D01*
Y385750D02*
X191750D01*
X186250Y396250D02*
X191750D01*
X460750Y374750D02*
X478250D01*
X460750Y384250D02*
X478250D01*
X460750Y374750D02*
Y384250D01*
X478250Y374750D02*
Y384250D01*
X508500Y493000D02*
X525500D01*
X508500Y502000D02*
X525500D01*
X508500Y493000D02*
Y502000D01*
X525500Y493000D02*
Y502000D01*
X532250Y359750D02*
Y377250D01*
X541749Y359750D02*
Y377250D01*
X532250D02*
X541749D01*
X532250Y359750D02*
X541749D01*
X548500Y462000D02*
Y479000D01*
X539500Y462000D02*
Y479000D01*
Y462000D02*
X548500D01*
X539500Y479000D02*
X548500D01*
X561000Y398250D02*
X578000D01*
X561000Y389250D02*
X578000D01*
Y398250D01*
X561000Y389250D02*
Y398250D01*
X603750Y394250D02*
Y411750D01*
X594250Y394250D02*
Y411750D01*
Y394250D02*
X603750D01*
X594250Y411750D02*
X603750D01*
X184750Y336750D02*
Y347250D01*
X179250Y336750D02*
Y347250D01*
Y336750D02*
X184750D01*
X179250Y347250D02*
X184750D01*
X264250Y441250D02*
X281750D01*
X264250Y450750D02*
X281750D01*
X264250Y441250D02*
Y450750D01*
X281750Y441250D02*
Y450750D01*
X274250Y625500D02*
Y659500D01*
X292250Y625500D02*
Y659500D01*
X274250D02*
X292250D01*
X274250Y625500D02*
X292250D01*
X345750Y406000D02*
X379750D01*
X345750Y424000D02*
X379750D01*
X345750Y406000D02*
Y424000D01*
X379750Y406000D02*
Y424000D01*
X441750Y379000D02*
Y396500D01*
X451250Y379000D02*
Y396500D01*
X441750D02*
X451250D01*
X441750Y379000D02*
X451250D01*
X487000Y595000D02*
X553000D01*
X487000Y657000D02*
X553000D01*
Y595000D02*
Y657000D01*
X487000Y595000D02*
Y657000D01*
X500500Y395500D02*
Y413000D01*
X510000Y395500D02*
Y413000D01*
X500500D02*
X510000D01*
X500500Y395500D02*
X510000D01*
X371250Y569000D02*
Y586000D01*
X362250Y569000D02*
Y586000D01*
Y569000D02*
X371250D01*
X362250Y586000D02*
X371250D01*
X379500Y434250D02*
Y498750D01*
X413000Y434250D02*
Y498750D01*
X379500D02*
X413000D01*
X379500Y434250D02*
X413000D01*
X424749Y565750D02*
Y583250D01*
X434250Y565750D02*
Y583250D01*
X424749D02*
X434250D01*
X424749Y565750D02*
X434250D01*
X473500Y498250D02*
Y515750D01*
X464000Y498250D02*
Y515750D01*
Y498250D02*
X473500D01*
X464000Y515750D02*
X473500D01*
X562000Y228999D02*
Y331000D01*
X509000Y228999D02*
Y331000D01*
X562000D01*
X509000Y228999D02*
X562000D01*
X215000Y605000D02*
Y615000D01*
X210000Y610000D02*
X220000D01*
X298820Y624502D02*
X308820D01*
X303820Y619502D02*
Y629502D01*
X600000Y605000D02*
Y615000D01*
X595000Y610000D02*
X605000D01*
X654000Y191250D02*
Y227250D01*
X638000Y191250D02*
X654000D01*
X638000D02*
Y227250D01*
X654000D01*
X460500Y625000D02*
X469500D01*
X465000Y620500D02*
Y629500D01*
X451250Y575750D02*
X460250D01*
X455750Y571250D02*
Y580250D01*
X257000Y533750D02*
X266500D01*
X261750Y529000D02*
Y538500D01*
X132250Y448000D02*
X137750D01*
X135000Y445250D02*
Y450750D01*
X178250Y372000D02*
X183750D01*
X181000Y369250D02*
Y374750D01*
X172750Y634750D02*
X182250D01*
X177500Y630000D02*
Y639500D01*
X186250Y391000D02*
X191750D01*
X189000Y388250D02*
Y393750D01*
X215500Y648000D02*
X251500D01*
X215500Y632000D02*
Y648000D01*
Y632000D02*
X251500D01*
Y648000D01*
X469500Y374750D02*
Y384250D01*
X464750Y379500D02*
X474250D01*
X517000Y493000D02*
Y502000D01*
X512500Y497500D02*
X521500D01*
X532250Y368500D02*
X541749D01*
X537000Y363750D02*
Y373250D01*
X539500Y470500D02*
X548500D01*
X544000Y466000D02*
Y475000D01*
X569500Y389250D02*
Y398250D01*
X565000Y393750D02*
X574000D01*
X594250Y403000D02*
X603750D01*
X599000Y398250D02*
Y407750D01*
X179250Y342000D02*
X184750D01*
X182000Y339250D02*
Y344750D01*
X273000Y441250D02*
Y450750D01*
X268250Y446000D02*
X277750D01*
X278250Y642500D02*
X288250D01*
X283250Y637500D02*
Y647500D01*
X362750Y410000D02*
Y420000D01*
X357750Y415000D02*
X367750D01*
X441750Y387750D02*
X451250D01*
X446500Y383000D02*
Y392500D01*
X440500Y369500D02*
X476500D01*
X440500Y353500D02*
Y369500D01*
Y353500D02*
X476500D01*
Y369500D01*
X520000Y610000D02*
Y620000D01*
X515000Y615000D02*
X525000D01*
X500500Y404250D02*
X510000D01*
X505250Y399500D02*
Y409000D01*
X545250Y386750D02*
Y422750D01*
X529250D02*
X545250D01*
X529250Y386750D02*
Y422750D01*
Y386750D02*
X545250D01*
X362250Y577500D02*
X371250D01*
X366750Y573000D02*
Y582000D01*
X391250Y466500D02*
X401250D01*
X396250Y461500D02*
Y471500D01*
X424749Y574500D02*
X434250D01*
X429500Y569750D02*
Y579250D01*
X464000Y507000D02*
X473500D01*
X468750Y502250D02*
Y511750D01*
X530250Y280249D02*
X540250D01*
X535250Y275250D02*
Y285250D01*
X335000Y615249D02*
Y651249D01*
Y615249D02*
X351000D01*
Y651249D01*
X335000D02*
X351000D01*
X569500Y361750D02*
X605500D01*
Y377750D01*
X569500D02*
X605500D01*
X569500Y361750D02*
Y377750D01*
X483500Y354000D02*
X519500D01*
Y370000D01*
X483500D02*
X519500D01*
X483500Y354000D02*
Y370000D01*
D14*
X502248Y217747D02*
X572248D01*
X502248Y107748D02*
Y217747D01*
Y107748D02*
X572248D01*
Y217747D01*
X210499Y560245D02*
X219499D01*
Y589245D01*
X210499Y560245D02*
Y589245D01*
X219500Y630500D02*
Y659500D01*
X210500Y630500D02*
Y659500D01*
X219500D01*
X595499Y560245D02*
X604499D01*
Y589245D01*
X595499Y560245D02*
Y589245D01*
X604500Y630500D02*
Y659500D01*
X595500Y630500D02*
Y659500D01*
X604500D01*
X572248Y107748D02*
Y217747D01*
X502248Y107748D02*
X572248D01*
X502248D02*
Y217747D01*
X572248D01*
X257500Y553500D02*
Y666500D01*
X172500Y553500D02*
X257500D01*
X172500Y666500D02*
X257500D01*
X172500Y553500D02*
Y666500D01*
X338320Y584502D02*
Y664502D01*
X269320Y584502D02*
Y664502D01*
X338320D01*
X269320Y584502D02*
X338320D01*
X642500Y553500D02*
Y666500D01*
X557500Y553500D02*
X642500D01*
X557500Y666500D02*
X642500D01*
X557500Y553500D02*
Y666500D01*
X478500Y617500D02*
Y632500D01*
X451500Y617500D02*
Y632500D01*
Y617500D02*
X478500D01*
X451500Y632500D02*
X478500D01*
X442250Y568250D02*
Y583250D01*
X469250Y568250D02*
Y583250D01*
X442250D02*
X469250D01*
X442250Y568250D02*
X469250D01*
X272250Y516750D02*
Y550750D01*
X251250Y516750D02*
Y550750D01*
X272250D01*
X251250Y516750D02*
X272250D01*
X131000Y440500D02*
Y455500D01*
X139000Y440500D02*
Y455500D01*
X131000D02*
X139000D01*
X131000Y440500D02*
X139000D01*
X185000Y364500D02*
Y379500D01*
X177000Y364500D02*
Y379500D01*
Y364500D02*
X185000D01*
X177000Y379500D02*
X185000D01*
X183500Y623750D02*
Y645750D01*
X171500Y623750D02*
Y645750D01*
Y623750D02*
X183500D01*
X171500Y645750D02*
X183500D01*
X193000Y383500D02*
Y398500D01*
X185000Y383500D02*
Y398500D01*
Y383500D02*
X193000D01*
X185000Y398500D02*
X193000D01*
X458500Y373500D02*
X480500D01*
X458500Y385500D02*
X480500D01*
X458500Y373500D02*
Y385500D01*
X480500Y373500D02*
Y385500D01*
X506500Y492000D02*
X527500D01*
X506500Y503000D02*
X527500D01*
X506500Y492000D02*
Y503000D01*
X527500Y492000D02*
Y503000D01*
X531000Y357500D02*
Y379500D01*
X543000Y357500D02*
Y379500D01*
X531000D02*
X543000D01*
X531000Y357500D02*
X543000D01*
X549500Y460000D02*
Y481000D01*
X538500Y460000D02*
Y481000D01*
Y460000D02*
X549500D01*
X538500Y481000D02*
X549500D01*
X559000Y399250D02*
X580000D01*
X559000Y388250D02*
X580000D01*
Y399250D01*
X559000Y388250D02*
Y399250D01*
X605000Y392000D02*
Y414000D01*
X593000Y392000D02*
Y414000D01*
Y392000D02*
X605000D01*
X593000Y414000D02*
X605000D01*
X186000Y334500D02*
Y349500D01*
X178000Y334500D02*
Y349500D01*
Y334500D02*
X186000D01*
X178000Y349500D02*
X186000D01*
X262000Y440000D02*
X284000D01*
X262000Y452000D02*
X284000D01*
X262000Y440000D02*
Y452000D01*
X284000Y440000D02*
Y452000D01*
X273250Y623000D02*
Y662000D01*
X293250Y623000D02*
Y662000D01*
X273250D02*
X293250D01*
X273250Y623000D02*
X293250D01*
X339750Y403500D02*
X385750D01*
X339750Y426500D02*
X385750D01*
X339750Y403500D02*
Y426500D01*
X385750Y403500D02*
Y426500D01*
X440500Y376750D02*
Y398750D01*
X452500Y376750D02*
Y398750D01*
X440500D02*
X452500D01*
X440500Y376750D02*
X452500D01*
X484500Y559500D02*
X555500D01*
X484500Y670500D02*
X555500D01*
Y559500D02*
Y670500D01*
X484500Y559500D02*
Y670500D01*
X494750Y387250D02*
Y421250D01*
X515750Y387250D02*
Y421250D01*
X494750D02*
X515750D01*
X494750Y387250D02*
X515750D01*
X372250Y567000D02*
Y588000D01*
X361250Y567000D02*
Y588000D01*
Y567000D02*
X372250D01*
X361250Y588000D02*
X372250D01*
X375250Y428000D02*
Y505000D01*
X417250Y428000D02*
Y505000D01*
X375250D02*
X417250D01*
X375250Y428000D02*
X417250D01*
X423500Y563500D02*
Y585500D01*
X435500Y563500D02*
Y585500D01*
X423500D02*
X435500D01*
X423500Y563500D02*
X435500D01*
X474750Y496000D02*
Y518000D01*
X462750Y496000D02*
Y518000D01*
Y496000D02*
X474750D01*
X462750Y518000D02*
X474750D01*
X582500Y226499D02*
Y333499D01*
X488500Y226499D02*
Y333499D01*
X582500D01*
X488500Y226499D02*
X582500D01*
X498750Y220250D02*
X576250D01*
X498750Y105250D02*
Y220250D01*
Y105250D02*
X576250D01*
Y220250D01*
X532250Y162750D02*
X542250D01*
X537250Y157750D02*
Y167750D01*
D15*
X219499Y589245D02*
G03*
X210499Y589245I-4500J0D01*
G01*
X210500Y630500D02*
G03*
X219500Y630500I4500J0D01*
G01*
X250000Y610000D02*
G03*
X250000Y610000I-35000J0D01*
G01*
X255000D02*
G03*
X255000Y610000I-40000J0D01*
G01*
X604499Y589245D02*
G03*
X595499Y589245I-4500J0D01*
G01*
X595500Y630500D02*
G03*
X604500Y630500I4500J0D01*
G01*
X635000Y610000D02*
G03*
X635000Y610000I-35000J0D01*
G01*
X640000D02*
G03*
X640000Y610000I-40000J0D01*
G01*
X210499Y589245D02*
X219499D01*
X210500Y630500D02*
X219500D01*
X595499Y589245D02*
X604499D01*
X595500Y630500D02*
X604500D01*
D16*
X592150Y507750D02*
X604850D01*
X598500Y501400D02*
Y514100D01*
D95*
X551500Y322500D02*
G03*
X551500Y322500I-2500J0D01*
G01*
D96*
X239056Y492006D02*
G03*
X239056Y492006I-3810J0D01*
G01*
X566230Y534150D02*
X568770D01*
Y546850D01*
X566230D02*
X568770D01*
X566230Y534150D02*
Y546850D01*
X237535Y498864D02*
X242104Y494614D01*
X173524Y498864D02*
X237535D01*
X242104Y430284D02*
Y494614D01*
X173524Y430284D02*
X242104D01*
X173524D02*
Y498864D01*
M02*
