G04*
G04 #@! TF.GenerationSoftware,Altium Limited,CircuitMaker,2.0.3 (51)*
G04*
G04 Layer_Color=7318015*
%FSLAX25Y25*%
%MOIN*%
G70*
G04*
G04 #@! TF.SameCoordinates,F5335DBB-8355-4FF0-A9BA-B13CC3796949*
G04*
G04*
G04 #@! TF.FilePolarity,Positive*
G04*
G01*
G75*
%ADD14C,0.04724*%
G04:AMPARAMS|DCode=15|XSize=196.85mil|YSize=196.85mil|CornerRadius=9.84mil|HoleSize=0mil|Usage=FLASHONLY|Rotation=90.000|XOffset=0mil|YOffset=0mil|HoleType=Round|Shape=RoundedRectangle|*
%AMROUNDEDRECTD15*
21,1,0.19685,0.17716,0,0,90.0*
21,1,0.17716,0.19685,0,0,90.0*
1,1,0.01968,0.08858,0.08858*
1,1,0.01968,0.08858,-0.08858*
1,1,0.01968,-0.08858,-0.08858*
1,1,0.01968,-0.08858,0.08858*
%
%ADD15ROUNDEDRECTD15*%
G04:AMPARAMS|DCode=16|XSize=78.74mil|YSize=35.43mil|CornerRadius=5.32mil|HoleSize=0mil|Usage=FLASHONLY|Rotation=180.000|XOffset=0mil|YOffset=0mil|HoleType=Round|Shape=RoundedRectangle|*
%AMROUNDEDRECTD16*
21,1,0.07874,0.02480,0,0,180.0*
21,1,0.06811,0.03543,0,0,180.0*
1,1,0.01063,-0.03406,0.01240*
1,1,0.01063,0.03406,0.01240*
1,1,0.01063,0.03406,-0.01240*
1,1,0.01063,-0.03406,-0.01240*
%
%ADD16ROUNDEDRECTD16*%
G04:AMPARAMS|DCode=17|XSize=78.74mil|YSize=35.43mil|CornerRadius=5.32mil|HoleSize=0mil|Usage=FLASHONLY|Rotation=90.000|XOffset=0mil|YOffset=0mil|HoleType=Round|Shape=RoundedRectangle|*
%AMROUNDEDRECTD17*
21,1,0.07874,0.02480,0,0,90.0*
21,1,0.06811,0.03543,0,0,90.0*
1,1,0.01063,0.01240,0.03406*
1,1,0.01063,0.01240,-0.03406*
1,1,0.01063,-0.01240,-0.03406*
1,1,0.01063,-0.01240,0.03406*
%
%ADD17ROUNDEDRECTD17*%
%ADD18R,0.07874X0.15748*%
%ADD19R,0.12598X0.08268*%
%ADD20R,0.03543X0.08268*%
%ADD21R,0.05118X0.04528*%
%ADD22R,0.03347X0.03740*%
%ADD23R,0.04331X0.03740*%
D14*
X266435Y263780D02*
G03*
X264073Y266142I-2362J-0D01*
G01*
X266435Y263780D02*
G03*
X264073Y266142I-2362J-0D01*
G01*
X264075Y-2362D02*
G03*
X266437Y0I0J2362D01*
G01*
X264075Y-2362D02*
G03*
X266437Y0I0J2362D01*
G01*
X39370Y266142D02*
G03*
X37008Y263779I0J-2362D01*
G01*
X39370Y266142D02*
G03*
X37008Y263779I0J-2362D01*
G01*
X155118Y0D02*
G03*
X157480Y-2362I2362J0D01*
G01*
X37008Y125984D02*
G03*
X39370Y123622I2362J0D01*
G01*
X37008Y125984D02*
G03*
X39370Y123622I2362J0D01*
G01*
X155118Y0D02*
G03*
X157480Y-2362I2362J0D01*
G01*
X266435Y263780D02*
X266437Y0D01*
X157480Y-2362D02*
X264075D01*
X155118Y0D02*
Y123622D01*
X39370Y266142D02*
X264073D01*
X37008Y125984D02*
Y263780D01*
X39370Y123622D02*
X155118D01*
D15*
X198543Y129303D02*
D03*
D16*
X237980Y155571D02*
D03*
Y110571D02*
D03*
X238043Y115571D02*
D03*
X237980Y120571D02*
D03*
Y125571D02*
D03*
Y130571D02*
D03*
Y135571D02*
D03*
Y140571D02*
D03*
Y145571D02*
D03*
Y150571D02*
D03*
D17*
X234043Y166535D02*
D03*
X169043D02*
D03*
X174043D02*
D03*
X179043D02*
D03*
X184043D02*
D03*
X189043D02*
D03*
X194043D02*
D03*
X199043D02*
D03*
X204043D02*
D03*
X209043D02*
D03*
X214043D02*
D03*
X219043D02*
D03*
X224043D02*
D03*
X229043D02*
D03*
Y99606D02*
D03*
X224043D02*
D03*
X219043D02*
D03*
X214043D02*
D03*
X209043D02*
D03*
X204043D02*
D03*
X199043D02*
D03*
X194043D02*
D03*
X189043D02*
D03*
X184043D02*
D03*
X179043D02*
D03*
X174043D02*
D03*
X169043D02*
D03*
X234043D02*
D03*
D18*
X84646Y226181D02*
D03*
Y254134D02*
D03*
X236220Y226181D02*
D03*
Y254134D02*
D03*
D19*
X119614Y257087D02*
D03*
D20*
X128669Y234646D02*
D03*
X119614D02*
D03*
X110559D02*
D03*
D21*
X254331Y86811D02*
D03*
Y77953D02*
D03*
D22*
X185728Y246063D02*
D03*
X180413D02*
D03*
X176772Y226673D02*
D03*
X182087D02*
D03*
D23*
X103051Y212992D02*
D03*
Y207283D02*
D03*
M02*
