G04*
G04 #@! TF.GenerationSoftware,Altium Limited,CircuitMaker,2.0.3 (51)*
G04*
G04 Layer_Color=15132400*
%FSLAX25Y25*%
%MOIN*%
G70*
G04*
G04 #@! TF.SameCoordinates,F5335DBB-8355-4FF0-A9BA-B13CC3796949*
G04*
G04*
G04 #@! TF.FilePolarity,Positive*
G04*
G01*
G75*
%ADD10C,0.00787*%
%ADD11C,0.00984*%
%ADD12C,0.01000*%
%ADD13C,0.00394*%
%ADD14C,0.04724*%
D10*
X136142Y188583D02*
G03*
X136142Y206299I0J8858D01*
G01*
X116929D02*
G03*
X116929Y188583I0J-8858D01*
G01*
X226476Y195276D02*
X244783D01*
Y204528D01*
X226476D02*
X244783D01*
X226476Y195276D02*
Y204528D01*
X221476Y199902D02*
X226476D01*
X244783D02*
X249783D01*
X239783Y195276D02*
Y204528D01*
X68307Y223819D02*
X79134D01*
X90157D02*
X100984D01*
X90157Y256496D02*
X97047D01*
X72244D02*
X79134D01*
X97047D02*
X100984Y252559D01*
Y223819D02*
Y252559D01*
X68307Y223819D02*
Y252559D01*
X72244Y256496D01*
X76673Y253441D02*
X78642D01*
X77657Y252457D02*
Y254425D01*
X132803Y239961D02*
Y251772D01*
X106425Y239961D02*
Y251772D01*
X132803D01*
X106425Y239961D02*
X132803D01*
X219882Y223819D02*
X230709D01*
X241732D02*
X252559D01*
X241732Y256496D02*
X248622D01*
X223819D02*
X230709D01*
X248622D02*
X252559Y252559D01*
Y223819D02*
Y252559D01*
X219882Y223819D02*
Y252559D01*
X223819Y256496D01*
X228248Y253441D02*
X230217D01*
X229232Y252457D02*
Y254425D01*
D11*
X107114Y234646D02*
G03*
X107114Y234646I-492J0D01*
G01*
D12*
X243787Y93087D02*
Y172957D01*
X165441D02*
X243787D01*
X165441Y93087D02*
X243787D01*
X165543Y94587D02*
Y171457D01*
X165441Y93087D02*
Y94484D01*
Y171559D02*
Y172957D01*
X172012Y235236D02*
Y260539D01*
X139606Y260827D02*
X172012D01*
X139606Y235236D02*
Y260827D01*
Y235236D02*
X172386D01*
X67142Y172653D02*
Y177471D01*
X69550D01*
X70353Y176668D01*
Y175062D01*
X69550Y174259D01*
X67142D01*
X68748D02*
X70353Y172653D01*
X72762D02*
X74368D01*
X75171Y173456D01*
Y175062D01*
X74368Y175865D01*
X72762D01*
X71959Y175062D01*
Y173456D01*
X72762Y172653D01*
X76776Y177471D02*
Y172653D01*
X79185D01*
X79988Y173456D01*
Y174259D01*
Y175062D01*
X79185Y175865D01*
X76776D01*
X82397Y172653D02*
X84002D01*
X84805Y173456D01*
Y175062D01*
X84002Y175865D01*
X82397D01*
X81594Y175062D01*
Y173456D01*
X82397Y172653D01*
X87214Y176668D02*
Y175865D01*
X86411D01*
X88017D01*
X87214D01*
Y173456D01*
X88017Y172653D01*
X92834D02*
X91228D01*
X90425Y173456D01*
Y175062D01*
X91228Y175865D01*
X92834D01*
X93637Y175062D01*
Y174259D01*
X90425D01*
X95243Y175865D02*
Y172653D01*
Y174259D01*
X96046Y175062D01*
X96849Y175865D01*
X97651D01*
X100060Y175062D02*
X103272D01*
X104878Y172653D02*
Y175865D01*
X106483Y177471D01*
X108089Y175865D01*
Y172653D01*
Y175062D01*
X104878D01*
X109695Y175865D02*
Y172653D01*
Y174259D01*
X110498Y175062D01*
X111301Y175865D01*
X112104D01*
X114512Y172653D02*
Y175865D01*
X115315D01*
X116118Y175062D01*
Y172653D01*
Y175062D01*
X116921Y175865D01*
X117724Y175062D01*
Y172653D01*
X67142Y164386D02*
Y169203D01*
X68748Y167597D01*
X70353Y169203D01*
Y164386D01*
X72762Y167597D02*
X74368D01*
X75171Y166795D01*
Y164386D01*
X72762D01*
X71959Y165189D01*
X72762Y165992D01*
X75171D01*
X76776Y164386D02*
X78382D01*
X77579D01*
Y167597D01*
X76776D01*
X80791Y164386D02*
Y167597D01*
X83200D01*
X84002Y166795D01*
Y164386D01*
X85608Y166795D02*
X88820D01*
X93637Y168400D02*
X92834Y169203D01*
X91228D01*
X90425Y168400D01*
Y165189D01*
X91228Y164386D01*
X92834D01*
X93637Y165189D01*
X96046Y164386D02*
X97651D01*
X98454Y165189D01*
Y166795D01*
X97651Y167597D01*
X96046D01*
X95243Y166795D01*
Y165189D01*
X96046Y164386D01*
X100060D02*
Y167597D01*
X102469D01*
X103272Y166795D01*
Y164386D01*
X105680Y168400D02*
Y167597D01*
X104878D01*
X106483D01*
X105680D01*
Y165189D01*
X106483Y164386D01*
X108892Y167597D02*
Y164386D01*
Y165992D01*
X109695Y166795D01*
X110498Y167597D01*
X111301D01*
X114512Y164386D02*
X116118D01*
X116921Y165189D01*
Y166795D01*
X116118Y167597D01*
X114512D01*
X113709Y166795D01*
Y165189D01*
X114512Y164386D01*
X118527D02*
X120133D01*
X119330D01*
Y169203D01*
X118527D01*
X122541Y164386D02*
X124147D01*
X123344D01*
Y169203D01*
X122541D01*
X128964Y164386D02*
X127358D01*
X126556Y165189D01*
Y166795D01*
X127358Y167597D01*
X128964D01*
X129767Y166795D01*
Y165992D01*
X126556D01*
X131373Y167597D02*
Y164386D01*
Y165992D01*
X132176Y166795D01*
X132979Y167597D01*
X133782D01*
X67142Y160148D02*
Y155331D01*
X70353D01*
X74368D02*
X72762D01*
X71959Y156134D01*
Y157739D01*
X72762Y158542D01*
X74368D01*
X75171Y157739D01*
Y156937D01*
X71959D01*
X76776Y155331D02*
Y158542D01*
X79185D01*
X79988Y157739D01*
Y155331D01*
X82397Y158542D02*
X84002D01*
X84805Y157739D01*
Y155331D01*
X82397D01*
X81594Y156134D01*
X82397Y156937D01*
X84805D01*
X86411Y158542D02*
Y155331D01*
Y156937D01*
X87214Y157739D01*
X88017Y158542D01*
X88820D01*
X94440D02*
X92031D01*
X91228Y157739D01*
Y156134D01*
X92031Y155331D01*
X94440D01*
X96046D02*
X97651D01*
X96849D01*
Y158542D01*
X96046D01*
X103272D02*
X100863D01*
X100060Y157739D01*
Y156134D01*
X100863Y155331D01*
X103272D01*
X109695Y160148D02*
Y155331D01*
X112907D01*
X114512Y158542D02*
Y156134D01*
X115315Y155331D01*
X117724D01*
Y158542D01*
X122541D02*
X120133D01*
X119330Y157739D01*
Y156134D01*
X120133Y155331D01*
X122541D01*
X124950Y158542D02*
X126556D01*
X127358Y157739D01*
Y155331D01*
X124950D01*
X124147Y156134D01*
X124950Y156937D01*
X127358D01*
X128964Y155331D02*
X131373D01*
X132176Y156134D01*
X131373Y156937D01*
X129767D01*
X128964Y157739D01*
X129767Y158542D01*
X132176D01*
X67142Y151093D02*
Y147881D01*
X68748Y146276D01*
X70353Y147881D01*
Y151093D01*
X71959Y150290D02*
X72762Y151093D01*
X74368D01*
X75171Y150290D01*
Y147079D01*
X74368Y146276D01*
X72762D01*
X71959Y147079D01*
Y150290D01*
X76776Y146276D02*
Y147079D01*
X77579D01*
Y146276D01*
X76776D01*
X83200D02*
Y151093D01*
X80791Y148684D01*
X84002D01*
X246006Y141357D02*
Y136359D01*
X247005Y135359D01*
X249005D01*
X250004Y136359D01*
Y141357D01*
X255003Y135359D02*
Y141357D01*
X252004Y138358D01*
X256002D01*
X251694Y96405D02*
Y90407D01*
X254694D01*
X255693Y91406D01*
Y95405D01*
X254694Y96405D01*
X251694D01*
X257693D02*
X261691D01*
Y95405D01*
X257693Y91406D01*
Y90407D01*
X187800Y43398D02*
X191799Y39400D01*
X187800D02*
X191799Y43398D01*
X187800Y41399D02*
X191799D01*
X189799Y39400D02*
Y43398D01*
X42100Y184398D02*
X46099Y180400D01*
X42100D02*
X46099Y184398D01*
X42100Y182399D02*
X46099D01*
X44099Y180400D02*
Y184398D01*
X56025Y260661D02*
X60024Y256662D01*
X56025D02*
X60024Y260661D01*
X56025Y258661D02*
X60024D01*
X58025Y256662D02*
Y260661D01*
X62023D02*
X63023Y261660D01*
X65022D01*
X66022Y260661D01*
Y259661D01*
X65022Y258661D01*
X64023D01*
X65022D01*
X66022Y257662D01*
Y256662D01*
X65022Y255662D01*
X63023D01*
X62023Y256662D01*
X162200Y71198D02*
X166199Y67200D01*
X162200D02*
X166199Y71198D01*
X162200Y69199D02*
X166199D01*
X164199Y67200D02*
Y71198D01*
X172197Y66200D02*
X168198D01*
X172197Y70199D01*
Y71198D01*
X171197Y72198D01*
X169198D01*
X168198Y71198D01*
X239000D02*
X242999Y67200D01*
X239000D02*
X242999Y71198D01*
X239000Y69199D02*
X242999D01*
X240999Y67200D02*
Y71198D01*
X244998Y66200D02*
X246997D01*
X245998D01*
Y72198D01*
X244998Y71198D01*
X108700Y215698D02*
X112699Y209700D01*
Y215698D02*
X108700Y209700D01*
X114698D02*
X116697D01*
X115698D01*
Y215698D01*
X114698Y214698D01*
X131284Y260873D02*
X129284D01*
X130284D01*
Y255875D01*
X129284Y254875D01*
X128285D01*
X127285Y255875D01*
X137282Y254875D02*
X133283D01*
X137282Y258874D01*
Y259873D01*
X136282Y260873D01*
X134283D01*
X133283Y259873D01*
X240514Y184599D02*
Y190597D01*
X237515D01*
X236516Y189598D01*
Y185599D01*
X237515Y184599D01*
X240514D01*
X234516Y190597D02*
X232517D01*
X233517D01*
Y184599D01*
X234516Y185599D01*
X74591Y242550D02*
X73591Y243550D01*
X71592D01*
X70592Y242550D01*
Y238552D01*
X71592Y237552D01*
X73591D01*
X74591Y238552D01*
X80589Y243550D02*
X76590D01*
Y240551D01*
X78590Y241551D01*
X79589D01*
X80589Y240551D01*
Y238552D01*
X79589Y237552D01*
X77590D01*
X76590Y238552D01*
X245063Y241763D02*
X244064Y242763D01*
X242064D01*
X241065Y241763D01*
Y237764D01*
X242064Y236765D01*
X244064D01*
X245063Y237764D01*
X250062Y236765D02*
Y242763D01*
X247063Y239764D01*
X251061D01*
X104051Y200264D02*
X105051Y199265D01*
X107050D01*
X108050Y200264D01*
Y204263D01*
X107050Y205263D01*
X105051D01*
X104051Y204263D01*
X102051Y200264D02*
X101052Y199265D01*
X99053D01*
X98053Y200264D01*
Y201264D01*
X99053Y202264D01*
X100052D01*
X99053D01*
X98053Y203263D01*
Y204263D01*
X99053Y205263D01*
X101052D01*
X102051Y204263D01*
X181499Y257098D02*
X180499Y258098D01*
X178500D01*
X177500Y257098D01*
Y253100D01*
X178500Y252100D01*
X180499D01*
X181499Y253100D01*
X187497Y252100D02*
X183498D01*
X187497Y256099D01*
Y257098D01*
X186497Y258098D01*
X184498D01*
X183498Y257098D01*
X179799Y237698D02*
X178799Y238698D01*
X176800D01*
X175800Y237698D01*
Y233700D01*
X176800Y232700D01*
X178799D01*
X179799Y233700D01*
X181798Y232700D02*
X183797D01*
X182798D01*
Y238698D01*
X181798Y237698D01*
X169200Y182100D02*
X171199D01*
X170200D01*
Y188098D01*
X169200Y187098D01*
X106600Y268698D02*
X110599Y264700D01*
X106600D02*
X110599Y268698D01*
X106600Y266699D02*
X110599D01*
X108599Y264700D02*
Y268698D01*
X110800Y227498D02*
X114799Y223500D01*
X110800D02*
X114799Y227498D01*
X110800Y225499D02*
X114799D01*
X112799Y223500D02*
Y227498D01*
D13*
X41339Y177165D02*
X63780D01*
X41339Y127953D02*
X62992D01*
X41339D02*
Y177165D01*
X63780Y127953D02*
Y137795D01*
X62992Y127953D02*
X63780D01*
Y177165D01*
X40551Y212598D02*
X62992D01*
X41339Y261811D02*
X62992D01*
Y212598D02*
Y261811D01*
X40551Y251969D02*
Y261811D01*
X41339D01*
X40551Y212598D02*
Y261811D01*
X161417Y62992D02*
X183858D01*
X161417Y13780D02*
X183071D01*
X161417D02*
Y62992D01*
X183858Y13780D02*
Y23622D01*
X183071Y13780D02*
X183858D01*
Y62992D01*
X187008Y13780D02*
Y36220D01*
X236220Y13780D02*
Y35433D01*
X187008Y13780D02*
X236220D01*
X226378Y36220D02*
X236220D01*
Y35433D02*
Y36220D01*
X187008D02*
X236220D01*
X238189Y62992D02*
X260630D01*
X238189Y13780D02*
X259843D01*
X238189D02*
Y62992D01*
X260630Y13780D02*
Y23622D01*
X259843Y13780D02*
X260630D01*
Y62992D01*
X256693Y80807D02*
Y83957D01*
X251969Y80807D02*
Y83957D01*
X252756D02*
X255906D01*
X252756Y82382D02*
X254331Y83957D01*
Y80807D02*
Y82382D01*
X252756D02*
X255906D01*
X254331Y83957D02*
X255906Y82382D01*
D14*
X266435Y263780D02*
G03*
X264073Y266142I-2362J-0D01*
G01*
X266435Y263780D02*
G03*
X264073Y266142I-2362J-0D01*
G01*
X264075Y-2362D02*
G03*
X266437Y0I0J2362D01*
G01*
X264075Y-2362D02*
G03*
X266437Y0I0J2362D01*
G01*
X39370Y266142D02*
G03*
X37008Y263779I0J-2362D01*
G01*
X39370Y266142D02*
G03*
X37008Y263779I0J-2362D01*
G01*
X155118Y0D02*
G03*
X157480Y-2362I2362J0D01*
G01*
X37008Y125984D02*
G03*
X39370Y123622I2362J0D01*
G01*
X37008Y125984D02*
G03*
X39370Y123622I2362J0D01*
G01*
X155118Y0D02*
G03*
X157480Y-2362I2362J0D01*
G01*
X266435Y263780D02*
X266437Y0D01*
X157480Y-2362D02*
X264075D01*
X155118Y0D02*
Y123622D01*
X39370Y266142D02*
X264073D01*
X37008Y125984D02*
Y263780D01*
X39370Y123622D02*
X155118D01*
M02*
