M48
;Layer_Color=6321
;FILE_FORMAT=2:5
INCH,LZ
;TYPE=PLATED
T1F00S00C0.01000
T2F00S00C0.01181
T3F00S00C0.02800
T4F00S00C0.03000
T5F00S00C0.07000
T6F00S00C0.09842
%
T01
X02747Y0354
T02
X0298819Y035
X030315
X030748
Y0354331
X030315
X0298819
Y0358661
X030315
X030748
T03
X02573Y03708
X02498Y0396
X03111Y03227
X03173Y03379
X0326Y03308
X03403Y03288
X03448Y03522
X03279Y0351
X03242Y03649
X03641Y03673
T04
X0311024Y0286713
Y0299213
Y0311713
T05
X02843Y04212
X0311024Y042126
T06
X0362205Y0283465
X0236221
Y0417323
X0362205
M30
