G04*
G04 #@! TF.GenerationSoftware,Altium Limited,Altium Designer,22.2.1 (43)*
G04*
G04 Layer_Color=32768*
%FSLAX25Y25*%
%MOIN*%
G70*
G04*
G04 #@! TF.SameCoordinates,E3E267CE-3B28-4E7D-86E6-9DA55300F0EE*
G04*
G04*
G04 #@! TF.FilePolarity,Positive*
G04*
G01*
G75*
%ADD11C,0.00787*%
%ADD15C,0.04724*%
D11*
X293383Y325911D02*
Y332889D01*
X296817D01*
Y325911D02*
Y332889D01*
X293383Y325911D02*
X296817D01*
D15*
X384252Y409449D02*
G03*
X383560Y411119I-2362J0D01*
G01*
X384252Y409449D02*
G03*
X383560Y411119I-2362J0D01*
G01*
X359938Y434741D02*
G03*
X358268Y435433I-1670J-1670D01*
G01*
X359938Y434741D02*
G03*
X358268Y435433I-1670J-1670D01*
G01*
X383560Y289668D02*
G03*
X384252Y291339I-1670J1670D01*
G01*
X383560Y289668D02*
G03*
X384252Y291339I-1670J1670D01*
G01*
X358268Y265354D02*
G03*
X359938Y266046I0J2362D01*
G01*
X358268Y265354D02*
G03*
X359938Y266046I0J2362D01*
G01*
X240158Y435433D02*
G03*
X238487Y434741I0J-2362D01*
G01*
X240158Y435433D02*
G03*
X238487Y434741I0J-2362D01*
G01*
X214865Y411119D02*
G03*
X214173Y409449I1670J-1670D01*
G01*
X214865Y411119D02*
G03*
X214173Y409449I1670J-1670D01*
G01*
X238487Y266046D02*
G03*
X240158Y265354I1670J1670D01*
G01*
X214173Y291339D02*
G03*
X214865Y289668I2362J0D01*
G01*
X214173Y291339D02*
G03*
X214865Y289668I2362J0D01*
G01*
X238487Y266046D02*
G03*
X240158Y265354I1670J1670D01*
G01*
X358268D01*
X214865Y289668D02*
X238487Y266046D01*
X214173Y291339D02*
Y409449D01*
X359938Y434741D02*
X383560Y411119D01*
X384252Y291339D02*
Y409449D01*
X359938Y266046D02*
X383560Y289668D01*
X240158Y435433D02*
X358268D01*
X214865Y411119D02*
X238487Y434741D01*
M02*
