G04*
G04 #@! TF.GenerationSoftware,Altium Limited,CircuitMaker,2.0.3 (2.0.3.51)*
G04*
G04 Layer_Physical_Order=1*
G04 Layer_Color=25308*
%FSLAX44Y44*%
%MOMM*%
G71*
G04*
G04 #@! TF.SameCoordinates,C755FB8A-FCE8-4539-82F2-BEB76C1F17A2*
G04*
G04*
G04 #@! TF.FilePolarity,Positive*
G04*
G01*
G75*
%ADD13C,0.2540*%
%ADD15R,0.6000X0.6500*%
%ADD16R,0.6000X1.6000*%
%ADD17R,0.7000X1.5000*%
%ADD18R,1.0000X0.9000*%
%ADD19R,0.9000X1.0000*%
%ADD20R,2.9718X1.0160*%
%ADD21R,3.1500X3.1500*%
%ADD22O,0.3000X1.1500*%
%ADD23O,1.1500X0.3000*%
%ADD24R,1.4000X1.5000*%
%ADD25R,0.5000X0.4500*%
%ADD26R,1.2000X1.6000*%
%ADD27R,1.5000X1.4000*%
G04:AMPARAMS|DCode=28|XSize=1.8mm|YSize=1.3mm|CornerRadius=0.13mm|HoleSize=0mm|Usage=FLASHONLY|Rotation=270.000|XOffset=0mm|YOffset=0mm|HoleType=Round|Shape=RoundedRectangle|*
%AMROUNDEDRECTD28*
21,1,1.8000,1.0400,0,0,270.0*
21,1,1.5400,1.3000,0,0,270.0*
1,1,0.2600,-0.5200,-0.7700*
1,1,0.2600,-0.5200,0.7700*
1,1,0.2600,0.5200,0.7700*
1,1,0.2600,0.5200,-0.7700*
%
%ADD28ROUNDEDRECTD28*%
%ADD29R,1.0000X0.6000*%
%ADD30R,1.6000X1.2000*%
%ADD31R,1.1000X1.3500*%
%ADD32R,1.3000X0.9000*%
%ADD33R,0.4500X0.5000*%
%ADD34R,1.3500X1.1000*%
%ADD60C,0.5080*%
G04:AMPARAMS|DCode=61|XSize=3.175mm|YSize=1.778mm|CornerRadius=0.4445mm|HoleSize=0mm|Usage=FLASHONLY|Rotation=0.000|XOffset=0mm|YOffset=0mm|HoleType=Round|Shape=RoundedRectangle|*
%AMROUNDEDRECTD61*
21,1,3.1750,0.8890,0,0,0.0*
21,1,2.2860,1.7780,0,0,0.0*
1,1,0.8890,1.1430,-0.4445*
1,1,0.8890,-1.1430,-0.4445*
1,1,0.8890,-1.1430,0.4445*
1,1,0.8890,1.1430,0.4445*
%
%ADD61ROUNDEDRECTD61*%
%ADD62C,2.5000*%
%ADD63C,3.8100*%
%ADD64C,0.5500*%
%ADD65C,0.6350*%
%ADD66C,1.2700*%
G36*
X970000Y1040000D02*
Y740000D01*
X910000Y680000D01*
X610000D01*
X550000Y740000D01*
Y1040000D01*
X610000Y1100000D01*
X910000D01*
X970000Y1040000D01*
D02*
G37*
%LPC*%
G36*
X792126Y1091590D02*
X791270D01*
Y1071270D01*
X811590D01*
Y1072126D01*
X810760Y1076298D01*
X809133Y1080227D01*
X806770Y1083763D01*
X803763Y1086770D01*
X800227Y1089133D01*
X796298Y1090760D01*
X792126Y1091590D01*
D02*
G37*
G36*
X788730D02*
X787874D01*
X783702Y1090760D01*
X779773Y1089133D01*
X776237Y1086770D01*
X773230Y1083763D01*
X770867Y1080227D01*
X769240Y1076298D01*
X768410Y1072126D01*
Y1071270D01*
X788730D01*
Y1091590D01*
D02*
G37*
G36*
X921481Y1075040D02*
X921270D01*
Y1061270D01*
X935040D01*
Y1061481D01*
X934462Y1064387D01*
X933328Y1067124D01*
X931682Y1069587D01*
X929587Y1071682D01*
X927124Y1073328D01*
X924387Y1074462D01*
X921481Y1075040D01*
D02*
G37*
G36*
X918730D02*
X918519D01*
X915613Y1074462D01*
X912876Y1073328D01*
X910413Y1071682D01*
X908318Y1069587D01*
X906672Y1067124D01*
X905538Y1064387D01*
X904960Y1061481D01*
Y1061270D01*
X918730D01*
Y1075040D01*
D02*
G37*
G36*
X601481D02*
X601270D01*
Y1061270D01*
X615040D01*
Y1061481D01*
X614462Y1064387D01*
X613328Y1067124D01*
X611682Y1069587D01*
X609587Y1071682D01*
X607124Y1073328D01*
X604387Y1074462D01*
X601481Y1075040D01*
D02*
G37*
G36*
X598730D02*
X598519D01*
X595613Y1074462D01*
X592876Y1073328D01*
X590413Y1071682D01*
X588318Y1069587D01*
X586672Y1067124D01*
X585538Y1064387D01*
X584960Y1061481D01*
Y1061270D01*
X598730D01*
Y1075040D01*
D02*
G37*
G36*
X811590Y1068730D02*
X791270D01*
Y1048410D01*
X792126D01*
X796298Y1049240D01*
X800227Y1050867D01*
X803763Y1053230D01*
X806770Y1056237D01*
X809133Y1059773D01*
X810760Y1063702D01*
X811590Y1067874D01*
Y1068730D01*
D02*
G37*
G36*
X788730D02*
X768410D01*
Y1067874D01*
X769240Y1063702D01*
X770867Y1059773D01*
X773230Y1056237D01*
X776237Y1053230D01*
X779773Y1050867D01*
X783702Y1049240D01*
X787874Y1048410D01*
X788730D01*
Y1068730D01*
D02*
G37*
G36*
X935040Y1058730D02*
X921270D01*
Y1044960D01*
X921481D01*
X924387Y1045538D01*
X927124Y1046672D01*
X929587Y1048318D01*
X931682Y1050413D01*
X933328Y1052876D01*
X934462Y1055613D01*
X935040Y1058519D01*
Y1058730D01*
D02*
G37*
G36*
X918730D02*
X904960D01*
Y1058519D01*
X905538Y1055613D01*
X906672Y1052876D01*
X908318Y1050413D01*
X910413Y1048318D01*
X912876Y1046672D01*
X915613Y1045538D01*
X918519Y1044960D01*
X918730D01*
Y1058730D01*
D02*
G37*
G36*
X615040D02*
X601270D01*
Y1044960D01*
X601481D01*
X604387Y1045538D01*
X607124Y1046672D01*
X609587Y1048318D01*
X611682Y1050413D01*
X613328Y1052876D01*
X614462Y1055613D01*
X615040Y1058519D01*
Y1058730D01*
D02*
G37*
G36*
X598730D02*
X584960D01*
Y1058519D01*
X585538Y1055613D01*
X586672Y1052876D01*
X588318Y1050413D01*
X590413Y1048318D01*
X592876Y1046672D01*
X595613Y1045538D01*
X598519Y1044960D01*
X598730D01*
Y1058730D01*
D02*
G37*
G36*
X657804Y1052848D02*
X653034D01*
Y1044078D01*
X657804D01*
Y1052848D01*
D02*
G37*
G36*
X650494D02*
X645724D01*
Y1044078D01*
X650494D01*
Y1052848D01*
D02*
G37*
G36*
X655264Y1098208D02*
X648264D01*
X647273Y1098011D01*
X646433Y1097449D01*
X640433Y1091449D01*
X639871Y1090609D01*
X639674Y1089618D01*
Y1067618D01*
X639871Y1066627D01*
X640004Y1066428D01*
X639325Y1065158D01*
X631224D01*
Y1044078D01*
X632879D01*
Y1036873D01*
X632305Y1036299D01*
X632227Y1036247D01*
X623485Y1027505D01*
X618664D01*
Y1043764D01*
X603584D01*
Y1039443D01*
X596272D01*
Y1043588D01*
X576192D01*
Y1024508D01*
X596272D01*
Y1031673D01*
X603584D01*
Y1016684D01*
X618664D01*
Y1019735D01*
X625094D01*
X626581Y1020031D01*
X627841Y1020873D01*
X629942Y1022974D01*
X631115Y1022488D01*
Y1014139D01*
X631061Y1014124D01*
X629033Y1012954D01*
X627378Y1011299D01*
X626208Y1009271D01*
X625602Y1007010D01*
Y1004670D01*
X626208Y1002409D01*
X627378Y1000381D01*
X629033Y998726D01*
X631061Y997556D01*
X633322Y996950D01*
X635662D01*
X637923Y997556D01*
X639951Y998726D01*
X641606Y1000381D01*
X642776Y1002409D01*
X643382Y1004670D01*
Y1007010D01*
X642776Y1009271D01*
X641606Y1011299D01*
X639951Y1012954D01*
X638885Y1013569D01*
Y1031891D01*
X639511Y1032517D01*
X640353Y1033777D01*
X640649Y1035264D01*
Y1044078D01*
X642304D01*
Y1062256D01*
X643477Y1062742D01*
X645724Y1060496D01*
Y1055388D01*
X651764D01*
X657804D01*
Y1060496D01*
X660051Y1062742D01*
X661224Y1062256D01*
Y1044078D01*
X662879D01*
Y1038846D01*
X663175Y1037359D01*
X664017Y1036099D01*
X669591Y1030525D01*
X686885Y1013232D01*
Y1002300D01*
X687183Y1000802D01*
X688031Y999531D01*
X689302Y998683D01*
X690800Y998385D01*
X701200D01*
X702698Y998683D01*
X703969Y999531D01*
X704817Y1000802D01*
X705115Y1002300D01*
Y1017700D01*
X704817Y1019198D01*
X703969Y1020469D01*
X702698Y1021317D01*
X701200Y1021615D01*
X690800D01*
X689706Y1021398D01*
X682890Y1028214D01*
X683376Y1029387D01*
X721614D01*
X723101Y1029683D01*
X724361Y1030525D01*
X725203Y1031785D01*
X725499Y1033272D01*
Y1048507D01*
X728420Y1049088D01*
X732349Y1050715D01*
X734394Y1052082D01*
X759223Y1027253D01*
X760483Y1026411D01*
X761970Y1026115D01*
X828536D01*
Y1022380D01*
X863334D01*
Y1037620D01*
X828536D01*
Y1033885D01*
X763579D01*
X739888Y1057576D01*
X741255Y1059621D01*
X742882Y1063550D01*
X743712Y1067722D01*
Y1071974D01*
X742882Y1076146D01*
X741255Y1080075D01*
X738892Y1083611D01*
X735885Y1086618D01*
X732349Y1088981D01*
X728420Y1090608D01*
X724248Y1091438D01*
X719996D01*
X715824Y1090608D01*
X711895Y1088981D01*
X708359Y1086618D01*
X705352Y1083611D01*
X702989Y1080075D01*
X701362Y1076146D01*
X700532Y1071974D01*
Y1067722D01*
X701362Y1063550D01*
X702989Y1059621D01*
X705352Y1056085D01*
X708359Y1053078D01*
X711895Y1050715D01*
X715824Y1049088D01*
X717729Y1048709D01*
Y1037157D01*
X673947D01*
X670649Y1040455D01*
Y1044078D01*
X672304D01*
Y1065158D01*
X664202D01*
X663524Y1066428D01*
X663657Y1066627D01*
X663854Y1067618D01*
Y1089618D01*
X663657Y1090609D01*
X663095Y1091449D01*
X657095Y1097449D01*
X656255Y1098011D01*
X655264Y1098208D01*
D02*
G37*
G36*
X729200Y1021615D02*
X725270D01*
Y1011270D01*
X733115D01*
Y1017700D01*
X732817Y1019198D01*
X731969Y1020469D01*
X730698Y1021317D01*
X729200Y1021615D01*
D02*
G37*
G36*
X722730D02*
X718800D01*
X717302Y1021317D01*
X716031Y1020469D01*
X715183Y1019198D01*
X714885Y1017700D01*
Y1011270D01*
X722730D01*
Y1021615D01*
D02*
G37*
G36*
X596272Y1013588D02*
X587502D01*
Y1005318D01*
X596272D01*
Y1013588D01*
D02*
G37*
G36*
X584962D02*
X576192D01*
Y1005318D01*
X584962D01*
Y1013588D01*
D02*
G37*
G36*
X767540Y1005540D02*
X761270D01*
Y1001270D01*
X767540D01*
Y1005540D01*
D02*
G37*
G36*
X758730D02*
X752460D01*
Y1001270D01*
X758730D01*
Y1005540D01*
D02*
G37*
G36*
X733115Y1008730D02*
X725270D01*
Y998385D01*
X729200D01*
X730698Y998683D01*
X731969Y999531D01*
X732817Y1000802D01*
X733115Y1002300D01*
Y1008730D01*
D02*
G37*
G36*
X722730D02*
X714885D01*
Y1002300D01*
X715183Y1000802D01*
X716031Y999531D01*
X717302Y998683D01*
X718800Y998385D01*
X722730D01*
Y1008730D01*
D02*
G37*
G36*
X596272Y1002778D02*
X587502D01*
Y994508D01*
X596272D01*
Y1002778D01*
D02*
G37*
G36*
X584962D02*
X576192D01*
Y994508D01*
X584962D01*
Y1002778D01*
D02*
G37*
G36*
X827540Y985540D02*
X821270D01*
Y981270D01*
X827540D01*
Y985540D01*
D02*
G37*
G36*
X818730D02*
X812460D01*
Y981270D01*
X818730D01*
Y985540D01*
D02*
G37*
G36*
X827540Y978730D02*
X821270D01*
Y974460D01*
X827540D01*
Y978730D01*
D02*
G37*
G36*
X818730D02*
X812460D01*
Y974460D01*
X818730D01*
Y978730D01*
D02*
G37*
G36*
X910540Y978540D02*
X901270D01*
Y971270D01*
X910540D01*
Y978540D01*
D02*
G37*
G36*
X898730D02*
X889460D01*
Y971270D01*
X898730D01*
Y978540D01*
D02*
G37*
G36*
X910540Y968730D02*
X901270D01*
Y961460D01*
X910540D01*
Y968730D01*
D02*
G37*
G36*
X898730D02*
X889460D01*
Y961460D01*
X898730D01*
Y968730D01*
D02*
G37*
G36*
X576200Y954920D02*
X567930D01*
Y946150D01*
X576200D01*
Y954920D01*
D02*
G37*
G36*
X565390D02*
X557120D01*
Y946150D01*
X565390D01*
Y954920D01*
D02*
G37*
G36*
X911464Y1037620D02*
X876666D01*
Y1022380D01*
X888885D01*
Y1005938D01*
X828713Y945766D01*
X827540Y946252D01*
Y955540D01*
X812460D01*
Y953885D01*
X791174D01*
X790648Y955155D01*
X792747Y957253D01*
X793589Y958513D01*
X793885Y960000D01*
Y980000D01*
X793589Y981487D01*
X792747Y982747D01*
X782747Y992747D01*
X781487Y993589D01*
X780000Y993885D01*
X768572D01*
X767540Y994460D01*
X767540Y995155D01*
Y998730D01*
X760000D01*
X752460D01*
Y995155D01*
X752460Y994460D01*
X751428Y993885D01*
X700000D01*
X698513Y993589D01*
X697253Y992747D01*
X683391Y978885D01*
X593475D01*
Y979445D01*
X593235Y981268D01*
X592531Y982968D01*
X591412Y984427D01*
X589953Y985546D01*
X588253Y986250D01*
X586430Y986490D01*
X563570D01*
X561747Y986250D01*
X560047Y985546D01*
X558588Y984427D01*
X557469Y982968D01*
X556765Y981268D01*
X556525Y979445D01*
Y970555D01*
X556765Y968732D01*
X557469Y967032D01*
X558588Y965573D01*
X560047Y964454D01*
X561747Y963750D01*
X563570Y963510D01*
X586430D01*
X588253Y963750D01*
X589953Y964454D01*
X591412Y965573D01*
X592531Y967032D01*
X593235Y968732D01*
X593475Y970555D01*
Y971115D01*
X614956D01*
X615952Y970454D01*
Y956446D01*
X608391Y948885D01*
X606200D01*
Y954920D01*
X587120D01*
Y934840D01*
X606200D01*
Y941115D01*
X610000D01*
X611487Y941411D01*
X612747Y942253D01*
X625868Y955374D01*
X643032D01*
Y958775D01*
X672660D01*
X674147Y959071D01*
X675407Y959913D01*
X687747Y972253D01*
X701609Y986115D01*
X778391D01*
X786115Y978391D01*
Y961609D01*
X785155Y960648D01*
X783885Y961174D01*
Y970000D01*
X783589Y971487D01*
X782747Y972747D01*
X772747Y982747D01*
X771487Y983589D01*
X770000Y983885D01*
X720000D01*
X718513Y983589D01*
X717253Y982747D01*
X653471Y918965D01*
X621749D01*
X621263Y920138D01*
X639073Y937947D01*
X645519D01*
X646428Y936373D01*
X648083Y934718D01*
X650111Y933548D01*
X652372Y932942D01*
X654712D01*
X656973Y933548D01*
X659001Y934718D01*
X660656Y936373D01*
X661826Y938401D01*
X662432Y940662D01*
Y943002D01*
X661826Y945263D01*
X660656Y947291D01*
X659001Y948946D01*
X656973Y950116D01*
X654712Y950722D01*
X652372D01*
X650111Y950116D01*
X648083Y948946D01*
X646428Y947291D01*
X645519Y945717D01*
X637464D01*
X635977Y945421D01*
X634717Y944579D01*
X607664Y917526D01*
X594694D01*
Y914918D01*
X593424Y914834D01*
X593235Y916268D01*
X592531Y917968D01*
X591412Y919427D01*
X589953Y920546D01*
X588253Y921250D01*
X586430Y921490D01*
X563570D01*
X561747Y921250D01*
X560047Y920546D01*
X558588Y919427D01*
X557469Y917968D01*
X556765Y916268D01*
X556525Y914445D01*
Y905555D01*
X556765Y903732D01*
X557469Y902032D01*
X558588Y900573D01*
X560047Y899454D01*
X561747Y898750D01*
X563570Y898510D01*
X586430D01*
X588253Y898750D01*
X589953Y899454D01*
X591412Y900573D01*
X592531Y902032D01*
X593235Y903732D01*
X593424Y905166D01*
X594694Y905082D01*
Y896940D01*
X591613Y893859D01*
X590771Y892599D01*
X590475Y891112D01*
Y888880D01*
X587120D01*
Y868800D01*
X606200D01*
Y888880D01*
X600625D01*
X599946Y890150D01*
X600144Y890446D01*
X608001D01*
Y863685D01*
X604943Y860627D01*
X600202D01*
X598715Y860331D01*
X597455Y859489D01*
X592333Y854366D01*
X591412Y854427D01*
X589953Y855546D01*
X588253Y856250D01*
X586430Y856490D01*
X563570D01*
X561747Y856250D01*
X560047Y855546D01*
X558588Y854427D01*
X557469Y852968D01*
X556765Y851268D01*
X556525Y849445D01*
Y840555D01*
X556765Y838732D01*
X557469Y837032D01*
X558588Y835573D01*
X560047Y834454D01*
X561747Y833750D01*
X563570Y833510D01*
X586430D01*
X588253Y833750D01*
X589953Y834454D01*
X591412Y835573D01*
X592531Y837032D01*
X593235Y838732D01*
X593475Y840555D01*
Y844522D01*
X597839Y848885D01*
X599012Y848399D01*
Y838930D01*
Y825930D01*
X598075Y825126D01*
X586866D01*
Y805046D01*
X605946D01*
Y819132D01*
X609299Y822485D01*
X610141Y823745D01*
X610437Y825232D01*
Y825930D01*
X614092D01*
Y831434D01*
X615362Y831960D01*
X616637Y830685D01*
Y802131D01*
X600457Y785951D01*
X593531D01*
Y786511D01*
X593291Y788334D01*
X592587Y790034D01*
X591468Y791493D01*
X590009Y792612D01*
X588309Y793316D01*
X586486Y793556D01*
X563626D01*
X561803Y793316D01*
X560103Y792612D01*
X558644Y791493D01*
X557525Y790034D01*
X556821Y788334D01*
X556581Y786511D01*
Y777621D01*
X556821Y775798D01*
X557525Y774098D01*
X558644Y772639D01*
X560103Y771520D01*
X561803Y770816D01*
X563626Y770576D01*
X586486D01*
X588309Y770816D01*
X590009Y771520D01*
X591468Y772639D01*
X592587Y774098D01*
X593291Y775798D01*
X593531Y777621D01*
Y778181D01*
X602066D01*
X603553Y778477D01*
X604813Y779319D01*
X612063Y786569D01*
X613236Y786083D01*
Y775938D01*
Y762938D01*
X615186D01*
X615712Y761668D01*
X614087Y760043D01*
X606200D01*
Y766198D01*
X587120D01*
Y746118D01*
X606200D01*
Y752273D01*
X615696D01*
X617183Y752569D01*
X618443Y753411D01*
X623523Y758491D01*
X624365Y759751D01*
X624661Y761238D01*
Y762938D01*
X628316D01*
Y775938D01*
Y790018D01*
X624407D01*
Y828440D01*
X625580Y828926D01*
X627253Y827253D01*
X628513Y826411D01*
X630000Y826115D01*
X670000D01*
X671487Y826411D01*
X672747Y827253D01*
X731609Y886115D01*
X736852D01*
X737657Y885134D01*
X737631Y885000D01*
X737944Y883424D01*
X738837Y882087D01*
X740174Y881194D01*
X741750Y880881D01*
X749712D01*
X750471Y880471D01*
X750881Y879711D01*
Y876380D01*
X750805Y876000D01*
Y866299D01*
X741577Y857071D01*
X718312D01*
X716825Y856775D01*
X715565Y855933D01*
X667253Y807621D01*
X666411Y806361D01*
X666148Y805040D01*
X660710D01*
Y788960D01*
Y784270D01*
X670000D01*
X679290D01*
Y788960D01*
Y805040D01*
X677319D01*
X676833Y806213D01*
X719921Y849301D01*
X743186D01*
X744673Y849597D01*
X745933Y850439D01*
X757437Y861943D01*
X758279Y863203D01*
X758575Y864690D01*
Y866913D01*
X759556Y867719D01*
X760000Y867631D01*
X761576Y867944D01*
X762500Y868562D01*
X763424Y867944D01*
X765000Y867631D01*
X766576Y867944D01*
X767500Y868562D01*
X768424Y867944D01*
X770000Y867631D01*
X770134Y867657D01*
X771115Y866852D01*
Y856609D01*
X737253Y822747D01*
X736411Y821487D01*
X736115Y820000D01*
Y813540D01*
X732460D01*
Y799460D01*
Y786460D01*
X736115D01*
Y784730D01*
X730045D01*
X728558Y784434D01*
X727298Y783592D01*
X723185Y779479D01*
X722343Y778219D01*
X722047Y776732D01*
Y734568D01*
X722343Y733081D01*
X723185Y731821D01*
X746934Y708072D01*
X748194Y707230D01*
X749681Y706934D01*
X810000D01*
X811487Y707230D01*
X812747Y708072D01*
X837337Y732663D01*
X838179Y733923D01*
X838475Y735409D01*
Y812981D01*
X852747Y827253D01*
X853589Y828513D01*
X853885Y830000D01*
Y849460D01*
X860540D01*
Y870540D01*
X843460D01*
Y863885D01*
X836954D01*
X825146Y875692D01*
X825146Y875692D01*
X824517Y876322D01*
X825003Y877495D01*
X837074D01*
X838561Y877791D01*
X838925Y878034D01*
X906472D01*
X925053Y859454D01*
Y855555D01*
X925293Y853732D01*
X925997Y852032D01*
X927116Y850573D01*
X928575Y849454D01*
X930275Y848750D01*
X932098Y848510D01*
X954958D01*
X956781Y848750D01*
X958481Y849454D01*
X959940Y850573D01*
X961059Y852032D01*
X961763Y853732D01*
X962003Y855555D01*
Y864445D01*
X961763Y866268D01*
X961059Y867968D01*
X959940Y869427D01*
X958481Y870546D01*
X956781Y871250D01*
X954958Y871490D01*
X932098D01*
X930275Y871250D01*
X928575Y870546D01*
X927116Y869427D01*
X926132Y869362D01*
X910828Y884666D01*
X909568Y885508D01*
X908081Y885804D01*
X880897D01*
X880557Y887074D01*
X881251Y887474D01*
X882906Y889129D01*
X884076Y891157D01*
X884655Y893318D01*
X875792D01*
Y894588D01*
X874522D01*
Y903451D01*
X872361Y902872D01*
X871766Y902529D01*
X871728Y902537D01*
X865717D01*
X864088Y904165D01*
X864436Y905276D01*
X864557Y905435D01*
X925069D01*
X925293Y903732D01*
X925997Y902032D01*
X927116Y900573D01*
X928575Y899454D01*
X930275Y898750D01*
X932098Y898510D01*
X954958D01*
X956781Y898750D01*
X958481Y899454D01*
X959940Y900573D01*
X961059Y902032D01*
X961763Y903732D01*
X962003Y905555D01*
Y914445D01*
X961763Y916268D01*
X961059Y917968D01*
X959940Y919427D01*
X958481Y920546D01*
X956781Y921250D01*
X954958Y921490D01*
X932098D01*
X930275Y921250D01*
X928575Y920546D01*
X927116Y919427D01*
X925997Y917968D01*
X925293Y916268D01*
X925053Y914445D01*
Y913205D01*
X865040D01*
Y918730D01*
X857000D01*
Y921270D01*
X865040D01*
Y928803D01*
X889460D01*
Y925460D01*
X910540D01*
Y930115D01*
X916368D01*
X916530Y929511D01*
X917700Y927483D01*
X919355Y925828D01*
X921383Y924658D01*
X923644Y924052D01*
X925984D01*
X928245Y924658D01*
X930273Y925828D01*
X931928Y927483D01*
X933098Y929511D01*
X933704Y931772D01*
Y934112D01*
X933098Y936373D01*
X931928Y938401D01*
X930273Y940056D01*
X928245Y941226D01*
X925984Y941832D01*
X923644D01*
X921383Y941226D01*
X919355Y940056D01*
X917700Y938401D01*
X917402Y937885D01*
X910540D01*
Y942540D01*
X889460D01*
Y936573D01*
X850646D01*
X849159Y936277D01*
X847899Y935435D01*
X843199Y930735D01*
X843063Y930708D01*
X841803Y929866D01*
X841418Y929290D01*
X834960D01*
Y913205D01*
X816980D01*
X816494Y914378D01*
X820542Y918426D01*
X822298Y917956D01*
X824638D01*
X826899Y918562D01*
X828927Y919732D01*
X830582Y921387D01*
X831752Y923415D01*
X832358Y925676D01*
Y928016D01*
X831752Y930277D01*
X830582Y932305D01*
X829985Y932901D01*
X830403Y934279D01*
X831546Y934507D01*
X833226Y935630D01*
X897728Y1000130D01*
X898850Y1001811D01*
X899245Y1003793D01*
Y1022380D01*
X911464D01*
Y1037620D01*
D02*
G37*
G36*
X576200Y943610D02*
X567930D01*
Y934840D01*
X576200D01*
Y943610D01*
D02*
G37*
G36*
X565390D02*
X557120D01*
Y934840D01*
X565390D01*
Y943610D01*
D02*
G37*
G36*
X877062Y903451D02*
Y895858D01*
X884655D01*
X884076Y898019D01*
X882906Y900047D01*
X881251Y901702D01*
X879223Y902872D01*
X877062Y903451D01*
D02*
G37*
G36*
X576200Y888880D02*
X567930D01*
Y880110D01*
X576200D01*
Y888880D01*
D02*
G37*
G36*
X565390D02*
X557120D01*
Y880110D01*
X565390D01*
Y888880D01*
D02*
G37*
G36*
X576200Y877570D02*
X567930D01*
Y868800D01*
X576200D01*
Y877570D01*
D02*
G37*
G36*
X565390D02*
X557120D01*
Y868800D01*
X565390D01*
Y877570D01*
D02*
G37*
G36*
X896540Y870540D02*
X889270D01*
Y861270D01*
X896540D01*
Y870540D01*
D02*
G37*
G36*
X886730D02*
X879460D01*
Y861270D01*
X886730D01*
Y870540D01*
D02*
G37*
G36*
X896540Y858730D02*
X889270D01*
Y849460D01*
X896540D01*
Y858730D01*
D02*
G37*
G36*
X886730D02*
X879460D01*
Y849460D01*
X886730D01*
Y858730D01*
D02*
G37*
G36*
X575946Y825126D02*
X567676D01*
Y816356D01*
X575946D01*
Y825126D01*
D02*
G37*
G36*
X565136D02*
X556866D01*
Y816356D01*
X565136D01*
Y825126D01*
D02*
G37*
G36*
X575946Y813816D02*
X567676D01*
Y805046D01*
X575946D01*
Y813816D01*
D02*
G37*
G36*
X565136D02*
X556866D01*
Y805046D01*
X565136D01*
Y813816D01*
D02*
G37*
G36*
X679290Y781730D02*
X671270D01*
Y774960D01*
X679290D01*
Y781730D01*
D02*
G37*
G36*
X668730D02*
X660710D01*
Y774960D01*
X668730D01*
Y781730D01*
D02*
G37*
G36*
X576200Y766198D02*
X567930D01*
Y757428D01*
X576200D01*
Y766198D01*
D02*
G37*
G36*
X565390D02*
X557120D01*
Y757428D01*
X565390D01*
Y766198D01*
D02*
G37*
G36*
X576200Y754888D02*
X567930D01*
Y746118D01*
X576200D01*
Y754888D01*
D02*
G37*
G36*
X565390D02*
X557120D01*
Y746118D01*
X565390D01*
Y754888D01*
D02*
G37*
G36*
X921481Y735040D02*
X921270D01*
Y721270D01*
X935040D01*
Y721481D01*
X934462Y724387D01*
X933328Y727124D01*
X931682Y729587D01*
X929587Y731682D01*
X927124Y733328D01*
X924387Y734462D01*
X921481Y735040D01*
D02*
G37*
G36*
X918730D02*
X918519D01*
X915613Y734462D01*
X912876Y733328D01*
X910413Y731682D01*
X908318Y729587D01*
X906672Y727124D01*
X905538Y724387D01*
X904960Y721481D01*
Y721270D01*
X918730D01*
Y735040D01*
D02*
G37*
G36*
X601481D02*
X601270D01*
Y721270D01*
X615040D01*
Y721481D01*
X614462Y724387D01*
X613328Y727124D01*
X611682Y729587D01*
X609587Y731682D01*
X607124Y733328D01*
X604387Y734462D01*
X601481Y735040D01*
D02*
G37*
G36*
X598730D02*
X598519D01*
X595613Y734462D01*
X592876Y733328D01*
X590413Y731682D01*
X588318Y729587D01*
X586672Y727124D01*
X585538Y724387D01*
X584960Y721481D01*
Y721270D01*
X598730D01*
Y735040D01*
D02*
G37*
G36*
X935040Y718730D02*
X921270D01*
Y704960D01*
X921481D01*
X924387Y705538D01*
X927124Y706672D01*
X929587Y708318D01*
X931682Y710413D01*
X933328Y712876D01*
X934462Y715613D01*
X935040Y718519D01*
Y718730D01*
D02*
G37*
G36*
X918730D02*
X904960D01*
Y718519D01*
X905538Y715613D01*
X906672Y712876D01*
X908318Y710413D01*
X910413Y708318D01*
X912876Y706672D01*
X915613Y705538D01*
X918519Y704960D01*
X918730D01*
Y718730D01*
D02*
G37*
G36*
X615040D02*
X601270D01*
Y704960D01*
X601481D01*
X604387Y705538D01*
X607124Y706672D01*
X609587Y708318D01*
X611682Y710413D01*
X613328Y712876D01*
X614462Y715613D01*
X615040Y718519D01*
Y718730D01*
D02*
G37*
G36*
X598730D02*
X584960D01*
Y718519D01*
X585538Y715613D01*
X586672Y712876D01*
X588318Y710413D01*
X590413Y708318D01*
X592876Y706672D01*
X595613Y705538D01*
X598519Y704960D01*
X598730D01*
Y718730D01*
D02*
G37*
%LPD*%
G36*
X661264Y1089618D02*
Y1067618D01*
X655264Y1061618D01*
X648264D01*
X642264Y1067618D01*
Y1089618D01*
X648264Y1095618D01*
X655264D01*
X661264Y1089618D01*
D02*
G37*
G36*
X776115Y968391D02*
Y961609D01*
X765058Y950552D01*
X763885Y951038D01*
Y964460D01*
X767540D01*
Y975170D01*
X768699Y975807D01*
X776115Y968391D01*
D02*
G37*
G36*
X752460Y975540D02*
Y964460D01*
X756115D01*
Y941038D01*
X754942Y940552D01*
X752747Y942747D01*
X751487Y943589D01*
X750000Y943885D01*
X700000D01*
X698513Y943589D01*
X697253Y942747D01*
X687253Y932747D01*
X687253Y932747D01*
X677226Y922720D01*
X676384Y921460D01*
X676088Y919973D01*
Y903582D01*
X673046Y900540D01*
X659460D01*
Y879460D01*
X672663D01*
X673149Y878287D01*
X668747Y873885D01*
X661609D01*
X653885Y881609D01*
Y900000D01*
X653589Y901487D01*
X652747Y902747D01*
X645472Y910022D01*
X645958Y911195D01*
X655080D01*
X656567Y911491D01*
X657827Y912333D01*
X721609Y976115D01*
X751428D01*
X752460Y975540D01*
D02*
G37*
G36*
X751115Y933391D02*
Y929429D01*
X750881Y928250D01*
Y920289D01*
X750471Y919529D01*
X749712Y919119D01*
X743217D01*
X734267Y928069D01*
X733007Y928911D01*
X731520Y929207D01*
X708660D01*
X707173Y928911D01*
X705913Y928069D01*
X692333Y914489D01*
X691491Y913229D01*
X691195Y911742D01*
Y907989D01*
X687253Y904047D01*
X686411Y902787D01*
X686115Y901300D01*
Y891253D01*
X677713Y882851D01*
X676540Y883337D01*
Y893046D01*
X682720Y899226D01*
X683562Y900486D01*
X683858Y901973D01*
Y918364D01*
X692747Y927253D01*
X692747Y927253D01*
X701609Y936115D01*
X748391D01*
X751115Y933391D01*
D02*
G37*
G36*
X816892Y932842D02*
X816354Y932305D01*
X815184Y930277D01*
X814578Y928016D01*
Y925676D01*
X815048Y923920D01*
X810013Y918885D01*
X799429D01*
X798250Y919119D01*
X790289D01*
X789529Y919529D01*
X789119Y920289D01*
Y921021D01*
X789785Y922018D01*
X790180Y924000D01*
Y930937D01*
X793355Y934112D01*
X816366D01*
X816892Y932842D01*
D02*
G37*
G36*
X861361Y895905D02*
X862621Y895063D01*
X864108Y894767D01*
X866902D01*
Y893418D01*
X867508Y891157D01*
X868678Y889129D01*
X870333Y887474D01*
X871027Y887074D01*
X870687Y885804D01*
X841286D01*
X840553Y887074D01*
X841150Y888109D01*
X841756Y890370D01*
Y892710D01*
X841150Y894971D01*
X840241Y896545D01*
X840843Y897815D01*
X859451D01*
X861361Y895905D01*
D02*
G37*
G36*
X794000Y880805D02*
X809046D01*
X816906Y872945D01*
X810094Y866134D01*
X809373Y866550D01*
X807112Y867156D01*
X804772D01*
X802511Y866550D01*
X800483Y865380D01*
X798828Y863725D01*
X797919Y862151D01*
X792819D01*
X788885Y866085D01*
Y870571D01*
X789119Y871750D01*
Y879711D01*
X789529Y880471D01*
X790289Y880881D01*
X793620D01*
X794000Y880805D01*
D02*
G37*
G36*
X646115Y898391D02*
Y880000D01*
X646411Y878513D01*
X647253Y877253D01*
X657253Y867253D01*
X657685Y866965D01*
X657300Y865695D01*
X643810D01*
X642323Y865399D01*
X641063Y864557D01*
X637046Y860540D01*
X626075D01*
Y878581D01*
X626954Y879460D01*
X640540D01*
Y900540D01*
X623460D01*
Y886954D01*
X622024Y885518D01*
X620851Y886004D01*
Y905357D01*
X621609Y906115D01*
X638391D01*
X646115Y898391D01*
D02*
G37*
G36*
X718448Y894942D02*
X677810Y854304D01*
X676540Y854830D01*
Y860540D01*
X676540Y860540D01*
X676540D01*
X677079Y861586D01*
X711609Y896115D01*
X717962D01*
X718448Y894942D01*
D02*
G37*
G36*
X832598Y857253D02*
X833858Y856411D01*
X835345Y856115D01*
X843460D01*
Y849460D01*
X846115D01*
Y831609D01*
X831844Y817337D01*
X831002Y816077D01*
X830706Y814591D01*
Y737019D01*
X808391Y714704D01*
X751290D01*
X729817Y736177D01*
Y744904D01*
X730960Y745210D01*
X731087Y745210D01*
X738730D01*
Y752250D01*
Y759290D01*
X731087D01*
X730960Y759290D01*
X730763Y759343D01*
Y759522D01*
X732011Y760710D01*
X749040D01*
Y774790D01*
X743885D01*
Y780796D01*
X743875Y780845D01*
X743885Y780894D01*
Y786460D01*
X747540D01*
Y799460D01*
Y813540D01*
X743885D01*
Y818391D01*
X773974Y848480D01*
X775244Y847954D01*
Y839196D01*
Y838006D01*
X784824D01*
Y843740D01*
X784935Y844296D01*
X784824Y844852D01*
Y849276D01*
X783885D01*
Y858438D01*
X785058Y858924D01*
X788463Y855519D01*
X789723Y854677D01*
X791210Y854381D01*
X797919D01*
X798828Y852807D01*
X800483Y851152D01*
X802511Y849982D01*
X804772Y849376D01*
X807112D01*
X809373Y849982D01*
X811401Y851152D01*
X813056Y852807D01*
X814226Y854835D01*
X814832Y857096D01*
Y859436D01*
X814737Y859790D01*
X822400Y867452D01*
X832598Y857253D01*
D02*
G37*
G36*
X659460Y839460D02*
X672307D01*
X672793Y838287D01*
X668391Y833885D01*
X631609D01*
X627304Y838190D01*
X627830Y839460D01*
X640540D01*
Y853046D01*
X645419Y857925D01*
X659460D01*
Y839460D01*
D02*
G37*
%LPC*%
G36*
X784824Y835466D02*
X781304D01*
Y831696D01*
X784824D01*
Y835466D01*
D02*
G37*
G36*
X778764D02*
X775244D01*
Y831696D01*
X778764D01*
Y835466D01*
D02*
G37*
G36*
X795480Y774768D02*
X791210D01*
Y770248D01*
X795480D01*
Y774768D01*
D02*
G37*
G36*
X791364Y828548D02*
X789024D01*
X786763Y827942D01*
X784735Y826772D01*
X783080Y825117D01*
X781910Y823089D01*
X781304Y820828D01*
Y818488D01*
X781910Y816227D01*
X783080Y814199D01*
X784735Y812544D01*
X786055Y811782D01*
Y790328D01*
X784400D01*
Y779923D01*
X781118D01*
X779631Y779627D01*
X778371Y778785D01*
X772808Y773222D01*
X771966Y771962D01*
X771670Y770475D01*
Y763262D01*
X764543Y756135D01*
X749040D01*
Y759290D01*
X741270D01*
Y752250D01*
Y745210D01*
X749040D01*
Y748365D01*
X766152D01*
X767639Y748661D01*
X768899Y749503D01*
X778302Y758906D01*
X779144Y760166D01*
X779440Y761653D01*
Y768866D01*
X782727Y772153D01*
X784400D01*
Y770248D01*
X788670D01*
Y776038D01*
X789940D01*
Y777308D01*
X795480D01*
Y778748D01*
Y790328D01*
X793825D01*
Y811015D01*
X793931Y811550D01*
X795653Y812544D01*
X797308Y814199D01*
X798478Y816227D01*
X799084Y818488D01*
Y820828D01*
X798478Y823089D01*
X797308Y825117D01*
X795653Y826772D01*
X793625Y827942D01*
X791364Y828548D01*
D02*
G37*
%LPD*%
D13*
X789940Y812038D02*
X790194Y812292D01*
X789940Y784538D02*
Y812038D01*
X766152Y752250D02*
X775555Y761653D01*
X781118Y776038D02*
X789940D01*
X775555Y770475D02*
X781118Y776038D01*
X775555Y761653D02*
Y770475D01*
X740000Y752250D02*
X766152D01*
X775000Y924000D02*
Y944840D01*
X780000Y924000D02*
Y940000D01*
X634746Y962660D02*
X672660D01*
X774920Y944920D02*
X775000Y944840D01*
X620776Y761238D02*
Y769978D01*
X615696Y756158D02*
X620776Y761238D01*
X600000Y756158D02*
X615696D01*
X620776Y769978D02*
Y771478D01*
X575056Y782066D02*
X602066D01*
X572178D02*
X575056D01*
X620522Y781732D02*
Y832294D01*
X572178Y782066D02*
X575056Y784944D01*
X602066Y782066D02*
X620000Y800000D01*
X616966Y835850D02*
X620522Y832294D01*
Y781732D02*
X620776Y781478D01*
X600202Y856742D02*
X606552D01*
X588460Y845000D02*
X600202Y856742D01*
X575000Y845000D02*
X588460D01*
X606552Y845970D02*
Y856742D01*
X611886Y862076D01*
Y909070D01*
X617896Y915080D01*
X616966Y835850D02*
Y906966D01*
X622190Y837810D02*
X630000Y830000D01*
X622190Y837810D02*
Y880190D01*
X632000Y890000D01*
X616966Y906966D02*
X620000Y910000D01*
X602234Y908986D02*
X604760D01*
X601220Y910000D02*
X602234Y908986D01*
X637464Y941832D02*
X653542D01*
X604760Y909128D02*
X637464Y941832D01*
X604760Y908986D02*
Y909128D01*
X672660Y962660D02*
X685000Y975000D01*
X634492Y962914D02*
X634746Y962660D01*
X672338Y1033272D02*
X721614D01*
X672338D02*
X695610Y1010000D01*
X721614Y1033272D02*
Y1065530D01*
X666764Y1038846D02*
X672338Y1033272D01*
X666764Y1038846D02*
Y1054618D01*
X898312Y932688D02*
X898500Y932500D01*
X850000Y830000D02*
Y860000D01*
X794000Y884690D02*
X810655D01*
X611124Y1025224D02*
X612728Y1023620D01*
X625094D02*
X634974Y1033500D01*
X612728Y1023620D02*
X625094D01*
X634974Y1033500D02*
X635000D01*
X636764Y1035264D01*
Y1054618D01*
X635000Y1006348D02*
Y1033500D01*
X761970Y1030000D02*
X845935D01*
X722122Y1069848D02*
X761970Y1030000D01*
X594360Y891112D02*
X602234Y898986D01*
X594360Y879320D02*
Y891112D01*
X593880Y878840D02*
X594360Y879320D01*
X835345Y860000D02*
X850000D01*
X810000Y710819D02*
X834591Y735409D01*
Y814591D02*
X850000Y830000D01*
X834591Y735409D02*
Y814591D01*
X749681Y710819D02*
X810000D01*
X575056Y782066D02*
Y784944D01*
X575000Y910000D02*
X601220D01*
X685000Y975000D02*
X700000Y990000D01*
X575000Y975000D02*
X685000D01*
X595000Y945000D02*
X610000D01*
X625000Y960000D01*
X624492Y960508D02*
X625000Y960000D01*
X624492Y960508D02*
Y962914D01*
X606552Y825232D02*
Y834470D01*
X596406Y815086D02*
X606552Y825232D01*
X575000Y910000D02*
X587248Y915162D01*
X585724Y1002792D02*
X586232Y1003300D01*
Y1004048D01*
Y1034048D02*
X587742Y1035558D01*
X610790D01*
X611124Y1035224D01*
X780000Y845346D02*
X781050Y844296D01*
X780000Y845346D02*
Y876000D01*
X775000Y855000D02*
Y876000D01*
X785000Y864476D02*
Y876000D01*
X740000Y820000D02*
X775000Y855000D01*
X785000Y864476D02*
X791210Y858266D01*
X668000Y890000D02*
X679973Y901973D01*
Y919973D01*
X690000Y930000D01*
X690000D01*
X695080Y906380D02*
Y911742D01*
X708660Y925322D01*
X731520D01*
X690000Y889644D02*
Y901300D01*
X670356Y870000D02*
X690000Y889644D01*
X660000Y870000D02*
X670356D01*
X671810Y861810D02*
X710000Y900000D01*
X643810Y861810D02*
X671810D01*
X710000Y900000D02*
X746000D01*
X706882Y915162D02*
X713800D01*
X704850Y905160D02*
X705010Y905000D01*
X704850Y905160D02*
Y913130D01*
X706882Y915162D01*
X735412Y910000D02*
X746000D01*
X721300Y915162D02*
X730250D01*
X735412Y910000D01*
X690000Y901300D02*
X695080Y906380D01*
X731520Y925322D02*
X741842Y915000D01*
X746000D01*
X697738Y899160D02*
X699170D01*
X705010Y905000D01*
X746000D01*
X871728Y898652D02*
X875792Y894588D01*
X864108Y898652D02*
X871728D01*
X861060Y901700D02*
X864108Y898652D01*
X819150Y901700D02*
X861060D01*
X817450Y900000D02*
X819150Y901700D01*
X794000Y900000D02*
X817450D01*
X695610Y1010000D02*
X696000D01*
X760000Y930760D02*
Y970000D01*
X700000Y990000D02*
X780000D01*
X725932Y734568D02*
X749681Y710819D01*
X725932Y776732D02*
X730045Y780845D01*
X725932Y734568D02*
Y776732D01*
X740000Y780894D02*
Y793500D01*
X739951Y780845D02*
X740000Y780894D01*
Y767750D02*
Y780796D01*
X739951Y780845D02*
X740000Y780796D01*
X730045Y780845D02*
X739951D01*
X812529Y890000D02*
X821149Y881380D01*
X837074D01*
X837613Y881919D02*
X908081D01*
X837074Y881380D02*
X837613Y881919D01*
X822400Y872945D02*
X835345Y860000D01*
X810655Y884690D02*
X822400Y872945D01*
X807720Y858266D02*
X822400Y872945D01*
X805942Y858266D02*
X807720D01*
X791210D02*
X805942D01*
X811622Y915000D02*
X823468Y926846D01*
X794000Y915000D02*
X811622D01*
X617896Y915080D02*
X655080D01*
X923756Y934000D02*
X924814Y932942D01*
X900000Y934000D02*
X923756D01*
X634492Y1005840D02*
X635000Y1006348D01*
X814553Y895000D02*
X814633Y895080D01*
X794000Y895000D02*
X814553D01*
X794000Y890000D02*
X812529D01*
X814633Y895080D02*
X818173Y891540D01*
X832866D01*
X908081Y881919D02*
X930000Y860000D01*
X949320Y909320D02*
X950000Y910000D01*
X810262Y909320D02*
X949320D01*
X794000Y905000D02*
X805942D01*
X810262Y909320D01*
X843000Y920000D02*
X844550Y921550D01*
Y927119D01*
X850646Y932688D02*
X898312D01*
X845077Y927119D02*
X850646Y932688D01*
X844550Y927119D02*
X845077D01*
X754690Y864690D02*
Y876000D01*
X743186Y853186D02*
X754690Y864690D01*
X718312Y853186D02*
X743186D01*
X670000Y804874D02*
X718312Y853186D01*
X670000Y797000D02*
Y804874D01*
X740000Y806500D02*
Y820000D01*
X930000Y860000D02*
X950000D01*
X650000Y880000D02*
Y900000D01*
X620000Y910000D02*
X640000D01*
Y910000D02*
X650000Y900000D01*
X640000Y910000D02*
Y910000D01*
X650000Y880000D02*
X660000Y870000D01*
X630000Y830000D02*
X670000D01*
X730000Y890000D01*
X746000D01*
X730500Y895000D02*
X746000D01*
X723920Y894920D02*
X730500D01*
X679000Y850000D02*
X723920Y894920D01*
X668000Y850000D02*
X679000D01*
X632000D02*
X643810Y861810D01*
X720000Y980000D02*
X770000D01*
X780000Y960000D02*
Y970000D01*
X770000Y980000D02*
X780000Y970000D01*
X655080Y915080D02*
X720000Y980000D01*
X765000Y945000D02*
X780000Y960000D01*
X765000Y924000D02*
Y945000D01*
X774920Y944920D02*
X790000Y960000D01*
Y980000D01*
X780000Y990000D02*
X790000Y980000D01*
X755000Y924000D02*
Y935000D01*
X750000Y940000D02*
X755000Y935000D01*
X700000Y940000D02*
X750000D01*
X690000Y930000D02*
X700000Y940000D01*
X780000D02*
X780000Y940000D01*
X780000Y940000D02*
X790000Y950000D01*
X820000D01*
D15*
X789940Y784538D02*
D03*
Y776038D02*
D03*
D16*
X636764Y1054618D02*
D03*
X666764D02*
D03*
D17*
X651764Y1054118D02*
D03*
D18*
X620776Y769978D02*
D03*
Y782978D02*
D03*
X606552Y832970D02*
D03*
Y845970D02*
D03*
X602234Y897486D02*
D03*
Y910486D02*
D03*
X611124Y1036724D02*
D03*
Y1023724D02*
D03*
X740000Y793500D02*
D03*
Y806500D02*
D03*
D19*
X622992Y962914D02*
D03*
X635992D02*
D03*
D20*
X845935Y1030000D02*
D03*
X894065D02*
D03*
D21*
X770000Y900000D02*
D03*
D22*
X755000Y924000D02*
D03*
X760000D02*
D03*
X765000D02*
D03*
X770000D02*
D03*
X775000D02*
D03*
X780000D02*
D03*
X785000D02*
D03*
Y876000D02*
D03*
X780000D02*
D03*
X775000D02*
D03*
X770000D02*
D03*
X765000D02*
D03*
X760000D02*
D03*
X755000D02*
D03*
D23*
X794000Y915000D02*
D03*
Y910000D02*
D03*
Y905000D02*
D03*
Y900000D02*
D03*
Y895000D02*
D03*
Y890000D02*
D03*
Y885000D02*
D03*
X746000D02*
D03*
Y890000D02*
D03*
Y895000D02*
D03*
Y900000D02*
D03*
Y905000D02*
D03*
Y910000D02*
D03*
Y915000D02*
D03*
D24*
X596660Y756158D02*
D03*
X566660D02*
D03*
X596660Y944880D02*
D03*
X566660D02*
D03*
X596406Y815086D02*
D03*
X566406D02*
D03*
X596660Y878840D02*
D03*
X566660D02*
D03*
D25*
X713800Y915162D02*
D03*
X721300D02*
D03*
D26*
X632000Y850000D02*
D03*
X668000D02*
D03*
Y890000D02*
D03*
X632000D02*
D03*
X888000Y860000D02*
D03*
X852000D02*
D03*
D27*
X586232Y1034048D02*
D03*
Y1004048D02*
D03*
D28*
X696000Y1010000D02*
D03*
X724000D02*
D03*
D29*
X760000Y1000000D02*
D03*
Y970000D02*
D03*
X820000Y980000D02*
D03*
Y950000D02*
D03*
D30*
X900000Y934000D02*
D03*
Y970000D02*
D03*
D31*
X857000Y920000D02*
D03*
X843000D02*
D03*
D32*
X740000Y767750D02*
D03*
Y752250D02*
D03*
D33*
X780034Y844236D02*
D03*
Y836736D02*
D03*
D34*
X670000Y797000D02*
D03*
Y783000D02*
D03*
D60*
X785000Y933082D02*
X791210Y939292D01*
X785000Y924000D02*
Y933082D01*
X829564Y939292D02*
X894065Y1003793D01*
X791210Y939292D02*
X829564D01*
X894065Y1003793D02*
Y1030000D01*
D61*
X575000Y975000D02*
D03*
Y845000D02*
D03*
X575056Y782066D02*
D03*
X943528Y860000D02*
D03*
Y910000D02*
D03*
X575000D02*
D03*
D62*
X920000Y1060000D02*
D03*
X600000Y720000D02*
D03*
Y1060000D02*
D03*
X920000Y720000D02*
D03*
D63*
X722122Y1069848D02*
D03*
X790000Y1070000D02*
D03*
D64*
X781000Y889000D02*
D03*
X770000D02*
D03*
X759000D02*
D03*
X781000Y900000D02*
D03*
X770000D02*
D03*
X759000D02*
D03*
X781000Y911000D02*
D03*
X770000D02*
D03*
X759000D02*
D03*
D65*
X697738Y899160D02*
D03*
D66*
X875792Y894588D02*
D03*
X805942Y858266D02*
D03*
X823468Y926846D02*
D03*
X653542Y941832D02*
D03*
X924814Y932942D02*
D03*
X634492Y1005840D02*
D03*
X832866Y891540D02*
D03*
X790194Y819658D02*
D03*
M02*
