G04*
G04 #@! TF.GenerationSoftware,Altium Limited,Altium Designer,22.2.1 (43)*
G04*
G04 Layer_Color=16711935*
%FSLAX25Y25*%
%MOIN*%
G70*
G04*
G04 #@! TF.SameCoordinates,E3E267CE-3B28-4E7D-86E6-9DA55300F0EE*
G04*
G04*
G04 #@! TF.FilePolarity,Positive*
G04*
G01*
G75*
%ADD11C,0.00787*%
%ADD15C,0.04724*%
G36*
X295110Y335417D02*
X295139Y335413D01*
X295171Y335406D01*
X295208Y335399D01*
X295248Y335391D01*
X295335Y335362D01*
X295382Y335340D01*
X295426Y335319D01*
X295474Y335290D01*
X295521Y335257D01*
X295568Y335220D01*
X295612Y335177D01*
X295615Y335173D01*
X295623Y335166D01*
X295634Y335151D01*
X295648Y335133D01*
X295666Y335111D01*
X295685Y335082D01*
X295706Y335049D01*
X295725Y335009D01*
X295746Y334969D01*
X295768Y334922D01*
X295786Y334875D01*
X295805Y334820D01*
X295819Y334762D01*
X295830Y334700D01*
X295837Y334638D01*
X295841Y334569D01*
Y334536D01*
X295837Y334514D01*
X295834Y334485D01*
X295830Y334452D01*
X295823Y334416D01*
X295816Y334376D01*
X295794Y334289D01*
X295757Y334197D01*
X295736Y334150D01*
X295710Y334106D01*
X295677Y334063D01*
X295645Y334019D01*
X295641Y334015D01*
X295634Y334008D01*
X295623Y333997D01*
X295608Y333986D01*
X295590Y333968D01*
X295565Y333950D01*
X295539Y333928D01*
X295506Y333906D01*
X295470Y333885D01*
X295433Y333863D01*
X295346Y333823D01*
X295244Y333790D01*
X295190Y333779D01*
X295131Y333772D01*
X295091Y334081D01*
X295095D01*
X295102Y334085D01*
X295117Y334088D01*
X295135Y334092D01*
X295157Y334096D01*
X295182Y334103D01*
X295237Y334121D01*
X295302Y334147D01*
X295364Y334179D01*
X295423Y334216D01*
X295474Y334259D01*
X295477Y334267D01*
X295492Y334281D01*
X295510Y334310D01*
X295528Y334347D01*
X295550Y334390D01*
X295568Y334445D01*
X295583Y334507D01*
X295586Y334572D01*
Y334594D01*
X295583Y334609D01*
X295579Y334649D01*
X295568Y334700D01*
X295550Y334758D01*
X295524Y334820D01*
X295488Y334882D01*
X295437Y334940D01*
X295430Y334947D01*
X295408Y334966D01*
X295375Y334987D01*
X295332Y335016D01*
X295277Y335046D01*
X295215Y335068D01*
X295142Y335086D01*
X295062Y335093D01*
X295058D01*
X295051D01*
X295040D01*
X295026Y335089D01*
X294986Y335086D01*
X294938Y335075D01*
X294880Y335060D01*
X294822Y335035D01*
X294764Y334998D01*
X294709Y334951D01*
X294702Y334944D01*
X294687Y334926D01*
X294665Y334896D01*
X294640Y334856D01*
X294614Y334805D01*
X294593Y334743D01*
X294578Y334674D01*
X294571Y334598D01*
Y334565D01*
X294574Y334540D01*
X294578Y334507D01*
X294585Y334471D01*
X294593Y334427D01*
X294603Y334380D01*
X294331Y334416D01*
Y334434D01*
X294334Y334449D01*
Y334496D01*
X294327Y334536D01*
X294320Y334583D01*
X294309Y334638D01*
X294290Y334700D01*
X294265Y334758D01*
X294232Y334820D01*
Y334824D01*
X294229Y334827D01*
X294214Y334845D01*
X294189Y334871D01*
X294156Y334900D01*
X294109Y334929D01*
X294054Y334955D01*
X293992Y334973D01*
X293956Y334980D01*
X293916D01*
X293912D01*
X293908D01*
X293886D01*
X293857Y334973D01*
X293817Y334966D01*
X293774Y334951D01*
X293726Y334933D01*
X293679Y334904D01*
X293635Y334864D01*
X293632Y334860D01*
X293617Y334842D01*
X293599Y334816D01*
X293577Y334784D01*
X293559Y334740D01*
X293541Y334689D01*
X293526Y334631D01*
X293522Y334565D01*
Y334536D01*
X293530Y334503D01*
X293537Y334460D01*
X293552Y334412D01*
X293570Y334365D01*
X293599Y334314D01*
X293635Y334267D01*
X293639Y334263D01*
X293657Y334248D01*
X293683Y334227D01*
X293719Y334201D01*
X293766Y334176D01*
X293825Y334150D01*
X293894Y334128D01*
X293974Y334114D01*
X293919Y333804D01*
X293916D01*
X293905Y333808D01*
X293890Y333812D01*
X293868Y333815D01*
X293843Y333823D01*
X293814Y333834D01*
X293744Y333855D01*
X293664Y333892D01*
X293584Y333935D01*
X293508Y333990D01*
X293439Y334059D01*
X293435Y334063D01*
X293431Y334070D01*
X293424Y334081D01*
X293413Y334096D01*
X293399Y334114D01*
X293384Y334139D01*
X293370Y334165D01*
X293351Y334197D01*
X293322Y334270D01*
X293293Y334354D01*
X293275Y334452D01*
X293268Y334503D01*
Y334594D01*
X293271Y334634D01*
X293279Y334682D01*
X293289Y334740D01*
X293308Y334805D01*
X293330Y334871D01*
X293359Y334936D01*
Y334940D01*
X293362Y334944D01*
X293373Y334966D01*
X293395Y334998D01*
X293421Y335035D01*
X293457Y335078D01*
X293497Y335122D01*
X293544Y335166D01*
X293599Y335202D01*
X293606Y335206D01*
X293624Y335217D01*
X293657Y335231D01*
X293697Y335249D01*
X293744Y335268D01*
X293799Y335282D01*
X293861Y335293D01*
X293923Y335297D01*
X293930D01*
X293952D01*
X293981Y335293D01*
X294021Y335286D01*
X294068Y335275D01*
X294119Y335257D01*
X294170Y335235D01*
X294221Y335206D01*
X294229Y335202D01*
X294243Y335191D01*
X294269Y335169D01*
X294298Y335140D01*
X294331Y335104D01*
X294367Y335060D01*
X294400Y335009D01*
X294432Y334947D01*
Y334951D01*
X294436Y334958D01*
X294440Y334969D01*
X294443Y334984D01*
X294458Y335024D01*
X294480Y335075D01*
X294509Y335133D01*
X294545Y335191D01*
X294593Y335246D01*
X294647Y335297D01*
X294654Y335300D01*
X294676Y335315D01*
X294713Y335337D01*
X294760Y335359D01*
X294818Y335381D01*
X294887Y335402D01*
X294968Y335417D01*
X295055Y335421D01*
X295058D01*
X295069D01*
X295088D01*
X295110Y335417D01*
D02*
G37*
G36*
X295797Y332665D02*
X293828D01*
X293832Y332661D01*
X293846Y332643D01*
X293868Y332621D01*
X293894Y332585D01*
X293927Y332545D01*
X293963Y332494D01*
X294003Y332436D01*
X294043Y332370D01*
Y332367D01*
X294047Y332363D01*
X294061Y332341D01*
X294079Y332305D01*
X294101Y332261D01*
X294127Y332210D01*
X294152Y332155D01*
X294178Y332101D01*
X294199Y332046D01*
X293901D01*
Y332050D01*
X293894Y332057D01*
X293890Y332072D01*
X293879Y332090D01*
X293868Y332112D01*
X293854Y332137D01*
X293817Y332199D01*
X293777Y332272D01*
X293726Y332345D01*
X293668Y332421D01*
X293606Y332498D01*
X293602Y332501D01*
X293599Y332505D01*
X293588Y332516D01*
X293577Y332530D01*
X293541Y332563D01*
X293497Y332607D01*
X293446Y332650D01*
X293388Y332698D01*
X293330Y332738D01*
X293268Y332774D01*
Y332975D01*
X295797D01*
Y332665D01*
D02*
G37*
G36*
Y331198D02*
X295273Y330867D01*
X295270D01*
X295262Y330860D01*
X295251Y330852D01*
X295237Y330841D01*
X295197Y330816D01*
X295146Y330783D01*
X295091Y330743D01*
X295033Y330703D01*
X294978Y330663D01*
X294928Y330627D01*
X294924Y330623D01*
X294909Y330612D01*
X294887Y330594D01*
X294862Y330568D01*
X294807Y330514D01*
X294782Y330485D01*
X294760Y330456D01*
X294756Y330452D01*
X294753Y330445D01*
X294745Y330430D01*
X294735Y330408D01*
X294724Y330386D01*
X294713Y330361D01*
X294694Y330303D01*
Y330299D01*
X294691Y330292D01*
Y330277D01*
X294687Y330259D01*
X294684Y330234D01*
Y330204D01*
X294680Y330164D01*
Y329735D01*
X295797D01*
Y329400D01*
X293279D01*
Y330568D01*
X293282Y330598D01*
Y330630D01*
X293286Y330707D01*
X293297Y330787D01*
X293308Y330874D01*
X293326Y330954D01*
X293337Y330994D01*
X293348Y331027D01*
Y331031D01*
X293351Y331034D01*
X293362Y331056D01*
X293377Y331089D01*
X293402Y331129D01*
X293435Y331173D01*
X293479Y331220D01*
X293530Y331264D01*
X293588Y331307D01*
X293592D01*
X293595Y331311D01*
X293617Y331326D01*
X293653Y331340D01*
X293701Y331362D01*
X293755Y331380D01*
X293821Y331398D01*
X293890Y331409D01*
X293967Y331413D01*
X293970D01*
X293977D01*
X293992D01*
X294010Y331409D01*
X294036D01*
X294061Y331406D01*
X294123Y331391D01*
X294196Y331369D01*
X294272Y331340D01*
X294349Y331296D01*
X294385Y331267D01*
X294422Y331238D01*
X294425Y331235D01*
X294429Y331231D01*
X294440Y331220D01*
X294451Y331205D01*
X294465Y331187D01*
X294480Y331165D01*
X294498Y331136D01*
X294520Y331107D01*
X294538Y331071D01*
X294556Y331031D01*
X294578Y330987D01*
X294596Y330940D01*
X294611Y330885D01*
X294629Y330831D01*
X294640Y330769D01*
X294651Y330703D01*
X294654Y330710D01*
X294662Y330725D01*
X294676Y330747D01*
X294691Y330776D01*
X294731Y330841D01*
X294756Y330874D01*
X294778Y330903D01*
X294785Y330911D01*
X294804Y330929D01*
X294833Y330958D01*
X294869Y330994D01*
X294920Y331034D01*
X294975Y331082D01*
X295040Y331129D01*
X295113Y331180D01*
X295797Y331613D01*
Y331198D01*
D02*
G37*
%LPC*%
G36*
X293970Y331071D02*
X293967D01*
X293963D01*
X293941Y331067D01*
X293908Y331064D01*
X293865Y331056D01*
X293821Y331038D01*
X293770Y331016D01*
X293723Y330983D01*
X293675Y330940D01*
X293672Y330932D01*
X293657Y330914D01*
X293639Y330885D01*
X293617Y330838D01*
X293595Y330783D01*
X293577Y330710D01*
X293563Y330627D01*
X293559Y330528D01*
Y329735D01*
X294392D01*
Y330485D01*
X294389Y330528D01*
X294385Y330579D01*
X294381Y330638D01*
X294374Y330696D01*
X294363Y330754D01*
X294349Y330805D01*
X294345Y330812D01*
X294338Y330827D01*
X294327Y330849D01*
X294312Y330878D01*
X294290Y330911D01*
X294265Y330943D01*
X294232Y330976D01*
X294196Y331002D01*
X294192Y331005D01*
X294178Y331013D01*
X294156Y331023D01*
X294127Y331038D01*
X294094Y331049D01*
X294057Y331060D01*
X294014Y331067D01*
X293970Y331071D01*
D02*
G37*
%LPD*%
D11*
X293383Y325911D02*
Y332889D01*
X296817D01*
Y325911D02*
Y332889D01*
X293383Y325911D02*
X296817D01*
D15*
X384252Y409449D02*
G03*
X383560Y411119I-2362J0D01*
G01*
X384252Y409449D02*
G03*
X383560Y411119I-2362J0D01*
G01*
X359938Y434741D02*
G03*
X358268Y435433I-1670J-1670D01*
G01*
X359938Y434741D02*
G03*
X358268Y435433I-1670J-1670D01*
G01*
X383560Y289668D02*
G03*
X384252Y291339I-1670J1670D01*
G01*
X383560Y289668D02*
G03*
X384252Y291339I-1670J1670D01*
G01*
X358268Y265354D02*
G03*
X359938Y266046I0J2362D01*
G01*
X358268Y265354D02*
G03*
X359938Y266046I0J2362D01*
G01*
X240158Y435433D02*
G03*
X238487Y434741I0J-2362D01*
G01*
X240158Y435433D02*
G03*
X238487Y434741I0J-2362D01*
G01*
X214865Y411119D02*
G03*
X214173Y409449I1670J-1670D01*
G01*
X214865Y411119D02*
G03*
X214173Y409449I1670J-1670D01*
G01*
X238487Y266046D02*
G03*
X240158Y265354I1670J1670D01*
G01*
X214173Y291339D02*
G03*
X214865Y289668I2362J0D01*
G01*
X214173Y291339D02*
G03*
X214865Y289668I2362J0D01*
G01*
X238487Y266046D02*
G03*
X240158Y265354I1670J1670D01*
G01*
X358268D01*
X214865Y289668D02*
X238487Y266046D01*
X214173Y291339D02*
Y409449D01*
X359938Y434741D02*
X383560Y411119D01*
X384252Y291339D02*
Y409449D01*
X359938Y266046D02*
X383560Y289668D01*
X240158Y435433D02*
X358268D01*
X214865Y411119D02*
X238487Y434741D01*
M02*
