G04*
G04 #@! TF.GenerationSoftware,Altium Limited,CircuitMaker,2.0.3 (51)*
G04*
G04 Layer_Color=7318015*
%FSLAX44Y44*%
%MOMM*%
G71*
G04*
G04 #@! TF.SameCoordinates,D4A38A5E-2F16-4C20-B6B8-75F02E13E01D*
G04*
G04*
G04 #@! TF.FilePolarity,Positive*
G04*
G01*
G75*
%ADD15R,0.6000X1.6000*%
%ADD16R,0.7000X1.5000*%
%ADD17R,2.9718X1.0160*%
%ADD18R,3.1500X3.1500*%
%ADD19O,0.3000X1.1500*%
%ADD20O,1.1500X0.3000*%
%ADD21R,1.4000X1.5000*%
%ADD22R,0.5000X0.4500*%
%ADD23R,0.6500X0.6500*%
%ADD24R,1.2000X1.6000*%
%ADD25R,1.5000X1.4000*%
%ADD26R,0.6500X0.6500*%
G04:AMPARAMS|DCode=27|XSize=1.8mm|YSize=1.3mm|CornerRadius=0.13mm|HoleSize=0mm|Usage=FLASHONLY|Rotation=270.000|XOffset=0mm|YOffset=0mm|HoleType=Round|Shape=RoundedRectangle|*
%AMROUNDEDRECTD27*
21,1,1.8000,1.0400,0,0,270.0*
21,1,1.5400,1.3000,0,0,270.0*
1,1,0.2600,-0.5200,-0.7700*
1,1,0.2600,-0.5200,0.7700*
1,1,0.2600,0.5200,0.7700*
1,1,0.2600,0.5200,-0.7700*
%
%ADD27ROUNDEDRECTD27*%
%ADD28R,1.0000X0.6000*%
%ADD29R,1.6000X1.2000*%
%ADD30R,1.1000X1.3500*%
%ADD31R,1.0000X0.9000*%
%ADD32R,1.3000X0.9000*%
%ADD33R,0.4500X0.5000*%
%ADD34R,1.3500X1.1000*%
D15*
X665000Y1033500D02*
D03*
X635000D02*
D03*
D16*
X650000Y1033000D02*
D03*
D17*
X845935Y1030000D02*
D03*
X894065D02*
D03*
D18*
X770000Y900000D02*
D03*
D19*
X755000Y924000D02*
D03*
X760000D02*
D03*
X765000D02*
D03*
X770000D02*
D03*
X775000D02*
D03*
X780000D02*
D03*
X785000D02*
D03*
Y876000D02*
D03*
X780000D02*
D03*
X775000D02*
D03*
X770000D02*
D03*
X765000D02*
D03*
X760000D02*
D03*
X755000D02*
D03*
D20*
X794000Y915000D02*
D03*
Y910000D02*
D03*
Y905000D02*
D03*
Y900000D02*
D03*
Y895000D02*
D03*
Y890000D02*
D03*
Y885000D02*
D03*
X746000D02*
D03*
Y890000D02*
D03*
Y895000D02*
D03*
Y900000D02*
D03*
Y905000D02*
D03*
Y910000D02*
D03*
Y915000D02*
D03*
D21*
X596660Y756158D02*
D03*
X566660D02*
D03*
X596660Y944880D02*
D03*
X566660D02*
D03*
X596406Y815086D02*
D03*
X566406D02*
D03*
X596660Y878840D02*
D03*
X566660D02*
D03*
D22*
X713800Y915162D02*
D03*
X721300D02*
D03*
D23*
X620776Y771478D02*
D03*
Y781478D02*
D03*
X606552Y834470D02*
D03*
Y844470D02*
D03*
X602234Y898986D02*
D03*
Y908986D02*
D03*
X611124Y1035224D02*
D03*
Y1025224D02*
D03*
D24*
X632000Y850000D02*
D03*
X668000D02*
D03*
Y890000D02*
D03*
X632000D02*
D03*
X888000Y860000D02*
D03*
X852000D02*
D03*
D25*
X586232Y1034048D02*
D03*
Y1004048D02*
D03*
D26*
X624492Y962914D02*
D03*
X634492D02*
D03*
D27*
X696000Y1010000D02*
D03*
X724000D02*
D03*
D28*
X760000Y1000000D02*
D03*
Y970000D02*
D03*
X820000Y980000D02*
D03*
Y950000D02*
D03*
D29*
X900000Y934000D02*
D03*
Y970000D02*
D03*
D30*
X857000Y920000D02*
D03*
X843000D02*
D03*
D31*
X740000Y793500D02*
D03*
Y806500D02*
D03*
D32*
Y767750D02*
D03*
Y752250D02*
D03*
D33*
X780034Y844236D02*
D03*
Y836736D02*
D03*
D34*
X670000Y797000D02*
D03*
Y783000D02*
D03*
M02*
