G04*
G04 #@! TF.GenerationSoftware,Altium Limited,CircuitMaker,2.0.3 (2.0.3.51)*
G04*
G04 Layer_Color=20142*
%FSLAX44Y44*%
%MOMM*%
G71*
G04*
G04 #@! TF.SameCoordinates,C755FB8A-FCE8-4539-82F2-BEB76C1F17A2*
G04*
G04*
G04 #@! TF.FilePolarity,Negative*
G04*
G01*
G75*
%ADD35R,0.8032X0.8532*%
%ADD36R,0.8032X1.8032*%
%ADD37R,0.9032X1.7032*%
%ADD38R,1.2032X1.1032*%
%ADD39R,1.1032X1.2032*%
%ADD40R,3.1750X1.2192*%
%ADD41R,3.2520X3.2520*%
%ADD42O,0.4020X1.2520*%
%ADD43O,1.2520X0.4020*%
%ADD44R,1.6032X1.7032*%
%ADD45R,0.7032X0.6532*%
%ADD46R,1.4032X1.8032*%
%ADD47R,1.7032X1.6032*%
G04:AMPARAMS|DCode=48|XSize=2.0032mm|YSize=1.5032mm|CornerRadius=0.2316mm|HoleSize=0mm|Usage=FLASHONLY|Rotation=270.000|XOffset=0mm|YOffset=0mm|HoleType=Round|Shape=RoundedRectangle|*
%AMROUNDEDRECTD48*
21,1,2.0032,1.0400,0,0,270.0*
21,1,1.5400,1.5032,0,0,270.0*
1,1,0.4632,-0.5200,-0.7700*
1,1,0.4632,-0.5200,0.7700*
1,1,0.4632,0.5200,0.7700*
1,1,0.4632,0.5200,-0.7700*
%
%ADD48ROUNDEDRECTD48*%
%ADD49R,1.8032X1.4032*%
%ADD50R,1.3032X1.5532*%
%ADD51R,1.5032X1.1032*%
%ADD52R,0.6532X0.7032*%
%ADD53R,1.5532X1.3032*%
G04:AMPARAMS|DCode=54|XSize=3.3782mm|YSize=1.9812mm|CornerRadius=0.5461mm|HoleSize=0mm|Usage=FLASHONLY|Rotation=0.000|XOffset=0mm|YOffset=0mm|HoleType=Round|Shape=RoundedRectangle|*
%AMROUNDEDRECTD54*
21,1,3.3782,0.8890,0,0,0.0*
21,1,2.2860,1.9812,0,0,0.0*
1,1,1.0922,1.1430,-0.4445*
1,1,1.0922,-1.1430,-0.4445*
1,1,1.0922,-1.1430,0.4445*
1,1,1.0922,1.1430,0.4445*
%
%ADD54ROUNDEDRECTD54*%
%ADD55C,2.7032*%
%ADD56C,4.0132*%
%ADD57C,0.7532*%
%ADD58C,0.8382*%
%ADD59C,1.4732*%
D35*
X789940Y784538D02*
D03*
Y776038D02*
D03*
D36*
X636764Y1054618D02*
D03*
X666764D02*
D03*
D37*
X651764Y1054118D02*
D03*
D38*
X620776Y769978D02*
D03*
Y782978D02*
D03*
X606552Y832970D02*
D03*
Y845970D02*
D03*
X602234Y897486D02*
D03*
Y910486D02*
D03*
X611124Y1036724D02*
D03*
Y1023724D02*
D03*
X740000Y793500D02*
D03*
Y806500D02*
D03*
D39*
X622992Y962914D02*
D03*
X635992D02*
D03*
D40*
X845935Y1030000D02*
D03*
X894065D02*
D03*
D41*
X770000Y900000D02*
D03*
D42*
X755000Y924000D02*
D03*
X760000D02*
D03*
X765000D02*
D03*
X770000D02*
D03*
X775000D02*
D03*
X780000D02*
D03*
X785000D02*
D03*
Y876000D02*
D03*
X780000D02*
D03*
X775000D02*
D03*
X770000D02*
D03*
X765000D02*
D03*
X760000D02*
D03*
X755000D02*
D03*
D43*
X794000Y915000D02*
D03*
Y910000D02*
D03*
Y905000D02*
D03*
Y900000D02*
D03*
Y895000D02*
D03*
Y890000D02*
D03*
Y885000D02*
D03*
X746000D02*
D03*
Y890000D02*
D03*
Y895000D02*
D03*
Y900000D02*
D03*
Y905000D02*
D03*
Y910000D02*
D03*
Y915000D02*
D03*
D44*
X596660Y756158D02*
D03*
X566660D02*
D03*
X596660Y944880D02*
D03*
X566660D02*
D03*
X596406Y815086D02*
D03*
X566406D02*
D03*
X596660Y878840D02*
D03*
X566660D02*
D03*
D45*
X713800Y915162D02*
D03*
X721300D02*
D03*
D46*
X632000Y850000D02*
D03*
X668000D02*
D03*
Y890000D02*
D03*
X632000D02*
D03*
X888000Y860000D02*
D03*
X852000D02*
D03*
D47*
X586232Y1034048D02*
D03*
Y1004048D02*
D03*
D48*
X696000Y1010000D02*
D03*
X724000D02*
D03*
D49*
X900000Y934000D02*
D03*
Y970000D02*
D03*
D50*
X857000Y920000D02*
D03*
X843000D02*
D03*
D51*
X740000Y767750D02*
D03*
Y752250D02*
D03*
D52*
X780034Y844236D02*
D03*
Y836736D02*
D03*
D53*
X670000Y797000D02*
D03*
Y783000D02*
D03*
D54*
X575000Y975000D02*
D03*
Y845000D02*
D03*
X575056Y782066D02*
D03*
X943528Y860000D02*
D03*
Y910000D02*
D03*
X575000D02*
D03*
D55*
X920000Y1060000D02*
D03*
X600000Y720000D02*
D03*
Y1060000D02*
D03*
X920000Y720000D02*
D03*
D56*
X722122Y1069848D02*
D03*
X790000Y1070000D02*
D03*
D57*
X781000Y889000D02*
D03*
X770000D02*
D03*
X759000D02*
D03*
X781000Y900000D02*
D03*
X770000D02*
D03*
X759000D02*
D03*
X781000Y911000D02*
D03*
X770000D02*
D03*
X759000D02*
D03*
D58*
X697738Y899160D02*
D03*
D59*
X875792Y894588D02*
D03*
X805942Y858266D02*
D03*
X823468Y926846D02*
D03*
X653542Y941832D02*
D03*
X924814Y932942D02*
D03*
X634492Y1005840D02*
D03*
X832866Y891540D02*
D03*
X790194Y819658D02*
D03*
M02*
