G04*
G04 #@! TF.GenerationSoftware,Altium Limited,CircuitMaker,2.0.3 (2.0.3.51)*
G04*
G04 Layer_Color=128*
%FSLAX44Y44*%
%MOMM*%
G71*
G04*
G04 #@! TF.SameCoordinates,C755FB8A-FCE8-4539-82F2-BEB76C1F17A2*
G04*
G04*
G04 #@! TF.FilePolarity,Positive*
G04*
G01*
G75*
%ADD68C,0.0508*%
D68*
X907500Y1060000D02*
X932500D01*
X920000Y1047500D02*
Y1072500D01*
X713232Y1069848D02*
X731012D01*
X722122Y1060958D02*
Y1078738D01*
X587500Y720000D02*
X612500D01*
X600000Y707500D02*
Y732500D01*
X587500Y1060000D02*
X612500D01*
X600000Y1047500D02*
Y1072500D01*
X907500Y720000D02*
X932500D01*
X920000Y707500D02*
Y732500D01*
X779500Y889000D02*
X782500D01*
X781000Y887500D02*
Y890500D01*
X768500Y889000D02*
X771500D01*
X770000Y887500D02*
Y890500D01*
X757500Y889000D02*
X760500D01*
X759000Y887500D02*
Y890500D01*
X779500Y900000D02*
X782500D01*
X781000Y898500D02*
Y901500D01*
X768500Y900000D02*
X771500D01*
X770000Y898500D02*
Y901500D01*
X757500Y900000D02*
X760500D01*
X759000Y898500D02*
Y901500D01*
X779500Y911000D02*
X782500D01*
X781000Y909500D02*
Y912500D01*
X768500Y911000D02*
X771500D01*
X770000Y909500D02*
Y912500D01*
X757500Y911000D02*
X760500D01*
X759000Y909500D02*
Y912500D01*
X696468Y899160D02*
X699008D01*
X697738Y897890D02*
Y900430D01*
X872236Y894588D02*
X879348D01*
X875792Y891032D02*
Y898144D01*
X802386Y858266D02*
X809498D01*
X805942Y854710D02*
Y861822D01*
X819912Y926846D02*
X827024D01*
X823468Y923290D02*
Y930402D01*
X649986Y941832D02*
X657098D01*
X653542Y938276D02*
Y945388D01*
X921258Y932942D02*
X928370D01*
X924814Y929386D02*
Y936498D01*
X630936Y1005840D02*
X638048D01*
X634492Y1002284D02*
Y1009396D01*
X829310Y891540D02*
X836422D01*
X832866Y887984D02*
Y895096D01*
X786638Y819658D02*
X793750D01*
X790194Y816102D02*
Y823214D01*
X781110Y1070000D02*
X798890D01*
X790000Y1061110D02*
Y1078890D01*
M02*
