G04*
G04 #@! TF.GenerationSoftware,Altium Limited,CircuitMaker,2.0.3 (2.0.3.51)*
G04*
G04 Layer_Color=2752767*
%FSLAX44Y44*%
%MOMM*%
G71*
G04*
G04 #@! TF.SameCoordinates,C755FB8A-FCE8-4539-82F2-BEB76C1F17A2*
G04*
G04*
G04 #@! TF.FilePolarity,Positive*
G04*
G01*
G75*
%ADD68C,0.0508*%
%ADD69C,0.0677*%
D68*
X917968Y1057968D02*
Y1062032D01*
X922032D01*
Y1057968D01*
X917968D01*
X597968Y717968D02*
Y722032D01*
X602032D01*
Y717968D01*
X597968D01*
Y1057968D02*
Y1062032D01*
X602032D01*
Y1057968D01*
X597968D01*
X917968Y717968D02*
Y722032D01*
X922032D01*
Y717968D01*
X917968D01*
X781000Y886968D02*
X778968Y891032D01*
X783032D01*
X781000Y886968D01*
X770000D02*
X767968Y891032D01*
X772032D01*
X770000Y886968D01*
X759000D02*
X756968Y891032D01*
X761032D01*
X759000Y886968D01*
X781000Y897968D02*
X778968Y902032D01*
X783032D01*
X781000Y897968D01*
X770000D02*
X767968Y902032D01*
X772032D01*
X770000Y897968D01*
X759000D02*
X756968Y902032D01*
X761032D01*
X759000Y897968D01*
X781000Y908968D02*
X778968Y913032D01*
X783032D01*
X781000Y908968D01*
X770000D02*
X767968Y913032D01*
X772032D01*
X770000Y908968D01*
X759000D02*
X756968Y913032D01*
X761032D01*
X759000Y908968D01*
X697738Y897128D02*
X698754Y898144D01*
X699770D01*
X698754Y899160D01*
X699770Y900176D01*
X698754D01*
X697738Y901192D01*
X696722Y900176D01*
X695706D01*
X696722Y899160D01*
X695706Y898144D01*
X696722D01*
X697738Y897128D01*
X873760Y892556D02*
X874776Y894588D01*
X873760Y896620D01*
X875792Y895604D01*
X877824Y896620D01*
X876808Y894588D01*
X877824Y892556D01*
X875792Y893572D01*
X873760Y892556D01*
X803910Y856234D02*
X804926Y858266D01*
X803910Y860298D01*
X805942Y859282D01*
X807974Y860298D01*
X806958Y858266D01*
X807974Y856234D01*
X805942Y857250D01*
X803910Y856234D01*
X821436Y924814D02*
X822452Y926846D01*
X821436Y928878D01*
X823468Y927862D01*
X825500Y928878D01*
X824484Y926846D01*
X825500Y924814D01*
X823468Y925830D01*
X821436Y924814D01*
X651510Y939800D02*
X652526Y941832D01*
X651510Y943864D01*
X653542Y942848D01*
X655574Y943864D01*
X654558Y941832D01*
X655574Y939800D01*
X653542Y940816D01*
X651510Y939800D01*
X922782Y930910D02*
X923798Y932942D01*
X922782Y934974D01*
X924814Y933958D01*
X926846Y934974D01*
X925830Y932942D01*
X926846Y930910D01*
X924814Y931926D01*
X922782Y930910D01*
X632460Y1003808D02*
X633476Y1005840D01*
X632460Y1007872D01*
X634492Y1006856D01*
X636524Y1007872D01*
X635508Y1005840D01*
X636524Y1003808D01*
X634492Y1004824D01*
X632460Y1003808D01*
X830834Y889508D02*
X831850Y891540D01*
X830834Y893572D01*
X832866Y892556D01*
X834898Y893572D01*
X833882Y891540D01*
X834898Y889508D01*
X832866Y890524D01*
X830834Y889508D01*
X788162Y817626D02*
X789178Y819658D01*
X788162Y821690D01*
X790194Y820674D01*
X792226Y821690D01*
X791210Y819658D01*
X792226Y817626D01*
X790194Y818642D01*
X788162Y817626D01*
D69*
X724154Y1069848D02*
G03*
X724154Y1069848I-2032J0D01*
G01*
X792032Y1070000D02*
G03*
X792032Y1070000I-2032J0D01*
G01*
M02*
