G04*
G04 #@! TF.GenerationSoftware,Altium Limited,CircuitMaker,2.0.3 (2.0.3.51)*
G04*
G04 Layer_Physical_Order=2*
G04 Layer_Color=11436288*
%FSLAX44Y44*%
%MOMM*%
G71*
G04*
G04 #@! TF.SameCoordinates,C755FB8A-FCE8-4539-82F2-BEB76C1F17A2*
G04*
G04*
G04 #@! TF.FilePolarity,Positive*
G04*
G01*
G75*
%ADD13C,0.2540*%
G04:AMPARAMS|DCode=61|XSize=3.175mm|YSize=1.778mm|CornerRadius=0.4445mm|HoleSize=0mm|Usage=FLASHONLY|Rotation=0.000|XOffset=0mm|YOffset=0mm|HoleType=Round|Shape=RoundedRectangle|*
%AMROUNDEDRECTD61*
21,1,3.1750,0.8890,0,0,0.0*
21,1,2.2860,1.7780,0,0,0.0*
1,1,0.8890,1.1430,-0.4445*
1,1,0.8890,-1.1430,-0.4445*
1,1,0.8890,-1.1430,0.4445*
1,1,0.8890,1.1430,0.4445*
%
%ADD61ROUNDEDRECTD61*%
%ADD62C,2.5000*%
%ADD63C,3.8100*%
%ADD64C,0.5500*%
%ADD65C,0.6350*%
%ADD66C,1.2700*%
G36*
X970026Y1039368D02*
X970280D01*
Y740410D01*
X910082Y680212D01*
X609092D01*
X549656Y740664D01*
Y1040384D01*
X609600Y1100328D01*
X909066D01*
X970026Y1039368D01*
D02*
G37*
%LPC*%
G36*
X792126Y1091590D02*
X791270D01*
Y1071270D01*
X811590D01*
Y1072126D01*
X810760Y1076298D01*
X809133Y1080227D01*
X806770Y1083763D01*
X803763Y1086770D01*
X800227Y1089133D01*
X796298Y1090760D01*
X792126Y1091590D01*
D02*
G37*
G36*
X788730D02*
X787874D01*
X783702Y1090760D01*
X779773Y1089133D01*
X776237Y1086770D01*
X773230Y1083763D01*
X770867Y1080227D01*
X769240Y1076298D01*
X768410Y1072126D01*
Y1071270D01*
X788730D01*
Y1091590D01*
D02*
G37*
G36*
X921481Y1075040D02*
X921270D01*
Y1061270D01*
X935040D01*
Y1061481D01*
X934462Y1064387D01*
X933328Y1067124D01*
X931682Y1069587D01*
X929587Y1071682D01*
X927124Y1073328D01*
X924387Y1074462D01*
X921481Y1075040D01*
D02*
G37*
G36*
X918730D02*
X918519D01*
X915613Y1074462D01*
X912876Y1073328D01*
X910413Y1071682D01*
X908318Y1069587D01*
X906672Y1067124D01*
X905538Y1064387D01*
X904960Y1061481D01*
Y1061270D01*
X918730D01*
Y1075040D01*
D02*
G37*
G36*
X601481D02*
X601270D01*
Y1061270D01*
X615040D01*
Y1061481D01*
X614462Y1064387D01*
X613328Y1067124D01*
X611682Y1069587D01*
X609587Y1071682D01*
X607124Y1073328D01*
X604387Y1074462D01*
X601481Y1075040D01*
D02*
G37*
G36*
X598730D02*
X598519D01*
X595613Y1074462D01*
X592876Y1073328D01*
X590413Y1071682D01*
X588318Y1069587D01*
X586672Y1067124D01*
X585538Y1064387D01*
X584960Y1061481D01*
Y1061270D01*
X598730D01*
Y1075040D01*
D02*
G37*
G36*
X811590Y1068730D02*
X791270D01*
Y1048410D01*
X792126D01*
X796298Y1049240D01*
X800227Y1050867D01*
X803763Y1053230D01*
X806770Y1056237D01*
X809133Y1059773D01*
X810760Y1063702D01*
X811590Y1067874D01*
Y1068730D01*
D02*
G37*
G36*
X788730D02*
X768410D01*
Y1067874D01*
X769240Y1063702D01*
X770867Y1059773D01*
X773230Y1056237D01*
X776237Y1053230D01*
X779773Y1050867D01*
X783702Y1049240D01*
X787874Y1048410D01*
X788730D01*
Y1068730D01*
D02*
G37*
G36*
X724248Y1091438D02*
X719996D01*
X715824Y1090608D01*
X711895Y1088981D01*
X708359Y1086618D01*
X705352Y1083611D01*
X702989Y1080075D01*
X701362Y1076146D01*
X700532Y1071974D01*
Y1067722D01*
X701362Y1063550D01*
X702989Y1059621D01*
X705352Y1056085D01*
X708359Y1053078D01*
X711895Y1050715D01*
X715824Y1049088D01*
X719996Y1048258D01*
X724248D01*
X728420Y1049088D01*
X732349Y1050715D01*
X735885Y1053078D01*
X738892Y1056085D01*
X741255Y1059621D01*
X742882Y1063550D01*
X743712Y1067722D01*
Y1071974D01*
X742882Y1076146D01*
X741255Y1080075D01*
X738892Y1083611D01*
X735885Y1086618D01*
X732349Y1088981D01*
X728420Y1090608D01*
X724248Y1091438D01*
D02*
G37*
G36*
X935040Y1058730D02*
X921270D01*
Y1044960D01*
X921481D01*
X924387Y1045538D01*
X927124Y1046672D01*
X929587Y1048318D01*
X931682Y1050413D01*
X933328Y1052876D01*
X934462Y1055613D01*
X935040Y1058519D01*
Y1058730D01*
D02*
G37*
G36*
X918730D02*
X904960D01*
Y1058519D01*
X905538Y1055613D01*
X906672Y1052876D01*
X908318Y1050413D01*
X910413Y1048318D01*
X912876Y1046672D01*
X915613Y1045538D01*
X918519Y1044960D01*
X918730D01*
Y1058730D01*
D02*
G37*
G36*
X615040D02*
X601270D01*
Y1044960D01*
X601481D01*
X604387Y1045538D01*
X607124Y1046672D01*
X609587Y1048318D01*
X611682Y1050413D01*
X613328Y1052876D01*
X614462Y1055613D01*
X615040Y1058519D01*
Y1058730D01*
D02*
G37*
G36*
X598730D02*
X584960D01*
Y1058519D01*
X585538Y1055613D01*
X586672Y1052876D01*
X588318Y1050413D01*
X590413Y1048318D01*
X592876Y1046672D01*
X595613Y1045538D01*
X598519Y1044960D01*
X598730D01*
Y1058730D01*
D02*
G37*
G36*
X586430Y986490D02*
X563570D01*
X561747Y986250D01*
X560047Y985546D01*
X558588Y984427D01*
X557469Y982968D01*
X556765Y981268D01*
X556525Y979445D01*
Y970555D01*
X556765Y968732D01*
X557469Y967032D01*
X558588Y965573D01*
X560047Y964454D01*
X561747Y963750D01*
X563570Y963510D01*
X586430D01*
X588253Y963750D01*
X589953Y964454D01*
X591412Y965573D01*
X592531Y967032D01*
X593235Y968732D01*
X593475Y970555D01*
Y979445D01*
X593235Y981268D01*
X592531Y982968D01*
X591412Y984427D01*
X589953Y985546D01*
X588253Y986250D01*
X586430Y986490D01*
D02*
G37*
G36*
X635662Y1014730D02*
X633322D01*
X631061Y1014124D01*
X629033Y1012954D01*
X627378Y1011299D01*
X626208Y1009271D01*
X625602Y1007010D01*
Y1004670D01*
X626208Y1002409D01*
X627378Y1000381D01*
X629033Y998726D01*
X631061Y997556D01*
X633322Y996950D01*
X635662D01*
X637418Y997420D01*
X677211Y957627D01*
X678471Y956785D01*
X679958Y956489D01*
X837363D01*
Y915900D01*
X819959Y898495D01*
X819117Y897235D01*
X818821Y895748D01*
Y876639D01*
X808868Y866686D01*
X807112Y867156D01*
X804772D01*
X802511Y866550D01*
X800483Y865380D01*
X798828Y863725D01*
X797658Y861697D01*
X797052Y859436D01*
Y857096D01*
X797658Y854835D01*
X798828Y852807D01*
X800483Y851152D01*
X802511Y849982D01*
X804772Y849376D01*
X807112D01*
X809373Y849982D01*
X811401Y851152D01*
X813056Y852807D01*
X814226Y854835D01*
X814832Y857096D01*
Y859436D01*
X814362Y861192D01*
X825453Y872283D01*
X826295Y873543D01*
X826591Y875030D01*
Y883563D01*
X827861Y884165D01*
X828981Y883518D01*
Y863939D01*
X793120Y828078D01*
X791364Y828548D01*
X789024D01*
X786763Y827942D01*
X784735Y826772D01*
X783080Y825117D01*
X781910Y823089D01*
X781304Y820828D01*
Y818488D01*
X781910Y816227D01*
X783080Y814199D01*
X784405Y812875D01*
X783938Y811605D01*
X713889D01*
X701623Y823871D01*
Y894962D01*
X702583Y895923D01*
X703398Y897890D01*
X692078D01*
X692893Y895923D01*
X693853Y894962D01*
Y822262D01*
X694149Y820775D01*
X694991Y819515D01*
X709533Y804973D01*
X710793Y804131D01*
X712280Y803835D01*
X799084D01*
X800571Y804131D01*
X801831Y804973D01*
X806662Y809804D01*
X862203D01*
X863690Y810100D01*
X864950Y810942D01*
X878539Y824531D01*
X879381Y825791D01*
X879677Y827278D01*
Y886565D01*
X881251Y887474D01*
X882906Y889129D01*
X884076Y891157D01*
X884655Y893318D01*
X866929D01*
X867508Y891157D01*
X868678Y889129D01*
X870333Y887474D01*
X871907Y886565D01*
Y828887D01*
X860594Y817574D01*
X805053D01*
X803566Y817278D01*
X802306Y816436D01*
X797631Y811761D01*
X796648Y811880D01*
X796210Y813102D01*
X797308Y814199D01*
X798478Y816227D01*
X799084Y818488D01*
Y820828D01*
X798614Y822584D01*
X835613Y859583D01*
X836455Y860843D01*
X836751Y862330D01*
Y883518D01*
X838325Y884426D01*
X839980Y886081D01*
X841150Y888109D01*
X841756Y890370D01*
Y892710D01*
X841150Y894971D01*
X839980Y896999D01*
X838325Y898654D01*
X836297Y899824D01*
X834542Y900294D01*
X834069Y901618D01*
X843995Y911544D01*
X844837Y912804D01*
X845133Y914290D01*
Y956489D01*
X895773D01*
X916394Y935868D01*
X915924Y934112D01*
Y931772D01*
X916530Y929511D01*
X917700Y927483D01*
X919355Y925828D01*
X921383Y924658D01*
X923644Y924052D01*
X925984D01*
X928245Y924658D01*
X930273Y925828D01*
X931928Y927483D01*
X933098Y929511D01*
X933704Y931772D01*
Y934112D01*
X933098Y936373D01*
X931928Y938401D01*
X930273Y940056D01*
X928245Y941226D01*
X925984Y941832D01*
X923644D01*
X921888Y941362D01*
X900129Y963121D01*
X898869Y963963D01*
X897382Y964259D01*
X681567D01*
X642912Y1002914D01*
X643382Y1004670D01*
Y1007010D01*
X642776Y1009271D01*
X641606Y1011299D01*
X639951Y1012954D01*
X637923Y1014124D01*
X635662Y1014730D01*
D02*
G37*
G36*
X654712Y950722D02*
X652372D01*
X650111Y950116D01*
X648083Y948946D01*
X646428Y947291D01*
X645258Y945263D01*
X644652Y943002D01*
Y940662D01*
X645258Y938401D01*
X646428Y936373D01*
X648083Y934718D01*
X650111Y933548D01*
X652372Y932942D01*
X654712D01*
X656973Y933548D01*
X659001Y934718D01*
X660656Y936373D01*
X661564Y937947D01*
X806873D01*
X815048Y929772D01*
X814578Y928016D01*
Y925676D01*
X815184Y923415D01*
X816354Y921387D01*
X818009Y919732D01*
X820037Y918562D01*
X822298Y917956D01*
X824638D01*
X826899Y918562D01*
X828927Y919732D01*
X830582Y921387D01*
X831752Y923415D01*
X832358Y925676D01*
Y928016D01*
X831752Y930277D01*
X830582Y932305D01*
X828927Y933960D01*
X826899Y935130D01*
X824638Y935736D01*
X822298D01*
X820542Y935266D01*
X811229Y944579D01*
X809969Y945421D01*
X808482Y945717D01*
X661564D01*
X660656Y947291D01*
X659001Y948946D01*
X656973Y950116D01*
X654712Y950722D01*
D02*
G37*
G36*
X782052Y916290D02*
X779948D01*
X778003Y915485D01*
X776515Y913997D01*
X776187Y913205D01*
X774813D01*
X774485Y913997D01*
X772997Y915485D01*
X771052Y916290D01*
X768948D01*
X767003Y915485D01*
X765515Y913997D01*
X765187Y913205D01*
X763813D01*
X763485Y913997D01*
X761997Y915485D01*
X760052Y916290D01*
X757948D01*
X756003Y915485D01*
X754515Y913997D01*
X753710Y912052D01*
Y909948D01*
X754515Y908003D01*
X756003Y906515D01*
X756795Y906187D01*
Y904813D01*
X756003Y904485D01*
X754515Y902997D01*
X753710Y901052D01*
Y898948D01*
X754515Y897003D01*
X756003Y895515D01*
X756795Y895187D01*
Y893813D01*
X756003Y893485D01*
X754515Y891997D01*
X753710Y890052D01*
Y887948D01*
X754515Y886003D01*
X756003Y884515D01*
X757948Y883710D01*
X760052D01*
X761997Y884515D01*
X763485Y886003D01*
X763813Y886795D01*
X765187D01*
X765515Y886003D01*
X767003Y884515D01*
X768948Y883710D01*
X771052D01*
X772997Y884515D01*
X774485Y886003D01*
X774813Y886795D01*
X776187D01*
X776515Y886003D01*
X778003Y884515D01*
X779948Y883710D01*
X782052D01*
X783997Y884515D01*
X785485Y886003D01*
X786290Y887948D01*
Y890052D01*
X785485Y891997D01*
X783997Y893485D01*
X783205Y893813D01*
Y895187D01*
X783997Y895515D01*
X785485Y897003D01*
X786290Y898948D01*
Y901052D01*
X785485Y902997D01*
X783997Y904485D01*
X783205Y904813D01*
Y906187D01*
X783997Y906515D01*
X785485Y908003D01*
X786290Y909948D01*
Y912052D01*
X785485Y913997D01*
X783997Y915485D01*
X782052Y916290D01*
D02*
G37*
G36*
X699008Y904820D02*
Y900430D01*
X703398D01*
X702583Y902397D01*
X700975Y904005D01*
X699008Y904820D01*
D02*
G37*
G36*
X696468D02*
X694501Y904005D01*
X692893Y902397D01*
X692078Y900430D01*
X696468D01*
Y904820D01*
D02*
G37*
G36*
X954958Y921490D02*
X932098D01*
X930275Y921250D01*
X928575Y920546D01*
X927116Y919427D01*
X925997Y917968D01*
X925293Y916268D01*
X925053Y914445D01*
Y905555D01*
X925293Y903732D01*
X925997Y902032D01*
X927116Y900573D01*
X928575Y899454D01*
X930275Y898750D01*
X932098Y898510D01*
X954958D01*
X956781Y898750D01*
X958481Y899454D01*
X959940Y900573D01*
X961059Y902032D01*
X961763Y903732D01*
X962003Y905555D01*
Y914445D01*
X961763Y916268D01*
X961059Y917968D01*
X959940Y919427D01*
X958481Y920546D01*
X956781Y921250D01*
X954958Y921490D01*
D02*
G37*
G36*
X586430D02*
X563570D01*
X561747Y921250D01*
X560047Y920546D01*
X558588Y919427D01*
X557469Y917968D01*
X556765Y916268D01*
X556525Y914445D01*
Y905555D01*
X556765Y903732D01*
X557469Y902032D01*
X558588Y900573D01*
X560047Y899454D01*
X561747Y898750D01*
X563570Y898510D01*
X586430D01*
X588253Y898750D01*
X589953Y899454D01*
X591412Y900573D01*
X592531Y902032D01*
X593235Y903732D01*
X593475Y905555D01*
Y914445D01*
X593235Y916268D01*
X592531Y917968D01*
X591412Y919427D01*
X589953Y920546D01*
X588253Y921250D01*
X586430Y921490D01*
D02*
G37*
G36*
X877062Y903451D02*
Y895858D01*
X884655D01*
X884076Y898019D01*
X882906Y900047D01*
X881251Y901702D01*
X879223Y902872D01*
X877062Y903451D01*
D02*
G37*
G36*
X874522D02*
X872361Y902872D01*
X870333Y901702D01*
X868678Y900047D01*
X867508Y898019D01*
X866929Y895858D01*
X874522D01*
Y903451D01*
D02*
G37*
G36*
X954958Y871490D02*
X932098D01*
X930275Y871250D01*
X928575Y870546D01*
X927116Y869427D01*
X925997Y867968D01*
X925293Y866268D01*
X925053Y864445D01*
Y855555D01*
X925293Y853732D01*
X925997Y852032D01*
X927116Y850573D01*
X928575Y849454D01*
X930275Y848750D01*
X932098Y848510D01*
X954958D01*
X956781Y848750D01*
X958481Y849454D01*
X959940Y850573D01*
X961059Y852032D01*
X961763Y853732D01*
X962003Y855555D01*
Y864445D01*
X961763Y866268D01*
X961059Y867968D01*
X959940Y869427D01*
X958481Y870546D01*
X956781Y871250D01*
X954958Y871490D01*
D02*
G37*
G36*
X586430Y856490D02*
X563570D01*
X561747Y856250D01*
X560047Y855546D01*
X558588Y854427D01*
X557469Y852968D01*
X556765Y851268D01*
X556525Y849445D01*
Y840555D01*
X556765Y838732D01*
X557469Y837032D01*
X558588Y835573D01*
X560047Y834454D01*
X561747Y833750D01*
X563570Y833510D01*
X586430D01*
X588253Y833750D01*
X589953Y834454D01*
X591412Y835573D01*
X592531Y837032D01*
X593235Y838732D01*
X593475Y840555D01*
Y849445D01*
X593235Y851268D01*
X592531Y852968D01*
X591412Y854427D01*
X589953Y855546D01*
X588253Y856250D01*
X586430Y856490D01*
D02*
G37*
G36*
X586486Y793556D02*
X563626D01*
X561803Y793316D01*
X560103Y792612D01*
X558644Y791493D01*
X557525Y790034D01*
X556821Y788334D01*
X556581Y786511D01*
Y777621D01*
X556821Y775798D01*
X557525Y774098D01*
X558644Y772639D01*
X560103Y771520D01*
X561803Y770816D01*
X563626Y770576D01*
X586486D01*
X588309Y770816D01*
X590009Y771520D01*
X591468Y772639D01*
X592587Y774098D01*
X593291Y775798D01*
X593531Y777621D01*
Y786511D01*
X593291Y788334D01*
X592587Y790034D01*
X591468Y791493D01*
X590009Y792612D01*
X588309Y793316D01*
X586486Y793556D01*
D02*
G37*
G36*
X921481Y735040D02*
X921270D01*
Y721270D01*
X935040D01*
Y721481D01*
X934462Y724387D01*
X933328Y727124D01*
X931682Y729587D01*
X929587Y731682D01*
X927124Y733328D01*
X924387Y734462D01*
X921481Y735040D01*
D02*
G37*
G36*
X918730D02*
X918519D01*
X915613Y734462D01*
X912876Y733328D01*
X910413Y731682D01*
X908318Y729587D01*
X906672Y727124D01*
X905538Y724387D01*
X904960Y721481D01*
Y721270D01*
X918730D01*
Y735040D01*
D02*
G37*
G36*
X601481D02*
X601270D01*
Y721270D01*
X615040D01*
Y721481D01*
X614462Y724387D01*
X613328Y727124D01*
X611682Y729587D01*
X609587Y731682D01*
X607124Y733328D01*
X604387Y734462D01*
X601481Y735040D01*
D02*
G37*
G36*
X598730D02*
X598519D01*
X595613Y734462D01*
X592876Y733328D01*
X590413Y731682D01*
X588318Y729587D01*
X586672Y727124D01*
X585538Y724387D01*
X584960Y721481D01*
Y721270D01*
X598730D01*
Y735040D01*
D02*
G37*
G36*
X935040Y718730D02*
X921270D01*
Y704960D01*
X921481D01*
X924387Y705538D01*
X927124Y706672D01*
X929587Y708318D01*
X931682Y710413D01*
X933328Y712876D01*
X934462Y715613D01*
X935040Y718519D01*
Y718730D01*
D02*
G37*
G36*
X918730D02*
X904960D01*
Y718519D01*
X905538Y715613D01*
X906672Y712876D01*
X908318Y710413D01*
X910413Y708318D01*
X912876Y706672D01*
X915613Y705538D01*
X918519Y704960D01*
X918730D01*
Y718730D01*
D02*
G37*
G36*
X615040D02*
X601270D01*
Y704960D01*
X601481D01*
X604387Y705538D01*
X607124Y706672D01*
X609587Y708318D01*
X611682Y710413D01*
X613328Y712876D01*
X614462Y715613D01*
X615040Y718519D01*
Y718730D01*
D02*
G37*
G36*
X598730D02*
X584960D01*
Y718519D01*
X585538Y715613D01*
X586672Y712876D01*
X588318Y710413D01*
X590413Y708318D01*
X592876Y706672D01*
X595613Y705538D01*
X598519Y704960D01*
X598730D01*
Y718730D01*
D02*
G37*
%LPD*%
D13*
X862203Y813689D02*
X875792Y827278D01*
Y894588D01*
X805053Y813689D02*
X862203D01*
X712280Y807720D02*
X799084D01*
X697738Y822262D02*
X712280Y807720D01*
X697738Y822262D02*
Y899160D01*
X799084Y807720D02*
X805053Y813689D01*
X841248Y960374D02*
X897382D01*
X679958D02*
X841248D01*
Y914290D02*
Y960374D01*
X822706Y895748D02*
X841248Y914290D01*
X822706Y875030D02*
Y895748D01*
X805942Y858266D02*
X822706Y875030D01*
X808482Y941832D02*
X823468Y926846D01*
X653542Y941832D02*
X808482D01*
X897382Y960374D02*
X924814Y932942D01*
X634492Y1005840D02*
X679958Y960374D01*
X832866Y862330D02*
Y891540D01*
X790194Y819658D02*
X832866Y862330D01*
D61*
X575000Y975000D02*
D03*
Y845000D02*
D03*
X575056Y782066D02*
D03*
X943528Y860000D02*
D03*
Y910000D02*
D03*
X575000D02*
D03*
D62*
X920000Y1060000D02*
D03*
X600000Y720000D02*
D03*
Y1060000D02*
D03*
X920000Y720000D02*
D03*
D63*
X722122Y1069848D02*
D03*
X790000Y1070000D02*
D03*
D64*
X781000Y889000D02*
D03*
X770000D02*
D03*
X759000D02*
D03*
X781000Y900000D02*
D03*
X770000D02*
D03*
X759000D02*
D03*
X781000Y911000D02*
D03*
X770000D02*
D03*
X759000D02*
D03*
D65*
X697738Y899160D02*
D03*
D66*
X875792Y894588D02*
D03*
X805942Y858266D02*
D03*
X823468Y926846D02*
D03*
X653542Y941832D02*
D03*
X924814Y932942D02*
D03*
X634492Y1005840D02*
D03*
X832866Y891540D02*
D03*
X790194Y819658D02*
D03*
M02*
