G04*
G04 #@! TF.GenerationSoftware,Altium Limited,CircuitMaker,2.0.3 (2.0.3.51)*
G04*
G04 Layer_Color=15132400*
%FSLAX44Y44*%
%MOMM*%
G71*
G04*
G04 #@! TF.SameCoordinates,91AE8199-6935-4096-B88E-BAE3D630F751*
G04*
G04*
G04 #@! TF.FilePolarity,Positive*
G04*
G01*
G75*
%ADD10C,0.2032*%
%ADD11C,0.2500*%
%ADD12C,0.2000*%
%ADD13C,0.2540*%
D10*
X204204Y230132D02*
G03*
X266446Y230132I31121J6971D01*
G01*
Y243840D02*
G03*
X204204Y243840I-31121J-6473D01*
G01*
X268224Y216982D02*
Y230132D01*
Y243840D02*
Y257048D01*
X202204Y203982D02*
Y230132D01*
Y243840D02*
Y270002D01*
Y203982D02*
X252222D01*
X268224Y216982D01*
X252222Y270002D02*
X268224Y257048D01*
X202204Y270002D02*
X252222D01*
D11*
X19284Y222250D02*
G03*
X19284Y222250I-1250J0D01*
G01*
X177000Y183750D02*
G03*
X177000Y183750I-1250J0D01*
G01*
D12*
X17894Y231070D02*
Y257070D01*
X27394D01*
X63894Y231070D02*
Y257070D01*
X54394D02*
X63894D01*
X204344Y172014D02*
Y179014D01*
X220344Y172014D02*
Y179014D01*
X170500Y177250D02*
X177250D01*
Y170500D02*
Y177250D01*
Y122750D02*
Y129500D01*
X170500Y122750D02*
X177250D01*
X122750D02*
X129500D01*
X122750D02*
Y129500D01*
Y177250D02*
X129500D01*
X122750Y170500D02*
Y177250D01*
D13*
X52304Y275117D02*
Y262422D01*
X54843Y259883D01*
X59922D01*
X62461Y262422D01*
Y275117D01*
X77696Y259883D02*
X67539D01*
X77696Y270039D01*
Y272578D01*
X75157Y275117D01*
X70078D01*
X67539Y272578D01*
X115827Y198372D02*
Y185676D01*
X118366Y183137D01*
X123445D01*
X125984Y185676D01*
Y198372D01*
X131062Y183137D02*
X136141D01*
X133602D01*
Y198372D01*
X131062Y195832D01*
X44454Y189233D02*
Y204468D01*
X52072D01*
X54611Y201928D01*
Y196850D01*
X52072Y194311D01*
X44454D01*
X49532D02*
X54611Y189233D01*
X59689Y201928D02*
X62228Y204468D01*
X67307D01*
X69846Y201928D01*
Y199389D01*
X67307Y196850D01*
X69846Y194311D01*
Y191772D01*
X67307Y189233D01*
X62228D01*
X59689Y191772D01*
Y194311D01*
X62228Y196850D01*
X59689Y199389D01*
Y201928D01*
X62228Y196850D02*
X67307D01*
X168402Y210312D02*
Y225547D01*
X176019D01*
X178559Y223008D01*
Y217929D01*
X176019Y215390D01*
X168402D01*
X173480D02*
X178559Y210312D01*
X193794Y225547D02*
X188715Y223008D01*
X183637Y217929D01*
Y212851D01*
X186176Y210312D01*
X191255D01*
X193794Y212851D01*
Y215390D01*
X191255Y217929D01*
X183637D01*
X192536Y45469D02*
Y60704D01*
X200154D01*
X202693Y58164D01*
Y53086D01*
X200154Y50547D01*
X192536D01*
X197614D02*
X202693Y45469D01*
X217928Y60704D02*
X207771D01*
Y53086D01*
X212850Y55625D01*
X215389D01*
X217928Y53086D01*
Y48008D01*
X215389Y45469D01*
X210310D01*
X207771Y48008D01*
X108204Y40386D02*
Y55621D01*
X115822D01*
X118361Y53082D01*
Y48004D01*
X115822Y45464D01*
X108204D01*
X113282D02*
X118361Y40386D01*
X131057D02*
Y55621D01*
X123439Y48004D01*
X133596D01*
X73406Y163830D02*
Y179065D01*
X81024D01*
X83563Y176526D01*
Y171448D01*
X81024Y168908D01*
X73406D01*
X78484D02*
X83563Y163830D01*
X88641Y176526D02*
X91180Y179065D01*
X96259D01*
X98798Y176526D01*
Y173987D01*
X96259Y171448D01*
X93719D01*
X96259D01*
X98798Y168908D01*
Y166369D01*
X96259Y163830D01*
X91180D01*
X88641Y166369D01*
X224804Y149882D02*
Y165117D01*
X232422D01*
X234961Y162578D01*
Y157500D01*
X232422Y154961D01*
X224804D01*
X229883D02*
X234961Y149882D01*
X250196D02*
X240039D01*
X250196Y160039D01*
Y162578D01*
X247657Y165117D01*
X242578D01*
X240039Y162578D01*
X225047Y81028D02*
Y96264D01*
X232665D01*
X235204Y93724D01*
Y88646D01*
X232665Y86107D01*
X225047D01*
X230126D02*
X235204Y81028D01*
X240282D02*
X245361D01*
X242822D01*
Y96264D01*
X240282Y93724D01*
X93473Y201928D02*
X90934Y204468D01*
X85855D01*
X83316Y201928D01*
Y191772D01*
X85855Y189233D01*
X90934D01*
X93473Y191772D01*
X98551Y201928D02*
X101090Y204468D01*
X106169D01*
X108708Y201928D01*
Y199389D01*
X106169Y196850D01*
X108708Y194311D01*
Y191772D01*
X106169Y189233D01*
X101090D01*
X98551Y191772D01*
Y194311D01*
X101090Y196850D01*
X98551Y199389D01*
Y201928D01*
X101090Y196850D02*
X106169D01*
X88393Y73912D02*
X85854Y76452D01*
X80775D01*
X78236Y73912D01*
Y63756D01*
X80775Y61217D01*
X85854D01*
X88393Y63756D01*
X93471Y76452D02*
X103628D01*
Y73912D01*
X93471Y63756D01*
Y61217D01*
X161291Y242568D02*
X158752Y245107D01*
X153673D01*
X151134Y242568D01*
Y232412D01*
X153673Y229872D01*
X158752D01*
X161291Y232412D01*
X176526Y245107D02*
X171448Y242568D01*
X166369Y237490D01*
Y232412D01*
X168908Y229872D01*
X173987D01*
X176526Y232412D01*
Y234951D01*
X173987Y237490D01*
X166369D01*
X27461Y67578D02*
X24922Y70118D01*
X19843D01*
X17304Y67578D01*
Y57422D01*
X19843Y54882D01*
X24922D01*
X27461Y57422D01*
X42696Y70118D02*
X32539D01*
Y62500D01*
X37617Y65039D01*
X40157D01*
X42696Y62500D01*
Y57422D01*
X40157Y54882D01*
X35078D01*
X32539Y57422D01*
X96775Y242568D02*
X94236Y245107D01*
X89157D01*
X86618Y242568D01*
Y232412D01*
X89157Y229872D01*
X94236D01*
X96775Y232412D01*
X109471Y229872D02*
Y245107D01*
X101853Y237490D01*
X112010D01*
X48257Y166112D02*
X45718Y168651D01*
X40639D01*
X38100Y166112D01*
Y155955D01*
X40639Y153416D01*
X45718D01*
X48257Y155955D01*
X53335Y166112D02*
X55874Y168651D01*
X60953D01*
X63492Y166112D01*
Y163573D01*
X60953Y161033D01*
X58413D01*
X60953D01*
X63492Y158494D01*
Y155955D01*
X60953Y153416D01*
X55874D01*
X53335Y155955D01*
X234961Y192578D02*
X232422Y195117D01*
X227343D01*
X224804Y192578D01*
Y182422D01*
X227343Y179883D01*
X232422D01*
X234961Y182422D01*
X250196Y179883D02*
X240039D01*
X250196Y190039D01*
Y192578D01*
X247657Y195117D01*
X242578D01*
X240039Y192578D01*
X186944Y266952D02*
X184405Y269492D01*
X179326D01*
X176787Y266952D01*
Y256796D01*
X179326Y254256D01*
X184405D01*
X186944Y256796D01*
X192022Y254256D02*
X197101D01*
X194562D01*
Y269492D01*
X192022Y266952D01*
M02*
