G04*
G04 #@! TF.GenerationSoftware,Altium Limited,CircuitMaker,2.0.3 (2.0.3.51)*
G04*
G04 Layer_Color=20142*
%FSLAX44Y44*%
%MOMM*%
G71*
G04*
G04 #@! TF.SameCoordinates,91AE8199-6935-4096-B88E-BAE3D630F751*
G04*
G04*
G04 #@! TF.FilePolarity,Negative*
G04*
G01*
G75*
%ADD31R,0.6532X0.7032*%
%ADD32R,1.5532X1.3032*%
%ADD33R,1.8032X1.4032*%
%ADD34R,3.1750X1.2192*%
%ADD35R,0.8032X1.8032*%
%ADD36R,0.9032X1.7032*%
G04:AMPARAMS|DCode=37|XSize=2.0032mm|YSize=1.5032mm|CornerRadius=0.2316mm|HoleSize=0mm|Usage=FLASHONLY|Rotation=180.000|XOffset=0mm|YOffset=0mm|HoleType=Round|Shape=RoundedRectangle|*
%AMROUNDEDRECTD37*
21,1,2.0032,1.0400,0,0,180.0*
21,1,1.5400,1.5032,0,0,180.0*
1,1,0.4632,-0.7700,0.5200*
1,1,0.4632,0.7700,0.5200*
1,1,0.4632,0.7700,-0.5200*
1,1,0.4632,-0.7700,-0.5200*
%
%ADD37ROUNDEDRECTD37*%
%ADD38R,1.4032X1.8032*%
%ADD39R,1.1032X1.2032*%
%ADD40R,1.3032X1.5532*%
%ADD41O,0.4020X1.2520*%
%ADD42O,1.2520X0.4020*%
%ADD43R,3.2520X3.2520*%
%ADD44R,1.5032X1.1032*%
%ADD45R,0.7032X0.6532*%
%ADD46C,1.7272*%
%ADD47C,2.7272*%
G04:AMPARAMS|DCode=48|XSize=2.7272mm|YSize=1.7272mm|CornerRadius=0.4826mm|HoleSize=0mm|Usage=FLASHONLY|Rotation=0.000|XOffset=0mm|YOffset=0mm|HoleType=Round|Shape=RoundedRectangle|*
%AMROUNDEDRECTD48*
21,1,2.7272,0.7620,0,0,0.0*
21,1,1.7620,1.7272,0,0,0.0*
1,1,0.9652,0.8810,-0.3810*
1,1,0.9652,-0.8810,-0.3810*
1,1,0.9652,-0.8810,0.3810*
1,1,0.9652,0.8810,0.3810*
%
%ADD48ROUNDEDRECTD48*%
%ADD49C,1.4732*%
%ADD50C,0.7532*%
D31*
X170000Y198750D02*
D03*
Y191250D02*
D03*
D32*
X83058Y103378D02*
D03*
Y89378D02*
D03*
D33*
X55118Y64296D02*
D03*
Y100296D02*
D03*
D34*
X259334Y236982D02*
D03*
X211204D02*
D03*
D35*
X25894Y226070D02*
D03*
X55894D02*
D03*
D36*
X40894Y225570D02*
D03*
D37*
X212344Y161514D02*
D03*
Y189514D02*
D03*
D38*
X178528Y214122D02*
D03*
X142528D02*
D03*
X82838Y215138D02*
D03*
X118838D02*
D03*
X45754Y132334D02*
D03*
X81754D02*
D03*
D39*
X62738Y180086D02*
D03*
X49738D02*
D03*
D40*
X102758Y179070D02*
D03*
X88758D02*
D03*
D41*
X165000Y174000D02*
D03*
X160000D02*
D03*
X155000D02*
D03*
X150000D02*
D03*
X145000D02*
D03*
X140000D02*
D03*
X135000D02*
D03*
Y126000D02*
D03*
X140000D02*
D03*
X145000D02*
D03*
X150000D02*
D03*
X155000D02*
D03*
X160000D02*
D03*
X165000D02*
D03*
D42*
X126000Y165000D02*
D03*
Y160000D02*
D03*
Y155000D02*
D03*
Y150000D02*
D03*
Y145000D02*
D03*
Y140000D02*
D03*
Y135000D02*
D03*
X174000D02*
D03*
Y140000D02*
D03*
Y145000D02*
D03*
Y150000D02*
D03*
Y155000D02*
D03*
Y160000D02*
D03*
Y165000D02*
D03*
D43*
X150000Y150000D02*
D03*
D44*
X181864Y48892D02*
D03*
Y64392D02*
D03*
D45*
X82490Y151892D02*
D03*
X74990D02*
D03*
D46*
X267500Y108750D02*
D03*
Y162500D02*
D03*
X150000Y20000D02*
D03*
X118250D02*
D03*
X181750D02*
D03*
D47*
X147500Y265000D02*
D03*
X105000D02*
D03*
D48*
X15000Y85000D02*
D03*
Y117500D02*
D03*
Y150000D02*
D03*
Y177500D02*
D03*
D49*
X250000Y100000D02*
D03*
X180000Y180000D02*
D03*
X127500Y100000D02*
D03*
X260000Y190000D02*
D03*
X185000Y200000D02*
D03*
X170000Y107500D02*
D03*
X235000Y117500D02*
D03*
X35000Y85000D02*
D03*
Y117500D02*
D03*
Y150000D02*
D03*
Y177500D02*
D03*
X184912Y239268D02*
D03*
X60000Y160000D02*
D03*
X70000Y200000D02*
D03*
X104902Y121412D02*
D03*
X181610Y79756D02*
D03*
X26162Y204978D02*
D03*
D50*
X161000Y161000D02*
D03*
Y150000D02*
D03*
Y139000D02*
D03*
X150000Y161000D02*
D03*
Y150000D02*
D03*
Y139000D02*
D03*
X139000Y161000D02*
D03*
Y150000D02*
D03*
Y139000D02*
D03*
M02*
