G04*
G04 #@! TF.GenerationSoftware,Altium Limited,Altium Designer,22.2.1 (43)*
G04*
G04 Layer_Color=16711935*
%FSLAX25Y25*%
%MOIN*%
G70*
G04*
G04 #@! TF.SameCoordinates,A0B6180B-CB23-4C68-ABD7-9AFF8C43F20D*
G04*
G04*
G04 #@! TF.FilePolarity,Negative*
G04*
G01*
G75*
%ADD13C,0.04724*%
%ADD45C,0.10737*%
%ADD46O,0.05619X0.06800*%
%ADD47O,0.05682X0.06800*%
G04:AMPARAMS|DCode=48|XSize=107.37mil|YSize=68mil|CornerRadius=19mil|HoleSize=0mil|Usage=FLASHONLY|Rotation=0.000|XOffset=0mil|YOffset=0mil|HoleType=Round|Shape=RoundedRectangle|*
%AMROUNDEDRECTD48*
21,1,0.10737,0.03000,0,0,0.0*
21,1,0.06937,0.06800,0,0,0.0*
1,1,0.03800,0.03469,-0.01500*
1,1,0.03800,-0.03469,-0.01500*
1,1,0.03800,-0.03469,0.01500*
1,1,0.03800,0.03469,0.01500*
%
%ADD48ROUNDEDRECTD48*%
%ADD49C,0.05800*%
%ADD50C,0.12611*%
%ADD51C,0.02965*%
D13*
X112599Y110236D02*
G03*
X110236Y112599I-2362J0D01*
G01*
X112599Y110236D02*
G03*
X110236Y112599I-2362J0D01*
G01*
Y-2362D02*
G03*
X112599Y0I0J2362D01*
G01*
X110236Y-2362D02*
G03*
X112599Y0I0J2362D01*
G01*
X0Y112599D02*
G03*
X-2362Y110236I0J-2362D01*
G01*
X0Y112599D02*
G03*
X-2362Y110236I0J-2362D01*
G01*
Y0D02*
G03*
X0Y-2362I2362J0D01*
G01*
X-2362Y0D02*
G03*
X0Y-2362I2362J0D01*
G01*
X112599Y0D02*
Y110236D01*
X0Y112599D02*
X110236D01*
X0Y-2362D02*
X110236D01*
X-2362Y0D02*
Y110236D01*
D45*
X41339Y104331D02*
D03*
X58071D02*
D03*
D46*
X103346Y63976D02*
D03*
D47*
X102362Y43307D02*
D03*
D48*
X5906Y33465D02*
D03*
Y46260D02*
D03*
Y59055D02*
D03*
Y69882D02*
D03*
D49*
X98425Y68898D02*
D03*
X32480Y62992D02*
D03*
X90643D02*
D03*
X40354Y63976D02*
D03*
X41300Y47800D02*
D03*
X71500Y31400D02*
D03*
X50197Y39370D02*
D03*
X70866Y71083D02*
D03*
X68898Y92520D02*
D03*
X45276Y43307D02*
D03*
X102362Y74803D02*
D03*
X23622Y62992D02*
D03*
X27559Y78740D02*
D03*
X72835D02*
D03*
X13780Y33465D02*
D03*
X96457Y39370D02*
D03*
X13780Y46260D02*
D03*
X66929Y42323D02*
D03*
X13780Y59055D02*
D03*
X92293Y46487D02*
D03*
X13780Y69882D02*
D03*
D50*
X99409Y14764D02*
D03*
X11811D02*
D03*
D51*
X63386Y63386D02*
D03*
Y59055D02*
D03*
Y54724D02*
D03*
X59055Y63386D02*
D03*
Y59055D02*
D03*
Y54724D02*
D03*
X54724Y63386D02*
D03*
Y59055D02*
D03*
Y54724D02*
D03*
M02*
