G04*
G04 #@! TF.GenerationSoftware,Altium Limited,Altium Designer,22.2.1 (43)*
G04*
G04 Layer_Color=8388736*
%FSLAX25Y25*%
%MOIN*%
G70*
G04*
G04 #@! TF.SameCoordinates,A0B6180B-CB23-4C68-ABD7-9AFF8C43F20D*
G04*
G04*
G04 #@! TF.FilePolarity,Positive*
G04*
G01*
G75*
%ADD12C,0.01000*%
%ADD13C,0.04724*%
D12*
X80000Y26189D02*
Y29189D01*
Y26189D02*
X86500D01*
Y27189D01*
Y43189D01*
X80000D02*
X86500D01*
X80000Y29189D02*
Y43189D01*
X98909Y52602D02*
X101909D01*
Y59102D01*
X100909D02*
X101909D01*
X84909D02*
X100909D01*
X84909Y52602D02*
Y59102D01*
Y52602D02*
X98909D01*
D13*
X112599Y110236D02*
G03*
X110236Y112599I-2362J0D01*
G01*
X112599Y110236D02*
G03*
X110236Y112599I-2362J0D01*
G01*
Y-2362D02*
G03*
X112599Y0I0J2362D01*
G01*
X110236Y-2362D02*
G03*
X112599Y0I0J2362D01*
G01*
X0Y112599D02*
G03*
X-2362Y110236I0J-2362D01*
G01*
X0Y112599D02*
G03*
X-2362Y110236I0J-2362D01*
G01*
Y0D02*
G03*
X0Y-2362I2362J0D01*
G01*
X-2362Y0D02*
G03*
X0Y-2362I2362J0D01*
G01*
X112599Y0D02*
Y110236D01*
X0Y112599D02*
X110236D01*
X0Y-2362D02*
X110236D01*
X-2362Y0D02*
Y110236D01*
M02*
