G04*
G04 #@! TF.GenerationSoftware,Altium Limited,Altium Designer,22.2.1 (43)*
G04*
G04 Layer_Color=8421504*
%FSLAX25Y25*%
%MOIN*%
G70*
G04*
G04 #@! TF.SameCoordinates,A0B6180B-CB23-4C68-ABD7-9AFF8C43F20D*
G04*
G04*
G04 #@! TF.FilePolarity,Positive*
G04*
G01*
G75*
%ADD13C,0.04724*%
%ADD14R,0.04724X0.06299*%
%ADD15O,0.04528X0.01181*%
%ADD16R,0.01772X0.01968*%
%ADD17R,0.05709X0.04724*%
%ADD18R,0.02254X0.02237*%
%ADD19R,0.03740X0.03150*%
%ADD20R,0.02559X0.02559*%
%ADD21R,0.06299X0.04724*%
%ADD22R,0.02362X0.06299*%
%ADD23R,0.02756X0.05906*%
G04:AMPARAMS|DCode=24|XSize=70.87mil|YSize=51.18mil|CornerRadius=5.12mil|HoleSize=0mil|Usage=FLASHONLY|Rotation=180.000|XOffset=0mil|YOffset=0mil|HoleType=Round|Shape=RoundedRectangle|*
%AMROUNDEDRECTD24*
21,1,0.07087,0.04095,0,0,180.0*
21,1,0.06063,0.05118,0,0,180.0*
1,1,0.01024,-0.03032,0.02047*
1,1,0.01024,0.03032,0.02047*
1,1,0.01024,0.03032,-0.02047*
1,1,0.01024,-0.03032,-0.02047*
%
%ADD24ROUNDEDRECTD24*%
%ADD25R,0.04331X0.05315*%
%ADD26R,0.03937X0.02362*%
%ADD27R,0.02362X0.03937*%
%ADD28O,0.01181X0.04528*%
%ADD29R,0.12402X0.12402*%
%ADD30R,0.05118X0.03543*%
D13*
X112599Y110236D02*
G03*
X110236Y112599I-2362J0D01*
G01*
X112599Y110236D02*
G03*
X110236Y112599I-2362J0D01*
G01*
Y-2362D02*
G03*
X112599Y0I0J2362D01*
G01*
X110236Y-2362D02*
G03*
X112599Y0I0J2362D01*
G01*
X0Y112599D02*
G03*
X-2362Y110236I0J-2362D01*
G01*
X0Y112599D02*
G03*
X-2362Y110236I0J-2362D01*
G01*
Y0D02*
G03*
X0Y-2362I2362J0D01*
G01*
X-2362Y0D02*
G03*
X0Y-2362I2362J0D01*
G01*
X112599Y0D02*
Y110236D01*
X0Y112599D02*
X110236D01*
X0Y-2362D02*
X110236D01*
X-2362Y0D02*
Y110236D01*
D14*
X18013Y52100D02*
D03*
X32187D02*
D03*
X56113Y84300D02*
D03*
X70287D02*
D03*
X32613Y84700D02*
D03*
X46787D02*
D03*
D15*
X68504Y53150D02*
D03*
X49606Y64961D02*
D03*
Y62992D02*
D03*
Y61024D02*
D03*
Y59055D02*
D03*
Y57087D02*
D03*
Y55118D02*
D03*
Y53150D02*
D03*
X68504Y55118D02*
D03*
Y57087D02*
D03*
Y59055D02*
D03*
Y61024D02*
D03*
Y62992D02*
D03*
Y64961D02*
D03*
D16*
X66929Y75295D02*
D03*
Y78248D02*
D03*
D17*
X44291Y23622D02*
D03*
Y15748D02*
D03*
D18*
X32480Y16921D02*
D03*
Y20481D02*
D03*
D19*
X57087Y19980D02*
D03*
Y25295D02*
D03*
D20*
X24109Y70900D02*
D03*
X20172D02*
D03*
D21*
X21700Y25314D02*
D03*
Y39487D02*
D03*
D22*
X10195Y89004D02*
D03*
X22006D02*
D03*
D23*
X16100Y88807D02*
D03*
D24*
X83600Y63588D02*
D03*
Y74612D02*
D03*
D25*
X40456Y70500D02*
D03*
X34944D02*
D03*
D26*
X83500Y40500D02*
D03*
Y28689D02*
D03*
D27*
X87598Y56102D02*
D03*
X99409D02*
D03*
D28*
X64961Y68504D02*
D03*
X62992D02*
D03*
X61024D02*
D03*
X59055D02*
D03*
X57087D02*
D03*
X55118D02*
D03*
X53150D02*
D03*
Y49606D02*
D03*
X55118D02*
D03*
X57087D02*
D03*
X59055D02*
D03*
X61024D02*
D03*
X62992D02*
D03*
X64961D02*
D03*
D29*
X59055Y59055D02*
D03*
D30*
X71600Y19249D02*
D03*
Y25351D02*
D03*
M02*
